<svg width="24" height="24" viewBox="0 0 24 24" fill="none" xmlns="http://www.w3.org/2000/svg">
<path fill-rule="evenodd" clip-rule="evenodd" d="M12.9798 12.3838C12.7214 12.6458 12.3687 12.7933 12.0008 12.7933C11.6328 12.7933 11.2802 12.6458 11.0218 12.3838L6.14143 7.43383C5.09175 6.42424 4.82801 4.84592 5.49243 3.54991V3.54991C6.01279 2.57583 6.95994 1.90225 8.05085 1.73042C9.14176 1.5586 10.2501 1.90844 11.0447 2.67541L12.0008 3.60491L12.9578 2.67541C13.7523 1.90844 14.8607 1.5586 15.9516 1.73042C17.0425 1.90225 17.9896 2.57583 18.51 3.54991V3.54991C19.176 4.84704 18.9118 6.42753 17.8601 7.43749L12.9798 12.3838Z" stroke="#007DC5" stroke-width="1.5" stroke-linecap="round" stroke-linejoin="round"/>
<path d="M4.4375 22.3128L2.59133 20.1303C2.00626 19.3989 1.6875 18.4901 1.6875 17.5535V12.8125C1.6875 12.0531 2.30311 11.4375 3.0625 11.4375V11.4375C3.82189 11.4375 4.4375 12.0531 4.4375 12.8125V16.25" stroke="#007DC5" stroke-width="1.5" stroke-linecap="round" stroke-linejoin="round"/>
<path d="M8.5632 22.3132V19.5632C8.56356 18.7475 8.32208 17.95 7.86928 17.2715L6.82245 15.704C6.64119 15.4038 6.34495 15.1908 6.00262 15.1146C5.66029 15.0385 5.30169 15.1057 5.0102 15.3007V15.3007C4.47465 15.6598 4.28869 16.3605 4.5757 16.9379L5.81503 19.0004" stroke="#007DC5" stroke-width="1.5" stroke-linecap="round" stroke-linejoin="round"/>
<path d="M19.5625 22.3128L21.4087 20.1303C21.9937 19.3989 22.3125 18.4901 22.3125 17.5535V12.8125C22.3125 12.0531 21.6969 11.4375 20.9375 11.4375V11.4375C20.1781 11.4375 19.5625 12.0531 19.5625 12.8125V16.25" stroke="#007DC5" stroke-width="1.5" stroke-linecap="round" stroke-linejoin="round"/>
<path d="M15.4375 22.3124V19.5624C15.4371 18.7467 15.6786 17.9493 16.1314 17.2708L17.1783 15.7014C17.3587 15.4005 17.6546 15.1865 17.997 15.1095C18.3394 15.0324 18.6984 15.0989 18.9905 15.2935V15.2935C19.5292 15.6524 19.7162 16.3563 19.4268 16.9353L18.1875 18.9978" stroke="#007DC5" stroke-width="1.5" stroke-linecap="round" stroke-linejoin="round"/>
</svg>
