<svg width="20" height="20" viewBox="0 0 20 20" fill="none" xmlns="http://www.w3.org/2000/svg">
<path d="M10 15.0625C9.84467 15.0625 9.71875 15.1884 9.71875 15.3438C9.71875 15.4991 9.84467 15.625 10 15.625C10.1553 15.625 10.2812 15.4991 10.2812 15.3438C10.2812 15.1884 10.1553 15.0625 10 15.0625V15.0625" stroke="#303030" stroke-width="1.5" stroke-linecap="round" stroke-linejoin="round"/>
<path d="M10 12.8125V7.1875" stroke="#303030" stroke-width="1.5" stroke-linecap="round"/>
<path fill-rule="evenodd" clip-rule="evenodd" d="M11.2158 2.31982C10.988 1.85623 10.5165 1.5625 10 1.5625C9.48351 1.5625 9.01197 1.85623 8.78426 2.31982L1.67951 16.7933C1.50564 17.147 1.52666 17.5654 1.7351 17.8999C1.94355 18.2344 2.30989 18.4376 2.70401 18.4373H17.296C17.6901 18.4376 18.0565 18.2344 18.2649 17.8999C18.4734 17.5654 18.4944 17.147 18.3205 16.7933L11.2158 2.31982Z" stroke="#303030" stroke-width="1.5" stroke-linecap="round" stroke-linejoin="round"/>
</svg>
