<svg width="201" height="186" viewBox="0 0 201 186" fill="none" xmlns="http://www.w3.org/2000/svg">
<path d="M60.4759 111.782C60.4759 111.782 60.6577 115.478 62.7179 119.477H140.157C146.519 119.477 151.67 114.266 151.67 107.965L158.578 60.9502H53.75L60.4759 111.782Z" fill="#80BEE2"/>
<path d="M36.4787 45.561L36.2969 47.8027L45.1436 107.904C45.1436 114.266 50.3547 119.416 56.6565 119.416H62.7159C60.7163 115.417 60.4739 111.721 60.4739 111.721L53.748 60.8894H158.576L160.818 45.561H36.4787Z" fill="#579ABC"/>
<path d="M168.875 21.2051H31.3268C29.7513 25.4461 27.6911 34.1706 31.0844 46.1666H168.936C173.662 46.1666 177.601 42.2891 177.601 37.5028V29.8689C177.54 25.0826 173.662 21.2051 168.875 21.2051Z" fill="#80BEE2"/>
<path d="M31.3258 21.2051H27.872C23.1456 21.2051 19.207 25.0826 19.207 29.8689V37.5634C19.207 42.2891 23.085 46.2272 27.872 46.2272H31.0835C27.6296 34.1706 29.6898 25.4461 31.3258 21.2051Z" fill="#579ABC"/>
<path d="M27.995 96.8773L87.5589 37.3209C88.9526 35.9275 88.9526 33.5646 87.5589 32.1711L84.5292 29.1418C83.1355 27.7483 80.7724 27.7483 79.3787 29.1418L19.8148 88.6981C18.4211 90.0916 18.4211 92.4545 19.8148 93.848L22.8445 96.8773C24.2987 98.2708 26.6013 98.2708 27.995 96.8773Z" fill="#1F352D"/>
<path d="M168.633 96.8773L109.069 37.3209C107.675 35.9275 107.675 33.5646 109.069 32.1711L112.098 29.1418C113.492 27.7483 115.855 27.7483 117.249 29.1418L176.813 88.6981C178.206 90.0916 178.206 92.4545 176.813 93.848L173.783 96.8773C172.389 98.2708 170.087 98.2708 168.633 96.8773Z" fill="#1F352D"/>
<path d="M71.0182 83.5485C74.1973 83.5485 76.7746 80.9716 76.7746 77.7928C76.7746 74.614 74.1973 72.0371 71.0182 72.0371C67.839 72.0371 65.2617 74.614 65.2617 77.7928C65.2617 80.9716 67.839 83.5485 71.0182 83.5485Z" fill="#1F352D"/>
<path d="M126.702 83.5485C129.881 83.5485 132.458 80.9716 132.458 77.7928C132.458 74.614 129.881 72.0371 126.702 72.0371C123.523 72.0371 120.945 74.614 120.945 77.7928C120.945 80.9716 123.523 83.5485 126.702 83.5485Z" fill="#1F352D"/>
<path d="M87.3164 99.0586C87.3164 99.0586 97.8598 109.601 110.342 99.0586" stroke="#1F352D" stroke-width="6.72289" stroke-miterlimit="10" stroke-linecap="round" stroke-linejoin="round"/>
<path d="M98.3452 164.189C129.869 164.189 155.425 160.744 155.425 156.494C155.425 152.245 129.869 148.8 98.3452 148.8C66.821 148.8 41.2656 152.245 41.2656 156.494C41.2656 160.744 66.821 164.189 98.3452 164.189Z" fill="#E6E6E6"/>
</svg>
