<svg width="16" height="16" viewBox="0 0 16 16" fill="none" xmlns="http://www.w3.org/2000/svg">
<path fill-rule="evenodd" clip-rule="evenodd" d="M8 14.5625C11.6244 14.5625 14.5625 11.6244 14.5625 8C14.5625 4.37563 11.6244 1.4375 8 1.4375C4.37563 1.4375 1.4375 4.37563 1.4375 8C1.4375 11.6244 4.37563 14.5625 8 14.5625Z" fill="#8C8C8C" stroke="#8C8C8C" stroke-width="1.03529"/>
<path d="M8 11.0625C7.87919 11.0625 7.78125 11.1604 7.78125 11.2813C7.78125 11.4021 7.87919 11.5 8 11.5C8.12081 11.5 8.21875 11.4021 8.21875 11.2813C8.21875 11.1604 8.12081 11.0625 8 11.0625V11.0625" stroke="white" stroke-width="1.03529" stroke-linecap="round" stroke-linejoin="round"/>
<path d="M6.25 6.24978C6.25017 5.35986 6.91818 4.61179 7.80241 4.51131C8.68663 4.41082 9.50546 4.98994 9.7053 5.85713C9.90515 6.72432 9.42235 7.60339 8.58333 7.90003C8.23357 8.02369 7.99981 8.35447 8 8.72545V9.31228" stroke="white" stroke-width="1.03529" stroke-linecap="round" stroke-linejoin="round"/>
</svg>
