<svg width="18" height="18" viewBox="0 0 18 18" fill="none" xmlns="http://www.w3.org/2000/svg">
<path d="M16.3125 9.5625V16.3125C16.3125 16.9338 15.8088 17.4375 15.1875 17.4375H2.8125C2.19118 17.4375 1.6875 16.9338 1.6875 16.3125V9.5625" stroke="#666666" stroke-linecap="round" stroke-linejoin="round"/>
<path fill-rule="evenodd" clip-rule="evenodd" d="M15.861 0.5625H2.139C1.87528 0.562456 1.64684 0.745398 1.58925 1.00275L0.5625 5.625C0.5625 6.55698 1.31802 7.3125 2.25 7.3125C3.18198 7.3125 3.9375 6.55698 3.9375 5.625C3.9375 6.55698 4.69302 7.3125 5.625 7.3125C6.55698 7.3125 7.3125 6.55698 7.3125 5.625C7.3125 6.55698 8.06802 7.3125 9 7.3125C9.93198 7.3125 10.6875 6.55698 10.6875 5.625C10.6875 6.55698 11.443 7.3125 12.375 7.3125C13.307 7.3125 14.0625 6.55698 14.0625 5.625C14.0625 6.55698 14.818 7.3125 15.75 7.3125C16.682 7.3125 17.4375 6.55698 17.4375 5.625L16.41 1.00275C16.353 0.745356 16.1246 0.562244 15.861 0.5625Z" stroke="#666666" stroke-linecap="round" stroke-linejoin="round"/>
<path d="M1.6875 12.9375H11.25" stroke="#666666" stroke-linecap="round" stroke-linejoin="round"/>
<path d="M11.25 17.4375V9.5625" stroke="#666666" stroke-linecap="round" stroke-linejoin="round"/>
</svg>
