<svg width="17" height="18" viewBox="0 0 17 18" fill="none" xmlns="http://www.w3.org/2000/svg">
<path fill-rule="evenodd" clip-rule="evenodd" d="M15.6718 8.73717C15.683 7.67181 15.0105 6.71908 14.003 6.37275C14.4822 5.41295 14.3095 4.25581 13.5709 3.47779C12.848 2.7158 11.7043 2.53239 10.7793 3.03012C10.4938 2.00724 9.5619 1.2998 8.49992 1.2998C7.43794 1.2998 6.50601 2.00724 6.2205 3.03012C5.29531 2.53254 4.15153 2.71591 3.42826 3.47779C2.68983 4.25597 2.51741 5.41309 2.99688 6.37275C1.99645 6.72829 1.32812 7.67508 1.32812 8.73681C1.32812 9.79855 1.99645 10.7453 2.99688 11.1009C2.51741 12.0605 2.68983 13.2177 3.42826 13.9958C4.15135 14.7579 5.29516 14.9416 6.2205 14.4442C6.50601 15.4671 7.43794 16.1745 8.49992 16.1745C9.5619 16.1745 10.4938 15.4671 10.7793 14.4442C11.7044 14.9418 12.8481 14.7581 13.5709 13.9958C14.3095 13.2178 14.4822 12.0607 14.003 11.1009C15.0104 10.7548 15.6829 9.80233 15.6718 8.73717Z" stroke="#ED1D24" stroke-width="1.0625" stroke-linecap="round" stroke-linejoin="round"/>
<path d="M6.10938 11.3936L11.4219 6.08105" stroke="#ED1D24" stroke-width="1.0625" stroke-linecap="round" stroke-linejoin="round"/>
<path fill-rule="evenodd" clip-rule="evenodd" d="M6.64062 7.6748C7.22743 7.6748 7.70312 7.19911 7.70312 6.6123C7.70312 6.0255 7.22743 5.5498 6.64062 5.5498C6.05382 5.5498 5.57812 6.0255 5.57812 6.6123C5.57812 7.19911 6.05382 7.6748 6.64062 7.6748Z" stroke="#ED1D24" stroke-width="1.0625" stroke-linecap="round" stroke-linejoin="round"/>
<path fill-rule="evenodd" clip-rule="evenodd" d="M10.8906 11.9248C11.4774 11.9248 11.9531 11.4491 11.9531 10.8623C11.9531 10.2755 11.4774 9.7998 10.8906 9.7998C10.3038 9.7998 9.82812 10.2755 9.82812 10.8623C9.82812 11.4491 10.3038 11.9248 10.8906 11.9248Z" stroke="#ED1D24" stroke-width="1.0625" stroke-linecap="round" stroke-linejoin="round"/>
</svg>
