<svg width="14" height="14" viewBox="0 0 14 14" fill="none" xmlns="http://www.w3.org/2000/svg">
<g clip-path="url(#clip0_7838:59933)">
<path d="M0 9.42499C0.219184 8.40325 0.955051 7.79354 1.76771 7.25006C1.90603 7.15754 1.95841 7.06553 1.94214 6.90122C1.89993 6.48262 1.87094 6.0625 1.84247 5.64288C1.81195 5.18585 1.9279 4.75814 2.2371 4.42397C2.69377 3.93003 3.17181 3.45228 3.67069 3.00081C4.17822 2.54226 4.81492 2.61102 5.43535 2.6641C5.67132 2.68433 5.9083 2.70101 6.14325 2.73033C6.29835 2.74954 6.3843 2.68534 6.47635 2.5635C6.72909 2.2273 6.99659 1.90121 7.26917 1.58018C7.63126 1.15298 8.1276 0.944685 8.6453 0.777344C8.93364 0.777344 9.22148 0.777344 9.50983 0.777344C9.53119 0.789477 9.55102 0.807678 9.57441 0.813239C11.2608 1.2096 12.3714 2.26066 13.0254 3.82437C13.1119 4.03064 13.1576 4.25359 13.2222 4.46896C13.2222 4.75562 13.2222 5.04227 13.2222 5.32892C12.9954 6.35623 12.2534 6.96695 11.4413 7.52812C11.3579 7.58576 11.2892 7.72934 11.2913 7.83146C11.2984 8.18434 11.3304 8.53773 11.3701 8.8891C11.4342 9.4533 11.3279 9.97808 10.9404 10.3977C10.5066 10.8674 10.0453 11.3148 9.56882 11.7415C9.22962 12.0458 8.80193 12.1601 8.34068 12.1242C7.93537 12.0928 7.52955 12.0691 7.12525 12.0281C6.94421 12.0099 6.83691 12.065 6.72706 12.2157C6.4794 12.5554 6.22309 12.8947 5.93169 13.1965C5.18158 13.9735 4.24891 14.1859 3.25063 13.837C1.59328 13.2577 0.480577 12.1333 0.0508547 10.4012C0.0371239 10.3451 0.0167821 10.29 0 10.2344C0 9.96443 0 9.69496 0 9.42499ZM0.477526 9.84259C0.495325 11.4331 2.16132 13.2577 3.78105 13.4751C4.46606 13.5671 5.04682 13.3891 5.54723 12.9088C6.04205 12.4336 6.39193 11.8618 6.73621 11.2789C7.05711 10.7349 7.38105 10.1879 7.75941 9.68384C8.47748 8.72631 9.45999 8.08475 10.4939 7.50335C11.0212 7.20658 11.5232 6.8532 11.9936 6.47352C12.7447 5.86735 12.91 5.05137 12.6298 4.16562C12.2341 2.91385 11.3869 2.01648 10.1913 1.50434C9.04654 1.01344 8.22473 1.15854 7.45784 2.09383C7.01744 2.63124 6.64213 3.23033 6.29835 3.836C5.58741 5.08929 4.65524 6.11912 3.40625 6.85421C3.02026 7.08171 2.60834 7.2718 2.24473 7.53014C1.78602 7.85573 1.34358 8.21114 0.932167 8.59435C0.582795 8.91994 0.470406 9.36837 0.477526 9.84259ZM6.07154 3.2091C5.65759 3.1732 5.27923 3.14135 4.90036 3.10748C4.48691 3.07058 4.1294 3.20253 3.82783 3.47553C3.53389 3.74196 3.26691 4.03923 2.96381 4.29454C2.11861 5.00638 2.31643 5.91386 2.44255 6.83348C4.08109 6.0534 5.27516 4.86583 6.07154 3.2091ZM7.15322 11.5468C7.56667 11.5822 7.94605 11.6121 8.32441 11.6474C8.6992 11.6828 9.04247 11.5908 9.31302 11.337C9.75546 10.9215 10.1857 10.4917 10.5976 10.0468C10.7288 9.90477 10.857 9.69749 10.8636 9.51549C10.8829 8.99071 10.8402 8.46341 10.8204 7.90173C9.13757 8.70355 7.943 9.89062 7.15322 11.5468Z" fill="#007DC5"/>
<path d="M7.72432 4.08292C7.9552 4.08494 8.14591 4.27908 8.1398 4.50456C8.1337 4.72347 7.92519 4.93125 7.71364 4.92923C7.49598 4.92721 7.30121 4.72347 7.30121 4.49748C7.30172 4.272 7.49598 4.0809 7.72432 4.08292Z" fill="#007DC5"/>
<path d="M9.39693 6.59304C9.17114 6.58798 8.97026 6.38828 8.9728 6.17241C8.97534 5.95047 9.1747 5.76442 9.40761 5.76594C9.64358 5.76745 9.82767 5.9535 9.82208 6.18454C9.81648 6.42115 9.63137 6.5986 9.39693 6.59304Z" fill="#007DC5"/>
<path d="M3.3854 10.1786C3.61221 10.1761 3.80241 10.3666 3.80291 10.5957C3.80342 10.8277 3.61526 11.0163 3.38743 11.0128C3.1657 11.0097 2.96737 10.8131 2.96381 10.5931C2.96025 10.3692 3.15197 10.1811 3.3854 10.1786Z" fill="#007DC5"/>
<path d="M9.81953 3.79374C10.0357 3.79879 10.2106 3.98737 10.2025 4.20628C10.1933 4.454 10.0219 4.62842 9.79105 4.62539C9.55814 4.62185 9.36032 4.41002 9.37354 4.17796C9.38625 3.94692 9.57136 3.78767 9.81953 3.79374Z" fill="#007DC5"/>
<path d="M4.19907 8.63611C4.19297 8.86412 3.9987 9.0441 3.76732 9.0355C3.53389 9.02691 3.35539 8.83783 3.36302 8.60729C3.37065 8.37574 3.55983 8.19981 3.79376 8.20739C4.02261 8.21497 4.20517 8.4081 4.19907 8.63611Z" fill="#007DC5"/>
<path d="M5.04479 10.2812C5.04936 10.0451 5.23244 9.87271 5.47146 9.88131C5.70285 9.8894 5.88541 10.081 5.87829 10.3075C5.87117 10.534 5.67437 10.7185 5.44806 10.7114C5.21922 10.7044 5.04021 10.5138 5.04479 10.2812Z" fill="#007DC5"/>
<path d="M0 9.42499C0.219184 8.40325 0.955051 7.79354 1.76771 7.25006C1.90603 7.15754 1.95841 7.06553 1.94214 6.90122C1.89993 6.48262 1.87094 6.0625 1.84247 5.64288C1.81195 5.18585 1.9279 4.75814 2.2371 4.42397C2.69377 3.93003 3.17181 3.45228 3.67069 3.00081C4.17822 2.54226 4.81492 2.61102 5.43535 2.6641C5.67132 2.68433 5.9083 2.70101 6.14325 2.73033C6.29835 2.74954 6.3843 2.68534 6.47635 2.5635C6.72909 2.2273 6.99659 1.90121 7.26917 1.58018C7.63126 1.15298 8.1276 0.944685 8.6453 0.777344C8.93364 0.777344 9.22148 0.777344 9.50983 0.777344C9.53119 0.789477 9.55102 0.807678 9.57441 0.813239C11.2608 1.2096 12.3714 2.26066 13.0254 3.82437C13.1119 4.03064 13.1576 4.25359 13.2222 4.46896C13.2222 4.75562 13.2222 5.04227 13.2222 5.32892C12.9954 6.35623 12.2534 6.96695 11.4413 7.52812C11.3579 7.58576 11.2892 7.72934 11.2913 7.83146C11.2984 8.18434 11.3304 8.53773 11.3701 8.8891C11.4342 9.4533 11.3279 9.97808 10.9404 10.3977C10.5066 10.8674 10.0453 11.3148 9.56882 11.7415C9.22962 12.0458 8.80193 12.1601 8.34068 12.1242C7.93537 12.0928 7.52955 12.0691 7.12525 12.0281C6.94421 12.0099 6.83691 12.065 6.72706 12.2157C6.4794 12.5554 6.22309 12.8947 5.93169 13.1965C5.18158 13.9735 4.24891 14.1859 3.25063 13.837C1.59328 13.2577 0.480577 12.1333 0.0508547 10.4012C0.0371239 10.3451 0.0167821 10.29 0 10.2344C0 9.96443 0 9.69496 0 9.42499ZM0.477526 9.84259C0.495325 11.4331 2.16132 13.2577 3.78105 13.4751C4.46606 13.5671 5.04682 13.3891 5.54723 12.9088C6.04205 12.4336 6.39193 11.8618 6.73621 11.2789C7.05711 10.7349 7.38105 10.1879 7.75941 9.68384C8.47748 8.72631 9.45999 8.08475 10.4939 7.50335C11.0212 7.20658 11.5232 6.8532 11.9936 6.47352C12.7447 5.86735 12.91 5.05137 12.6298 4.16562C12.2341 2.91385 11.3869 2.01648 10.1913 1.50434C9.04654 1.01344 8.22473 1.15854 7.45784 2.09383C7.01744 2.63124 6.64213 3.23033 6.29835 3.836C5.58741 5.08929 4.65524 6.11912 3.40625 6.85421C3.02026 7.08171 2.60834 7.2718 2.24473 7.53014C1.78602 7.85573 1.34358 8.21114 0.932167 8.59435C0.582795 8.91994 0.470406 9.36837 0.477526 9.84259ZM6.07154 3.2091C5.65759 3.1732 5.27923 3.14135 4.90036 3.10748C4.48691 3.07058 4.1294 3.20253 3.82783 3.47553C3.53389 3.74196 3.26691 4.03923 2.96381 4.29454C2.11861 5.00638 2.31643 5.91386 2.44255 6.83348C4.08109 6.0534 5.27516 4.86583 6.07154 3.2091ZM7.15322 11.5468C7.56667 11.5822 7.94605 11.6121 8.32441 11.6474C8.6992 11.6828 9.04247 11.5908 9.31302 11.337C9.75546 10.9215 10.1857 10.4917 10.5976 10.0468C10.7288 9.90477 10.857 9.69749 10.8636 9.51549C10.8829 8.99071 10.8402 8.46341 10.8204 7.90173C9.13757 8.70355 7.943 9.89062 7.15322 11.5468Z" stroke="#007DC5" stroke-width="0.3"/>
<path d="M7.72432 4.08292C7.9552 4.08494 8.14591 4.27908 8.1398 4.50456C8.1337 4.72347 7.92519 4.93125 7.71364 4.92923C7.49598 4.92721 7.30121 4.72347 7.30121 4.49748C7.30172 4.272 7.49598 4.0809 7.72432 4.08292Z" stroke="#007DC5" stroke-width="0.3"/>
<path d="M9.39693 6.59304C9.17114 6.58798 8.97026 6.38828 8.9728 6.17241C8.97534 5.95047 9.1747 5.76442 9.40761 5.76594C9.64358 5.76745 9.82767 5.9535 9.82208 6.18454C9.81648 6.42115 9.63137 6.5986 9.39693 6.59304Z" stroke="#007DC5" stroke-width="0.3"/>
<path d="M3.3854 10.1786C3.61221 10.1761 3.80241 10.3666 3.80291 10.5957C3.80342 10.8277 3.61526 11.0163 3.38743 11.0128C3.1657 11.0097 2.96737 10.8131 2.96381 10.5931C2.96025 10.3692 3.15197 10.1811 3.3854 10.1786Z" stroke="#007DC5" stroke-width="0.3"/>
<path d="M9.81953 3.79374C10.0357 3.79879 10.2106 3.98737 10.2025 4.20628C10.1933 4.454 10.0219 4.62842 9.79105 4.62539C9.55814 4.62185 9.36032 4.41002 9.37354 4.17796C9.38625 3.94692 9.57136 3.78767 9.81953 3.79374Z" stroke="#007DC5" stroke-width="0.3"/>
<path d="M4.19907 8.63611C4.19297 8.86412 3.9987 9.0441 3.76732 9.0355C3.53389 9.02691 3.35539 8.83783 3.36302 8.60729C3.37065 8.37574 3.55983 8.19981 3.79376 8.20739C4.02261 8.21497 4.20517 8.4081 4.19907 8.63611Z" stroke="#007DC5" stroke-width="0.3"/>
<path d="M5.04479 10.2812C5.04936 10.0451 5.23244 9.87271 5.47146 9.88131C5.70285 9.8894 5.88541 10.081 5.87829 10.3075C5.87117 10.534 5.67437 10.7185 5.44806 10.7114C5.21922 10.7044 5.04021 10.5138 5.04479 10.2812Z" stroke="#007DC5" stroke-width="0.3"/>
</g>
<defs>
<clipPath id="clip0_7838:59933">
<rect width="14" height="14" fill="white"/>
</clipPath>
</defs>
</svg>
