<svg width="15" height="15" viewBox="0 0 15 15" fill="none" xmlns="http://www.w3.org/2000/svg">
<path d="M5.26172 3.05859C6.96517 5.75139 9.24576 8.03197 11.9386 9.73543" stroke="#007DC5" stroke-linecap="round" stroke-linejoin="round"/>
<path d="M9.38362 7.84083L10.7154 6.50908C11.1737 6.04995 11.7631 5.74424 12.4024 5.63408C12.9293 5.54411 13.4153 5.29256 13.793 4.91425C14.7495 3.87906 14.7178 2.27328 13.7212 1.27666C12.7246 0.280042 11.1188 0.248333 10.0836 1.20483C9.70509 1.58286 9.45353 2.06928 9.36379 2.59666C9.25301 3.23575 8.94739 3.82498 8.48879 4.28366L7.1582 5.61541" stroke="#007DC5" stroke-linecap="round" stroke-linejoin="round"/>
<ellipse cx="5.63341" cy="9.36778" rx="2.09825" ry="2.09825" stroke="#007DC5" stroke-linecap="round" stroke-linejoin="round"/>
<path d="M9.63268 8.04883C10.238 9.89605 9.49661 11.9173 7.84046 12.935C6.18431 13.9528 4.04617 13.701 2.67165 12.3265C1.29712 10.952 1.04541 8.81386 2.06315 7.15771C3.08089 5.50156 5.10212 4.76019 6.94934 5.36549" stroke="#007DC5" stroke-linecap="round" stroke-linejoin="round"/>
</svg>
