<svg width="18" height="18" viewBox="0 0 18 18" fill="none" xmlns="http://www.w3.org/2000/svg">
<path d="M14.3624 17.4375V12.7388C16.4833 10.7739 17.1835 7.71019 16.1268 5.01906C15.0701 2.32793 12.4723 0.559248 9.58113 0.562504C4.22688 0.562504 3.07413 4.971 1.16238 9.9225C1.09599 10.0955 1.11898 10.2902 1.22385 10.443C1.32871 10.5958 1.50204 10.6872 1.68738 10.6875H3.11238V12.9375C3.11238 14.1801 4.11973 15.1875 5.36238 15.1875H6.48738V17.4375" stroke="#007DC5" stroke-linecap="round" stroke-linejoin="round"/>
<path d="M6.48828 10.9688C6.64361 10.9688 6.76953 11.0947 6.76953 11.25" stroke="#007DC5" stroke-linecap="round" stroke-linejoin="round"/>
<path d="M6.20703 11.25C6.20703 11.0947 6.33295 10.9688 6.48828 10.9688" stroke="#007DC5" stroke-linecap="round" stroke-linejoin="round"/>
<path d="M6.48828 11.5312C6.33295 11.5312 6.20703 11.4053 6.20703 11.25" stroke="#007DC5" stroke-linecap="round" stroke-linejoin="round"/>
<path d="M6.76953 11.25C6.76953 11.4053 6.64361 11.5312 6.48828 11.5312" stroke="#007DC5" stroke-linecap="round" stroke-linejoin="round"/>
<path d="M8.73828 8.15625C8.89361 8.15625 9.01953 8.28217 9.01953 8.4375" stroke="#007DC5" stroke-linecap="round" stroke-linejoin="round"/>
<path d="M8.45703 8.4375C8.45703 8.28217 8.58295 8.15625 8.73828 8.15625" stroke="#007DC5" stroke-linecap="round" stroke-linejoin="round"/>
<path d="M8.73828 8.71875C8.58295 8.71875 8.45703 8.59283 8.45703 8.4375" stroke="#007DC5" stroke-linecap="round" stroke-linejoin="round"/>
<path d="M9.01953 8.4375C9.01953 8.59283 8.89361 8.71875 8.73828 8.71875" stroke="#007DC5" stroke-linecap="round" stroke-linejoin="round"/>
<path d="M10.4238 10.9688C10.5792 10.9688 10.7051 11.0947 10.7051 11.25" stroke="#007DC5" stroke-linecap="round" stroke-linejoin="round"/>
<path d="M10.1445 11.25C10.1445 11.0947 10.2705 10.9688 10.4258 10.9688" stroke="#007DC5" stroke-linecap="round" stroke-linejoin="round"/>
<path d="M10.425 11.5312C10.27 11.5308 10.1445 11.405 10.1445 11.25" stroke="#007DC5" stroke-linecap="round" stroke-linejoin="round"/>
<path d="M10.707 11.25C10.707 11.4053 10.5811 11.5312 10.4258 11.5312" stroke="#007DC5" stroke-linecap="round" stroke-linejoin="round"/>
</svg>
