<svg width="16" height="16" viewBox="0 0 16 16" fill="none" xmlns="http://www.w3.org/2000/svg">
<path fill-rule="evenodd" clip-rule="evenodd" d="M1.70038 11.4692C1.51822 11.6514 1.42241 11.9026 1.437 12.1598C1.45159 12.417 1.5752 12.6558 1.7768 12.8161C4.91019 15.3334 9.42988 15.1146 12.3054 12.3063C15.1123 9.43113 15.3311 4.91304 12.8152 1.78006C12.6552 1.57814 12.4166 1.45408 12.1594 1.43904C11.9022 1.42401 11.6508 1.51941 11.4683 1.70131L1.70038 11.4692Z" stroke="#007DC5" stroke-linecap="round" stroke-linejoin="round"/>
<path d="M2.22461 10.9471C4.61363 13.4034 8.54122 13.4587 10.9985 11.0708C13.3863 8.61333 13.3307 4.68574 10.8743 2.29688" stroke="#007DC5" stroke-linecap="round" stroke-linejoin="round"/>
<path d="M9.75195 6.6875H10.6258" stroke="#007DC5" stroke-linecap="round" stroke-linejoin="round"/>
<path d="M8.4375 8.4375L9.3125 9.3125" stroke="#007DC5" stroke-linecap="round" stroke-linejoin="round"/>
<path d="M6.6875 9.75V10.6238" stroke="#007DC5" stroke-linecap="round" stroke-linejoin="round"/>
</svg>
