<svg width="16" height="16" viewBox="0 0 16 16" fill="none" xmlns="http://www.w3.org/2000/svg">
<path fill-rule="evenodd" clip-rule="evenodd" d="M10.5762 1.69392L14.3096 5.42726C14.4732 5.59062 14.5651 5.81234 14.5651 6.04355C14.5651 6.27476 14.4732 6.49647 14.3096 6.65984L9.25323 11.7168L4.28906 6.75259L9.3419 1.69392C9.50533 1.52978 9.72743 1.4375 9.95906 1.4375C10.1907 1.4375 10.4128 1.52978 10.5762 1.69392Z" stroke="#007DC5" stroke-linecap="round" stroke-linejoin="round"/>
<path fill-rule="evenodd" clip-rule="evenodd" d="M2.86625 6.75048C3.25798 6.35922 3.8926 6.35922 4.28433 6.75048L9.2485 11.7146C9.64057 12.1059 9.64123 12.7409 9.24995 13.133C8.85868 13.5251 8.22366 13.5257 7.83158 13.1345L2.86625 8.16915C2.67802 7.98107 2.57227 7.7259 2.57227 7.45981C2.57227 7.19373 2.67802 6.93855 2.86625 6.75048Z" stroke="#007DC5" stroke-linecap="round" stroke-linejoin="round"/>
<path d="M7.12374 6.75011L5.70508 5.33203" stroke="#007DC5" stroke-linecap="round" stroke-linejoin="round"/>
<path d="M8.54113 5.33215L7.12305 3.91406" stroke="#007DC5" stroke-linecap="round" stroke-linejoin="round"/>
<path d="M2.98663 8.28516L2.7463 8.76641C2.51023 9.23879 2.42861 9.77343 2.51296 10.2947C2.62433 11.076 2.36156 11.8641 1.80363 12.4222C1.48178 12.7378 1.35418 13.2019 1.46943 13.6377C1.58468 14.0735 1.92504 14.4139 2.36084 14.5291C2.79664 14.6444 3.26076 14.5168 3.57638 14.1949C4.13446 13.637 4.92256 13.3742 5.7038 13.4856C6.22511 13.5699 6.75974 13.4883 7.23213 13.2522L7.71338 13.0119" stroke="#007DC5" stroke-linecap="round" stroke-linejoin="round"/>
</svg>
