<svg width="18" height="18" viewBox="0 0 18 18" fill="none" xmlns="http://www.w3.org/2000/svg">
<path d="M12.0779 6.01501L12.0782 6.01506C12.5641 6.1106 12.9064 6.27952 13.1856 6.53906C13.4555 6.78998 13.6531 7.11471 13.8676 7.48245L13.8677 7.48255C13.8872 7.51604 13.923 7.53601 13.962 7.53601C13.9799 7.53601 13.998 7.53149 14.0157 7.5211L14.0167 7.52052C14.0677 7.49089 14.0859 7.4247 14.0555 7.37195C13.8459 7.01322 13.6514 6.68316 13.3641 6.40824C13.0835 6.13969 12.7051 5.91614 12.1201 5.80164L12.1199 5.80161C11.6519 5.7097 11.2869 5.70763 10.9147 5.70584L10.9146 5.70584L10.8973 5.70574C10.5796 5.70401 10.2582 5.70226 9.87351 5.63285L12.0779 6.01501ZM12.0779 6.01501C11.6273 5.92697 11.2719 5.92518 10.9176 5.92339L10.9137 5.92337C10.9137 5.92337 10.9136 5.92337 10.9136 5.92337M12.0779 6.01501L10.9136 5.92337M10.9136 5.92337C10.5728 5.92158 10.2397 5.9195 9.83523 5.84746L10.9136 5.92337ZM9.87294 5.63275L9.87324 5.6328L9.83502 5.84742C9.43062 5.77499 9.08572 5.63987 8.73494 5.31724C8.37563 4.98676 7.99812 4.44841 7.55855 3.54416C7.5325 3.48981 7.55515 3.42461 7.60809 3.39794C7.66311 3.37199 7.72752 3.39497 7.7537 3.44868C8.2126 4.3923 8.60047 4.91917 8.95266 5.22054C9.31809 5.53325 9.6304 5.58926 9.87294 5.63275ZM8.98581 7.01432L8.98571 7.01427C8.28127 6.69182 7.96503 6.09952 7.86226 5.85939C7.83888 5.80374 7.86489 5.73971 7.91993 5.71612C7.97413 5.69289 8.03851 5.71792 8.06257 5.77407L8.29235 5.67558L8.0624 5.77367C8.1544 5.98935 8.43645 6.52416 9.07634 6.81687C9.77594 7.13691 10.4259 6.94291 10.6114 6.87463C10.6685 6.85427 10.7309 6.88402 10.7512 6.93939C10.7716 6.99481 10.743 7.05766 10.6866 7.07854C10.5407 7.13137 10.2578 7.21402 9.90418 7.21402C9.63041 7.21402 9.31432 7.16487 8.98581 7.01432ZM14.4159 15.2427L14.4028 15.2562L14.3918 15.2716L14.3877 15.2773C14.3867 15.2782 14.3855 15.2791 14.3844 15.28L14.3731 15.289L14.3629 15.2993C12.8658 16.812 10.7906 17.75 8.50045 17.75C3.95103 17.75 0.25 14.0483 0.25 9.5C0.25 7.21167 1.18634 5.13835 2.69729 3.64141L2.70576 3.63302L2.71339 3.62386C2.71816 3.61814 2.72219 3.61302 2.72491 3.60952L2.72632 3.60771C2.72843 3.6061 2.73128 3.60397 2.73555 3.60083L2.74937 3.5907L2.76168 3.57878C4.24826 2.13843 6.27207 1.25 8.50045 1.25C13.049 1.25 16.75 4.95084 16.75 9.4991C16.75 11.73 15.8598 13.7563 14.4159 15.2427ZM14.3824 15.2847L14.3817 15.2855C14.3819 15.2852 14.3821 15.285 14.3824 15.2847C14.3821 15.2851 14.3819 15.2853 14.3819 15.2853C14.3819 15.2853 14.3824 15.2847 14.3831 15.2839L14.3824 15.2847ZM14.1252 14.8573L14.3122 15.0443L14.4884 14.8471C15.7581 13.4256 16.5324 11.5517 16.5324 9.5C16.5324 5.07023 12.9296 1.46753 8.50045 1.46753C6.44783 1.46753 4.57371 2.24176 3.15303 3.5115L2.95588 3.68771L3.14286 3.87468L7.63571 8.3673L7.70893 8.44051H7.81248H13.9387C14.2383 8.44051 14.4825 8.68467 14.4825 8.98428V10.0157C14.4825 10.3153 14.2383 10.5595 13.9387 10.5595H10.4307H9.82712L10.2539 10.9863L14.1252 14.8573ZM5.16736 10.3411H5.42274L5.4173 10.0857C5.41208 9.84013 5.41813 9.47469 5.43607 8.91606L5.44435 8.65804H5.1862H3.06131C2.8811 8.65804 2.73507 8.80404 2.73507 8.98428V10.0148C2.73507 10.1951 2.8811 10.3411 3.06131 10.3411H5.16736ZM5.63583 10.0935L5.6382 10.3411H5.88582H8.69778H9.30136L8.87455 9.91428L7.69147 8.73126L7.61824 8.65804H7.51469H5.90376H5.66065L5.65386 8.90106C5.64129 9.35089 5.6331 9.80686 5.63583 10.0935ZM8.53005 8.65804H7.92647L8.35328 9.08482L9.53636 10.2678L9.60958 10.3411H9.71313H13.9387C14.1189 10.3411 14.2649 10.1951 14.2649 10.0148V8.98428C14.2649 8.80404 14.1189 8.65804 13.9387 8.65804H13.7019H13.4519V8.90804V9.37354C13.4519 9.43367 13.4033 9.4823 13.3431 9.4823C13.2829 9.4823 13.2343 9.43367 13.2343 9.37354V8.90804V8.65804H12.9843H8.53005ZM2.98424 4.02339L2.80117 3.84032L2.62461 4.02969C1.28722 5.46419 0.467565 7.38821 0.467565 9.5C0.467565 13.9289 4.07046 17.5316 8.49955 17.5316C10.6114 17.5316 12.5355 16.712 13.9701 15.3756L14.1596 15.199L13.9764 15.0159L9.59301 10.6327L9.51979 10.5595H9.41624H3.06131C2.76165 10.5595 2.5175 10.3153 2.5175 10.0157V8.98517C2.5175 8.68557 2.76165 8.44141 3.06131 8.44141H6.79892H7.4025L6.9757 8.01463L2.98424 4.02339Z" fill="#007DC5" stroke="#007DC5" stroke-width="0.5"/>
</svg>
