<svg width="18" height="18" viewBox="0 0 18 18" fill="none" xmlns="http://www.w3.org/2000/svg">
<path fill-rule="evenodd" clip-rule="evenodd" d="M11.25 6.1875V2.8125H6.75V6.1875V6.1875C4.73472 6.85947 3.37533 8.74539 3.375 10.8698V16.3125C3.375 16.9338 3.87868 17.4375 4.5 17.4375H13.5C14.1213 17.4375 14.625 16.9338 14.625 16.3125V10.8698C14.6247 8.74539 13.2653 6.85947 11.25 6.1875Z" stroke="#007DC5" stroke-linecap="round" stroke-linejoin="round"/>
<path fill-rule="evenodd" clip-rule="evenodd" d="M12.375 1.6875C12.375 2.30882 11.8713 2.8125 11.25 2.8125H6.75C6.12868 2.8125 5.625 2.30882 5.625 1.6875C5.625 1.06618 6.12868 0.5625 6.75 0.5625H11.25C11.8713 0.5625 12.375 1.06618 12.375 1.6875Z" stroke="#007DC5" stroke-linecap="round" stroke-linejoin="round"/>
<path fill-rule="evenodd" clip-rule="evenodd" d="M11.9475 10.1998C11.6786 9.91754 11.3057 9.75781 10.9159 9.75781C10.526 9.75781 10.1532 9.91754 9.88425 10.1998L9 11.1103L8.11575 10.1998C7.84681 9.91754 7.47398 9.75781 7.08413 9.75781C6.69427 9.75781 6.32144 9.91754 6.0525 10.1998C5.4825 10.7968 5.4825 11.7365 6.0525 12.3335L8.68575 15.0568C8.7677 15.1427 8.88126 15.1913 9 15.1913C9.11874 15.1913 9.2323 15.1427 9.31425 15.0568L11.9475 12.3298C12.5151 11.7332 12.5151 10.7963 11.9475 10.1998Z" stroke="#007DC5" stroke-linecap="round" stroke-linejoin="round"/>
</svg>
