<svg width="18" height="18" viewBox="0 0 18 18" fill="none" xmlns="http://www.w3.org/2000/svg">
<path d="M5.625 14.0538L12.1898 7.48828" stroke="#007DC5" stroke-linecap="round" stroke-linejoin="round"/>
<path d="M9.92188 6.91797L10.1469 9.52947L12.7576 9.75372" stroke="#007DC5" stroke-linecap="round" stroke-linejoin="round"/>
<path d="M7.53516 9.30469L7.76016 11.9162L10.3709 12.1404" stroke="#007DC5" stroke-linecap="round" stroke-linejoin="round"/>
<path fill-rule="evenodd" clip-rule="evenodd" d="M14.4517 17.4273H3.54825C2.25845 17.4733 1.17461 16.467 1.125 15.1773V6.17733C1.17421 4.88747 2.25829 3.88089 3.54825 3.92733H14.4517C15.7417 3.88089 16.8258 4.88747 16.875 6.17733V15.1773C16.8254 16.467 15.7416 17.4733 14.4517 17.4273Z" stroke="#007DC5" stroke-linecap="round" stroke-linejoin="round"/>
<path fill-rule="evenodd" clip-rule="evenodd" d="M12.2145 0.553145H5.7855C5.12092 0.511957 4.54729 1.01397 4.5 1.67814V3.92815H13.5V1.67814C13.4527 1.01397 12.8791 0.511957 12.2145 0.553145Z" stroke="#007DC5" stroke-linecap="round" stroke-linejoin="round"/>
<path d="M6.75 0.554688V3.92969" stroke="#007DC5" stroke-linecap="round" stroke-linejoin="round"/>
<path d="M9 0.554688V3.92969" stroke="#007DC5" stroke-linecap="round" stroke-linejoin="round"/>
<path d="M11.25 0.554688V3.92969" stroke="#007DC5" stroke-linecap="round" stroke-linejoin="round"/>
</svg>
