<svg width="18" height="18" viewBox="0 0 18 18" fill="none" xmlns="http://www.w3.org/2000/svg">
<path d="M7.3125 16.6992C5.76282 17.2452 4.04455 17.0059 2.70312 16.057C1.3617 15.1082 0.563723 13.5677 0.5625 11.9247C0.5625 8.27217 3.8985 2.76567 5.15475 0.82467C5.25702 0.663825 5.4344 0.566406 5.625 0.566406C5.8156 0.566406 5.99298 0.663825 6.09525 0.82467C7.2099 2.54274 8.20549 4.33519 9.075 6.18942" stroke="#007DC5" stroke-linecap="round" stroke-linejoin="round"/>
<path d="M5.625 14.736C4.07258 14.736 2.81374 13.4782 2.8125 11.9258" stroke="#007DC5" stroke-linecap="round" stroke-linejoin="round"/>
<ellipse cx="11.8125" cy="11.8125" rx="3.9375" ry="3.9375" stroke="#007DC5" stroke-linecap="round" stroke-linejoin="round"/>
<path d="M17.4367 17.4387L14.5957 14.5977" stroke="#007DC5" stroke-linecap="round" stroke-linejoin="round"/>
<path d="M10.6875 10.4062C10.8428 10.4062 10.9688 10.5322 10.9688 10.6875" stroke="#007DC5" stroke-linecap="round" stroke-linejoin="round"/>
<path d="M10.4062 10.6875C10.4062 10.5322 10.5322 10.4062 10.6875 10.4062" stroke="#007DC5" stroke-linecap="round" stroke-linejoin="round"/>
<path d="M10.6875 10.9688C10.5322 10.9688 10.4062 10.8428 10.4062 10.6875" stroke="#007DC5" stroke-linecap="round" stroke-linejoin="round"/>
<path d="M10.9688 10.6875C10.9688 10.8428 10.8428 10.9688 10.6875 10.9688" stroke="#007DC5" stroke-linecap="round" stroke-linejoin="round"/>
<path d="M12.9375 12.6562C13.0928 12.6562 13.2188 12.7822 13.2188 12.9375" stroke="#007DC5" stroke-linecap="round" stroke-linejoin="round"/>
<path d="M12.6562 12.9375C12.6562 12.7822 12.7822 12.6562 12.9375 12.6562" stroke="#007DC5" stroke-linecap="round" stroke-linejoin="round"/>
<path d="M12.9375 13.2188C12.7822 13.2188 12.6562 13.0928 12.6562 12.9375" stroke="#007DC5" stroke-linecap="round" stroke-linejoin="round"/>
<path d="M13.2188 12.9375C13.2188 13.0928 13.0928 13.2188 12.9375 13.2188" stroke="#007DC5" stroke-linecap="round" stroke-linejoin="round"/>
</svg>
