<svg width="18" height="18" viewBox="0 0 18 18" fill="none" xmlns="http://www.w3.org/2000/svg">
<rect x="0.128906" y="10.4766" width="14.6355" height="10.4543" rx="1.394" transform="rotate(-45 0.128906 10.4766)" stroke="#007DC5" stroke-linecap="round" stroke-linejoin="round"/>
<path fill-rule="evenodd" clip-rule="evenodd" d="M9.73817 3.82248C10.1487 3.42842 10.799 3.43508 11.2014 3.83747C11.6038 4.23986 11.6105 4.89018 11.2164 5.30073L9.73817 6.77973C9.32996 7.18815 8.66796 7.18831 8.25955 6.78011C7.85113 6.3719 7.85096 5.7099 8.25917 5.30148L9.73817 3.82248Z" stroke="#007DC5" stroke-linecap="round" stroke-linejoin="round"/>
<path fill-rule="evenodd" clip-rule="evenodd" d="M12.696 6.78301C12.9601 6.51881 13.345 6.41556 13.7059 6.51214C14.0667 6.60873 14.3486 6.89048 14.4454 7.25127C14.5422 7.61205 14.4391 7.99706 14.175 8.26126L12.6968 9.74026C12.2884 10.1485 11.6264 10.1483 11.2182 9.73988C10.8099 9.33147 10.8101 8.66947 11.2185 8.26126L12.696 6.78301Z" stroke="#007DC5" stroke-linecap="round" stroke-linejoin="round"/>
<path fill-rule="evenodd" clip-rule="evenodd" d="M5.30262 8.25919C5.56682 7.99513 5.95183 7.89207 6.31261 7.98884C6.6734 8.08561 6.95515 8.36751 7.05174 8.72834C7.14832 9.08918 7.04507 9.47413 6.78087 9.73819L5.30262 11.2164C4.89442 11.6249 4.23241 11.625 3.824 11.2168C3.41558 10.8086 3.41542 10.1466 3.82362 9.73819L5.30262 8.25919Z" stroke="#007DC5" stroke-linecap="round" stroke-linejoin="round"/>
<path fill-rule="evenodd" clip-rule="evenodd" d="M8.25972 11.2166C8.52378 10.9524 8.90873 10.8492 9.26957 10.9457C9.6304 11.0423 9.9123 11.3241 10.0091 11.6849C10.1058 12.0456 10.0028 12.4307 9.73871 12.6949L8.25972 14.1739C7.84917 14.5679 7.19885 14.5613 6.79645 14.1589C6.39406 13.7565 6.3874 13.1062 6.78147 12.6956L8.25972 11.2166Z" stroke="#007DC5" stroke-linecap="round" stroke-linejoin="round"/>
</svg>
