<svg width="18" height="18" viewBox="0 0 18 18" fill="none" xmlns="http://www.w3.org/2000/svg">
<path d="M16.3383 9.57965C15.7034 9.72167 15.0849 9.83495 14.4818 10.0027C13.9405 10.1533 13.4151 10.3606 12.8846 10.5481C12.6339 10.6369 12.4236 10.5176 12.4695 10.285C12.4871 10.1949 12.5854 10.0898 12.6734 10.0495C13.5345 9.65431 14.4444 9.41317 15.3703 9.22481C15.6498 9.16774 15.9283 9.10681 16.2309 9.04245C16.2202 8.95621 16.2176 8.88026 16.2009 8.80732C15.9318 7.65225 15.445 6.59373 14.7857 5.6103C14.6904 5.46785 14.605 5.52062 14.4977 5.56653C13.1799 6.13033 11.8059 6.48303 10.3813 6.62677C8.02087 6.86448 5.74804 6.50062 3.56406 5.58498C3.36833 5.50303 3.27862 5.52019 3.15757 5.70469C2.53646 6.65294 2.07632 7.66813 1.81448 8.77213C1.79516 8.85323 1.78572 8.93647 1.76812 9.03945C2.25273 9.14414 2.72619 9.21923 3.1829 9.35138C3.90831 9.5612 4.62472 9.8032 5.34069 10.0448C5.54157 10.1126 5.6051 10.2803 5.53041 10.4322C5.45444 10.5867 5.30163 10.6249 5.10718 10.5403C4.01305 10.0632 2.85582 9.81907 1.65223 9.59038C1.62476 9.85683 1.5887 10.1087 1.57368 10.3618C1.46637 12.1369 1.81834 13.8155 2.63776 15.3957C2.83178 15.7699 3.01678 16.1488 3.20307 16.5272C3.30523 16.7344 3.27003 16.8958 3.11336 16.9704C2.95583 17.0455 2.81203 16.9773 2.70859 16.7696C2.20723 15.7592 1.6518 14.7723 1.36549 13.6683C0.619474 10.7905 1.00794 8.08433 2.60042 5.56567C2.8438 5.1808 3.12195 4.81351 3.41898 4.46811C4.04524 3.74126 4.15684 2.91701 3.70528 2.02025C3.61257 1.83617 3.4941 1.66455 3.38035 1.49163C3.26274 1.31228 3.26875 1.15609 3.40739 1.05784C3.54303 0.961725 3.704 0.999912 3.83019 1.16983C4.67451 2.30429 4.88527 3.76657 3.73791 4.93065C3.71859 4.95038 3.70443 4.97527 3.66579 5.02848C4.96253 5.59871 6.30391 5.92953 7.69379 6.0797C10.1705 6.34787 12.7348 5.77249 14.335 5.01517C14.2861 4.95854 14.2436 4.90576 14.1976 4.85599C13.0614 3.6327 13.4126 2.15369 14.2122 1.12306C14.32 0.984037 14.4689 0.958292 14.6093 1.06899C14.7522 1.18227 14.7252 1.31828 14.644 1.47018C14.4535 1.82674 14.2324 2.17729 14.1096 2.55788C13.8942 3.22637 14.0611 3.84853 14.5178 4.378C16.3417 6.49161 17.1478 8.94591 16.9778 11.722C16.9031 12.9397 16.5924 14.1042 16.0726 15.2087C15.8232 15.7386 15.5532 16.259 15.2901 16.7825C15.1913 16.9786 15.0531 17.0417 14.8986 16.9717C14.7398 16.8996 14.7029 16.7379 14.8003 16.5315C15.148 15.7952 15.533 15.0744 15.8365 14.3205C16.419 12.8724 16.5576 11.3577 16.3825 9.81178C16.3743 9.7487 16.3584 9.68606 16.3383 9.57965Z" fill="#007DC5"/>
<path d="M9.84814 13.2542C9.65627 13.5889 9.48844 13.9184 9.28584 14.2248C9.10255 14.5015 8.90124 14.4998 8.71538 14.2196C8.51578 13.9189 8.35095 13.5945 8.15694 13.2555C8.09985 13.28 8.00799 13.3306 7.90926 13.3589C7.63541 13.4374 7.36155 13.5233 7.08212 13.5743C6.8074 13.6245 6.67391 13.4782 6.71812 13.2036C6.7486 13.0135 6.78423 12.823 6.83917 12.6389C6.89368 12.4566 6.97481 12.2824 7.03404 12.1305C6.70782 11.9464 6.38289 11.7842 6.08156 11.5864C5.77937 11.3878 5.78066 11.1857 6.08285 10.9896C6.38589 10.7931 6.71083 10.6296 7.01215 10.4597C6.92115 10.1349 6.80354 9.78432 6.72757 9.42561C6.65545 9.0845 6.79324 8.94462 7.13878 9.01327C7.49161 9.08364 7.83544 9.19992 8.20587 9.30247C8.26339 9.16988 8.32734 8.98924 8.41663 8.82234C8.51063 8.64642 8.6188 8.4765 8.73856 8.31689C8.90553 8.09377 9.10899 8.08648 9.26266 8.3156C9.4365 8.57519 9.57643 8.85752 9.7271 9.13213C9.76058 9.19263 9.77689 9.26256 9.79663 9.3162C10.1207 9.21708 10.4302 9.11582 10.744 9.03044C10.8444 9.00298 10.9599 8.99697 11.0616 9.01585C11.2144 9.04417 11.3299 9.13384 11.2878 9.31448C11.1972 9.70708 11.099 10.0975 11.0075 10.4725C11.2861 10.627 11.6003 10.7793 11.8913 10.9681C12.2382 11.1934 12.2369 11.3873 11.8862 11.6156C11.6007 11.8014 11.2917 11.9498 10.9655 12.1301C10.9813 12.1661 11.0195 12.2322 11.0397 12.303C11.1247 12.5969 11.2196 12.8891 11.2814 13.1881C11.3428 13.4872 11.1981 13.634 10.8963 13.5709C10.5839 13.5052 10.2795 13.398 9.97262 13.307C9.92026 13.2907 9.87089 13.2637 9.84814 13.2542ZM7.33837 9.63242C7.42465 10.1473 7.67232 10.5026 8.18355 10.6304C8.22862 10.6416 8.29386 10.6459 8.32477 10.6214C8.3531 10.5991 8.36555 10.5296 8.35525 10.488C8.23463 10.0074 7.84874 9.67834 7.33837 9.63242ZM9.00297 10.3571C9.37297 10.0023 9.36267 9.31362 8.9931 8.9635C8.63296 9.42819 8.63254 10.0143 9.00297 10.3571ZM7.35082 12.947C7.8702 12.8676 8.21274 12.6046 8.34494 12.1009C8.35653 12.0571 8.3604 11.9906 8.33593 11.9636C8.31146 11.9365 8.24364 11.9318 8.20072 11.9421C7.71482 12.0588 7.40963 12.4167 7.35082 12.947ZM10.6603 12.9406C10.5856 12.4188 10.3173 12.0811 9.81638 11.9456C9.7726 11.9335 9.70692 11.931 9.67773 11.9554C9.65112 11.9782 9.64425 12.0468 9.65499 12.0884C9.78118 12.5823 10.1272 12.8775 10.6603 12.9406ZM8.97979 13.6421C9.33177 13.2418 9.37169 12.6934 9.09998 12.3004C9.03173 12.2017 8.96047 12.2021 8.90553 12.3047C8.86261 12.3854 8.85145 12.4836 8.80595 12.5626C8.57158 12.9719 8.82226 13.286 8.97979 13.6421ZM10.65 9.64186C10.1701 9.66718 9.7374 10.0375 9.64812 10.5C9.62537 10.618 9.68074 10.6601 9.79191 10.6395C10.2727 10.5511 10.6083 10.1606 10.65 9.64186ZM6.65846 11.2895C7.09843 11.6165 7.55171 11.6504 7.97837 11.3946C8.08783 11.329 8.09212 11.2569 7.98052 11.1861C7.56501 10.9235 7.09027 10.957 6.65846 11.2895ZM11.3977 11.3316C10.9234 10.9583 10.4418 10.9209 10.0289 11.1904C9.9928 11.214 9.98335 11.3573 9.99366 11.3612C10.2027 11.441 10.4186 11.5693 10.6285 11.5624C10.871 11.5547 11.1093 11.4242 11.3977 11.3316ZM9.01971 11.0025C8.84758 10.9939 8.71152 11.1153 8.70636 11.2826C8.70164 11.4311 8.83428 11.5735 8.98494 11.583C9.14333 11.5929 9.29571 11.4538 9.29872 11.2959C9.30172 11.138 9.18068 11.0106 9.01971 11.0025Z" fill="#007DC5"/>
<path d="M9.27468 15.887C9.27468 16.1513 9.27854 16.4156 9.27339 16.6795C9.26953 16.8825 9.16737 16.9983 9.00168 16.9936C8.81582 16.988 8.72826 16.8687 8.72611 16.701C8.71924 16.144 8.71924 15.5871 8.72611 15.0302C8.72826 14.8624 8.81582 14.7431 9.00211 14.7375C9.16737 14.7328 9.26996 14.8487 9.27339 15.0516C9.27811 15.3301 9.27468 15.6085 9.27468 15.887Z" fill="#007DC5"/>
<path d="M9.27339 3.96781C9.26953 4.17076 9.16737 4.28661 9.00168 4.28189C8.81582 4.27631 8.72826 4.15703 8.72611 3.98926C8.71924 3.43233 8.71924 4.16261 8.72611 3.60567C8.72826 3.4379 8.81582 3.31862 9.00211 3.31304C9.16737 3.30832 9.26996 3.42417 9.27339 3.62712C9.27811 3.90559 9.27811 3.70393 9.27339 3.96781Z" fill="#007DC5"/>
<path d="M16.3383 9.57965C15.7034 9.72167 15.0849 9.83495 14.4818 10.0027C13.9405 10.1533 13.4151 10.3606 12.8846 10.5481C12.6339 10.6369 12.4236 10.5176 12.4695 10.285C12.4871 10.1949 12.5854 10.0898 12.6734 10.0495C13.5345 9.65431 14.4444 9.41317 15.3703 9.22481C15.6498 9.16774 15.9283 9.10681 16.2309 9.04245C16.2202 8.95621 16.2176 8.88026 16.2009 8.80732C15.9318 7.65225 15.445 6.59373 14.7857 5.6103C14.6904 5.46785 14.605 5.52062 14.4977 5.56653C13.1799 6.13033 11.8059 6.48303 10.3813 6.62677C8.02087 6.86448 5.74804 6.50062 3.56406 5.58498C3.36833 5.50303 3.27862 5.52019 3.15757 5.70469C2.53646 6.65294 2.07632 7.66813 1.81448 8.77213C1.79516 8.85323 1.78572 8.93647 1.76812 9.03945C2.25273 9.14414 2.72619 9.21923 3.1829 9.35138C3.90831 9.5612 4.62472 9.8032 5.34069 10.0448C5.54157 10.1126 5.6051 10.2803 5.53041 10.4322C5.45444 10.5867 5.30163 10.6249 5.10718 10.5403C4.01305 10.0632 2.85582 9.81907 1.65223 9.59038C1.62476 9.85683 1.5887 10.1087 1.57368 10.3618C1.46637 12.1369 1.81834 13.8155 2.63776 15.3957C2.83178 15.7699 3.01678 16.1488 3.20307 16.5272C3.30523 16.7344 3.27003 16.8958 3.11336 16.9704C2.95583 17.0455 2.81203 16.9773 2.70859 16.7696C2.20723 15.7592 1.6518 14.7723 1.36549 13.6683C0.619474 10.7905 1.00794 8.08433 2.60042 5.56567C2.8438 5.1808 3.12195 4.81351 3.41898 4.46811C4.04524 3.74126 4.15684 2.91701 3.70528 2.02025C3.61257 1.83617 3.4941 1.66455 3.38035 1.49163C3.26274 1.31228 3.26875 1.15609 3.40739 1.05784C3.54303 0.961725 3.704 0.999912 3.83019 1.16983C4.67451 2.30429 4.88527 3.76657 3.73791 4.93065C3.71859 4.95038 3.70443 4.97527 3.66579 5.02848C4.96253 5.59871 6.30391 5.92953 7.69379 6.0797C10.1705 6.34787 12.7348 5.77249 14.335 5.01517C14.2861 4.95854 14.2436 4.90576 14.1976 4.85599C13.0614 3.6327 13.4126 2.15369 14.2122 1.12306C14.32 0.984037 14.4689 0.958292 14.6093 1.06899C14.7522 1.18227 14.7252 1.31828 14.644 1.47018C14.4535 1.82674 14.2324 2.17729 14.1096 2.55788C13.8942 3.22637 14.0611 3.84853 14.5178 4.378C16.3417 6.49161 17.1478 8.94591 16.9778 11.722C16.9031 12.9397 16.5924 14.1042 16.0726 15.2087C15.8232 15.7386 15.5532 16.259 15.2901 16.7825C15.1913 16.9786 15.0531 17.0417 14.8986 16.9717C14.7398 16.8996 14.7029 16.7379 14.8003 16.5315C15.148 15.7952 15.533 15.0744 15.8365 14.3205C16.419 12.8724 16.5576 11.3577 16.3825 9.81178C16.3743 9.7487 16.3584 9.68606 16.3383 9.57965Z" stroke="#007DC5" stroke-width="0.2"/>
<path d="M9.84814 13.2542C9.65627 13.5889 9.48844 13.9184 9.28584 14.2248C9.10255 14.5015 8.90124 14.4998 8.71538 14.2196C8.51578 13.9189 8.35095 13.5945 8.15694 13.2555C8.09985 13.28 8.00799 13.3306 7.90926 13.3589C7.63541 13.4374 7.36155 13.5233 7.08212 13.5743C6.8074 13.6245 6.67391 13.4782 6.71812 13.2036C6.7486 13.0135 6.78423 12.823 6.83917 12.6389C6.89368 12.4566 6.97481 12.2824 7.03404 12.1305C6.70782 11.9464 6.38289 11.7842 6.08156 11.5864C5.77937 11.3878 5.78066 11.1857 6.08285 10.9896C6.38589 10.7931 6.71083 10.6296 7.01215 10.4597C6.92115 10.1349 6.80354 9.78432 6.72757 9.42561C6.65545 9.0845 6.79324 8.94462 7.13878 9.01327C7.49161 9.08364 7.83544 9.19992 8.20587 9.30247C8.26339 9.16988 8.32734 8.98924 8.41663 8.82234C8.51063 8.64642 8.6188 8.4765 8.73856 8.31689C8.90553 8.09377 9.10899 8.08648 9.26266 8.3156C9.4365 8.57519 9.57643 8.85752 9.7271 9.13213C9.76058 9.19263 9.77689 9.26256 9.79663 9.3162C10.1207 9.21708 10.4302 9.11582 10.744 9.03044C10.8444 9.00298 10.9599 8.99697 11.0616 9.01585C11.2144 9.04417 11.3299 9.13384 11.2878 9.31448C11.1972 9.70708 11.099 10.0975 11.0075 10.4725C11.2861 10.627 11.6003 10.7793 11.8913 10.9681C12.2382 11.1934 12.2369 11.3873 11.8862 11.6156C11.6007 11.8014 11.2917 11.9498 10.9655 12.1301C10.9813 12.1661 11.0195 12.2322 11.0397 12.303C11.1247 12.5969 11.2196 12.8891 11.2814 13.1881C11.3428 13.4872 11.1981 13.634 10.8963 13.5709C10.5839 13.5052 10.2795 13.398 9.97262 13.307C9.92026 13.2907 9.87089 13.2637 9.84814 13.2542ZM7.33837 9.63242C7.42465 10.1473 7.67232 10.5026 8.18355 10.6304C8.22862 10.6416 8.29386 10.6459 8.32477 10.6214C8.3531 10.5991 8.36555 10.5296 8.35525 10.488C8.23463 10.0074 7.84874 9.67834 7.33837 9.63242ZM9.00297 10.3571C9.37297 10.0023 9.36267 9.31362 8.9931 8.9635C8.63296 9.42819 8.63254 10.0143 9.00297 10.3571ZM7.35082 12.947C7.8702 12.8676 8.21274 12.6046 8.34494 12.1009C8.35653 12.0571 8.3604 11.9906 8.33593 11.9636C8.31146 11.9365 8.24364 11.9318 8.20072 11.9421C7.71482 12.0588 7.40963 12.4167 7.35082 12.947ZM10.6603 12.9406C10.5856 12.4188 10.3173 12.0811 9.81638 11.9456C9.7726 11.9335 9.70692 11.931 9.67773 11.9554C9.65112 11.9782 9.64425 12.0468 9.65499 12.0884C9.78118 12.5823 10.1272 12.8775 10.6603 12.9406ZM8.97979 13.6421C9.33177 13.2418 9.37169 12.6934 9.09998 12.3004C9.03173 12.2017 8.96047 12.2021 8.90553 12.3047C8.86261 12.3854 8.85145 12.4836 8.80595 12.5626C8.57158 12.9719 8.82226 13.286 8.97979 13.6421ZM10.65 9.64186C10.1701 9.66718 9.7374 10.0375 9.64812 10.5C9.62537 10.618 9.68074 10.6601 9.79191 10.6395C10.2727 10.5511 10.6083 10.1606 10.65 9.64186ZM6.65846 11.2895C7.09843 11.6165 7.55171 11.6504 7.97837 11.3946C8.08783 11.329 8.09212 11.2569 7.98052 11.1861C7.56501 10.9235 7.09027 10.957 6.65846 11.2895ZM11.3977 11.3316C10.9234 10.9583 10.4418 10.9209 10.0289 11.1904C9.9928 11.214 9.98335 11.3573 9.99366 11.3612C10.2027 11.441 10.4186 11.5693 10.6285 11.5624C10.871 11.5547 11.1093 11.4242 11.3977 11.3316ZM9.01971 11.0025C8.84758 10.9939 8.71152 11.1153 8.70636 11.2826C8.70164 11.4311 8.83428 11.5735 8.98494 11.583C9.14333 11.5929 9.29571 11.4538 9.29872 11.2959C9.30172 11.138 9.18068 11.0106 9.01971 11.0025Z" stroke="#007DC5" stroke-width="0.2"/>
<path d="M9.27468 15.887C9.27468 16.1513 9.27854 16.4156 9.27339 16.6795C9.26953 16.8825 9.16737 16.9983 9.00168 16.9936C8.81582 16.988 8.72826 16.8687 8.72611 16.701C8.71924 16.144 8.71924 15.5871 8.72611 15.0302C8.72826 14.8624 8.81582 14.7431 9.00211 14.7375C9.16737 14.7328 9.26996 14.8487 9.27339 15.0516C9.27811 15.3301 9.27468 15.6085 9.27468 15.887Z" stroke="#007DC5" stroke-width="0.2"/>
<path d="M9.27339 3.96781C9.26953 4.17076 9.16737 4.28661 9.00168 4.28189C8.81582 4.27631 8.72826 4.15703 8.72611 3.98926C8.71924 3.43233 8.71924 4.16261 8.72611 3.60567C8.72826 3.4379 8.81582 3.31862 9.00211 3.31304C9.16737 3.30832 9.26996 3.42417 9.27339 3.62712C9.27811 3.90559 9.27811 3.70393 9.27339 3.96781Z" stroke="#007DC5" stroke-width="0.2"/>
</svg>
