<svg width="16" height="14" viewBox="0 0 16 14" fill="none" xmlns="http://www.w3.org/2000/svg">
<path d="M1.88867 12.457C1.94674 12.4569 2.00247 12.4799 2.04352 12.5209C2.08458 12.562 2.10758 12.6177 2.10742 12.6758" stroke="#007DC5" stroke-linecap="round" stroke-linejoin="round"/>
<path d="M1.66992 12.6758C1.66977 12.6177 1.69276 12.562 1.73382 12.5209C1.77488 12.4799 1.83061 12.4569 1.88867 12.457" stroke="#007DC5" stroke-linecap="round" stroke-linejoin="round"/>
<path d="M1.88867 12.8945C1.76786 12.8945 1.66992 12.7966 1.66992 12.6758" stroke="#007DC5" stroke-linecap="round" stroke-linejoin="round"/>
<path d="M2.10742 12.6758C2.10742 12.7966 2.00948 12.8945 1.88867 12.8945" stroke="#007DC5" stroke-linecap="round" stroke-linejoin="round"/>
<path d="M3.63867 10.2695C3.69674 10.2694 3.75247 10.2924 3.79352 10.3334C3.83458 10.3745 3.85758 10.4302 3.85742 10.4883" stroke="#007DC5" stroke-linecap="round" stroke-linejoin="round"/>
<path d="M3.41992 10.4883C3.41977 10.4302 3.44276 10.3745 3.48382 10.3334C3.52488 10.2924 3.58061 10.2694 3.63867 10.2695" stroke="#007DC5" stroke-linecap="round" stroke-linejoin="round"/>
<path d="M3.63867 10.707C3.51786 10.707 3.41992 10.6091 3.41992 10.4883" stroke="#007DC5" stroke-linecap="round" stroke-linejoin="round"/>
<path d="M3.85742 10.4883C3.85742 10.6091 3.75948 10.707 3.63867 10.707" stroke="#007DC5" stroke-linecap="round" stroke-linejoin="round"/>
<path d="M5.82617 12.457C5.88424 12.4569 5.93997 12.4799 5.98102 12.5209C6.02208 12.562 6.04508 12.6177 6.04492 12.6758" stroke="#007DC5" stroke-linecap="round" stroke-linejoin="round"/>
<path d="M5.60742 12.6758C5.60727 12.6177 5.63026 12.562 5.67132 12.5209C5.71238 12.4799 5.76811 12.4569 5.82617 12.457" stroke="#007DC5" stroke-linecap="round" stroke-linejoin="round"/>
<path d="M5.82617 12.8945C5.70536 12.8945 5.60742 12.7966 5.60742 12.6758" stroke="#007DC5" stroke-linecap="round" stroke-linejoin="round"/>
<path d="M6.04492 12.6758C6.04492 12.7966 5.94698 12.8945 5.82617 12.8945" stroke="#007DC5" stroke-linecap="round" stroke-linejoin="round"/>
<path d="M14.1387 12.457C14.0806 12.4569 14.0249 12.4799 13.9838 12.5209C13.9428 12.562 13.9198 12.6177 13.9199 12.6758" stroke="#007DC5" stroke-linecap="round" stroke-linejoin="round"/>
<path d="M14.3574 12.6758C14.3576 12.6177 14.3346 12.562 14.2935 12.5209C14.2525 12.4799 14.1967 12.4569 14.1387 12.457" stroke="#007DC5" stroke-linecap="round" stroke-linejoin="round"/>
<path d="M14.1387 12.8945C14.2595 12.8945 14.3574 12.7966 14.3574 12.6758" stroke="#007DC5" stroke-linecap="round" stroke-linejoin="round"/>
<path d="M13.9199 12.6758C13.9199 12.7966 14.0179 12.8945 14.1387 12.8945" stroke="#007DC5" stroke-linecap="round" stroke-linejoin="round"/>
<path d="M12.3887 10.2695C12.3306 10.2694 12.2749 10.2924 12.2338 10.3334C12.1928 10.3745 12.1698 10.4302 12.1699 10.4883" stroke="#007DC5" stroke-linecap="round" stroke-linejoin="round"/>
<path d="M12.6074 10.4883C12.6076 10.4302 12.5846 10.3745 12.5435 10.3334C12.5025 10.2924 12.4467 10.2694 12.3887 10.2695" stroke="#007DC5" stroke-linecap="round" stroke-linejoin="round"/>
<path d="M12.3887 10.707C12.5095 10.707 12.6074 10.6091 12.6074 10.4883" stroke="#007DC5" stroke-linecap="round" stroke-linejoin="round"/>
<path d="M12.1699 10.4883C12.1699 10.6091 12.2679 10.707 12.3887 10.707" stroke="#007DC5" stroke-linecap="round" stroke-linejoin="round"/>
<path d="M10.2012 12.457C10.1431 12.4569 10.0874 12.4799 10.0463 12.5209C10.0053 12.562 9.98227 12.6177 9.98242 12.6758" stroke="#007DC5" stroke-linecap="round" stroke-linejoin="round"/>
<path d="M10.4199 12.6758C10.4201 12.6177 10.3971 12.562 10.356 12.5209C10.315 12.4799 10.2592 12.4569 10.2012 12.457" stroke="#007DC5" stroke-linecap="round" stroke-linejoin="round"/>
<path d="M10.2012 12.8945C10.322 12.8945 10.4199 12.7966 10.4199 12.6758" stroke="#007DC5" stroke-linecap="round" stroke-linejoin="round"/>
<path d="M9.98242 12.6758C9.98242 12.7966 10.0804 12.8945 10.2012 12.8945" stroke="#007DC5" stroke-linecap="round" stroke-linejoin="round"/>
<path d="M14.547 6.11328H13.7012C13.7012 7.3214 12.7218 8.30078 11.5137 8.30078C10.3055 8.30078 9.32617 7.3214 9.32617 6.11328H6.70117C6.70117 7.3214 5.72179 8.30078 4.51367 8.30078C3.30555 8.30078 2.32617 7.3214 2.32617 6.11328H1.45117" stroke="#007DC5" stroke-linecap="round" stroke-linejoin="round"/>
<path d="M8.01367 10.2695C8.07174 10.2694 8.12747 10.2924 8.16852 10.3334C8.20958 10.3745 8.23258 10.4302 8.23242 10.4883" stroke="#007DC5" stroke-linecap="round" stroke-linejoin="round"/>
<path d="M7.79492 10.4883C7.79477 10.4302 7.81776 10.3745 7.85882 10.3334C7.89988 10.2924 7.95561 10.2694 8.01367 10.2695" stroke="#007DC5" stroke-linecap="round" stroke-linejoin="round"/>
<path d="M8.01367 10.707C7.89286 10.707 7.79492 10.6091 7.79492 10.4883" stroke="#007DC5" stroke-linecap="round" stroke-linejoin="round"/>
<path d="M8.23242 10.4883C8.23242 10.6091 8.13448 10.707 8.01367 10.707" stroke="#007DC5" stroke-linecap="round" stroke-linejoin="round"/>
<path d="M4.51336 6.55078C4.51336 6.55078 4.07586 2.61328 5.38836 0.863281" stroke="#007DC5" stroke-linecap="round" stroke-linejoin="round"/>
<path d="M11.5134 6.55078C11.5134 6.55078 11.0759 2.61328 12.3884 0.863281" stroke="#007DC5" stroke-linecap="round" stroke-linejoin="round"/>
</svg>
