<svg width="14" height="16" viewBox="0 0 14 16" fill="none" xmlns="http://www.w3.org/2000/svg">
<path d="M6.54883 12.8125H3.92383C2.95733 12.8125 2.17383 12.029 2.17383 11.0625V6.6875C2.17383 5.721 2.95733 4.9375 3.92383 4.9375H7.42383C8.39033 4.9375 9.17383 5.721 9.17383 6.6875V7.125" stroke="#007DC5" stroke-linecap="round" stroke-linejoin="round"/>
<path d="M2.17383 2.3125L2.53666 1.95025C2.86477 1.62204 3.30982 1.4376 3.77391 1.4375H7.86133" stroke="#007DC5" stroke-linecap="round" stroke-linejoin="round"/>
<path fill-rule="evenodd" clip-rule="evenodd" d="M7.42383 4.9375H3.92383V4.0625C3.92383 3.57925 4.31558 3.1875 4.79883 3.1875H6.54883C7.03208 3.1875 7.42383 3.57925 7.42383 4.0625V4.9375Z" stroke="#007DC5" stroke-linecap="round" stroke-linejoin="round"/>
<path d="M5.67383 3.1875V1.4375" stroke="#007DC5" stroke-linecap="round" stroke-linejoin="round"/>
<path fill-rule="evenodd" clip-rule="evenodd" d="M12.6738 12.4007C12.6738 13.6088 11.6945 14.5882 10.4863 14.5882C9.27821 14.5882 8.29883 13.6088 8.29883 12.4007C8.29883 10.9598 10.1217 8.4375 10.4863 8.4375C10.8509 8.4375 12.6738 10.9598 12.6738 12.4007Z" stroke="#007DC5" stroke-linecap="round" stroke-linejoin="round"/>
</svg>
