<svg width="14" height="14" viewBox="0 0 14 14" fill="none" xmlns="http://www.w3.org/2000/svg">
<path d="M1.50195 8.01953V13.2695" stroke="#007DC5" stroke-linecap="round" stroke-linejoin="round"/>
<path fill-rule="evenodd" clip-rule="evenodd" d="M10.252 12.3945C10.252 11.428 9.46845 10.6445 8.50195 10.6445H6.31445C6.31445 9.67803 5.53095 8.89453 4.56445 8.89453H1.50195V12.3945H10.252Z" stroke="#007DC5" stroke-linecap="round" stroke-linejoin="round"/>
<path d="M4.56445 10.6445H6.31445" stroke="#007DC5" stroke-linecap="round" stroke-linejoin="round"/>
<path fill-rule="evenodd" clip-rule="evenodd" d="M12.4395 5.39453C12.4395 6.84428 11.2642 8.01953 9.81445 8.01953C8.36471 8.01953 7.18945 6.84428 7.18945 5.39453C7.18945 3.64453 9.37695 0.582031 9.81445 0.582031C10.252 0.582031 12.4395 3.64453 12.4395 5.39453Z" stroke="#007DC5" stroke-linecap="round" stroke-linejoin="round"/>
<path d="M9.81445 6.26953C9.3312 6.26953 8.93945 5.87778 8.93945 5.39453" stroke="#007DC5" stroke-linecap="round" stroke-linejoin="round"/>
</svg>
