<svg width="18" height="18" viewBox="0 0 18 18" fill="none" xmlns="http://www.w3.org/2000/svg">
<path d="M5.73977 15.7243C5.41111 15.5668 5.09406 15.3861 4.79102 15.1836" stroke="#007DC5" stroke-linecap="round" stroke-linejoin="round"/>
<path d="M3.19433 13.6969C2.96654 13.4133 2.76117 13.1124 2.58008 12.7969" stroke="#007DC5" stroke-linecap="round" stroke-linejoin="round"/>
<path d="M1.78355 10.7675C1.70238 10.4122 1.64872 10.0511 1.62305 9.6875" stroke="#007DC5" stroke-linecap="round" stroke-linejoin="round"/>
<path d="M5.73828 2.55884C6.06538 2.39992 6.40321 2.26409 6.74928 2.15234" stroke="#007DC5" stroke-linecap="round" stroke-linejoin="round"/>
<path d="M8.9082 1.82812C9.27279 1.83404 9.63659 1.8641 9.9972 1.91812" stroke="#007DC5" stroke-linecap="round" stroke-linejoin="round"/>
<path d="M12.0742 2.55859C12.403 2.71631 12.7203 2.89701 13.0237 3.09934" stroke="#007DC5" stroke-linecap="round" stroke-linejoin="round"/>
<path d="M14.625 4.58203C14.8523 4.86736 15.0576 5.16947 15.2393 5.48578" stroke="#007DC5" stroke-linecap="round" stroke-linejoin="round"/>
<path fill-rule="evenodd" clip-rule="evenodd" d="M5.0625 5.20313C5.0625 6.44577 4.05514 7.45313 2.8125 7.45313C1.56986 7.45313 0.5625 6.44577 0.5625 5.20313C0.5625 3.96038 2.8125 0.703125 2.8125 0.703125C2.8125 0.703125 5.0625 3.96038 5.0625 5.20313Z" stroke="#007DC5" stroke-linecap="round" stroke-linejoin="round"/>
<rect x="11.1484" y="8.14844" width="6.75" height="7.875" rx="1" transform="rotate(16.524 11.1484 8.14844)" stroke="#007DC5" stroke-linecap="round" stroke-linejoin="round"/>
<path d="M14.3848 9.10994L14.8648 7.49219" stroke="#007DC5" stroke-linecap="round" stroke-linejoin="round"/>
<path d="M16.541 9.75056L17.021 8.13281" stroke="#007DC5" stroke-linecap="round" stroke-linejoin="round"/>
<path d="M12.2266 8.46931L12.7058 6.85156" stroke="#007DC5" stroke-linecap="round" stroke-linejoin="round"/>
<path d="M12.3457 12.0234L14.5027 12.6632" stroke="#007DC5" stroke-linecap="round" stroke-linejoin="round"/>
<path d="M11.7051 14.1836L13.8628 14.8241" stroke="#007DC5" stroke-linecap="round" stroke-linejoin="round"/>
</svg>
