<svg width="18" height="18" viewBox="0 0 18 18" fill="none" xmlns="http://www.w3.org/2000/svg">
<path fill-rule="evenodd" clip-rule="evenodd" d="M11.8438 6.75C11.8438 6.43934 11.5919 6.1875 11.2812 6.1875H10.1562V5.0625C10.1562 4.75184 9.90441 4.5 9.59375 4.5H8.46875C8.15809 4.5 7.90625 4.75184 7.90625 5.0625V6.1875H6.78125C6.47059 6.1875 6.21875 6.43934 6.21875 6.75V7.875C6.21875 8.18566 6.47059 8.4375 6.78125 8.4375H7.90625V9.5625C7.90625 9.87316 8.15809 10.125 8.46875 10.125H9.59375C9.90441 10.125 10.1562 9.87316 10.1562 9.5625V8.4375H11.2812C11.5919 8.4375 11.8438 8.18566 11.8438 7.875V6.75Z" stroke="#007DC5" stroke-linecap="round" stroke-linejoin="round"/>
<path fill-rule="evenodd" clip-rule="evenodd" d="M12.9691 14.0625H5.09411L3.28061 3.18225C3.1719 2.52977 3.35582 1.86252 3.78346 1.35787C4.2111 0.85323 4.83914 0.562327 5.50061 0.5625H12.5634C13.2247 0.562547 13.8525 0.853545 14.28 1.35816C14.7075 1.86278 14.8913 2.5299 14.7826 3.18225L12.9691 14.0625Z" stroke="#007DC5" stroke-linecap="round" stroke-linejoin="round"/>
<path fill-rule="evenodd" clip-rule="evenodd" d="M12.9688 16.3125C12.9688 16.9338 12.4651 17.4375 11.8438 17.4375H6.21875C5.59743 17.4375 5.09375 16.9338 5.09375 16.3125V14.0625H12.9688V16.3125Z" stroke="#007DC5" stroke-linecap="round" stroke-linejoin="round"/>
</svg>
