<svg width="16" height="16" viewBox="0 0 16 16" fill="none" xmlns="http://www.w3.org/2000/svg">
<path d="M7.5625 11.8516H12.8125C13.779 11.8516 14.5625 11.0681 14.5625 10.1016V7.91406C14.5625 7.67244 14.3666 7.47656 14.125 7.47656H6.25" stroke="#007DC5" stroke-linecap="round" stroke-linejoin="round"/>
<path d="M13.25 7.47656V6.60156C13.25 6.11831 12.8582 5.72656 12.375 5.72656H5.375C4.89175 5.72656 4.5 6.11831 4.5 6.60156V7.03906" stroke="#007DC5" stroke-linecap="round" stroke-linejoin="round"/>
<path d="M12.375 5.72589C12.375 4.41339 11.5 3.10089 10.1875 3.10089H8.4375C7.532 3.12118 6.71282 2.56625 6.39583 1.7178C6.33998 1.57074 6.20901 1.46534 6.05341 1.44222C5.8978 1.41911 5.74185 1.4819 5.64567 1.60639C3.92425 3.91347 5.375 5.72589 5.375 5.72589" stroke="#007DC5" stroke-linecap="round" stroke-linejoin="round"/>
<path fill-rule="evenodd" clip-rule="evenodd" d="M1.4375 12.3186C1.4375 13.5268 2.41688 14.5061 3.625 14.5061C4.83312 14.5061 5.8125 13.5268 5.8125 12.3186C5.8125 10.8772 3.98958 8.35547 3.625 8.35547C3.26042 8.35547 1.4375 10.8749 1.4375 12.3186Z" stroke="#007DC5" stroke-linecap="round" stroke-linejoin="round"/>
</svg>
