<svg width="14" height="14" viewBox="0 0 14 14" fill="none" xmlns="http://www.w3.org/2000/svg">
<path d="M12.0628 0.0994689C11.8623 0.138306 11.7592 0.260687 11.7872 0.426654C11.8121 0.575019 11.9663 0.667224 12.1545 0.645151C12.3573 0.62168 12.5666 0.589828 12.7766 0.550432C12.904 0.526403 12.9815 0.46158 13.014 0.351494C13.0455 0.244481 13.0213 0.159262 12.9399 0.0908073C12.9097 0.0656606 12.8661 0.0427493 12.8201 0.0187203C12.8081 0.0125733 12.7965 0.00642636 12.7845 0H12.594C12.5427 0.00949984 12.4913 0.0189997 12.4399 0.0284995C12.316 0.0514109 12.188 0.0751605 12.0628 0.0994689Z" fill="#007DC5"/>
<path d="M0.77766 10.1444C0.77766 11.055 0.77766 11.9656 0.777976 12.8762C0.778291 13.4512 1.19227 13.8832 1.83325 13.9773C1.92689 13.991 2.00319 13.9974 2.07318 13.9977L2.76713 13.9986C3.78709 14 4.84142 14.0014 5.8784 13.9974C6.59947 13.9947 7.16478 13.537 7.16572 12.9558C7.17045 9.88402 7.17014 7.39087 7.16415 5.10924C7.16289 4.67364 6.93304 4.35232 6.48092 4.15478C6.30908 4.07962 6.28796 3.96199 6.28859 3.86811C6.29143 3.50488 6.29048 3.13746 6.28954 2.78233C6.28891 2.544 6.19022 2.41855 5.94839 2.34897C5.73494 2.28778 5.70941 2.15479 5.71098 2.0461C5.7154 1.74601 5.71823 1.42442 5.71098 1.1031C5.70279 0.74462 5.48177 0.520256 5.134 0.517462C4.38708 0.511035 3.62661 0.513829 2.89167 0.516344L2.80843 0.516623C2.55746 0.517462 2.39036 0.623916 2.29767 0.842133C2.26172 0.926793 2.24218 1.03213 2.23808 1.16429C2.22767 1.47443 2.2324 1.80106 2.23619 2.06342C2.23839 2.20899 2.16619 2.2984 2.00981 2.3445C1.756 2.41938 1.657 2.54316 1.65669 2.78597C1.65669 2.88851 1.65669 2.99105 1.65669 3.09387C1.657 3.35428 1.65732 3.62363 1.6529 3.88906C1.65133 3.97624 1.58921 4.09359 1.48801 4.13858C1.0094 4.35148 0.776714 4.69739 0.777345 5.19641C0.778291 6.11287 0.777976 7.0296 0.777976 7.94633L0.77766 10.1444ZM2.87244 1.08214H5.07599V2.29253H2.87244V1.08214ZM2.29199 2.87007H5.6495V4.05699H2.29199V2.87007ZM1.40666 8.05055C1.40666 7.09051 1.40666 6.13047 1.40698 5.17043C1.40698 4.81306 1.62043 4.62419 2.02431 4.62391C3.32488 4.62363 4.62513 4.62363 5.92569 4.62391C6.3217 4.62391 6.53357 4.80859 6.53798 5.15785C6.53956 5.27604 6.53925 5.39311 6.53893 5.51689C6.53862 5.57333 6.53862 5.63117 6.53862 5.69096V5.83066H5.73747C5.38403 5.83066 5.03059 5.83038 4.67715 5.83094C4.28682 5.8315 3.99676 6.06341 3.95514 6.40736C3.94631 6.48001 3.94568 6.55684 3.94568 6.62921V6.82424C3.94505 8.33667 3.94474 9.90051 3.94694 11.4386C3.94694 11.5317 3.95136 11.6527 3.9832 11.7622C4.07117 12.0637 4.31425 12.231 4.66769 12.2338C5.02239 12.2366 5.38371 12.2361 5.73274 12.2355C5.88597 12.2352 6.03857 12.2347 6.19211 12.235H6.53704V12.3747C6.53704 12.4403 6.53767 12.5037 6.5383 12.5655C6.53956 12.706 6.54082 12.839 6.53515 12.9731C6.52916 13.1106 6.45633 13.2956 6.1423 13.3964C6.05086 13.4258 5.94556 13.4398 5.81124 13.44C5.14851 13.4411 4.55419 13.4417 4.00338 13.4417C3.32835 13.4417 2.71889 13.4409 2.1293 13.4392C2.0013 13.4389 1.86698 13.4157 1.75127 13.3744C1.52742 13.2942 1.40445 13.1285 1.40445 12.9075C1.40635 11.2886 1.40635 9.66944 1.40666 8.05055ZM6.52821 6.39339V11.6686H4.58603V6.39339H6.52821Z" fill="#007DC5"/>
<path d="M7.6519 2.57194C7.82089 2.61134 7.99809 2.6376 8.15479 2.66079C8.21532 2.66973 8.27333 2.6784 8.32725 2.68734C8.52399 2.68314 8.66272 2.59234 8.68195 2.45403C8.70339 2.30092 8.61132 2.17686 8.45273 2.14501C8.22604 2.09946 8.00187 2.0637 7.78684 2.03883C7.77423 2.03744 7.76162 2.0366 7.74901 2.0366C7.60713 2.0366 7.4766 2.12796 7.44822 2.25342C7.41543 2.40039 7.50277 2.53729 7.6519 2.57194Z" fill="#007DC5"/>
<path d="M7.44444 1.0556C7.44412 1.13579 7.48385 1.21235 7.55321 1.26571C7.62132 1.31824 7.70708 1.34087 7.7941 1.32942C7.9943 1.30343 8.20302 1.27046 8.43224 1.22855C8.60975 1.19614 8.71568 1.05197 8.67943 0.893264C8.64695 0.752163 8.4871 0.660797 8.31527 0.685385C8.0892 0.717517 7.889 0.748531 7.70298 0.780104C7.5488 0.806089 7.44507 0.917014 7.44444 1.0556Z" fill="#007DC5"/>
<path d="M9.96107 2.37719C9.94689 2.37552 9.9327 2.3744 9.91851 2.3744C9.84662 2.3744 9.77789 2.39759 9.72145 2.44146C9.65209 2.49566 9.61299 2.57334 9.61394 2.65492C9.61583 2.79267 9.71483 2.89913 9.86586 2.92623C10.0919 2.96674 10.3016 2.9986 10.5068 3.02402C10.6664 3.04386 10.8234 2.94411 10.8499 2.80636C10.8798 2.64962 10.7808 2.51271 10.6147 2.48085C10.399 2.4395 10.1789 2.40458 9.96107 2.37719Z" fill="#007DC5"/>
<path d="M11.7882 2.93349C11.7557 3.09248 11.8588 3.23134 12.0328 3.26347C12.2472 3.30315 12.4626 3.33724 12.6732 3.36462C12.7615 3.37607 12.8475 3.35344 12.9156 3.30063C12.9847 3.24727 13.0241 3.17043 13.0235 3.08996C13.0222 2.94858 12.9216 2.84297 12.7605 2.81475C12.5818 2.78345 12.3869 2.75328 12.1476 2.71975C12.1309 2.71751 12.1145 2.71639 12.0981 2.71639C11.9496 2.71639 11.8137 2.80832 11.7882 2.93349Z" fill="#007DC5"/>
<path d="M10.5541 0.338921C10.5418 0.338921 10.5292 0.339759 10.5169 0.341156C10.3044 0.365744 10.0862 0.400111 9.84978 0.446492C9.68866 0.478065 9.58683 0.62168 9.61835 0.773398C9.64642 0.910028 9.80564 1.00838 9.96612 0.987983C10.1846 0.960322 10.4003 0.927352 10.6071 0.889911C10.7543 0.863088 10.854 0.753281 10.8549 0.616092C10.8555 0.536182 10.8165 0.459345 10.7477 0.405699C10.6916 0.362111 10.6241 0.338921 10.5541 0.338921Z" fill="#007DC5"/>
</svg>
