<svg width="18" height="18" viewBox="0 0 18 18" fill="none" xmlns="http://www.w3.org/2000/svg">
<path d="M6.74986 9.5625V14.625L5.46811 13.9875C4.62826 13.5666 3.6062 13.8479 3.09995 14.6392C2.5937 15.4306 2.76673 16.4764 3.50086 17.0625L3.97111 17.4375" stroke="#007DC5" stroke-linecap="round" stroke-linejoin="round"/>
<path d="M15.1877 17.4375V15.8123C15.1877 14.1691 13.9997 12.7667 12.3789 12.4965L10.1289 12.1215V9.5625" stroke="#007DC5" stroke-linecap="round" stroke-linejoin="round"/>
<path d="M11.9197 2.66021C11.0739 1.06054 9.2468 0.243137 7.49045 0.678628C5.7341 1.11412 4.50054 2.69043 4.5 4.49996V8.43746C4.5 9.05878 5.00368 9.56246 5.625 9.56246H11.25C11.8713 9.56246 12.375 9.05878 12.375 8.43746V7.04546" stroke="#007DC5" stroke-linecap="round" stroke-linejoin="round"/>
<path d="M4.5 5.62689H6.0135C6.12009 5.62692 6.21759 5.56685 6.2655 5.47164L7.07775 3.84714C7.12404 3.75431 7.21767 3.6945 7.32136 3.69152C7.42504 3.68854 7.52195 3.74288 7.5735 3.83289L9.2985 6.85839C9.35005 6.9484 9.44696 7.00273 9.55064 6.99975C9.65433 6.99677 9.74796 6.93696 9.79425 6.84414L10.6065 5.21964C10.6544 5.12442 10.7519 5.06435 10.8585 5.06439H12.375" stroke="#007DC5" stroke-linecap="round" stroke-linejoin="round"/>
</svg>
