<svg width="18" height="18" viewBox="0 0 18 18" fill="none" xmlns="http://www.w3.org/2000/svg">
<path d="M16.484 8.1201L15.7522 8.95141V8.3891C15.7628 7.27143 15.3275 6.21972 14.529 5.43006C13.0548 3.97223 10.7453 3.8386 9.1132 5.02048C8.26204 4.38008 7.20379 4 6.05605 4C3.26741 4 1 6.24228 1 9C1 11.7577 3.26741 14 6.05605 14C8.84469 14 11.1121 11.7577 11.1121 9C11.1121 7.63242 10.554 6.39327 9.65197 5.48907C11.0015 4.60222 12.8442 4.74627 14.0324 5.92121C14.6975 6.57897 15.059 7.45366 15.0502 8.38737V9.13884L14.0025 8.16175L13.5357 8.63901L15.3977 10.3867L17 8.54877L16.484 8.1201ZM6.05605 13.3058C3.65526 13.3058 1.70199 11.3742 1.70199 9C1.70199 6.62582 3.65526 4.6942 6.05605 4.6942C8.45684 4.6942 10.4101 6.62582 10.4101 9C10.4101 11.3742 8.45684 13.3058 6.05605 13.3058Z" fill="#007DC5" stroke="#007DC5" stroke-width="0.5"/>
</svg>
