<svg width="18" height="18" viewBox="0 0 18 18" fill="none" xmlns="http://www.w3.org/2000/svg">
<path d="M4.51488 2.8125C3.05838 4.56525 2.22738 7.1625 1.16238 9.9225C1.09599 10.0955 1.11898 10.2902 1.22385 10.443C1.32871 10.5958 1.50204 10.6872 1.68738 10.6875H3.11238V12.9375C3.11238 14.1801 4.11974 15.1875 5.36238 15.1875H6.48738V17.4375" stroke="#007DC5" stroke-linecap="round" stroke-linejoin="round"/>
<path d="M14.3633 17.4375V12.7387C15.7308 11.473 16.5388 9.71542 16.6091 7.85339C16.6795 5.99135 16.0064 4.17778 14.7383 2.8125" stroke="#007DC5" stroke-linecap="round" stroke-linejoin="round"/>
<path d="M7.61291 0.5625C6.48791 2.8125 9.30041 2.8125 8.17541 5.0625" stroke="#007DC5" stroke-linecap="round" stroke-linejoin="round"/>
<path d="M11.2789 0.5625C10.1539 2.8125 12.9664 2.8125 11.8414 5.0625" stroke="#007DC5" stroke-linecap="round" stroke-linejoin="round"/>
</svg>
