<svg width="18" height="18" viewBox="0 0 18 18" fill="none" xmlns="http://www.w3.org/2000/svg">
<path d="M3.93722 0.5625C3.93722 0.5625 5.06222 1.6875 5.06222 5.0625C5.06222 9 1.68722 9.5625 1.68722 14.0625C1.62885 15.2883 2.03002 16.4918 2.81222 17.4375" stroke="#007DC5" stroke-linecap="round" stroke-linejoin="round"/>
<path d="M14.0625 0.5625C14.0625 0.5625 12.9375 1.6875 12.9375 5.0625C12.9375 9 16.3125 9.5625 16.3125 14.0625C16.3709 15.2883 15.9697 16.4918 15.1875 17.4375" stroke="#007DC5" stroke-linecap="round" stroke-linejoin="round"/>
<path d="M0.5625 2.8125L2.415 4.665C2.52052 4.77037 2.57982 4.91338 2.57982 5.0625C2.57982 5.21162 2.52052 5.35463 2.415 5.46L0.5625 7.3125" stroke="#007DC5" stroke-linecap="round" stroke-linejoin="round"/>
<path d="M17.4372 2.8125L15.5847 4.665C15.4792 4.77037 15.4199 4.91338 15.4199 5.0625C15.4199 5.21162 15.4792 5.35463 15.5847 5.46L17.4372 7.3125" stroke="#007DC5" stroke-linecap="round" stroke-linejoin="round"/>
<path d="M9 17.4375V15.1875" stroke="#007DC5" stroke-linecap="round" stroke-linejoin="round"/>
<path fill-rule="evenodd" clip-rule="evenodd" d="M15.8207 11.3945C12.9594 12.107 9.00019 15.1865 9.00019 15.1865C9.00019 15.1865 5.04094 12.107 2.17969 11.3945L15.8207 11.3945Z" stroke="#007DC5" stroke-linecap="round" stroke-linejoin="round"/>
<path d="M9 7.59375C9.15533 7.59375 9.28125 7.71967 9.28125 7.875" stroke="#007DC5" stroke-linecap="round" stroke-linejoin="round"/>
<path d="M8.71875 7.875C8.71875 7.71967 8.84467 7.59375 9 7.59375" stroke="#007DC5" stroke-linecap="round" stroke-linejoin="round"/>
<path d="M9 8.15625C8.84467 8.15625 8.71875 8.03033 8.71875 7.875" stroke="#007DC5" stroke-linecap="round" stroke-linejoin="round"/>
<path d="M9.28125 7.875C9.28125 8.03033 9.15533 8.15625 9 8.15625" stroke="#007DC5" stroke-linecap="round" stroke-linejoin="round"/>
</svg>
