<svg width="18" height="18" viewBox="0 0 18 18" fill="none" xmlns="http://www.w3.org/2000/svg">
<path fill-rule="evenodd" clip-rule="evenodd" d="M13.5 5.0625C13.5 3.81986 12.4926 2.8125 11.25 2.8125H6.75C5.50736 2.8125 4.5 3.81986 4.5 5.0625V6.75C4.61819 7.60305 5.01347 8.39362 5.625 9C5.01347 9.60638 4.61819 10.3969 4.5 11.25V15.1875C4.5 16.4301 5.50736 17.4375 6.75 17.4375H11.25C12.4926 17.4375 13.5 16.4301 13.5 15.1875V11.25C13.3818 10.3969 12.9865 9.60638 12.375 9C12.9865 8.39362 13.3818 7.60305 13.5 6.75V5.0625Z" stroke="#007DC5" stroke-linecap="round" stroke-linejoin="round"/>
<path d="M9 2.8125V0.5625" stroke="#007DC5" stroke-linecap="round" stroke-linejoin="round"/>
<path d="M4.5 5.0625H13.5" stroke="#007DC5" stroke-linecap="round" stroke-linejoin="round"/>
<path d="M10.125 9L7.3125 11.8125H10.6875L7.875 14.625" stroke="#007DC5" stroke-linecap="round" stroke-linejoin="round"/>
</svg>
