<svg width="18" height="18" viewBox="0 0 18 18" fill="none" xmlns="http://www.w3.org/2000/svg">
<path d="M15.75 10.125V6.0855C15.75 3.03525 13.4835 0.5625 10.6875 0.5625C7.8915 0.5625 5.625 3.03525 5.625 6.0855C5.5441 8.03278 7.05304 9.67888 9 9.76725C10.947 9.67888 12.4559 8.03278 12.375 6.0855C12.375 3.03525 10.1085 0.5625 7.3125 0.5625C4.5165 0.5625 2.25 3.03525 2.25 6.0855V10.125" stroke="#007DC5" stroke-linecap="round" stroke-linejoin="round"/>
<path fill-rule="evenodd" clip-rule="evenodd" d="M0.5625 15.75C0.5625 16.682 1.31802 17.4375 2.25 17.4375C3.18198 17.4375 3.9375 16.682 3.9375 15.75V10.6875C3.9375 10.3768 3.68566 10.125 3.375 10.125H1.125C0.81434 10.125 0.5625 10.3768 0.5625 10.6875L0.5625 15.75Z" stroke="#007DC5" stroke-linecap="round" stroke-linejoin="round"/>
<path fill-rule="evenodd" clip-rule="evenodd" d="M14.0625 15.75C14.0625 16.682 14.818 17.4375 15.75 17.4375C16.682 17.4375 17.4375 16.682 17.4375 15.75V10.6875C17.4375 10.3768 17.1857 10.125 16.875 10.125H14.625C14.3143 10.125 14.0625 10.3768 14.0625 10.6875L14.0625 15.75Z" stroke="#007DC5" stroke-linecap="round" stroke-linejoin="round"/>
<path d="M0.5625 12.375H3.9375" stroke="#007DC5" stroke-linecap="round" stroke-linejoin="round"/>
<path d="M14.0625 12.375H17.4375" stroke="#007DC5" stroke-linecap="round" stroke-linejoin="round"/>
</svg>
