<svg width="18" height="18" viewBox="0 0 18 18" fill="none" xmlns="http://www.w3.org/2000/svg">
<path fill-rule="evenodd" clip-rule="evenodd" d="M10.1837 15.5636C10.1837 15.5636 11.098 17.4348 12.6362 17.2938C15.7547 17.0088 15.5462 12.8636 16.6862 11.3996C14.73 10.4255 12.4257 10.4464 10.4875 11.4558C8.87197 12.3686 8.75722 13.9091 10.1837 15.5636Z" stroke="#007DC5" stroke-linecap="round" stroke-linejoin="round"/>
<path d="M12.3891 13.6641C12.3891 13.6641 10.3641 13.9146 8.92188 17.4366" stroke="#007DC5" stroke-linecap="round" stroke-linejoin="round"/>
<path d="M6.5625 17.4375H2.625C2.00368 17.4375 1.5 16.9338 1.5 16.3125V3.9375C1.5 3.31618 2.00368 2.8125 2.625 2.8125H10.5C11.1213 2.8125 11.625 3.31618 11.625 3.9375V9" stroke="#007DC5" stroke-linecap="round" stroke-linejoin="round"/>
<path fill-rule="evenodd" clip-rule="evenodd" d="M5.0625 0.5625H8.0625C8.47671 0.5625 8.8125 0.898286 8.8125 1.3125V2.8125H4.3125V1.3125C4.3125 0.898286 4.64829 0.5625 5.0625 0.5625Z" stroke="#007DC5" stroke-linecap="round" stroke-linejoin="round"/>
</svg>
