<svg width="18" height="19" viewBox="0 0 18 19" fill="none" xmlns="http://www.w3.org/2000/svg">
<path d="M11.25 18.4345L8.811 14.776C8.22739 13.8961 7.2418 13.3672 6.186 13.3672C5.1302 13.3672 4.14461 13.8961 3.561 14.776L1.125 18.4345" stroke="#007DC5" stroke-linecap="round" stroke-linejoin="round"/>
<path d="M5.625 10.2812C5.78033 10.2812 5.90625 10.4072 5.90625 10.5625" stroke="#007DC5" stroke-linecap="round" stroke-linejoin="round"/>
<path d="M5.34375 10.5625C5.34375 10.4072 5.46967 10.2812 5.625 10.2812" stroke="#007DC5" stroke-linecap="round" stroke-linejoin="round"/>
<path d="M5.625 10.8438C5.46967 10.8438 5.34375 10.7178 5.34375 10.5625" stroke="#007DC5" stroke-linecap="round" stroke-linejoin="round"/>
<path d="M5.90625 10.5625C5.90625 10.7178 5.78033 10.8438 5.625 10.8438" stroke="#007DC5" stroke-linecap="round" stroke-linejoin="round"/>
<path d="M9 10.8438C9.15533 10.8438 9.28125 10.9697 9.28125 11.125" stroke="#007DC5" stroke-linecap="round" stroke-linejoin="round"/>
<path d="M8.71875 11.125C8.71875 10.9697 8.84467 10.8438 9 10.8438" stroke="#007DC5" stroke-linecap="round" stroke-linejoin="round"/>
<path d="M9 11.4062C8.84467 11.4062 8.71875 11.2803 8.71875 11.125" stroke="#007DC5" stroke-linecap="round" stroke-linejoin="round"/>
<path d="M9.28125 11.125C9.28125 11.2803 9.15533 11.4062 9 11.4062" stroke="#007DC5" stroke-linecap="round" stroke-linejoin="round"/>
<path d="M7.3125 8.03125C7.46783 8.03125 7.59375 8.15717 7.59375 8.3125" stroke="#007DC5" stroke-linecap="round" stroke-linejoin="round"/>
<path d="M7.03125 8.3125C7.03125 8.15717 7.15717 8.03125 7.3125 8.03125" stroke="#007DC5" stroke-linecap="round" stroke-linejoin="round"/>
<path d="M7.3125 8.59375C7.15717 8.59375 7.03125 8.46783 7.03125 8.3125" stroke="#007DC5" stroke-linecap="round" stroke-linejoin="round"/>
<path d="M7.59375 8.3125C7.59375 8.46783 7.46783 8.59375 7.3125 8.59375" stroke="#007DC5" stroke-linecap="round" stroke-linejoin="round"/>
<path fill-rule="evenodd" clip-rule="evenodd" d="M16.0494 6.36242C16.8019 5.66128 17.1116 4.60534 16.8571 3.60884C16.6026 2.61234 15.8245 1.83421 14.828 1.57972C13.8315 1.32523 12.7756 1.63497 12.0744 2.38742L8.89144 5.56667C8.78588 5.67217 8.72656 5.8153 8.72656 5.96454C8.72656 6.11379 8.78588 6.25692 8.89144 6.36242L12.0744 9.54392C12.1799 9.64949 12.3231 9.7088 12.4723 9.7088C12.6216 9.7088 12.7647 9.64949 12.8702 9.54392L16.0494 6.36242Z" stroke="#007DC5" stroke-linecap="round" stroke-linejoin="round"/>
</svg>
