<svg width="18" height="18" viewBox="0 0 18 18" fill="none" xmlns="http://www.w3.org/2000/svg">
<path d="M7.125 16.3125C7.125 16.9338 7.62868 17.4375 8.25 17.4375H15C15.6213 17.4375 16.125 16.9338 16.125 16.3125V3.9375H7.125V8.4375" stroke="#007DC5" stroke-linecap="round" stroke-linejoin="round"/>
<path fill-rule="evenodd" clip-rule="evenodd" d="M16.6875 3.9375H6.5625C6.25184 3.9375 6 3.68566 6 3.375V1.6875C6 1.06618 6.50368 0.5625 7.125 0.5625H16.125C16.7463 0.5625 17.25 1.06618 17.25 1.6875V3.375C17.25 3.68566 16.9982 3.9375 16.6875 3.9375Z" stroke="#007DC5" stroke-linecap="round" stroke-linejoin="round"/>
<path fill-rule="evenodd" clip-rule="evenodd" d="M3.86624 16.935C3.19625 17.605 2.10998 17.605 1.43999 16.935C0.770002 16.265 0.770002 15.1788 1.43999 14.5088L5.32499 10.6275C5.7584 10.1941 6.39011 10.0249 6.98215 10.1835C7.5742 10.3421 8.03664 10.8046 8.19528 11.3966C8.35392 11.9887 8.18465 12.6204 7.75124 13.0538L3.86624 16.935Z" stroke="#007DC5" stroke-linecap="round" stroke-linejoin="round"/>
<path d="M3.38086 12.5703L5.80636 14.9958" stroke="#007DC5" stroke-linecap="round" stroke-linejoin="round"/>
<rect x="10.5" y="8.4375" width="5.625" height="5.625" stroke="#007DC5" stroke-linecap="round" stroke-linejoin="round"/>
</svg>
