<svg width="14" height="14" viewBox="0 0 14 14" fill="none" xmlns="http://www.w3.org/2000/svg">
<g clip-path="url(#clip0_7838:59941)">
<path d="M11.1536 7.00011C11.2188 6.88327 11.3645 6.83854 11.4841 6.89866C11.502 6.90765 11.5175 6.91542 11.5323 6.92256C11.6016 6.95584 11.6517 7.01913 11.6683 7.0942C11.6794 7.14476 11.6926 7.1995 11.7064 7.2569C11.7402 7.39699 11.7778 7.55288 11.7983 7.70234L11.7983 7.70253C11.8205 7.86488 11.8359 8.02777 11.8507 8.18465C11.8518 8.1967 11.8529 8.20872 11.8541 8.22069C11.8701 8.39063 11.8862 8.55385 11.9103 8.71448L11.9103 8.71459C11.9549 9.01296 12.0536 9.24402 12.2623 9.39661L12.2625 9.39669C12.3272 9.4441 12.3858 9.50468 12.4241 9.58685C12.4614 9.66695 12.4693 9.74626 12.4691 9.81306V9.81317C12.4672 10.4175 12.4673 11.0213 12.4674 11.6256C12.4674 11.9101 12.4675 12.1946 12.4673 12.4793C12.4673 12.6003 12.4916 12.6902 12.531 12.7572C12.5693 12.8224 12.631 12.8819 12.734 12.9292L12.7341 12.9293C13.0268 13.0639 13.3592 12.8566 13.3607 12.5192V12.5191C13.3652 11.5969 13.3631 10.6743 13.3605 9.75103L11.1536 7.00011ZM11.1536 7.00011C11.0996 7.09666 11.0394 7.12912 10.9619 7.14627C10.8867 7.16292 10.8132 7.16295 10.7132 7.16298C10.6718 7.163 10.6258 7.16302 10.5732 7.16422L10.573 7.16422C10.4727 7.16657 10.3728 7.16914 10.2732 7.1717C9.90742 7.18112 9.54637 7.19041 9.18449 7.18799L9.18414 7.18799C9.15996 7.18786 9.09997 7.16652 9.05965 7.13092M11.1536 7.00011L9.05965 7.13092M9.05965 7.13092C9.02926 7.10407 8.99096 7.07526 8.94522 7.05336C8.98723 7.01551 9.0159 6.97701 9.03077 6.95694L8.82996 6.80819L9.03055 6.95723C9.0686 6.90602 9.10315 6.88604 9.16729 6.88061L9.16745 6.8806C9.64621 6.83978 10.1245 6.79349 10.6024 6.7412L10.6024 6.7412C10.6915 6.73145 10.7609 6.68821 10.8016 6.65738C10.8464 6.62351 10.8851 6.58288 10.9144 6.54333L10.9147 6.54296C10.9956 6.43332 11.0673 6.32923 11.1364 6.2291C11.2547 6.05745 11.365 5.89744 11.4996 5.74107C11.6539 5.56181 11.8329 5.39952 12.0231 5.28504L12.0232 5.28498C12.2133 5.17044 12.3751 5.14821 12.5094 5.17827C12.646 5.20884 12.7899 5.3016 12.9256 5.48366C13.5453 6.31511 13.781 7.25991 13.7462 8.29825C13.7393 8.50505 13.7255 8.71166 13.7114 8.92308L9.05965 7.13092ZM8.77876 7.01749C8.7735 7.01767 8.7682 7.01798 8.76284 7.01841C8.64165 7.02814 8.55782 7.09977 8.51799 7.1359C8.51795 7.13594 8.5179 7.13597 8.51786 7.13601L8.61767 7.24604M8.77876 7.01749L8.33171 12.968C8.35279 12.9713 8.37074 12.9793 8.38445 12.9888C8.41036 13.0068 8.41728 13.0263 8.41875 13.0318C8.41605 13.0214 8.41446 13.009 8.41354 12.9902C8.41353 12.9899 8.41352 12.9896 8.4135 12.9893C8.41307 12.98 8.41279 12.969 8.41263 12.9559C8.41249 12.9443 8.41243 12.9309 8.41243 12.9155V12.9154C8.41184 11.6086 8.4117 10.3017 8.41177 8.99477C8.41177 8.99476 8.41177 8.99475 8.41177 8.99475C8.4118 8.57571 8.41185 8.15668 8.41191 7.73767V7.73763C8.41191 7.72947 8.41199 7.72144 8.41214 7.71354C8.41214 7.71352 8.41214 7.71349 8.41214 7.71346C8.41531 7.55101 8.45066 7.44254 8.50498 7.36272C8.53247 7.32234 8.56886 7.28335 8.61767 7.24604M8.77876 7.01749L8.73004 6.89963L8.77911 7.01748M8.77876 7.01749L8.77911 7.01748M8.61767 7.24604L8.68566 7.32099L8.61772 7.246M8.61767 7.24604C8.61769 7.24603 8.6177 7.24601 8.61772 7.246M8.61772 7.246C8.67086 7.20539 8.7387 7.16676 8.82581 7.13047C8.82591 7.13043 8.82601 7.13039 8.82611 7.13034L8.77911 7.01748M8.61772 7.246L8.77911 7.01748M3.29333 6.89866C3.41291 6.83854 3.55862 6.88327 3.62388 7.00011C3.67781 7.09666 3.73805 7.12912 3.81552 7.14627C3.89075 7.16292 3.96421 7.16295 4.06421 7.16298C4.10566 7.163 4.15168 7.16302 4.20427 7.16422L4.20439 7.16422C4.30477 7.16657 4.40468 7.16914 4.50425 7.1717C4.87001 7.18112 5.23107 7.19041 5.59295 7.18799L5.5933 7.18799C5.61747 7.18786 5.67746 7.16652 5.71778 7.13092C5.74817 7.10407 5.78647 7.07526 5.83221 7.05336C5.7902 7.01551 5.76153 6.97701 5.74667 6.95694L5.94755 6.80813M3.29333 6.89866L3.27787 5.74107C3.41245 5.89744 3.52275 6.05745 3.64108 6.2291C3.7101 6.32923 3.78185 6.43332 3.86274 6.54296L3.86302 6.54333C3.89231 6.58288 3.93101 6.62351 3.97579 6.65738C4.01655 6.68821 4.08596 6.73145 4.175 6.7412L4.17502 6.7412C4.6529 6.79349 5.13123 6.83978 5.60998 6.8806L5.61015 6.88061C5.67429 6.88604 5.70883 6.90602 5.74689 6.95723L5.94755 6.80813M3.29333 6.89866C3.27526 6.90774 3.26105 6.91487 3.24718 6.92133C3.1766 6.95423 3.12538 7.01814 3.10865 7.0942C3.09752 7.14476 3.08432 7.1995 3.07048 7.2569C3.0367 7.39699 2.99911 7.55288 2.9786 7.70234L2.97857 7.70253C2.95642 7.86488 2.94105 8.02776 2.92625 8.18464C2.92511 8.19669 2.92398 8.20871 2.92284 8.22069C2.90677 8.39063 2.89071 8.55385 2.86662 8.71448L2.86661 8.71459C2.82199 9.01296 2.72333 9.24402 2.51457 9.39661L2.51446 9.39669C2.44967 9.4441 2.39109 9.50468 2.35282 9.58685C2.31552 9.66694 2.3076 9.74626 2.30779 9.81306L2.30779 9.81317C2.30974 10.4173 2.30964 11.0211 2.30954 11.6253C2.30949 11.9098 2.30945 12.1944 2.30961 12.4793C2.30959 12.6003 2.28527 12.6902 2.24587 12.7572C2.20759 12.8224 2.1459 12.8819 2.0429 12.9292L2.04286 12.9293C1.75008 13.0639 1.4177 12.8566 1.41616 12.5192L1.41616 12.5191M3.29333 6.89866L1.41616 12.5191M5.94755 6.80813C5.86808 6.70117 5.76899 6.64316 5.63122 6.6315M5.94755 6.80813C5.97422 6.84413 6.00795 6.88324 6.04742 6.89955M5.63122 6.6315L5.99832 7.01748L6.04742 6.89955M5.63122 6.6315C5.15436 6.59084 4.67802 6.54474 4.20221 6.49269C4.15254 6.48725 4.09633 6.4383 4.06391 6.39453C3.99341 6.29898 3.9258 6.20108 3.8582 6.10322L3.8582 6.10321C3.73378 5.92309 3.60944 5.74307 3.46732 5.57795C3.30052 5.38423 3.10183 5.20242 2.88327 5.07085L5.63122 6.6315ZM6.04742 6.89955L5.99868 7.01749L6.61552 7.73763C6.61552 7.31626 6.44114 7.06349 6.04742 6.89955ZM2.75434 5.28504L2.75424 5.28498C2.56415 5.17044 2.40232 5.14821 2.26801 5.17827C2.1314 5.20884 1.98755 5.3016 1.85182 5.48366L1.85178 5.48372C1.23159 6.31514 0.995863 7.25991 1.03067 8.29825M2.75434 5.28504L1.07156 9.01358C1.06956 8.9833 1.06754 8.95313 1.06553 8.92305C1.05141 8.71164 1.03761 8.50504 1.03067 8.29825M2.75434 5.28504C2.9445 5.39951 3.1235 5.56179 3.27784 5.74104L2.75434 5.28504ZM1.03067 8.29825L0.780808 8.30662L1.03067 8.29825ZM1.24445 9.37106L1.24452 9.37112C1.29958 9.41758 1.34762 9.47501 1.37891 9.5487C1.4094 9.62054 1.41661 9.69071 1.41642 9.75091L1.24445 9.37106ZM1.24445 9.37106C1.13807 9.28136 1.08166 9.16446 1.07157 9.01373L1.24445 9.37106ZM1.41616 12.5191C1.41172 11.5969 1.41381 10.6743 1.41642 9.75103L1.41616 12.5191ZM10.3716 3.39991V3.40002C10.3708 3.91521 10.807 4.35261 11.3391 4.35468C11.8673 4.35674 12.3011 3.92787 12.3051 3.40137C12.309 2.88004 11.8801 2.44684 11.3467 2.44456L10.3716 3.39991ZM10.3716 3.39991C10.3722 2.87367 10.8067 2.44229 11.3467 2.44456L10.3716 3.39991ZM13.7053 9.01373C13.6953 9.16446 13.6388 9.28136 13.5325 9.37106L13.5324 9.37112C13.4773 9.41758 13.4293 9.47501 13.398 9.54871C13.3675 9.62054 13.3603 9.69071 13.3605 9.75091L13.7053 9.01373ZM6.42494 13.21C6.50729 13.2362 6.5784 13.1805 6.60062 13.0947L6.42494 13.21ZM6.25957 7.13601C6.25953 7.13597 6.25949 7.13594 6.25944 7.1359L6.15971 7.246C6.15973 7.24601 6.15975 7.24603 6.15977 7.24604L6.25957 7.13601ZM4.4956 7.42157C4.86194 7.431 5.22828 7.44043 5.59462 7.43798L4.19855 7.41416C4.29757 7.41647 4.39658 7.41902 4.4956 7.42157ZM2.7985 2.32299C2.81379 2.38995 2.85595 2.44767 2.9151 2.4826C2.97424 2.51753 3.04514 2.52658 3.11117 2.50764C3.49199 2.39839 3.81039 2.45439 4.09044 2.69786C4.27159 2.85542 4.37156 3.05304 4.39837 3.30019L4.39837 3.30022C4.45715 3.84159 4.04876 4.33064 3.45482 4.34543L3.45481 4.34544C2.99147 4.35699 2.41203 3.97092 2.50034 3.1862C2.50782 3.11974 2.48835 3.05304 2.44629 3.00104C2.40423 2.94903 2.34309 2.91605 2.27653 2.90946C2.04879 2.88692 1.8945 2.82298 1.79027 2.68185L1.79014 2.68168C1.70542 2.56717 1.66856 2.45047 1.67702 2.32687L1.67703 2.32674C1.69642 2.04093 1.90557 1.83299 2.15189 1.80828L2.15209 1.80826C2.29727 1.79358 2.43342 1.82397 2.54178 1.89853C2.64766 1.97139 2.74771 2.10057 2.7985 2.32299Z" stroke="#007DC5" stroke-width="0.5" stroke-linejoin="round"/>
<path d="M11.3718 7.12202C11.1859 7.45482 10.873 7.40742 10.5789 7.41416C10.1135 7.42503 9.64817 7.44109 9.18282 7.43798C9.08478 7.43746 8.9687 7.38411 8.89419 7.31833C8.80687 7.24115 8.75406 7.25928 8.68583 7.32118C8.56975 7.42633 8.51746 7.55841 8.51772 7.71328C8.51877 8.14035 8.51929 8.56742 8.51929 8.99475C8.51955 10.3151 8.51956 11.6356 8.51956 12.9559C8.51956 12.9948 8.53315 13.0455 8.51354 13.0699C8.46936 13.1253 8.41576 13.1901 8.3525 13.21C8.27015 13.2362 8.19904 13.1805 8.17681 13.0947C8.16191 13.0375 8.16243 12.9754 8.16243 12.9155C8.16165 11.1896 8.16165 9.46351 8.16191 7.73763C8.16191 7.31626 8.33629 7.06349 8.73001 6.89955C8.76949 6.88324 8.80321 6.84413 8.82988 6.80813C8.90936 6.70117 9.00844 6.64316 9.14621 6.6315C9.62307 6.59084 10.0994 6.54474 10.5752 6.49269C10.6249 6.48725 10.6811 6.4383 10.7135 6.39453C10.9138 6.12311 11.0908 5.83279 11.3101 5.57795C11.4769 5.38423 11.6756 5.20242 11.8942 5.07085C12.3613 4.78934 12.8026 4.90044 13.126 5.33424C13.7856 6.2192 14.0324 7.22251 13.9961 8.30662C13.988 8.548 13.9707 8.78911 13.9548 9.03023C13.9407 9.24182 13.857 9.4244 13.6936 9.56218C13.6301 9.61579 13.6102 9.67044 13.6105 9.75021C13.6131 10.6735 13.6152 11.597 13.6107 12.5203C13.6084 13.0354 13.0913 13.3688 12.6296 13.1564C12.3417 13.024 12.2173 12.7878 12.2173 12.4791C12.2178 11.5903 12.2163 10.7015 12.2191 9.81236C12.2194 9.71835 12.1959 9.65775 12.1148 9.59844C11.8296 9.38996 11.7125 9.08202 11.6631 8.75156C11.6126 8.41514 11.5966 8.07353 11.5506 7.73633C11.5234 7.53821 11.4672 7.34397 11.4241 7.14792C11.4068 7.13963 11.3893 7.13083 11.3718 7.12202Z" stroke="#007DC5" stroke-width="0.5"/>
<path d="M3.40562 7.12202C3.5915 7.45482 3.90444 7.40742 4.19855 7.41416C4.66391 7.42503 5.12926 7.44109 5.59462 7.43798C5.69265 7.43746 5.80873 7.38411 5.88324 7.31833C5.97056 7.24115 6.02337 7.25928 6.09161 7.32118C6.20768 7.42633 6.25997 7.55841 6.25971 7.71328C6.25866 8.14035 6.25814 8.56742 6.25814 8.99475C6.25788 10.3151 6.25788 11.6356 6.25788 12.9559C6.25788 12.9948 6.24428 13.0455 6.26389 13.0699C6.30807 13.1253 6.36167 13.1901 6.42494 13.21C6.50729 13.2362 6.5784 13.1805 6.60062 13.0947C6.61552 13.0375 6.615 12.9754 6.615 12.9155C6.61578 11.1896 6.61578 9.46351 6.61552 7.73763C6.61552 7.31626 6.44114 7.06349 6.04742 6.89955C6.00795 6.88324 5.97422 6.84413 5.94755 6.80813C5.86808 6.70117 5.76899 6.64316 5.63122 6.6315C5.15436 6.59084 4.67802 6.54474 4.20221 6.49269C4.15254 6.48725 4.09633 6.4383 4.06391 6.39453C3.86365 6.12311 3.68666 5.83279 3.46732 5.57795C3.30052 5.38423 3.10183 5.20242 2.88327 5.07085C2.41609 4.78934 1.97478 4.90044 1.65139 5.33424C0.991264 6.2192 0.744469 7.22251 0.780808 8.30662C0.788913 8.548 0.806167 8.78911 0.822115 9.03023C0.836232 9.24182 0.919892 9.4244 1.08329 9.56218C1.14682 9.61579 1.16669 9.67044 1.16643 9.75021C1.16381 10.6735 1.16172 11.597 1.16616 12.5203C1.16852 13.0354 1.68564 13.3688 2.14733 13.1564C2.43517 13.024 2.55961 12.7878 2.55961 12.4791C2.55909 11.5903 2.56066 10.7015 2.55778 9.81236C2.55752 9.71835 2.58105 9.65775 2.6621 9.59844C2.94732 9.38996 3.06445 9.08202 3.11386 8.75156C3.16431 8.41514 3.18026 8.07353 3.22627 7.73633C3.25346 7.53821 3.30967 7.34397 3.35281 7.14792C3.37059 7.13963 3.3881 7.13083 3.40562 7.12202Z" stroke="#007DC5" stroke-width="0.5"/>
<path d="M3.04222 2.26734C3.49268 2.1381 3.90182 2.20259 4.2545 2.50923C4.48587 2.71046 4.61371 2.96711 4.64691 3.27324C4.72168 3.96188 4.19934 4.57697 3.46104 4.59536C2.86889 4.61012 2.14419 4.11546 2.2519 3.15825C1.99021 3.13235 1.75309 3.05232 1.58917 2.83037C1.4744 2.67524 1.41453 2.50094 1.4276 2.30981C1.45479 1.90916 1.75256 1.59708 2.12694 1.55953C2.51622 1.52016 2.91673 1.71777 3.04222 2.26734Z" stroke="#007DC5" stroke-width="0.5"/>
<path d="M11.3478 2.19456C12.017 2.19741 12.56 2.74102 12.5551 3.40325C12.5501 4.0678 12.0037 4.60727 11.3381 4.60468C10.6717 4.60209 10.1206 4.05615 10.1216 3.39962C10.1224 2.73221 10.6722 2.19171 11.3478 2.19456Z" stroke="#007DC5" stroke-width="0.5"/>
</g>
<defs>
<clipPath id="clip0_7838:59941">
<rect width="14" height="14" fill="white"/>
</clipPath>
</defs>
</svg>
