<svg width="18" height="18" viewBox="0 0 18 18" fill="none" xmlns="http://www.w3.org/2000/svg">
<path d="M15.4156 16.7846V12.5621C17.3213 10.7966 17.9505 8.04375 17.0011 5.62567C16.0516 3.20759 13.7174 1.6183 11.1196 1.6211C6.30914 1.6211 5.26964 5.5826 3.55514 10.0316C3.49541 10.1871 3.51602 10.3621 3.61026 10.4995C3.7045 10.6368 3.86029 10.7191 4.02689 10.7193H5.30714V12.7443C5.30714 13.8627 6.21376 14.7693 7.33214 14.7693H8.34014V16.7943" stroke="#007DC5" stroke-linecap="round" stroke-linejoin="round"/>
<path d="M3.05273 15.9961C3.20806 15.9961 3.33398 16.122 3.33398 16.2773" stroke="#007DC5" stroke-linecap="round" stroke-linejoin="round"/>
<path d="M2.77539 16.2773C2.77539 16.122 2.90131 15.9961 3.05664 15.9961" stroke="#007DC5" stroke-linecap="round" stroke-linejoin="round"/>
<path d="M3.05366 16.5616C2.97906 16.5608 2.90784 16.5304 2.85566 16.4771C2.80347 16.4238 2.77461 16.3519 2.77541 16.2773" stroke="#007DC5" stroke-linecap="round" stroke-linejoin="round"/>
<path d="M3.33398 16.2773C3.33398 16.4327 3.20806 16.5586 3.05273 16.5586" stroke="#007DC5" stroke-linecap="round" stroke-linejoin="round"/>
<path d="M1.03125 13.4688C1.18658 13.4687 1.3125 13.5947 1.3125 13.75" stroke="#007DC5" stroke-linecap="round" stroke-linejoin="round"/>
<path d="M0.75 13.75C0.75 13.5947 0.87592 13.4688 1.03125 13.4688" stroke="#007DC5" stroke-linecap="round" stroke-linejoin="round"/>
<path d="M1.03125 14.0312C0.87592 14.0312 0.75 13.9053 0.75 13.75" stroke="#007DC5" stroke-linecap="round" stroke-linejoin="round"/>
<path d="M1.3125 13.75C1.3125 13.9053 1.18658 14.0312 1.03125 14.0312" stroke="#007DC5" stroke-linecap="round" stroke-linejoin="round"/>
<path d="M3.55859 12.9648C3.71392 12.9648 3.83984 13.0908 3.83984 13.2461" stroke="#007DC5" stroke-linecap="round" stroke-linejoin="round"/>
<path d="M3.27734 13.2461C3.27714 13.1714 3.30671 13.0998 3.3595 13.047C3.41229 12.9942 3.48394 12.9646 3.55859 12.9648" stroke="#007DC5" stroke-linecap="round" stroke-linejoin="round"/>
<path d="M3.55859 13.5273C3.48394 13.5275 3.41229 13.498 3.3595 13.4452C3.30671 13.3924 3.27714 13.3207 3.27734 13.2461" stroke="#007DC5" stroke-linecap="round" stroke-linejoin="round"/>
<path d="M3.83984 13.2461C3.83984 13.4014 3.71392 13.5273 3.55859 13.5273" stroke="#007DC5" stroke-linecap="round" stroke-linejoin="round"/>
</svg>
