<svg width="66" height="34" viewBox="0 0 66 34" fill="none" xmlns="http://www.w3.org/2000/svg">
<g filter="url(#filter0_d_9002:67991)">
<rect x="2" y="1" width="62" height="30" rx="8" fill="#E7F3F9"/>
<path fill-rule="evenodd" clip-rule="evenodd" d="M39.575 17.3979C39.6061 16.3936 38.8187 15.5535 37.8145 15.5195C37.3156 15.524 36.8436 15.7467 36.523 16.1291C36.2027 15.7467 35.7309 15.5239 35.2321 15.5195C34.2278 15.5531 33.4402 16.3934 33.4716 17.3979C33.5183 18.1198 33.7646 18.8145 34.1833 19.4045C34.2798 19.5392 34.2997 19.7142 34.2358 19.8671C34.0391 20.3501 33.939 20.867 33.9412 21.3884V21.9753C33.9412 22.2994 34.2039 22.5621 34.528 22.5621C34.8521 22.5621 35.1149 22.2994 35.1149 21.9753C35.0769 21.1915 35.6659 20.5182 36.4478 20.4516C36.8546 20.4302 37.2509 20.5852 37.5351 20.8771C37.8194 21.1689 37.9639 21.5692 37.9318 21.9753C37.9318 22.2994 38.1945 22.5621 38.5186 22.5621C38.8427 22.5621 39.1054 22.2994 39.1054 21.9753V21.3867C39.108 20.8325 38.9948 20.2839 38.7729 19.7761C38.696 19.6195 38.71 19.4335 38.8097 19.2902C39.2441 18.7477 39.5102 18.0898 39.575 17.3979Z" stroke="#007DC5" stroke-linecap="round" stroke-linejoin="round"/>
<path fill-rule="evenodd" clip-rule="evenodd" d="M27.4336 9.48047L33.3273 11.2377L32.3558 14.4962C32.3097 14.6506 32.1473 14.7384 31.9929 14.6924L26.6582 13.1018C26.5039 13.0558 26.416 12.8933 26.4621 12.739L27.4336 9.48047Z" stroke="#007DC5" stroke-linecap="round" stroke-linejoin="round"/>
<path d="M27.4336 9.48047L39.5751 13.1001" stroke="#007DC5" stroke-linecap="round" stroke-linejoin="round"/>
<path d="M29.0875 12.543L28.7363 13.7213" stroke="#007DC5" stroke-linecap="round" stroke-linejoin="round"/>
</g>
<defs>
<filter id="filter0_d_9002:67991" x="0" y="0" width="66" height="34" filterUnits="userSpaceOnUse" color-interpolation-filters="sRGB">
<feFlood flood-opacity="0" result="BackgroundImageFix"/>
<feColorMatrix in="SourceAlpha" type="matrix" values="0 0 0 0 0 0 0 0 0 0 0 0 0 0 0 0 0 0 127 0" result="hardAlpha"/>
<feOffset dy="1"/>
<feGaussianBlur stdDeviation="1"/>
<feColorMatrix type="matrix" values="0 0 0 0 0 0 0 0 0 0 0 0 0 0 0 0 0 0 0.2 0"/>
<feBlend mode="normal" in2="BackgroundImageFix" result="effect1_dropShadow_9002:67991"/>
<feBlend mode="normal" in="SourceGraphic" in2="effect1_dropShadow_9002:67991" result="shape"/>
</filter>
</defs>
</svg>
