<svg width="16" height="16" viewBox="0 0 16 16" fill="none" xmlns="http://www.w3.org/2000/svg">
<path fill-rule="evenodd" clip-rule="evenodd" d="M14.575 9.39786C14.6061 8.39356 13.8187 7.55345 12.8145 7.51953C12.3156 7.52396 11.8436 7.74674 11.523 8.12911C11.2027 7.7467 10.7309 7.5239 10.2321 7.51953C9.22776 7.55314 8.44017 8.39344 8.47161 9.39786C8.51826 10.1198 8.76465 10.8145 9.18328 11.4045C9.27981 11.5392 9.29967 11.7142 9.23578 11.8671C9.03911 12.3501 8.93903 12.867 8.9412 13.3884V13.9753C8.9412 14.2994 9.20393 14.5621 9.52803 14.5621C9.85213 14.5621 10.1149 14.2994 10.1149 13.9753C10.0769 13.1915 10.6659 12.5182 11.4478 12.4516C11.8546 12.4302 12.2509 12.5852 12.5351 12.8771C12.8194 13.1689 12.9639 13.5692 12.9318 13.9753C12.9318 14.2994 13.1945 14.5621 13.5186 14.5621C13.8427 14.5621 14.1054 14.2994 14.1054 13.9753V13.3867C14.108 12.8325 13.9948 12.2839 13.7729 11.7761C13.696 11.6195 13.71 11.4335 13.8097 11.2902C14.2441 10.7477 14.5102 10.0898 14.575 9.39786Z" stroke="#007DC5" stroke-linecap="round" stroke-linejoin="round"/>
<path fill-rule="evenodd" clip-rule="evenodd" d="M2.43359 1.48047L8.3273 3.23768L7.35577 6.49618C7.30975 6.65055 7.1473 6.73838 6.99293 6.69236L1.65824 5.10181C1.50387 5.05579 1.41604 4.89334 1.46207 4.73897L2.43359 1.48047Z" stroke="#007DC5" stroke-linecap="round" stroke-linejoin="round"/>
<path d="M2.43359 1.48047L14.5751 5.10005" stroke="#007DC5" stroke-linecap="round" stroke-linejoin="round"/>
<path d="M4.08749 4.54297L3.73633 5.7213" stroke="#007DC5" stroke-linecap="round" stroke-linejoin="round"/>
</svg>
