<svg width="16" height="14" viewBox="0 0 16 14" fill="none" xmlns="http://www.w3.org/2000/svg">
<path fill-rule="evenodd" clip-rule="evenodd" d="M12.2996 5.68761C11.5103 4.59561 11.2373 3.93761 9.92715 3.93761C9.17721 3.93058 8.46599 4.27004 7.99981 4.85752C7.53414 4.27069 6.82394 3.9313 6.07481 3.93761C4.76465 3.93761 4.49165 4.59561 3.7024 5.68761C3.3267 6.26272 2.6268 6.53517 1.96115 6.36544C1.80547 6.336 1.64595 6.39222 1.54313 6.51276C1.44031 6.6333 1.40994 6.79969 1.46356 6.94877C1.91915 8.30561 3.4749 9.18761 5.12573 9.18761C6.24178 9.27355 7.32483 8.78555 7.99981 7.89261C8.67526 8.78628 9.75938 9.27437 10.8762 9.18761C12.5271 9.18761 14.0846 8.30561 14.5384 6.94877C14.592 6.79969 14.5617 6.6333 14.4588 6.51276C14.356 6.39222 14.1965 6.336 14.0408 6.36544C13.3752 6.53517 12.6753 6.26272 12.2996 5.68761Z" stroke="#007DC5" stroke-linecap="round" stroke-linejoin="round"/>
</svg>
