<svg width="16" height="16" viewBox="0 0 16 16" fill="none" xmlns="http://www.w3.org/2000/svg">
<rect x="1.4375" y="1.4375" width="13.125" height="13.125" rx="3" stroke="#007DC5" stroke-linecap="round" stroke-linejoin="round"/>
<path fill-rule="evenodd" clip-rule="evenodd" d="M4.0625 6.6875V11.9375C4.0625 12.4207 4.45425 12.8125 4.9375 12.8125C5.42075 12.8125 5.8125 12.4207 5.8125 11.9375V6.6875L4.0625 6.6875Z" stroke="#007DC5" stroke-linecap="round" stroke-linejoin="round"/>
<path fill-rule="evenodd" clip-rule="evenodd" d="M6.58145 3.99775L5.81261 6.6875H4.06261L3.29378 3.99775C3.23166 3.77616 3.35061 3.5441 3.56678 3.46517C4.00457 3.29521 4.46819 3.20131 4.93761 3.1875C5.40704 3.20131 5.87065 3.29521 6.30845 3.46517C6.52461 3.5441 6.64357 3.77616 6.58145 3.99775Z" stroke="#007DC5" stroke-linecap="round" stroke-linejoin="round"/>
<path fill-rule="evenodd" clip-rule="evenodd" d="M8.4375 9.3125H11.9375V11.0625C11.9375 11.5457 11.5457 11.9375 11.0625 11.9375H9.3125C8.82925 11.9375 8.4375 11.5457 8.4375 11.0625V9.3125Z" stroke="#007DC5" stroke-linecap="round" stroke-linejoin="round"/>
<rect x="8.4375" y="6.6875" width="3.5" height="2.625" stroke="#007DC5" stroke-linecap="round" stroke-linejoin="round"/>
<path fill-rule="evenodd" clip-rule="evenodd" d="M9.3125 4.0625H11.0625C11.5457 4.0625 11.9375 4.45425 11.9375 4.9375V6.6875H8.4375V4.9375C8.4375 4.45425 8.82925 4.0625 9.3125 4.0625Z" stroke="#007DC5" stroke-linecap="round" stroke-linejoin="round"/>
</svg>
