<svg width="18" height="18" viewBox="0 0 18 18" fill="none" xmlns="http://www.w3.org/2000/svg">
<path fill-rule="evenodd" clip-rule="evenodd" d="M15.7545 9.40519C15.8463 9.53757 15.8463 9.71305 15.7545 9.84544C14.1294 12.0188 11.5339 13.2469 8.82296 13.1252C6.112 13.2467 3.5166 12.0187 1.89146 9.84544C1.7992 9.71318 1.7992 9.53744 1.89146 9.40519C3.5166 7.23194 6.112 6.00388 8.82296 6.12544C11.5339 6.00415 14.1291 7.23215 15.7545 9.40519Z" stroke="#007DC5" stroke-linecap="round" stroke-linejoin="round"/>
<ellipse cx="8.82447" cy="9.62525" rx="3.50025" ry="3.50025" stroke="#007DC5" stroke-linecap="round" stroke-linejoin="round"/>
<path d="M8.82422 9.34375C8.97955 9.34375 9.10547 9.46967 9.10547 9.625" stroke="#007DC5" stroke-linecap="round" stroke-linejoin="round"/>
<path d="M8.54297 9.625C8.54297 9.46967 8.66889 9.34375 8.82422 9.34375" stroke="#007DC5" stroke-linecap="round" stroke-linejoin="round"/>
<path d="M8.82422 9.90625C8.66889 9.90625 8.54297 9.78033 8.54297 9.625" stroke="#007DC5" stroke-linecap="round" stroke-linejoin="round"/>
<path d="M9.10547 9.625C9.10547 9.78033 8.97955 9.90625 8.82422 9.90625" stroke="#007DC5" stroke-linecap="round" stroke-linejoin="round"/>
<path d="M15.6133 9.21069C16.7707 8.84623 17.5256 7.73364 17.4365 6.52344" stroke="#007DC5" stroke-linecap="round" stroke-linejoin="round"/>
<path d="M13.1426 7.14203C14.0222 6.38558 14.3009 5.14144 13.8281 4.08203" stroke="#007DC5" stroke-linecap="round" stroke-linejoin="round"/>
<path d="M9.39222 6.13856C10.0051 5.09955 9.87661 3.78358 9.07422 2.88281" stroke="#007DC5" stroke-linecap="round" stroke-linejoin="round"/>
<path d="M6.14953 6.4805C6.09771 5.28629 5.27095 4.26646 4.11328 3.96875" stroke="#007DC5" stroke-linecap="round" stroke-linejoin="round"/>
<path d="M3.06289 8.12592C2.69425 7.08015 1.69651 6.38869 0.587891 6.41067" stroke="#007DC5" stroke-linecap="round" stroke-linejoin="round"/>
</svg>
