<svg width="18" height="18" viewBox="0 0 18 18" fill="none" xmlns="http://www.w3.org/2000/svg">
<path d="M0.6375 10.125C0.587837 9.75205 0.562783 9.37624 0.5625 9C0.5625 4.3401 4.3401 0.5625 9 0.5625" stroke="#007DC5" stroke-linecap="round" stroke-linejoin="round"/>
<path d="M17.364 10.125C17.4137 9.75205 17.4387 9.37624 17.439 9C17.439 6.76198 16.5498 4.61564 14.9672 3.03326C13.3845 1.45087 11.238 0.562102 9 0.5625" stroke="#007DC5" stroke-linecap="round" stroke-linejoin="round"/>
<path fill-rule="evenodd" clip-rule="evenodd" d="M15.1883 9.03516C13.5452 9.03675 11.97 9.69109 10.8095 10.8542C9.64892 12.0173 8.99801 13.5938 9 15.2369C10.643 15.2351 12.218 14.5807 13.3786 13.4177C14.5391 12.2546 15.19 10.6782 15.1883 9.03516Z" stroke="#007DC5" stroke-linecap="round" stroke-linejoin="round"/>
<path d="M10.6274 11.0438C11.4935 8.56026 10.8643 5.80023 9.00739 3.9375C7.14286 5.80735 6.51643 8.58107 7.39639 11.0708" stroke="#007DC5" stroke-linecap="round" stroke-linejoin="round"/>
<path fill-rule="evenodd" clip-rule="evenodd" d="M9 15.2369C9.00373 11.8158 6.23362 9.0393 2.8125 9.03516C2.81051 10.6781 3.46132 12.2545 4.62172 13.4176C5.78212 14.5807 7.35706 15.2351 9 15.2369V15.2369Z" stroke="#007DC5" stroke-linecap="round" stroke-linejoin="round"/>
<path d="M9 17.4356V15.2344" stroke="#007DC5" stroke-linecap="round" stroke-linejoin="round"/>
<path d="M16.7372 12.3672C16.4632 13.0056 16.1078 13.6058 15.6797 14.1529" stroke="#007DC5" stroke-linecap="round" stroke-linejoin="round"/>
<path d="M14.0539 15.7539C13.5015 16.1742 12.8963 16.5201 12.2539 16.7829" stroke="#007DC5" stroke-linecap="round" stroke-linejoin="round"/>
<path d="M5.76484 16.7829C5.12212 16.5207 4.51687 16.1747 3.96484 15.7539" stroke="#007DC5" stroke-linecap="round" stroke-linejoin="round"/>
<path d="M2.3368 14.1529C1.90853 13.6059 1.55306 13.0057 1.2793 12.3672" stroke="#007DC5" stroke-linecap="round" stroke-linejoin="round"/>
</svg>
