<svg width="18" height="18" viewBox="0 0 18 18" fill="none" xmlns="http://www.w3.org/2000/svg">
<path d="M0.5625 0.5625L10.4828 2.877C14.556 3.8275 17.4375 7.45887 17.4375 11.6415V17.4375" stroke="#007DC5" stroke-linecap="round" stroke-linejoin="round"/>
<path d="M0.5625 10.6875L7.074 13.4782C7.90111 13.8328 8.4374 14.6461 8.4375 15.546V17.4375" stroke="#007DC5" stroke-linecap="round" stroke-linejoin="round"/>
<path d="M0.5625 6.75L9.01125 9.792C9.11648 10.8221 9.91112 11.6473 10.9365 11.7914C11.9618 11.9355 12.9532 11.3613 13.3382 10.4001C13.7233 9.4389 13.4027 8.33903 12.5614 7.73533C11.7202 7.13163 10.5756 7.18 9.78825 7.8525L0.5625 3.9375" stroke="#007DC5" stroke-linecap="round" stroke-linejoin="round"/>
<path d="M14.0625 17.4381L14.625 12.5391C13.7718 13.5091 12.5419 14.0645 11.25 14.0631L11.8125 17.4381" stroke="#007DC5" stroke-linecap="round" stroke-linejoin="round"/>
</svg>
