<svg width="18" height="18" viewBox="0 0 18 18" fill="none" xmlns="http://www.w3.org/2000/svg">
<path fill-rule="evenodd" clip-rule="evenodd" d="M7.12966 13.2907C7.0451 13.2108 6.95486 13.1371 6.85966 13.0702L8.67391 11.2567C8.81138 11.1186 8.86769 10.9192 8.82281 10.7296C8.77792 10.54 8.63821 10.387 8.45341 10.3252L7.84591 10.1227L7.26241 9.5392C7.04262 9.32027 6.68719 9.32027 6.46741 9.5392L4.89841 11.1082C4.8311 11.0133 4.75743 10.9231 4.67791 10.8382C3.89906 10.0575 2.69189 9.89984 1.73864 10.4543C0.785396 11.0087 0.32556 12.1359 0.619013 13.1989C0.912466 14.2619 1.88548 14.9936 2.98816 14.9804C2.97549 16.0826 3.70708 17.0548 4.76958 17.3479C5.83208 17.641 6.95869 17.1814 7.51288 16.2287C8.06708 15.2759 7.9097 14.0694 7.12966 13.2907V13.2907Z" stroke="#007DC5" stroke-linecap="round" stroke-linejoin="round"/>
<path fill-rule="evenodd" clip-rule="evenodd" d="M11.9995 3.42785C12.0237 3.54152 12.056 3.65331 12.0963 3.76235L9.17051 4.4996C8.9881 4.54599 8.84092 4.68044 8.77824 4.85791C8.71557 5.03539 8.74568 5.23244 8.85851 5.3831L9.28226 5.94635L9.42251 6.7106C9.45148 6.86473 9.54325 6.99988 9.67583 7.08366C9.80841 7.16745 9.96986 7.19233 10.1215 7.15235L12.5965 6.4901C12.5975 6.60639 12.607 6.72245 12.625 6.83735C12.822 7.92276 13.726 8.73893 14.8258 8.82433C15.9256 8.90973 16.9448 8.24289 17.3069 7.2009C17.6691 6.15891 17.2832 5.00373 16.3675 4.3886C17.003 3.48881 16.9526 2.27382 16.2447 1.42978C15.5368 0.585747 14.3492 0.32452 13.3525 0.793632C12.3558 1.26274 11.8002 2.34445 11.9995 3.42785Z" stroke="#007DC5" stroke-linecap="round" stroke-linejoin="round"/>
<path d="M4.4707 3.9375L2.7832 2.25" stroke="#007DC5" stroke-linecap="round" stroke-linejoin="round"/>
<path d="M6.7207 2.8125L6.1582 1.125" stroke="#007DC5" stroke-linecap="round" stroke-linejoin="round"/>
<path d="M3.9082 6.1875H2.2207" stroke="#007DC5" stroke-linecap="round" stroke-linejoin="round"/>
<path d="M13.4707 14.0625L15.1582 15.75" stroke="#007DC5" stroke-linecap="round" stroke-linejoin="round"/>
<path d="M14.5957 11.8125H16.8457" stroke="#007DC5" stroke-linecap="round" stroke-linejoin="round"/>
<path d="M11.2207 15.1875L10.6582 16.875" stroke="#007DC5" stroke-linecap="round" stroke-linejoin="round"/>
</svg>
