<svg width="16" height="16" viewBox="0 0 16 16" fill="none" xmlns="http://www.w3.org/2000/svg">
<circle cx="4.94336" cy="3.1875" r="1.75" stroke="#007DC5" stroke-linecap="round" stroke-linejoin="round"/>
<path fill-rule="evenodd" clip-rule="evenodd" d="M7.13086 8.00125C6.97638 7.47426 6.73379 6.97724 6.41336 6.53125L4.94336 8.00125L3.47336 6.53125C3.15337 6.9775 2.91082 7.47445 2.75586 8.00125L1.44336 11.9388H3.19336L3.63086 14.5637H6.25586L6.69336 11.9388H8.44336L7.13086 8.00125Z" stroke="#007DC5" stroke-linecap="round" stroke-linejoin="round"/>
<ellipse cx="9.75586" cy="7.125" rx="1.3125" ry="1.3125" stroke="#007DC5" stroke-linecap="round" stroke-linejoin="round"/>
<path d="M9.75521 9.3125C10.9633 9.3125 11.9427 10.2919 11.9427 11.5V11.9375H11.0677L10.6302 14.5625H8.88021L8.73438 13.6875" stroke="#007DC5" stroke-linecap="round" stroke-linejoin="round"/>
<path fill-rule="evenodd" clip-rule="evenodd" d="M14.2364 1.78155C14.0272 1.56185 13.7371 1.4375 13.4338 1.4375C13.1304 1.4375 12.8403 1.56185 12.6311 1.78155L11.9434 2.49263L11.2562 1.78155C11.047 1.56185 10.7569 1.4375 10.4535 1.4375C10.1502 1.4375 9.86006 1.56185 9.65086 1.78155C9.20753 2.24592 9.20753 2.97676 9.65086 3.44113L11.6995 5.55922C11.7632 5.62602 11.8514 5.66382 11.9437 5.66382C12.0359 5.66382 12.1241 5.62602 12.1878 5.55922L14.2364 3.44113C14.6792 2.97652 14.6792 2.24616 14.2364 1.78155V1.78155Z" stroke="#007DC5" stroke-linecap="round" stroke-linejoin="round"/>
</svg>
