<svg width="18" height="18" viewBox="0 0 18 18" fill="none" xmlns="http://www.w3.org/2000/svg">
<path fill-rule="evenodd" clip-rule="evenodd" d="M6.7451 1.7786L16.2948 11.3291C17.1971 12.2131 17.5551 13.5135 17.2324 14.7347C16.9096 15.9559 15.9559 16.9096 14.7347 17.2324C13.5135 17.5551 12.2131 17.1971 11.3291 16.2948L1.7786 6.7451C0.407135 5.37363 0.407135 3.15006 1.7786 1.7786C3.15006 0.407135 5.37363 0.407135 6.7451 1.7786Z" stroke="#007DC5" stroke-linecap="round" stroke-linejoin="round"/>
<rect x="5.2168" y="10.1836" width="7.023" height="3.7815" transform="rotate(-45 5.2168 10.1836)" stroke="#007DC5" stroke-linecap="round" stroke-linejoin="round"/>
<path d="M11.8768 13.0084C11.824 12.9555 11.7524 12.9258 11.6776 12.9258C11.6029 12.9258 11.5313 12.9555 11.4785 13.0084" stroke="#007DC5" stroke-linecap="round" stroke-linejoin="round"/>
<path d="M11.877 13.4053C11.9866 13.2955 11.9866 13.1176 11.877 13.0078" stroke="#007DC5" stroke-linecap="round" stroke-linejoin="round"/>
<path d="M11.4746 13.4062C11.5848 13.5156 11.7626 13.5156 11.8729 13.4062" stroke="#007DC5" stroke-linecap="round" stroke-linejoin="round"/>
<path d="M11.4748 13.0078C11.3652 13.1176 11.3652 13.2955 11.4748 13.4053" stroke="#007DC5" stroke-linecap="round" stroke-linejoin="round"/>
<path d="M14.9327 13.0083C14.88 12.9555 14.8085 12.9258 14.7339 12.9258C14.6593 12.9258 14.5878 12.9555 14.5352 13.0083" stroke="#007DC5" stroke-linecap="round" stroke-linejoin="round"/>
<path d="M14.9316 13.4053C14.9845 13.3527 15.0142 13.2812 15.0142 13.2066C15.0142 13.132 14.9845 13.0604 14.9316 13.0078" stroke="#007DC5" stroke-linecap="round" stroke-linejoin="round"/>
<path d="M14.5352 13.4062C14.645 13.5159 14.8228 13.5159 14.9327 13.4062" stroke="#007DC5" stroke-linecap="round" stroke-linejoin="round"/>
<path d="M14.5337 13.0078C14.4809 13.0604 14.4512 13.132 14.4512 13.2066C14.4512 13.2812 14.4809 13.3527 14.5337 13.4053" stroke="#007DC5" stroke-linecap="round" stroke-linejoin="round"/>
<path d="M3.47172 4.60178C3.36191 4.49211 3.18403 4.49211 3.07422 4.60178" stroke="#007DC5" stroke-linecap="round" stroke-linejoin="round"/>
<path d="M3.47266 4.99981C3.52555 4.94705 3.55528 4.8754 3.55528 4.80069C3.55528 4.72597 3.52555 4.65433 3.47266 4.60156" stroke="#007DC5" stroke-linecap="round" stroke-linejoin="round"/>
<path d="M3.07617 5C3.18598 5.10967 3.36387 5.10967 3.47367 5" stroke="#007DC5" stroke-linecap="round" stroke-linejoin="round"/>
<path d="M3.07482 4.60156C3.02192 4.65433 2.99219 4.72597 2.99219 4.80069C2.99219 4.8754 3.02192 4.94705 3.07482 4.99981" stroke="#007DC5" stroke-linecap="round" stroke-linejoin="round"/>
<path d="M6.52445 4.60178C6.41465 4.49211 6.23676 4.49211 6.12695 4.60178" stroke="#007DC5" stroke-linecap="round" stroke-linejoin="round"/>
<path d="M6.52539 4.99981C6.63474 4.88958 6.63474 4.7118 6.52539 4.60156" stroke="#007DC5" stroke-linecap="round" stroke-linejoin="round"/>
<path d="M6.13086 5C6.24067 5.10967 6.41855 5.10967 6.52836 5" stroke="#007DC5" stroke-linecap="round" stroke-linejoin="round"/>
<path d="M6.13146 4.60156C6.07856 4.65433 6.04883 4.72597 6.04883 4.80069C6.04883 4.8754 6.07856 4.94705 6.13146 4.99981" stroke="#007DC5" stroke-linecap="round" stroke-linejoin="round"/>
</svg>
