<svg width="16" height="16" viewBox="0 0 16 16" fill="none" xmlns="http://www.w3.org/2000/svg">
<path fill-rule="evenodd" clip-rule="evenodd" d="M6.68798 12.8125H3.18798C2.28701 9.23174 1.70144 5.57895 1.43798 1.896C1.4324 1.77642 1.476 1.65976 1.55864 1.57315C1.64128 1.48655 1.75577 1.43753 1.87548 1.4375H8.00048C8.12003 1.43785 8.23427 1.48699 8.31674 1.57355C8.39922 1.6601 8.4428 1.77656 8.43739 1.896C8.17412 5.57893 7.58874 9.23173 6.68798 12.8125V12.8125Z" stroke="#007DC5" stroke-linecap="round" stroke-linejoin="round"/>
<path d="M6.6875 12.8125V14.125C6.6875 14.3666 6.49162 14.5625 6.25 14.5625H3.625C3.38338 14.5625 3.1875 14.3666 3.1875 14.125V12.8125" stroke="#007DC5" stroke-linecap="round" stroke-linejoin="round"/>
<path d="M1.71094 4.9375H8.16435" stroke="#007DC5" stroke-linecap="round" stroke-linejoin="round"/>
<path d="M2.17773 8H7.69723" stroke="#007DC5" stroke-linecap="round" stroke-linejoin="round"/>
<path d="M10.1875 3.625C11.0762 3.62667 11.8756 4.16586 12.21 4.98923C12.5445 5.8126 12.3476 6.75649 11.7118 7.37744C11.076 7.99839 10.1277 8.17298 9.3125 7.81917" stroke="#007DC5" stroke-linecap="round" stroke-linejoin="round"/>
<path d="M10.1875 1.4375V2.3125" stroke="#007DC5" stroke-linecap="round" stroke-linejoin="round"/>
<path d="M13.2804 2.71875L12.6621 3.33708" stroke="#007DC5" stroke-linecap="round" stroke-linejoin="round"/>
<path d="M14.5625 5.8125H13.6875" stroke="#007DC5" stroke-linecap="round" stroke-linejoin="round"/>
<path d="M13.2804 8.9074L12.6621 8.28906" stroke="#007DC5" stroke-linecap="round" stroke-linejoin="round"/>
<path d="M10.1875 10.1875V9.3125" stroke="#007DC5" stroke-linecap="round" stroke-linejoin="round"/>
</svg>
