<svg width="18" height="18" viewBox="0 0 18 18" fill="none" xmlns="http://www.w3.org/2000/svg">
<path d="M3.375 17.4375V16.3125C3.375 15.6912 3.87868 15.1875 4.5 15.1875C5.0625 15.1875 5.0625 17.4375 10.125 17.4375C15.1875 17.4375 16.875 12.9375 16.875 10.6875C16.875 5.625 13.5 2.8125 9 2.8125C8.37868 2.8125 7.875 2.30882 7.875 1.6875V0.5625" stroke="#007DC5" stroke-linecap="round" stroke-linejoin="round"/>
<path d="M1.125 17.4373V16.3123C1.12707 14.4492 2.6369 12.9393 4.5 12.9373C5.625 12.9373 9.108 8.71253 8.05275 4.92578" stroke="#007DC5" stroke-linecap="round" stroke-linejoin="round"/>
<path d="M9 5.0625C7.1369 5.06043 5.62707 3.5506 5.625 1.6875V0.5625" stroke="#007DC5" stroke-linecap="round" stroke-linejoin="round"/>
<path fill-rule="evenodd" clip-rule="evenodd" d="M10.125 15.1875C11.25 15.1875 13.5 14.625 13.5 12.9375C13.5 11.25 11.8125 11.25 11.25 11.25C10.6875 11.25 7.875 12.9375 7.875 14.0625C7.875 15.1875 9 15.1875 10.125 15.1875Z" stroke="#007DC5" stroke-linecap="round" stroke-linejoin="round"/>
</svg>
