<svg width="14" height="16" viewBox="0 0 14 16" fill="none" xmlns="http://www.w3.org/2000/svg">
<path d="M3.5 5.8125V14.125C3.5 14.3666 3.69588 14.5625 3.9375 14.5625H10.0625C10.3041 14.5625 10.5 14.3666 10.5 14.125V5.8125" stroke="#007DC5" stroke-linecap="round" stroke-linejoin="round"/>
<path d="M10.5 8.4375H12.6875C12.9291 8.4375 13.125 8.24162 13.125 8V4.9375C13.125 3.0045 11.558 1.4375 9.625 1.4375H8.75C8.75 2.404 7.9665 3.1875 7 3.1875C6.0335 3.1875 5.25 2.404 5.25 1.4375H4.375C2.442 1.4375 0.875 3.0045 0.875 4.9375V8C0.875 8.24162 1.07088 8.4375 1.3125 8.4375H3.5" stroke="#007DC5" stroke-linecap="round" stroke-linejoin="round"/>
</svg>
