<svg width="14" height="14" viewBox="0 0 14 14" fill="none" xmlns="http://www.w3.org/2000/svg">
<path d="M0 11.6283C0 9.95717 0 8.28631 0 6.61518C0.21807 6.04484 0.63826 5.8045 1.2394 5.84079C1.48854 5.85564 1.73906 5.84327 2.00938 5.84327C1.98573 5.78112 1.9695 5.73575 1.95135 5.69092C1.54959 4.69325 1.14507 3.69694 0.747708 2.69734C0.691334 2.55517 0.64266 2.40062 0.635785 2.24993C0.613511 1.76126 0.831856 1.39525 1.2625 1.16728C2.11525 0.715738 3.00596 0.670364 3.91536 0.958832C4.45792 1.13098 4.99361 1.32622 5.53122 1.51349C6.4728 1.84184 7.41658 1.85944 8.36283 1.53769C8.92354 1.34712 9.48041 1.14418 10.0441 0.962682C10.9178 0.681638 11.7791 0.711063 12.6129 1.11695C13.2786 1.4409 13.4972 2.02388 13.2192 2.71247C12.8186 3.70547 12.4184 4.69902 12.0183 5.6923C12.0004 5.73712 11.9845 5.7825 11.9619 5.84327C12.2966 5.84327 12.6107 5.84024 12.925 5.84382C13.5418 5.85097 13.9961 6.30443 13.9972 6.92097C13.9997 8.35891 14.0024 9.79713 13.9964 11.2351C13.9917 12.37 13.0724 13.2953 11.9391 13.2972C8.63865 13.3025 5.3379 13.3019 2.03743 13.297C1.37772 13.2959 0.840106 13.0173 0.421015 12.508C0.208445 12.249 0.0945978 11.9435 0 11.6283ZM6.99941 6.66523C5.04531 6.66523 3.0912 6.66523 1.13737 6.66523C0.85798 6.66523 0.794732 6.72985 0.794732 7.01364C0.794732 8.38779 0.794457 9.7622 0.794732 11.1363C0.795007 11.9437 1.32629 12.4775 2.1301 12.4778C5.36705 12.478 8.604 12.478 11.841 12.4778C12.6445 12.4778 13.1766 11.9437 13.1769 11.1369C13.1771 9.76715 13.1769 8.39769 13.1769 7.02794C13.1769 6.72517 13.1183 6.66523 12.8208 6.66523C10.8801 6.66523 8.93977 6.66523 6.99941 6.66523ZM4.59019 5.84327C4.55582 5.77067 4.53574 5.7253 4.5132 5.68102C4.27258 5.21023 4.03223 4.73917 3.79024 4.26921C3.70471 4.10338 3.70554 3.94306 3.82214 3.79457C4.01271 3.55175 4.3702 3.60125 4.52062 3.89301C4.83631 4.5046 5.14706 5.11866 5.46275 5.73025C5.4853 5.7737 5.53012 5.83667 5.56587 5.83749C5.89751 5.84574 6.22943 5.84244 6.57455 5.84244C6.57455 5.77865 6.57455 5.72942 6.57455 5.68047C6.57455 5.03699 6.57372 4.39323 6.5751 3.74974C6.57537 3.54295 6.68675 3.3851 6.86357 3.33093C7.13801 3.24678 7.39458 3.44505 7.39568 3.74864C7.39788 4.3968 7.39623 5.04496 7.39678 5.69312C7.39678 5.74097 7.4009 5.78882 7.4031 5.84327C7.70642 5.84327 7.99379 5.83694 8.28061 5.84602C8.40545 5.84987 8.47283 5.81302 8.53058 5.69697C8.83087 5.09309 9.14106 4.49388 9.44961 3.89384C9.54255 3.71289 9.69298 3.6249 9.86677 3.6425C10.1646 3.67274 10.326 3.97469 10.1858 4.25518C9.94514 4.73614 9.6971 5.21353 9.45263 5.69257C9.43091 5.7352 9.41138 5.7792 9.38828 5.82787C9.41688 5.83557 9.42898 5.84162 9.44136 5.84162C9.95724 5.84244 10.4729 5.84519 10.9887 5.83804C11.0319 5.83749 11.0943 5.77672 11.1133 5.72997C11.5684 4.61157 12.0191 3.49125 12.4696 2.37092C12.5691 2.12343 12.5177 1.98841 12.2796 1.86906C11.6276 1.54237 10.9541 1.52834 10.2721 1.74999C9.70893 1.93313 9.15289 2.138 8.5908 2.32445C7.64042 2.63987 6.6752 2.69982 5.70942 2.4163C5.06731 2.22793 4.43675 1.99968 3.80316 1.78271C3.07663 1.53384 2.36357 1.52422 1.66674 1.88089C1.45967 1.98703 1.40384 2.1325 1.48937 2.3448C1.94503 3.47777 2.40317 4.60965 2.85746 5.74317C2.88771 5.81852 2.92676 5.84602 3.00843 5.84437C3.27297 5.83914 3.53779 5.84244 3.80261 5.84244C4.05726 5.84327 4.31135 5.84327 4.59019 5.84327Z" fill="#007DC5"/>
<path d="M6.98511 8.00912C7.69707 8.00912 8.40876 8.00857 9.12071 8.00939C9.46253 8.00967 9.64348 8.19061 9.64403 8.53298C9.64485 9.22652 9.64485 9.92005 9.64403 10.6139C9.64375 10.9441 9.45593 11.1341 9.12841 11.1344C7.7001 11.135 6.27178 11.135 4.84374 11.1344C4.5154 11.1341 4.32785 10.945 4.32757 10.6147C4.32675 9.91648 4.32675 9.21827 4.32757 8.52033C4.32812 8.19557 4.51265 8.01049 4.83604 8.00994C5.55212 8.00829 6.26875 8.00912 6.98511 8.00912ZM5.15971 8.8363C5.15971 9.33541 5.15971 9.82078 5.15971 10.3053C6.38315 10.3053 7.59587 10.3053 8.81382 10.3053C8.81382 9.8128 8.81382 9.32744 8.81382 8.8363C7.59285 8.8363 6.38013 8.8363 5.15971 8.8363Z" fill="#007DC5"/>
</svg>
