<svg width="66" height="34" viewBox="0 0 66 34" fill="none" xmlns="http://www.w3.org/2000/svg">
<g filter="url(#filter0_d_9002:67971)">
<rect x="2" y="1" width="62" height="30" rx="8" fill="#E7F3F9"/>
<path d="M26 20.6283C26 18.9572 26 17.2863 26 15.6152C26.2181 15.0448 26.6383 14.8045 27.2394 14.8408C27.4885 14.8556 27.7391 14.8433 28.0094 14.8433C27.9857 14.7811 27.9695 14.7357 27.9514 14.6909C27.5496 13.6932 27.1451 12.6969 26.7477 11.6973C26.6913 11.5552 26.6427 11.4006 26.6358 11.2499C26.6135 10.7613 26.8319 10.3952 27.2625 10.1673C28.1153 9.71574 29.006 9.67036 29.9154 9.95883C30.4579 10.131 30.9936 10.3262 31.5312 10.5135C32.4728 10.8418 33.4166 10.8594 34.3628 10.5377C34.9235 10.3471 35.4804 10.1442 36.0441 9.96268C36.9178 9.68164 37.7791 9.71106 38.6129 10.117C39.2786 10.4409 39.4972 11.0239 39.2192 11.7125C38.8186 12.7055 38.4184 13.699 38.0183 14.6923C38.0004 14.7371 37.9845 14.7825 37.9619 14.8433C38.2966 14.8433 38.6107 14.8402 38.925 14.8438C39.5418 14.851 39.9961 15.3044 39.9972 15.921C39.9997 17.3589 40.0024 18.7971 39.9964 20.2351C39.9917 21.37 39.0724 22.2953 37.9391 22.2972C34.6387 22.3025 31.3379 22.3019 28.0374 22.297C27.3777 22.2959 26.8401 22.0173 26.421 21.508C26.2084 21.249 26.0946 20.9435 26 20.6283ZM32.9994 15.6652C31.0453 15.6652 29.0912 15.6652 27.1374 15.6652C26.858 15.6652 26.7947 15.7298 26.7947 16.0136C26.7947 17.3878 26.7945 18.7622 26.7947 20.1363C26.795 20.9437 27.3263 21.4775 28.1301 21.4778C31.3671 21.478 34.604 21.478 37.841 21.4778C38.6445 21.4778 39.1766 20.9437 39.1769 20.1369C39.1771 18.7672 39.1769 17.3977 39.1769 16.0279C39.1769 15.7252 39.1183 15.6652 38.8208 15.6652C36.8801 15.6652 34.9398 15.6652 32.9994 15.6652ZM30.5902 14.8433C30.5558 14.7707 30.5357 14.7253 30.5132 14.681C30.2726 14.2102 30.0322 13.7392 29.7902 13.2692C29.7047 13.1034 29.7055 12.9431 29.8221 12.7946C30.0127 12.5517 30.3702 12.6012 30.5206 12.893C30.8363 13.5046 31.1471 14.1187 31.4627 14.7302C31.4853 14.7737 31.5301 14.8367 31.5659 14.8375C31.8975 14.8457 32.2294 14.8424 32.5745 14.8424C32.5745 14.7786 32.5745 14.7294 32.5745 14.6805C32.5745 14.037 32.5737 13.3932 32.5751 12.7497C32.5754 12.5429 32.6867 12.3851 32.8636 12.3309C33.138 12.2468 33.3946 12.445 33.3957 12.7486C33.3979 13.3968 33.3962 14.045 33.3968 14.6931C33.3968 14.741 33.4009 14.7888 33.4031 14.8433C33.7064 14.8433 33.9938 14.8369 34.2806 14.846C34.4055 14.8499 34.4728 14.813 34.5306 14.697C34.8309 14.0931 35.1411 13.4939 35.4496 12.8938C35.5426 12.7129 35.693 12.6249 35.8668 12.6425C36.1646 12.6727 36.326 12.9747 36.1858 13.2552C35.9451 13.7361 35.6971 14.2135 35.4526 14.6926C35.4309 14.7352 35.4114 14.7792 35.3883 14.8279C35.4169 14.8356 35.429 14.8416 35.4414 14.8416C35.9572 14.8424 36.4729 14.8452 36.9887 14.838C37.0319 14.8375 37.0943 14.7767 37.1133 14.73C37.5684 13.6116 38.0191 12.4912 38.4696 11.3709C38.5691 11.1234 38.5177 10.9884 38.2796 10.8691C37.6276 10.5424 36.9541 10.5283 36.2721 10.75C35.7089 10.9331 35.1529 11.138 34.5908 11.3245C33.6404 11.6399 32.6752 11.6998 31.7094 11.4163C31.0673 11.2279 30.4367 10.9997 29.8032 10.7827C29.0766 10.5338 28.3636 10.5242 27.6667 10.8809C27.4597 10.987 27.4038 11.1325 27.4894 11.3448C27.945 12.4778 28.4032 13.6096 28.8575 14.7432C28.8877 14.8185 28.9268 14.846 29.0084 14.8444C29.273 14.8391 29.5378 14.8424 29.8026 14.8424C30.0573 14.8433 30.3114 14.8433 30.5902 14.8433Z" fill="#007DC5"/>
<path d="M32.9851 17.0091C33.6971 17.0091 34.4088 17.0086 35.1207 17.0094C35.4625 17.0097 35.6435 17.1906 35.644 17.533C35.6449 18.2265 35.6449 18.9201 35.644 19.6139C35.6438 19.9441 35.4559 20.1341 35.1284 20.1344C33.7001 20.135 32.2718 20.135 30.8437 20.1344C30.5154 20.1341 30.3278 19.945 30.3276 19.6147C30.3267 18.9165 30.3267 18.2183 30.3276 17.5203C30.3281 17.1956 30.5126 17.0105 30.836 17.0099C31.5521 17.0083 32.2688 17.0091 32.9851 17.0091ZM31.1597 17.8363C31.1597 18.3354 31.1597 18.8208 31.1597 19.3053C32.3832 19.3053 33.5959 19.3053 34.8138 19.3053C34.8138 18.8128 34.8138 18.3274 34.8138 17.8363C33.5928 17.8363 32.3801 17.8363 31.1597 17.8363Z" fill="#007DC5"/>
</g>
<defs>
<filter id="filter0_d_9002:67971" x="0" y="0" width="66" height="34" filterUnits="userSpaceOnUse" color-interpolation-filters="sRGB">
<feFlood flood-opacity="0" result="BackgroundImageFix"/>
<feColorMatrix in="SourceAlpha" type="matrix" values="0 0 0 0 0 0 0 0 0 0 0 0 0 0 0 0 0 0 127 0" result="hardAlpha"/>
<feOffset dy="1"/>
<feGaussianBlur stdDeviation="1"/>
<feColorMatrix type="matrix" values="0 0 0 0 0 0 0 0 0 0 0 0 0 0 0 0 0 0 0.2 0"/>
<feBlend mode="normal" in2="BackgroundImageFix" result="effect1_dropShadow_9002:67971"/>
<feBlend mode="normal" in="SourceGraphic" in2="effect1_dropShadow_9002:67971" result="shape"/>
</filter>
</defs>
</svg>
