<svg width="22" height="21" viewBox="0 0 22 21" fill="none" xmlns="http://www.w3.org/2000/svg">
<path fill-rule="evenodd" clip-rule="evenodd" d="M17.0242 20.7852C16.853 20.7852 16.6808 20.746 16.5226 20.6656L10.9987 17.8472L5.47584 20.6656C5.10968 20.8508 4.66768 20.819 4.33618 20.5821C4.00251 20.3451 3.83676 19.9441 3.90718 19.5474L4.95909 13.5931L0.495759 9.37714C0.198926 9.09678 0.0916761 8.67571 0.218426 8.29061C0.345176 7.90763 0.684259 7.62727 1.09376 7.57014L7.26876 6.69414L10.0291 1.27101C10.3953 0.551591 11.6032 0.551591 11.9693 1.27101L14.7297 6.69414L20.9047 7.57014C21.3142 7.62727 21.6533 7.90763 21.78 8.29061C21.9068 8.67571 21.7995 9.09678 21.5027 9.37714L17.0393 13.5931L18.0913 19.5474C18.1617 19.9441 17.9948 20.3451 17.6623 20.5821C17.4738 20.7175 17.2495 20.7852 17.0242 20.7852Z" fill="#007DC5"/>
</svg>
