<svg width="46" height="47" viewBox="0 0 46 47" fill="none" xmlns="http://www.w3.org/2000/svg">
<circle cx="23" cy="23.4355" r="22.5" stroke="#8C8C8C"/>
<path d="M32.75 24.1855V33.1855C32.75 34.014 32.0784 34.6855 31.25 34.6855H14.75C13.9216 34.6855 13.25 34.014 13.25 33.1855V24.1855" stroke="#666666" stroke-width="1.4" stroke-linecap="round" stroke-linejoin="round"/>
<path fill-rule="evenodd" clip-rule="evenodd" d="M32.148 12.1855H13.852C13.5004 12.1855 13.1958 12.4294 13.119 12.7725L11.75 18.9355C11.75 20.1782 12.7574 21.1855 14 21.1855C15.2426 21.1855 16.25 20.1782 16.25 18.9355C16.25 20.1782 17.2574 21.1855 18.5 21.1855C19.7426 21.1855 20.75 20.1782 20.75 18.9355C20.75 20.1782 21.7574 21.1855 23 21.1855C24.2426 21.1855 25.25 20.1782 25.25 18.9355C25.25 20.1782 26.2574 21.1855 27.5 21.1855C28.7426 21.1855 29.75 20.1782 29.75 18.9355C29.75 20.1782 30.7574 21.1855 32 21.1855C33.2426 21.1855 34.25 20.1782 34.25 18.9355L32.88 12.7725C32.804 12.4294 32.4995 12.1852 32.148 12.1855Z" stroke="#666666" stroke-width="1.4" stroke-linecap="round" stroke-linejoin="round"/>
<path d="M13.25 28.6855H26" stroke="#666666" stroke-width="1.4" stroke-linecap="round" stroke-linejoin="round"/>
<path d="M26 34.6855V24.1855" stroke="#666666" stroke-width="1.4" stroke-linecap="round" stroke-linejoin="round"/>
</svg>
