<svg width="353" height="100" viewBox="0 0 333 90" fill="none" xmlns="http://www.w3.org/2000/svg">
<path fill-rule="evenodd" clip-rule="evenodd" d="M10 0C4.47715 0 0 4.47715 0 10V35C5.52285 35 10 39.4772 10 45C10 50.5228 5.52285 55 0 55V80C0 85.5229 4.47715 90 10 90H181C186.523 90 191 85.5229 191 80V10C191 4.47715 186.523 0 181 0H10Z" fill="url(#paint0_linear)"/>
<path fill-rule="evenodd" clip-rule="evenodd" d="M322 90C327.523 90 332 85.5229 332 80V54C326.477 54 322 49.5229 322 44C322 38.4772 326.477 34 332 34V10C332 4.47715 327.523 -4.82823e-07 322 0L201 1.05782e-05C195.477 1.1061e-05 191 4.47717 191 10L191 80C191 85.5229 195.477 90 201 90L322 90Z" fill="url(#paint1_linear)"/>
<path opacity="0.3" fill-rule="evenodd" clip-rule="evenodd" d="M259.548 3.71774e-07L251.042 0L239.426 13.5524H232.582C232.545 13.5524 232.507 13.5531 232.47 13.5544C229.099 13.671 225.964 15.317 223.954 18.0263C221.953 20.7233 221.283 24.1813 222.131 27.429L233.429 74.9881C234.509 79.8924 238.813 83.4182 243.837 83.5095C243.856 83.5099 243.876 83.5101 243.895 83.5101H317.301C317.321 83.5101 317.341 83.5099 317.36 83.5095C322.384 83.4182 326.688 79.8922 327.768 74.9878L332.76 53.9715C332.509 53.9904 332.256 54 332 54C329.971 54 328.083 53.3957 326.507 52.3573L321.478 73.5237C321.477 73.53 321.475 73.5363 321.474 73.5426C321.471 73.5568 321.467 73.571 321.464 73.5853C321.033 75.572 319.298 77.0039 317.268 77.0524H243.929C241.899 77.0039 240.163 75.572 239.732 73.5853L239.724 73.5481L239.718 73.5237L228.405 25.8987C228.398 25.8711 228.391 25.8436 228.384 25.8162C228.023 24.4557 228.301 23.0046 229.14 21.8741C229.969 20.7566 231.257 20.0726 232.645 20.0101H240.89H240.929H320.268H320.307H328.552C329.909 20.0712 331.17 20.7259 332 21.7988V14.1683C330.958 13.8039 329.855 13.5934 328.727 13.5544C328.689 13.5531 328.652 13.5524 328.615 13.5524H321.771L310.155 2.58388e-06L301.649 2.21211e-06L313.266 13.5524H247.931L259.548 3.71774e-07ZM330.852 34.0652L332 29.2325V34C331.612 34 331.229 34.0221 330.852 34.0652ZM260.015 32.6563C260.015 30.873 258.569 29.4274 256.786 29.4274C255.003 29.4274 253.557 30.873 253.557 32.6563V64.4063C253.557 66.1895 255.003 67.6351 256.786 67.6351C258.569 67.6351 260.015 66.1895 260.015 64.4063V32.6563ZM283.827 32.6563C283.827 30.873 282.382 29.4274 280.598 29.4274C278.815 29.4274 277.37 30.873 277.37 32.6563V64.4063C277.37 66.1895 278.815 67.6351 280.598 67.6351C282.382 67.6351 283.827 66.1895 283.827 64.4063V32.6563ZM307.64 32.6563C307.64 30.873 306.194 29.4274 304.411 29.4274C302.628 29.4274 301.182 30.873 301.182 32.6563V64.4063C301.182 66.1895 302.628 67.6351 304.411 67.6351C306.194 67.6351 307.64 66.1895 307.64 64.4063V32.6563Z" fill="white"/>
<path opacity="0.5" d="M191 10C191 11.6696 191 58.6957 191 82" stroke="white" stroke-width="2" stroke-dasharray="4 4"/>
<defs>
<linearGradient id="paint0_linear" x1="191" y1="90" x2="-20.8086" y2="73.3674" gradientUnits="userSpaceOnUse">
<stop stop-color="#F17103"/>
<stop offset="0.916667" stop-color="#FFB500"/>
</linearGradient>
<linearGradient id="paint1_linear" x1="646.5" y1="162" x2="219.6" y2="218.006" gradientUnits="userSpaceOnUse">
<stop stop-color="#FFB500"/>
<stop offset="0.559499" stop-color="#F17103"/>
<stop offset="0.996568" stop-color="#F17103"/>
</linearGradient>
</defs>
</svg>
