<svg width="46" height="47" viewBox="0 0 46 47" fill="none" xmlns="http://www.w3.org/2000/svg">
<circle cx="23" cy="23.4355" r="22.5" stroke="#8C8C8C"/>
<circle cx="16.5" cy="31.5605" r="1.625" stroke="#666666" stroke-width="1.4" stroke-linecap="round" stroke-linejoin="round"/>
<circle cx="30.3125" cy="31.5605" r="1.625" stroke="#666666" stroke-width="1.4" stroke-linecap="round" stroke-linejoin="round"/>
<path d="M21.375 26.6855H35.1875V29.9355C35.1875 30.833 34.46 31.5605 33.5625 31.5605H31.9375" stroke="#666666" stroke-width="1.4" stroke-linecap="round" stroke-linejoin="round"/>
<path d="M21.375 31.5605H28.6875" stroke="#666666" stroke-width="1.4" stroke-linecap="round" stroke-linejoin="round"/>
<path d="M10.8125 28.3105H12.9326" stroke="#666666" stroke-width="1.4" stroke-linecap="round" stroke-linejoin="round"/>
<path d="M14.875 31.5605H12.4375C11.54 31.5605 10.8125 30.833 10.8125 29.9355V25.3476C10.8128 24.6834 11.2174 24.0863 11.8341 23.8396L14.875 22.623L15.6875 16.9355H21.375V31.5605H18.125" stroke="#666666" stroke-width="1.4" stroke-linecap="round" stroke-linejoin="round"/>
<path d="M14.875 22.623H21.375" stroke="#666666" stroke-width="1.4" stroke-linecap="round" stroke-linejoin="round"/>
<path fill-rule="evenodd" clip-rule="evenodd" d="M21.375 13.6855H34.1042C34.7025 13.6855 35.1875 14.1706 35.1875 14.7689V26.6855H21.375V13.6855Z" stroke="#666666" stroke-width="1.4" stroke-linecap="round" stroke-linejoin="round"/>
<path fill-rule="evenodd" clip-rule="evenodd" d="M15.1458 13.6855H21.375V16.9355H14.0625V14.7689C14.0625 14.1706 14.5475 13.6855 15.1458 13.6855Z" stroke="#666666" stroke-width="1.4" stroke-linecap="round" stroke-linejoin="round"/>
</svg>
