<svg width="14" height="14" viewBox="0 0 14 14" fill="none" xmlns="http://www.w3.org/2000/svg">
<path fill-rule="evenodd" clip-rule="evenodd" d="M12.7793 6.27767H7.7793V1.27767C7.7793 0.816836 7.40596 0.444336 6.94596 0.444336C6.48596 0.444336 6.11263 0.816836 6.11263 1.27767V6.27767H1.11263C0.65263 6.27767 0.279297 6.65017 0.279297 7.111C0.279297 7.57184 0.65263 7.94434 1.11263 7.94434H6.11263V12.9443C6.11263 13.4052 6.48596 13.7777 6.94596 13.7777C7.40596 13.7777 7.7793 13.4052 7.7793 12.9443V7.94434H12.7793C13.2393 7.94434 13.6126 7.57184 13.6126 7.111C13.6126 6.65017 13.2393 6.27767 12.7793 6.27767Z" fill="#007DC5"/>
</svg>
