<svg width="13" height="12" viewBox="0 0 13 12" fill="none" xmlns="http://www.w3.org/2000/svg">
<path fill-rule="evenodd" clip-rule="evenodd" d="M10.1866 11.3298C10.0931 11.3298 9.99893 11.3079 9.91249 11.2629L6.89334 9.68552L3.87479 11.2629C3.67466 11.3665 3.43308 11.3487 3.25189 11.2161C3.06953 11.0835 2.97893 10.8591 3.01742 10.637L3.59235 7.30467L1.15288 4.94513C0.990644 4.78822 0.932025 4.55256 1.0013 4.33704C1.07058 4.1227 1.25591 3.96579 1.47972 3.93381L4.85472 3.44355L6.36341 0.408419C6.56354 0.00578741 7.22374 0.00578741 7.42387 0.408419L8.93255 3.44355L12.3076 3.93381C12.5314 3.96579 12.7167 4.1227 12.786 4.33704C12.8552 4.55256 12.7966 4.78822 12.6344 4.94513L10.1949 7.30467L10.7699 10.637C10.8083 10.8591 10.7172 11.0835 10.5354 11.2161C10.4324 11.2919 10.3098 11.3298 10.1866 11.3298Z" fill="#D9D9D9"/>
</svg>
