<svg width="12" height="12" viewBox="0 0 12 12" fill="none" xmlns="http://www.w3.org/2000/svg">
<path fill-rule="evenodd" clip-rule="evenodd" d="M9.2921 11.3298C9.19855 11.3298 9.1044 11.3079 9.01795 11.2629L5.99881 9.68552L2.98026 11.2629C2.78013 11.3665 2.53855 11.3487 2.35736 11.2161C2.17499 11.0835 2.0844 10.8591 2.12289 10.637L2.69782 7.30467L0.258349 4.94513C0.0961125 4.78822 0.0374941 4.55256 0.10677 4.33704C0.176047 4.1227 0.361376 3.96579 0.585191 3.93381L3.96019 3.44355L5.46888 0.408419C5.66901 0.00578741 6.3292 0.00578741 6.52934 0.408419L8.03802 3.44355L11.413 3.93381C11.6368 3.96579 11.8222 4.1227 11.8914 4.33704C11.9607 4.55256 11.9021 4.78822 11.7399 4.94513L9.30039 7.30467L9.87532 10.637C9.91381 10.8591 9.82263 11.0835 9.64085 11.2161C9.53782 11.2919 9.41526 11.3298 9.2921 11.3298Z" fill="#007DC5"/>
</svg>
