<svg width="25" height="24" viewBox="0 0 25 24" fill="none" xmlns="http://www.w3.org/2000/svg">
<path d="M5.31481 13.042L1.25781 18L5.00781 18.75L6.50781 23.25L10.4518 16.992" stroke="#666666" stroke-width="1.2" stroke-linecap="round" stroke-linejoin="round"/>
<path d="M19.7015 13.042L23.7585 18L20.0085 18.75L18.5085 23.25L14.5645 16.992" stroke="#666666" stroke-width="1.2" stroke-linecap="round" stroke-linejoin="round"/>
<path fill-rule="evenodd" clip-rule="evenodd" d="M12.5078 17.25C17.0642 17.25 20.7578 13.5563 20.7578 9C20.7578 4.44365 17.0642 0.75 12.5078 0.75C7.95146 0.75 4.25781 4.44365 4.25781 9C4.25781 13.5563 7.95146 17.25 12.5078 17.25Z" stroke="#666666" stroke-width="1.2" stroke-linecap="round" stroke-linejoin="round"/>
<path fill-rule="evenodd" clip-rule="evenodd" d="M13.0391 4.29187L14.2871 6.74987H16.4141C16.6537 6.74401 16.8724 6.88569 16.9651 7.10678C17.0577 7.32787 17.0053 7.58314 16.8331 7.74987L14.8801 9.66786L15.9621 12.1529C16.0599 12.3863 15.9977 12.656 15.8076 12.823C15.6175 12.99 15.3419 13.0169 15.1231 12.8899L12.5081 11.4189L9.89309 12.8899C9.67426 13.0169 9.39872 12.99 9.2086 12.823C9.01848 12.656 8.95629 12.3863 9.05409 12.1529L10.1361 9.66786L8.18309 7.74587C8.01085 7.57914 7.95846 7.32387 8.05109 7.10278C8.14373 6.88169 8.36245 6.74001 8.60209 6.74587H10.7291L11.9781 4.29187C12.082 4.09521 12.2862 3.97217 12.5086 3.97217C12.731 3.97217 12.9352 4.09521 13.0391 4.29187Z" stroke="#666666" stroke-width="1.2" stroke-linecap="round" stroke-linejoin="round"/>
</svg>
