<svg width="23" height="22" viewBox="0 0 23 22" fill="none" xmlns="http://www.w3.org/2000/svg">
<path d="M8.95532 17.6914C8.41838 18.2282 7.548 18.2282 7.01107 17.6914L2.08032 12.7598C1.54354 12.2228 1.54354 11.3524 2.08032 10.8155L11.7053 1.19142C11.9632 0.933258 12.313 0.788164 12.6779 0.788086H17.6077C18.3671 0.788086 18.9827 1.40369 18.9827 2.16309V7.09292C18.9831 7.45797 18.8384 7.80821 18.5803 8.06642" stroke="#666666" stroke-width="1.5" stroke-linecap="round" stroke-linejoin="round"/>
<path d="M15.5449 3.88184C15.3551 3.88184 15.2012 4.03574 15.2012 4.22559C15.2012 4.41543 15.3551 4.56934 15.5449 4.56934C15.7348 4.56934 15.8887 4.41543 15.8887 4.22559C15.8887 4.03574 15.7348 3.88184 15.5449 3.88184V3.88184" stroke="#666666" stroke-width="1.5" stroke-linecap="round" stroke-linejoin="round"/>
<path fill-rule="evenodd" clip-rule="evenodd" d="M16.2319 21.2097L11.5449 16.3165C10.7008 15.4726 10.4914 14.1831 11.0252 13.1155V13.1155C11.4238 12.3182 12.1815 11.7611 13.0614 11.6183C13.9413 11.4756 14.8362 11.7646 15.4664 12.395L16.2319 13.1604L16.9982 12.395C17.6284 11.7646 18.5233 11.4756 19.4033 11.6183C20.2832 11.7611 21.0408 12.3182 21.4394 13.1155V13.1155C21.9732 14.1831 21.7638 15.4726 20.9197 16.3165L16.2319 21.2097Z" stroke="#666666" stroke-width="1.5" stroke-linecap="round" stroke-linejoin="round"/>
</svg>
