<svg width="23" height="24" viewBox="0 0 23 24" fill="none" xmlns="http://www.w3.org/2000/svg">
<path d="M21.0176 16.811V12.686H16.8926" stroke="#666666" stroke-width="1.4" stroke-linecap="round" stroke-linejoin="round"/>
<path d="M21.0176 12.686L16.3884 17.317C15.8519 17.8533 15.0646 18.0522 14.3378 17.835L9.10091 16.4343C8.38943 16.2444 7.63067 16.4481 7.10991 16.9687L1.76758 22.3147" stroke="#666666" stroke-width="1.4" stroke-linecap="round" stroke-linejoin="round"/>
<path d="M11.3918 5.81445H9.52826C8.93919 5.81486 8.43308 6.23281 8.3213 6.81118C8.20952 7.38955 8.52343 7.96598 9.06992 8.18587L10.9619 8.94212C11.5097 9.16124 11.8248 9.73839 11.7128 10.3176C11.6009 10.8969 11.0936 11.3151 10.5036 11.3145H8.64184" stroke="#666666" stroke-width="1.4" stroke-linecap="round" stroke-linejoin="round"/>
<path d="M10.0176 5.81445V5.12695" stroke="#666666" stroke-width="1.4" stroke-linecap="round" stroke-linejoin="round"/>
<path d="M10.0176 12.002V11.3145" stroke="#666666" stroke-width="1.4" stroke-linecap="round" stroke-linejoin="round"/>
<path d="M16.7569 9.92575C17.4314 6.58798 15.5609 3.25937 12.3591 2.09984C9.1574 0.940315 5.58926 2.29929 3.97007 5.29494C2.35089 8.29058 3.16859 12.0202 5.89258 14.0636" stroke="#666666" stroke-width="1.4" stroke-linecap="round" stroke-linejoin="round"/>
</svg>
