<svg width="18" height="18" viewBox="0 0 18 18" fill="none" xmlns="http://www.w3.org/2000/svg">
<path fill-rule="evenodd" clip-rule="evenodd" d="M9 17C13.4183 17 17 13.4183 17 9C17 4.58172 13.4183 1 9 1C4.58172 1 1 4.58172 1 9C1 13.4183 4.58172 17 9 17Z" stroke="#007DC5" stroke-width="1.2" stroke-linecap="round" stroke-linejoin="round"/>
<path fill-rule="evenodd" clip-rule="evenodd" d="M13.2659 7.4002H10.5992V4.73353C10.5992 4.43898 10.3604 4.2002 10.0659 4.2002H7.93255C7.638 4.2002 7.39922 4.43898 7.39922 4.73353V7.4002H4.73255C4.438 7.4002 4.19922 7.63898 4.19922 7.93353V10.0669C4.19922 10.3614 4.438 10.6002 4.73255 10.6002H7.39922V13.2669C7.39922 13.5614 7.638 13.8002 7.93255 13.8002H10.0659C10.3604 13.8002 10.5992 13.5614 10.5992 13.2669V10.6002H13.2659C13.5604 10.6002 13.7992 10.3614 13.7992 10.0669V7.93353C13.7992 7.63898 13.5604 7.4002 13.2659 7.4002Z" stroke="#007DC5" stroke-width="1.2" stroke-linecap="round" stroke-linejoin="round"/>
</svg>
