<svg width="16" height="18" viewBox="0 0 16 18" fill="none" xmlns="http://www.w3.org/2000/svg">
<path fill-rule="evenodd" clip-rule="evenodd" d="M3.16602 2.24854C3.16602 1.83432 3.5018 1.49854 3.91602 1.49854H12.416C12.8302 1.49854 13.166 1.83432 13.166 2.24854V3.74854C13.166 4.16275 12.8302 4.49854 12.416 4.49854H3.91602C3.5018 4.49854 3.16602 4.16275 3.16602 3.74854V2.24854Z" stroke="#007DC5" stroke-width="1.2" stroke-linecap="round" stroke-linejoin="round"/>
<path d="M8.16602 4.49854V13.4985" stroke="#007DC5" stroke-width="1.2" stroke-linecap="round" stroke-linejoin="round"/>
<path d="M3.16602 13.4985V10.4985C3.16602 9.94625 3.61373 9.49854 4.16602 9.49854H12.166C12.7183 9.49854 13.166 9.94625 13.166 10.4985V13.4985" stroke="#007DC5" stroke-width="1.2" stroke-linecap="round" stroke-linejoin="round"/>
<path fill-rule="evenodd" clip-rule="evenodd" d="M3.16602 16.4985C3.99444 16.4985 4.66601 15.827 4.66601 14.9985C4.66601 14.1701 3.99444 13.4985 3.16602 13.4985C2.33759 13.4985 1.66602 14.1701 1.66602 14.9985C1.66602 15.827 2.33759 16.4985 3.16602 16.4985Z" stroke="#007DC5" stroke-width="1.2" stroke-linecap="round" stroke-linejoin="round"/>
<path fill-rule="evenodd" clip-rule="evenodd" d="M8.16602 16.4985C8.99444 16.4985 9.66602 15.827 9.66602 14.9985C9.66602 14.1701 8.99444 13.4985 8.16602 13.4985C7.33759 13.4985 6.66602 14.1701 6.66602 14.9985C6.66602 15.827 7.33759 16.4985 8.16602 16.4985Z" stroke="#007DC5" stroke-width="1.2" stroke-linecap="round" stroke-linejoin="round"/>
<path fill-rule="evenodd" clip-rule="evenodd" d="M13.166 16.4985C13.9944 16.4985 14.666 15.827 14.666 14.9985C14.666 14.1701 13.9944 13.4985 13.166 13.4985C12.3376 13.4985 11.666 14.1701 11.666 14.9985C11.666 15.827 12.3376 16.4985 13.166 16.4985Z" stroke="#007DC5" stroke-width="1.2" stroke-linecap="round" stroke-linejoin="round"/>
</svg>
