<svg width="22" height="22" viewBox="0 0 22 22" fill="none" xmlns="http://www.w3.org/2000/svg">
<path fill-rule="evenodd" clip-rule="evenodd" d="M17.2988 19.5312C18.7486 19.5312 19.9238 18.356 19.9238 16.9062C19.9238 15.4565 18.7486 14.2812 17.2988 14.2812C15.8491 14.2812 14.6738 15.4565 14.6738 16.9062C14.6738 18.356 15.8491 19.5312 17.2988 19.5312Z" stroke="#666666" stroke-width="1.4" stroke-linecap="round" stroke-linejoin="round"/>
<path fill-rule="evenodd" clip-rule="evenodd" d="M5.48633 7.71875C6.93608 7.71875 8.11133 6.5435 8.11133 5.09375C8.11133 3.644 6.93608 2.46875 5.48633 2.46875C4.03658 2.46875 2.86133 3.644 2.86133 5.09375C2.86133 6.5435 4.03658 7.71875 5.48633 7.71875Z" stroke="#666666" stroke-width="1.4" stroke-linecap="round" stroke-linejoin="round"/>
<path fill-rule="evenodd" clip-rule="evenodd" d="M3.78985 20.1874C3.61573 20.188 3.44867 20.1186 3.3261 19.9949L2.39773 19.0666C2.2744 18.9437 2.20508 18.7769 2.20508 18.6028C2.20508 18.4288 2.2744 18.2619 2.39773 18.1391L18.5327 2.00406C18.7891 1.74865 19.2038 1.74865 19.4602 2.00406L20.3886 2.93244C20.6432 3.18954 20.6432 3.6037 20.3886 3.86081L4.2536 19.9949C4.13104 20.1186 3.96398 20.188 3.78985 20.1874Z" stroke="#666666" stroke-width="1.4" stroke-linecap="round" stroke-linejoin="round"/>
</svg>
