<svg width="23" height="24" viewBox="0 0 23 24" fill="none" xmlns="http://www.w3.org/2000/svg">
<path d="M21.0176 18.1875V22.3125H16.8926" stroke="#666666" stroke-width="1.4" stroke-linecap="round" stroke-linejoin="round"/>
<path d="M21.0176 22.3123L16.3884 17.6831C15.8519 17.1468 15.0646 16.948 14.3378 17.1652L9.10091 18.564C8.38959 18.7545 7.63067 18.5512 7.10991 18.0305L1.76758 12.6836" stroke="#666666" stroke-width="1.4" stroke-linecap="round" stroke-linejoin="round"/>
<path d="M3.27766 9.92721C2.60317 6.58944 4.47368 3.26083 7.67542 2.10131C10.8772 0.94178 14.4453 2.30076 16.0645 5.2964C17.6837 8.29205 16.866 12.0216 14.142 14.065" stroke="#666666" stroke-width="1.4" stroke-linecap="round" stroke-linejoin="round"/>
<path d="M11.3918 5.81592H9.52826C8.93919 5.81633 8.43308 6.23428 8.3213 6.81265C8.20952 7.39101 8.52343 7.96745 9.06992 8.18733L10.9619 8.94358C11.5097 9.16271 11.8248 9.73985 11.7128 10.3191C11.6009 10.8984 11.0936 11.3166 10.5036 11.3159H8.64184" stroke="#666666" stroke-width="1.4" stroke-linecap="round" stroke-linejoin="round"/>
<path d="M10.0176 5.81592V5.12842" stroke="#666666" stroke-width="1.4" stroke-linecap="round" stroke-linejoin="round"/>
<path d="M10.0176 12.0034V11.3159" stroke="#666666" stroke-width="1.4" stroke-linecap="round" stroke-linejoin="round"/>
</svg>
