<svg width="17" height="17" viewBox="0 0 17 17" fill="none" xmlns="http://www.w3.org/2000/svg">
<path fill-rule="evenodd" clip-rule="evenodd" d="M8.5 15.9375C12.6076 15.9375 15.9375 12.6076 15.9375 8.5C15.9375 4.39238 12.6076 1.0625 8.5 1.0625C4.39238 1.0625 1.0625 4.39238 1.0625 8.5C1.0625 12.6076 4.39238 15.9375 8.5 15.9375Z" stroke="#007DC5" stroke-width="1.2" stroke-linecap="round" stroke-linejoin="round"/>
<path d="M10.6248 5.31233H7.64204C7.29827 5.28489 6.95976 5.40955 6.71591 5.65341C6.47205 5.89726 6.34739 6.23577 6.37483 6.57954C6.37483 7.96858 10.6248 9.03108 10.6248 10.4201C10.631 10.7581 10.4995 11.084 10.2605 11.323C10.0215 11.562 9.69558 11.6935 9.35762 11.6873H6.37483" stroke="#007DC5" stroke-width="1.2" stroke-linecap="round" stroke-linejoin="round"/>
<path d="M8.5 5.3125V3.71875" stroke="#007DC5" stroke-width="1.2" stroke-linecap="round" stroke-linejoin="round"/>
<path d="M8.5 13.2812V11.6875" stroke="#007DC5" stroke-width="1.2" stroke-linecap="round" stroke-linejoin="round"/>
</svg>
