<svg width="23" height="24" viewBox="0 0 23 24" fill="none" xmlns="http://www.w3.org/2000/svg">
<circle cx="11.3047" cy="12" r="10.3125" stroke="#3376B8" stroke-width="1.4" stroke-linecap="round" stroke-linejoin="round"/>
<path d="M7.96875 15.3375L14.7741 8.53125" stroke="#3376B8" stroke-width="1.4" stroke-linecap="round" stroke-linejoin="round"/>
<path d="M8.21094 8.42969C8.40079 8.42969 8.55469 8.58359 8.55469 8.77344C8.55469 8.96329 8.40079 9.11719 8.21094 9.11719C8.02109 9.11719 7.86719 8.96329 7.86719 8.77344C7.86719 8.58359 8.02109 8.42969 8.21094 8.42969" stroke="#3376B8" stroke-width="1.4" stroke-linecap="round" stroke-linejoin="round"/>
<path d="M14.5312 14.75C14.7211 14.75 14.875 14.9039 14.875 15.0938C14.875 15.2836 14.7211 15.4375 14.5312 15.4375C14.3414 15.4375 14.1875 15.2836 14.1875 15.0938C14.1875 14.9039 14.3414 14.75 14.5312 14.75" stroke="#3376B8" stroke-width="1.4" stroke-linecap="round" stroke-linejoin="round"/>
</svg>
