<svg width="15" height="15" viewBox="0 0 15 15" fill="none" xmlns="http://www.w3.org/2000/svg">
<path fill-rule="evenodd" clip-rule="evenodd" d="M2.10612 3.31641H7.64779C7.80887 3.31641 7.93945 3.44177 7.93945 3.59641V13.3964H1.81445V3.59641C1.81445 3.44177 1.94504 3.31641 2.10612 3.31641Z" stroke="#666666" stroke-width="0.9" stroke-linecap="round" stroke-linejoin="round"/>
<path fill-rule="evenodd" clip-rule="evenodd" d="M3.85612 1.63672H5.89779C6.05887 1.63672 6.18945 1.76208 6.18945 1.91672V3.31672H3.56445V1.91672C3.56445 1.76208 3.69504 1.63672 3.85612 1.63672Z" stroke="#666666" stroke-width="0.9" stroke-linecap="round" stroke-linejoin="round"/>
<path d="M3.56445 4.99609H6.18945" stroke="#666666" stroke-width="0.9" stroke-linecap="round" stroke-linejoin="round"/>
<path d="M3.56445 6.67773H6.18945" stroke="#666666" stroke-width="0.9" stroke-linecap="round" stroke-linejoin="round"/>
<path d="M3.56445 8.35742H6.18945" stroke="#666666" stroke-width="0.9" stroke-linecap="round" stroke-linejoin="round"/>
<path d="M3.56445 10.0371H6.18945" stroke="#666666" stroke-width="0.9" stroke-linecap="round" stroke-linejoin="round"/>
<path d="M3.56445 11.7168H6.18945" stroke="#666666" stroke-width="0.9" stroke-linecap="round" stroke-linejoin="round"/>
<path d="M5.31445 0.796875V1.63687" stroke="#666666" stroke-width="0.9" stroke-linecap="round" stroke-linejoin="round"/>
<path d="M9.68945 13.3959H13.1895V6.25594C13.1895 6.02398 12.9936 5.83594 12.752 5.83594H10.127C9.88533 5.83594 9.68945 6.02398 9.68945 6.25594V13.3959" stroke="#666666" stroke-width="0.9" stroke-linecap="round" stroke-linejoin="round"/>
<path d="M12.3145 4.99609V5.83609" stroke="#666666" stroke-width="0.9" stroke-linecap="round" stroke-linejoin="round"/>
<path d="M0.939453 13.3965H14.0645" stroke="#666666" stroke-width="0.9" stroke-linecap="round" stroke-linejoin="round"/>
</svg>
