<svg width="15" height="15" viewBox="0 0 15 15" fill="none" xmlns="http://www.w3.org/2000/svg">
<path fill-rule="evenodd" clip-rule="evenodd" d="M7.5 7.37695C8.70812 7.37695 9.6875 6.39758 9.6875 5.18945C9.6875 3.98133 8.70812 3.00195 7.5 3.00195C6.29188 3.00195 5.3125 3.98133 5.3125 5.18945C5.3125 6.39758 6.29188 7.37695 7.5 7.37695Z" stroke="#666666" stroke-linecap="round" stroke-linejoin="round"/>
<path fill-rule="evenodd" clip-rule="evenodd" d="M7.5 0.814453C9.91625 0.814453 11.875 2.77321 11.875 5.18945C11.875 7.17687 8.91517 12.1603 7.86458 13.744C7.78353 13.8662 7.64664 13.9397 7.5 13.9397C7.35336 13.9397 7.21647 13.8662 7.13542 13.744C6.08483 12.1603 3.125 7.17687 3.125 5.18945C3.125 2.77321 5.08375 0.814453 7.5 0.814453Z" stroke="#666666" stroke-linecap="round" stroke-linejoin="round"/>
</svg>
