<svg width="16" height="15" viewBox="0 0 16 15" fill="none" xmlns="http://www.w3.org/2000/svg">
<path fill-rule="evenodd" clip-rule="evenodd" d="M2.60417 3.31641H8.14583C8.30692 3.31641 8.4375 3.44177 8.4375 3.59641V13.3964H2.3125V3.59641C2.3125 3.44177 2.44308 3.31641 2.60417 3.31641Z" stroke="#F9F9F9" stroke-width="0.9" stroke-linecap="round" stroke-linejoin="round"/>
<path fill-rule="evenodd" clip-rule="evenodd" d="M4.35417 1.63672H6.39583C6.55692 1.63672 6.6875 1.76208 6.6875 1.91672V3.31672H4.0625V1.91672C4.0625 1.76208 4.19308 1.63672 4.35417 1.63672Z" stroke="#F9F9F9" stroke-width="0.9" stroke-linecap="round" stroke-linejoin="round"/>
<path d="M4.0625 4.99609H6.6875" stroke="#F9F9F9" stroke-width="0.9" stroke-linecap="round" stroke-linejoin="round"/>
<path d="M4.0625 6.67773H6.6875" stroke="#F9F9F9" stroke-width="0.9" stroke-linecap="round" stroke-linejoin="round"/>
<path d="M4.0625 8.35742H6.6875" stroke="#F9F9F9" stroke-width="0.9" stroke-linecap="round" stroke-linejoin="round"/>
<path d="M4.0625 10.0371H6.6875" stroke="#F9F9F9" stroke-width="0.9" stroke-linecap="round" stroke-linejoin="round"/>
<path d="M4.0625 11.7168H6.6875" stroke="#F9F9F9" stroke-width="0.9" stroke-linecap="round" stroke-linejoin="round"/>
<path d="M5.8125 0.796875V1.63687" stroke="#F9F9F9" stroke-width="0.9" stroke-linecap="round" stroke-linejoin="round"/>
<path d="M10.1875 13.3959H13.6875V6.25594C13.6875 6.02398 13.4916 5.83594 13.25 5.83594H10.625C10.3834 5.83594 10.1875 6.02398 10.1875 6.25594V13.3959" stroke="#F9F9F9" stroke-width="0.9" stroke-linecap="round" stroke-linejoin="round"/>
<path d="M12.8125 4.99609V5.83609" stroke="#F9F9F9" stroke-width="0.9" stroke-linecap="round" stroke-linejoin="round"/>
<path d="M1.4375 13.3965H14.5625" stroke="#F9F9F9" stroke-width="0.9" stroke-linecap="round" stroke-linejoin="round"/>
</svg>
