<svg width="15" height="15" viewBox="0 0 15 15" fill="none" xmlns="http://www.w3.org/2000/svg">
<path fill-rule="evenodd" clip-rule="evenodd" d="M7.6875 7.37695C8.89562 7.37695 9.875 6.39758 9.875 5.18945C9.875 3.98133 8.89562 3.00195 7.6875 3.00195C6.47938 3.00195 5.5 3.98133 5.5 5.18945C5.5 6.39758 6.47938 7.37695 7.6875 7.37695Z" stroke="#F9F9F9" stroke-linecap="round" stroke-linejoin="round"/>
<path fill-rule="evenodd" clip-rule="evenodd" d="M7.6875 0.814453C10.1037 0.814453 12.0625 2.77321 12.0625 5.18945C12.0625 7.17687 9.10267 12.1603 8.05208 13.744C7.97103 13.8662 7.83414 13.9397 7.6875 13.9397C7.54086 13.9397 7.40397 13.8662 7.32292 13.744C6.27233 12.1603 3.3125 7.17687 3.3125 5.18945C3.3125 2.77321 5.27125 0.814453 7.6875 0.814453Z" stroke="#F9F9F9" stroke-linecap="round" stroke-linejoin="round"/>
</svg>
