<svg width="22" height="15" viewBox="0 0 22 15" fill="none" xmlns="http://www.w3.org/2000/svg">
<g clip-path="url(#clip0)">
<path d="M13.9758 1.94922H8.02734V12.9548H13.9758V1.94922Z" fill="#FF5100"/>
<path d="M8.40343 7.45117C8.40343 5.21506 9.42317 3.23173 10.9906 1.9484C9.83862 1.01506 8.38455 0.451172 6.79828 0.451172C3.04034 0.451172 0 3.58173 0 7.45117C0 11.3206 3.04034 14.4512 6.79828 14.4512C8.38455 14.4512 9.83862 13.8873 10.9906 12.9539C9.42317 11.6901 8.40343 9.68728 8.40343 7.45117Z" fill="#ED1D24"/>
<path d="M21.9983 7.45117C21.9983 11.3206 18.958 14.4512 15.2001 14.4512C13.6138 14.4512 12.1597 13.8873 11.0078 12.9539C12.5941 11.6706 13.5949 9.68728 13.5949 7.45117C13.5949 5.21506 12.5752 3.23173 11.0078 1.9484C12.1597 1.01506 13.6138 0.451172 15.2001 0.451172C18.958 0.451172 21.9983 3.60117 21.9983 7.45117Z" fill="#FFB500"/>
</g>
<defs>
<clipPath id="clip0">
<rect width="22" height="14" fill="white" transform="translate(0 0.451172)"/>
</clipPath>
</defs>
</svg>
