<svg width="72" height="54" viewBox="0 0 72 54" fill="none" xmlns="http://www.w3.org/2000/svg">
<path d="M7.26562 47.8032C7.16016 48.7056 6.82617 49.4028 6.26367 49.895C5.70508 50.3833 4.96094 50.6274 4.03125 50.6274C3.02344 50.6274 2.21484 50.2661 1.60547 49.5435C1 48.8208 0.697266 47.854 0.697266 46.6431V45.8228C0.697266 45.0298 0.837891 44.3325 1.11914 43.731C1.4043 43.1294 1.80664 42.6685 2.32617 42.3481C2.8457 42.0239 3.44727 41.8618 4.13086 41.8618C5.03711 41.8618 5.76367 42.1157 6.31055 42.6235C6.85742 43.1274 7.17578 43.8267 7.26562 44.7212H6.13477C6.03711 44.0415 5.82422 43.5493 5.49609 43.2446C5.17188 42.9399 4.7168 42.7876 4.13086 42.7876C3.41211 42.7876 2.84766 43.0532 2.4375 43.5845C2.03125 44.1157 1.82812 44.8716 1.82812 45.8521V46.6782C1.82812 47.604 2.02148 48.3403 2.4082 48.8872C2.79492 49.4341 3.33594 49.7075 4.03125 49.7075C4.65625 49.7075 5.13477 49.5669 5.4668 49.2856C5.80273 49.0005 6.02539 48.5063 6.13477 47.8032H7.26562ZM8.34961 47.2817C8.34961 46.6606 8.4707 46.1021 8.71289 45.606C8.95898 45.1099 9.29883 44.7271 9.73242 44.4575C10.1699 44.188 10.668 44.0532 11.2266 44.0532C12.0898 44.0532 12.7871 44.3521 13.3184 44.9497C13.8535 45.5474 14.1211 46.3423 14.1211 47.3345V47.4106C14.1211 48.0278 14.002 48.5825 13.7637 49.0747C13.5293 49.563 13.1914 49.9438 12.75 50.2173C12.3125 50.4907 11.8086 50.6274 11.2383 50.6274C10.3789 50.6274 9.68164 50.3286 9.14648 49.731C8.61523 49.1333 8.34961 48.3423 8.34961 47.3579V47.2817ZM9.43945 47.4106C9.43945 48.1138 9.60156 48.6782 9.92578 49.104C10.2539 49.5298 10.6914 49.7427 11.2383 49.7427C11.7891 49.7427 12.2266 49.5278 12.5508 49.0981C12.875 48.6646 13.0371 48.0591 13.0371 47.2817C13.0371 46.5864 12.8711 46.0239 12.5391 45.5942C12.2109 45.1606 11.7734 44.9438 11.2266 44.9438C10.6914 44.9438 10.2598 45.1567 9.93164 45.5825C9.60352 46.0083 9.43945 46.6177 9.43945 47.4106ZM16.5059 44.1704L16.541 44.9673C17.0254 44.3579 17.6582 44.0532 18.4395 44.0532C19.7793 44.0532 20.4551 44.8091 20.4668 46.3208V50.5103H19.3828V46.3149C19.3789 45.8579 19.2734 45.52 19.0664 45.3013C18.8633 45.0825 18.5449 44.9731 18.1113 44.9731C17.7598 44.9731 17.4512 45.0669 17.1855 45.2544C16.9199 45.4419 16.7129 45.688 16.5645 45.9927V50.5103H15.4805V44.1704H16.5059ZM24.1934 49.0396L25.7637 44.1704H26.8711L24.5977 50.5103H23.7715L21.4746 44.1704H22.582L24.1934 49.0396ZM30.4629 50.6274C29.6035 50.6274 28.9043 50.3462 28.3652 49.7837C27.8262 49.2173 27.5566 48.4614 27.5566 47.5161V47.3169C27.5566 46.688 27.6758 46.1274 27.9141 45.6353C28.1562 45.1392 28.4922 44.7524 28.9219 44.4751C29.3555 44.1938 29.8242 44.0532 30.3281 44.0532C31.1523 44.0532 31.793 44.3247 32.25 44.8677C32.707 45.4106 32.9355 46.188 32.9355 47.1997V47.6509H28.6406C28.6562 48.2759 28.8379 48.7817 29.1855 49.1685C29.5371 49.5513 29.9824 49.7427 30.5215 49.7427C30.9043 49.7427 31.2285 49.6646 31.4941 49.5083C31.7598 49.3521 31.9922 49.145 32.1914 48.8872L32.8535 49.4028C32.3223 50.2192 31.5254 50.6274 30.4629 50.6274ZM30.3281 44.9438C29.8906 44.9438 29.5234 45.104 29.2266 45.4243C28.9297 45.7407 28.7461 46.186 28.6758 46.7603H31.8516V46.6782C31.8203 46.1274 31.6719 45.7017 31.4062 45.4009C31.1406 45.0962 30.7812 44.9438 30.3281 44.9438ZM35.2207 44.1704L35.2559 44.9673C35.7402 44.3579 36.373 44.0532 37.1543 44.0532C38.4941 44.0532 39.1699 44.8091 39.1816 46.3208V50.5103H38.0977V46.3149C38.0938 45.8579 37.9883 45.52 37.7812 45.3013C37.5781 45.0825 37.2598 44.9731 36.8262 44.9731C36.4746 44.9731 36.166 45.0669 35.9004 45.2544C35.6348 45.4419 35.4277 45.688 35.2793 45.9927V50.5103H34.1953V44.1704H35.2207ZM41.9941 50.5103H40.9102V44.1704H41.9941V50.5103ZM40.8223 42.4888C40.8223 42.313 40.875 42.1646 40.9805 42.0435C41.0898 41.9224 41.25 41.8618 41.4609 41.8618C41.6719 41.8618 41.832 41.9224 41.9414 42.0435C42.0508 42.1646 42.1055 42.313 42.1055 42.4888C42.1055 42.6646 42.0508 42.811 41.9414 42.9282C41.832 43.0454 41.6719 43.104 41.4609 43.104C41.25 43.104 41.0898 43.0454 40.9805 42.9282C40.875 42.811 40.8223 42.6646 40.8223 42.4888ZM46.3652 50.6274C45.5059 50.6274 44.8066 50.3462 44.2676 49.7837C43.7285 49.2173 43.459 48.4614 43.459 47.5161V47.3169C43.459 46.688 43.5781 46.1274 43.8164 45.6353C44.0586 45.1392 44.3945 44.7524 44.8242 44.4751C45.2578 44.1938 45.7266 44.0532 46.2305 44.0532C47.0547 44.0532 47.6953 44.3247 48.1523 44.8677C48.6094 45.4106 48.8379 46.188 48.8379 47.1997V47.6509H44.543C44.5586 48.2759 44.7402 48.7817 45.0879 49.1685C45.4395 49.5513 45.8848 49.7427 46.4238 49.7427C46.8066 49.7427 47.1309 49.6646 47.3965 49.5083C47.6621 49.3521 47.8945 49.145 48.0938 48.8872L48.7559 49.4028C48.2246 50.2192 47.4277 50.6274 46.3652 50.6274ZM46.2305 44.9438C45.793 44.9438 45.4258 45.104 45.1289 45.4243C44.832 45.7407 44.6484 46.186 44.5781 46.7603H47.7539V46.6782C47.7227 46.1274 47.5742 45.7017 47.3086 45.4009C47.043 45.0962 46.6836 44.9438 46.2305 44.9438ZM48 43.1157V43.1743H47.1035L46.2246 42.1782L45.3516 43.1743H44.4551V43.104L45.8965 41.5103H46.5527L48 43.1157ZM51.123 44.1704L51.1582 44.9673C51.6426 44.3579 52.2754 44.0532 53.0566 44.0532C54.3965 44.0532 55.0723 44.8091 55.084 46.3208V50.5103H54V46.3149C53.9961 45.8579 53.8906 45.52 53.6836 45.3013C53.4805 45.0825 53.1621 44.9731 52.7285 44.9731C52.377 44.9731 52.0684 45.0669 51.8027 45.2544C51.5371 45.4419 51.3301 45.688 51.1816 45.9927V50.5103H50.0977V44.1704H51.123ZM59.2617 49.7427C59.6484 49.7427 59.9863 49.6255 60.2754 49.3911C60.5645 49.1567 60.7246 48.8638 60.7559 48.5122H61.7812C61.7617 48.8755 61.6367 49.2212 61.4062 49.5493C61.1758 49.8774 60.8672 50.1392 60.4805 50.3345C60.0977 50.5298 59.6914 50.6274 59.2617 50.6274C58.3984 50.6274 57.7109 50.3403 57.1992 49.7661C56.6914 49.188 56.4375 48.3989 56.4375 47.3989V47.2173C56.4375 46.6001 56.5508 46.0513 56.7773 45.5708C57.0039 45.0903 57.3281 44.7173 57.75 44.4517C58.1758 44.186 58.6777 44.0532 59.2559 44.0532C59.9668 44.0532 60.5566 44.2661 61.0254 44.6919C61.498 45.1177 61.75 45.6704 61.7812 46.3501H60.7559C60.7246 45.9399 60.5684 45.604 60.2871 45.3423C60.0098 45.0767 59.666 44.9438 59.2559 44.9438C58.7051 44.9438 58.2773 45.1431 57.9727 45.5415C57.6719 45.936 57.5215 46.5083 57.5215 47.2583V47.4634C57.5215 48.1938 57.6719 48.7563 57.9727 49.1509C58.2734 49.5454 58.7031 49.7427 59.2617 49.7427ZM64.1777 50.5103H63.0938V44.1704H64.1777V50.5103ZM63.0059 42.4888C63.0059 42.313 63.0586 42.1646 63.1641 42.0435C63.2734 41.9224 63.4336 41.8618 63.6445 41.8618C63.8555 41.8618 64.0156 41.9224 64.125 42.0435C64.2344 42.1646 64.2891 42.313 64.2891 42.4888C64.2891 42.6646 64.2344 42.811 64.125 42.9282C64.0156 43.0454 63.8555 43.104 63.6445 43.104C63.4336 43.104 63.2734 43.0454 63.1641 42.9282C63.0586 42.811 63.0059 42.6646 63.0059 42.4888ZM69.832 50.5103C69.7695 50.3853 69.7188 50.1626 69.6797 49.8423C69.1758 50.3657 68.5742 50.6274 67.875 50.6274C67.25 50.6274 66.7363 50.4517 66.334 50.1001C65.9355 49.7446 65.7363 49.2954 65.7363 48.7524C65.7363 48.0923 65.9863 47.5806 66.4863 47.2173C66.9902 46.8501 67.6973 46.6665 68.6074 46.6665H69.6621V46.1685C69.6621 45.7896 69.5488 45.4888 69.3223 45.2661C69.0957 45.0396 68.7617 44.9263 68.3203 44.9263C67.9336 44.9263 67.6094 45.0239 67.3477 45.2192C67.0859 45.4146 66.9551 45.6509 66.9551 45.9282H65.8652C65.8652 45.6118 65.9766 45.3071 66.1992 45.0142C66.4258 44.7173 66.7305 44.4829 67.1133 44.311C67.5 44.1392 67.9238 44.0532 68.3848 44.0532C69.1152 44.0532 69.6875 44.2368 70.1016 44.604C70.5156 44.9673 70.7305 45.4692 70.7461 46.1099V49.0278C70.7461 49.6099 70.8203 50.0728 70.9688 50.4165V50.5103H69.832ZM68.0332 49.6841C68.373 49.6841 68.6953 49.5962 69 49.4204C69.3047 49.2446 69.5254 49.0161 69.6621 48.7349V47.4341H68.8125C67.4844 47.4341 66.8203 47.8228 66.8203 48.6001C66.8203 48.9399 66.9336 49.2056 67.1602 49.397C67.3867 49.5884 67.6777 49.6841 68.0332 49.6841Z" fill="#8C8C8C"/>
<path fill-rule="evenodd" clip-rule="evenodd" d="M30.2415 29.5728H22.064C21.5245 29.5726 21.0112 29.3401 20.6553 28.9347C20.2995 28.5293 20.1354 27.9902 20.2052 27.4553L22.5277 9.64275C22.6496 8.70859 23.4456 8.00988 24.3877 8.01025H25.7827C26.7243 8.01051 27.5197 8.70906 27.6415 9.64275L30.2415 29.5728Z" stroke="#8C8C8C" stroke-width="1.5" stroke-linecap="round" stroke-linejoin="round"/>
<path d="M36.8047 8.01025H43.5959C44.5375 8.01051 45.3329 8.70906 45.4547 9.64275L47.7784 27.4553C47.8482 27.9904 47.6841 28.5297 47.3279 28.9352C46.9717 29.3406 46.4581 29.573 45.9184 29.5728H30.2422" stroke="#8C8C8C" stroke-width="1.5" stroke-linecap="round" stroke-linejoin="round"/>
<path d="M25.7832 8.01025H33.992" stroke="#8C8C8C" stroke-width="1.5" stroke-linecap="round" stroke-linejoin="round"/>
<path d="M41.4922 13.6353V5.19775C41.4922 3.85801 40.7774 2.62003 39.6172 1.95016C38.4569 1.28029 37.0274 1.28029 35.8672 1.95016C34.7069 2.62003 33.9922 3.85801 33.9922 5.19775V13.6353" stroke="#8C8C8C" stroke-width="1.5" stroke-linecap="round" stroke-linejoin="round"/>
<path d="M30.9734 2.07666C29.9292 2.77336 29.3028 3.94634 29.3047 5.20166V8.01041" stroke="#8C8C8C" stroke-width="1.5" stroke-linecap="round" stroke-linejoin="round"/>
</svg>
