<svg width="55" height="63" viewBox="0 0 55 63" fill="none" xmlns="http://www.w3.org/2000/svg">
<path fill-rule="evenodd" clip-rule="evenodd" d="M14.1222 14.3906H40.8778C41.2214 14.3906 41.5 14.6692 41.5 15.0128V24.9684C41.5 26.343 40.3857 27.4573 39.0111 27.4573H15.9889C14.6143 27.4573 13.5 26.343 13.5 24.9684V15.0128C13.5 14.6692 13.7786 14.3906 14.1222 14.3906Z" stroke="white" stroke-width="1.5" stroke-linecap="round" stroke-linejoin="round"/>
<path fill-rule="evenodd" clip-rule="evenodd" d="M18.4808 10.6567H36.5252C37.2125 10.6567 37.7697 11.2139 37.7697 11.9012V14.3901H17.2363V11.9012C17.2363 11.2139 17.7935 10.6567 18.4808 10.6567Z" stroke="white" stroke-width="1.5" stroke-linecap="round" stroke-linejoin="round"/>
<path d="M19.0996 10.6563C19.0996 7.85632 20.9663 5.05632 23.7663 5.05632H29.3663C31.2974 5.1 33.0448 3.91727 33.7218 2.10823C33.841 1.79449 34.1204 1.56964 34.4523 1.52033C34.7843 1.47103 35.117 1.60497 35.3222 1.87054C38.9945 6.78983 35.8996 10.6588 35.8996 10.6588" stroke="white" stroke-width="1.5" stroke-linecap="round" stroke-linejoin="round"/>
<path fill-rule="evenodd" clip-rule="evenodd" d="M19.0996 18.125H35.8996V23.725H19.0996V18.125Z" stroke="white" stroke-width="1.5" stroke-linecap="round" stroke-linejoin="round"/>
<path d="M1.02652 45.3105V37.4902H3.23404C3.91438 37.4902 4.51594 37.6406 5.03873 37.9414C5.56152 38.2422 5.96435 38.6701 6.24723 39.2251C6.53369 39.7801 6.6787 40.4175 6.68229 41.1372V41.6367C6.68229 42.3743 6.53906 43.0207 6.2526 43.5757C5.96972 44.1307 5.56331 44.5568 5.03336 44.854C4.50699 45.1512 3.8929 45.3034 3.19107 45.3105H1.02652ZM2.05777 38.3389V44.4673H3.14273C3.93766 44.4673 4.55533 44.2202 4.99576 43.7261C5.43977 43.2319 5.66178 42.5283 5.66178 41.6152V41.1587C5.66178 40.2707 5.4523 39.5814 5.03336 39.0908C4.61799 38.5967 4.02717 38.346 3.2609 38.3389H2.05777ZM10.6661 45.418C9.87837 45.418 9.23742 45.1602 8.74328 44.6445C8.24914 44.1253 8.00207 43.4325 8.00207 42.5659V42.3833C8.00207 41.8068 8.11128 41.293 8.32971 40.8418C8.55171 40.387 8.85966 40.0326 9.25354 39.7783C9.651 39.5205 10.0807 39.3916 10.5426 39.3916C11.2981 39.3916 11.8854 39.6405 12.3043 40.1382C12.7233 40.6359 12.9327 41.3485 12.9327 42.2759V42.6895H8.99572C9.01005 43.2624 9.17655 43.7261 9.49523 44.0806C9.8175 44.4315 10.2257 44.6069 10.7198 44.6069C11.0708 44.6069 11.368 44.5353 11.6114 44.3921C11.8549 44.2489 12.068 44.0591 12.2506 43.8228L12.8575 44.2954C12.3706 45.0438 11.6401 45.418 10.6661 45.418ZM10.5426 40.208C10.1416 40.208 9.80497 40.3548 9.53283 40.6484C9.2607 40.9385 9.0924 41.3467 9.02795 41.873H11.9391V41.7979C11.9104 41.293 11.7744 40.9027 11.5309 40.627C11.2874 40.3477 10.958 40.208 10.5426 40.208ZM17.0616 40.3906C16.9112 40.3656 16.7483 40.353 16.5728 40.353C15.9211 40.353 15.4789 40.6305 15.2462 41.1855V45.3105H14.2525V39.499H15.2193L15.2354 40.1704C15.5613 39.6512 16.0232 39.3916 16.6212 39.3916C16.8145 39.3916 16.9613 39.4167 17.0616 39.4668V40.3906ZM19.0796 39.499L19.1065 40.1436C19.5326 39.6423 20.1073 39.3916 20.8306 39.3916C21.6434 39.3916 22.1967 39.7031 22.4903 40.3262C22.6836 40.0469 22.9343 39.8213 23.2422 39.6494C23.5538 39.4775 23.9208 39.3916 24.3433 39.3916C25.618 39.3916 26.2662 40.0666 26.2876 41.4165V45.3105H25.294V41.4756C25.294 41.0602 25.1991 40.7505 25.0093 40.5464C24.8195 40.3387 24.5009 40.2349 24.0533 40.2349C23.6844 40.2349 23.3783 40.3459 23.1348 40.5679C22.8913 40.7863 22.7499 41.0817 22.7105 41.4541V45.3105H21.7115V41.5024C21.7115 40.6574 21.2979 40.2349 20.4707 40.2349C19.8191 40.2349 19.3732 40.5124 19.1333 41.0674V45.3105H18.1397V39.499H19.0796ZM27.6934 42.3511C27.6934 41.7817 27.8044 41.2697 28.0264 40.8149C28.252 40.3602 28.5635 40.0093 28.9609 39.7622C29.362 39.5151 29.8185 39.3916 30.3306 39.3916C31.1219 39.3916 31.7611 39.6655 32.248 40.2134C32.7386 40.7612 32.9839 41.4899 32.9839 42.3994V42.4692C32.9839 43.035 32.8747 43.5435 32.6562 43.9946C32.4414 44.4422 32.1317 44.7913 31.7271 45.042C31.326 45.2926 30.8641 45.418 30.3413 45.418C29.5535 45.418 28.9144 45.144 28.4238 44.5962C27.9368 44.0483 27.6934 43.3232 27.6934 42.4209V42.3511ZM28.6924 42.4692C28.6924 43.1138 28.841 43.6312 29.1382 44.0215C29.439 44.4118 29.84 44.6069 30.3413 44.6069C30.8462 44.6069 31.2472 44.41 31.5444 44.0161C31.8416 43.6187 31.9902 43.0636 31.9902 42.3511C31.9902 41.7137 31.8381 41.1981 31.5337 40.8042C31.2329 40.4067 30.8319 40.208 30.3306 40.208C29.84 40.208 29.4443 40.4032 29.1436 40.7935C28.8428 41.1838 28.6924 41.7424 28.6924 42.4692ZM36.726 44.6069C37.0805 44.6069 37.3903 44.4995 37.6552 44.2847C37.9202 44.0698 38.067 43.8013 38.0957 43.479H39.0356C39.0177 43.812 38.9031 44.1289 38.6919 44.4297C38.4806 44.7305 38.1977 44.9704 37.8432 45.1494C37.4923 45.3285 37.1199 45.418 36.726 45.418C35.9347 45.418 35.3045 45.1548 34.8354 44.6284C34.3699 44.0985 34.1372 43.3752 34.1372 42.4585V42.292C34.1372 41.7262 34.241 41.2231 34.4487 40.7827C34.6564 40.3423 34.9536 40.0003 35.3403 39.7568C35.7306 39.5133 36.1907 39.3916 36.7207 39.3916C37.3724 39.3916 37.913 39.5868 38.3427 39.9771C38.776 40.3674 39.007 40.874 39.0356 41.4971H38.0957C38.067 41.1211 37.9238 40.8132 37.666 40.5732C37.4117 40.3298 37.0966 40.208 36.7207 40.208C36.2158 40.208 35.8237 40.3906 35.5444 40.7559C35.2687 41.1175 35.1308 41.6421 35.1308 42.3296V42.5176C35.1308 43.1872 35.2687 43.7028 35.5444 44.0645C35.8201 44.4261 36.214 44.6069 36.726 44.6069ZM40.0546 42.3511C40.0546 41.7817 40.1656 41.2697 40.3876 40.8149C40.6132 40.3602 40.9247 40.0093 41.3222 39.7622C41.7232 39.5151 42.1798 39.3916 42.6918 39.3916C43.4832 39.3916 44.1223 39.6655 44.6093 40.2134C45.0999 40.7612 45.3451 41.4899 45.3451 42.3994V42.4692C45.3451 43.035 45.2359 43.5435 45.0175 43.9946C44.8027 44.4422 44.4929 44.7913 44.0883 45.042C43.6873 45.2926 43.2253 45.418 42.7026 45.418C41.9148 45.418 41.2756 45.144 40.7851 44.5962C40.2981 44.0483 40.0546 43.3232 40.0546 42.4209V42.3511ZM41.0536 42.4692C41.0536 43.1138 41.2022 43.6312 41.4994 44.0215C41.8002 44.4118 42.2013 44.6069 42.7026 44.6069C43.2074 44.6069 43.6085 44.41 43.9057 44.0161C44.2029 43.6187 44.3515 43.0636 44.3515 42.3511C44.3515 41.7137 44.1993 41.1981 43.8949 40.8042C43.5942 40.4067 43.1931 40.208 42.6918 40.208C42.2013 40.208 41.8056 40.4032 41.5048 40.7935C41.204 41.1838 41.0536 41.7424 41.0536 42.4692ZM50.14 43.769C50.14 43.5005 50.038 43.2928 49.8339 43.146C49.6333 42.9956 49.2806 42.8667 48.7758 42.7593C48.2745 42.6519 47.8752 42.5229 47.578 42.3726C47.2844 42.2222 47.066 42.0431 46.9227 41.8354C46.7831 41.6278 46.7133 41.3807 46.7133 41.0942C46.7133 40.618 46.9138 40.2152 47.3148 39.8857C47.7194 39.5563 48.2351 39.3916 48.8617 39.3916C49.5206 39.3916 50.0541 39.5617 50.4623 39.9019C50.8741 40.242 51.08 40.6771 51.08 41.207H50.0809C50.0809 40.9349 49.9646 40.7004 49.7318 40.5034C49.5026 40.3065 49.2126 40.208 48.8617 40.208C48.5 40.208 48.2172 40.2868 48.0131 40.4443C47.809 40.6019 47.7069 40.8078 47.7069 41.062C47.7069 41.3019 47.8018 41.4827 47.9916 41.6045C48.1814 41.7262 48.5233 41.8426 49.0175 41.9536C49.5152 42.0646 49.918 42.1971 50.226 42.3511C50.5339 42.505 50.7613 42.6912 50.9081 42.9097C51.0585 43.1245 51.1337 43.3877 51.1337 43.6992C51.1337 44.2184 50.926 44.6356 50.5106 44.9507C50.0953 45.2622 49.5564 45.418 48.8939 45.418C48.4284 45.418 48.0166 45.3356 47.6586 45.1709C47.3005 45.0062 47.0194 44.777 46.8153 44.4834C46.6148 44.1862 46.5145 43.8657 46.5145 43.522H47.5082C47.5261 43.855 47.6586 44.12 47.9056 44.3169C48.1563 44.5103 48.4857 44.6069 48.8939 44.6069C49.2699 44.6069 49.5707 44.5317 49.7963 44.3813C50.0254 44.2274 50.14 44.0233 50.14 43.769ZM54.661 42.394H52.0399V41.583H54.661V42.394ZM8.9635 53.499L8.99035 54.1436C9.41646 53.6423 9.99116 53.3916 10.7145 53.3916C11.5273 53.3916 12.0805 53.7031 12.3741 54.3262C12.5675 54.0469 12.8182 53.8213 13.1261 53.6494C13.4376 53.4775 13.8046 53.3916 14.2272 53.3916C15.5019 53.3916 16.15 54.0666 16.1715 55.4165V59.3105H15.1779V55.4756C15.1779 55.0602 15.083 54.7505 14.8932 54.5464C14.7034 54.3387 14.3847 54.2349 13.9371 54.2349C13.5683 54.2349 13.2622 54.3459 13.0187 54.5679C12.7752 54.7863 12.6337 55.0817 12.5944 55.4541V59.3105H11.5953V55.5024C11.5953 54.6574 11.1818 54.2349 10.3546 54.2349C9.70292 54.2349 9.25712 54.5124 9.01721 55.0674V59.3105H8.02355V53.499H8.9635ZM20.252 59.418C19.4643 59.418 18.8233 59.1602 18.3292 58.6445C17.835 58.1253 17.588 57.4325 17.588 56.5659V56.3833C17.588 55.8068 17.6972 55.293 17.9156 54.8418C18.1376 54.387 18.4456 54.0326 18.8394 53.7783C19.2369 53.5205 19.6666 53.3916 20.1285 53.3916C20.884 53.3916 21.4713 53.6405 21.8902 54.1382C22.3092 54.6359 22.5186 55.3485 22.5186 56.2759V56.6895H18.5816C18.5959 57.2624 18.7624 57.7261 19.0811 58.0806C19.4034 58.4315 19.8116 58.6069 20.3057 58.6069C20.6567 58.6069 20.9539 58.5353 21.1973 58.3921C21.4408 58.2489 21.6539 58.0591 21.8365 57.8228L22.4434 58.2954C21.9565 59.0438 21.226 59.418 20.252 59.418ZM20.1285 54.208C19.7275 54.208 19.3909 54.3548 19.1187 54.6484C18.8466 54.9385 18.6783 55.3467 18.6138 55.873H21.525V55.7979C21.4963 55.293 21.3603 54.9027 21.1168 54.627C20.8733 54.3477 20.5439 54.208 20.1285 54.208ZM20.6119 51.0605H21.815L20.3756 52.6396H19.5753L20.6119 51.0605ZM25.1866 52.0918V53.499H26.2715V54.2671H25.1866V57.8711C25.1866 58.1038 25.2349 58.2793 25.3316 58.3975C25.4283 58.512 25.593 58.5693 25.8257 58.5693C25.9403 58.5693 26.0979 58.5479 26.2984 58.5049V59.3105C26.037 59.3822 25.7828 59.418 25.5357 59.418C25.0917 59.418 24.7569 59.2837 24.5313 59.0151C24.3057 58.7466 24.1929 58.3652 24.1929 57.8711V54.2671H23.1348V53.499H24.1929V52.0918H25.1866ZM28.6816 59.3105H27.688V53.499H28.6816V59.3105ZM27.6074 51.9575C27.6074 51.7964 27.6558 51.6603 27.7524 51.5493C27.8527 51.4383 27.9995 51.3828 28.1929 51.3828C28.3862 51.3828 28.533 51.4383 28.6333 51.5493C28.7336 51.6603 28.7837 51.7964 28.7837 51.9575C28.7837 52.1187 28.7336 52.2529 28.6333 52.3604C28.533 52.4678 28.3862 52.5215 28.1929 52.5215C27.9995 52.5215 27.8527 52.4678 27.7524 52.3604C27.6558 52.2529 27.6074 52.1187 27.6074 51.9575ZM32.7729 58.6069C33.1274 58.6069 33.4371 58.4995 33.7021 58.2847C33.9671 58.0698 34.1139 57.8013 34.1425 57.479H35.0825C35.0646 57.812 34.95 58.1289 34.7387 58.4297C34.5275 58.7305 34.2446 58.9704 33.8901 59.1494C33.5392 59.3285 33.1668 59.418 32.7729 59.418C31.9816 59.418 31.3514 59.1548 30.8823 58.6284C30.4168 58.0985 30.184 57.3752 30.184 56.4585V56.292C30.184 55.7262 30.2879 55.2231 30.4956 54.7827C30.7032 54.3423 31.0004 54.0003 31.3872 53.7568C31.7775 53.5133 32.2376 53.3916 32.7675 53.3916C33.4192 53.3916 33.9599 53.5868 34.3896 53.9771C34.8229 54.3674 35.0538 54.874 35.0825 55.4971H34.1425C34.1139 55.1211 33.9707 54.8132 33.7129 54.5732C33.4586 54.3298 33.1435 54.208 32.7675 54.208C32.2627 54.208 31.8706 54.3906 31.5913 54.7559C31.3156 55.1175 31.1777 55.6421 31.1777 56.3296V56.5176C31.1777 57.1872 31.3156 57.7028 31.5913 58.0645C31.867 58.4261 32.2609 58.6069 32.7729 58.6069ZM36.1015 56.3511C36.1015 55.7817 36.2125 55.2697 36.4345 54.8149C36.6601 54.3602 36.9716 54.0093 37.3691 53.7622C37.7701 53.5151 38.2266 53.3916 38.7387 53.3916C39.53 53.3916 40.1692 53.6655 40.6562 54.2134C41.1467 54.7612 41.392 55.4899 41.392 56.3994V56.4692C41.392 57.035 41.2828 57.5435 41.0644 57.9946C40.8495 58.4422 40.5398 58.7913 40.1352 59.042C39.7341 59.2926 39.2722 59.418 38.7494 59.418C37.9617 59.418 37.3225 59.144 36.832 58.5962C36.345 58.0483 36.1015 57.3232 36.1015 56.4209V56.3511ZM37.1005 56.4692C37.1005 57.1138 37.2491 57.6312 37.5463 58.0215C37.8471 58.4118 38.2481 58.6069 38.7494 58.6069C39.2543 58.6069 39.6554 58.41 39.9526 58.0161C40.2498 57.6187 40.3984 57.0636 40.3984 56.3511C40.3984 55.7137 40.2462 55.1981 39.9418 54.8042C39.641 54.4067 39.24 54.208 38.7387 54.208C38.2481 54.208 37.8525 54.4032 37.5517 54.7935C37.2509 55.1838 37.1005 55.7424 37.1005 56.4692ZM46.1869 57.769C46.1869 57.5005 46.0848 57.2928 45.8807 57.146C45.6802 56.9956 45.3275 56.8667 44.8226 56.7593C44.3213 56.6519 43.9221 56.5229 43.6249 56.3726C43.3313 56.2222 43.1128 56.0431 42.9696 55.8354C42.83 55.6278 42.7601 55.3807 42.7601 55.0942C42.7601 54.618 42.9607 54.2152 43.3617 53.8857C43.7663 53.5563 44.2819 53.3916 44.9086 53.3916C45.5674 53.3916 46.101 53.5617 46.5092 53.9019C46.9209 54.242 47.1268 54.6771 47.1268 55.207H46.1278C46.1278 54.9349 46.0114 54.7004 45.7787 54.5034C45.5495 54.3065 45.2595 54.208 44.9086 54.208C44.5469 54.208 44.264 54.2868 44.0599 54.4443C43.8558 54.6019 43.7538 54.8078 43.7538 55.062C43.7538 55.3019 43.8487 55.4827 44.0385 55.6045C44.2282 55.7262 44.5702 55.8426 45.0643 55.9536C45.5621 56.0646 45.9649 56.1971 46.2728 56.3511C46.5808 56.505 46.8082 56.6912 46.955 56.9097C47.1054 57.1245 47.1805 57.3877 47.1805 57.6992C47.1805 58.2184 46.9729 58.6356 46.5575 58.9507C46.1421 59.2622 45.6032 59.418 44.9408 59.418C44.4753 59.418 44.0635 59.3356 43.7055 59.1709C43.3474 59.0062 43.0663 58.777 42.8622 58.4834C42.6617 58.1862 42.5614 57.8657 42.5614 57.522H43.5551C43.573 57.855 43.7055 58.12 43.9525 58.3169C44.2032 58.5103 44.5326 58.6069 44.9408 58.6069C45.3168 58.6069 45.6176 58.5317 45.8431 58.3813C46.0723 58.2274 46.1869 58.0233 46.1869 57.769Z" fill="white"/>
</svg>
