<svg width="49" height="65" viewBox="0 0 49 65" fill="none" xmlns="http://www.w3.org/2000/svg">
<path d="M5.74607 43.7427H2.16599V47.5103H1.04099V38.979H6.32614V39.9048H2.16599V42.8228H5.74607V43.7427ZM8.68161 47.5103H7.59763V41.1704H8.68161V47.5103ZM7.50974 39.4888C7.50974 39.313 7.56247 39.1646 7.66794 39.0435C7.77732 38.9224 7.93747 38.8618 8.14841 38.8618C8.35935 38.8618 8.5195 38.9224 8.62888 39.0435C8.73825 39.1646 8.79294 39.313 8.79294 39.4888C8.79294 39.6646 8.73825 39.811 8.62888 39.9282C8.5195 40.0454 8.35935 40.104 8.14841 40.104C7.93747 40.104 7.77732 40.0454 7.66794 39.9282C7.56247 39.811 7.50974 39.6646 7.50974 39.4888ZM11.8925 39.6353V41.1704H13.0761V42.0083H11.8925V45.9399C11.8925 46.1938 11.9453 46.3853 12.0508 46.5142C12.1562 46.6392 12.3359 46.7017 12.5898 46.7017C12.7148 46.7017 12.8867 46.6782 13.1054 46.6313V47.5103C12.8203 47.5884 12.5429 47.6274 12.2734 47.6274C11.789 47.6274 11.4238 47.481 11.1777 47.188C10.9316 46.895 10.8086 46.479 10.8086 45.9399V42.0083H9.65427V41.1704H10.8086V39.6353H11.8925ZM15.373 41.1704L15.4082 41.9673C15.8925 41.3579 16.5254 41.0532 17.3066 41.0532C18.6465 41.0532 19.3222 41.8091 19.334 43.3208V47.5103H18.25V43.3149C18.2461 42.8579 18.1406 42.52 17.9336 42.3013C17.7304 42.0825 17.4121 41.9731 16.9785 41.9731C16.6269 41.9731 16.3183 42.0669 16.0527 42.2544C15.7871 42.4419 15.58 42.688 15.4316 42.9927V47.5103H14.3476V41.1704H15.373ZM23.5996 47.6274C22.7402 47.6274 22.041 47.3462 21.5019 46.7837C20.9629 46.2173 20.6933 45.4614 20.6933 44.5161V44.3169C20.6933 43.688 20.8125 43.1274 21.0508 42.6353C21.2929 42.1392 21.6289 41.7524 22.0586 41.4751C22.4922 41.1938 22.9609 41.0532 23.4648 41.0532C24.289 41.0532 24.9297 41.3247 25.3867 41.8677C25.8437 42.4106 26.0722 43.188 26.0722 44.1997V44.6509H21.7773C21.7929 45.2759 21.9746 45.7817 22.3222 46.1685C22.6738 46.5513 23.1191 46.7427 23.6582 46.7427C24.041 46.7427 24.3652 46.6646 24.6308 46.5083C24.8965 46.3521 25.1289 46.145 25.3281 45.8872L25.9902 46.4028C25.459 47.2192 24.6621 47.6274 23.5996 47.6274ZM23.4648 41.9438C23.0273 41.9438 22.6601 42.104 22.3633 42.4243C22.0664 42.7407 21.8828 43.186 21.8125 43.7603H24.9883V43.6782C24.957 43.1274 24.8086 42.7017 24.5429 42.4009C24.2773 42.0962 23.9179 41.9438 23.4648 41.9438ZM31.0234 45.8286C31.0234 45.5356 30.9121 45.3091 30.6894 45.1489C30.4707 44.9849 30.0859 44.8442 29.5351 44.7271C28.9883 44.6099 28.5527 44.4692 28.2285 44.3052C27.9082 44.1411 27.6699 43.9458 27.5136 43.7192C27.3613 43.4927 27.2851 43.2231 27.2851 42.9106C27.2851 42.3911 27.5039 41.9517 27.9414 41.5923C28.3828 41.2329 28.9453 41.0532 29.6289 41.0532C30.3476 41.0532 30.9297 41.2388 31.375 41.6099C31.8242 41.981 32.0488 42.4556 32.0488 43.0337H30.959C30.959 42.7368 30.832 42.481 30.5781 42.2661C30.3281 42.0513 30.0117 41.9438 29.6289 41.9438C29.2343 41.9438 28.9258 42.0298 28.7031 42.2017C28.4804 42.3735 28.3691 42.5981 28.3691 42.8755C28.3691 43.1372 28.4726 43.3345 28.6797 43.4673C28.8867 43.6001 29.2597 43.7271 29.7988 43.8481C30.3418 43.9692 30.7812 44.1138 31.1172 44.2817C31.4531 44.4497 31.7011 44.6528 31.8613 44.8911C32.0254 45.1255 32.1074 45.4126 32.1074 45.7524C32.1074 46.3188 31.8808 46.7739 31.4277 47.1177C30.9746 47.4575 30.3867 47.6274 29.664 47.6274C29.1562 47.6274 28.707 47.5376 28.3164 47.3579C27.9258 47.1782 27.6191 46.9282 27.3965 46.6079C27.1777 46.2837 27.0683 45.9341 27.0683 45.5591H28.1523C28.1718 45.9224 28.3164 46.2114 28.5859 46.4263C28.8593 46.6372 29.2187 46.7427 29.664 46.7427C30.0742 46.7427 30.4023 46.6606 30.6484 46.4966C30.8984 46.3286 31.0234 46.106 31.0234 45.8286ZM37.2109 45.8286C37.2109 45.5356 37.0996 45.3091 36.8769 45.1489C36.6582 44.9849 36.2734 44.8442 35.7226 44.7271C35.1758 44.6099 34.7402 44.4692 34.416 44.3052C34.0957 44.1411 33.8574 43.9458 33.7011 43.7192C33.5488 43.4927 33.4726 43.2231 33.4726 42.9106C33.4726 42.3911 33.6914 41.9517 34.1289 41.5923C34.5703 41.2329 35.1328 41.0532 35.8164 41.0532C36.5351 41.0532 37.1172 41.2388 37.5625 41.6099C38.0117 41.981 38.2363 42.4556 38.2363 43.0337H37.1465C37.1465 42.7368 37.0195 42.481 36.7656 42.2661C36.5156 42.0513 36.1992 41.9438 35.8164 41.9438C35.4218 41.9438 35.1133 42.0298 34.8906 42.2017C34.6679 42.3735 34.5566 42.5981 34.5566 42.8755C34.5566 43.1372 34.6601 43.3345 34.8672 43.4673C35.0742 43.6001 35.4472 43.7271 35.9863 43.8481C36.5293 43.9692 36.9687 44.1138 37.3047 44.2817C37.6406 44.4497 37.8886 44.6528 38.0488 44.8911C38.2129 45.1255 38.2949 45.4126 38.2949 45.7524C38.2949 46.3188 38.0683 46.7739 37.6152 47.1177C37.1621 47.4575 36.5742 47.6274 35.8515 47.6274C35.3437 47.6274 34.8945 47.5376 34.5039 47.3579C34.1133 47.1782 33.8066 46.9282 33.584 46.6079C33.3652 46.2837 33.2558 45.9341 33.2558 45.5591H34.3398C34.3593 45.9224 34.5039 46.2114 34.7734 46.4263C35.0468 46.6372 35.4062 46.7427 35.8515 46.7427C36.2617 46.7427 36.5898 46.6606 36.8359 46.4966C37.0859 46.3286 37.2109 46.106 37.2109 45.8286ZM45.3144 47.6274C44.455 47.6274 43.7558 47.3462 43.2168 46.7837C42.6777 46.2173 42.4082 45.4614 42.4082 44.5161V44.3169C42.4082 43.688 42.5273 43.1274 42.7656 42.6353C43.0078 42.1392 43.3437 41.7524 43.7734 41.4751C44.207 41.1938 44.6758 41.0532 45.1797 41.0532C46.0039 41.0532 46.6445 41.3247 47.1015 41.8677C47.5586 42.4106 47.7871 43.188 47.7871 44.1997V44.6509H43.4922C43.5078 45.2759 43.6894 45.7817 44.0371 46.1685C44.3886 46.5513 44.834 46.7427 45.373 46.7427C45.7558 46.7427 46.08 46.6646 46.3457 46.5083C46.6113 46.3521 46.8437 46.145 47.0429 45.8872L47.705 46.4028C47.1738 47.2192 46.3769 47.6274 45.3144 47.6274ZM45.1797 41.9438C44.7422 41.9438 44.375 42.104 44.0781 42.4243C43.7812 42.7407 43.5976 43.186 43.5273 43.7603H46.7031V43.6782C46.6718 43.1274 46.5234 42.7017 46.2578 42.4009C45.9922 42.0962 45.6328 41.9438 45.1797 41.9438ZM4.082 55.1704L4.11716 55.9673C4.60153 55.3579 5.23435 55.0532 6.0156 55.0532C7.35544 55.0532 8.03122 55.8091 8.04294 57.3208V61.5103H6.95896V57.3149C6.95505 56.8579 6.84958 56.52 6.64255 56.3013C6.43942 56.0825 6.12107 55.9731 5.68747 55.9731C5.33591 55.9731 5.02732 56.0669 4.76169 56.2544C4.49607 56.4419 4.28903 56.688 4.1406 56.9927V61.5103H3.05661V55.1704H4.082ZM13.5918 60.8833C13.1699 61.3794 12.5508 61.6274 11.7343 61.6274C11.0586 61.6274 10.5429 61.4321 10.1875 61.0415C9.83591 60.647 9.65817 60.0649 9.65427 59.2954V55.1704H10.7383V59.2661C10.7383 60.2271 11.1289 60.7075 11.9101 60.7075C12.7383 60.7075 13.289 60.3989 13.5625 59.7817V55.1704H14.6465V61.5103H13.6152L13.5918 60.8833ZM17.7695 53.6353V55.1704H18.9531V56.0083H17.7695V59.9399C17.7695 60.1938 17.8222 60.3853 17.9277 60.5142C18.0332 60.6392 18.2129 60.7017 18.4668 60.7017C18.5918 60.7017 18.7636 60.6782 18.9824 60.6313V61.5103C18.6972 61.5884 18.4199 61.6274 18.1504 61.6274C17.666 61.6274 17.3008 61.481 17.0547 61.188C16.8086 60.895 16.6855 60.479 16.6855 59.9399V56.0083H15.5312V55.1704H16.6855V53.6353H17.7695ZM23.289 56.1431C23.125 56.1157 22.9472 56.1021 22.7558 56.1021C22.0449 56.1021 21.5625 56.4048 21.3086 57.0103V61.5103H20.2246V55.1704H21.2793L21.2968 55.9028C21.6523 55.3364 22.1562 55.0532 22.8086 55.0532C23.0195 55.0532 23.1797 55.0806 23.289 55.1353V56.1431ZM25.4687 61.5103H24.3847V55.1704H25.4687V61.5103ZM24.2968 53.4888C24.2968 53.313 24.3496 53.1646 24.455 53.0435C24.5644 52.9224 24.7246 52.8618 24.9355 52.8618C25.1465 52.8618 25.3066 52.9224 25.416 53.0435C25.5254 53.1646 25.58 53.313 25.58 53.4888C25.58 53.6646 25.5254 53.811 25.416 53.9282C25.3066 54.0454 25.1465 54.104 24.9355 54.104C24.7246 54.104 24.5644 54.0454 24.455 53.9282C24.3496 53.811 24.2968 53.6646 24.2968 53.4888ZM29.7519 60.7427C30.1386 60.7427 30.4765 60.6255 30.7656 60.3911C31.0547 60.1567 31.2148 59.8638 31.2461 59.5122H32.2715C32.2519 59.8755 32.1269 60.2212 31.8965 60.5493C31.666 60.8774 31.3574 61.1392 30.9707 61.3345C30.5879 61.5298 30.1816 61.6274 29.7519 61.6274C28.8886 61.6274 28.2011 61.3403 27.6894 60.7661C27.1816 60.188 26.9277 59.3989 26.9277 58.3989V58.2173C26.9277 57.6001 27.041 57.0513 27.2675 56.5708C27.4941 56.0903 27.8183 55.7173 28.2402 55.4517C28.666 55.186 29.1679 55.0532 29.7461 55.0532C30.457 55.0532 31.0468 55.2661 31.5156 55.6919C31.9883 56.1177 32.2402 56.6704 32.2715 57.3501H31.2461C31.2148 56.9399 31.0586 56.604 30.7773 56.3423C30.5 56.0767 30.1562 55.9438 29.7461 55.9438C29.1953 55.9438 28.7675 56.1431 28.4629 56.5415C28.1621 56.936 28.0117 57.5083 28.0117 58.2583V58.4634C28.0117 59.1938 28.1621 59.7563 28.4629 60.1509C28.7636 60.5454 29.1933 60.7427 29.7519 60.7427ZM29.9277 61.563L29.8574 61.8677C30.455 61.9731 30.7539 62.311 30.7539 62.8813C30.7539 63.2603 30.5976 63.5591 30.2851 63.7778C29.9726 64.0005 29.5371 64.1118 28.9785 64.1118L28.9375 63.4849C29.2461 63.4849 29.4843 63.4341 29.6523 63.3325C29.8242 63.231 29.9101 63.0884 29.9101 62.9048C29.9101 62.7329 29.8476 62.606 29.7226 62.5239C29.5976 62.4419 29.3437 62.3833 28.9609 62.3481L29.1484 61.563H29.9277ZM37.4043 61.5103C37.3418 61.3853 37.291 61.1626 37.2519 60.8423C36.748 61.3657 36.1465 61.6274 35.4472 61.6274C34.8222 61.6274 34.3086 61.4517 33.9062 61.1001C33.5078 60.7446 33.3086 60.2954 33.3086 59.7524C33.3086 59.0923 33.5586 58.5806 34.0586 58.2173C34.5625 57.8501 35.2695 57.6665 36.1797 57.6665H37.2343V57.1685C37.2343 56.7896 37.1211 56.4888 36.8945 56.2661C36.6679 56.0396 36.334 55.9263 35.8925 55.9263C35.5058 55.9263 35.1816 56.0239 34.9199 56.2192C34.6582 56.4146 34.5273 56.6509 34.5273 56.9282H33.4375C33.4375 56.6118 33.5488 56.3071 33.7715 56.0142C33.998 55.7173 34.3027 55.4829 34.6855 55.311C35.0722 55.1392 35.4961 55.0532 35.957 55.0532C36.6875 55.0532 37.2597 55.2368 37.6738 55.604C38.0879 55.9673 38.3027 56.4692 38.3183 57.1099V60.0278C38.3183 60.6099 38.3925 61.0728 38.541 61.4165V61.5103H37.4043ZM35.6054 60.6841C35.9453 60.6841 36.2675 60.5962 36.5722 60.4204C36.8769 60.2446 37.0976 60.0161 37.2343 59.7349V58.4341H36.3847C35.0566 58.4341 34.3925 58.8228 34.3925 59.6001C34.3925 59.9399 34.5058 60.2056 34.7324 60.397C34.959 60.5884 35.25 60.6841 35.6054 60.6841ZM38.1543 52.6978C38.1543 53.1196 38.0332 53.4614 37.791 53.7231C37.5527 53.9849 37.2539 54.1157 36.8945 54.1157C36.7343 54.1157 36.5957 54.0962 36.4785 54.0571C36.3613 54.0181 36.207 53.938 36.0156 53.8169C35.8281 53.6958 35.6914 53.6235 35.6054 53.6001C35.5234 53.5728 35.4277 53.5591 35.3183 53.5591C35.1582 53.5591 35.0215 53.6216 34.9082 53.7466C34.7949 53.8677 34.7383 54.0239 34.7383 54.2153L34.0117 54.1743C34.0117 53.7563 34.1289 53.4106 34.3633 53.1372C34.6015 52.8638 34.9023 52.7271 35.2656 52.7271C35.4023 52.7271 35.5254 52.7466 35.6347 52.7856C35.7441 52.8247 35.8925 52.9009 36.08 53.0142C36.2675 53.1274 36.4101 53.2017 36.5078 53.2368C36.6093 53.272 36.7207 53.2896 36.8418 53.2896C37.0097 53.2896 37.1484 53.2231 37.2578 53.0903C37.3711 52.9575 37.4277 52.8032 37.4277 52.6274L38.1543 52.6978ZM39.7304 58.2817C39.7304 57.6606 39.8515 57.1021 40.0937 56.606C40.3398 56.1099 40.6797 55.7271 41.1133 55.4575C41.5508 55.188 42.0488 55.0532 42.6074 55.0532C43.4707 55.0532 44.1679 55.3521 44.6992 55.9497C45.2343 56.5474 45.5019 57.3423 45.5019 58.3345V58.4106C45.5019 59.0278 45.3828 59.5825 45.1445 60.0747C44.9101 60.563 44.5722 60.9438 44.1308 61.2173C43.6933 61.4907 43.1894 61.6274 42.6191 61.6274C41.7597 61.6274 41.0625 61.3286 40.5273 60.731C39.9961 60.1333 39.7304 59.3423 39.7304 58.3579V58.2817ZM40.8203 58.4106C40.8203 59.1138 40.9824 59.6782 41.3066 60.104C41.6347 60.5298 42.0722 60.7427 42.6191 60.7427C43.1699 60.7427 43.6074 60.5278 43.9316 60.0981C44.2558 59.6646 44.4179 59.0591 44.4179 58.2817C44.4179 57.5864 44.2519 57.0239 43.9199 56.5942C43.5918 56.1606 43.1543 55.9438 42.6074 55.9438C42.0722 55.9438 41.6406 56.1567 41.3125 56.5825C40.9843 57.0083 40.8203 57.6177 40.8203 58.4106Z" fill="white"/>
<path fill-rule="evenodd" clip-rule="evenodd" d="M29.5353 1.99624C28.8033 2.72843 28.8033 3.9153 29.5353 4.64749L34.9991 10.1112C35.7312 10.8437 36.9185 10.844 37.6509 10.1119C38.3834 9.37974 38.3837 8.19246 37.6516 7.45999L32.1866 1.99624C31.4544 1.26427 30.2675 1.26427 29.5353 1.99624Z" stroke="white" stroke-width="1.5" stroke-linecap="round" stroke-linejoin="round"/>
<path fill-rule="evenodd" clip-rule="evenodd" d="M24.2312 1.99533C23.8793 2.34699 23.6816 2.82409 23.6816 3.32158C23.6816 3.81907 23.8793 4.29616 24.2312 4.64783L35 15.4166C35.7335 16.1487 36.9216 16.1476 37.6537 15.4141C38.3859 14.6806 38.3847 13.4924 37.6512 12.7603L26.8875 1.99533C26.5357 1.64229 26.0578 1.44385 25.5594 1.44385C25.061 1.44385 24.5831 1.64229 24.2312 1.99533Z" stroke="white" stroke-width="1.5" stroke-linecap="round" stroke-linejoin="round"/>
<path fill-rule="evenodd" clip-rule="evenodd" d="M10.6251 20.9075C10.9768 20.5556 11.4539 20.3579 11.9514 20.3579C12.4489 20.3579 12.926 20.5556 13.2776 20.9075L18.7414 26.3713C19.452 27.107 19.4418 28.2764 18.7186 28.9997C17.9953 29.7229 16.8259 29.7331 16.0901 29.0225L10.6251 23.5588C9.89318 22.8266 9.89318 21.6397 10.6251 20.9075Z" stroke="white" stroke-width="1.5" stroke-linecap="round" stroke-linejoin="round"/>
<path fill-rule="evenodd" clip-rule="evenodd" d="M10.6244 15.6032C11.3566 14.8712 12.5434 14.8712 13.2756 15.6032L24.0444 26.3719C24.7768 27.1054 24.776 28.2938 24.0425 29.0263C23.309 29.7588 22.1206 29.7579 21.3881 29.0244L10.6244 18.2607C10.2709 17.9088 10.0723 17.4306 10.0723 16.9319C10.0723 16.4332 10.2709 15.955 10.6244 15.6032Z" stroke="white" stroke-width="1.5" stroke-linecap="round" stroke-linejoin="round"/>
<path fill-rule="evenodd" clip-rule="evenodd" d="M17.334 19.6621L28.2897 8.70637L30.9414 11.358L19.9856 22.3138L17.334 19.6621Z" stroke="white" stroke-width="1.5" stroke-linecap="round" stroke-linejoin="round"/>
</svg>
