<svg width="70" height="54" viewBox="0 0 70 54" fill="none" xmlns="http://www.w3.org/2000/svg">
<path d="M5.86133 46.5674H2.16406V49.5908H6.45898V50.5107H1.03906V41.9795H6.40039V42.9053H2.16406V45.6475H5.86133V46.5674ZM8.70898 44.1709L8.73828 44.874C9.20312 44.3271 9.83008 44.0537 10.6191 44.0537C11.5059 44.0537 12.1094 44.3936 12.4297 45.0732C12.6406 44.7686 12.9141 44.5225 13.25 44.335C13.5898 44.1475 13.9902 44.0537 14.4512 44.0537C15.8418 44.0537 16.5488 44.79 16.5723 46.2627V50.5107H15.4883V46.3271C15.4883 45.874 15.3848 45.5361 15.1777 45.3135C14.9707 45.0869 14.623 44.9736 14.1348 44.9736C13.7324 44.9736 13.3984 45.0947 13.1328 45.3369C12.8672 45.5752 12.7129 45.8975 12.6699 46.3037V50.5107H11.5801V46.3564C11.5801 45.4346 11.1289 44.9736 10.2266 44.9736C9.51562 44.9736 9.0293 45.2764 8.76758 45.8818V50.5107H7.68359V44.1709H8.70898ZM20.9258 47.2881C20.9258 46.3154 21.1562 45.5342 21.6172 44.9443C22.0781 44.3506 22.6816 44.0537 23.4277 44.0537C24.1699 44.0537 24.7578 44.3076 25.1914 44.8154V41.5107H26.2754V50.5107H25.2793L25.2266 49.8311C24.793 50.3623 24.1895 50.6279 23.416 50.6279C22.6816 50.6279 22.082 50.3271 21.6172 49.7256C21.1562 49.124 20.9258 48.3389 20.9258 47.3701V47.2881ZM22.0098 47.4111C22.0098 48.1299 22.1582 48.6924 22.4551 49.0986C22.752 49.5049 23.1621 49.708 23.6855 49.708C24.373 49.708 24.875 49.3994 25.1914 48.7822V45.8701C24.8672 45.2725 24.3691 44.9736 23.6973 44.9736C23.166 44.9736 22.752 45.1787 22.4551 45.5889C22.1582 45.999 22.0098 46.6064 22.0098 47.4111ZM30.5938 50.6279C29.7344 50.6279 29.0352 50.3467 28.4961 49.7842C27.957 49.2178 27.6875 48.4619 27.6875 47.5166V47.3174C27.6875 46.6885 27.8066 46.1279 28.0449 45.6357C28.2871 45.1396 28.623 44.7529 29.0527 44.4756C29.4863 44.1943 29.9551 44.0537 30.459 44.0537C31.2832 44.0537 31.9238 44.3252 32.3809 44.8682C32.8379 45.4111 33.0664 46.1885 33.0664 47.2002V47.6514H28.7715C28.7871 48.2764 28.9688 48.7822 29.3164 49.1689C29.668 49.5518 30.1133 49.7432 30.6523 49.7432C31.0352 49.7432 31.3594 49.665 31.625 49.5088C31.8906 49.3525 32.123 49.1455 32.3223 48.8877L32.9844 49.4033C32.4531 50.2197 31.6562 50.6279 30.5938 50.6279ZM30.459 44.9443C30.0215 44.9443 29.6543 45.1045 29.3574 45.4248C29.0605 45.7412 28.877 46.1865 28.8066 46.7607H31.9824V46.6787C31.9512 46.1279 31.8027 45.7021 31.5371 45.4014C31.2715 45.0967 30.9121 44.9443 30.459 44.9443ZM38.0176 48.8291C38.0176 48.5361 37.9062 48.3096 37.6836 48.1494C37.4648 47.9854 37.0801 47.8447 36.5293 47.7275C35.9824 47.6104 35.5469 47.4697 35.2227 47.3057C34.9023 47.1416 34.6641 46.9463 34.5078 46.7197C34.3555 46.4932 34.2793 46.2236 34.2793 45.9111C34.2793 45.3916 34.498 44.9521 34.9355 44.5928C35.377 44.2334 35.9395 44.0537 36.623 44.0537C37.3418 44.0537 37.9238 44.2393 38.3691 44.6104C38.8184 44.9814 39.043 45.4561 39.043 46.0342H37.9531C37.9531 45.7373 37.8262 45.4814 37.5723 45.2666C37.3223 45.0518 37.0059 44.9443 36.623 44.9443C36.2285 44.9443 35.9199 45.0303 35.6973 45.2021C35.4746 45.374 35.3633 45.5986 35.3633 45.876C35.3633 46.1377 35.4668 46.335 35.6738 46.4678C35.8809 46.6006 36.2539 46.7275 36.793 46.8486C37.3359 46.9697 37.7754 47.1143 38.1113 47.2822C38.4473 47.4502 38.6953 47.6533 38.8555 47.8916C39.0195 48.126 39.1016 48.4131 39.1016 48.7529C39.1016 49.3193 38.875 49.7744 38.4219 50.1182C37.9688 50.458 37.3809 50.6279 36.6582 50.6279C36.1504 50.6279 35.7012 50.5381 35.3105 50.3584C34.9199 50.1787 34.6133 49.9287 34.3906 49.6084C34.1719 49.2842 34.0625 48.9346 34.0625 48.5596H35.1465C35.166 48.9229 35.3105 49.2119 35.5801 49.4268C35.8535 49.6377 36.2129 49.7432 36.6582 49.7432C37.0684 49.7432 37.3965 49.6611 37.6426 49.4971C37.8926 49.3291 38.0176 49.1064 38.0176 48.8291ZM41.9844 42.6357V44.1709H43.168V45.0088H41.9844V48.9404C41.9844 49.1943 42.0371 49.3857 42.1426 49.5146C42.248 49.6396 42.4277 49.7021 42.6816 49.7021C42.8066 49.7021 42.9785 49.6787 43.1973 49.6318V50.5107C42.9121 50.5889 42.6348 50.6279 42.3652 50.6279C41.8809 50.6279 41.5156 50.4814 41.2695 50.1885C41.0234 49.8955 40.9004 49.4795 40.9004 48.9404V45.0088H39.7461V44.1709H40.9004V42.6357H41.9844ZM48.3535 50.5107C48.291 50.3857 48.2402 50.1631 48.2012 49.8428C47.6973 50.3662 47.0957 50.6279 46.3965 50.6279C45.7715 50.6279 45.2578 50.4521 44.8555 50.1006C44.457 49.7451 44.2578 49.2959 44.2578 48.7529C44.2578 48.0928 44.5078 47.5811 45.0078 47.2178C45.5117 46.8506 46.2188 46.667 47.1289 46.667H48.1836V46.1689C48.1836 45.79 48.0703 45.4893 47.8438 45.2666C47.6172 45.04 47.2832 44.9268 46.8418 44.9268C46.4551 44.9268 46.1309 45.0244 45.8691 45.2197C45.6074 45.415 45.4766 45.6514 45.4766 45.9287H44.3867C44.3867 45.6123 44.498 45.3076 44.7207 45.0146C44.9473 44.7178 45.252 44.4834 45.6348 44.3115C46.0215 44.1396 46.4453 44.0537 46.9062 44.0537C47.6367 44.0537 48.209 44.2373 48.623 44.6045C49.0371 44.9678 49.252 45.4697 49.2676 46.1104V49.0283C49.2676 49.6104 49.3418 50.0732 49.4902 50.417V50.5107H48.3535ZM46.5547 49.6846C46.8945 49.6846 47.2168 49.5967 47.5215 49.4209C47.8262 49.2451 48.0469 49.0166 48.1836 48.7354V47.4346H47.334C46.0059 47.4346 45.3418 47.8232 45.3418 48.6006C45.3418 48.9404 45.4551 49.2061 45.6816 49.3975C45.9082 49.5889 46.1992 49.6846 46.5547 49.6846ZM50.7031 47.2881C50.7031 46.292 50.9316 45.5049 51.3887 44.9268C51.8457 44.3447 52.459 44.0537 53.2285 44.0537C53.9785 44.0537 54.5703 44.3057 55.0039 44.8096L55.0508 44.1709H56.0469V52.9482H54.9629V49.9248C54.5254 50.3936 53.9434 50.6279 53.2168 50.6279C52.4512 50.6279 51.8398 50.3311 51.3828 49.7373C50.9297 49.1396 50.7031 48.3486 50.7031 47.3643V47.2881ZM51.7871 47.4111C51.7871 48.1377 51.9395 48.708 52.2441 49.1221C52.5527 49.5361 52.9668 49.7432 53.4863 49.7432C54.1309 49.7432 54.623 49.458 54.9629 48.8877V45.7822C54.6191 45.2236 54.1309 44.9443 53.498 44.9443C52.9746 44.9443 52.5586 45.1533 52.25 45.5713C51.9414 45.9854 51.7871 46.5986 51.7871 47.4111ZM61.7012 49.8838C61.2793 50.3799 60.6602 50.6279 59.8438 50.6279C59.168 50.6279 58.6523 50.4326 58.2969 50.042C57.9453 49.6475 57.7676 49.0654 57.7637 48.2959V44.1709H58.8477V48.2666C58.8477 49.2275 59.2383 49.708 60.0195 49.708C60.8477 49.708 61.3984 49.3994 61.6719 48.7822V44.1709H62.7559V50.5107H61.7246L61.7012 49.8838ZM67.0391 50.6279C66.1797 50.6279 65.4805 50.3467 64.9414 49.7842C64.4023 49.2178 64.1328 48.4619 64.1328 47.5166V47.3174C64.1328 46.6885 64.252 46.1279 64.4902 45.6357C64.7324 45.1396 65.0684 44.7529 65.498 44.4756C65.9316 44.1943 66.4004 44.0537 66.9043 44.0537C67.7285 44.0537 68.3691 44.3252 68.8262 44.8682C69.2832 45.4111 69.5117 46.1885 69.5117 47.2002V47.6514H65.2168C65.2324 48.2764 65.4141 48.7822 65.7617 49.1689C66.1133 49.5518 66.5586 49.7432 67.0977 49.7432C67.4805 49.7432 67.8047 49.665 68.0703 49.5088C68.3359 49.3525 68.5684 49.1455 68.7676 48.8877L69.4297 49.4033C68.8984 50.2197 68.1016 50.6279 67.0391 50.6279ZM66.9043 44.9443C66.4668 44.9443 66.0996 45.1045 65.8027 45.4248C65.5059 45.7412 65.3223 46.1865 65.252 46.7607H68.4277V46.6787C68.3965 46.1279 68.248 45.7021 67.9824 45.4014C67.7168 45.0967 67.3574 44.9443 66.9043 44.9443Z" fill="#8C8C8C"/>
<path fill-rule="evenodd" clip-rule="evenodd" d="M35 22.0732C40.6954 22.0732 45.3125 17.4562 45.3125 11.7607C45.3125 6.06531 40.6954 1.44824 35 1.44824C29.3046 1.44824 24.6875 6.06531 24.6875 11.7607C24.6875 17.4562 29.3046 22.0732 35 22.0732Z" stroke="#8C8C8C" stroke-width="1.5" stroke-linecap="round" stroke-linejoin="round"/>
<path d="M39.6875 20.9473L41.5625 29.5735L35 25.8235L28.4375 29.5735L30.3125 20.9473" stroke="#8C8C8C" stroke-width="1.5" stroke-linecap="round" stroke-linejoin="round"/>
<path fill-rule="evenodd" clip-rule="evenodd" d="M35.6646 5.8757L37.2246 8.9482H39.8833C40.1829 8.94088 40.4563 9.11798 40.5721 9.39434C40.6879 9.6707 40.6224 9.98979 40.4071 10.1982L37.9671 12.5957L39.3183 15.7019C39.4406 15.9937 39.3628 16.3309 39.1252 16.5396C38.8875 16.7484 38.5431 16.782 38.2696 16.6232L35.0008 14.7844L31.7321 16.6232C31.4585 16.782 31.1141 16.7484 30.8765 16.5396C30.6388 16.3309 30.5611 15.9937 30.6833 15.7019L32.0358 12.5957L29.5946 10.1932C29.3793 9.98479 29.3138 9.6657 29.4296 9.38934C29.5454 9.11298 29.8188 8.93588 30.1183 8.9432H32.7771L34.3383 5.8757C34.4682 5.62987 34.7234 5.47607 35.0015 5.47607C35.2795 5.47607 35.5347 5.62987 35.6646 5.8757Z" stroke="#8C8C8C" stroke-width="1.5" stroke-linecap="round" stroke-linejoin="round"/>
</svg>
