<svg width="50" height="66" viewBox="0 0 50 66" fill="none" xmlns="http://www.w3.org/2000/svg">
<path fill-rule="evenodd" clip-rule="evenodd" d="M11.6692 16.5098H21.0023C21.7387 16.5098 22.3356 17.1067 22.3356 17.8431V29.8428C22.3356 30.2109 22.0372 30.5094 21.669 30.5094H11.0026C10.6344 30.5094 10.3359 30.2109 10.3359 29.8428V17.8431C10.3359 17.1067 10.9329 16.5098 11.6692 16.5098Z" stroke="#8C8C8C" stroke-width="1.5" stroke-linecap="round" stroke-linejoin="round"/>
<path fill-rule="evenodd" clip-rule="evenodd" d="M28.3359 14.8118C28.3359 14.645 28.4712 14.5098 28.638 14.5098H40.0336C40.2004 14.5098 40.3356 14.645 40.3356 14.8118V30.2073C40.3356 30.3741 40.2004 30.5094 40.0336 30.5094H28.638C28.4712 30.5094 28.3359 30.3741 28.3359 30.2073V14.8118Z" stroke="#8C8C8C" stroke-width="1.5" stroke-linecap="round" stroke-linejoin="round"/>
<path d="M12.3359 16.5099V2.51023C12.3359 2.13147 12.5499 1.78522 12.8887 1.61583C13.2275 1.44644 13.6329 1.483 13.9359 1.71025L19.5358 5.91015C20.0394 6.28785 20.3357 6.88061 20.3357 7.51011V16.5099" stroke="#8C8C8C" stroke-width="1.5" stroke-linecap="round" stroke-linejoin="round"/>
<path d="M14.3359 26.5098H18.3358" stroke="#8C8C8C" stroke-width="1.5" stroke-linecap="round" stroke-linejoin="round"/>
<path d="M28.3359 22.5098H40.3356" stroke="#8C8C8C" stroke-width="1.5" stroke-linecap="round" stroke-linejoin="round"/>
<path d="M28.3359 26.5098H40.3356" stroke="#8C8C8C" stroke-width="1.5" stroke-linecap="round" stroke-linejoin="round"/>
<path d="M12.309 48.0103H11.1782V44.0669H6.8774V48.0103H5.7524V39.479H6.8774V43.147H11.1782V39.479H12.309V48.0103ZM15.3149 48.0103H14.2309V41.6704H15.3149V48.0103ZM14.143 39.9888C14.143 39.813 14.1958 39.6646 14.3012 39.5435C14.4106 39.4224 14.5708 39.3618 14.7817 39.3618C14.9926 39.3618 15.1528 39.4224 15.2622 39.5435C15.3715 39.6646 15.4262 39.813 15.4262 39.9888C15.4262 40.1646 15.3715 40.311 15.2622 40.4282C15.1528 40.5454 14.9926 40.604 14.7817 40.604C14.5708 40.604 14.4106 40.5454 14.3012 40.4282C14.1958 40.311 14.143 40.1646 14.143 39.9888ZM16.7973 44.7876C16.7973 43.7993 17.0258 43.0142 17.4829 42.4321C17.9399 41.8462 18.5454 41.5532 19.2993 41.5532C20.0727 41.5532 20.6762 41.8267 21.1098 42.3735L21.1626 41.6704H22.1528V47.8579C22.1528 48.6782 21.9087 49.3247 21.4204 49.7974C20.936 50.27 20.2837 50.5063 19.4633 50.5063C19.0063 50.5063 18.559 50.4087 18.1215 50.2134C17.684 50.0181 17.3501 49.7505 17.1196 49.4106L17.6821 48.7603C18.1469 49.3345 18.7153 49.6216 19.3872 49.6216C19.9145 49.6216 20.3247 49.4731 20.6176 49.1763C20.9145 48.8794 21.0629 48.4614 21.0629 47.9224V47.3774C20.6294 47.8774 20.0376 48.1274 19.2876 48.1274C18.5454 48.1274 17.9438 47.8286 17.4829 47.231C17.0258 46.6333 16.7973 45.8188 16.7973 44.7876ZM17.8872 44.9106C17.8872 45.6255 18.0337 46.188 18.3266 46.5981C18.6196 47.0044 19.0297 47.2075 19.5571 47.2075C20.2407 47.2075 20.7426 46.897 21.0629 46.2759V43.3813C20.7309 42.7759 20.2329 42.4731 19.5688 42.4731C19.0415 42.4731 18.6294 42.6782 18.3325 43.0884C18.0356 43.4985 17.8872 44.106 17.8872 44.9106ZM24.9712 48.0103H23.8872V41.6704H24.9712V48.0103ZM23.7993 39.9888C23.7993 39.813 23.852 39.6646 23.9575 39.5435C24.0669 39.4224 24.227 39.3618 24.4379 39.3618C24.6489 39.3618 24.809 39.4224 24.9184 39.5435C25.0278 39.6646 25.0825 39.813 25.0825 39.9888C25.0825 40.1646 25.0278 40.311 24.9184 40.4282C24.809 40.5454 24.6489 40.604 24.4379 40.604C24.227 40.604 24.0669 40.5454 23.9575 40.4282C23.852 40.311 23.7993 40.1646 23.7993 39.9888ZM29.3422 48.1274C28.4829 48.1274 27.7837 47.8462 27.2446 47.2837C26.7055 46.7173 26.436 45.9614 26.436 45.0161V44.8169C26.436 44.188 26.5551 43.6274 26.7934 43.1353C27.0356 42.6392 27.3715 42.2524 27.8012 41.9751C28.2348 41.6938 28.7036 41.5532 29.2075 41.5532C30.0317 41.5532 30.6723 41.8247 31.1294 42.3677C31.5864 42.9106 31.8149 43.688 31.8149 44.6997V45.1509H27.52C27.5356 45.7759 27.7172 46.2817 28.0649 46.6685C28.4165 47.0513 28.8618 47.2427 29.4008 47.2427C29.7837 47.2427 30.1079 47.1646 30.3735 47.0083C30.6391 46.8521 30.8715 46.645 31.0708 46.3872L31.7329 46.9028C31.2016 47.7192 30.4047 48.1274 29.3422 48.1274ZM29.2075 42.4438C28.77 42.4438 28.4028 42.604 28.1059 42.9243C27.809 43.2407 27.6254 43.686 27.5551 44.2603H30.7309V44.1782C30.6997 43.6274 30.5512 43.2017 30.2856 42.9009C30.02 42.5962 29.6606 42.4438 29.2075 42.4438ZM34.1001 41.6704L34.1352 42.4673C34.6196 41.8579 35.2524 41.5532 36.0337 41.5532C37.3735 41.5532 38.0493 42.3091 38.061 43.8208V48.0103H36.977V43.8149C36.9731 43.3579 36.8676 43.02 36.6606 42.8013C36.4575 42.5825 36.1391 42.4731 35.7055 42.4731C35.354 42.4731 35.0454 42.5669 34.7797 42.7544C34.5141 42.9419 34.3071 43.188 34.1587 43.4927V48.0103H33.0747V41.6704H34.1001ZM42.3266 48.1274C41.4672 48.1274 40.768 47.8462 40.229 47.2837C39.6899 46.7173 39.4204 45.9614 39.4204 45.0161V44.8169C39.4204 44.188 39.5395 43.6274 39.7778 43.1353C40.02 42.6392 40.3559 42.2524 40.7856 41.9751C41.2192 41.6938 41.688 41.5532 42.1919 41.5532C43.0161 41.5532 43.6567 41.8247 44.1137 42.3677C44.5708 42.9106 44.7993 43.688 44.7993 44.6997V45.1509H40.5044C40.52 45.7759 40.7016 46.2817 41.0493 46.6685C41.4008 47.0513 41.8462 47.2427 42.3852 47.2427C42.768 47.2427 43.0922 47.1646 43.3579 47.0083C43.6235 46.8521 43.8559 46.645 44.0551 46.3872L44.7172 46.9028C44.186 47.7192 43.3891 48.1274 42.3266 48.1274ZM42.1919 42.4438C41.7544 42.4438 41.3872 42.604 41.0903 42.9243C40.7934 43.2407 40.6098 43.686 40.5395 44.2603H43.7153V44.1782C43.684 43.6274 43.5356 43.2017 43.27 42.9009C43.0044 42.5962 42.645 42.4438 42.1919 42.4438ZM6.35006 62.1274C5.49068 62.1274 4.79146 61.8462 4.2524 61.2837C3.71334 60.7173 3.44381 59.9614 3.44381 59.0161V58.8169C3.44381 58.188 3.56295 57.6274 3.80123 57.1353C4.04342 56.6392 4.37935 56.2524 4.80904 55.9751C5.24264 55.6938 5.71139 55.5532 6.21529 55.5532C7.03951 55.5532 7.68014 55.8247 8.13717 56.3677C8.5942 56.9106 8.82271 57.688 8.82271 58.6997V59.1509H4.52779C4.54342 59.7759 4.72506 60.2817 5.07271 60.6685C5.42428 61.0513 5.86959 61.2427 6.40865 61.2427C6.79146 61.2427 7.11568 61.1646 7.38131 61.0083C7.64693 60.8521 7.87935 60.645 8.07857 60.3872L8.74068 60.9028C8.20943 61.7192 7.41256 62.1274 6.35006 62.1274ZM6.21529 56.4438C5.77779 56.4438 5.4106 56.604 5.11373 56.9243C4.81685 57.2407 4.63326 57.686 4.56295 58.2603H7.73873V58.1782C7.70748 57.6274 7.55904 57.2017 7.29342 56.9009C7.02779 56.5962 6.66842 56.4438 6.21529 56.4438ZM18.4262 58.9106C18.4262 59.8794 18.2036 60.6587 17.7583 61.2485C17.3129 61.8345 16.7153 62.1274 15.9653 62.1274C15.1645 62.1274 14.5454 61.8442 14.1079 61.2778L14.0551 62.0103H13.059V53.0103H14.143V56.3677C14.5805 55.8247 15.184 55.5532 15.9536 55.5532C16.7231 55.5532 17.3266 55.8442 17.7641 56.4263C18.2055 57.0083 18.4262 57.8052 18.4262 58.8169V58.9106ZM17.3422 58.7876C17.3422 58.0493 17.1997 57.479 16.9145 57.0767C16.6294 56.6743 16.2192 56.4731 15.684 56.4731C14.9692 56.4731 14.4555 56.8052 14.143 57.4692V60.2114C14.4751 60.8755 14.9926 61.2075 15.6958 61.2075C16.2153 61.2075 16.6196 61.0063 16.9087 60.604C17.1977 60.2017 17.3422 59.5962 17.3422 58.7876ZM22.4282 62.1274C21.5688 62.1274 20.8696 61.8462 20.3305 61.2837C19.7915 60.7173 19.5219 59.9614 19.5219 59.0161V58.8169C19.5219 58.188 19.6411 57.6274 19.8794 57.1353C20.1215 56.6392 20.4575 56.2524 20.8872 55.9751C21.3208 55.6938 21.7895 55.5532 22.2934 55.5532C23.1176 55.5532 23.7583 55.8247 24.2153 56.3677C24.6723 56.9106 24.9008 57.688 24.9008 58.6997V59.1509H20.6059C20.6215 59.7759 20.8032 60.2817 21.1508 60.6685C21.5024 61.0513 21.9477 61.2427 22.4868 61.2427C22.8696 61.2427 23.1938 61.1646 23.4594 61.0083C23.7251 60.8521 23.9575 60.645 24.1567 60.3872L24.8188 60.9028C24.2876 61.7192 23.4907 62.1274 22.4282 62.1274ZM22.2934 56.4438C21.8559 56.4438 21.4887 56.604 21.1919 56.9243C20.895 57.2407 20.7114 57.686 20.6411 58.2603H23.8169V58.1782C23.7856 57.6274 23.6372 57.2017 23.3715 56.9009C23.1059 56.5962 22.7465 56.4438 22.2934 56.4438ZM27.3383 62.0103H26.2544V53.0103H27.3383V62.0103ZM31.7094 62.1274C30.8501 62.1274 30.1508 61.8462 29.6118 61.2837C29.0727 60.7173 28.8032 59.9614 28.8032 59.0161V58.8169C28.8032 58.188 28.9223 57.6274 29.1606 57.1353C29.4028 56.6392 29.7387 56.2524 30.1684 55.9751C30.602 55.6938 31.0708 55.5532 31.5747 55.5532C32.3989 55.5532 33.0395 55.8247 33.4965 56.3677C33.9536 56.9106 34.1821 57.688 34.1821 58.6997V59.1509H29.8872C29.9028 59.7759 30.0844 60.2817 30.4321 60.6685C30.7837 61.0513 31.229 61.2427 31.768 61.2427C32.1508 61.2427 32.4751 61.1646 32.7407 61.0083C33.0063 60.8521 33.2387 60.645 33.4379 60.3872L34.1001 60.9028C33.5688 61.7192 32.7719 62.1274 31.7094 62.1274ZM31.5747 56.4438C31.1372 56.4438 30.77 56.604 30.4731 56.9243C30.1762 57.2407 29.9926 57.686 29.9223 58.2603H33.0981V58.1782C33.0669 57.6274 32.9184 57.2017 32.6528 56.9009C32.3872 56.5962 32.0278 56.4438 31.5747 56.4438ZM36.4614 61.1255H40.1704V62.0103H35.1372V61.2134L38.6352 56.5669H35.1899V55.6704H39.9946V56.438L36.4614 61.1255ZM45.309 62.0103C45.2465 61.8853 45.1958 61.6626 45.1567 61.3423C44.6528 61.8657 44.0512 62.1274 43.352 62.1274C42.727 62.1274 42.2133 61.9517 41.811 61.6001C41.4126 61.2446 41.2133 60.7954 41.2133 60.2524C41.2133 59.5923 41.4633 59.0806 41.9633 58.7173C42.4672 58.3501 43.1743 58.1665 44.0844 58.1665H45.1391V57.6685C45.1391 57.2896 45.0258 56.9888 44.7993 56.7661C44.5727 56.5396 44.2387 56.4263 43.7973 56.4263C43.4106 56.4263 43.0864 56.5239 42.8247 56.7192C42.563 56.9146 42.4321 57.1509 42.4321 57.4282H41.3422C41.3422 57.1118 41.4536 56.8071 41.6762 56.5142C41.9028 56.2173 42.2075 55.9829 42.5903 55.811C42.977 55.6392 43.4008 55.5532 43.8618 55.5532C44.5922 55.5532 45.1645 55.7368 45.5786 56.104C45.9926 56.4673 46.2075 56.9692 46.2231 57.6099V60.5278C46.2231 61.1099 46.2973 61.5728 46.4458 61.9165V62.0103H45.309ZM43.5102 61.1841C43.8501 61.1841 44.1723 61.0962 44.477 60.9204C44.7817 60.7446 45.0024 60.5161 45.1391 60.2349V58.9341H44.2895C42.9614 58.9341 42.2973 59.3228 42.2973 60.1001C42.2973 60.4399 42.4106 60.7056 42.6372 60.897C42.8637 61.0884 43.1547 61.1841 43.5102 61.1841Z" fill="#8C8C8C"/>
</svg>
