<svg width="70" height="55" viewBox="0 0 70 55" fill="none" xmlns="http://www.w3.org/2000/svg">
<path d="M2.86719 42.979L5.65625 49.9399L8.44531 42.979H9.9043V51.5103H8.7793V48.188L8.88477 44.6021L6.08398 51.5103H5.22266L2.42773 44.6196L2.53906 48.188V51.5103H1.41406V42.979H2.86719ZM15.6348 51.5103C15.5723 51.3853 15.5215 51.1626 15.4824 50.8423C14.9785 51.3657 14.377 51.6274 13.6777 51.6274C13.0527 51.6274 12.5391 51.4517 12.1367 51.1001C11.7383 50.7446 11.5391 50.2954 11.5391 49.7524C11.5391 49.0923 11.7891 48.5806 12.2891 48.2173C12.793 47.8501 13.5 47.6665 14.4102 47.6665H15.4648V47.1685C15.4648 46.7896 15.3516 46.4888 15.125 46.2661C14.8984 46.0396 14.5645 45.9263 14.123 45.9263C13.7363 45.9263 13.4121 46.0239 13.1504 46.2192C12.8887 46.4146 12.7578 46.6509 12.7578 46.9282H11.668C11.668 46.6118 11.7793 46.3071 12.002 46.0142C12.2285 45.7173 12.5332 45.4829 12.916 45.311C13.3027 45.1392 13.7266 45.0532 14.1875 45.0532C14.918 45.0532 15.4902 45.2368 15.9043 45.604C16.3184 45.9673 16.5332 46.4692 16.5488 47.1099V50.0278C16.5488 50.6099 16.623 51.0728 16.7715 51.4165V51.5103H15.6348ZM13.8359 50.6841C14.1758 50.6841 14.498 50.5962 14.8027 50.4204C15.1074 50.2446 15.3281 50.0161 15.4648 49.7349V48.4341H14.6152C13.2871 48.4341 12.623 48.8228 12.623 49.6001C12.623 49.9399 12.7363 50.2056 12.9629 50.397C13.1895 50.5884 13.4805 50.6841 13.8359 50.6841ZM19.2734 45.1704L19.3086 45.9673C19.793 45.3579 20.4258 45.0532 21.207 45.0532C22.5469 45.0532 23.2227 45.8091 23.2344 47.3208V51.5103H22.1504V47.3149C22.1465 46.8579 22.041 46.52 21.834 46.3013C21.6309 46.0825 21.3125 45.9731 20.8789 45.9731C20.5273 45.9731 20.2188 46.0669 19.9531 46.2544C19.6875 46.4419 19.4805 46.688 19.332 46.9927V51.5103H18.248V45.1704H19.2734ZM26.0469 51.5103H24.9629V45.1704H26.0469V51.5103ZM24.875 43.4888C24.875 43.313 24.9277 43.1646 25.0332 43.0435C25.1426 42.9224 25.3027 42.8618 25.5137 42.8618C25.7246 42.8618 25.8848 42.9224 25.9941 43.0435C26.1035 43.1646 26.1582 43.313 26.1582 43.4888C26.1582 43.6646 26.1035 43.811 25.9941 43.9282C25.8848 44.0454 25.7246 44.104 25.5137 44.104C25.3027 44.104 25.1426 44.0454 25.0332 43.9282C24.9277 43.811 24.875 43.6646 24.875 43.4888ZM33.1426 48.4106C33.1426 49.3755 32.9219 50.1528 32.4805 50.7427C32.0391 51.3325 31.4414 51.6274 30.6875 51.6274C29.918 51.6274 29.3125 51.3833 28.8711 50.895V53.9478H27.7871V45.1704H28.7773L28.8301 45.8735C29.2715 45.3267 29.8848 45.0532 30.6699 45.0532C31.4316 45.0532 32.0332 45.3403 32.4746 45.9146C32.9199 46.4888 33.1426 47.2876 33.1426 48.311V48.4106ZM32.0586 48.2876C32.0586 47.5728 31.9062 47.0083 31.6016 46.5942C31.2969 46.1802 30.8789 45.9731 30.3477 45.9731C29.6914 45.9731 29.1992 46.2642 28.8711 46.8462V49.8755C29.1953 50.4536 29.6914 50.7427 30.3594 50.7427C30.8789 50.7427 31.291 50.5376 31.5957 50.1274C31.9043 49.7134 32.0586 49.1001 32.0586 48.2876ZM38.4395 50.8833C38.0176 51.3794 37.3984 51.6274 36.582 51.6274C35.9062 51.6274 35.3906 51.4321 35.0352 51.0415C34.6836 50.647 34.5059 50.0649 34.502 49.2954V45.1704H35.5859V49.2661C35.5859 50.2271 35.9766 50.7075 36.7578 50.7075C37.5859 50.7075 38.1367 50.3989 38.4102 49.7817V45.1704H39.4941V51.5103H38.4629L38.4395 50.8833ZM42.3242 51.5103H41.2402V42.5103H42.3242V51.5103ZM47.9785 51.5103C47.916 51.3853 47.8652 51.1626 47.8262 50.8423C47.3223 51.3657 46.7207 51.6274 46.0215 51.6274C45.3965 51.6274 44.8828 51.4517 44.4805 51.1001C44.082 50.7446 43.8828 50.2954 43.8828 49.7524C43.8828 49.0923 44.1328 48.5806 44.6328 48.2173C45.1367 47.8501 45.8438 47.6665 46.7539 47.6665H47.8086V47.1685C47.8086 46.7896 47.6953 46.4888 47.4688 46.2661C47.2422 46.0396 46.9082 45.9263 46.4668 45.9263C46.0801 45.9263 45.7559 46.0239 45.4941 46.2192C45.2324 46.4146 45.1016 46.6509 45.1016 46.9282H44.0117C44.0117 46.6118 44.123 46.3071 44.3457 46.0142C44.5723 45.7173 44.877 45.4829 45.2598 45.311C45.6465 45.1392 46.0703 45.0532 46.5312 45.0532C47.2617 45.0532 47.834 45.2368 48.248 45.604C48.6621 45.9673 48.877 46.4692 48.8926 47.1099V50.0278C48.8926 50.6099 48.9668 51.0728 49.1152 51.4165V51.5103H47.9785ZM46.1797 50.6841C46.5195 50.6841 46.8418 50.5962 47.1465 50.4204C47.4512 50.2446 47.6719 50.0161 47.8086 49.7349V48.4341H46.959C45.6309 48.4341 44.9668 48.8228 44.9668 49.6001C44.9668 49.9399 45.0801 50.2056 45.3066 50.397C45.5332 50.5884 45.8242 50.6841 46.1797 50.6841ZM50.3281 48.2876C50.3281 47.3149 50.5586 46.5337 51.0195 45.9438C51.4805 45.3501 52.084 45.0532 52.8301 45.0532C53.5723 45.0532 54.1602 45.3071 54.5938 45.8149V42.5103H55.6777V51.5103H54.6816L54.6289 50.8306C54.1953 51.3618 53.5918 51.6274 52.8184 51.6274C52.084 51.6274 51.4844 51.3267 51.0195 50.7251C50.5586 50.1235 50.3281 49.3384 50.3281 48.3696V48.2876ZM51.4121 48.4106C51.4121 49.1294 51.5605 49.6919 51.8574 50.0981C52.1543 50.5044 52.5645 50.7075 53.0879 50.7075C53.7754 50.7075 54.2773 50.3989 54.5938 49.7817V46.8696C54.2695 46.272 53.7715 45.9731 53.0996 45.9731C52.5684 45.9731 52.1543 46.1782 51.8574 46.5884C51.5605 46.9985 51.4121 47.606 51.4121 48.4106ZM57.0781 48.2817C57.0781 47.6606 57.1992 47.1021 57.4414 46.606C57.6875 46.1099 58.0273 45.7271 58.4609 45.4575C58.8984 45.188 59.3965 45.0532 59.9551 45.0532C60.8184 45.0532 61.5156 45.3521 62.0469 45.9497C62.582 46.5474 62.8496 47.3423 62.8496 48.3345V48.4106C62.8496 49.0278 62.7305 49.5825 62.4922 50.0747C62.2578 50.563 61.9199 50.9438 61.4785 51.2173C61.041 51.4907 60.5371 51.6274 59.9668 51.6274C59.1074 51.6274 58.4102 51.3286 57.875 50.731C57.3438 50.1333 57.0781 49.3423 57.0781 48.3579V48.2817ZM58.168 48.4106C58.168 49.1138 58.3301 49.6782 58.6543 50.104C58.9824 50.5298 59.4199 50.7427 59.9668 50.7427C60.5176 50.7427 60.9551 50.5278 61.2793 50.0981C61.6035 49.6646 61.7656 49.0591 61.7656 48.2817C61.7656 47.5864 61.5996 47.0239 61.2676 46.5942C60.9395 46.1606 60.502 45.9438 59.9551 45.9438C59.4199 45.9438 58.9883 46.1567 58.6602 46.5825C58.332 47.0083 58.168 47.6177 58.168 48.4106ZM67.9004 49.8286C67.9004 49.5356 67.7891 49.3091 67.5664 49.1489C67.3477 48.9849 66.9629 48.8442 66.4121 48.7271C65.8652 48.6099 65.4297 48.4692 65.1055 48.3052C64.7852 48.1411 64.5469 47.9458 64.3906 47.7192C64.2383 47.4927 64.1621 47.2231 64.1621 46.9106C64.1621 46.3911 64.3809 45.9517 64.8184 45.5923C65.2598 45.2329 65.8223 45.0532 66.5059 45.0532C67.2246 45.0532 67.8066 45.2388 68.252 45.6099C68.7012 45.981 68.9258 46.4556 68.9258 47.0337H67.8359C67.8359 46.7368 67.709 46.481 67.4551 46.2661C67.2051 46.0513 66.8887 45.9438 66.5059 45.9438C66.1113 45.9438 65.8027 46.0298 65.5801 46.2017C65.3574 46.3735 65.2461 46.5981 65.2461 46.8755C65.2461 47.1372 65.3496 47.3345 65.5566 47.4673C65.7637 47.6001 66.1367 47.7271 66.6758 47.8481C67.2188 47.9692 67.6582 48.1138 67.9941 48.2817C68.3301 48.4497 68.5781 48.6528 68.7383 48.8911C68.9023 49.1255 68.9844 49.4126 68.9844 49.7524C68.9844 50.3188 68.7578 50.7739 68.3047 51.1177C67.8516 51.4575 67.2637 51.6274 66.541 51.6274C66.0332 51.6274 65.584 51.5376 65.1934 51.3579C64.8027 51.1782 64.4961 50.9282 64.2734 50.6079C64.0547 50.2837 63.9453 49.9341 63.9453 49.5591H65.0293C65.0488 49.9224 65.1934 50.2114 65.4629 50.4263C65.7363 50.6372 66.0957 50.7427 66.541 50.7427C66.9512 50.7427 67.2793 50.6606 67.5254 50.4966C67.7754 50.3286 67.9004 50.106 67.9004 49.8286Z" fill="white"/>
<path d="M19 15.3188H49.3592" stroke="white" stroke-width="1.69596" stroke-linecap="round" stroke-linejoin="round"/>
<path fill-rule="evenodd" clip-rule="evenodd" d="M47.3367 15.3188H21.0254C21.0248 20.2327 23.7651 24.7364 28.1295 26.9943C28.3805 27.1251 28.5655 27.3548 28.6398 27.6279C28.7141 27.901 28.671 28.1928 28.5207 28.4327C28.1925 28.9625 27.9004 29.5138 27.6464 30.0829C27.5053 30.3961 27.5328 30.7594 27.7193 31.0479C27.9058 31.3363 28.2258 31.5105 28.5693 31.5104H39.7928C40.136 31.5098 40.4556 31.3355 40.6419 31.0473C40.8282 30.759 40.856 30.3961 40.7157 30.0829C40.4617 29.5138 40.1696 28.9625 39.8414 28.4327C39.6916 28.1927 39.6487 27.9011 39.7229 27.6281C39.7972 27.3551 39.9819 27.1254 40.2327 26.9943C44.597 24.7364 47.3374 20.2327 47.3367 15.3188Z" stroke="white" stroke-width="1.69596" stroke-linecap="round" stroke-linejoin="round"/>
<path d="M37.2148 11.2709L42.554 2.37225C42.9824 1.65855 43.8491 1.33825 44.6387 1.6018V1.6018C45.0858 1.75079 45.4554 2.07143 45.6659 2.49307C45.8765 2.91472 45.9108 3.40278 45.7613 3.84973L43.2867 11.2709" stroke="white" stroke-width="1.69596" stroke-linecap="round" stroke-linejoin="round"/>
</svg>
