<svg width="80" height="65" viewBox="0 0 80 65" fill="none" xmlns="http://www.w3.org/2000/svg">
<path d="M2.59961 38.7397L5.38867 45.7007L8.17773 38.7397H9.63672V47.271H8.51172V43.9487L8.61719 40.3628L5.81641 47.271H4.95508L2.16016 40.3804L2.27148 43.9487V47.271H1.14648V38.7397H2.59961ZM14.084 47.3882C13.2246 47.3882 12.5254 47.1069 11.9863 46.5444C11.4473 45.978 11.1777 45.2222 11.1777 44.2769V44.0776C11.1777 43.4487 11.2969 42.8882 11.5352 42.396C11.7773 41.8999 12.1133 41.5132 12.543 41.2358C12.9766 40.9546 13.4453 40.814 13.9492 40.814C14.7734 40.814 15.4141 41.0854 15.8711 41.6284C16.3281 42.1714 16.5566 42.9487 16.5566 43.9604V44.4116H12.2617C12.2773 45.0366 12.459 45.5425 12.8066 45.9292C13.1582 46.312 13.6035 46.5034 14.1426 46.5034C14.5254 46.5034 14.8496 46.4253 15.1152 46.269C15.3809 46.1128 15.6133 45.9058 15.8125 45.6479L16.4746 46.1636C15.9434 46.98 15.1465 47.3882 14.084 47.3882ZM13.9492 41.7046C13.5117 41.7046 13.1445 41.8647 12.8477 42.1851C12.5508 42.5015 12.3672 42.9468 12.2969 43.521H15.4727V43.439C15.4414 42.8882 15.293 42.4624 15.0273 42.1616C14.7617 41.8569 14.4023 41.7046 13.9492 41.7046ZM17.5527 44.0483C17.5527 43.0757 17.7832 42.2944 18.2441 41.7046C18.7051 41.1108 19.3086 40.814 20.0547 40.814C20.7969 40.814 21.3848 41.0679 21.8184 41.5757V38.271H22.9023V47.271H21.9062L21.8535 46.5913C21.4199 47.1226 20.8164 47.3882 20.043 47.3882C19.3086 47.3882 18.709 47.0874 18.2441 46.4858C17.7832 45.8843 17.5527 45.0991 17.5527 44.1304V44.0483ZM18.6367 44.1714C18.6367 44.8901 18.7852 45.4526 19.082 45.8589C19.3789 46.2651 19.7891 46.4683 20.3125 46.4683C21 46.4683 21.502 46.1597 21.8184 45.5425V42.6304C21.4941 42.0327 20.9961 41.7339 20.3242 41.7339C19.793 41.7339 19.3789 41.939 19.082 42.3491C18.7852 42.7593 18.6367 43.3667 18.6367 44.1714ZM25.7676 47.271H24.6836V40.9312H25.7676V47.271ZM24.5957 39.2495C24.5957 39.0737 24.6484 38.9253 24.7539 38.8042C24.8633 38.6831 25.0234 38.6226 25.2344 38.6226C25.4453 38.6226 25.6055 38.6831 25.7148 38.8042C25.8242 38.9253 25.8789 39.0737 25.8789 39.2495C25.8789 39.4253 25.8242 39.5718 25.7148 39.689C25.6055 39.8062 25.4453 39.8647 25.2344 39.8647C25.0234 39.8647 24.8633 39.8062 24.7539 39.689C24.6484 39.5718 24.5957 39.4253 24.5957 39.2495ZM30.0508 46.5034C30.4375 46.5034 30.7754 46.3862 31.0645 46.1519C31.3535 45.9175 31.5137 45.6245 31.5449 45.2729H32.5703C32.5508 45.6362 32.4258 45.9819 32.1953 46.3101C31.9648 46.6382 31.6562 46.8999 31.2695 47.0952C30.8867 47.2905 30.4805 47.3882 30.0508 47.3882C29.1875 47.3882 28.5 47.1011 27.9883 46.5269C27.4805 45.9487 27.2266 45.1597 27.2266 44.1597V43.978C27.2266 43.3608 27.3398 42.812 27.5664 42.3315C27.793 41.8511 28.1172 41.478 28.5391 41.2124C28.9648 40.9468 29.4668 40.814 30.0449 40.814C30.7559 40.814 31.3457 41.0269 31.8145 41.4526C32.2871 41.8784 32.5391 42.4312 32.5703 43.1108H31.5449C31.5137 42.7007 31.3574 42.3647 31.0762 42.103C30.7988 41.8374 30.4551 41.7046 30.0449 41.7046C29.4941 41.7046 29.0664 41.9038 28.7617 42.3022C28.4609 42.6968 28.3105 43.269 28.3105 44.019V44.2241C28.3105 44.9546 28.4609 45.5171 28.7617 45.9116C29.0625 46.3062 29.4922 46.5034 30.0508 46.5034ZM37.7031 47.271C37.6406 47.146 37.5898 46.9233 37.5508 46.603C37.0469 47.1265 36.4453 47.3882 35.7461 47.3882C35.1211 47.3882 34.6074 47.2124 34.2051 46.8608C33.8066 46.5054 33.6074 46.0562 33.6074 45.5132C33.6074 44.853 33.8574 44.3413 34.3574 43.978C34.8613 43.6108 35.5684 43.4272 36.4785 43.4272H37.5332V42.9292C37.5332 42.5503 37.4199 42.2495 37.1934 42.0269C36.9668 41.8003 36.6328 41.687 36.1914 41.687C35.8047 41.687 35.4805 41.7847 35.2188 41.98C34.957 42.1753 34.8262 42.4116 34.8262 42.689H33.7363C33.7363 42.3726 33.8477 42.0679 34.0703 41.7749C34.2969 41.478 34.6016 41.2437 34.9844 41.0718C35.3711 40.8999 35.7949 40.814 36.2559 40.814C36.9863 40.814 37.5586 40.9976 37.9727 41.3647C38.3867 41.728 38.6016 42.23 38.6172 42.8706V45.7886C38.6172 46.3706 38.6914 46.8335 38.8398 47.1772V47.271H37.7031ZM35.9043 46.4448C36.2441 46.4448 36.5664 46.3569 36.8711 46.1812C37.1758 46.0054 37.3965 45.7769 37.5332 45.4956V44.1948H36.6836C35.3555 44.1948 34.6914 44.5835 34.6914 45.3608C34.6914 45.7007 34.8047 45.9663 35.0312 46.1577C35.2578 46.3491 35.5488 46.4448 35.9043 46.4448ZM41.3359 40.9312L41.3652 41.6343C41.8301 41.0874 42.457 40.814 43.2461 40.814C44.1328 40.814 44.7363 41.1538 45.0566 41.8335C45.2676 41.5288 45.541 41.2827 45.877 41.0952C46.2168 40.9077 46.6172 40.814 47.0781 40.814C48.4688 40.814 49.1758 41.5503 49.1992 43.0229V47.271H48.1152V43.0874C48.1152 42.6343 48.0117 42.2964 47.8047 42.0737C47.5977 41.8472 47.25 41.7339 46.7617 41.7339C46.3594 41.7339 46.0254 41.855 45.7598 42.0972C45.4941 42.3354 45.3398 42.6577 45.2969 43.064V47.271H44.207V43.1167C44.207 42.1948 43.7559 41.7339 42.8535 41.7339C42.1426 41.7339 41.6562 42.0366 41.3945 42.6421V47.271H40.3105V40.9312H41.3359ZM53.4707 47.3882C52.6113 47.3882 51.9121 47.1069 51.373 46.5444C50.834 45.978 50.5645 45.2222 50.5645 44.2769V44.0776C50.5645 43.4487 50.6836 42.8882 50.9219 42.396C51.1641 41.8999 51.5 41.5132 51.9297 41.2358C52.3633 40.9546 52.832 40.814 53.3359 40.814C54.1602 40.814 54.8008 41.0854 55.2578 41.6284C55.7148 42.1714 55.9434 42.9487 55.9434 43.9604V44.4116H51.6484C51.6641 45.0366 51.8457 45.5425 52.1934 45.9292C52.5449 46.312 52.9902 46.5034 53.5293 46.5034C53.9121 46.5034 54.2363 46.4253 54.502 46.269C54.7676 46.1128 55 45.9058 55.1992 45.6479L55.8613 46.1636C55.3301 46.98 54.5332 47.3882 53.4707 47.3882ZM53.3359 41.7046C52.8984 41.7046 52.5312 41.8647 52.2344 42.1851C51.9375 42.5015 51.7539 42.9468 51.6836 43.521H54.8594V43.439C54.8281 42.8882 54.6797 42.4624 54.4141 42.1616C54.1484 41.8569 53.7891 41.7046 53.3359 41.7046ZM58.2285 40.9312L58.2637 41.728C58.748 41.1187 59.3809 40.814 60.1621 40.814C61.502 40.814 62.1777 41.5698 62.1895 43.0815V47.271H61.1055V43.0757C61.1016 42.6187 60.9961 42.2808 60.7891 42.062C60.5859 41.8433 60.2676 41.7339 59.834 41.7339C59.4824 41.7339 59.1738 41.8276 58.9082 42.0151C58.6426 42.2026 58.4355 42.4487 58.2871 42.7534V47.271H57.2031V40.9312H58.2285ZM65.2949 39.396V40.9312H66.4785V41.769H65.2949V45.7007C65.2949 45.9546 65.3477 46.146 65.4531 46.2749C65.5586 46.3999 65.7383 46.4624 65.9922 46.4624C66.1172 46.4624 66.2891 46.439 66.5078 46.3921V47.271C66.2227 47.3491 65.9453 47.3882 65.6758 47.3882C65.1914 47.3882 64.8262 47.2417 64.5801 46.9487C64.334 46.6558 64.2109 46.2397 64.2109 45.7007V41.769H63.0566V40.9312H64.2109V39.396H65.2949ZM67.3457 44.0425C67.3457 43.4214 67.4668 42.8628 67.709 42.3667C67.9551 41.8706 68.2949 41.4878 68.7285 41.2183C69.166 40.9487 69.6641 40.814 70.2227 40.814C71.0859 40.814 71.7832 41.1128 72.3145 41.7104C72.8496 42.3081 73.1172 43.103 73.1172 44.0952V44.1714C73.1172 44.7886 72.998 45.3433 72.7598 45.8354C72.5254 46.3237 72.1875 46.7046 71.7461 46.978C71.3086 47.2515 70.8047 47.3882 70.2344 47.3882C69.375 47.3882 68.6777 47.0894 68.1426 46.4917C67.6113 45.894 67.3457 45.103 67.3457 44.1187V44.0425ZM68.4355 44.1714C68.4355 44.8745 68.5977 45.439 68.9219 45.8647C69.25 46.2905 69.6875 46.5034 70.2344 46.5034C70.7852 46.5034 71.2227 46.2886 71.5469 45.8589C71.8711 45.4253 72.0332 44.8198 72.0332 44.0425C72.0332 43.3472 71.8672 42.7847 71.5352 42.355C71.207 41.9214 70.7695 41.7046 70.2227 41.7046C69.6875 41.7046 69.2559 41.9175 68.9277 42.3433C68.5996 42.769 68.4355 43.3784 68.4355 44.1714ZM78.168 45.5894C78.168 45.2964 78.0566 45.0698 77.834 44.9097C77.6152 44.7456 77.2305 44.605 76.6797 44.4878C76.1328 44.3706 75.6973 44.23 75.373 44.0659C75.0527 43.9019 74.8145 43.7065 74.6582 43.48C74.5059 43.2534 74.4297 42.9839 74.4297 42.6714C74.4297 42.1519 74.6484 41.7124 75.0859 41.353C75.5273 40.9937 76.0898 40.814 76.7734 40.814C77.4922 40.814 78.0742 40.9995 78.5195 41.3706C78.9688 41.7417 79.1934 42.2163 79.1934 42.7944H78.1035C78.1035 42.4976 77.9766 42.2417 77.7227 42.0269C77.4727 41.812 77.1562 41.7046 76.7734 41.7046C76.3789 41.7046 76.0703 41.7905 75.8477 41.9624C75.625 42.1343 75.5137 42.3589 75.5137 42.6362C75.5137 42.8979 75.6172 43.0952 75.8242 43.228C76.0312 43.3608 76.4043 43.4878 76.9434 43.6089C77.4863 43.73 77.9258 43.8745 78.2617 44.0425C78.5977 44.2104 78.8457 44.4136 79.0059 44.6519C79.1699 44.8862 79.252 45.1733 79.252 45.5132C79.252 46.0796 79.0254 46.5347 78.5723 46.8784C78.1191 47.2183 77.5312 47.3882 76.8086 47.3882C76.3008 47.3882 75.8516 47.2983 75.4609 47.1187C75.0703 46.939 74.7637 46.689 74.541 46.3687C74.3223 46.0444 74.2129 45.6948 74.2129 45.3198H75.2969C75.3164 45.6831 75.4609 45.9722 75.7305 46.187C76.0039 46.3979 76.3633 46.5034 76.8086 46.5034C77.2188 46.5034 77.5469 46.4214 77.793 46.2573C78.043 46.0894 78.168 45.8667 78.168 45.5894ZM22.5449 61.3882C21.6855 61.3882 20.9863 61.1069 20.4473 60.5444C19.9082 59.978 19.6387 59.2222 19.6387 58.2769V58.0776C19.6387 57.4487 19.7578 56.8882 19.9961 56.396C20.2383 55.8999 20.5742 55.5132 21.0039 55.2358C21.4375 54.9546 21.9062 54.814 22.4102 54.814C23.2344 54.814 23.875 55.0854 24.332 55.6284C24.7891 56.1714 25.0176 56.9487 25.0176 57.9604V58.4116H20.7227C20.7383 59.0366 20.9199 59.5425 21.2676 59.9292C21.6191 60.312 22.0645 60.5034 22.6035 60.5034C22.9863 60.5034 23.3105 60.4253 23.5762 60.269C23.8418 60.1128 24.0742 59.9058 24.2734 59.6479L24.9355 60.1636C24.4043 60.98 23.6074 61.3882 22.5449 61.3882ZM22.4102 55.7046C21.9727 55.7046 21.6055 55.8647 21.3086 56.1851C21.0117 56.5015 20.8281 56.9468 20.7578 57.521H23.9336V57.439C23.9023 56.8882 23.7539 56.4624 23.4883 56.1616C23.2227 55.8569 22.8633 55.7046 22.4102 55.7046ZM32.9453 59.5894C32.9453 59.2964 32.834 59.0698 32.6113 58.9097C32.3926 58.7456 32.0078 58.605 31.457 58.4878C30.9102 58.3706 30.4746 58.23 30.1504 58.0659C29.8301 57.9019 29.5918 57.7065 29.4355 57.48C29.2832 57.2534 29.207 56.9839 29.207 56.6714C29.207 56.1519 29.4258 55.7124 29.8633 55.353C30.3047 54.9937 30.8672 54.814 31.5508 54.814C32.2695 54.814 32.8516 54.9995 33.2969 55.3706C33.7461 55.7417 33.9707 56.2163 33.9707 56.7944H32.8809C32.8809 56.4976 32.7539 56.2417 32.5 56.0269C32.25 55.812 31.9336 55.7046 31.5508 55.7046C31.1562 55.7046 30.8477 55.7905 30.625 55.9624C30.4023 56.1343 30.291 56.3589 30.291 56.6362C30.291 56.8979 30.3945 57.0952 30.6016 57.228C30.8086 57.3608 31.1816 57.4878 31.7207 57.6089C32.2637 57.73 32.7031 57.8745 33.0391 58.0425C33.375 58.2104 33.623 58.4136 33.7832 58.6519C33.9473 58.8862 34.0293 59.1733 34.0293 59.5132C34.0293 60.0796 33.8027 60.5347 33.3496 60.8784C32.8965 61.2183 32.3086 61.3882 31.5859 61.3882C31.0781 61.3882 30.6289 61.2983 30.2383 61.1187C29.8477 60.939 29.541 60.689 29.3184 60.3687C29.0996 60.0444 28.9902 59.6948 28.9902 59.3198H30.0742C30.0938 59.6831 30.2383 59.9722 30.5078 60.187C30.7812 60.3979 31.1406 60.5034 31.5859 60.5034C31.9961 60.5034 32.3242 60.4214 32.5703 60.2573C32.8203 60.0894 32.9453 59.8667 32.9453 59.5894ZM39.3555 61.271C39.293 61.146 39.2422 60.9233 39.2031 60.603C38.6992 61.1265 38.0977 61.3882 37.3984 61.3882C36.7734 61.3882 36.2598 61.2124 35.8574 60.8608C35.459 60.5054 35.2598 60.0562 35.2598 59.5132C35.2598 58.853 35.5098 58.3413 36.0098 57.978C36.5137 57.6108 37.2207 57.4272 38.1309 57.4272H39.1855V56.9292C39.1855 56.5503 39.0723 56.2495 38.8457 56.0269C38.6191 55.8003 38.2852 55.687 37.8438 55.687C37.457 55.687 37.1328 55.7847 36.8711 55.98C36.6094 56.1753 36.4785 56.4116 36.4785 56.689H35.3887C35.3887 56.3726 35.5 56.0679 35.7227 55.7749C35.9492 55.478 36.2539 55.2437 36.6367 55.0718C37.0234 54.8999 37.4473 54.814 37.9082 54.814C38.6387 54.814 39.2109 54.9976 39.625 55.3647C40.0391 55.728 40.2539 56.23 40.2695 56.8706V59.7886C40.2695 60.3706 40.3438 60.8335 40.4922 61.1772V61.271H39.3555ZM37.5566 60.4448C37.8965 60.4448 38.2188 60.3569 38.5234 60.1812C38.8281 60.0054 39.0488 59.7769 39.1855 59.4956V58.1948H38.3359C37.0078 58.1948 36.3438 58.5835 36.3438 59.3608C36.3438 59.7007 36.457 59.9663 36.6836 60.1577C36.9102 60.3491 37.2012 60.4448 37.5566 60.4448ZM45.8828 60.644C45.4609 61.1401 44.8418 61.3882 44.0254 61.3882C43.3496 61.3882 42.834 61.1929 42.4785 60.8022C42.127 60.4077 41.9492 59.8257 41.9453 59.0562V54.9312H43.0293V59.0269C43.0293 59.9878 43.4199 60.4683 44.2012 60.4683C45.0293 60.4683 45.5801 60.1597 45.8535 59.5425V54.9312H46.9375V61.271H45.9062L45.8828 60.644ZM45.0039 52.271H46.3164L44.7461 53.9937H43.873L45.0039 52.271ZM48.3262 58.0483C48.3262 57.0757 48.5566 56.2944 49.0176 55.7046C49.4785 55.1108 50.082 54.814 50.8281 54.814C51.5703 54.814 52.1582 55.0679 52.5918 55.5757V52.271H53.6758V61.271H52.6797L52.627 60.5913C52.1934 61.1226 51.5898 61.3882 50.8164 61.3882C50.082 61.3882 49.4824 61.0874 49.0176 60.4858C48.5566 59.8843 48.3262 59.0991 48.3262 58.1304V58.0483ZM49.4102 58.1714C49.4102 58.8901 49.5586 59.4526 49.8555 59.8589C50.1523 60.2651 50.5625 60.4683 51.0859 60.4683C51.7734 60.4683 52.2754 60.1597 52.5918 59.5425V56.6304C52.2676 56.0327 51.7695 55.7339 51.0977 55.7339C50.5664 55.7339 50.1523 55.939 49.8555 56.3491C49.5586 56.7593 49.4102 57.3667 49.4102 58.1714ZM57.9941 61.3882C57.1348 61.3882 56.4355 61.1069 55.8965 60.5444C55.3574 59.978 55.0879 59.2222 55.0879 58.2769V58.0776C55.0879 57.4487 55.207 56.8882 55.4453 56.396C55.6875 55.8999 56.0234 55.5132 56.4531 55.2358C56.8867 54.9546 57.3555 54.814 57.8594 54.814C58.6836 54.814 59.3242 55.0854 59.7812 55.6284C60.2383 56.1714 60.4668 56.9487 60.4668 57.9604V58.4116H56.1719C56.1875 59.0366 56.3691 59.5425 56.7168 59.9292C57.0684 60.312 57.5137 60.5034 58.0527 60.5034C58.4355 60.5034 58.7598 60.4253 59.0254 60.269C59.291 60.1128 59.5234 59.9058 59.7227 59.6479L60.3848 60.1636C59.8535 60.98 59.0566 61.3882 57.9941 61.3882ZM57.8594 55.7046C57.4219 55.7046 57.0547 55.8647 56.7578 56.1851C56.4609 56.5015 56.2773 56.9468 56.207 57.521H59.3828V57.439C59.3516 56.8882 59.2031 56.4624 58.9375 56.1616C58.6719 55.8569 58.3125 55.7046 57.8594 55.7046Z" fill="white"/>
<path fill-rule="evenodd" clip-rule="evenodd" d="M45.4988 29.0059C43.6412 30.7368 40.7465 30.6857 38.9512 28.8904C37.1558 27.095 37.1047 24.2003 38.8356 22.3428L46.8364 14.342C48.0117 13.0806 49.7818 12.5615 51.4522 12.988C53.1226 13.4146 54.4269 14.719 54.8535 16.3894C55.2801 18.0598 54.7609 19.8298 53.4996 21.0051L45.4988 29.0059Z" stroke="white" stroke-width="1.5" stroke-linecap="round" stroke-linejoin="round"/>
<path d="M42.8301 18.3374L49.4982 25.0056" stroke="white" stroke-width="1.5" stroke-linecap="round" stroke-linejoin="round"/>
<path fill-rule="evenodd" clip-rule="evenodd" d="M33.7152 17.3952C38.2275 17.3952 41.8855 13.7373 41.8855 9.22496C41.8855 4.71264 38.2275 1.05469 33.7152 1.05469C29.2029 1.05469 25.5449 4.71264 25.5449 9.22496C25.5449 13.7373 29.2029 17.3952 33.7152 17.3952Z" stroke="white" stroke-width="1.5" stroke-linecap="round" stroke-linejoin="round"/>
<path fill-rule="evenodd" clip-rule="evenodd" d="M38.0721 7.59086H35.3487V4.86744C35.3487 4.56662 35.1049 4.32275 34.804 4.32275H32.6253C32.3245 4.32275 32.0806 4.56662 32.0806 4.86744V7.59086H29.3572C29.0564 7.59086 28.8125 7.83473 28.8125 8.13555V10.3143C28.8125 10.6151 29.0564 10.859 29.3572 10.859H32.0806V13.5824C32.0806 13.8832 32.3245 14.1271 32.6253 14.1271H34.804C35.1049 14.1271 35.3487 13.8832 35.3487 13.5824V10.859H38.0721C38.373 10.859 38.6168 10.6151 38.6168 10.3143V8.13555C38.6168 7.83473 38.373 7.59086 38.0721 7.59086Z" stroke="white" stroke-width="1.5" stroke-linecap="round" stroke-linejoin="round"/>
</svg>
