<svg width="79" height="54" viewBox="0 0 79 54" fill="none" xmlns="http://www.w3.org/2000/svg">
<path fill-rule="evenodd" clip-rule="evenodd" d="M43.6895 29.3862H41.8145C39.7434 29.3862 38.0645 27.7745 38.0645 25.7862H37.127C36.0914 25.7862 35.252 24.9803 35.252 23.9862C35.252 22.9921 36.0914 22.1862 37.127 22.1862H38.0645C40.1355 22.1862 41.8145 23.798 41.8145 25.7862H43.6895V22.1862C43.6895 21.1921 44.5289 20.3862 45.5645 20.3862C46.6 20.3862 47.4395 21.1921 47.4395 22.1862V25.7862C47.4395 26.741 47.0444 27.6567 46.3411 28.3318C45.6378 29.0069 44.684 29.3862 43.6895 29.3862V29.3862Z" stroke="#8C8C8C" stroke-width="1.5" stroke-linecap="round" stroke-linejoin="round"/>
<path fill-rule="evenodd" clip-rule="evenodd" d="M50.252 29.3863C51.8053 29.3863 53.0645 28.1775 53.0645 26.6863C53.0645 25.1952 51.8053 23.9863 50.252 23.9863C48.6987 23.9863 47.4395 25.1952 47.4395 26.6863C47.4395 28.1775 48.6987 29.3863 50.252 29.3863Z" stroke="#8C8C8C" stroke-width="1.5" stroke-linecap="round" stroke-linejoin="round"/>
<path fill-rule="evenodd" clip-rule="evenodd" d="M39.002 9.13594C40.8141 9.13594 42.2832 7.72563 42.2832 5.98594C42.2832 4.24624 40.8141 2.83594 39.002 2.83594C37.1898 2.83594 35.7207 4.24624 35.7207 5.98594C35.7207 7.72563 37.1898 9.13594 39.002 9.13594Z" stroke="#8C8C8C" stroke-width="1.5" stroke-linecap="round" stroke-linejoin="round"/>
<path d="M24.9395 17.6862L31.9657 10.2006C32.4481 9.67105 33.2076 9.45982 33.9101 9.65977C34.6126 9.85972 35.1294 10.4342 35.2332 11.1306C35.2632 11.3178 36.032 15.8862 39.9395 15.8862C40.975 15.8862 41.8145 16.6921 41.8145 17.6862C41.8145 18.6803 40.975 19.4862 39.9395 19.4862C36.7831 19.4826 33.9233 17.6999 32.6357 14.9334C29.4634 19.0594 27.7518 24.0527 27.752 29.181V29.3862" stroke="#8C8C8C" stroke-width="1.5" stroke-linecap="round" stroke-linejoin="round"/>
<path d="M2.44336 41.979L5.23242 48.9399L8.02148 41.979H9.48047V50.5103H8.35547V47.188L8.46094 43.6021L5.66016 50.5103H4.79883L2.00391 43.6196L2.11523 47.188V50.5103H0.990234V41.979H2.44336ZM15.2109 50.5103C15.1484 50.3853 15.0977 50.1626 15.0586 49.8423C14.5547 50.3657 13.9531 50.6274 13.2539 50.6274C12.6289 50.6274 12.1152 50.4517 11.7129 50.1001C11.3145 49.7446 11.1152 49.2954 11.1152 48.7524C11.1152 48.0923 11.3652 47.5806 11.8652 47.2173C12.3691 46.8501 13.0762 46.6665 13.9863 46.6665H15.041V46.1685C15.041 45.7896 14.9277 45.4888 14.7012 45.2661C14.4746 45.0396 14.1406 44.9263 13.6992 44.9263C13.3125 44.9263 12.9883 45.0239 12.7266 45.2192C12.4648 45.4146 12.334 45.6509 12.334 45.9282H11.2441C11.2441 45.6118 11.3555 45.3071 11.5781 45.0142C11.8047 44.7173 12.1094 44.4829 12.4922 44.311C12.8789 44.1392 13.3027 44.0532 13.7637 44.0532C14.4941 44.0532 15.0664 44.2368 15.4805 44.604C15.8945 44.9673 16.1094 45.4692 16.125 46.1099V49.0278C16.125 49.6099 16.1992 50.0728 16.3477 50.4165V50.5103H15.2109ZM13.4121 49.6841C13.752 49.6841 14.0742 49.5962 14.3789 49.4204C14.6836 49.2446 14.9043 49.0161 15.041 48.7349V47.4341H14.1914C12.8633 47.4341 12.1992 47.8228 12.1992 48.6001C12.1992 48.9399 12.3125 49.2056 12.5391 49.397C12.7656 49.5884 13.0566 49.6841 13.4121 49.6841ZM18.8438 44.1704L18.873 44.8735C19.3379 44.3267 19.9648 44.0532 20.7539 44.0532C21.6406 44.0532 22.2441 44.3931 22.5645 45.0728C22.7754 44.7681 23.0488 44.522 23.3848 44.3345C23.7246 44.147 24.125 44.0532 24.5859 44.0532C25.9766 44.0532 26.6836 44.7896 26.707 46.2622V50.5103H25.623V46.3267C25.623 45.8735 25.5195 45.5356 25.3125 45.313C25.1055 45.0864 24.7578 44.9731 24.2695 44.9731C23.8672 44.9731 23.5332 45.0942 23.2676 45.3364C23.002 45.5747 22.8477 45.897 22.8047 46.3032V50.5103H21.7148V46.356C21.7148 45.4341 21.2637 44.9731 20.3613 44.9731C19.6504 44.9731 19.1641 45.2759 18.9023 45.8813V50.5103H17.8184V44.1704H18.8438ZM32.2617 50.5103C32.1992 50.3853 32.1484 50.1626 32.1094 49.8423C31.6055 50.3657 31.0039 50.6274 30.3047 50.6274C29.6797 50.6274 29.166 50.4517 28.7637 50.1001C28.3652 49.7446 28.166 49.2954 28.166 48.7524C28.166 48.0923 28.416 47.5806 28.916 47.2173C29.4199 46.8501 30.127 46.6665 31.0371 46.6665H32.0918V46.1685C32.0918 45.7896 31.9785 45.4888 31.752 45.2661C31.5254 45.0396 31.1914 44.9263 30.75 44.9263C30.3633 44.9263 30.0391 45.0239 29.7773 45.2192C29.5156 45.4146 29.3848 45.6509 29.3848 45.9282H28.2949C28.2949 45.6118 28.4062 45.3071 28.6289 45.0142C28.8555 44.7173 29.1602 44.4829 29.543 44.311C29.9297 44.1392 30.3535 44.0532 30.8145 44.0532C31.5449 44.0532 32.1172 44.2368 32.5312 44.604C32.9453 44.9673 33.1602 45.4692 33.1758 46.1099V49.0278C33.1758 49.6099 33.25 50.0728 33.3984 50.4165V50.5103H32.2617ZM30.4629 49.6841C30.8027 49.6841 31.125 49.5962 31.4297 49.4204C31.7344 49.2446 31.9551 49.0161 32.0918 48.7349V47.4341H31.2422C29.9141 47.4341 29.25 47.8228 29.25 48.6001C29.25 48.9399 29.3633 49.2056 29.5898 49.397C29.8164 49.5884 30.1074 49.6841 30.4629 49.6841ZM33.0117 41.6978C33.0117 42.1196 32.8906 42.4614 32.6484 42.7231C32.4102 42.9849 32.1113 43.1157 31.752 43.1157C31.5918 43.1157 31.4531 43.0962 31.3359 43.0571C31.2188 43.0181 31.0645 42.938 30.873 42.8169C30.6855 42.6958 30.5488 42.6235 30.4629 42.6001C30.3809 42.5728 30.2852 42.5591 30.1758 42.5591C30.0156 42.5591 29.8789 42.6216 29.7656 42.7466C29.6523 42.8677 29.5957 43.0239 29.5957 43.2153L28.8691 43.1743C28.8691 42.7563 28.9863 42.4106 29.2207 42.1372C29.459 41.8638 29.7598 41.7271 30.123 41.7271C30.2598 41.7271 30.3828 41.7466 30.4922 41.7856C30.6016 41.8247 30.75 41.9009 30.9375 42.0142C31.125 42.1274 31.2676 42.2017 31.3652 42.2368C31.4668 42.272 31.5781 42.2896 31.6992 42.2896C31.8672 42.2896 32.0059 42.2231 32.1152 42.0903C32.2285 41.9575 32.2852 41.8032 32.2852 41.6274L33.0117 41.6978ZM37.5059 50.6274C36.6465 50.6274 35.9473 50.3462 35.4082 49.7837C34.8691 49.2173 34.5996 48.4614 34.5996 47.5161V47.3169C34.5996 46.688 34.7188 46.1274 34.957 45.6353C35.1992 45.1392 35.5352 44.7524 35.9648 44.4751C36.3984 44.1938 36.8672 44.0532 37.3711 44.0532C38.1953 44.0532 38.8359 44.3247 39.293 44.8677C39.75 45.4106 39.9785 46.188 39.9785 47.1997V47.6509H35.6836C35.6992 48.2759 35.8809 48.7817 36.2285 49.1685C36.5801 49.5513 37.0254 49.7427 37.5645 49.7427C37.9473 49.7427 38.2715 49.6646 38.5371 49.5083C38.8027 49.3521 39.0352 49.145 39.2344 48.8872L39.8965 49.4028C39.3652 50.2192 38.5684 50.6274 37.5059 50.6274ZM37.3711 44.9438C36.9336 44.9438 36.5664 45.104 36.2695 45.4243C35.9727 45.7407 35.7891 46.186 35.7188 46.7603H38.8945V46.6782C38.8633 46.1274 38.7148 45.7017 38.4492 45.4009C38.1836 45.0962 37.8242 44.9438 37.3711 44.9438ZM46.8457 50.6274C45.9863 50.6274 45.2871 50.3462 44.748 49.7837C44.209 49.2173 43.9395 48.4614 43.9395 47.5161V47.3169C43.9395 46.688 44.0586 46.1274 44.2969 45.6353C44.5391 45.1392 44.875 44.7524 45.3047 44.4751C45.7383 44.1938 46.207 44.0532 46.7109 44.0532C47.5352 44.0532 48.1758 44.3247 48.6328 44.8677C49.0898 45.4106 49.3184 46.188 49.3184 47.1997V47.6509H45.0234C45.0391 48.2759 45.2207 48.7817 45.5684 49.1685C45.9199 49.5513 46.3652 49.7427 46.9043 49.7427C47.2871 49.7427 47.6113 49.6646 47.877 49.5083C48.1426 49.3521 48.375 49.145 48.5742 48.8872L49.2363 49.4028C48.7051 50.2192 47.9082 50.6274 46.8457 50.6274ZM46.7109 44.9438C46.2734 44.9438 45.9062 45.104 45.6094 45.4243C45.3125 45.7407 45.1289 46.186 45.0586 46.7603H48.2344V46.6782C48.2031 46.1274 48.0547 45.7017 47.7891 45.4009C47.5234 45.0962 47.1641 44.9438 46.7109 44.9438ZM58.9219 47.4106C58.9219 48.3794 58.6992 49.1587 58.2539 49.7485C57.8086 50.3345 57.2109 50.6274 56.4609 50.6274C55.6602 50.6274 55.041 50.3442 54.6035 49.7778L54.5508 50.5103H53.5547V41.5103H54.6387V44.8677C55.0762 44.3247 55.6797 44.0532 56.4492 44.0532C57.2188 44.0532 57.8223 44.3442 58.2598 44.9263C58.7012 45.5083 58.9219 46.3052 58.9219 47.3169V47.4106ZM57.8379 47.2876C57.8379 46.5493 57.6953 45.979 57.4102 45.5767C57.125 45.1743 56.7148 44.9731 56.1797 44.9731C55.4648 44.9731 54.9512 45.3052 54.6387 45.9692V48.7114C54.9707 49.3755 55.4883 49.7075 56.1914 49.7075C56.7109 49.7075 57.1152 49.5063 57.4043 49.104C57.6934 48.7017 57.8379 48.0962 57.8379 47.2876ZM62.9238 50.6274C62.0645 50.6274 61.3652 50.3462 60.8262 49.7837C60.2871 49.2173 60.0176 48.4614 60.0176 47.5161V47.3169C60.0176 46.688 60.1367 46.1274 60.375 45.6353C60.6172 45.1392 60.9531 44.7524 61.3828 44.4751C61.8164 44.1938 62.2852 44.0532 62.7891 44.0532C63.6133 44.0532 64.2539 44.3247 64.7109 44.8677C65.168 45.4106 65.3965 46.188 65.3965 47.1997V47.6509H61.1016C61.1172 48.2759 61.2988 48.7817 61.6465 49.1685C61.998 49.5513 62.4434 49.7427 62.9824 49.7427C63.3652 49.7427 63.6895 49.6646 63.9551 49.5083C64.2207 49.3521 64.4531 49.145 64.6523 48.8872L65.3145 49.4028C64.7832 50.2192 63.9863 50.6274 62.9238 50.6274ZM62.7891 44.9438C62.3516 44.9438 61.9844 45.104 61.6875 45.4243C61.3906 45.7407 61.207 46.186 61.1367 46.7603H64.3125V46.6782C64.2812 46.1274 64.1328 45.7017 63.8672 45.4009C63.6016 45.0962 63.2422 44.9438 62.7891 44.9438ZM72.0234 47.4106C72.0234 48.3794 71.8008 49.1587 71.3555 49.7485C70.9102 50.3345 70.3125 50.6274 69.5625 50.6274C68.7617 50.6274 68.1426 50.3442 67.7051 49.7778L67.6523 50.5103H66.6562V41.5103H67.7402V44.8677C68.1777 44.3247 68.7812 44.0532 69.5508 44.0532C70.3203 44.0532 70.9238 44.3442 71.3613 44.9263C71.8027 45.5083 72.0234 46.3052 72.0234 47.3169V47.4106ZM70.9395 47.2876C70.9395 46.5493 70.7969 45.979 70.5117 45.5767C70.2266 45.1743 69.8164 44.9731 69.2812 44.9731C68.5664 44.9731 68.0527 45.3052 67.7402 45.9692V48.7114C68.0723 49.3755 68.5898 49.7075 69.293 49.7075C69.8125 49.7075 70.2168 49.5063 70.5059 49.104C70.7949 48.7017 70.9395 48.0962 70.9395 47.2876ZM76.0254 50.6274C75.166 50.6274 74.4668 50.3462 73.9277 49.7837C73.3887 49.2173 73.1191 48.4614 73.1191 47.5161V47.3169C73.1191 46.688 73.2383 46.1274 73.4766 45.6353C73.7188 45.1392 74.0547 44.7524 74.4844 44.4751C74.918 44.1938 75.3867 44.0532 75.8906 44.0532C76.7148 44.0532 77.3555 44.3247 77.8125 44.8677C78.2695 45.4106 78.498 46.188 78.498 47.1997V47.6509H74.2031C74.2188 48.2759 74.4004 48.7817 74.748 49.1685C75.0996 49.5513 75.5449 49.7427 76.084 49.7427C76.4668 49.7427 76.791 49.6646 77.0566 49.5083C77.3223 49.3521 77.5547 49.145 77.7539 48.8872L78.416 49.4028C77.8848 50.2192 77.0879 50.6274 76.0254 50.6274ZM75.8906 44.9438C75.4531 44.9438 75.0859 45.104 74.7891 45.4243C74.4922 45.7407 74.3086 46.186 74.2383 46.7603H77.4141V46.6782C77.3828 46.1274 77.2344 45.7017 76.9688 45.4009C76.7031 45.0962 76.3438 44.9438 75.8906 44.9438ZM77.6602 43.1157V43.1743H76.7637L75.8848 42.1782L75.0117 43.1743H74.1152V43.104L75.5566 41.5103H76.2129L77.6602 43.1157Z" fill="#8C8C8C"/>
</svg>
