<svg width="40" height="52" viewBox="0 0 40 52" fill="none" xmlns="http://www.w3.org/2000/svg">
<path d="M21.6926 14.0518L19.8951 15.8493C19.3269 16.418 19.2421 17.31 19.693 17.9757C20.1438 18.6413 21.0036 18.8935 21.7426 18.5768L24.2951 17.4818C25.0339 17.1664 25.8926 17.419 26.3429 18.0842C26.7932 18.7495 26.7087 19.6405 26.1414 20.2093L24.3451 22.0105" stroke="#F14A50" stroke-width="1.5" stroke-linecap="round" stroke-linejoin="round"/>
<path d="M20.3669 15.3786L19.7031 14.7148" stroke="#F14A50" stroke-width="1.5" stroke-linecap="round" stroke-linejoin="round"/>
<path d="M26.3337 21.3437L25.6699 20.6812" stroke="#F14A50" stroke-width="1.5" stroke-linecap="round" stroke-linejoin="round"/>
<path d="M10.2294 9.51722L9.5469 14.3772C9.54434 14.8776 9.74192 15.3583 10.0956 15.7122L21.9707 27.5872C22.3223 27.9391 22.7994 28.1368 23.2969 28.1368C23.7944 28.1368 24.2715 27.9391 24.6232 27.5872L32.5769 19.636C33.3089 18.9038 33.3089 17.7169 32.5769 16.9847L20.5482 4.95222C20.1845 4.58844 19.6874 4.39004 19.1732 4.40347L14.3757 5.16347" stroke="#F14A50" stroke-width="1.5" stroke-linecap="round" stroke-linejoin="round"/>
<path fill-rule="evenodd" clip-rule="evenodd" d="M15.5527 12.438C16.5883 12.438 17.4277 11.5985 17.4277 10.563C17.4277 9.52745 16.5883 8.68799 15.5527 8.68799C14.5172 8.68799 13.6777 9.52745 13.6777 10.563C13.6777 11.5985 14.5172 12.438 15.5527 12.438Z" stroke="#F14A50" stroke-width="1.5" stroke-linecap="round" stroke-linejoin="round"/>
<path d="M14.2275 9.23824L6.875 1.88574" stroke="#F14A50" stroke-width="1.5" stroke-linecap="round" stroke-linejoin="round"/>
<path d="M7.73047 44.0205C7.73047 44.8564 7.58984 45.5869 7.30859 46.2119C7.02734 46.833 6.62891 47.3076 6.11328 47.6357C5.59766 47.9639 4.99609 48.1279 4.30859 48.1279C3.63672 48.1279 3.04102 47.9639 2.52148 47.6357C2.00195 47.3037 1.59766 46.833 1.30859 46.2236C1.02344 45.6104 0.876953 44.9014 0.869141 44.0967V43.4814C0.869141 42.6611 1.01172 41.9365 1.29688 41.3076C1.58203 40.6787 1.98438 40.1982 2.50391 39.8662C3.02734 39.5303 3.625 39.3623 4.29688 39.3623C4.98047 39.3623 5.58203 39.5283 6.10156 39.8604C6.625 40.1885 7.02734 40.667 7.30859 41.2959C7.58984 41.9209 7.73047 42.6494 7.73047 43.4814V44.0205ZM6.61133 43.4697C6.61133 42.458 6.4082 41.6826 6.00195 41.1436C5.5957 40.6006 5.02734 40.3291 4.29688 40.3291C3.58594 40.3291 3.02539 40.6006 2.61523 41.1436C2.20898 41.6826 2 42.4326 1.98828 43.3936V44.0205C1.98828 45.001 2.19336 45.7725 2.60352 46.335C3.01758 46.8936 3.58594 47.1729 4.30859 47.1729C5.03516 47.1729 5.59766 46.9092 5.99609 46.3818C6.39453 45.8506 6.59961 45.0908 6.61133 44.1025V43.4697ZM9.78125 48.0107V42.5088H8.7793V41.6709H9.78125V41.0205C9.78125 40.3408 9.96289 39.8154 10.3262 39.4443C10.6895 39.0732 11.2031 38.8877 11.8672 38.8877C12.1172 38.8877 12.3652 38.9209 12.6113 38.9873L12.5527 39.8662C12.3691 39.8311 12.1738 39.8135 11.9668 39.8135C11.6152 39.8135 11.3438 39.917 11.1523 40.124C10.9609 40.3271 10.8652 40.6201 10.8652 41.0029V41.6709H12.2188V42.5088H10.8652V48.0107H9.78125ZM15.9102 48.1279C15.0508 48.1279 14.3516 47.8467 13.8125 47.2842C13.2734 46.7178 13.0039 45.9619 13.0039 45.0166V44.8174C13.0039 44.1885 13.123 43.6279 13.3613 43.1357C13.6035 42.6396 13.9395 42.2529 14.3691 41.9756C14.8027 41.6943 15.2715 41.5537 15.7754 41.5537C16.5996 41.5537 17.2402 41.8252 17.6973 42.3682C18.1543 42.9111 18.3828 43.6885 18.3828 44.7002V45.1514H14.0879C14.1035 45.7764 14.2852 46.2822 14.6328 46.6689C14.9844 47.0518 15.4297 47.2432 15.9688 47.2432C16.3516 47.2432 16.6758 47.165 16.9414 47.0088C17.207 46.8525 17.4395 46.6455 17.6387 46.3877L18.3008 46.9033C17.7695 47.7197 16.9727 48.1279 15.9102 48.1279ZM15.7754 42.4443C15.3379 42.4443 14.9707 42.6045 14.6738 42.9248C14.377 43.2412 14.1934 43.6865 14.123 44.2607H17.2988V44.1787C17.2676 43.6279 17.1191 43.2021 16.8535 42.9014C16.5879 42.5967 16.2285 42.4443 15.7754 42.4443ZM22.707 42.6436C22.543 42.6162 22.3652 42.6025 22.1738 42.6025C21.4629 42.6025 20.9805 42.9053 20.7266 43.5107V48.0107H19.6426V41.6709H20.6973L20.7148 42.4033C21.0703 41.8369 21.5742 41.5537 22.2266 41.5537C22.4375 41.5537 22.5977 41.5811 22.707 41.6357V42.6436ZM25.4727 40.1357V41.6709H26.6562V42.5088H25.4727V46.4404C25.4727 46.6943 25.5254 46.8857 25.6309 47.0146C25.7363 47.1396 25.916 47.2021 26.1699 47.2021C26.2949 47.2021 26.4668 47.1787 26.6855 47.1318V48.0107C26.4004 48.0889 26.123 48.1279 25.8535 48.1279C25.3691 48.1279 25.0039 47.9814 24.7578 47.6885C24.5117 47.3955 24.3887 46.9795 24.3887 46.4404V42.5088H23.2344V41.6709H24.3887V40.1357H25.4727ZM31.8418 48.0107C31.7793 47.8857 31.7285 47.6631 31.6895 47.3428C31.1855 47.8662 30.584 48.1279 29.8848 48.1279C29.2598 48.1279 28.7461 47.9521 28.3438 47.6006C27.9453 47.2451 27.7461 46.7959 27.7461 46.2529C27.7461 45.5928 27.9961 45.0811 28.4961 44.7178C29 44.3506 29.707 44.167 30.6172 44.167H31.6719V43.6689C31.6719 43.29 31.5586 42.9893 31.332 42.7666C31.1055 42.54 30.7715 42.4268 30.3301 42.4268C29.9434 42.4268 29.6191 42.5244 29.3574 42.7197C29.0957 42.915 28.9648 43.1514 28.9648 43.4287H27.875C27.875 43.1123 27.9863 42.8076 28.209 42.5146C28.4355 42.2178 28.7402 41.9834 29.123 41.8115C29.5098 41.6396 29.9336 41.5537 30.3945 41.5537C31.125 41.5537 31.6973 41.7373 32.1113 42.1045C32.5254 42.4678 32.7402 42.9697 32.7559 43.6104V46.5283C32.7559 47.1104 32.8301 47.5732 32.9785 47.917V48.0107H31.8418ZM30.043 47.1846C30.3828 47.1846 30.7051 47.0967 31.0098 46.9209C31.3145 46.7451 31.5352 46.5166 31.6719 46.2354V44.9346H30.8223C29.4941 44.9346 28.8301 45.3232 28.8301 46.1006C28.8301 46.4404 28.9434 46.7061 29.1699 46.8975C29.3965 47.0889 29.6875 47.1846 30.043 47.1846ZM38.1465 46.3291C38.1465 46.0361 38.0352 45.8096 37.8125 45.6494C37.5938 45.4854 37.209 45.3447 36.6582 45.2275C36.1113 45.1104 35.6758 44.9697 35.3516 44.8057C35.0312 44.6416 34.793 44.4463 34.6367 44.2197C34.4844 43.9932 34.4082 43.7236 34.4082 43.4111C34.4082 42.8916 34.627 42.4521 35.0645 42.0928C35.5059 41.7334 36.0684 41.5537 36.752 41.5537C37.4707 41.5537 38.0527 41.7393 38.498 42.1104C38.9473 42.4814 39.1719 42.9561 39.1719 43.5342H38.082C38.082 43.2373 37.9551 42.9814 37.7012 42.7666C37.4512 42.5518 37.1348 42.4443 36.752 42.4443C36.3574 42.4443 36.0488 42.5303 35.8262 42.7021C35.6035 42.874 35.4922 43.0986 35.4922 43.376C35.4922 43.6377 35.5957 43.835 35.8027 43.9678C36.0098 44.1006 36.3828 44.2275 36.9219 44.3486C37.4648 44.4697 37.9043 44.6143 38.2402 44.7822C38.5762 44.9502 38.8242 45.1533 38.9844 45.3916C39.1484 45.626 39.2305 45.9131 39.2305 46.2529C39.2305 46.8193 39.0039 47.2744 38.5508 47.6182C38.0977 47.958 37.5098 48.1279 36.7871 48.1279C36.2793 48.1279 35.8301 48.0381 35.4395 47.8584C35.0488 47.6787 34.7422 47.4287 34.5195 47.1084C34.3008 46.7842 34.1914 46.4346 34.1914 46.0596H35.2754C35.2949 46.4229 35.4395 46.7119 35.709 46.9268C35.9824 47.1377 36.3418 47.2432 36.7871 47.2432C37.1973 47.2432 37.5254 47.1611 37.7715 46.9971C38.0215 46.8291 38.1465 46.6064 38.1465 46.3291Z" fill="#F14A50"/>
</svg>
