<svg width="84" height="52" viewBox="0 0 84 52" fill="none" xmlns="http://www.w3.org/2000/svg">
<path d="M7.81641 48.0107H6.68555L2.39062 41.4365V48.0107H1.25977V39.4795H2.39062L6.69727 46.083V39.4795H7.81641V48.0107ZM9.35742 44.7822C9.35742 44.1611 9.47852 43.6025 9.7207 43.1064C9.9668 42.6104 10.3066 42.2275 10.7402 41.958C11.1777 41.6885 11.6758 41.5537 12.2344 41.5537C13.0977 41.5537 13.7949 41.8525 14.3262 42.4502C14.8613 43.0479 15.1289 43.8428 15.1289 44.835V44.9111C15.1289 45.5283 15.0098 46.083 14.7715 46.5752C14.5371 47.0635 14.1992 47.4443 13.7578 47.7178C13.3203 47.9912 12.8164 48.1279 12.2461 48.1279C11.3867 48.1279 10.6895 47.8291 10.1543 47.2314C9.62305 46.6338 9.35742 45.8428 9.35742 44.8584V44.7822ZM10.4473 44.9111C10.4473 45.6143 10.6094 46.1787 10.9336 46.6045C11.2617 47.0303 11.6992 47.2432 12.2461 47.2432C12.7969 47.2432 13.2344 47.0283 13.5586 46.5986C13.8828 46.165 14.0449 45.5596 14.0449 44.7822C14.0449 44.0869 13.8789 43.5244 13.5469 43.0947C13.2188 42.6611 12.7812 42.4443 12.2344 42.4443C11.6992 42.4443 11.2676 42.6572 10.9395 43.083C10.6113 43.5088 10.4473 44.1182 10.4473 44.9111ZM20.1797 46.3291C20.1797 46.0361 20.0684 45.8096 19.8457 45.6494C19.627 45.4854 19.2422 45.3447 18.6914 45.2275C18.1445 45.1104 17.709 44.9697 17.3848 44.8057C17.0645 44.6416 16.8262 44.4463 16.6699 44.2197C16.5176 43.9932 16.4414 43.7236 16.4414 43.4111C16.4414 42.8916 16.6602 42.4521 17.0977 42.0928C17.5391 41.7334 18.1016 41.5537 18.7852 41.5537C19.5039 41.5537 20.0859 41.7393 20.5312 42.1104C20.9805 42.4814 21.2051 42.9561 21.2051 43.5342H20.1152C20.1152 43.2373 19.9883 42.9814 19.7344 42.7666C19.4844 42.5518 19.168 42.4443 18.7852 42.4443C18.3906 42.4443 18.082 42.5303 17.8594 42.7021C17.6367 42.874 17.5254 43.0986 17.5254 43.376C17.5254 43.6377 17.6289 43.835 17.8359 43.9678C18.043 44.1006 18.416 44.2275 18.9551 44.3486C19.498 44.4697 19.9375 44.6143 20.2734 44.7822C20.6094 44.9502 20.8574 45.1533 21.0176 45.3916C21.1816 45.626 21.2637 45.9131 21.2637 46.2529C21.2637 46.8193 21.0371 47.2744 20.584 47.6182C20.1309 47.958 19.543 48.1279 18.8203 48.1279C18.3125 48.1279 17.8633 48.0381 17.4727 47.8584C17.082 47.6787 16.7754 47.4287 16.5527 47.1084C16.334 46.7842 16.2246 46.4346 16.2246 46.0596H17.3086C17.3281 46.4229 17.4727 46.7119 17.7422 46.9268C18.0156 47.1377 18.375 47.2432 18.8203 47.2432C19.2305 47.2432 19.5586 47.1611 19.8047 46.9971C20.0547 46.8291 20.1797 46.6064 20.1797 46.3291ZM26.3672 46.3291C26.3672 46.0361 26.2559 45.8096 26.0332 45.6494C25.8145 45.4854 25.4297 45.3447 24.8789 45.2275C24.332 45.1104 23.8965 44.9697 23.5723 44.8057C23.252 44.6416 23.0137 44.4463 22.8574 44.2197C22.7051 43.9932 22.6289 43.7236 22.6289 43.4111C22.6289 42.8916 22.8477 42.4521 23.2852 42.0928C23.7266 41.7334 24.2891 41.5537 24.9727 41.5537C25.6914 41.5537 26.2734 41.7393 26.7188 42.1104C27.168 42.4814 27.3926 42.9561 27.3926 43.5342H26.3027C26.3027 43.2373 26.1758 42.9814 25.9219 42.7666C25.6719 42.5518 25.3555 42.4443 24.9727 42.4443C24.5781 42.4443 24.2695 42.5303 24.0469 42.7021C23.8242 42.874 23.7129 43.0986 23.7129 43.376C23.7129 43.6377 23.8164 43.835 24.0234 43.9678C24.2305 44.1006 24.6035 44.2275 25.1426 44.3486C25.6855 44.4697 26.125 44.6143 26.4609 44.7822C26.7969 44.9502 27.0449 45.1533 27.2051 45.3916C27.3691 45.626 27.4512 45.9131 27.4512 46.2529C27.4512 46.8193 27.2246 47.2744 26.7715 47.6182C26.3184 47.958 25.7305 48.1279 25.0078 48.1279C24.5 48.1279 24.0508 48.0381 23.6602 47.8584C23.2695 47.6787 22.9629 47.4287 22.7402 47.1084C22.5215 46.7842 22.4121 46.4346 22.4121 46.0596H23.4961C23.5156 46.4229 23.6602 46.7119 23.9297 46.9268C24.2031 47.1377 24.5625 47.2432 25.0078 47.2432C25.418 47.2432 25.7461 47.1611 25.9922 46.9971C26.2422 46.8291 26.3672 46.6064 26.3672 46.3291ZM32.7773 48.0107C32.7148 47.8857 32.6641 47.6631 32.625 47.3428C32.1211 47.8662 31.5195 48.1279 30.8203 48.1279C30.1953 48.1279 29.6816 47.9521 29.2793 47.6006C28.8809 47.2451 28.6816 46.7959 28.6816 46.2529C28.6816 45.5928 28.9316 45.0811 29.4316 44.7178C29.9355 44.3506 30.6426 44.167 31.5527 44.167H32.6074V43.6689C32.6074 43.29 32.4941 42.9893 32.2676 42.7666C32.041 42.54 31.707 42.4268 31.2656 42.4268C30.8789 42.4268 30.5547 42.5244 30.293 42.7197C30.0312 42.915 29.9004 43.1514 29.9004 43.4287H28.8105C28.8105 43.1123 28.9219 42.8076 29.1445 42.5146C29.3711 42.2178 29.6758 41.9834 30.0586 41.8115C30.4453 41.6396 30.8691 41.5537 31.3301 41.5537C32.0605 41.5537 32.6328 41.7373 33.0469 42.1045C33.4609 42.4678 33.6758 42.9697 33.6914 43.6104V46.5283C33.6914 47.1104 33.7656 47.5732 33.9141 47.917V48.0107H32.7773ZM30.9785 47.1846C31.3184 47.1846 31.6406 47.0967 31.9453 46.9209C32.25 46.7451 32.4707 46.5166 32.6074 46.2354V44.9346H31.7578C30.4297 44.9346 29.7656 45.3232 29.7656 46.1006C29.7656 46.4404 29.8789 46.7061 30.1055 46.8975C30.332 47.0889 30.623 47.1846 30.9785 47.1846ZM39.082 46.3291C39.082 46.0361 38.9707 45.8096 38.748 45.6494C38.5293 45.4854 38.1445 45.3447 37.5938 45.2275C37.0469 45.1104 36.6113 44.9697 36.2871 44.8057C35.9668 44.6416 35.7285 44.4463 35.5723 44.2197C35.4199 43.9932 35.3438 43.7236 35.3438 43.4111C35.3438 42.8916 35.5625 42.4521 36 42.0928C36.4414 41.7334 37.0039 41.5537 37.6875 41.5537C38.4062 41.5537 38.9883 41.7393 39.4336 42.1104C39.8828 42.4814 40.1074 42.9561 40.1074 43.5342H39.0176C39.0176 43.2373 38.8906 42.9814 38.6367 42.7666C38.3867 42.5518 38.0703 42.4443 37.6875 42.4443C37.293 42.4443 36.9844 42.5303 36.7617 42.7021C36.5391 42.874 36.4277 43.0986 36.4277 43.376C36.4277 43.6377 36.5312 43.835 36.7383 43.9678C36.9453 44.1006 37.3184 44.2275 37.8574 44.3486C38.4004 44.4697 38.8398 44.6143 39.1758 44.7822C39.5117 44.9502 39.7598 45.1533 39.9199 45.3916C40.084 45.626 40.166 45.9131 40.166 46.2529C40.166 46.8193 39.9395 47.2744 39.4863 47.6182C39.0332 47.958 38.4453 48.1279 37.7227 48.1279C37.2148 48.1279 36.7656 48.0381 36.375 47.8584C35.9844 47.6787 35.6777 47.4287 35.4551 47.1084C35.2363 46.7842 35.127 46.4346 35.127 46.0596H36.2109C36.2305 46.4229 36.375 46.7119 36.6445 46.9268C36.918 47.1377 37.2773 47.2432 37.7227 47.2432C38.1328 47.2432 38.4609 47.1611 38.707 46.9971C38.957 46.8291 39.082 46.6064 39.082 46.3291ZM45.5742 41.6709L45.6035 42.374C46.0684 41.8271 46.6953 41.5537 47.4844 41.5537C48.3711 41.5537 48.9746 41.8936 49.2949 42.5732C49.5059 42.2686 49.7793 42.0225 50.1152 41.835C50.4551 41.6475 50.8555 41.5537 51.3164 41.5537C52.707 41.5537 53.4141 42.29 53.4375 43.7627V48.0107H52.3535V43.8271C52.3535 43.374 52.25 43.0361 52.043 42.8135C51.8359 42.5869 51.4883 42.4736 51 42.4736C50.5977 42.4736 50.2637 42.5947 49.998 42.8369C49.7324 43.0752 49.5781 43.3975 49.5352 43.8037V48.0107H48.4453V43.8564C48.4453 42.9346 47.9941 42.4736 47.0918 42.4736C46.3809 42.4736 45.8945 42.7764 45.6328 43.3818V48.0107H44.5488V41.6709H45.5742ZM58.9922 48.0107C58.9297 47.8857 58.8789 47.6631 58.8398 47.3428C58.3359 47.8662 57.7344 48.1279 57.0352 48.1279C56.4102 48.1279 55.8965 47.9521 55.4941 47.6006C55.0957 47.2451 54.8965 46.7959 54.8965 46.2529C54.8965 45.5928 55.1465 45.0811 55.6465 44.7178C56.1504 44.3506 56.8574 44.167 57.7676 44.167H58.8223V43.6689C58.8223 43.29 58.709 42.9893 58.4824 42.7666C58.2559 42.54 57.9219 42.4268 57.4805 42.4268C57.0938 42.4268 56.7695 42.5244 56.5078 42.7197C56.2461 42.915 56.1152 43.1514 56.1152 43.4287H55.0254C55.0254 43.1123 55.1367 42.8076 55.3594 42.5146C55.5859 42.2178 55.8906 41.9834 56.2734 41.8115C56.6602 41.6396 57.084 41.5537 57.5449 41.5537C58.2754 41.5537 58.8477 41.7373 59.2617 42.1045C59.6758 42.4678 59.8906 42.9697 59.9062 43.6104V46.5283C59.9062 47.1104 59.9805 47.5732 60.1289 47.917V48.0107H58.9922ZM57.1934 47.1846C57.5332 47.1846 57.8555 47.0967 58.1602 46.9209C58.4648 46.7451 58.6855 46.5166 58.8223 46.2354V44.9346H57.9727C56.6445 44.9346 55.9805 45.3232 55.9805 46.1006C55.9805 46.4404 56.0938 46.7061 56.3203 46.8975C56.5469 47.0889 56.8379 47.1846 57.1934 47.1846ZM64.6699 42.6436C64.5059 42.6162 64.3281 42.6025 64.1367 42.6025C63.4258 42.6025 62.9434 42.9053 62.6895 43.5107V48.0107H61.6055V41.6709H62.6602L62.6777 42.4033C63.0332 41.8369 63.5371 41.5537 64.1895 41.5537C64.4004 41.5537 64.5605 41.5811 64.6699 41.6357V42.6436ZM68.0977 47.2432C68.4844 47.2432 68.8223 47.126 69.1113 46.8916C69.4004 46.6572 69.5605 46.3643 69.5918 46.0127H70.6172C70.5977 46.376 70.4727 46.7217 70.2422 47.0498C70.0117 47.3779 69.7031 47.6396 69.3164 47.835C68.9336 48.0303 68.5273 48.1279 68.0977 48.1279C67.2344 48.1279 66.5469 47.8408 66.0352 47.2666C65.5273 46.6885 65.2734 45.8994 65.2734 44.8994V44.7178C65.2734 44.1006 65.3867 43.5518 65.6133 43.0713C65.8398 42.5908 66.1641 42.2178 66.5859 41.9521C67.0117 41.6865 67.5137 41.5537 68.0918 41.5537C68.8027 41.5537 69.3926 41.7666 69.8613 42.1924C70.334 42.6182 70.5859 43.1709 70.6172 43.8506H69.5918C69.5605 43.4404 69.4043 43.1045 69.123 42.8428C68.8457 42.5771 68.502 42.4443 68.0918 42.4443C67.541 42.4443 67.1133 42.6436 66.8086 43.042C66.5078 43.4365 66.3574 44.0088 66.3574 44.7588V44.9639C66.3574 45.6943 66.5078 46.2568 66.8086 46.6514C67.1094 47.0459 67.5391 47.2432 68.0977 47.2432ZM75.75 48.0107C75.6875 47.8857 75.6367 47.6631 75.5977 47.3428C75.0938 47.8662 74.4922 48.1279 73.793 48.1279C73.168 48.1279 72.6543 47.9521 72.252 47.6006C71.8535 47.2451 71.6543 46.7959 71.6543 46.2529C71.6543 45.5928 71.9043 45.0811 72.4043 44.7178C72.9082 44.3506 73.6152 44.167 74.5254 44.167H75.5801V43.6689C75.5801 43.29 75.4668 42.9893 75.2402 42.7666C75.0137 42.54 74.6797 42.4268 74.2383 42.4268C73.8516 42.4268 73.5273 42.5244 73.2656 42.7197C73.0039 42.915 72.873 43.1514 72.873 43.4287H71.7832C71.7832 43.1123 71.8945 42.8076 72.1172 42.5146C72.3438 42.2178 72.6484 41.9834 73.0312 41.8115C73.418 41.6396 73.8418 41.5537 74.3027 41.5537C75.0332 41.5537 75.6055 41.7373 76.0195 42.1045C76.4336 42.4678 76.6484 42.9697 76.6641 43.6104V46.5283C76.6641 47.1104 76.7383 47.5732 76.8867 47.917V48.0107H75.75ZM73.9512 47.1846C74.291 47.1846 74.6133 47.0967 74.918 46.9209C75.2227 46.7451 75.4434 46.5166 75.5801 46.2354V44.9346H74.7305C73.4023 44.9346 72.7383 45.3232 72.7383 46.1006C72.7383 46.4404 72.8516 46.7061 73.0781 46.8975C73.3047 47.0889 73.5957 47.1846 73.9512 47.1846ZM82.0547 46.3291C82.0547 46.0361 81.9434 45.8096 81.7207 45.6494C81.502 45.4854 81.1172 45.3447 80.5664 45.2275C80.0195 45.1104 79.584 44.9697 79.2598 44.8057C78.9395 44.6416 78.7012 44.4463 78.5449 44.2197C78.3926 43.9932 78.3164 43.7236 78.3164 43.4111C78.3164 42.8916 78.5352 42.4521 78.9727 42.0928C79.4141 41.7334 79.9766 41.5537 80.6602 41.5537C81.3789 41.5537 81.9609 41.7393 82.4062 42.1104C82.8555 42.4814 83.0801 42.9561 83.0801 43.5342H81.9902C81.9902 43.2373 81.8633 42.9814 81.6094 42.7666C81.3594 42.5518 81.043 42.4443 80.6602 42.4443C80.2656 42.4443 79.957 42.5303 79.7344 42.7021C79.5117 42.874 79.4004 43.0986 79.4004 43.376C79.4004 43.6377 79.5039 43.835 79.7109 43.9678C79.918 44.1006 80.291 44.2275 80.8301 44.3486C81.373 44.4697 81.8125 44.6143 82.1484 44.7822C82.4844 44.9502 82.7324 45.1533 82.8926 45.3916C83.0566 45.626 83.1387 45.9131 83.1387 46.2529C83.1387 46.8193 82.9121 47.2744 82.459 47.6182C82.0059 47.958 81.418 48.1279 80.6953 48.1279C80.1875 48.1279 79.7383 48.0381 79.3477 47.8584C78.957 47.6787 78.6504 47.4287 78.4277 47.1084C78.209 46.7842 78.0996 46.4346 78.0996 46.0596H79.1836C79.2031 46.4229 79.3477 46.7119 79.6172 46.9268C79.8906 47.1377 80.25 47.2432 80.6953 47.2432C81.1055 47.2432 81.4336 47.1611 81.6797 46.9971C81.9297 46.8291 82.0547 46.6064 82.0547 46.3291Z" fill="#8C8C8C"/>
<path opacity="0.5" d="M47.3086 19.8896L46.7587 19.88L46.7491 20.4299L46.6644 25.2841L39.7696 25.1638L39.8544 20.3096L39.864 19.7596L39.3141 19.75L34.4727 19.6655L34.5927 12.7916L39.434 12.8761L39.984 12.8857L39.9936 12.3358L40.0783 7.48253L46.973 7.60288L46.8883 12.4561L46.8787 13.006L47.4286 13.0156L52.2739 13.1002L52.1539 19.9742L47.3086 19.8896Z" stroke="#BABABA" stroke-width="1.1"/>
<path d="M27.7 0.710742H56.3V29.3107H27.7V0.710742Z" stroke="#8C8C8C" stroke-width="1.4"/>
<path d="M45.3527 10.9496V11.6496H46.0527L50.846 11.6496V18.376H46.0527H45.3527V19.076V23.8562H38.6474V19.076V18.376H37.9474H33.1551V11.6496H37.9474H38.6474V10.9496V6.16533L45.3527 6.16533V10.9496Z" stroke="#8C8C8C" stroke-width="1.4"/>
</svg>
