<svg width="74" height="64" viewBox="0 0 74 64" fill="none" xmlns="http://www.w3.org/2000/svg">
<path d="M2.71631 39.5684L5.27295 45.9492L7.82959 39.5684H9.16699V47.3887H8.13574V44.3433L8.23242 41.0562L5.66504 47.3887H4.87549L2.31348 41.0723L2.41553 44.3433V47.3887H1.38428V39.5684H2.71631ZM13.2437 47.4961C12.4559 47.4961 11.8149 47.2383 11.3208 46.7227C10.8267 46.2035 10.5796 45.5106 10.5796 44.644V44.4614C10.5796 43.8849 10.6888 43.3711 10.9072 42.9199C11.1292 42.4652 11.4372 42.1107 11.8311 41.8564C12.2285 41.5986 12.6582 41.4697 13.1201 41.4697C13.8757 41.4697 14.4629 41.7186 14.8818 42.2163C15.3008 42.714 15.5103 43.4266 15.5103 44.354V44.7676H11.5732C11.5876 45.3405 11.7541 45.8042 12.0728 46.1587C12.395 46.5096 12.8032 46.6851 13.2974 46.6851C13.6483 46.6851 13.9455 46.6134 14.189 46.4702C14.4325 46.327 14.6455 46.1372 14.8281 45.9009L15.4351 46.3735C14.9481 47.1219 14.2176 47.4961 13.2437 47.4961ZM13.1201 42.2861C12.7191 42.2861 12.3825 42.4329 12.1104 42.7266C11.8382 43.0166 11.6699 43.4248 11.6055 43.9512H14.5166V43.876C14.488 43.3711 14.3519 42.9808 14.1084 42.7051C13.8649 42.4258 13.5355 42.2861 13.1201 42.2861ZM16.4233 44.4346C16.4233 43.543 16.6346 42.8268 17.0571 42.2861C17.4797 41.7419 18.0329 41.4697 18.7168 41.4697C19.3971 41.4697 19.936 41.7025 20.3335 42.168V39.1387H21.3271V47.3887H20.4141L20.3657 46.7656C19.9683 47.2526 19.415 47.4961 18.7061 47.4961C18.0329 47.4961 17.4832 47.2204 17.0571 46.6689C16.6346 46.1175 16.4233 45.3978 16.4233 44.5098V44.4346ZM17.417 44.5474C17.417 45.2062 17.5531 45.7218 17.8252 46.0942C18.0973 46.4666 18.4733 46.6528 18.9531 46.6528C19.5833 46.6528 20.0435 46.37 20.3335 45.8042V43.1348C20.0363 42.5869 19.5798 42.313 18.9639 42.313C18.4769 42.313 18.0973 42.501 17.8252 42.877C17.5531 43.2529 17.417 43.8097 17.417 44.5474ZM23.9536 47.3887H22.96V41.5771H23.9536V47.3887ZM22.8794 40.0356C22.8794 39.8745 22.9277 39.7384 23.0244 39.6274C23.1247 39.5164 23.2715 39.4609 23.4648 39.4609C23.6582 39.4609 23.805 39.5164 23.9053 39.6274C24.0055 39.7384 24.0557 39.8745 24.0557 40.0356C24.0557 40.1968 24.0055 40.3311 23.9053 40.4385C23.805 40.5459 23.6582 40.5996 23.4648 40.5996C23.2715 40.5996 23.1247 40.5459 23.0244 40.4385C22.9277 40.3311 22.8794 40.1968 22.8794 40.0356ZM27.8799 46.6851C28.2344 46.6851 28.5441 46.5776 28.8091 46.3628C29.0741 46.1479 29.2209 45.8794 29.2495 45.5571H30.1895C30.1715 45.8901 30.057 46.207 29.8457 46.5078C29.6344 46.8086 29.3516 47.0485 28.9971 47.2275C28.6462 47.4066 28.2738 47.4961 27.8799 47.4961C27.0885 47.4961 26.4583 47.2329 25.9893 46.7065C25.5238 46.1766 25.291 45.4533 25.291 44.5366V44.3701C25.291 43.8044 25.3949 43.3013 25.6025 42.8608C25.8102 42.4204 26.1074 42.0785 26.4941 41.835C26.8844 41.5915 27.3446 41.4697 27.8745 41.4697C28.5262 41.4697 29.0669 41.6649 29.4966 42.0552C29.9299 42.4455 30.1608 42.9521 30.1895 43.5752H29.2495C29.2209 43.1992 29.0776 42.8913 28.8198 42.6514C28.5656 42.4079 28.2505 42.2861 27.8745 42.2861C27.3696 42.2861 26.9775 42.4688 26.6982 42.834C26.4225 43.1956 26.2847 43.7202 26.2847 44.4077V44.5957C26.2847 45.2653 26.4225 45.7809 26.6982 46.1426C26.974 46.5042 27.3678 46.6851 27.8799 46.6851ZM34.8945 47.3887C34.8372 47.2741 34.7907 47.07 34.7549 46.7764C34.293 47.2562 33.7415 47.4961 33.1006 47.4961C32.5277 47.4961 32.0568 47.335 31.688 47.0127C31.3228 46.6868 31.1401 46.2751 31.1401 45.7773C31.1401 45.1722 31.3693 44.7031 31.8276 44.3701C32.2896 44.0335 32.9377 43.8652 33.772 43.8652H34.7388V43.4087C34.7388 43.0614 34.6349 42.7856 34.4272 42.5815C34.2196 42.3739 33.9134 42.27 33.5088 42.27C33.1543 42.27 32.8571 42.3595 32.6172 42.5386C32.3773 42.7176 32.2573 42.9342 32.2573 43.1885H31.2583C31.2583 42.8984 31.3604 42.6191 31.5645 42.3506C31.7721 42.0785 32.0514 41.8636 32.4023 41.7061C32.7568 41.5485 33.1453 41.4697 33.5679 41.4697C34.2375 41.4697 34.762 41.638 35.1416 41.9746C35.5212 42.3076 35.7181 42.7677 35.7324 43.355V46.0298C35.7324 46.5633 35.8005 46.9876 35.9365 47.3027V47.3887H34.8945ZM33.2456 46.6313C33.5571 46.6313 33.8525 46.5508 34.1318 46.3896C34.4111 46.2285 34.6134 46.019 34.7388 45.7612V44.5688H33.96C32.7425 44.5688 32.1338 44.9251 32.1338 45.6377C32.1338 45.9492 32.2376 46.1927 32.4453 46.3682C32.653 46.5436 32.9198 46.6313 33.2456 46.6313ZM38.2246 41.5771L38.2515 42.2217C38.6776 41.7204 39.2523 41.4697 39.9756 41.4697C40.7884 41.4697 41.3416 41.7812 41.6353 42.4043C41.8286 42.125 42.0793 41.8994 42.3872 41.7275C42.6987 41.5557 43.0658 41.4697 43.4883 41.4697C44.763 41.4697 45.4111 42.1447 45.4326 43.4946V47.3887H44.439V43.5537C44.439 43.1383 44.3441 42.8286 44.1543 42.6245C43.9645 42.4168 43.6458 42.313 43.1982 42.313C42.8294 42.313 42.5233 42.424 42.2798 42.646C42.0363 42.8644 41.8949 43.1598 41.8555 43.5322V47.3887H40.8564V43.5806C40.8564 42.7355 40.4429 42.313 39.6157 42.313C38.964 42.313 38.5182 42.5905 38.2783 43.1455V47.3887H37.2847V41.5771H38.2246ZM49.3481 47.4961C48.5604 47.4961 47.9194 47.2383 47.4253 46.7227C46.9312 46.2035 46.6841 45.5106 46.6841 44.644V44.4614C46.6841 43.8849 46.7933 43.3711 47.0117 42.9199C47.2337 42.4652 47.5417 42.1107 47.9355 41.8564C48.333 41.5986 48.7627 41.4697 49.2246 41.4697C49.9801 41.4697 50.5674 41.7186 50.9863 42.2163C51.4053 42.714 51.6147 43.4266 51.6147 44.354V44.7676H47.6777C47.6921 45.3405 47.8586 45.8042 48.1772 46.1587C48.4995 46.5096 48.9077 46.6851 49.4019 46.6851C49.7528 46.6851 50.05 46.6134 50.2935 46.4702C50.5369 46.327 50.75 46.1372 50.9326 45.9009L51.5396 46.3735C51.0526 47.1219 50.3221 47.4961 49.3481 47.4961ZM49.2246 42.2861C48.8236 42.2861 48.487 42.4329 48.2148 42.7266C47.9427 43.0166 47.7744 43.4248 47.71 43.9512H50.6211V43.876C50.5924 43.3711 50.4564 42.9808 50.2129 42.7051C49.9694 42.4258 49.64 42.2861 49.2246 42.2861ZM53.7095 41.5771L53.7417 42.3076C54.1857 41.749 54.7658 41.4697 55.4819 41.4697C56.7101 41.4697 57.3296 42.1626 57.3403 43.5483V47.3887H56.3467V43.543C56.3431 43.124 56.2464 42.8143 56.0566 42.6138C55.8704 42.4132 55.5786 42.313 55.1812 42.313C54.8589 42.313 54.576 42.3989 54.3325 42.5708C54.089 42.7427 53.8993 42.9683 53.7632 43.2476V47.3887H52.7695V41.5771H53.7095ZM60.187 40.1699V41.5771H61.272V42.3452H60.187V45.9492C60.187 46.182 60.2354 46.3574 60.332 46.4756C60.4287 46.5902 60.5934 46.6475 60.8262 46.6475C60.9408 46.6475 61.0983 46.626 61.2988 46.583V47.3887C61.0374 47.4603 60.7832 47.4961 60.5361 47.4961C60.0921 47.4961 59.7573 47.3618 59.5317 47.0933C59.3062 46.8247 59.1934 46.4434 59.1934 45.9492V42.3452H58.1353V41.5771H59.1934V40.1699H60.187ZM62.0669 44.4292C62.0669 43.8599 62.1779 43.3478 62.3999 42.8931C62.6255 42.4383 62.937 42.0874 63.3345 41.8403C63.7355 41.5933 64.1921 41.4697 64.7041 41.4697C65.4954 41.4697 66.1346 41.7437 66.6216 42.2915C67.1121 42.8394 67.3574 43.568 67.3574 44.4775V44.5474C67.3574 45.1131 67.2482 45.6216 67.0298 46.0728C66.8149 46.5203 66.5052 46.8695 66.1006 47.1201C65.6995 47.3708 65.2376 47.4961 64.7148 47.4961C63.9271 47.4961 63.2879 47.2222 62.7974 46.6743C62.3104 46.1265 62.0669 45.4014 62.0669 44.499V44.4292ZM63.0659 44.5474C63.0659 45.1919 63.2145 45.7093 63.5117 46.0996C63.8125 46.4899 64.2135 46.6851 64.7148 46.6851C65.2197 46.6851 65.6208 46.4881 65.918 46.0942C66.2152 45.6968 66.3638 45.1418 66.3638 44.4292C66.3638 43.7918 66.2116 43.2762 65.9072 42.8823C65.6064 42.4849 65.2054 42.2861 64.7041 42.2861C64.2135 42.2861 63.8179 42.4813 63.5171 42.8716C63.2163 43.2619 63.0659 43.8205 63.0659 44.5474ZM71.9873 45.8472C71.9873 45.5786 71.8853 45.3709 71.6812 45.2241C71.4806 45.0737 71.1279 44.9448 70.623 44.8374C70.1217 44.73 69.7225 44.6011 69.4253 44.4507C69.1317 44.3003 68.9132 44.1213 68.77 43.9136C68.6304 43.7059 68.5605 43.4588 68.5605 43.1724C68.5605 42.6961 68.7611 42.2933 69.1621 41.9639C69.5667 41.6344 70.0824 41.4697 70.709 41.4697C71.3678 41.4697 71.9014 41.6398 72.3096 41.98C72.7214 42.3201 72.9272 42.7552 72.9272 43.2852H71.9282C71.9282 43.013 71.8118 42.7785 71.5791 42.5815C71.3499 42.3846 71.0599 42.2861 70.709 42.2861C70.3473 42.2861 70.0645 42.3649 69.8604 42.5225C69.6562 42.68 69.5542 42.8859 69.5542 43.1401C69.5542 43.38 69.6491 43.5609 69.8389 43.6826C70.0286 43.8044 70.3706 43.9207 70.8647 44.0317C71.3625 44.1427 71.7653 44.2752 72.0732 44.4292C72.3812 44.5832 72.6086 44.7694 72.7554 44.9878C72.9058 45.2026 72.981 45.4658 72.981 45.7773C72.981 46.2965 72.7733 46.7137 72.3579 47.0288C71.9425 47.3403 71.4036 47.4961 70.7412 47.4961C70.2757 47.4961 69.8639 47.4137 69.5059 47.249C69.1478 47.0843 68.8667 46.8551 68.6626 46.5615C68.4621 46.2643 68.3618 45.9438 68.3618 45.6001H69.3555C69.3734 45.9331 69.5059 46.1981 69.7529 46.395C70.0036 46.5884 70.333 46.6851 70.7412 46.6851C71.1172 46.6851 71.418 46.6099 71.6436 46.4595C71.8727 46.3055 71.9873 46.1014 71.9873 45.8472ZM17.0249 60.4961C16.2371 60.4961 15.5962 60.2383 15.1021 59.7227C14.6079 59.2035 14.3608 58.5106 14.3608 57.644V57.4614C14.3608 56.8849 14.4701 56.3711 14.6885 55.9199C14.9105 55.4652 15.2184 55.1107 15.6123 54.8564C16.0098 54.5986 16.4395 54.4697 16.9014 54.4697C17.6569 54.4697 18.2441 54.7186 18.6631 55.2163C19.082 55.714 19.2915 56.4266 19.2915 57.354V57.7676H15.3545C15.3688 58.3405 15.5353 58.8042 15.854 59.1587C16.1763 59.5096 16.5845 59.6851 17.0786 59.6851C17.4295 59.6851 17.7267 59.6134 17.9702 59.4702C18.2137 59.327 18.4268 59.1372 18.6094 58.9009L19.2163 59.3735C18.7293 60.1219 17.9989 60.4961 17.0249 60.4961ZM16.9014 55.2861C16.5003 55.2861 16.1637 55.4329 15.8916 55.7266C15.6195 56.0166 15.4512 56.4248 15.3867 56.9512H18.2979V56.876C18.2692 56.3711 18.1331 55.9808 17.8896 55.7051C17.6462 55.4258 17.3167 55.2861 16.9014 55.2861ZM23.8301 58.8472C23.8301 58.5786 23.728 58.3709 23.5239 58.2241C23.3234 58.0737 22.9707 57.9448 22.4658 57.8374C21.9645 57.73 21.5653 57.6011 21.2681 57.4507C20.9744 57.3003 20.756 57.1213 20.6128 56.9136C20.4731 56.7059 20.4033 56.4588 20.4033 56.1724C20.4033 55.6961 20.6038 55.2933 21.0049 54.9639C21.4095 54.6344 21.9251 54.4697 22.5518 54.4697C23.2106 54.4697 23.7441 54.6398 24.1523 54.98C24.5641 55.3201 24.77 55.7552 24.77 56.2852H23.771C23.771 56.013 23.6546 55.7785 23.4219 55.5815C23.1927 55.3846 22.9027 55.2861 22.5518 55.2861C22.1901 55.2861 21.9072 55.3649 21.7031 55.5225C21.499 55.68 21.397 55.8859 21.397 56.1401C21.397 56.38 21.4919 56.5609 21.6816 56.6826C21.8714 56.8044 22.2134 56.9207 22.7075 57.0317C23.2052 57.1427 23.6081 57.2752 23.916 57.4292C24.224 57.5832 24.4513 57.7694 24.5981 57.9878C24.7485 58.2026 24.8237 58.4658 24.8237 58.7773C24.8237 59.2965 24.616 59.7137 24.2007 60.0288C23.7853 60.3403 23.2464 60.4961 22.584 60.4961C22.1185 60.4961 21.7067 60.4137 21.3486 60.249C20.9906 60.0843 20.7095 59.8551 20.5054 59.5615C20.3049 59.2643 20.2046 58.9438 20.2046 58.6001H21.1982C21.2161 58.9331 21.3486 59.1981 21.5957 59.395C21.8464 59.5884 22.1758 59.6851 22.584 59.6851C22.96 59.6851 23.2607 59.6099 23.4863 59.4595C23.7155 59.3055 23.8301 59.1014 23.8301 58.8472ZM31.0273 57.5474C31.0273 58.4318 30.825 59.1444 30.4204 59.6851C30.0158 60.2257 29.4679 60.4961 28.7769 60.4961C28.0715 60.4961 27.5164 60.2723 27.1118 59.8247V62.623H26.1182V54.5771H27.0259L27.0742 55.2217C27.4788 54.7204 28.041 54.4697 28.7607 54.4697C29.459 54.4697 30.0104 54.7329 30.415 55.2593C30.8232 55.7856 31.0273 56.5179 31.0273 57.4561V57.5474ZM30.0337 57.4346C30.0337 56.7793 29.894 56.2619 29.6147 55.8823C29.3354 55.5028 28.9523 55.313 28.4653 55.313C27.8638 55.313 27.4126 55.5798 27.1118 56.1133V58.8901C27.409 59.4201 27.8638 59.6851 28.4761 59.6851C28.9523 59.6851 29.3301 59.4971 29.6094 59.1211C29.8923 58.7415 30.0337 58.1794 30.0337 57.4346ZM34.7065 60.4961C33.9188 60.4961 33.2778 60.2383 32.7837 59.7227C32.2896 59.2035 32.0425 58.5106 32.0425 57.644V57.4614C32.0425 56.8849 32.1517 56.3711 32.3701 55.9199C32.5921 55.4652 32.9001 55.1107 33.2939 54.8564C33.6914 54.5986 34.1211 54.4697 34.583 54.4697C35.3385 54.4697 35.9258 54.7186 36.3447 55.2163C36.7637 55.714 36.9731 56.4266 36.9731 57.354V57.7676H33.0361C33.0505 58.3405 33.217 58.8042 33.5356 59.1587C33.8579 59.5096 34.2661 59.6851 34.7603 59.6851C35.1112 59.6851 35.4084 59.6134 35.6519 59.4702C35.8953 59.327 36.1084 59.1372 36.291 58.9009L36.8979 59.3735C36.411 60.1219 35.6805 60.4961 34.7065 60.4961ZM34.583 55.2861C34.182 55.2861 33.8454 55.4329 33.5732 55.7266C33.3011 56.0166 33.1328 56.4248 33.0684 56.9512H35.9795V56.876C35.9508 56.3711 35.8148 55.9808 35.5713 55.7051C35.3278 55.4258 34.9984 55.2861 34.583 55.2861ZM40.459 59.6851C40.8135 59.6851 41.1232 59.5776 41.3882 59.3628C41.6532 59.1479 41.8 58.8794 41.8286 58.5571H42.7686C42.7507 58.8901 42.6361 59.207 42.4248 59.5078C42.2135 59.8086 41.9307 60.0485 41.5762 60.2275C41.2253 60.4066 40.8529 60.4961 40.459 60.4961C39.6676 60.4961 39.0374 60.2329 38.5684 59.7065C38.1029 59.1766 37.8701 58.4533 37.8701 57.5366V57.3701C37.8701 56.8044 37.974 56.3013 38.1816 55.8608C38.3893 55.4204 38.6865 55.0785 39.0732 54.835C39.4635 54.5915 39.9237 54.4697 40.4536 54.4697C41.1053 54.4697 41.646 54.6649 42.0757 55.0552C42.509 55.4455 42.7399 55.9521 42.7686 56.5752H41.8286C41.8 56.1992 41.6567 55.8913 41.3989 55.6514C41.1447 55.4079 40.8296 55.2861 40.4536 55.2861C39.9487 55.2861 39.5566 55.4688 39.2773 55.834C39.0016 56.1956 38.8638 56.7202 38.8638 57.4077V57.5957C38.8638 58.2653 39.0016 58.7809 39.2773 59.1426C39.5531 59.5042 39.9469 59.6851 40.459 59.6851ZM44.9653 60.3887H43.9717V54.5771H44.9653V60.3887ZM43.8911 53.0356C43.8911 52.8745 43.9395 52.7384 44.0361 52.6274C44.1364 52.5164 44.2832 52.4609 44.4766 52.4609C44.6699 52.4609 44.8167 52.5164 44.917 52.6274C45.0173 52.7384 45.0674 52.8745 45.0674 53.0356C45.0674 53.1968 45.0173 53.3311 44.917 53.4385C44.8167 53.5459 44.6699 53.5996 44.4766 53.5996C44.2832 53.5996 44.1364 53.5459 44.0361 53.4385C43.9395 53.3311 43.8911 53.1968 43.8911 53.0356ZM50.1484 60.3887C50.0911 60.2741 50.0446 60.07 50.0088 59.7764C49.5469 60.2562 48.9954 60.4961 48.3545 60.4961C47.7816 60.4961 47.3107 60.335 46.9419 60.0127C46.5767 59.6868 46.394 59.2751 46.394 58.7773C46.394 58.1722 46.6232 57.7031 47.0815 57.3701C47.5435 57.0335 48.1916 56.8652 49.0259 56.8652H49.9927V56.4087C49.9927 56.0614 49.8888 55.7856 49.6812 55.5815C49.4735 55.3739 49.1673 55.27 48.7627 55.27C48.4082 55.27 48.111 55.3595 47.8711 55.5386C47.6312 55.7176 47.5112 55.9342 47.5112 56.1885H46.5122C46.5122 55.8984 46.6143 55.6191 46.8184 55.3506C47.026 55.0785 47.3053 54.8636 47.6562 54.7061C48.0107 54.5485 48.3993 54.4697 48.8218 54.4697C49.4914 54.4697 50.016 54.638 50.3955 54.9746C50.7751 55.3076 50.972 55.7677 50.9863 56.355V59.0298C50.9863 59.5633 51.0544 59.9876 51.1904 60.3027V60.3887H50.1484ZM48.4995 59.6313C48.811 59.6313 49.1064 59.5508 49.3857 59.3896C49.665 59.2285 49.8674 59.019 49.9927 58.7612V57.5688H49.2139C47.9964 57.5688 47.3877 57.9251 47.3877 58.6377C47.3877 58.9492 47.4915 59.1927 47.6992 59.3682C47.9069 59.5436 48.1737 59.6313 48.4995 59.6313ZM53.6235 60.3887H52.6299V54.5771H53.6235V60.3887ZM52.5493 53.0356C52.5493 52.8745 52.5977 52.7384 52.6943 52.6274C52.7946 52.5164 52.9414 52.4609 53.1348 52.4609C53.3281 52.4609 53.4749 52.5164 53.5752 52.6274C53.6755 52.7384 53.7256 52.8745 53.7256 53.0356C53.7256 53.1968 53.6755 53.3311 53.5752 53.4385C53.4749 53.5459 53.3281 53.5996 53.1348 53.5996C52.9414 53.5996 52.7946 53.5459 52.6943 53.4385C52.5977 53.3311 52.5493 53.1968 52.5493 53.0356ZM58.6025 58.8472C58.6025 58.5786 58.5005 58.3709 58.2964 58.2241C58.0959 58.0737 57.7432 57.9448 57.2383 57.8374C56.737 57.73 56.3377 57.6011 56.0405 57.4507C55.7469 57.3003 55.5285 57.1213 55.3853 56.9136C55.2456 56.7059 55.1758 56.4588 55.1758 56.1724C55.1758 55.6961 55.3763 55.2933 55.7773 54.9639C56.182 54.6344 56.6976 54.4697 57.3242 54.4697C57.9831 54.4697 58.5166 54.6398 58.9248 54.98C59.3366 55.3201 59.5425 55.7552 59.5425 56.2852H58.5435C58.5435 56.013 58.4271 55.7785 58.1943 55.5815C57.9652 55.3846 57.6751 55.2861 57.3242 55.2861C56.9626 55.2861 56.6797 55.3649 56.4756 55.5225C56.2715 55.68 56.1694 55.8859 56.1694 56.1401C56.1694 56.38 56.2643 56.5609 56.4541 56.6826C56.6439 56.8044 56.9858 56.9207 57.48 57.0317C57.9777 57.1427 58.3805 57.2752 58.6885 57.4292C58.9964 57.5832 59.2238 57.7694 59.3706 57.9878C59.521 58.2026 59.5962 58.4658 59.5962 58.7773C59.5962 59.2965 59.3885 59.7137 58.9731 60.0288C58.5578 60.3403 58.0189 60.4961 57.3564 60.4961C56.891 60.4961 56.4792 60.4137 56.1211 60.249C55.763 60.0843 55.4819 59.8551 55.2778 59.5615C55.0773 59.2643 54.9771 58.9438 54.9771 58.6001H55.9707C55.9886 58.9331 56.1211 59.1981 56.3682 59.395C56.6188 59.5884 56.9482 59.6851 57.3564 59.6851C57.7324 59.6851 58.0332 59.6099 58.2588 59.4595C58.488 59.3055 58.6025 59.1014 58.6025 58.8472Z" fill="#8C8C8C"/>
<path fill-rule="evenodd" clip-rule="evenodd" d="M30.0207 17.6741C34.4503 17.6741 38.0413 14.0832 38.0413 9.65347C38.0413 5.22378 34.4503 1.63281 30.0207 1.63281C25.591 1.63281 22 5.22378 22 9.65347C22 14.0832 25.591 17.6741 30.0207 17.6741Z" stroke="#8C8C8C" stroke-width="1.5" stroke-linecap="round" stroke-linejoin="round"/>
<path d="M22.252 7.64844H37.788" stroke="#8C8C8C" stroke-width="1.5" stroke-linecap="round" stroke-linejoin="round"/>
<path d="M22.252 11.6592H37.788" stroke="#8C8C8C" stroke-width="1.5" stroke-linecap="round" stroke-linejoin="round"/>
<path fill-rule="evenodd" clip-rule="evenodd" d="M42.3103 30.0984C40.4159 31.8636 37.4638 31.8115 35.6328 29.9806C33.8019 28.1496 33.7498 25.1975 35.515 23.3031L43.6745 15.1437C44.8731 13.8574 46.6782 13.3279 48.3817 13.7629C50.0852 14.198 51.4154 15.5282 51.8505 17.2317C52.2855 18.9352 51.756 20.7403 50.4697 21.9389L42.3103 30.0984Z" stroke="#8C8C8C" stroke-width="1.5" stroke-linecap="round" stroke-linejoin="round"/>
<path d="M39.5898 19.2188L46.3902 26.0191" stroke="#8C8C8C" stroke-width="1.5" stroke-linecap="round" stroke-linejoin="round"/>
</svg>
