<svg width="23" height="23" viewBox="0 0 23 23" fill="none" xmlns="http://www.w3.org/2000/svg">
<path fill-rule="evenodd" clip-rule="evenodd" d="M2.82552 5.62109H11.5339C11.787 5.62109 11.9922 5.81809 11.9922 6.06109V21.4611H2.36719V6.06109C2.36719 5.81809 2.57239 5.62109 2.82552 5.62109Z" stroke="#3376B8" stroke-width="1.4" stroke-linecap="round" stroke-linejoin="round"/>
<path fill-rule="evenodd" clip-rule="evenodd" d="M5.57552 2.98047H8.78385C9.03698 2.98047 9.24219 3.17746 9.24219 3.42047V5.62047H5.11719V3.42047C5.11719 3.17746 5.32239 2.98047 5.57552 2.98047Z" stroke="#3376B8" stroke-width="1.4" stroke-linecap="round" stroke-linejoin="round"/>
<path d="M5.11719 8.25977H9.24219" stroke="#3376B8" stroke-width="1.4" stroke-linecap="round" stroke-linejoin="round"/>
<path d="M5.11719 10.9004H9.24219" stroke="#3376B8" stroke-width="1.4" stroke-linecap="round" stroke-linejoin="round"/>
<path d="M5.11719 13.541H9.24219" stroke="#3376B8" stroke-width="1.4" stroke-linecap="round" stroke-linejoin="round"/>
<path d="M5.11719 16.1797H9.24219" stroke="#3376B8" stroke-width="1.4" stroke-linecap="round" stroke-linejoin="round"/>
<path d="M5.11719 18.8203H9.24219" stroke="#3376B8" stroke-width="1.4" stroke-linecap="round" stroke-linejoin="round"/>
<path d="M7.86719 1.66016V2.98016" stroke="#3376B8" stroke-width="1.4" stroke-linecap="round" stroke-linejoin="round"/>
<path d="M14.7422 21.4601H20.2422V10.2401C20.2422 9.87557 19.9344 9.58008 19.5547 9.58008H15.4297C15.05 9.58008 14.7422 9.87557 14.7422 10.2401V21.4601" stroke="#3376B8" stroke-width="1.4" stroke-linecap="round" stroke-linejoin="round"/>
<path d="M18.8672 8.25977V9.57976" stroke="#3376B8" stroke-width="1.4" stroke-linecap="round" stroke-linejoin="round"/>
<path d="M0.992188 21.4609H21.6172" stroke="#3376B8" stroke-width="1.4" stroke-linecap="round" stroke-linejoin="round"/>
</svg>
