<svg width="322" height="183" viewBox="0 0 322 183" fill="none" xmlns="http://www.w3.org/2000/svg">
<g filter="url(#filter0_d)">
<g filter="url(#filter1_d)">
<path d="M304 8.88086C309.523 8.88086 314 13.358 314 18.8809L314 164.881C314 170.404 309.523 174.881 304 174.881L18 174.881C12.4771 174.881 7.99999 170.404 7.99999 164.881L8 18.8808C8 13.358 12.4771 8.88085 18 8.88085L304 8.88086Z" fill="#006FCF"/>
</g>
<g opacity="0.6">
<rect x="67.2109" y="62.0244" width="30.4532" height="40.0072" rx="2.98561" transform="rotate(90 67.2109 62.0244)" fill="#E9E8D9" stroke="#006FCF" stroke-width="0.597122"/>
<rect x="51.0859" y="66.8013" width="20.8993" height="8.35971" rx="2.98561" transform="rotate(90 51.0859 66.8013)" stroke="#006FCF" stroke-width="0.597122"/>
<path d="M27.1211 68.1616H43.8245" stroke="#006FCF" stroke-width="0.597122"/>
<path d="M50.4414 68.1616H67.1449" stroke="#006FCF" stroke-width="0.597122"/>
<path d="M27.1211 77.1309H42.9031" stroke="#006FCF" stroke-width="0.597122"/>
<path d="M51.3359 77.1309H67.118" stroke="#006FCF" stroke-width="0.597122"/>
<path d="M27.1211 86.0996H43.8245" stroke="#006FCF" stroke-width="0.597122"/>
<path d="M50.4414 86.0996H67.1449" stroke="#006FCF" stroke-width="0.597122"/>
</g>
<path opacity="0.8" d="M34.3867 147.174C34.2812 148.076 33.9473 148.773 33.3848 149.266C32.8262 149.754 32.082 149.998 31.1523 149.998C30.1445 149.998 29.3359 149.637 28.7266 148.914C28.1211 148.191 27.8184 147.225 27.8184 146.014V145.193C27.8184 144.4 27.959 143.703 28.2402 143.102C28.5254 142.5 28.9277 142.039 29.4473 141.719C29.9668 141.395 30.5684 141.232 31.252 141.232C32.1582 141.232 32.8848 141.486 33.4316 141.994C33.9785 142.498 34.2969 143.197 34.3867 144.092H33.2559C33.1582 143.412 32.9453 142.92 32.6172 142.615C32.293 142.311 31.8379 142.158 31.252 142.158C30.5332 142.158 29.9688 142.424 29.5586 142.955C29.1523 143.486 28.9492 144.242 28.9492 145.223V146.049C28.9492 146.975 29.1426 147.711 29.5293 148.258C29.916 148.805 30.457 149.078 31.1523 149.078C31.7773 149.078 32.2559 148.938 32.5879 148.656C32.9238 148.371 33.1465 147.877 33.2559 147.174H34.3867ZM39.6719 149.881C39.6094 149.756 39.5586 149.533 39.5195 149.213C39.0156 149.736 38.4141 149.998 37.7148 149.998C37.0898 149.998 36.5762 149.822 36.1738 149.471C35.7754 149.115 35.5762 148.666 35.5762 148.123C35.5762 147.463 35.8262 146.951 36.3262 146.588C36.8301 146.221 37.5371 146.037 38.4473 146.037H39.502V145.539C39.502 145.16 39.3887 144.859 39.1621 144.637C38.9355 144.41 38.6016 144.297 38.1602 144.297C37.7734 144.297 37.4492 144.395 37.1875 144.59C36.9258 144.785 36.7949 145.021 36.7949 145.299H35.7051C35.7051 144.982 35.8164 144.678 36.0391 144.385C36.2656 144.088 36.5703 143.854 36.9531 143.682C37.3398 143.51 37.7637 143.424 38.2246 143.424C38.9551 143.424 39.5273 143.607 39.9414 143.975C40.3555 144.338 40.5703 144.84 40.5859 145.48V148.398C40.5859 148.98 40.6602 149.443 40.8086 149.787V149.881H39.6719ZM37.873 149.055C38.2129 149.055 38.5352 148.967 38.8398 148.791C39.1445 148.615 39.3652 148.387 39.502 148.105V146.805H38.6523C37.3242 146.805 36.6602 147.193 36.6602 147.971C36.6602 148.311 36.7734 148.576 37 148.768C37.2266 148.959 37.5176 149.055 37.873 149.055ZM45.3496 144.514C45.1855 144.486 45.0078 144.473 44.8164 144.473C44.1055 144.473 43.623 144.775 43.3691 145.381V149.881H42.2852V143.541H43.3398L43.3574 144.273C43.7129 143.707 44.2168 143.424 44.8691 143.424C45.0801 143.424 45.2402 143.451 45.3496 143.506V144.514ZM48.1152 142.006V143.541H49.2988V144.379H48.1152V148.311C48.1152 148.564 48.168 148.756 48.2734 148.885C48.3789 149.01 48.5586 149.072 48.8125 149.072C48.9375 149.072 49.1094 149.049 49.3281 149.002V149.881C49.043 149.959 48.7656 149.998 48.4961 149.998C48.0117 149.998 47.6465 149.852 47.4004 149.559C47.1543 149.266 47.0312 148.85 47.0312 148.311V144.379H45.877V143.541H47.0312V142.006H48.1152ZM54.4844 149.881C54.4219 149.756 54.3711 149.533 54.332 149.213C53.8281 149.736 53.2266 149.998 52.5273 149.998C51.9023 149.998 51.3887 149.822 50.9863 149.471C50.5879 149.115 50.3887 148.666 50.3887 148.123C50.3887 147.463 50.6387 146.951 51.1387 146.588C51.6426 146.221 52.3496 146.037 53.2598 146.037H54.3145V145.539C54.3145 145.16 54.2012 144.859 53.9746 144.637C53.748 144.41 53.4141 144.297 52.9727 144.297C52.5859 144.297 52.2617 144.395 52 144.59C51.7383 144.785 51.6074 145.021 51.6074 145.299H50.5176C50.5176 144.982 50.6289 144.678 50.8516 144.385C51.0781 144.088 51.3828 143.854 51.7656 143.682C52.1523 143.51 52.5762 143.424 53.0371 143.424C53.7676 143.424 54.3398 143.607 54.7539 143.975C55.168 144.338 55.3828 144.84 55.3984 145.48V148.398C55.3984 148.98 55.4727 149.443 55.6211 149.787V149.881H54.4844ZM52.6855 149.055C53.0254 149.055 53.3477 148.967 53.6523 148.791C53.957 148.615 54.1777 148.387 54.3145 148.105V146.805H53.4648C52.1367 146.805 51.4727 147.193 51.4727 147.971C51.4727 148.311 51.5859 148.576 51.8125 148.768C52.0391 148.959 52.3301 149.055 52.6855 149.055ZM55.2344 141.068C55.2344 141.49 55.1133 141.832 54.8711 142.094C54.6328 142.355 54.334 142.486 53.9746 142.486C53.8145 142.486 53.6758 142.467 53.5586 142.428C53.4414 142.389 53.2871 142.309 53.0957 142.188C52.9082 142.066 52.7715 141.994 52.6855 141.971C52.6035 141.943 52.5078 141.93 52.3984 141.93C52.2383 141.93 52.1016 141.992 51.9883 142.117C51.875 142.238 51.8184 142.395 51.8184 142.586L51.0918 142.545C51.0918 142.127 51.209 141.781 51.4434 141.508C51.6816 141.234 51.9824 141.098 52.3457 141.098C52.4824 141.098 52.6055 141.117 52.7148 141.156C52.8242 141.195 52.9727 141.271 53.1602 141.385C53.3477 141.498 53.4902 141.572 53.5879 141.607C53.6895 141.643 53.8008 141.66 53.9219 141.66C54.0898 141.66 54.2285 141.594 54.3379 141.461C54.4512 141.328 54.5078 141.174 54.5078 140.998L55.2344 141.068ZM56.8105 146.652C56.8105 146.031 56.9316 145.473 57.1738 144.977C57.4199 144.48 57.7598 144.098 58.1934 143.828C58.6309 143.559 59.1289 143.424 59.6875 143.424C60.5508 143.424 61.248 143.723 61.7793 144.32C62.3145 144.918 62.582 145.713 62.582 146.705V146.781C62.582 147.398 62.4629 147.953 62.2246 148.445C61.9902 148.934 61.6523 149.314 61.2109 149.588C60.7734 149.861 60.2695 149.998 59.6992 149.998C58.8398 149.998 58.1426 149.699 57.6074 149.102C57.0762 148.504 56.8105 147.713 56.8105 146.729V146.652ZM57.9004 146.781C57.9004 147.484 58.0625 148.049 58.3867 148.475C58.7148 148.9 59.1523 149.113 59.6992 149.113C60.25 149.113 60.6875 148.898 61.0117 148.469C61.3359 148.035 61.498 147.43 61.498 146.652C61.498 145.957 61.332 145.395 61 144.965C60.6719 144.531 60.2344 144.314 59.6875 144.314C59.1523 144.314 58.7207 144.527 58.3926 144.953C58.0645 145.379 57.9004 145.988 57.9004 146.781ZM66.6543 146.658C66.6543 145.686 66.8848 144.904 67.3457 144.314C67.8066 143.721 68.4102 143.424 69.1562 143.424C69.8984 143.424 70.4863 143.678 70.9199 144.186V140.881H72.0039V149.881H71.0078L70.9551 149.201C70.5215 149.732 69.918 149.998 69.1445 149.998C68.4102 149.998 67.8105 149.697 67.3457 149.096C66.8848 148.494 66.6543 147.709 66.6543 146.74V146.658ZM67.7383 146.781C67.7383 147.5 67.8867 148.062 68.1836 148.469C68.4805 148.875 68.8906 149.078 69.4141 149.078C70.1016 149.078 70.6035 148.77 70.9199 148.152V145.24C70.5957 144.643 70.0977 144.344 69.4258 144.344C68.8945 144.344 68.4805 144.549 68.1836 144.959C67.8867 145.369 67.7383 145.977 67.7383 146.781ZM76.3223 149.998C75.4629 149.998 74.7637 149.717 74.2246 149.154C73.6855 148.588 73.416 147.832 73.416 146.887V146.688C73.416 146.059 73.5352 145.498 73.7734 145.006C74.0156 144.51 74.3516 144.123 74.7812 143.846C75.2148 143.564 75.6836 143.424 76.1875 143.424C77.0117 143.424 77.6523 143.695 78.1094 144.238C78.5664 144.781 78.7949 145.559 78.7949 146.57V147.021H74.5C74.5156 147.646 74.6973 148.152 75.0449 148.539C75.3965 148.922 75.8418 149.113 76.3809 149.113C76.7637 149.113 77.0879 149.035 77.3535 148.879C77.6191 148.723 77.8516 148.516 78.0508 148.258L78.7129 148.773C78.1816 149.59 77.3848 149.998 76.3223 149.998ZM76.1875 144.314C75.75 144.314 75.3828 144.475 75.0859 144.795C74.7891 145.111 74.6055 145.557 74.5352 146.131H77.7109V146.049C77.6797 145.498 77.5312 145.072 77.2656 144.771C77 144.467 76.6406 144.314 76.1875 144.314ZM85.5742 149.113C85.9609 149.113 86.2988 148.996 86.5879 148.762C86.877 148.527 87.0371 148.234 87.0684 147.883H88.0938C88.0742 148.246 87.9492 148.592 87.7188 148.92C87.4883 149.248 87.1797 149.51 86.793 149.705C86.4102 149.9 86.0039 149.998 85.5742 149.998C84.7109 149.998 84.0234 149.711 83.5117 149.137C83.0039 148.559 82.75 147.77 82.75 146.77V146.588C82.75 145.971 82.8633 145.422 83.0898 144.941C83.3164 144.461 83.6406 144.088 84.0625 143.822C84.4883 143.557 84.9902 143.424 85.5684 143.424C86.2793 143.424 86.8691 143.637 87.3379 144.062C87.8105 144.488 88.0625 145.041 88.0938 145.721H87.0684C87.0371 145.311 86.8809 144.975 86.5996 144.713C86.3223 144.447 85.9785 144.314 85.5684 144.314C85.0176 144.314 84.5898 144.514 84.2852 144.912C83.9844 145.307 83.834 145.879 83.834 146.629V146.834C83.834 147.564 83.9844 148.127 84.2852 148.521C84.5859 148.916 85.0156 149.113 85.5742 149.113ZM92.377 144.514C92.2129 144.486 92.0352 144.473 91.8438 144.473C91.1328 144.473 90.6504 144.775 90.3965 145.381V149.881H89.3125V143.541H90.3672L90.3848 144.273C90.7402 143.707 91.2441 143.424 91.8965 143.424C92.1074 143.424 92.2676 143.451 92.377 143.506V144.514ZM95.8926 149.998C95.0332 149.998 94.334 149.717 93.7949 149.154C93.2559 148.588 92.9863 147.832 92.9863 146.887V146.688C92.9863 146.059 93.1055 145.498 93.3438 145.006C93.5859 144.51 93.9219 144.123 94.3516 143.846C94.7852 143.564 95.2539 143.424 95.7578 143.424C96.582 143.424 97.2227 143.695 97.6797 144.238C98.1367 144.781 98.3652 145.559 98.3652 146.57V147.021H94.0703C94.0859 147.646 94.2676 148.152 94.6152 148.539C94.9668 148.922 95.4121 149.113 95.9512 149.113C96.334 149.113 96.6582 149.035 96.9238 148.879C97.1895 148.723 97.4219 148.516 97.6211 148.258L98.2832 148.773C97.752 149.59 96.9551 149.998 95.8926 149.998ZM95.7578 144.314C95.3203 144.314 94.9531 144.475 94.6562 144.795C94.3594 145.111 94.1758 145.557 94.1055 146.131H97.2812V146.049C97.25 145.498 97.1016 145.072 96.8359 144.771C96.5703 144.467 96.2109 144.314 95.7578 144.314ZM96.2852 140.881H97.5977L96.0273 142.604H95.1543L96.2852 140.881ZM99.3613 146.658C99.3613 145.686 99.5918 144.904 100.053 144.314C100.514 143.721 101.117 143.424 101.863 143.424C102.605 143.424 103.193 143.678 103.627 144.186V140.881H104.711V149.881H103.715L103.662 149.201C103.229 149.732 102.625 149.998 101.852 149.998C101.117 149.998 100.518 149.697 100.053 149.096C99.5918 148.494 99.3613 147.709 99.3613 146.74V146.658ZM100.445 146.781C100.445 147.5 100.594 148.062 100.891 148.469C101.188 148.875 101.598 149.078 102.121 149.078C102.809 149.078 103.311 148.77 103.627 148.152V145.24C103.303 144.643 102.805 144.344 102.133 144.344C101.602 144.344 101.188 144.549 100.891 144.959C100.594 145.369 100.445 145.977 100.445 146.781ZM107.576 149.881H106.492V143.541H107.576V149.881ZM106.404 141.859C106.404 141.684 106.457 141.535 106.562 141.414C106.672 141.293 106.832 141.232 107.043 141.232C107.254 141.232 107.414 141.293 107.523 141.414C107.633 141.535 107.688 141.684 107.688 141.859C107.688 142.035 107.633 142.182 107.523 142.299C107.414 142.416 107.254 142.475 107.043 142.475C106.832 142.475 106.672 142.416 106.562 142.299C106.457 142.182 106.404 142.035 106.404 141.859ZM110.787 142.006V143.541H111.971V144.379H110.787V148.311C110.787 148.564 110.84 148.756 110.945 148.885C111.051 149.01 111.23 149.072 111.484 149.072C111.609 149.072 111.781 149.049 112 149.002V149.881C111.715 149.959 111.438 149.998 111.168 149.998C110.684 149.998 110.318 149.852 110.072 149.559C109.826 149.266 109.703 148.85 109.703 148.311V144.379H108.549V143.541H109.703V142.006H110.787ZM112.838 146.652C112.838 146.031 112.959 145.473 113.201 144.977C113.447 144.48 113.787 144.098 114.221 143.828C114.658 143.559 115.156 143.424 115.715 143.424C116.578 143.424 117.275 143.723 117.807 144.32C118.342 144.918 118.609 145.713 118.609 146.705V146.781C118.609 147.398 118.49 147.953 118.252 148.445C118.018 148.934 117.68 149.314 117.238 149.588C116.801 149.861 116.297 149.998 115.727 149.998C114.867 149.998 114.17 149.699 113.635 149.102C113.104 148.504 112.838 147.713 112.838 146.729V146.652ZM113.928 146.781C113.928 147.484 114.09 148.049 114.414 148.475C114.742 148.9 115.18 149.113 115.727 149.113C116.277 149.113 116.715 148.898 117.039 148.469C117.363 148.035 117.525 147.43 117.525 146.652C117.525 145.957 117.359 145.395 117.027 144.965C116.699 144.531 116.262 144.314 115.715 144.314C115.18 144.314 114.748 144.527 114.42 144.953C114.092 145.379 113.928 145.988 113.928 146.781Z" fill="white"/>
<path opacity="0.8" d="M36.432 122L33.39 117.626L30.402 122H27.054L31.716 115.592L27.288 109.4H30.6L33.498 113.486L36.342 109.4H39.492L35.1 115.484L39.798 122H36.432ZM51.1058 122L48.0638 117.626L45.0758 122H41.7278L46.3898 115.592L41.9618 109.4H45.2738L48.1718 113.486L51.0158 109.4H54.1658L49.7738 115.484L54.4718 122H51.1058ZM65.7797 122L62.7377 117.626L59.7497 122H56.4017L61.0637 115.592L56.6357 109.4H59.9477L62.8457 113.486L65.6897 109.4H68.8397L64.4477 115.484L69.1457 122H65.7797ZM80.4535 122L77.4115 117.626L74.4235 122H71.0755L75.7375 115.592L71.3095 109.4H74.6215L77.5195 113.486L80.3635 109.4H83.5135L79.1215 115.484L83.8195 122H80.4535ZM102.401 122L99.3588 117.626L96.3708 122H93.0228L97.6848 115.592L93.2568 109.4H96.5688L99.4668 113.486L102.311 109.4H105.461L101.069 115.484L105.767 122H102.401ZM117.075 122L114.033 117.626L111.045 122H107.697L112.359 115.592L107.931 109.4H111.243L114.141 113.486L116.985 109.4H120.135L115.743 115.484L120.441 122H117.075ZM131.748 122L128.706 117.626L125.718 122H122.37L127.032 115.592L122.604 109.4H125.916L128.814 113.486L131.658 109.4H134.808L130.416 115.484L135.114 122H131.748ZM146.422 122L143.38 117.626L140.392 122H137.044L141.706 115.592L137.278 109.4H140.59L143.488 113.486L146.332 109.4H149.482L145.09 115.484L149.788 122H146.422ZM168.37 122L165.328 117.626L162.34 122H158.992L163.654 115.592L159.226 109.4H162.538L165.436 113.486L168.28 109.4H171.43L167.038 115.484L171.736 122H168.37ZM183.043 122L180.001 117.626L177.013 122H173.665L178.327 115.592L173.899 109.4H177.211L180.109 113.486L182.953 109.4H186.103L181.711 115.484L186.409 122H183.043ZM197.717 122L194.675 117.626L191.687 122H188.339L193.001 115.592L188.573 109.4H191.885L194.783 113.486L197.627 109.4H200.777L196.385 115.484L201.083 122H197.717ZM212.391 122L209.349 117.626L206.361 122H203.013L207.675 115.592L203.247 109.4H206.559L209.457 113.486L212.301 109.4H215.451L211.059 115.484L215.757 122H212.391Z" fill="white"/>
<path d="M294 73.8809H244V23.8809H294V73.8809Z" fill="white"/>
<path d="M294 50.9635V23.9033H244V73.9033H294V59.3153C293.889 59.3153 294 50.9635 294 50.9635Z" fill="#006FCF"/>
<path d="M287.875 48.1792H291.661V39.3818H287.541V40.6068L286.762 39.3818H283.198V40.9409L282.53 39.3818H275.96C275.737 39.3818 275.514 39.4932 275.292 39.4932C275.069 39.4932 274.958 39.6046 274.735 39.7159C274.512 39.8273 274.401 39.8273 274.178 39.9386V39.3818H255.359L254.802 40.8295L254.245 39.3818H249.791V40.9409L249.122 39.3818H245.559L244 43.168V48.1792H246.561L247.007 46.9542H247.898L248.343 48.1792H267.942V47.0656L268.722 48.1792H274.178V47.511C274.29 47.6224 274.512 47.6224 274.624 47.7337C274.735 47.8451 274.958 47.8451 275.069 47.9564C275.292 48.0678 275.514 48.0678 275.737 48.0678H279.746L280.192 46.8429H281.082L281.528 48.0678H286.984V46.9542L287.875 48.1792ZM294 59.315V51.0745H263.376L262.597 52.1881L261.817 51.0745H252.909V59.8718H261.817L262.597 58.7582L263.376 59.8718H268.944V57.9787H268.722C269.501 57.9787 270.169 57.8674 270.726 57.6446V59.9832H274.735V58.8696L275.514 59.9832H292.107C292.775 59.7605 293.443 59.6491 294 59.315Z" fill="white"/>
<path d="M292.107 57.1993H289.1V58.4242H291.996C293.22 58.4242 294 57.6447 294 56.5311C294 55.4176 293.332 54.8608 292.218 54.8608H290.882C290.548 54.8608 290.325 54.6381 290.325 54.304C290.325 53.9699 290.548 53.7472 290.882 53.7472H293.443L294 52.5222H290.993C289.768 52.5222 288.989 53.3018 288.989 54.304C288.989 55.4176 289.657 55.9744 290.771 55.9744H292.107C292.441 55.9744 292.664 56.1971 292.664 56.5311C292.775 56.9766 292.552 57.1993 292.107 57.1993ZM286.65 57.1993H283.644V58.4242H286.539C287.764 58.4242 288.543 57.6447 288.543 56.5311C288.543 55.4176 287.875 54.8608 286.762 54.8608H285.425C285.091 54.8608 284.869 54.6381 284.869 54.304C284.869 53.9699 285.091 53.7472 285.425 53.7472H287.987L288.543 52.5222H285.537C284.312 52.5222 283.532 53.3018 283.532 54.304C283.532 55.4176 284.2 55.9744 285.314 55.9744H286.65C286.984 55.9744 287.207 56.1971 287.207 56.5311C287.318 56.9766 286.984 57.1993 286.65 57.1993ZM282.753 53.6358V52.4109H278.076V58.3129H282.753V57.0879H279.412V55.863H282.641V54.6381H279.412V53.5245H282.753V53.6358ZM275.18 53.6358C275.737 53.6358 275.96 53.9699 275.96 54.304C275.96 54.6381 275.737 54.9721 275.18 54.9721H273.51V53.5245L275.18 53.6358ZM273.51 56.1971H274.178L275.96 58.3129H277.63L275.626 56.0857C276.628 55.863 277.185 55.1948 277.185 54.304C277.185 53.1904 276.405 52.4109 275.18 52.4109H272.062V58.3129H273.399L273.51 56.1971ZM269.947 54.4153C269.947 54.8608 269.724 55.1948 269.167 55.1948H267.385V53.6358H269.056C269.612 53.6358 269.947 53.9699 269.947 54.4153ZM266.049 52.4109V58.3129H267.385V56.3084H269.167C270.392 56.3084 271.283 55.5289 271.283 54.304C271.283 53.1904 270.503 52.2995 269.278 52.2995L266.049 52.4109ZM264.045 58.3129H265.715L263.376 55.3062L265.715 52.4109H264.045L262.597 54.304L261.149 52.4109H259.479L261.817 55.3062L259.479 58.2015H261.149L262.597 56.3084L264.045 58.3129ZM259.033 53.6358V52.4109H254.356V58.3129H259.033V57.0879H255.693V55.863H258.922V54.6381H255.693V53.5245H259.033V53.6358ZM286.094 43.1681L288.432 46.7316H290.102V40.8296H288.766V44.7271L288.432 44.1703L286.316 40.8296H284.535V46.7316H285.871V42.7227L286.094 43.1681ZM280.303 43.0568L280.748 41.8318L281.194 43.0568L281.751 44.3931H279.746L280.303 43.0568ZM282.641 46.7316H284.089L281.528 40.8296H279.746L277.185 46.7316H278.633L279.189 45.5066H282.085L282.641 46.7316ZM276.405 46.7316L276.962 45.5066H276.628C275.626 45.5066 275.069 44.8385 275.069 43.8363V43.7249C275.069 42.7227 275.626 42.0545 276.628 42.0545H278.076V40.8296H276.517C274.735 40.8296 273.733 42.0545 273.733 43.7249V43.8363C273.733 45.618 274.735 46.7316 276.405 46.7316ZM271.394 46.7316H272.731V40.9409H271.394V46.7316ZM268.499 42.0545C269.056 42.0545 269.278 42.3886 269.278 42.7227C269.278 43.0568 269.056 43.3908 268.499 43.3908H266.829V41.9432L268.499 42.0545ZM266.829 44.6158H267.497L269.278 46.7316H270.949L268.944 44.5044C269.947 44.2817 270.503 43.6136 270.503 42.7227C270.503 41.6091 269.724 40.8296 268.499 40.8296H265.381V46.7316H266.717L266.829 44.6158ZM264.379 42.0545V40.8296H259.702V46.7316H264.379V45.5066H261.038V44.2817H264.267V43.0568H261.038V41.9432H264.379V42.0545ZM254.245 46.7316H255.47L257.14 41.9432V46.7316H258.477V40.8296H256.249L254.913 44.8385L253.577 40.8296H251.35V46.7316H252.686V41.9432L254.245 46.7316ZM247.007 43.0568L247.452 41.8318L247.898 43.0568L248.454 44.3931H246.45L247.007 43.0568ZM249.345 46.7316H250.793L248.232 40.8296H246.561L244 46.7316H245.448L246.004 45.5066H248.9L249.345 46.7316Z" fill="#006FCF"/>
</g>
<defs>
<filter id="filter0_d" x="0" y="0.880859" width="322" height="182" filterUnits="userSpaceOnUse" color-interpolation-filters="sRGB">
<feFlood flood-opacity="0" result="BackgroundImageFix"/>
<feColorMatrix in="SourceAlpha" type="matrix" values="0 0 0 0 0 0 0 0 0 0 0 0 0 0 0 0 0 0 127 0" result="hardAlpha"/>
<feOffset/>
<feGaussianBlur stdDeviation="4"/>
<feColorMatrix type="matrix" values="0 0 0 0 0 0 0 0 0 0 0 0 0 0 0 0 0 0 0.1 0"/>
<feBlend mode="normal" in2="BackgroundImageFix" result="effect1_dropShadow"/>
<feBlend mode="normal" in="SourceGraphic" in2="effect1_dropShadow" result="shape"/>
</filter>
<filter id="filter1_d" x="0" y="0.880859" width="322" height="182" filterUnits="userSpaceOnUse" color-interpolation-filters="sRGB">
<feFlood flood-opacity="0" result="BackgroundImageFix"/>
<feColorMatrix in="SourceAlpha" type="matrix" values="0 0 0 0 0 0 0 0 0 0 0 0 0 0 0 0 0 0 127 0" result="hardAlpha"/>
<feOffset/>
<feGaussianBlur stdDeviation="4"/>
<feColorMatrix type="matrix" values="0 0 0 0 0 0 0 0 0 0 0 0 0 0 0 0 0 0 0.1 0"/>
<feBlend mode="normal" in2="BackgroundImageFix" result="effect1_dropShadow"/>
<feBlend mode="normal" in="SourceGraphic" in2="effect1_dropShadow" result="shape"/>
</filter>
</defs>
</svg>
