<svg width="322" height="183" viewBox="0 0 322 183" fill="none" xmlns="http://www.w3.org/2000/svg">
<g filter="url(#filter0_d)">
<g filter="url(#filter1_d)">
<path d="M304 8.88086C309.523 8.88086 314 13.358 314 18.8809L314 164.881C314 170.404 309.523 174.881 304 174.881L18 174.881C12.4771 174.881 7.99999 170.404 7.99999 164.881L8 18.8808C8 13.358 12.4771 8.88085 18 8.88085L304 8.88086Z" fill="#666666"/>
</g>
<g opacity="0.6">
<rect x="67.2109" y="62.0244" width="30.4532" height="40.0072" rx="2.98561" transform="rotate(90 67.2109 62.0244)" fill="#E9E8D9" stroke="#666666" stroke-width="0.597122"/>
<rect x="51.0859" y="66.8013" width="20.8993" height="8.35971" rx="2.98561" transform="rotate(90 51.0859 66.8013)" stroke="#666666" stroke-width="0.597122"/>
<path d="M27.1211 68.1616H43.8245" stroke="#666666" stroke-width="0.597122"/>
<path d="M50.4414 68.1616H67.1449" stroke="#666666" stroke-width="0.597122"/>
<path d="M27.1211 77.1309H42.9031" stroke="#666666" stroke-width="0.597122"/>
<path d="M51.3359 77.1309H67.118" stroke="#666666" stroke-width="0.597122"/>
<path d="M27.1211 86.0996H43.8245" stroke="#666666" stroke-width="0.597122"/>
<path d="M50.4414 86.0996H67.1449" stroke="#666666" stroke-width="0.597122"/>
</g>
<path opacity="0.8" d="M34.3867 147.174C34.2812 148.076 33.9473 148.773 33.3848 149.266C32.8262 149.754 32.082 149.998 31.1523 149.998C30.1445 149.998 29.3359 149.637 28.7266 148.914C28.1211 148.191 27.8184 147.225 27.8184 146.014V145.193C27.8184 144.4 27.959 143.703 28.2402 143.102C28.5254 142.5 28.9277 142.039 29.4473 141.719C29.9668 141.395 30.5684 141.232 31.252 141.232C32.1582 141.232 32.8848 141.486 33.4316 141.994C33.9785 142.498 34.2969 143.197 34.3867 144.092H33.2559C33.1582 143.412 32.9453 142.92 32.6172 142.615C32.293 142.311 31.8379 142.158 31.252 142.158C30.5332 142.158 29.9688 142.424 29.5586 142.955C29.1523 143.486 28.9492 144.242 28.9492 145.223V146.049C28.9492 146.975 29.1426 147.711 29.5293 148.258C29.916 148.805 30.457 149.078 31.1523 149.078C31.7773 149.078 32.2559 148.938 32.5879 148.656C32.9238 148.371 33.1465 147.877 33.2559 147.174H34.3867ZM39.6719 149.881C39.6094 149.756 39.5586 149.533 39.5195 149.213C39.0156 149.736 38.4141 149.998 37.7148 149.998C37.0898 149.998 36.5762 149.822 36.1738 149.471C35.7754 149.115 35.5762 148.666 35.5762 148.123C35.5762 147.463 35.8262 146.951 36.3262 146.588C36.8301 146.221 37.5371 146.037 38.4473 146.037H39.502V145.539C39.502 145.16 39.3887 144.859 39.1621 144.637C38.9355 144.41 38.6016 144.297 38.1602 144.297C37.7734 144.297 37.4492 144.395 37.1875 144.59C36.9258 144.785 36.7949 145.021 36.7949 145.299H35.7051C35.7051 144.982 35.8164 144.678 36.0391 144.385C36.2656 144.088 36.5703 143.854 36.9531 143.682C37.3398 143.51 37.7637 143.424 38.2246 143.424C38.9551 143.424 39.5273 143.607 39.9414 143.975C40.3555 144.338 40.5703 144.84 40.5859 145.48V148.398C40.5859 148.98 40.6602 149.443 40.8086 149.787V149.881H39.6719ZM37.873 149.055C38.2129 149.055 38.5352 148.967 38.8398 148.791C39.1445 148.615 39.3652 148.387 39.502 148.105V146.805H38.6523C37.3242 146.805 36.6602 147.193 36.6602 147.971C36.6602 148.311 36.7734 148.576 37 148.768C37.2266 148.959 37.5176 149.055 37.873 149.055ZM45.3496 144.514C45.1855 144.486 45.0078 144.473 44.8164 144.473C44.1055 144.473 43.623 144.775 43.3691 145.381V149.881H42.2852V143.541H43.3398L43.3574 144.273C43.7129 143.707 44.2168 143.424 44.8691 143.424C45.0801 143.424 45.2402 143.451 45.3496 143.506V144.514ZM48.1152 142.006V143.541H49.2988V144.379H48.1152V148.311C48.1152 148.564 48.168 148.756 48.2734 148.885C48.3789 149.01 48.5586 149.072 48.8125 149.072C48.9375 149.072 49.1094 149.049 49.3281 149.002V149.881C49.043 149.959 48.7656 149.998 48.4961 149.998C48.0117 149.998 47.6465 149.852 47.4004 149.559C47.1543 149.266 47.0312 148.85 47.0312 148.311V144.379H45.877V143.541H47.0312V142.006H48.1152ZM54.4844 149.881C54.4219 149.756 54.3711 149.533 54.332 149.213C53.8281 149.736 53.2266 149.998 52.5273 149.998C51.9023 149.998 51.3887 149.822 50.9863 149.471C50.5879 149.115 50.3887 148.666 50.3887 148.123C50.3887 147.463 50.6387 146.951 51.1387 146.588C51.6426 146.221 52.3496 146.037 53.2598 146.037H54.3145V145.539C54.3145 145.16 54.2012 144.859 53.9746 144.637C53.748 144.41 53.4141 144.297 52.9727 144.297C52.5859 144.297 52.2617 144.395 52 144.59C51.7383 144.785 51.6074 145.021 51.6074 145.299H50.5176C50.5176 144.982 50.6289 144.678 50.8516 144.385C51.0781 144.088 51.3828 143.854 51.7656 143.682C52.1523 143.51 52.5762 143.424 53.0371 143.424C53.7676 143.424 54.3398 143.607 54.7539 143.975C55.168 144.338 55.3828 144.84 55.3984 145.48V148.398C55.3984 148.98 55.4727 149.443 55.6211 149.787V149.881H54.4844ZM52.6855 149.055C53.0254 149.055 53.3477 148.967 53.6523 148.791C53.957 148.615 54.1777 148.387 54.3145 148.105V146.805H53.4648C52.1367 146.805 51.4727 147.193 51.4727 147.971C51.4727 148.311 51.5859 148.576 51.8125 148.768C52.0391 148.959 52.3301 149.055 52.6855 149.055ZM55.2344 141.068C55.2344 141.49 55.1133 141.832 54.8711 142.094C54.6328 142.355 54.334 142.486 53.9746 142.486C53.8145 142.486 53.6758 142.467 53.5586 142.428C53.4414 142.389 53.2871 142.309 53.0957 142.188C52.9082 142.066 52.7715 141.994 52.6855 141.971C52.6035 141.943 52.5078 141.93 52.3984 141.93C52.2383 141.93 52.1016 141.992 51.9883 142.117C51.875 142.238 51.8184 142.395 51.8184 142.586L51.0918 142.545C51.0918 142.127 51.209 141.781 51.4434 141.508C51.6816 141.234 51.9824 141.098 52.3457 141.098C52.4824 141.098 52.6055 141.117 52.7148 141.156C52.8242 141.195 52.9727 141.271 53.1602 141.385C53.3477 141.498 53.4902 141.572 53.5879 141.607C53.6895 141.643 53.8008 141.66 53.9219 141.66C54.0898 141.66 54.2285 141.594 54.3379 141.461C54.4512 141.328 54.5078 141.174 54.5078 140.998L55.2344 141.068ZM56.8105 146.652C56.8105 146.031 56.9316 145.473 57.1738 144.977C57.4199 144.48 57.7598 144.098 58.1934 143.828C58.6309 143.559 59.1289 143.424 59.6875 143.424C60.5508 143.424 61.248 143.723 61.7793 144.32C62.3145 144.918 62.582 145.713 62.582 146.705V146.781C62.582 147.398 62.4629 147.953 62.2246 148.445C61.9902 148.934 61.6523 149.314 61.2109 149.588C60.7734 149.861 60.2695 149.998 59.6992 149.998C58.8398 149.998 58.1426 149.699 57.6074 149.102C57.0762 148.504 56.8105 147.713 56.8105 146.729V146.652ZM57.9004 146.781C57.9004 147.484 58.0625 148.049 58.3867 148.475C58.7148 148.9 59.1523 149.113 59.6992 149.113C60.25 149.113 60.6875 148.898 61.0117 148.469C61.3359 148.035 61.498 147.43 61.498 146.652C61.498 145.957 61.332 145.395 61 144.965C60.6719 144.531 60.2344 144.314 59.6875 144.314C59.1523 144.314 58.7207 144.527 58.3926 144.953C58.0645 145.379 57.9004 145.988 57.9004 146.781ZM66.6543 146.658C66.6543 145.686 66.8848 144.904 67.3457 144.314C67.8066 143.721 68.4102 143.424 69.1562 143.424C69.8984 143.424 70.4863 143.678 70.9199 144.186V140.881H72.0039V149.881H71.0078L70.9551 149.201C70.5215 149.732 69.918 149.998 69.1445 149.998C68.4102 149.998 67.8105 149.697 67.3457 149.096C66.8848 148.494 66.6543 147.709 66.6543 146.74V146.658ZM67.7383 146.781C67.7383 147.5 67.8867 148.062 68.1836 148.469C68.4805 148.875 68.8906 149.078 69.4141 149.078C70.1016 149.078 70.6035 148.77 70.9199 148.152V145.24C70.5957 144.643 70.0977 144.344 69.4258 144.344C68.8945 144.344 68.4805 144.549 68.1836 144.959C67.8867 145.369 67.7383 145.977 67.7383 146.781ZM76.3223 149.998C75.4629 149.998 74.7637 149.717 74.2246 149.154C73.6855 148.588 73.416 147.832 73.416 146.887V146.688C73.416 146.059 73.5352 145.498 73.7734 145.006C74.0156 144.51 74.3516 144.123 74.7812 143.846C75.2148 143.564 75.6836 143.424 76.1875 143.424C77.0117 143.424 77.6523 143.695 78.1094 144.238C78.5664 144.781 78.7949 145.559 78.7949 146.57V147.021H74.5C74.5156 147.646 74.6973 148.152 75.0449 148.539C75.3965 148.922 75.8418 149.113 76.3809 149.113C76.7637 149.113 77.0879 149.035 77.3535 148.879C77.6191 148.723 77.8516 148.516 78.0508 148.258L78.7129 148.773C78.1816 149.59 77.3848 149.998 76.3223 149.998ZM76.1875 144.314C75.75 144.314 75.3828 144.475 75.0859 144.795C74.7891 145.111 74.6055 145.557 74.5352 146.131H77.7109V146.049C77.6797 145.498 77.5312 145.072 77.2656 144.771C77 144.467 76.6406 144.314 76.1875 144.314ZM85.5742 149.113C85.9609 149.113 86.2988 148.996 86.5879 148.762C86.877 148.527 87.0371 148.234 87.0684 147.883H88.0938C88.0742 148.246 87.9492 148.592 87.7188 148.92C87.4883 149.248 87.1797 149.51 86.793 149.705C86.4102 149.9 86.0039 149.998 85.5742 149.998C84.7109 149.998 84.0234 149.711 83.5117 149.137C83.0039 148.559 82.75 147.77 82.75 146.77V146.588C82.75 145.971 82.8633 145.422 83.0898 144.941C83.3164 144.461 83.6406 144.088 84.0625 143.822C84.4883 143.557 84.9902 143.424 85.5684 143.424C86.2793 143.424 86.8691 143.637 87.3379 144.062C87.8105 144.488 88.0625 145.041 88.0938 145.721H87.0684C87.0371 145.311 86.8809 144.975 86.5996 144.713C86.3223 144.447 85.9785 144.314 85.5684 144.314C85.0176 144.314 84.5898 144.514 84.2852 144.912C83.9844 145.307 83.834 145.879 83.834 146.629V146.834C83.834 147.564 83.9844 148.127 84.2852 148.521C84.5859 148.916 85.0156 149.113 85.5742 149.113ZM92.377 144.514C92.2129 144.486 92.0352 144.473 91.8438 144.473C91.1328 144.473 90.6504 144.775 90.3965 145.381V149.881H89.3125V143.541H90.3672L90.3848 144.273C90.7402 143.707 91.2441 143.424 91.8965 143.424C92.1074 143.424 92.2676 143.451 92.377 143.506V144.514ZM95.8926 149.998C95.0332 149.998 94.334 149.717 93.7949 149.154C93.2559 148.588 92.9863 147.832 92.9863 146.887V146.688C92.9863 146.059 93.1055 145.498 93.3438 145.006C93.5859 144.51 93.9219 144.123 94.3516 143.846C94.7852 143.564 95.2539 143.424 95.7578 143.424C96.582 143.424 97.2227 143.695 97.6797 144.238C98.1367 144.781 98.3652 145.559 98.3652 146.57V147.021H94.0703C94.0859 147.646 94.2676 148.152 94.6152 148.539C94.9668 148.922 95.4121 149.113 95.9512 149.113C96.334 149.113 96.6582 149.035 96.9238 148.879C97.1895 148.723 97.4219 148.516 97.6211 148.258L98.2832 148.773C97.752 149.59 96.9551 149.998 95.8926 149.998ZM95.7578 144.314C95.3203 144.314 94.9531 144.475 94.6562 144.795C94.3594 145.111 94.1758 145.557 94.1055 146.131H97.2812V146.049C97.25 145.498 97.1016 145.072 96.8359 144.771C96.5703 144.467 96.2109 144.314 95.7578 144.314ZM96.2852 140.881H97.5977L96.0273 142.604H95.1543L96.2852 140.881ZM99.3613 146.658C99.3613 145.686 99.5918 144.904 100.053 144.314C100.514 143.721 101.117 143.424 101.863 143.424C102.605 143.424 103.193 143.678 103.627 144.186V140.881H104.711V149.881H103.715L103.662 149.201C103.229 149.732 102.625 149.998 101.852 149.998C101.117 149.998 100.518 149.697 100.053 149.096C99.5918 148.494 99.3613 147.709 99.3613 146.74V146.658ZM100.445 146.781C100.445 147.5 100.594 148.062 100.891 148.469C101.188 148.875 101.598 149.078 102.121 149.078C102.809 149.078 103.311 148.77 103.627 148.152V145.24C103.303 144.643 102.805 144.344 102.133 144.344C101.602 144.344 101.188 144.549 100.891 144.959C100.594 145.369 100.445 145.977 100.445 146.781ZM107.576 149.881H106.492V143.541H107.576V149.881ZM106.404 141.859C106.404 141.684 106.457 141.535 106.562 141.414C106.672 141.293 106.832 141.232 107.043 141.232C107.254 141.232 107.414 141.293 107.523 141.414C107.633 141.535 107.688 141.684 107.688 141.859C107.688 142.035 107.633 142.182 107.523 142.299C107.414 142.416 107.254 142.475 107.043 142.475C106.832 142.475 106.672 142.416 106.562 142.299C106.457 142.182 106.404 142.035 106.404 141.859ZM110.787 142.006V143.541H111.971V144.379H110.787V148.311C110.787 148.564 110.84 148.756 110.945 148.885C111.051 149.01 111.23 149.072 111.484 149.072C111.609 149.072 111.781 149.049 112 149.002V149.881C111.715 149.959 111.438 149.998 111.168 149.998C110.684 149.998 110.318 149.852 110.072 149.559C109.826 149.266 109.703 148.85 109.703 148.311V144.379H108.549V143.541H109.703V142.006H110.787ZM112.838 146.652C112.838 146.031 112.959 145.473 113.201 144.977C113.447 144.48 113.787 144.098 114.221 143.828C114.658 143.559 115.156 143.424 115.715 143.424C116.578 143.424 117.275 143.723 117.807 144.32C118.342 144.918 118.609 145.713 118.609 146.705V146.781C118.609 147.398 118.49 147.953 118.252 148.445C118.018 148.934 117.68 149.314 117.238 149.588C116.801 149.861 116.297 149.998 115.727 149.998C114.867 149.998 114.17 149.699 113.635 149.102C113.104 148.504 112.838 147.713 112.838 146.729V146.652ZM113.928 146.781C113.928 147.484 114.09 148.049 114.414 148.475C114.742 148.9 115.18 149.113 115.727 149.113C116.277 149.113 116.715 148.898 117.039 148.469C117.363 148.035 117.525 147.43 117.525 146.652C117.525 145.957 117.359 145.395 117.027 144.965C116.699 144.531 116.262 144.314 115.715 144.314C115.18 144.314 114.748 144.527 114.42 144.953C114.092 145.379 113.928 145.988 113.928 146.781Z" fill="white"/>
<path opacity="0.8" d="M36.5531 124.881L33.5111 120.507L30.5231 124.881H27.1751L31.8371 118.473L27.4091 112.281H30.7211L33.6191 116.367L36.4631 112.281H39.6131L35.2211 118.365L39.9191 124.881H36.5531ZM51.2269 124.881L48.1849 120.507L45.1969 124.881H41.8489L46.5109 118.473L42.0829 112.281H45.3949L48.2929 116.367L51.1369 112.281H54.2869L49.8949 118.365L54.5929 124.881H51.2269ZM65.9008 124.881L62.8588 120.507L59.8708 124.881H56.5228L61.1848 118.473L56.7568 112.281H60.0688L62.9668 116.367L65.8108 112.281H68.9608L64.5688 118.365L69.2668 124.881H65.9008ZM80.5746 124.881L77.5326 120.507L74.5446 124.881H71.1966L75.8586 118.473L71.4306 112.281H74.7426L77.6406 116.367L80.4846 112.281H83.6346L79.2426 118.365L83.9406 124.881H80.5746ZM102.522 124.881L99.4798 120.507L96.4918 124.881H93.1438L97.8058 118.473L93.3778 112.281H96.6898L99.5878 116.367L102.432 112.281H105.582L101.19 118.365L105.888 124.881H102.522ZM117.196 124.881L114.154 120.507L111.166 124.881H107.818L112.48 118.473L108.052 112.281H111.364L114.262 116.367L117.106 112.281H120.256L115.864 118.365L120.562 124.881H117.196ZM131.87 124.881L128.828 120.507L125.84 124.881H122.492L127.154 118.473L122.726 112.281H126.038L128.936 116.367L131.78 112.281H134.93L130.538 118.365L135.236 124.881H131.87ZM146.543 124.881L143.501 120.507L140.513 124.881H137.165L141.827 118.473L137.399 112.281H140.711L143.609 116.367L146.453 112.281H149.603L145.211 118.365L149.909 124.881H146.543ZM168.491 124.881L165.449 120.507L162.461 124.881H159.113L163.775 118.473L159.347 112.281H162.659L165.557 116.367L168.401 112.281H171.551L167.159 118.365L171.857 124.881H168.491ZM183.164 124.881L180.122 120.507L177.134 124.881H173.786L178.448 118.473L174.02 112.281H177.332L180.23 116.367L183.074 112.281H186.224L181.832 118.365L186.53 124.881H183.164ZM197.838 124.881L194.796 120.507L191.808 124.881H188.46L193.122 118.473L188.694 112.281H192.006L194.904 116.367L197.748 112.281H200.898L196.506 118.365L201.204 124.881H197.838ZM212.512 124.881L209.47 120.507L206.482 124.881H203.134L207.796 118.473L203.368 112.281H206.68L209.578 116.367L212.422 112.281H215.572L211.18 118.365L215.878 124.881H212.512Z" fill="white"/>
</g>
<defs>
<filter id="filter0_d" x="0" y="0.880859" width="322" height="182" filterUnits="userSpaceOnUse" color-interpolation-filters="sRGB">
<feFlood flood-opacity="0" result="BackgroundImageFix"/>
<feColorMatrix in="SourceAlpha" type="matrix" values="0 0 0 0 0 0 0 0 0 0 0 0 0 0 0 0 0 0 127 0" result="hardAlpha"/>
<feOffset/>
<feGaussianBlur stdDeviation="4"/>
<feColorMatrix type="matrix" values="0 0 0 0 0 0 0 0 0 0 0 0 0 0 0 0 0 0 0.1 0"/>
<feBlend mode="normal" in2="BackgroundImageFix" result="effect1_dropShadow"/>
<feBlend mode="normal" in="SourceGraphic" in2="effect1_dropShadow" result="shape"/>
</filter>
<filter id="filter1_d" x="0" y="0.880859" width="322" height="182" filterUnits="userSpaceOnUse" color-interpolation-filters="sRGB">
<feFlood flood-opacity="0" result="BackgroundImageFix"/>
<feColorMatrix in="SourceAlpha" type="matrix" values="0 0 0 0 0 0 0 0 0 0 0 0 0 0 0 0 0 0 127 0" result="hardAlpha"/>
<feOffset/>
<feGaussianBlur stdDeviation="4"/>
<feColorMatrix type="matrix" values="0 0 0 0 0 0 0 0 0 0 0 0 0 0 0 0 0 0 0.1 0"/>
<feBlend mode="normal" in2="BackgroundImageFix" result="effect1_dropShadow"/>
<feBlend mode="normal" in="SourceGraphic" in2="effect1_dropShadow" result="shape"/>
</filter>
</defs>
</svg>
