<svg width="322" height="183" viewBox="0 0 322 183" fill="none" xmlns="http://www.w3.org/2000/svg">
<g filter="url(#filter0_d)">
<rect x="8" y="8.88086" width="306" height="166" rx="10" fill="url(#paint0_linear)"/>
<g opacity="0.6">
<rect x="67.3516" y="62.0244" width="30.4532" height="40.0072" rx="2.98561" transform="rotate(90 67.3516 62.0244)" fill="#E9E8D9" stroke="#0054A6" stroke-width="0.597122"/>
<rect x="51.2266" y="66.8013" width="20.8993" height="8.35971" rx="2.98561" transform="rotate(90 51.2266 66.8013)" stroke="#0054A6" stroke-width="0.597122"/>
<path d="M27.2617 68.1616H43.9652" stroke="#0054A6" stroke-width="0.597122"/>
<path d="M50.582 68.1616H67.2855" stroke="#0054A6" stroke-width="0.597122"/>
<path d="M27.2617 77.1309H43.0437" stroke="#0054A6" stroke-width="0.597122"/>
<path d="M51.4766 77.1309H67.2586" stroke="#0054A6" stroke-width="0.597122"/>
<path d="M27.2617 86.0996H43.9652" stroke="#0054A6" stroke-width="0.597122"/>
<path d="M50.582 86.0996H67.2855" stroke="#0054A6" stroke-width="0.597122"/>
</g>
<path opacity="0.8" d="M34.5273 147.174C34.4219 148.076 34.0879 148.773 33.5254 149.266C32.9668 149.754 32.2227 149.998 31.293 149.998C30.2852 149.998 29.4766 149.637 28.8672 148.914C28.2617 148.191 27.959 147.225 27.959 146.014V145.193C27.959 144.4 28.0996 143.703 28.3809 143.102C28.666 142.5 29.0684 142.039 29.5879 141.719C30.1074 141.395 30.709 141.232 31.3926 141.232C32.2988 141.232 33.0254 141.486 33.5723 141.994C34.1191 142.498 34.4375 143.197 34.5273 144.092H33.3965C33.2988 143.412 33.0859 142.92 32.7578 142.615C32.4336 142.311 31.9785 142.158 31.3926 142.158C30.6738 142.158 30.1094 142.424 29.6992 142.955C29.293 143.486 29.0898 144.242 29.0898 145.223V146.049C29.0898 146.975 29.2832 147.711 29.6699 148.258C30.0566 148.805 30.5977 149.078 31.293 149.078C31.918 149.078 32.3965 148.938 32.7285 148.656C33.0645 148.371 33.2871 147.877 33.3965 147.174H34.5273ZM39.8125 149.881C39.75 149.756 39.6992 149.533 39.6602 149.213C39.1562 149.736 38.5547 149.998 37.8555 149.998C37.2305 149.998 36.7168 149.822 36.3145 149.471C35.916 149.115 35.7168 148.666 35.7168 148.123C35.7168 147.463 35.9668 146.951 36.4668 146.588C36.9707 146.221 37.6777 146.037 38.5879 146.037H39.6426V145.539C39.6426 145.16 39.5293 144.859 39.3027 144.637C39.0762 144.41 38.7422 144.297 38.3008 144.297C37.9141 144.297 37.5898 144.395 37.3281 144.59C37.0664 144.785 36.9355 145.021 36.9355 145.299H35.8457C35.8457 144.982 35.957 144.678 36.1797 144.385C36.4062 144.088 36.7109 143.854 37.0938 143.682C37.4805 143.51 37.9043 143.424 38.3652 143.424C39.0957 143.424 39.668 143.607 40.082 143.975C40.4961 144.338 40.7109 144.84 40.7266 145.48V148.398C40.7266 148.98 40.8008 149.443 40.9492 149.787V149.881H39.8125ZM38.0137 149.055C38.3535 149.055 38.6758 148.967 38.9805 148.791C39.2852 148.615 39.5059 148.387 39.6426 148.105V146.805H38.793C37.4648 146.805 36.8008 147.193 36.8008 147.971C36.8008 148.311 36.9141 148.576 37.1406 148.768C37.3672 148.959 37.6582 149.055 38.0137 149.055ZM45.4902 144.514C45.3262 144.486 45.1484 144.473 44.957 144.473C44.2461 144.473 43.7637 144.775 43.5098 145.381V149.881H42.4258V143.541H43.4805L43.498 144.273C43.8535 143.707 44.3574 143.424 45.0098 143.424C45.2207 143.424 45.3809 143.451 45.4902 143.506V144.514ZM48.2559 142.006V143.541H49.4395V144.379H48.2559V148.311C48.2559 148.564 48.3086 148.756 48.4141 148.885C48.5195 149.01 48.6992 149.072 48.9531 149.072C49.0781 149.072 49.25 149.049 49.4688 149.002V149.881C49.1836 149.959 48.9062 149.998 48.6367 149.998C48.1523 149.998 47.7871 149.852 47.541 149.559C47.2949 149.266 47.1719 148.85 47.1719 148.311V144.379H46.0176V143.541H47.1719V142.006H48.2559ZM54.625 149.881C54.5625 149.756 54.5117 149.533 54.4727 149.213C53.9688 149.736 53.3672 149.998 52.668 149.998C52.043 149.998 51.5293 149.822 51.127 149.471C50.7285 149.115 50.5293 148.666 50.5293 148.123C50.5293 147.463 50.7793 146.951 51.2793 146.588C51.7832 146.221 52.4902 146.037 53.4004 146.037H54.4551V145.539C54.4551 145.16 54.3418 144.859 54.1152 144.637C53.8887 144.41 53.5547 144.297 53.1133 144.297C52.7266 144.297 52.4023 144.395 52.1406 144.59C51.8789 144.785 51.748 145.021 51.748 145.299H50.6582C50.6582 144.982 50.7695 144.678 50.9922 144.385C51.2188 144.088 51.5234 143.854 51.9062 143.682C52.293 143.51 52.7168 143.424 53.1777 143.424C53.9082 143.424 54.4805 143.607 54.8945 143.975C55.3086 144.338 55.5234 144.84 55.5391 145.48V148.398C55.5391 148.98 55.6133 149.443 55.7617 149.787V149.881H54.625ZM52.8262 149.055C53.166 149.055 53.4883 148.967 53.793 148.791C54.0977 148.615 54.3184 148.387 54.4551 148.105V146.805H53.6055C52.2773 146.805 51.6133 147.193 51.6133 147.971C51.6133 148.311 51.7266 148.576 51.9531 148.768C52.1797 148.959 52.4707 149.055 52.8262 149.055ZM55.375 141.068C55.375 141.49 55.2539 141.832 55.0117 142.094C54.7734 142.355 54.4746 142.486 54.1152 142.486C53.9551 142.486 53.8164 142.467 53.6992 142.428C53.582 142.389 53.4277 142.309 53.2363 142.188C53.0488 142.066 52.9121 141.994 52.8262 141.971C52.7441 141.943 52.6484 141.93 52.5391 141.93C52.3789 141.93 52.2422 141.992 52.1289 142.117C52.0156 142.238 51.959 142.395 51.959 142.586L51.2324 142.545C51.2324 142.127 51.3496 141.781 51.584 141.508C51.8223 141.234 52.123 141.098 52.4863 141.098C52.623 141.098 52.7461 141.117 52.8555 141.156C52.9648 141.195 53.1133 141.271 53.3008 141.385C53.4883 141.498 53.6309 141.572 53.7285 141.607C53.8301 141.643 53.9414 141.66 54.0625 141.66C54.2305 141.66 54.3691 141.594 54.4785 141.461C54.5918 141.328 54.6484 141.174 54.6484 140.998L55.375 141.068ZM56.9512 146.652C56.9512 146.031 57.0723 145.473 57.3145 144.977C57.5605 144.48 57.9004 144.098 58.334 143.828C58.7715 143.559 59.2695 143.424 59.8281 143.424C60.6914 143.424 61.3887 143.723 61.9199 144.32C62.4551 144.918 62.7227 145.713 62.7227 146.705V146.781C62.7227 147.398 62.6035 147.953 62.3652 148.445C62.1309 148.934 61.793 149.314 61.3516 149.588C60.9141 149.861 60.4102 149.998 59.8398 149.998C58.9805 149.998 58.2832 149.699 57.748 149.102C57.2168 148.504 56.9512 147.713 56.9512 146.729V146.652ZM58.041 146.781C58.041 147.484 58.2031 148.049 58.5273 148.475C58.8555 148.9 59.293 149.113 59.8398 149.113C60.3906 149.113 60.8281 148.898 61.1523 148.469C61.4766 148.035 61.6387 147.43 61.6387 146.652C61.6387 145.957 61.4727 145.395 61.1406 144.965C60.8125 144.531 60.375 144.314 59.8281 144.314C59.293 144.314 58.8613 144.527 58.5332 144.953C58.2051 145.379 58.041 145.988 58.041 146.781ZM66.7949 146.658C66.7949 145.686 67.0254 144.904 67.4863 144.314C67.9473 143.721 68.5508 143.424 69.2969 143.424C70.0391 143.424 70.627 143.678 71.0605 144.186V140.881H72.1445V149.881H71.1484L71.0957 149.201C70.6621 149.732 70.0586 149.998 69.2852 149.998C68.5508 149.998 67.9512 149.697 67.4863 149.096C67.0254 148.494 66.7949 147.709 66.7949 146.74V146.658ZM67.8789 146.781C67.8789 147.5 68.0273 148.062 68.3242 148.469C68.6211 148.875 69.0312 149.078 69.5547 149.078C70.2422 149.078 70.7441 148.77 71.0605 148.152V145.24C70.7363 144.643 70.2383 144.344 69.5664 144.344C69.0352 144.344 68.6211 144.549 68.3242 144.959C68.0273 145.369 67.8789 145.977 67.8789 146.781ZM76.4629 149.998C75.6035 149.998 74.9043 149.717 74.3652 149.154C73.8262 148.588 73.5566 147.832 73.5566 146.887V146.688C73.5566 146.059 73.6758 145.498 73.9141 145.006C74.1562 144.51 74.4922 144.123 74.9219 143.846C75.3555 143.564 75.8242 143.424 76.3281 143.424C77.1523 143.424 77.793 143.695 78.25 144.238C78.707 144.781 78.9355 145.559 78.9355 146.57V147.021H74.6406C74.6562 147.646 74.8379 148.152 75.1855 148.539C75.5371 148.922 75.9824 149.113 76.5215 149.113C76.9043 149.113 77.2285 149.035 77.4941 148.879C77.7598 148.723 77.9922 148.516 78.1914 148.258L78.8535 148.773C78.3223 149.59 77.5254 149.998 76.4629 149.998ZM76.3281 144.314C75.8906 144.314 75.5234 144.475 75.2266 144.795C74.9297 145.111 74.7461 145.557 74.6758 146.131H77.8516V146.049C77.8203 145.498 77.6719 145.072 77.4062 144.771C77.1406 144.467 76.7812 144.314 76.3281 144.314ZM85.7148 149.113C86.1016 149.113 86.4395 148.996 86.7285 148.762C87.0176 148.527 87.1777 148.234 87.209 147.883H88.2344C88.2148 148.246 88.0898 148.592 87.8594 148.92C87.6289 149.248 87.3203 149.51 86.9336 149.705C86.5508 149.9 86.1445 149.998 85.7148 149.998C84.8516 149.998 84.1641 149.711 83.6523 149.137C83.1445 148.559 82.8906 147.77 82.8906 146.77V146.588C82.8906 145.971 83.0039 145.422 83.2305 144.941C83.457 144.461 83.7812 144.088 84.2031 143.822C84.6289 143.557 85.1309 143.424 85.709 143.424C86.4199 143.424 87.0098 143.637 87.4785 144.062C87.9512 144.488 88.2031 145.041 88.2344 145.721H87.209C87.1777 145.311 87.0215 144.975 86.7402 144.713C86.4629 144.447 86.1191 144.314 85.709 144.314C85.1582 144.314 84.7305 144.514 84.4258 144.912C84.125 145.307 83.9746 145.879 83.9746 146.629V146.834C83.9746 147.564 84.125 148.127 84.4258 148.521C84.7266 148.916 85.1562 149.113 85.7148 149.113ZM92.5176 144.514C92.3535 144.486 92.1758 144.473 91.9844 144.473C91.2734 144.473 90.791 144.775 90.5371 145.381V149.881H89.4531V143.541H90.5078L90.5254 144.273C90.8809 143.707 91.3848 143.424 92.0371 143.424C92.248 143.424 92.4082 143.451 92.5176 143.506V144.514ZM96.0332 149.998C95.1738 149.998 94.4746 149.717 93.9355 149.154C93.3965 148.588 93.127 147.832 93.127 146.887V146.688C93.127 146.059 93.2461 145.498 93.4844 145.006C93.7266 144.51 94.0625 144.123 94.4922 143.846C94.9258 143.564 95.3945 143.424 95.8984 143.424C96.7227 143.424 97.3633 143.695 97.8203 144.238C98.2773 144.781 98.5059 145.559 98.5059 146.57V147.021H94.2109C94.2266 147.646 94.4082 148.152 94.7559 148.539C95.1074 148.922 95.5527 149.113 96.0918 149.113C96.4746 149.113 96.7988 149.035 97.0645 148.879C97.3301 148.723 97.5625 148.516 97.7617 148.258L98.4238 148.773C97.8926 149.59 97.0957 149.998 96.0332 149.998ZM95.8984 144.314C95.4609 144.314 95.0938 144.475 94.7969 144.795C94.5 145.111 94.3164 145.557 94.2461 146.131H97.4219V146.049C97.3906 145.498 97.2422 145.072 96.9766 144.771C96.7109 144.467 96.3516 144.314 95.8984 144.314ZM96.4258 140.881H97.7383L96.168 142.604H95.2949L96.4258 140.881ZM99.502 146.658C99.502 145.686 99.7324 144.904 100.193 144.314C100.654 143.721 101.258 143.424 102.004 143.424C102.746 143.424 103.334 143.678 103.768 144.186V140.881H104.852V149.881H103.855L103.803 149.201C103.369 149.732 102.766 149.998 101.992 149.998C101.258 149.998 100.658 149.697 100.193 149.096C99.7324 148.494 99.502 147.709 99.502 146.74V146.658ZM100.586 146.781C100.586 147.5 100.734 148.062 101.031 148.469C101.328 148.875 101.738 149.078 102.262 149.078C102.949 149.078 103.451 148.77 103.768 148.152V145.24C103.443 144.643 102.945 144.344 102.273 144.344C101.742 144.344 101.328 144.549 101.031 144.959C100.734 145.369 100.586 145.977 100.586 146.781ZM107.717 149.881H106.633V143.541H107.717V149.881ZM106.545 141.859C106.545 141.684 106.598 141.535 106.703 141.414C106.812 141.293 106.973 141.232 107.184 141.232C107.395 141.232 107.555 141.293 107.664 141.414C107.773 141.535 107.828 141.684 107.828 141.859C107.828 142.035 107.773 142.182 107.664 142.299C107.555 142.416 107.395 142.475 107.184 142.475C106.973 142.475 106.812 142.416 106.703 142.299C106.598 142.182 106.545 142.035 106.545 141.859ZM110.928 142.006V143.541H112.111V144.379H110.928V148.311C110.928 148.564 110.98 148.756 111.086 148.885C111.191 149.01 111.371 149.072 111.625 149.072C111.75 149.072 111.922 149.049 112.141 149.002V149.881C111.855 149.959 111.578 149.998 111.309 149.998C110.824 149.998 110.459 149.852 110.213 149.559C109.967 149.266 109.844 148.85 109.844 148.311V144.379H108.689V143.541H109.844V142.006H110.928ZM112.979 146.652C112.979 146.031 113.1 145.473 113.342 144.977C113.588 144.48 113.928 144.098 114.361 143.828C114.799 143.559 115.297 143.424 115.855 143.424C116.719 143.424 117.416 143.723 117.947 144.32C118.482 144.918 118.75 145.713 118.75 146.705V146.781C118.75 147.398 118.631 147.953 118.393 148.445C118.158 148.934 117.82 149.314 117.379 149.588C116.941 149.861 116.438 149.998 115.867 149.998C115.008 149.998 114.311 149.699 113.775 149.102C113.244 148.504 112.979 147.713 112.979 146.729V146.652ZM114.068 146.781C114.068 147.484 114.23 148.049 114.555 148.475C114.883 148.9 115.32 149.113 115.867 149.113C116.418 149.113 116.855 148.898 117.18 148.469C117.504 148.035 117.666 147.43 117.666 146.652C117.666 145.957 117.5 145.395 117.168 144.965C116.84 144.531 116.402 144.314 115.855 144.314C115.32 144.314 114.889 144.527 114.561 144.953C114.232 145.379 114.068 145.988 114.068 146.781Z" fill="white"/>
<path opacity="0.8" d="M36.6937 124.881L33.6517 120.507L30.6637 124.881H27.3157L31.9777 118.473L27.5497 112.281H30.8617L33.7597 116.367L36.6037 112.281H39.7537L35.3617 118.365L40.0597 124.881H36.6937ZM51.3675 124.881L48.3255 120.507L45.3375 124.881H41.9895L46.6515 118.473L42.2235 112.281H45.5355L48.4335 116.367L51.2775 112.281H54.4275L50.0355 118.365L54.7335 124.881H51.3675ZM66.0414 124.881L62.9994 120.507L60.0114 124.881H56.6634L61.3254 118.473L56.8974 112.281H60.2094L63.1074 116.367L65.9514 112.281H69.1014L64.7094 118.365L69.4074 124.881H66.0414ZM80.7152 124.881L77.6732 120.507L74.6852 124.881H71.3372L75.9992 118.473L71.5712 112.281H74.8832L77.7812 116.367L80.6252 112.281H83.7752L79.3832 118.365L84.0812 124.881H80.7152ZM102.662 124.881L99.6205 120.507L96.6325 124.881H93.2845L97.9465 118.473L93.5185 112.281H96.8305L99.7285 116.367L102.572 112.281H105.722L101.33 118.365L106.028 124.881H102.662ZM117.336 124.881L114.294 120.507L111.306 124.881H107.958L112.62 118.473L108.192 112.281H111.504L114.402 116.367L117.246 112.281H120.396L116.004 118.365L120.702 124.881H117.336ZM132.01 124.881L128.968 120.507L125.98 124.881H122.632L127.294 118.473L122.866 112.281H126.178L129.076 116.367L131.92 112.281H135.07L130.678 118.365L135.376 124.881H132.01ZM146.684 124.881L143.642 120.507L140.654 124.881H137.306L141.968 118.473L137.54 112.281H140.852L143.75 116.367L146.594 112.281H149.744L145.352 118.365L150.05 124.881H146.684ZM168.631 124.881L165.589 120.507L162.601 124.881H159.253L163.915 118.473L159.487 112.281H162.799L165.697 116.367L168.541 112.281H171.691L167.299 118.365L171.997 124.881H168.631ZM183.305 124.881L180.263 120.507L177.275 124.881H173.927L178.589 118.473L174.161 112.281H177.473L180.371 116.367L183.215 112.281H186.365L181.973 118.365L186.671 124.881H183.305ZM197.979 124.881L194.937 120.507L191.949 124.881H188.601L193.263 118.473L188.835 112.281H192.147L195.045 116.367L197.889 112.281H201.039L196.647 118.365L201.345 124.881H197.979ZM212.653 124.881L209.611 120.507L206.623 124.881H203.275L207.937 118.473L203.509 112.281H206.821L209.719 116.367L212.563 112.281H215.713L211.321 118.365L216.019 124.881H212.653Z" fill="white"/>
<path d="M265.559 29.0806H277.726V50.9431H265.559V29.0806Z" fill="#FF5F00"/>
<path d="M257.332 61.9474V59.6299C257.332 58.7413 256.791 58.1621 255.864 58.1621C255.4 58.1621 254.898 58.3165 254.551 58.8187C254.28 58.3938 253.894 58.1621 253.315 58.1621C252.928 58.1621 252.542 58.2778 252.233 58.7028V58.2393H251.422V61.9474H252.233V59.9001C252.233 59.2436 252.581 58.9345 253.122 58.9345C253.662 58.9345 253.933 59.2822 253.933 59.9001V61.9474H254.744V59.9001C254.744 59.2436 255.13 58.9345 255.632 58.9345C256.173 58.9345 256.443 59.2822 256.443 59.9001V61.9474H257.332ZM269.344 58.2393H268.031V57.1192H267.22V58.2393H266.486V58.973H267.22V60.6727C267.22 61.5226 267.568 62.0246 268.495 62.0246C268.842 62.0246 269.228 61.9088 269.499 61.7543L269.267 61.059C269.035 61.2135 268.765 61.2522 268.572 61.2522C268.186 61.2522 268.031 61.0204 268.031 60.634V58.973H269.344V58.2393ZM276.22 58.1619C275.757 58.1619 275.448 58.3938 275.254 58.7028V58.2393H274.443V61.9474H275.254V59.8616C275.254 59.2436 275.525 58.896 276.027 58.896C276.181 58.896 276.375 58.9347 276.529 58.9732L276.761 58.2008C276.606 58.1621 276.374 58.1621 276.22 58.1621V58.1619ZM265.83 58.5483C265.443 58.2778 264.902 58.1621 264.323 58.1621C263.396 58.1621 262.778 58.6255 262.778 59.3594C262.778 59.9775 263.242 60.3251 264.053 60.441L264.439 60.4797C264.864 60.5568 265.096 60.6727 265.096 60.8659C265.096 61.1362 264.787 61.3294 264.246 61.3294C263.705 61.3294 263.28 61.1362 263.01 60.9432L262.623 61.5611C263.048 61.8701 263.628 62.0246 264.207 62.0246C265.289 62.0246 265.907 61.5226 265.907 60.8272C265.907 60.1706 265.405 59.8229 264.632 59.7071L264.246 59.6684C263.898 59.6297 263.628 59.5526 263.628 59.3209C263.628 59.0504 263.898 58.896 264.323 58.896C264.787 58.896 265.25 59.089 265.482 59.2049L265.83 58.5483ZM287.383 58.1621C286.919 58.1621 286.61 58.3938 286.417 58.7028V58.2393H285.606V61.9474H286.417V59.8616C286.417 59.2436 286.688 58.896 287.19 58.896C287.344 58.896 287.538 58.9347 287.692 58.9732L287.924 58.2008C287.769 58.1621 287.538 58.1621 287.383 58.1621ZM277.031 60.0933C277.031 61.2135 277.804 62.0246 279.001 62.0246C279.542 62.0246 279.928 61.9088 280.314 61.5998L279.928 60.9432C279.619 61.1749 279.31 61.2907 278.962 61.2907C278.306 61.2907 277.842 60.8272 277.842 60.0933C277.842 59.3981 278.306 58.9345 278.962 58.896C279.31 58.896 279.619 59.0117 279.928 59.2436L280.314 58.587C279.928 58.2778 279.542 58.1621 279.001 58.1621C277.804 58.1621 277.031 58.9732 277.031 60.0933ZM284.525 60.0933V58.2393H283.714V58.7028C283.443 58.3552 283.057 58.1621 282.555 58.1621C281.512 58.1621 280.701 58.9732 280.701 60.0933C280.701 61.2135 281.512 62.0246 282.555 62.0246C283.095 62.0246 283.482 61.8316 283.714 61.4839V61.9474H284.525V60.0933ZM281.55 60.0933C281.55 59.4367 281.975 58.896 282.67 58.896C283.327 58.896 283.791 59.3981 283.791 60.0933C283.791 60.75 283.327 61.2907 282.67 61.2907C281.975 61.252 281.55 60.75 281.55 60.0933ZM271.855 58.1621C270.774 58.1621 270.001 58.9345 270.001 60.0933C270.001 61.2522 270.774 62.0246 271.894 62.0246C272.435 62.0246 272.975 61.8701 273.4 61.5226L273.014 60.9432C272.705 61.1749 272.319 61.3294 271.933 61.3294C271.43 61.3294 270.928 61.0977 270.812 60.4408H273.555V60.132C273.594 58.9345 272.898 58.1621 271.855 58.1621H271.855ZM271.855 58.8572C272.357 58.8572 272.705 59.1664 272.782 59.7458H270.851C270.928 59.2436 271.276 58.8572 271.855 58.8572ZM291.98 60.0933V56.7715H291.168V58.7028C290.898 58.3552 290.512 58.1621 290.01 58.1621C288.967 58.1621 288.156 58.9732 288.156 60.0933C288.156 61.2135 288.967 62.0246 290.01 62.0246C290.55 62.0246 290.937 61.8316 291.168 61.4839V61.9474H291.98V60.0933ZM289.005 60.0933C289.005 59.4367 289.43 58.896 290.126 58.896C290.782 58.896 291.246 59.3981 291.246 60.0933C291.246 60.75 290.782 61.2907 290.126 61.2907C289.43 61.252 289.005 60.75 289.005 60.0933ZM261.89 60.0933V58.2393H261.078V58.7028C260.808 58.3552 260.422 58.1621 259.92 58.1621C258.877 58.1621 258.066 58.9732 258.066 60.0933C258.066 61.2135 258.877 62.0246 259.92 62.0246C260.46 62.0246 260.847 61.8316 261.078 61.4839V61.9474H261.89V60.0933ZM258.877 60.0933C258.877 59.4367 259.302 58.896 259.997 58.896C260.653 58.896 261.117 59.3981 261.117 60.0933C261.117 60.75 260.653 61.2907 259.997 61.2907C259.302 61.252 258.877 60.75 258.877 60.0933Z" fill="white"/>
<path d="M266.329 40.0119C266.329 35.57 268.415 31.63 271.621 29.0806C269.265 27.2266 266.291 26.1064 263.046 26.1064C255.359 26.1064 249.141 32.3252 249.141 40.0119C249.141 47.6985 255.359 53.9174 263.046 53.9174C266.291 53.9174 269.265 52.7973 271.621 50.9431C268.415 48.4324 266.329 44.4539 266.329 40.0119Z" fill="#EB001B"/>
<path d="M294.141 40.0119C294.141 47.6985 287.922 53.9174 280.235 53.9174C276.991 53.9174 274.016 52.7973 271.66 50.9431C274.905 48.3939 276.952 44.4539 276.952 40.0119C276.952 35.57 274.866 31.63 271.66 29.0806C274.016 27.2266 276.991 26.1064 280.235 26.1064C287.922 26.1064 294.141 32.3639 294.141 40.0119H294.141Z" fill="#F79E1B"/>
</g>
<defs>
<filter id="filter0_d" x="0" y="0.880859" width="322" height="182" filterUnits="userSpaceOnUse" color-interpolation-filters="sRGB">
<feFlood flood-opacity="0" result="BackgroundImageFix"/>
<feColorMatrix in="SourceAlpha" type="matrix" values="0 0 0 0 0 0 0 0 0 0 0 0 0 0 0 0 0 0 127 0" result="hardAlpha"/>
<feOffset/>
<feGaussianBlur stdDeviation="4"/>
<feColorMatrix type="matrix" values="0 0 0 0 0 0 0 0 0 0 0 0 0 0 0 0 0 0 0.1 0"/>
<feBlend mode="normal" in2="BackgroundImageFix" result="effect1_dropShadow"/>
<feBlend mode="normal" in="SourceGraphic" in2="effect1_dropShadow" result="shape"/>
</filter>
<linearGradient id="paint0_linear" x1="0.898522" y1="8.88086" x2="154.001" y2="275.081" gradientUnits="userSpaceOnUse">
<stop offset="0.0001" stop-color="#E4422C"/>
<stop offset="1" stop-color="#F59046"/>
</linearGradient>
</defs>
</svg>
