<svg width="18" height="18" viewBox="0 0 18 18" fill="none" xmlns="http://www.w3.org/2000/svg">
<path fill-rule="evenodd" clip-rule="evenodd" d="M4.5 15.75C5.12132 15.75 5.625 15.2463 5.625 14.625C5.625 14.0037 5.12132 13.5 4.5 13.5C3.87868 13.5 3.375 14.0037 3.375 14.625C3.375 15.2463 3.87868 15.75 4.5 15.75Z" stroke="#8C8C8C" stroke-linecap="round" stroke-linejoin="round"/>
<path fill-rule="evenodd" clip-rule="evenodd" d="M14.0625 15.75C14.6838 15.75 15.1875 15.2463 15.1875 14.625C15.1875 14.0037 14.6838 13.5 14.0625 13.5C13.4412 13.5 12.9375 14.0037 12.9375 14.625C12.9375 15.2463 13.4412 15.75 14.0625 15.75Z" stroke="#8C8C8C" stroke-linecap="round" stroke-linejoin="round"/>
<path d="M7.875 11.25H17.4375V13.5C17.4375 14.1213 16.9338 14.625 16.3125 14.625H15.1875" stroke="#8C8C8C" stroke-linecap="round" stroke-linejoin="round"/>
<path d="M7.875 14.625H12.9375" stroke="#8C8C8C" stroke-linecap="round" stroke-linejoin="round"/>
<path d="M0.5625 12.375H2.03025" stroke="#8C8C8C" stroke-linecap="round" stroke-linejoin="round"/>
<path d="M3.375 14.625H1.6875C1.06618 14.625 0.5625 14.1213 0.5625 13.5V10.3237C0.56273 9.86391 0.842791 9.4505 1.26975 9.27975L3.375 8.4375L3.9375 4.5H7.875V14.625H5.625" stroke="#8C8C8C" stroke-linecap="round" stroke-linejoin="round"/>
<path d="M3.375 8.4375H7.875" stroke="#8C8C8C" stroke-linecap="round" stroke-linejoin="round"/>
<path fill-rule="evenodd" clip-rule="evenodd" d="M7.875 2.25H16.6875C17.1017 2.25 17.4375 2.58579 17.4375 3V11.25H7.875V2.25Z" stroke="#8C8C8C" stroke-linecap="round" stroke-linejoin="round"/>
<path fill-rule="evenodd" clip-rule="evenodd" d="M3.5625 2.25H7.875V4.5H2.8125V3C2.8125 2.58579 3.14829 2.25 3.5625 2.25Z" stroke="#8C8C8C" stroke-linecap="round" stroke-linejoin="round"/>
</svg>
