<svg width="84" height="130" viewBox="0 0 84 130" fill="none" xmlns="http://www.w3.org/2000/svg">
<path d="M82.3188 40.2302C82.3188 57.1719 58.3537 88.5439 47.3633 102.052C44.614 105.431 39.4595 105.562 36.6938 102.309C25.5221 89.1702 0.5 57.7653 0.5 40.2941C0.5 17.7127 19.2572 -0.322948 42.0387 0.00438606C64.4374 0.326451 82.3188 18.3338 82.3188 40.2302Z" fill="#0054A6"/>
<path d="M50.3759 121.505C50.3759 126.035 46.6513 129.836 42.0424 129.996C37.4177 130.156 33.6562 126.59 33.6562 122.031C33.6562 117.472 37.417 113.67 42.0424 113.539C46.6513 113.408 50.3759 116.975 50.3759 121.505Z" fill="#0054A6"/>
<path d="M83.7642 40.2302C83.7642 57.1719 59.7991 88.5439 48.8086 102.052C46.0594 105.431 40.9048 105.562 38.1391 102.309C26.9674 89.1702 1.94531 57.7653 1.94531 40.2941C1.94531 17.7127 20.7025 -0.322948 43.4841 0.00438606C65.8828 0.326451 83.7642 18.3338 83.7642 40.2302Z" fill="#007DC5"/>
<path d="M66.1003 40.2438C66.1003 52.5383 56.0225 62.598 43.4841 62.7133C30.8265 62.8298 20.4766 52.7866 20.4766 40.2794C20.4766 27.7722 30.8265 17.7125 43.4841 17.8093C56.0225 17.9054 66.1003 27.9494 66.1003 40.2438Z" fill="white"/>
<g opacity="0.3">
<path opacity="0.3" d="M43.3035 85.654C45.8959 68.8033 57.1124 63.3176 55.1941 47.5233C52.978 29.2802 36.5173 24.3333 36.118 7.98441C36.0534 5.35191 36.4185 2.81886 37.1058 0.398438C17.2995 3.15542 1.94531 19.8758 1.94531 40.293C1.94531 57.7648 26.9668 89.1691 38.1391 102.309C39.7674 104.224 42.2254 104.965 44.5318 104.561C42.549 97.2411 42.489 90.9487 43.3035 85.654Z" fill="#007DC5"/>
</g>
<path d="M51.8212 121.505C51.8212 126.035 48.0966 129.836 43.4877 129.996C38.863 130.156 35.1016 126.59 35.1016 122.031C35.1016 117.472 38.8624 113.67 43.4877 113.539C48.0966 113.408 51.8212 116.975 51.8212 121.505Z" fill="#007DC5"/>
</svg>
