<svg width="18" height="18" viewBox="0 0 18 18" fill="none" xmlns="http://www.w3.org/2000/svg">
<path d="M15.5 9.5V15.5C15.5 16.0523 15.0523 16.5 14.5 16.5H3.5C2.94772 16.5 2.5 16.0523 2.5 15.5V9.5" stroke="#007DC5" stroke-width="1.125" stroke-linecap="round" stroke-linejoin="round"/>
<path fill-rule="evenodd" clip-rule="evenodd" d="M15.0987 1.5H2.90133C2.66692 1.49996 2.46386 1.66258 2.41267 1.89133L1.5 6C1.5 6.82843 2.17157 7.5 3 7.5C3.82843 7.5 4.5 6.82843 4.5 6C4.5 6.82843 5.17157 7.5 6 7.5C6.82843 7.5 7.5 6.82843 7.5 6C7.5 6.82843 8.17157 7.5 9 7.5C9.82843 7.5 10.5 6.82843 10.5 6C10.5 6.82843 11.1716 7.5 12 7.5C12.8284 7.5 13.5 6.82843 13.5 6C13.5 6.82843 14.1716 7.5 15 7.5C15.8284 7.5 16.5 6.82843 16.5 6L15.5867 1.89133C15.536 1.66254 15.333 1.49977 15.0987 1.5Z" stroke="#007DC5" stroke-width="1.125" stroke-linecap="round" stroke-linejoin="round"/>
<path d="M2.5 12.5H11" stroke="#007DC5" stroke-width="1.125" stroke-linecap="round" stroke-linejoin="round"/>
<path d="M11 16.5V9.5" stroke="#007DC5" stroke-width="1.125" stroke-linecap="round" stroke-linejoin="round"/>
</svg>
