<svg width="18" height="18" viewBox="0 0 18 18" fill="none" xmlns="http://www.w3.org/2000/svg">
<path fill-rule="evenodd" clip-rule="evenodd" d="M6.74605 17.4375H1.83955C1.51587 17.4374 1.20791 17.2979 0.994378 17.0547C0.780847 16.8114 0.682436 16.488 0.724299 16.167L2.1178 5.4795C2.1909 4.919 2.66855 4.49977 3.2338 4.5H4.0708C4.63576 4.50015 5.11298 4.91928 5.18605 5.4795L6.74605 17.4375Z" stroke="#007DC5" stroke-linecap="round" stroke-linejoin="round"/>
<path d="M10.6836 4.5H14.7583C15.3233 4.50015 15.8005 4.91928 15.8736 5.4795L17.2678 16.167C17.3097 16.4881 17.2112 16.8117 16.9975 17.0549C16.7838 17.2982 16.4757 17.4376 16.1518 17.4375H6.74609" stroke="#007DC5" stroke-linecap="round" stroke-linejoin="round"/>
<path d="M4.07031 4.5H8.99556" stroke="#007DC5" stroke-linecap="round" stroke-linejoin="round"/>
<path d="M13.4961 7.875V2.8125C13.4961 2.00865 13.0672 1.26587 12.3711 0.863943C11.6749 0.462019 10.8172 0.462019 10.1211 0.863943C9.42494 1.26587 8.99609 2.00865 8.99609 2.8125V7.875" stroke="#007DC5" stroke-linecap="round" stroke-linejoin="round"/>
<path d="M7.18485 0.941406C6.5583 1.35943 6.18248 2.06322 6.1836 2.81641V4.50166" stroke="#007DC5" stroke-linecap="round" stroke-linejoin="round"/>
</svg>
