<svg width="18" height="18" viewBox="0 0 18 18" fill="none" xmlns="http://www.w3.org/2000/svg">
<path fill-rule="evenodd" clip-rule="evenodd" d="M0.9375 8.69922H17.0625C17.2696 8.69922 17.4375 8.86711 17.4375 9.07422V15.0742C17.4375 15.9026 16.7659 16.5742 15.9375 16.5742H2.0625C1.23407 16.5742 0.5625 15.9026 0.5625 15.0742V9.07422C0.5625 8.86711 0.730393 8.69922 0.9375 8.69922Z" stroke="#007DC5" stroke-linecap="round" stroke-linejoin="round"/>
<path fill-rule="evenodd" clip-rule="evenodd" d="M3.5625 6.44922H14.4375C14.8517 6.44922 15.1875 6.78501 15.1875 7.19922V8.69922H2.8125V7.19922C2.8125 6.78501 3.14829 6.44922 3.5625 6.44922Z" stroke="#007DC5" stroke-linecap="round" stroke-linejoin="round"/>
<path d="M3.9375 6.44964C3.9375 4.76214 5.0625 3.07464 6.75 3.07464H10.125C11.2888 3.10096 12.3419 2.38816 12.75 1.29789C12.8218 1.1088 12.9902 0.973288 13.1903 0.943574C13.3903 0.91386 13.5908 0.994586 13.7145 1.15464C15.9278 4.11939 14.0625 6.45114 14.0625 6.45114" stroke="#007DC5" stroke-linecap="round" stroke-linejoin="round"/>
<rect x="3.9375" y="10.9492" width="10.125" height="3.375" stroke="#007DC5" stroke-linecap="round" stroke-linejoin="round"/>
</svg>
