<svg width="18" height="18" viewBox="0 0 18 18" fill="none" xmlns="http://www.w3.org/2000/svg">
<path fill-rule="evenodd" clip-rule="evenodd" d="M12.2356 0.891885C11.7965 1.3312 11.7965 2.04332 12.2356 2.48263L15.5139 5.76089C15.9532 6.20037 16.6655 6.20053 17.105 5.76126C17.5445 5.32199 17.5447 4.60962 17.1054 4.17014L13.8264 0.891885C13.3871 0.452705 12.6749 0.452705 12.2356 0.891885Z" stroke="#007DC5" stroke-linecap="round" stroke-linejoin="round"/>
<path fill-rule="evenodd" clip-rule="evenodd" d="M9.05242 0.889481C8.84128 1.10048 8.72266 1.38674 8.72266 1.68523C8.72266 1.98372 8.84128 2.26998 9.05242 2.48098L15.5137 8.94223C15.9538 9.3815 16.6666 9.38083 17.1059 8.94073C17.5452 8.50063 17.5445 7.78775 17.1044 7.34848L10.6462 0.889481C10.4351 0.677657 10.1483 0.558594 9.84929 0.558594C9.55025 0.558594 9.26351 0.677657 9.05242 0.889481Z" stroke="#007DC5" stroke-linecap="round" stroke-linejoin="round"/>
<path fill-rule="evenodd" clip-rule="evenodd" d="M0.887979 12.236C1.09898 12.0249 1.38524 11.9062 1.68373 11.9062C1.98222 11.9062 2.26848 12.0249 2.47948 12.236L5.75773 15.5143C6.18407 15.9557 6.17798 16.6574 5.74403 17.0913C5.31007 17.5253 4.60841 17.5314 4.16698 17.105L0.887979 13.8268C0.448799 13.3874 0.448799 12.6753 0.887979 12.236Z" stroke="#007DC5" stroke-linecap="round" stroke-linejoin="round"/>
<path fill-rule="evenodd" clip-rule="evenodd" d="M0.889857 9.05204C1.32917 8.61286 2.04129 8.61286 2.48061 9.05204L8.94186 15.5133C9.38134 15.9534 9.38083 16.6664 8.94073 17.1059C8.50063 17.5454 7.78759 17.5449 7.34811 17.1048L0.889857 10.6465C0.677803 10.4354 0.558594 10.1485 0.558594 9.84929C0.558594 9.55006 0.677803 9.26316 0.889857 9.05204Z" stroke="#007DC5" stroke-linecap="round" stroke-linejoin="round"/>
<rect x="4.91406" y="11.4883" width="9.29625" height="2.25" transform="rotate(-45 4.91406 11.4883)" stroke="#007DC5" stroke-linecap="round" stroke-linejoin="round"/>
</svg>
