<svg width="19" height="18" viewBox="0 0 19 18" fill="none" xmlns="http://www.w3.org/2000/svg">
<path d="M2.125 9.28125V1.40625C2.125 1.19319 2.24538 0.998421 2.43594 0.903138C2.62651 0.807855 2.85455 0.828418 3.025 0.956253L6.175 3.31875C6.45828 3.53121 6.625 3.86465 6.625 4.21875V9.28125M3.25 14.9063H5.5M11.125 12.6563H17.875M11.125 14.9063H17.875M1.75 9.28125H7C7.41421 9.28125 7.75 9.61704 7.75 10.0313V16.7813C7.75 16.9884 7.58211 17.1563 7.375 17.1563H1.375C1.16789 17.1563 1 16.9884 1 16.7813V10.0313C1 9.61704 1.33579 9.28125 1.75 9.28125ZM11.625 17.1563H17.375C17.6511 17.1563 17.875 16.9324 17.875 16.6563V8.65625C17.875 8.38011 17.6511 8.15625 17.375 8.15625H11.625C11.3489 8.15625 11.125 8.38011 11.125 8.65625V16.6563C11.125 16.9324 11.3489 17.1563 11.625 17.1563Z" stroke="#007DC5" stroke-linecap="round" stroke-linejoin="round"/>
</svg>
