<svg width="19" height="18" viewBox="0 0 19 18" fill="none" xmlns="http://www.w3.org/2000/svg">
<path d="M2.6875 14.0627C1.75552 14.0627 1 14.8182 1 15.7502C1 16.6822 1.75552 17.4377 2.6875 17.4377C3.61948 17.4377 4.375 16.6822 4.375 15.7502C4.375 14.8182 3.61948 14.0627 2.6875 14.0627ZM2.6875 14.0627V10.6877C2.6875 10.0664 3.19118 9.56269 3.8125 9.56269H8.875M3.88075 14.5569L15.0625 3.37519H17.875M14.4257 4.01269C13.4965 2.12977 11.676 0.846396 9.59035 0.603963C7.50467 0.361531 5.43833 1.19311 4.102 2.81269L10 8.43769M4.375 14.0627H8.458C9.08366 14.0637 9.68151 13.8042 10.108 13.3464L14.7873 8.32144C14.9974 8.069 15.0868 7.73731 15.0318 7.41346C14.9769 7.08961 14.7832 6.80594 14.5015 6.63694L12.8125 5.62519M12.6415 14.6702L10.519 12.9017M15.625 15.7502C15.625 16.6822 14.8695 17.4377 13.9375 17.4377C13.0055 17.4377 12.25 16.6822 12.25 15.7502C12.25 14.8182 13.0055 14.0627 13.9375 14.0627C14.8695 14.0627 15.625 14.8182 15.625 15.7502Z" stroke="#007DC5" stroke-linecap="round" stroke-linejoin="round"/>
</svg>
