<svg width="20" height="20" viewBox="0 0 20 20" fill="none" xmlns="http://www.w3.org/2000/svg">
<path d="M11.3756 11.3756L15.6359 15.6359M10.6386 5.81932C10.6386 8.48096 8.48096 10.6386 5.81932 10.6386C3.15769 10.6386 1 8.48096 1 5.81932C1 3.15769 3.15769 1 5.81932 1C8.48096 1 10.6386 3.15769 10.6386 5.81932ZM13.0811 18.1908C11.8943 19.2967 10.0449 19.264 8.89784 18.117C7.7508 16.9699 7.71817 15.1205 8.82404 13.9337L13.9357 8.82204C14.6866 8.0162 15.8175 7.68448 16.8847 7.95703C17.9519 8.22958 18.7853 9.06292 19.0578 10.1301C19.3304 11.1973 18.9986 12.3282 18.1928 13.0791L13.0811 18.1908ZM8.38378 4.8496H6.77733V3.24316C6.77733 3.06572 6.63349 2.92188 6.45605 2.92188H5.17089C4.99345 2.92188 4.8496 3.06572 4.8496 3.24316V4.8496H3.24316C3.06572 4.8496 2.92188 4.99345 2.92188 5.17089V6.45605C2.92188 6.63349 3.06572 6.77733 3.24316 6.77733H4.8496V8.38378C4.8496 8.56122 4.99345 8.70506 5.17089 8.70506H6.45605C6.63349 8.70506 6.77733 8.56122 6.77733 8.38378V6.77733H8.38378C8.56122 6.77733 8.70506 6.63349 8.70506 6.45605V5.17089C8.70506 4.99345 8.56122 4.8496 8.38378 4.8496Z" stroke="#007DC5" stroke-linecap="round" stroke-linejoin="round"/>
</svg>
