<svg width="72" height="69" viewBox="0 0 72 69" fill="none" xmlns="http://www.w3.org/2000/svg">
<g filter="url(#filter0_d_7849_58643)">
<rect x="3" y="1" width="66" height="34" rx="8" fill="#E7F3F9"/>
<path fill-rule="evenodd" clip-rule="evenodd" d="M42.4598 14.9126C43.8487 14.2369 44.4329 12.5676 43.7683 11.1733C43.1037 9.77903 41.4391 9.1816 40.0396 9.83507L35.3191 12.0851C35.0496 12.2134 34.8421 12.4436 34.7424 12.7249C34.6427 13.0062 34.6588 13.3157 34.7873 13.5851L36.2393 16.6316C36.3676 16.9011 36.5978 17.1085 36.8791 17.2082C37.1605 17.308 37.4699 17.2918 37.7393 17.1633L42.4598 14.9126Z" stroke="#007DC5" stroke-linecap="round" stroke-linejoin="round"/>
<path d="M38.2271 12.5664L37.6953 14.0664L39.1946 14.5982" stroke="#007DC5" stroke-linecap="round" stroke-linejoin="round"/>
<path d="M40.2578 11.6016L41.7571 12.1326L41.2253 13.6326" stroke="#007DC5" stroke-linecap="round" stroke-linejoin="round"/>
<path d="M35.5138 15.1094L33.332 16.1496" stroke="#007DC5" stroke-linecap="round" stroke-linejoin="round"/>
<path d="M30.5622 26.4375L28.3655 24.6795C27.9904 24.3795 27.8246 23.8885 27.941 23.4225V23.4225C28.0313 23.0611 28.2808 22.7602 28.6193 22.6046C28.9577 22.449 29.3486 22.4555 29.6817 22.6223L30.5622 23.0625V19.125C30.5622 18.5037 31.0659 18 31.6872 18V18C32.3085 18 32.8122 18.5037 32.8122 19.125V21.375L34.307 21.624C35.3919 21.8047 36.1871 22.7434 36.1872 23.8432V26.4375" stroke="#007DC5" stroke-linecap="round" stroke-linejoin="round"/>
</g>
<path d="M8.6607 50.959H5.38433L4.64849 53H3.58502L6.57135 45.1797H7.47369L10.4654 53H9.40728L8.6607 50.959ZM5.69586 50.1104H8.35455L7.02252 46.4526L5.69586 50.1104ZM10.796 50.0459C10.796 49.14 11.0055 48.4202 11.4245 47.8867C11.8434 47.3496 12.3984 47.0811 13.0895 47.0811C13.7985 47.0811 14.3517 47.3317 14.7492 47.833L14.7975 47.1885H15.7052V52.8604C15.7052 53.6123 15.4814 54.2049 15.0338 54.6382C14.5898 55.0715 13.9918 55.2881 13.2399 55.2881C12.8209 55.2881 12.4109 55.1986 12.0099 55.0195C11.6089 54.8405 11.3027 54.5952 11.0914 54.2837L11.6071 53.6875C12.0332 54.2139 12.5542 54.4771 13.1701 54.4771C13.6535 54.4771 14.0294 54.341 14.298 54.0688C14.5701 53.7967 14.7062 53.4136 14.7062 52.9194V52.4199C14.3087 52.8783 13.7662 53.1074 13.0787 53.1074C12.3984 53.1074 11.847 52.8335 11.4245 52.2856C11.0055 51.7378 10.796 50.9912 10.796 50.0459ZM11.7951 50.1587C11.7951 50.814 11.9293 51.3296 12.1979 51.7056C12.4664 52.078 12.8424 52.2642 13.3258 52.2642C13.9524 52.2642 14.4126 51.9795 14.7062 51.4102V48.7568C14.4018 48.2018 13.9453 47.9243 13.3366 47.9243C12.8532 47.9243 12.4754 48.1123 12.2033 48.4883C11.9311 48.8643 11.7951 49.4211 11.7951 50.1587ZM19.2907 53.1074C18.503 53.1074 17.862 52.8496 17.3679 52.334C16.8737 51.8148 16.6267 51.1219 16.6267 50.2554V50.0728C16.6267 49.4963 16.7359 48.9824 16.9543 48.5312C17.1763 48.0765 17.4843 47.722 17.8781 47.4678C18.2756 47.21 18.7053 47.0811 19.1672 47.0811C19.9227 47.0811 20.51 47.3299 20.9289 47.8276C21.3479 48.3254 21.5573 49.0379 21.5573 49.9653V50.3789H17.6203C17.6347 50.9518 17.8012 51.4155 18.1198 51.77C18.4421 52.1209 18.8503 52.2964 19.3445 52.2964C19.6954 52.2964 19.9926 52.2248 20.2361 52.0815C20.4795 51.9383 20.6926 51.7485 20.8752 51.5122L21.4821 51.9849C20.9952 52.7332 20.2647 53.1074 19.2907 53.1074ZM19.1672 47.8975C18.7662 47.8975 18.4296 48.0443 18.1574 48.3379C17.8853 48.6279 17.717 49.0361 17.6526 49.5625H20.5637V49.4873C20.535 48.9824 20.399 48.5921 20.1555 48.3164C19.912 48.0371 19.5826 47.8975 19.1672 47.8975ZM23.3221 47.1885L23.3543 47.9189C23.7983 47.3604 24.3784 47.0811 25.0945 47.0811C26.3227 47.0811 26.9422 47.7739 26.9529 49.1597V53H25.9593V49.1543C25.9557 48.7354 25.859 48.4256 25.6692 48.2251C25.483 48.0246 25.1912 47.9243 24.7937 47.9243C24.4715 47.9243 24.1886 48.0103 23.9451 48.1821C23.7016 48.354 23.5118 48.5796 23.3758 48.8589V53H22.3821V47.1885H23.3221ZM27.8798 50.0459C27.8798 49.1543 28.091 48.4382 28.5136 47.8975C28.9361 47.3532 29.4893 47.0811 30.1732 47.0811C30.8536 47.0811 31.3925 47.3138 31.7899 47.7793V44.75H32.7836V53H31.8705L31.8221 52.377C31.4247 52.8639 30.8715 53.1074 30.1625 53.1074C29.4893 53.1074 28.9397 52.8317 28.5136 52.2803C28.091 51.7288 27.8798 51.0091 27.8798 50.1211V50.0459ZM28.8734 50.1587C28.8734 50.8175 29.0095 51.3332 29.2816 51.7056C29.5538 52.078 29.9297 52.2642 30.4095 52.2642C31.0398 52.2642 31.4999 51.9813 31.7899 51.4155V48.7461C31.4927 48.1982 31.0362 47.9243 30.4203 47.9243C29.9333 47.9243 29.5538 48.1123 29.2816 48.4883C29.0095 48.8643 28.8734 49.4211 28.8734 50.1587ZM37.5883 53C37.531 52.8854 37.4845 52.6813 37.4487 52.3877C36.9868 52.8675 36.4353 53.1074 35.7944 53.1074C35.2215 53.1074 34.7506 52.9463 34.3818 52.624C34.0166 52.2982 33.8339 51.8864 33.8339 51.3887C33.8339 50.7835 34.0631 50.3145 34.5214 49.9814C34.9834 49.6449 35.6315 49.4766 36.4658 49.4766H37.4326V49.02C37.4326 48.6727 37.3287 48.397 37.1211 48.1929C36.9134 47.9852 36.6072 47.8813 36.2026 47.8813C35.8481 47.8813 35.5509 47.9709 35.311 48.1499C35.0711 48.3289 34.9511 48.5456 34.9511 48.7998H33.9521C33.9521 48.5098 34.0542 48.2305 34.2583 47.9619C34.4659 47.6898 34.7452 47.4749 35.0962 47.3174C35.4506 47.1598 35.8392 47.0811 36.2617 47.0811C36.9313 47.0811 37.4559 47.2493 37.8354 47.5859C38.215 47.9189 38.4119 48.3791 38.4262 48.9663V51.6411C38.4262 52.1746 38.4943 52.599 38.6303 52.9141V53H37.5883ZM35.9394 52.2427C36.2509 52.2427 36.5463 52.1621 36.8256 52.001C37.1049 51.8398 37.3073 51.6304 37.4326 51.3726V50.1802H36.6538C35.4363 50.1802 34.8276 50.5365 34.8276 51.249C34.8276 51.5605 34.9314 51.804 35.1391 51.9795C35.3468 52.1549 35.6136 52.2427 35.9394 52.2427ZM40.5884 47.1885L40.6153 47.833C41.0414 47.3317 41.6161 47.0811 42.3394 47.0811C43.1522 47.0811 43.7054 47.3926 43.9991 48.0156C44.1924 47.7363 44.4431 47.5107 44.751 47.3389C45.0625 47.167 45.4296 47.0811 45.8521 47.0811C47.1268 47.0811 47.7749 47.756 47.7964 49.106V53H46.8028V49.165C46.8028 48.7497 46.7079 48.4399 46.5181 48.2358C46.3283 48.0282 46.0096 47.9243 45.562 47.9243C45.1932 47.9243 44.8871 48.0353 44.6436 48.2573C44.4001 48.4757 44.2587 48.7712 44.2193 49.1436V53H43.2203V49.1919C43.2203 48.3468 42.8067 47.9243 41.9795 47.9243C41.3278 47.9243 40.882 48.2018 40.6421 48.7568V53H39.6485V47.1885H40.5884ZM51.382 53.1074C50.5942 53.1074 49.9532 52.8496 49.4591 52.334C48.965 51.8148 48.7179 51.1219 48.7179 50.2554V50.0728C48.7179 49.4963 48.8271 48.9824 49.0455 48.5312C49.2675 48.0765 49.5755 47.722 49.9694 47.4678C50.3668 47.21 50.7965 47.0811 51.2584 47.0811C52.0139 47.0811 52.6012 47.3299 53.0201 47.8276C53.4391 48.3254 53.6486 49.0379 53.6486 49.9653V50.3789H49.7115C49.7259 50.9518 49.8924 51.4155 50.2111 51.77C50.5333 52.1209 50.9415 52.2964 51.4357 52.2964C51.7866 52.2964 52.0838 52.2248 52.3273 52.0815C52.5708 51.9383 52.7838 51.7485 52.9664 51.5122L53.5734 51.9849C53.0864 52.7332 52.3559 53.1074 51.382 53.1074ZM51.2584 47.8975C50.8574 47.8975 50.5208 48.0443 50.2486 48.3379C49.9765 48.6279 49.8082 49.0361 49.7438 49.5625H52.6549V49.4873C52.6263 48.9824 52.4902 48.5921 52.2467 48.3164C52.0032 48.0371 51.6738 47.8975 51.2584 47.8975ZM55.4133 47.1885L55.4455 47.9189C55.8895 47.3604 56.4696 47.0811 57.1857 47.0811C58.4139 47.0811 59.0334 47.7739 59.0441 49.1597V53H58.0505V49.1543C58.0469 48.7354 57.9502 48.4256 57.7604 48.2251C57.5743 48.0246 57.2824 47.9243 56.885 47.9243C56.5627 47.9243 56.2798 48.0103 56.0363 48.1821C55.7928 48.354 55.6031 48.5796 55.467 48.8589V53H54.4733V47.1885H55.4133ZM61.5608 45.7812V47.1885H62.6458V47.9565H61.5608V51.5605C61.5608 51.7933 61.6092 51.9688 61.7058 52.0869C61.8025 52.2015 61.9672 52.2588 62.2 52.2588C62.3146 52.2588 62.4721 52.2373 62.6726 52.1943V53C62.4112 53.0716 62.157 53.1074 61.9099 53.1074C61.4659 53.1074 61.1311 52.9731 60.9055 52.7046C60.68 52.436 60.5672 52.0547 60.5672 51.5605V47.9565H59.5091V47.1885H60.5672V45.7812H61.5608ZM63.1107 50.0405C63.1107 49.4712 63.2217 48.9591 63.4437 48.5044C63.6693 48.0496 63.9808 47.6987 64.3783 47.4517C64.7793 47.2046 65.2359 47.0811 65.7479 47.0811C66.5393 47.0811 67.1784 47.355 67.6654 47.9028C68.1559 48.4507 68.4012 49.1794 68.4012 50.0889V50.1587C68.4012 50.7244 68.292 51.2329 68.0736 51.6841C67.8587 52.1317 67.549 52.4808 67.1444 52.7314C66.7434 52.9821 66.2814 53.1074 65.7587 53.1074C64.9709 53.1074 64.3317 52.8335 63.8412 52.2856C63.3542 51.7378 63.1107 51.0127 63.1107 50.1104V50.0405ZM64.1097 50.1587C64.1097 50.8032 64.2583 51.3206 64.5555 51.7109C64.8563 52.1012 65.2573 52.2964 65.7587 52.2964C66.2635 52.2964 66.6646 52.0994 66.9618 51.7056C67.259 51.3081 67.4076 50.7531 67.4076 50.0405C67.4076 49.4032 67.2554 48.8875 66.951 48.4937C66.6503 48.0962 66.2492 47.8975 65.7479 47.8975C65.2573 47.8975 64.8617 48.0926 64.5609 48.4829C64.2601 48.8732 64.1097 49.4318 64.1097 50.1587ZM10.2574 63.0459C10.2574 62.1543 10.4687 61.4382 10.8912 60.8975C11.3137 60.3532 11.867 60.0811 12.5509 60.0811C13.2312 60.0811 13.7701 60.3138 14.1676 60.7793V57.75H15.1612V66H14.2481L14.1998 65.377C13.8023 65.8639 13.2491 66.1074 12.5401 66.1074C11.867 66.1074 11.3173 65.8317 10.8912 65.2803C10.4687 64.7288 10.2574 64.0091 10.2574 63.1211V63.0459ZM11.2511 63.1587C11.2511 63.8175 11.3871 64.3332 11.6593 64.7056C11.9314 65.078 12.3074 65.2642 12.7872 65.2642C13.4174 65.2642 13.8775 64.9813 14.1676 64.4155V61.7461C13.8704 61.1982 13.4138 60.9243 12.7979 60.9243C12.311 60.9243 11.9314 61.1123 11.6593 61.4883C11.3871 61.8643 11.2511 62.4211 11.2511 63.1587ZM18.7897 66.1074C18.002 66.1074 17.361 65.8496 16.8669 65.334C16.3727 64.8148 16.1257 64.1219 16.1257 63.2554V63.0728C16.1257 62.4963 16.2349 61.9824 16.4533 61.5312C16.6753 61.0765 16.9832 60.722 17.3771 60.4678C17.7746 60.21 18.2043 60.0811 18.6662 60.0811C19.4217 60.0811 20.009 60.3299 20.4279 60.8276C20.8469 61.3254 21.0563 62.0379 21.0563 62.9653V63.3789H17.1193C17.1336 63.9518 17.3001 64.4155 17.6188 64.77C17.9411 65.1209 18.3493 65.2964 18.8434 65.2964C19.1943 65.2964 19.4915 65.2248 19.735 65.0815C19.9785 64.9383 20.1916 64.7485 20.3742 64.5122L20.9811 64.9849C20.4942 65.7332 19.7637 66.1074 18.7897 66.1074ZM18.6662 60.8975C18.2651 60.8975 17.9286 61.0443 17.6564 61.3379C17.3843 61.6279 17.216 62.0361 17.1515 62.5625H20.0627V62.4873C20.034 61.9824 19.898 61.5921 19.6545 61.3164C19.411 61.0371 19.0816 60.8975 18.6662 60.8975ZM27.6634 64.4585C27.6634 64.1899 27.5614 63.9823 27.3573 63.8354C27.1567 63.6851 26.804 63.5562 26.2992 63.4487C25.7979 63.3413 25.3986 63.2124 25.1014 63.062C24.8078 62.9116 24.5894 62.7326 24.4461 62.5249C24.3065 62.3172 24.2367 62.0701 24.2367 61.7837C24.2367 61.3075 24.4372 60.9046 24.8382 60.5752C25.2428 60.2458 25.7585 60.0811 26.3851 60.0811C27.044 60.0811 27.5775 60.2511 27.9857 60.5913C28.3975 60.9315 28.6034 61.3665 28.6034 61.8965H27.6043C27.6043 61.6243 27.488 61.3898 27.2552 61.1929C27.026 60.9959 26.736 60.8975 26.3851 60.8975C26.0234 60.8975 25.7406 60.9762 25.5365 61.1338C25.3324 61.2913 25.2303 61.4972 25.2303 61.7515C25.2303 61.9914 25.3252 62.1722 25.515 62.2939C25.7048 62.4157 26.0467 62.5321 26.5409 62.6431C27.0386 62.7541 27.4414 62.8866 27.7494 63.0405C28.0573 63.1945 28.2847 63.3807 28.4315 63.5991C28.5819 63.814 28.6571 64.0771 28.6571 64.3887C28.6571 64.9079 28.4494 65.325 28.034 65.6401C27.6187 65.9517 27.0798 66.1074 26.4173 66.1074C25.9518 66.1074 25.54 66.0251 25.182 65.8604C24.8239 65.6956 24.5428 65.4665 24.3387 65.1729C24.1382 64.8757 24.0379 64.5552 24.0379 64.2114H25.0316C25.0495 64.5444 25.182 64.8094 25.429 65.0063C25.6797 65.1997 26.0091 65.2964 26.4173 65.2964C26.7933 65.2964 27.0941 65.2212 27.3197 65.0708C27.5488 64.9168 27.6634 64.7127 27.6634 64.4585ZM32.0331 66.1074C31.2454 66.1074 30.6044 65.8496 30.1103 65.334C29.6161 64.8148 29.3691 64.1219 29.3691 63.2554V63.0728C29.3691 62.4963 29.4783 61.9824 29.6967 61.5312C29.9187 61.0765 30.2266 60.722 30.6205 60.4678C31.018 60.21 31.4477 60.0811 31.9096 60.0811C32.6651 60.0811 33.2524 60.3299 33.6713 60.8276C34.0903 61.3254 34.2997 62.0379 34.2997 62.9653V63.3789H30.3627C30.377 63.9518 30.5435 64.4155 30.8622 64.77C31.1845 65.1209 31.5927 65.2964 32.0868 65.2964C32.4377 65.2964 32.7349 65.2248 32.9784 65.0815C33.2219 64.9383 33.435 64.7485 33.6176 64.5122L34.2245 64.9849C33.7376 65.7332 33.0071 66.1074 32.0331 66.1074ZM31.9096 60.8975C31.5085 60.8975 31.172 61.0443 30.8998 61.3379C30.6277 61.6279 30.4594 62.0361 30.3949 62.5625H33.3061V62.4873C33.2774 61.9824 33.1414 61.5921 32.8979 61.3164C32.6544 61.0371 32.325 60.8975 31.9096 60.8975ZM37.9336 61.0801C37.7832 61.055 37.6203 61.0425 37.4448 61.0425C36.7931 61.0425 36.3509 61.32 36.1182 61.875V66H35.1245V60.1885H36.0913L36.1074 60.8599C36.4333 60.3407 36.8952 60.0811 37.4932 60.0811C37.6865 60.0811 37.8333 60.1061 37.9336 60.1562V61.0801ZM40.5362 64.6519L41.9757 60.1885H42.9908L40.9068 66H40.1495L38.044 60.1885H39.0592L40.5362 64.6519ZM44.6964 66H43.7028V60.1885H44.6964V66ZM43.6222 58.647C43.6222 58.4858 43.6706 58.3498 43.7672 58.2388C43.8675 58.1278 44.0143 58.0723 44.2077 58.0723C44.401 58.0723 44.5478 58.1278 44.6481 58.2388C44.7484 58.3498 44.7985 58.4858 44.7985 58.647C44.7985 58.8081 44.7484 58.9424 44.6481 59.0498C44.5478 59.1572 44.401 59.2109 44.2077 59.2109C44.0143 59.2109 43.8675 59.1572 43.7672 59.0498C43.6706 58.9424 43.6222 58.8081 43.6222 58.647ZM48.2927 65.2964C48.6472 65.2964 48.9569 65.189 49.2219 64.9741C49.4869 64.7593 49.6337 64.4907 49.6623 64.1685H50.6023C50.5844 64.5015 50.4698 64.8184 50.2585 65.1191C50.0473 65.4199 49.7644 65.6598 49.4099 65.8389C49.059 66.0179 48.6866 66.1074 48.2927 66.1074C47.5014 66.1074 46.8712 65.8442 46.4021 65.3179C45.9366 64.7879 45.7038 64.0646 45.7038 63.1479V62.9814C45.7038 62.4157 45.8077 61.9126 46.0154 61.4722C46.2231 61.0317 46.5203 60.6898 46.907 60.4463C47.2973 60.2028 47.7574 60.0811 48.2873 60.0811C48.939 60.0811 49.4797 60.2762 49.9094 60.6665C50.3427 61.0568 50.5736 61.5635 50.6023 62.1865H49.6623C49.6337 61.8105 49.4905 61.5026 49.2327 61.2627C48.9784 61.0192 48.6633 60.8975 48.2873 60.8975C47.7825 60.8975 47.3904 61.0801 47.1111 61.4453C46.8354 61.807 46.6975 62.3315 46.6975 63.019V63.207C46.6975 63.8766 46.8354 64.3923 47.1111 64.7539C47.3868 65.1156 47.7807 65.2964 48.2927 65.2964ZM48.4538 66.0483L48.3894 66.3276C48.9372 66.4243 49.2112 66.734 49.2112 67.2568C49.2112 67.6042 49.0679 67.8781 48.7815 68.0786C48.495 68.2827 48.0958 68.3848 47.5837 68.3848L47.5461 67.8101C47.829 67.8101 48.0474 67.7635 48.2014 67.6704C48.359 67.5773 48.4377 67.4466 48.4377 67.2783C48.4377 67.1208 48.3804 67.0044 48.2659 66.9292C48.1513 66.854 47.9185 66.8003 47.5676 66.7681L47.7395 66.0483H48.4538ZM51.1263 63.0405C51.1263 62.4712 51.2373 61.9591 51.4593 61.5044C51.6849 61.0496 51.9964 60.6987 52.3939 60.4517C52.7949 60.2046 53.2515 60.0811 53.7635 60.0811C54.5548 60.0811 55.194 60.355 55.681 60.9028C56.1715 61.4507 56.4168 62.1794 56.4168 63.0889V63.1587C56.4168 63.7244 56.3076 64.2329 56.0892 64.6841C55.8743 65.1317 55.5646 65.4808 55.16 65.7314C54.7589 65.9821 54.297 66.1074 53.7742 66.1074C52.9865 66.1074 52.3473 65.8335 51.8568 65.2856C51.3698 64.7378 51.1263 64.0127 51.1263 63.1104V63.0405ZM52.1253 63.1587C52.1253 63.8032 52.2739 64.3206 52.5711 64.7109C52.8719 65.1012 53.2729 65.2964 53.7742 65.2964C54.2791 65.2964 54.6802 65.0994 54.9774 64.7056C55.2746 64.3081 55.4232 63.7531 55.4232 63.0405C55.4232 62.4032 55.271 61.8875 54.9666 61.4937C54.6658 61.0962 54.2648 60.8975 53.7635 60.8975C53.2729 60.8975 52.8773 61.0926 52.5765 61.4829C52.2757 61.8732 52.1253 62.4318 52.1253 63.1587ZM60.7167 64.4585C60.7167 64.1899 60.6146 63.9823 60.4105 63.8354C60.21 63.6851 59.8573 63.5562 59.3524 63.4487C58.8511 63.3413 58.4519 63.2124 58.1547 63.062C57.8611 62.9116 57.6426 62.7326 57.4994 62.5249C57.3598 62.3172 57.2899 62.0701 57.2899 61.7837C57.2899 61.3075 57.4905 60.9046 57.8915 60.5752C58.2961 60.2458 58.8117 60.0811 59.4384 60.0811C60.0972 60.0811 60.6308 60.2511 61.039 60.5913C61.4507 60.9315 61.6566 61.3665 61.6566 61.8965H60.6576C60.6576 61.6243 60.5412 61.3898 60.3085 61.1929C60.0793 60.9959 59.7893 60.8975 59.4384 60.8975C59.0767 60.8975 58.7938 60.9762 58.5897 61.1338C58.3856 61.2913 58.2836 61.4972 58.2836 61.7515C58.2836 61.9914 58.3785 62.1722 58.5683 62.2939C58.758 62.4157 59.1 62.5321 59.5941 62.6431C60.0919 62.7541 60.4947 62.8866 60.8026 63.0405C61.1106 63.1945 61.338 63.3807 61.4848 63.5991C61.6352 63.814 61.7104 64.0771 61.7104 64.3887C61.7104 64.9079 61.5027 65.325 61.0873 65.6401C60.6719 65.9517 60.133 66.1074 59.4706 66.1074C59.0051 66.1074 58.5933 66.0251 58.2353 65.8604C57.8772 65.6956 57.5961 65.4665 57.392 65.1729C57.1915 64.8757 57.0912 64.5552 57.0912 64.2114H58.0849C58.1028 64.5444 58.2353 64.8094 58.4823 65.0063C58.733 65.1997 59.0624 65.2964 59.4706 65.2964C59.8466 65.2964 60.1474 65.2212 60.3729 65.0708C60.6021 64.9168 60.7167 64.7127 60.7167 64.4585Z" fill="#666666"/>
<defs>
<filter id="filter0_d_7849_58643" x="1" y="0" width="70" height="38" filterUnits="userSpaceOnUse" color-interpolation-filters="sRGB">
<feFlood flood-opacity="0" result="BackgroundImageFix"/>
<feColorMatrix in="SourceAlpha" type="matrix" values="0 0 0 0 0 0 0 0 0 0 0 0 0 0 0 0 0 0 127 0" result="hardAlpha"/>
<feOffset dy="1"/>
<feGaussianBlur stdDeviation="1"/>
<feColorMatrix type="matrix" values="0 0 0 0 0 0 0 0 0 0 0 0 0 0 0 0 0 0 0.2 0"/>
<feBlend mode="normal" in2="BackgroundImageFix" result="effect1_dropShadow_7849_58643"/>
<feBlend mode="normal" in="SourceGraphic" in2="effect1_dropShadow_7849_58643" result="shape"/>
</filter>
</defs>
</svg>
