<svg width="72" height="69" viewBox="0 0 72 69" fill="none" xmlns="http://www.w3.org/2000/svg">
<g filter="url(#filter0_d_7849_58635)">
<rect x="3" y="1" width="66" height="34" rx="8" fill="#E7F3F9"/>
<path fill-rule="evenodd" clip-rule="evenodd" d="M33.7441 26.4375H28.8376C28.5139 26.4374 28.206 26.2979 27.9924 26.0547C27.7789 25.8114 27.6805 25.488 27.7223 25.167L29.1158 14.4795C29.189 13.919 29.6666 13.4998 30.2318 13.5H31.0688C31.6338 13.5002 32.111 13.9193 32.1841 14.4795L33.7441 26.4375Z" stroke="#007DC5" stroke-linecap="round" stroke-linejoin="round"/>
<path d="M37.6816 13.5H41.7564C42.3214 13.5002 42.7986 13.9193 42.8716 14.4795L44.2659 25.167C44.3078 25.4881 44.2093 25.8117 43.9956 26.0549C43.7819 26.2982 43.4737 26.4376 43.1499 26.4375H33.7441" stroke="#007DC5" stroke-linecap="round" stroke-linejoin="round"/>
<path d="M31.0684 13.5H35.9936" stroke="#007DC5" stroke-linecap="round" stroke-linejoin="round"/>
<path d="M40.4941 16.875V11.8125C40.4941 11.0087 40.0653 10.2659 39.3691 9.86394C38.673 9.46202 37.8153 9.46202 37.1191 9.86394C36.423 10.2659 35.9941 11.0087 35.9941 11.8125V16.875" stroke="#007DC5" stroke-linecap="round" stroke-linejoin="round"/>
<path d="M34.1829 9.94141C33.5564 10.3594 33.1805 11.0632 33.1816 11.8164V13.5017" stroke="#007DC5" stroke-linecap="round" stroke-linejoin="round"/>
</g>
<path d="M11.647 50.5186C11.5504 51.3457 11.2442 51.9849 10.7286 52.436C10.2165 52.8836 9.5344 53.1074 8.68219 53.1074C7.75836 53.1074 7.01715 52.7762 6.45856 52.1138C5.90354 51.4513 5.62604 50.5651 5.62604 49.4551V48.7031C5.62604 47.9762 5.75494 47.3371 6.01275 46.7856C6.27415 46.2342 6.64296 45.8117 7.1192 45.5181C7.59544 45.2209 8.14687 45.0723 8.7735 45.0723C9.60423 45.0723 10.2702 45.305 10.7715 45.7705C11.2728 46.2324 11.5647 46.8734 11.647 47.6934H10.6104C10.5209 47.0703 10.3257 46.6191 10.025 46.3398C9.72776 46.0605 9.31061 45.9209 8.7735 45.9209C8.11464 45.9209 7.59723 46.1644 7.22125 46.6514C6.84885 47.1383 6.66266 47.8312 6.66266 48.73V49.4873C6.66266 50.3359 6.8399 51.0109 7.1944 51.5122C7.54889 52.0135 8.04482 52.2642 8.68219 52.2642C9.2551 52.2642 9.69374 52.1353 9.99811 51.8774C10.306 51.616 10.5102 51.1631 10.6104 50.5186H11.647ZM12.3107 50.0405C12.3107 49.4712 12.4217 48.9591 12.6437 48.5044C12.8693 48.0496 13.1808 47.6987 13.5783 47.4517C13.9793 47.2046 14.4358 47.0811 14.9479 47.0811C15.7392 47.0811 16.3784 47.355 16.8654 47.9028C17.3559 48.4507 17.6012 49.1794 17.6012 50.0889V50.1587C17.6012 50.7244 17.492 51.2329 17.2736 51.6841C17.0587 52.1317 16.749 52.4808 16.3444 52.7314C15.9433 52.9821 15.4814 53.1074 14.9586 53.1074C14.1709 53.1074 13.5317 52.8335 13.0412 52.2856C12.5542 51.7378 12.3107 51.0127 12.3107 50.1104V50.0405ZM13.3097 50.1587C13.3097 50.8032 13.4583 51.3206 13.7555 51.7109C14.0563 52.1012 14.4573 52.2964 14.9586 52.2964C15.4635 52.2964 15.8646 52.0994 16.1618 51.7056C16.459 51.3081 16.6076 50.7531 16.6076 50.0405C16.6076 49.4032 16.4554 48.8875 16.151 48.4937C15.8502 48.0962 15.4492 47.8975 14.9479 47.8975C14.4573 47.8975 14.0617 48.0926 13.7609 48.4829C13.4601 48.8732 13.3097 49.4318 13.3097 50.1587ZM19.4572 47.1885L19.4895 47.9189C19.9335 47.3604 20.5136 47.0811 21.2297 47.0811C22.4579 47.0811 23.0774 47.7739 23.0881 49.1597V53H22.0945V49.1543C22.0909 48.7354 21.9942 48.4256 21.8044 48.2251C21.6182 48.0246 21.3264 47.9243 20.9289 47.9243C20.6067 47.9243 20.3238 48.0103 20.0803 48.1821C19.8368 48.354 19.647 48.5796 19.511 48.8589V53H18.5173V47.1885H19.4572ZM26.1741 51.6519L27.6136 47.1885H28.6287L26.5447 53H25.7874L23.6819 47.1885H24.6971L26.1741 51.6519ZM31.5912 53.1074C30.8034 53.1074 30.1625 52.8496 29.6683 52.334C29.1742 51.8148 28.9271 51.1219 28.9271 50.2554V50.0728C28.9271 49.4963 29.0363 48.9824 29.2548 48.5312C29.4768 48.0765 29.7847 47.722 30.1786 47.4678C30.5761 47.21 31.0057 47.0811 31.4677 47.0811C32.2232 47.0811 32.8104 47.3299 33.2294 47.8276C33.6483 48.3254 33.8578 49.0379 33.8578 49.9653V50.3789H29.9208C29.9351 50.9518 30.1016 51.4155 30.4203 51.77C30.7426 52.1209 31.1508 52.2964 31.6449 52.2964C31.9958 52.2964 32.293 52.2248 32.5365 52.0815C32.78 51.9383 32.993 51.7485 33.1757 51.5122L33.7826 51.9849C33.2956 52.7332 32.5652 53.1074 31.5912 53.1074ZM31.4677 47.8975C31.0666 47.8975 30.73 48.0443 30.4579 48.3379C30.1858 48.6279 30.0175 49.0361 29.953 49.5625H32.8641V49.4873C32.8355 48.9824 32.6994 48.5921 32.4559 48.3164C32.2124 48.0371 31.883 47.8975 31.4677 47.8975ZM35.6225 47.1885L35.6547 47.9189C36.0988 47.3604 36.6788 47.0811 37.395 47.0811C38.6232 47.0811 39.2426 47.7739 39.2534 49.1597V53H38.2597V49.1543C38.2561 48.7354 38.1595 48.4256 37.9697 48.2251C37.7835 48.0246 37.4917 47.9243 37.0942 47.9243C36.7719 47.9243 36.4891 48.0103 36.2456 48.1821C36.0021 48.354 35.8123 48.5796 35.6762 48.8589V53H34.6826V47.1885H35.6225ZM41.5015 53H40.5079V47.1885H41.5015V53ZM40.4273 45.647C40.4273 45.4858 40.4756 45.3498 40.5723 45.2388C40.6726 45.1278 40.8194 45.0723 41.0127 45.0723C41.2061 45.0723 41.3529 45.1278 41.4532 45.2388C41.5534 45.3498 41.6036 45.4858 41.6036 45.647C41.6036 45.8081 41.5534 45.9424 41.4532 46.0498C41.3529 46.1572 41.2061 46.2109 41.0127 46.2109C40.8194 46.2109 40.6726 46.1572 40.5723 46.0498C40.4756 45.9424 40.4273 45.8081 40.4273 45.647ZM45.1783 53.1074C44.3906 53.1074 43.7496 52.8496 43.2555 52.334C42.7613 51.8148 42.5143 51.1219 42.5143 50.2554V50.0728C42.5143 49.4963 42.6235 48.9824 42.8419 48.5312C43.0639 48.0765 43.3719 47.722 43.7657 47.4678C44.1632 47.21 44.5929 47.0811 45.0548 47.0811C45.8103 47.0811 46.3976 47.3299 46.8165 47.8276C47.2355 48.3254 47.4449 49.0379 47.4449 49.9653V50.3789H43.5079C43.5222 50.9518 43.6888 51.4155 44.0074 51.77C44.3297 52.1209 44.7379 52.2964 45.232 52.2964C45.583 52.2964 45.8802 52.2248 46.1236 52.0815C46.3671 51.9383 46.5802 51.7485 46.7628 51.5122L47.3697 51.9849C46.8828 52.7332 46.1523 53.1074 45.1783 53.1074ZM45.0548 47.8975C44.6538 47.8975 44.3172 48.0443 44.045 48.3379C43.7729 48.6279 43.6046 49.0361 43.5402 49.5625H46.4513V49.4873C46.4226 48.9824 46.2866 48.5921 46.0431 48.3164C45.7996 48.0371 45.4702 47.8975 45.0548 47.8975ZM46.6769 46.2217V46.2754H45.8551L45.0494 45.3623L44.2491 46.2754H43.4274V46.2109L44.7486 44.75H45.3502L46.6769 46.2217ZM49.2097 47.1885L49.2419 47.9189C49.6859 47.3604 50.266 47.0811 50.9821 47.0811C52.2103 47.0811 52.8298 47.7739 52.8405 49.1597V53H51.8469V49.1543C51.8433 48.7354 51.7466 48.4256 51.5568 48.2251C51.3706 48.0246 51.0788 47.9243 50.6814 47.9243C50.3591 47.9243 50.0762 48.0103 49.8327 48.1821C49.5892 48.354 49.3994 48.5796 49.2634 48.8589V53H48.2697V47.1885H49.2097ZM56.3401 52.2964C56.6946 52.2964 57.0043 52.189 57.2693 51.9741C57.5343 51.7593 57.6811 51.4907 57.7097 51.1685H58.6497C58.6318 51.5015 58.5172 51.8184 58.3059 52.1191C58.0947 52.4199 57.8118 52.6598 57.4573 52.8389C57.1064 53.0179 56.734 53.1074 56.3401 53.1074C55.5488 53.1074 54.9186 52.8442 54.4495 52.3179C53.984 51.7879 53.7513 51.0646 53.7513 50.1479V49.9814C53.7513 49.4157 53.8551 48.9126 54.0628 48.4722C54.2705 48.0317 54.5677 47.6898 54.9544 47.4463C55.3447 47.2028 55.8048 47.0811 56.3347 47.0811C56.9864 47.0811 57.5271 47.2762 57.9568 47.6665C58.3901 48.0568 58.621 48.5635 58.6497 49.1865H57.7097C57.6811 48.8105 57.5379 48.5026 57.2801 48.2627C57.0258 48.0192 56.7107 47.8975 56.3347 47.8975C55.8299 47.8975 55.4378 48.0801 55.1585 48.4453C54.8828 48.807 54.7449 49.3315 54.7449 50.019V50.207C54.7449 50.8766 54.8828 51.3923 55.1585 51.7539C55.4342 52.1156 55.8281 52.2964 56.3401 52.2964ZM60.5165 53H59.5228V47.1885H60.5165V53ZM59.4422 45.647C59.4422 45.4858 59.4906 45.3498 59.5873 45.2388C59.6875 45.1278 59.8343 45.0723 60.0277 45.0723C60.2211 45.0723 60.3679 45.1278 60.4681 45.2388C60.5684 45.3498 60.6185 45.4858 60.6185 45.647C60.6185 45.8081 60.5684 45.9424 60.4681 46.0498C60.3679 46.1572 60.2211 46.2109 60.0277 46.2109C59.8343 46.2109 59.6875 46.1572 59.5873 46.0498C59.4906 45.9424 59.4422 45.8081 59.4422 45.647ZM65.3696 53C65.3123 52.8854 65.2657 52.6813 65.2299 52.3877C64.768 52.8675 64.2166 53.1074 63.5756 53.1074C63.0027 53.1074 62.5318 52.9463 62.163 52.624C61.7978 52.2982 61.6152 51.8864 61.6152 51.3887C61.6152 50.7835 61.8443 50.3145 62.3027 49.9814C62.7646 49.6449 63.4127 49.4766 64.247 49.4766H65.2138V49.02C65.2138 48.6727 65.11 48.397 64.9023 48.1929C64.6946 47.9852 64.3884 47.8813 63.9838 47.8813C63.6293 47.8813 63.3321 47.9709 63.0922 48.1499C62.8523 48.3289 62.7324 48.5456 62.7324 48.7998H61.7333C61.7333 48.5098 61.8354 48.2305 62.0395 47.9619C62.2472 47.6898 62.5265 47.4749 62.8774 47.3174C63.2319 47.1598 63.6204 47.0811 64.0429 47.0811C64.7125 47.0811 65.2371 47.2493 65.6166 47.5859C65.9962 47.9189 66.1931 48.3791 66.2075 48.9663V51.6411C66.2075 52.1746 66.2755 52.599 66.4116 52.9141V53H65.3696ZM63.7206 52.2427C64.0322 52.2427 64.3276 52.1621 64.6069 52.001C64.8862 51.8398 65.0885 51.6304 65.2138 51.3726V50.1802H64.435C63.2175 50.1802 62.6088 50.5365 62.6088 51.249C62.6088 51.5605 62.7127 51.804 62.9203 51.9795C63.128 52.1549 63.3948 52.2427 63.7206 52.2427Z" fill="#666666"/>
<defs>
<filter id="filter0_d_7849_58635" x="1" y="0" width="70" height="38" filterUnits="userSpaceOnUse" color-interpolation-filters="sRGB">
<feFlood flood-opacity="0" result="BackgroundImageFix"/>
<feColorMatrix in="SourceAlpha" type="matrix" values="0 0 0 0 0 0 0 0 0 0 0 0 0 0 0 0 0 0 127 0" result="hardAlpha"/>
<feOffset dy="1"/>
<feGaussianBlur stdDeviation="1"/>
<feColorMatrix type="matrix" values="0 0 0 0 0 0 0 0 0 0 0 0 0 0 0 0 0 0 0.2 0"/>
<feBlend mode="normal" in2="BackgroundImageFix" result="effect1_dropShadow_7849_58635"/>
<feBlend mode="normal" in="SourceGraphic" in2="effect1_dropShadow_7849_58635" result="shape"/>
</filter>
</defs>
</svg>
