<svg width="72" height="69" viewBox="0 0 72 69" fill="none" xmlns="http://www.w3.org/2000/svg">
<g filter="url(#filter0_d_7849_58627)">
<rect x="3" y="1" width="66" height="34" rx="8" fill="#E7F3F9"/>
<path fill-rule="evenodd" clip-rule="evenodd" d="M27.9375 17.6992H44.0625C44.2696 17.6992 44.4375 17.8671 44.4375 18.0742V24.0742C44.4375 24.9026 43.7659 25.5742 42.9375 25.5742H29.0625C28.2341 25.5742 27.5625 24.9026 27.5625 24.0742V18.0742C27.5625 17.8671 27.7304 17.6992 27.9375 17.6992Z" stroke="#007DC5" stroke-linecap="round" stroke-linejoin="round"/>
<path fill-rule="evenodd" clip-rule="evenodd" d="M30.5625 15.4492H41.4375C41.8517 15.4492 42.1875 15.785 42.1875 16.1992V17.6992H29.8125V16.1992C29.8125 15.785 30.1483 15.4492 30.5625 15.4492Z" stroke="#007DC5" stroke-linecap="round" stroke-linejoin="round"/>
<path d="M30.9375 15.4496C30.9375 13.7621 32.0625 12.0746 33.75 12.0746H37.125C38.2888 12.101 39.3419 11.3882 39.75 10.2979C39.8218 10.1088 39.9902 9.97329 40.1903 9.94357C40.3903 9.91386 40.5908 9.99459 40.7145 10.1546C42.9278 13.1194 41.0625 15.4511 41.0625 15.4511" stroke="#007DC5" stroke-linecap="round" stroke-linejoin="round"/>
<rect x="30.9375" y="19.9492" width="10.125" height="3.375" stroke="#007DC5" stroke-linecap="round" stroke-linejoin="round"/>
</g>
<path d="M4.2418 53V45.1797H6.44932C7.12966 45.1797 7.73122 45.3301 8.25401 45.6309C8.77679 45.9316 9.17962 46.3595 9.4625 46.9146C9.74896 47.4696 9.89398 48.1069 9.89756 48.8267V49.3262C9.89756 50.0638 9.75433 50.7101 9.46787 51.2651C9.185 51.8201 8.77858 52.2463 8.24863 52.5435C7.72227 52.8407 7.10817 52.9928 6.40635 53H4.2418ZM5.27305 46.0283V52.1567H6.35801C7.15293 52.1567 7.77061 51.9097 8.21104 51.4155C8.65505 50.9214 8.87705 50.2178 8.87705 49.3047V48.8481C8.87705 47.9601 8.66758 47.2708 8.24863 46.7803C7.83327 46.2861 7.24245 46.0355 6.47617 46.0283H5.27305ZM13.3864 53.1074C12.5986 53.1074 11.9577 52.8496 11.4636 52.334C10.9694 51.8148 10.7223 51.1219 10.7223 50.2554V50.0728C10.7223 49.4963 10.8316 48.9824 11.05 48.5312C11.272 48.0765 11.5799 47.722 11.9738 47.4678C12.3713 47.21 12.801 47.0811 13.2629 47.0811C14.0184 47.0811 14.6056 47.3299 15.0246 47.8276C15.4435 48.3254 15.653 49.0379 15.653 49.9653V50.3789H11.716C11.7303 50.9518 11.8968 51.4155 12.2155 51.77C12.5378 52.1209 12.946 52.2964 13.4401 52.2964C13.791 52.2964 14.0882 52.2248 14.3317 52.0815C14.5752 51.9383 14.7883 51.7485 14.9709 51.5122L15.5778 51.9849C15.0908 52.7332 14.3604 53.1074 13.3864 53.1074ZM13.2629 47.8975C12.8618 47.8975 12.5252 48.0443 12.2531 48.3379C11.981 48.6279 11.8127 49.0361 11.7482 49.5625H14.6594V49.4873C14.6307 48.9824 14.4946 48.5921 14.2512 48.3164C14.0077 48.0371 13.6782 47.8975 13.2629 47.8975ZM19.2869 48.0801C19.1365 48.055 18.9736 48.0425 18.7981 48.0425C18.1464 48.0425 17.7042 48.32 17.4714 48.875V53H16.4778V47.1885H17.4446L17.4607 47.8599C17.7866 47.3407 18.2485 47.0811 18.8464 47.0811C19.0398 47.0811 19.1866 47.1061 19.2869 47.1562V48.0801ZM20.8099 47.1885L20.8368 47.833C21.2629 47.3317 21.8376 47.0811 22.5609 47.0811C23.3737 47.0811 23.9269 47.3926 24.2205 48.0156C24.4139 47.7363 24.6646 47.5107 24.9725 47.3389C25.284 47.167 25.651 47.0811 26.0736 47.0811C27.3483 47.0811 27.9964 47.756 28.0179 49.106V53H27.0243V49.165C27.0243 48.7497 26.9294 48.4399 26.7396 48.2358C26.5498 48.0282 26.2311 47.9243 25.7835 47.9243C25.4147 47.9243 25.1086 48.0353 24.8651 48.2573C24.6216 48.4757 24.4802 48.7712 24.4408 49.1436V53H23.4417V49.1919C23.4417 48.3468 23.0282 47.9243 22.201 47.9243C21.5493 47.9243 21.1035 48.2018 20.8636 48.7568V53H19.87V47.1885H20.8099ZM32.7797 53C32.7224 52.8854 32.6759 52.6813 32.6401 52.3877C32.1781 52.8675 31.6267 53.1074 30.9858 53.1074C30.4128 53.1074 29.942 52.9463 29.5732 52.624C29.2079 52.2982 29.0253 51.8864 29.0253 51.3887C29.0253 50.7835 29.2545 50.3145 29.7128 49.9814C30.1747 49.6449 30.8228 49.4766 31.6572 49.4766H32.6239V49.02C32.6239 48.6727 32.5201 48.397 32.3124 48.1929C32.1047 47.9852 31.7986 47.8813 31.394 47.8813C31.0395 47.8813 30.7423 47.9709 30.5024 48.1499C30.2625 48.3289 30.1425 48.5456 30.1425 48.7998H29.1435C29.1435 48.5098 29.2455 48.2305 29.4496 47.9619C29.6573 47.6898 29.9366 47.4749 30.2875 47.3174C30.642 47.1598 31.0305 47.0811 31.453 47.0811C32.1226 47.0811 32.6472 47.2493 33.0268 47.5859C33.4063 47.9189 33.6033 48.3791 33.6176 48.9663V51.6411C33.6176 52.1746 33.6856 52.599 33.8217 52.9141V53H32.7797ZM31.1308 52.2427C31.4423 52.2427 31.7377 52.1621 32.017 52.001C32.2963 51.8398 32.4986 51.6304 32.6239 51.3726V50.1802H31.8451C30.6277 50.1802 30.019 50.5365 30.019 51.249C30.019 51.5605 30.1228 51.804 30.3305 51.9795C30.5382 52.1549 30.8049 52.2427 31.1308 52.2427ZM37.1763 52.2964C37.5308 52.2964 37.8405 52.189 38.1055 51.9741C38.3704 51.7593 38.5173 51.4907 38.5459 51.1685H39.4858C39.4679 51.5015 39.3534 51.8184 39.1421 52.1191C38.9308 52.4199 38.6479 52.6598 38.2935 52.8389C37.9425 53.0179 37.5701 53.1074 37.1763 53.1074C36.3849 53.1074 35.7547 52.8442 35.2856 52.3179C34.8201 51.7879 34.5874 51.0646 34.5874 50.1479V49.9814C34.5874 49.4157 34.6912 48.9126 34.8989 48.4722C35.1066 48.0317 35.4038 47.6898 35.7905 47.4463C36.1808 47.2028 36.641 47.0811 37.1709 47.0811C37.8226 47.0811 38.3633 47.2762 38.793 47.6665C39.2262 48.0568 39.4572 48.5635 39.4858 49.1865H38.5459C38.5173 48.8105 38.374 48.5026 38.1162 48.2627C37.862 48.0192 37.5469 47.8975 37.1709 47.8975C36.666 47.8975 36.2739 48.0801 35.9946 48.4453C35.7189 48.807 35.5811 49.3315 35.5811 50.019V50.207C35.5811 50.8766 35.7189 51.3923 35.9946 51.7539C36.2703 52.1156 36.6642 52.2964 37.1763 52.2964ZM40.0098 50.0405C40.0098 49.4712 40.1208 48.9591 40.3429 48.5044C40.5684 48.0496 40.88 47.6987 41.2774 47.4517C41.6785 47.2046 42.135 47.0811 42.6471 47.0811C43.4384 47.0811 44.0776 47.355 44.5645 47.9028C45.0551 48.4507 45.3004 49.1794 45.3004 50.0889V50.1587C45.3004 50.7244 45.1912 51.2329 44.9727 51.6841C44.7579 52.1317 44.4482 52.4808 44.0435 52.7314C43.6425 52.9821 43.1806 53.1074 42.6578 53.1074C41.87 53.1074 41.2309 52.8335 40.7403 52.2856C40.2533 51.7378 40.0098 51.0127 40.0098 50.1104V50.0405ZM41.0089 50.1587C41.0089 50.8032 41.1575 51.3206 41.4547 51.7109C41.7555 52.1012 42.1565 52.2964 42.6578 52.2964C43.1627 52.2964 43.5637 52.0994 43.8609 51.7056C44.1581 51.3081 44.3067 50.7531 44.3067 50.0405C44.3067 49.4032 44.1545 48.8875 43.8502 48.4937C43.5494 48.0962 43.1484 47.8975 42.6471 47.8975C42.1565 47.8975 41.7608 48.0926 41.46 48.4829C41.1593 48.8732 41.0089 49.4318 41.0089 50.1587ZM49.6003 51.4585C49.6003 51.1899 49.4982 50.9823 49.2941 50.8354C49.0936 50.6851 48.7409 50.5562 48.236 50.4487C47.7347 50.3413 47.3354 50.2124 47.0382 50.062C46.7446 49.9116 46.5262 49.7326 46.383 49.5249C46.2433 49.3172 46.1735 49.0701 46.1735 48.7837C46.1735 48.3075 46.374 47.9046 46.7751 47.5752C47.1797 47.2458 47.6953 47.0811 48.3219 47.0811C48.9808 47.0811 49.5143 47.2511 49.9225 47.5913C50.3343 47.9315 50.5402 48.3665 50.5402 48.8965H49.5412C49.5412 48.6243 49.4248 48.3898 49.1921 48.1929C48.9629 47.9959 48.6728 47.8975 48.3219 47.8975C47.9603 47.8975 47.6774 47.9762 47.4733 48.1338C47.2692 48.2913 47.1671 48.4972 47.1671 48.7515C47.1671 48.9914 47.262 49.1722 47.4518 49.2939C47.6416 49.4157 47.9836 49.5321 48.4777 49.6431C48.9754 49.7541 49.3782 49.8866 49.6862 50.0405C49.9941 50.1945 50.2215 50.3807 50.3683 50.5991C50.5187 50.814 50.5939 51.0771 50.5939 51.3887C50.5939 51.9079 50.3862 52.325 49.9709 52.6401C49.5555 52.9517 49.0166 53.1074 48.3542 53.1074C47.8887 53.1074 47.4769 53.0251 47.1188 52.8604C46.7607 52.6956 46.4796 52.4665 46.2755 52.1729C46.075 51.8757 45.9748 51.5552 45.9748 51.2114H46.9684C46.9863 51.5444 47.1188 51.8094 47.3659 52.0063C47.6165 52.1997 47.946 52.2964 48.3542 52.2964C48.7301 52.2964 49.0309 52.2212 49.2565 52.0708C49.4857 51.9168 49.6003 51.7127 49.6003 51.4585ZM52.4929 47.1885L52.5198 47.833C52.9459 47.3317 53.5206 47.0811 54.2439 47.0811C55.0567 47.0811 55.6099 47.3926 55.9036 48.0156C56.0969 47.7363 56.3476 47.5107 56.6555 47.3389C56.967 47.167 57.3341 47.0811 57.7566 47.0811C59.0313 47.0811 59.6794 47.756 59.7009 49.106V53H58.7073V49.165C58.7073 48.7497 58.6124 48.4399 58.4226 48.2358C58.2328 48.0282 57.9141 47.9243 57.4665 47.9243C57.0977 47.9243 56.7916 48.0353 56.5481 48.2573C56.3046 48.4757 56.1632 48.7712 56.1238 49.1436V53H55.1247V49.1919C55.1247 48.3468 54.7112 47.9243 53.884 47.9243C53.2323 47.9243 52.7865 48.2018 52.5466 48.7568V53H51.553V47.1885H52.4929ZM63.2864 53.1074C62.4987 53.1074 61.8577 52.8496 61.3636 52.334C60.8695 51.8148 60.6224 51.1219 60.6224 50.2554V50.0728C60.6224 49.4963 60.7316 48.9824 60.95 48.5312C61.172 48.0765 61.48 47.722 61.8738 47.4678C62.2713 47.21 62.701 47.0811 63.1629 47.0811C63.9184 47.0811 64.5057 47.3299 64.9246 47.8276C65.3436 48.3254 65.553 49.0379 65.553 49.9653V50.3789H61.616C61.6304 50.9518 61.7969 51.4155 62.1155 51.77C62.4378 52.1209 62.846 52.2964 63.3402 52.2964C63.6911 52.2964 63.9883 52.2248 64.2318 52.0815C64.4752 51.9383 64.6883 51.7485 64.8709 51.5122L65.4779 51.9849C64.9909 52.7332 64.2604 53.1074 63.2864 53.1074ZM63.1629 47.8975C62.7619 47.8975 62.4253 48.0443 62.1531 48.3379C61.881 48.6279 61.7127 49.0361 61.6483 49.5625H64.5594V49.4873C64.5307 48.9824 64.3947 48.5921 64.1512 48.3164C63.9077 48.0371 63.5783 47.8975 63.1629 47.8975ZM63.6463 44.75H64.8494L63.41 46.3291H62.6097L63.6463 44.75ZM68.4457 50.0835H65.8246V49.2725H68.4457V50.0835ZM26.7718 58.7812V60.1885H27.8568V60.9565H26.7718V64.5605C26.7718 64.7933 26.8202 64.9688 26.9168 65.0869C27.0135 65.2015 27.1782 65.2588 27.411 65.2588C27.5256 65.2588 27.6831 65.2373 27.8836 65.1943V66C27.6222 66.0716 27.368 66.1074 27.1209 66.1074C26.6769 66.1074 26.3421 65.9731 26.1165 65.7046C25.891 65.436 25.7782 65.0547 25.7782 64.5605V60.9565H24.7201V60.1885H25.7782V58.7812H26.7718ZM29.7719 66H28.7782V60.1885H29.7719V66ZM28.6977 58.647C28.6977 58.4858 28.746 58.3498 28.8427 58.2388C28.943 58.1278 29.0898 58.0723 29.2831 58.0723C29.4765 58.0723 29.6233 58.1278 29.7236 58.2388C29.8238 58.3498 29.8739 58.4858 29.8739 58.647C29.8739 58.8081 29.8238 58.9424 29.7236 59.0498C29.6233 59.1572 29.4765 59.2109 29.2831 59.2109C29.0898 59.2109 28.943 59.1572 28.8427 59.0498C28.746 58.9424 28.6977 58.8081 28.6977 58.647ZM33.3682 65.2964C33.7227 65.2964 34.0324 65.189 34.2974 64.9741C34.5623 64.7593 34.7091 64.4907 34.7378 64.1685H35.6777C35.6598 64.5015 35.5452 64.8184 35.334 65.1191C35.1227 65.4199 34.8398 65.6598 34.4854 65.8389C34.1344 66.0179 33.762 66.1074 33.3682 66.1074C32.5768 66.1074 31.9466 65.8442 31.4775 65.3179C31.012 64.7879 30.7793 64.0646 30.7793 63.1479V62.9814C30.7793 62.4157 30.8831 61.9126 31.0908 61.4722C31.2985 61.0317 31.5957 60.6898 31.9824 60.4463C32.3727 60.2028 32.8328 60.0811 33.3628 60.0811C34.0145 60.0811 34.5552 60.2762 34.9849 60.6665C35.4181 61.0568 35.6491 61.5635 35.6777 62.1865H34.7378C34.7091 61.8105 34.5659 61.5026 34.3081 61.2627C34.0539 61.0192 33.7388 60.8975 33.3628 60.8975C32.8579 60.8975 32.4658 61.0801 32.1865 61.4453C31.9108 61.807 31.7729 62.3315 31.7729 63.019V63.207C31.7729 63.8766 31.9108 64.3923 32.1865 64.7539C32.4622 65.1156 32.8561 65.2964 33.3682 65.2964ZM36.2017 63.0405C36.2017 62.4712 36.3127 61.9591 36.5347 61.5044C36.7603 61.0496 37.0719 60.6987 37.4693 60.4517C37.8704 60.2046 38.3269 60.0811 38.8389 60.0811C39.6303 60.0811 40.2694 60.355 40.7564 60.9028C41.247 61.4507 41.4923 62.1794 41.4923 63.0889V63.1587C41.4923 63.7244 41.3831 64.2329 41.1646 64.6841C40.9498 65.1317 40.6401 65.4808 40.2354 65.7314C39.8344 65.9821 39.3725 66.1074 38.8497 66.1074C38.0619 66.1074 37.4228 65.8335 36.9322 65.2856C36.4452 64.7378 36.2017 64.0127 36.2017 63.1104V63.0405ZM37.2008 63.1587C37.2008 63.8032 37.3494 64.3206 37.6466 64.7109C37.9473 65.1012 38.3484 65.2964 38.8497 65.2964C39.3546 65.2964 39.7556 65.0994 40.0528 64.7056C40.35 64.3081 40.4986 63.7531 40.4986 63.0405C40.4986 62.4032 40.3464 61.8875 40.0421 61.4937C39.7413 61.0962 39.3402 60.8975 38.8389 60.8975C38.3484 60.8975 37.9527 61.0926 37.6519 61.4829C37.3512 61.8732 37.2008 62.4318 37.2008 63.1587ZM45.7921 64.4585C45.7921 64.1899 45.6901 63.9823 45.486 63.8354C45.2855 63.6851 44.9328 63.5562 44.4279 63.4487C43.9266 63.3413 43.5273 63.2124 43.2301 63.062C42.9365 62.9116 42.7181 62.7326 42.5749 62.5249C42.4352 62.3172 42.3654 62.0701 42.3654 61.7837C42.3654 61.3075 42.5659 60.9046 42.967 60.5752C43.3716 60.2458 43.8872 60.0811 44.5138 60.0811C45.1727 60.0811 45.7062 60.2511 46.1144 60.5913C46.5262 60.9315 46.7321 61.3665 46.7321 61.8965H45.7331C45.7331 61.6243 45.6167 61.3898 45.3839 61.1929C45.1548 60.9959 44.8647 60.8975 44.5138 60.8975C44.1522 60.8975 43.8693 60.9762 43.6652 61.1338C43.4611 61.2913 43.359 61.4972 43.359 61.7515C43.359 61.9914 43.4539 62.1722 43.6437 62.2939C43.8335 62.4157 44.1754 62.5321 44.6696 62.6431C45.1673 62.7541 45.5701 62.8866 45.8781 63.0405C46.186 63.1945 46.4134 63.3807 46.5602 63.5991C46.7106 63.814 46.7858 64.0771 46.7858 64.3887C46.7858 64.9079 46.5781 65.325 46.1628 65.6401C45.7474 65.9517 45.2085 66.1074 44.5461 66.1074C44.0806 66.1074 43.6688 66.0251 43.3107 65.8604C42.9526 65.6956 42.6715 65.4665 42.4674 65.1729C42.2669 64.8757 42.1667 64.5552 42.1667 64.2114H43.1603C43.1782 64.5444 43.3107 64.8094 43.5578 65.0063C43.8084 65.1997 44.1379 65.2964 44.5461 65.2964C44.922 65.2964 45.2228 65.2212 45.4484 65.0708C45.6776 64.9168 45.7921 64.7127 45.7921 64.4585Z" fill="#666666"/>
<defs>
<filter id="filter0_d_7849_58627" x="1" y="0" width="70" height="38" filterUnits="userSpaceOnUse" color-interpolation-filters="sRGB">
<feFlood flood-opacity="0" result="BackgroundImageFix"/>
<feColorMatrix in="SourceAlpha" type="matrix" values="0 0 0 0 0 0 0 0 0 0 0 0 0 0 0 0 0 0 127 0" result="hardAlpha"/>
<feOffset dy="1"/>
<feGaussianBlur stdDeviation="1"/>
<feColorMatrix type="matrix" values="0 0 0 0 0 0 0 0 0 0 0 0 0 0 0 0 0 0 0.2 0"/>
<feBlend mode="normal" in2="BackgroundImageFix" result="effect1_dropShadow_7849_58627"/>
<feBlend mode="normal" in="SourceGraphic" in2="effect1_dropShadow_7849_58627" result="shape"/>
</filter>
</defs>
</svg>
