<svg width="72" height="69" viewBox="0 0 72 69" fill="none" xmlns="http://www.w3.org/2000/svg">
<g filter="url(#filter0_d_7849_58639)">
<rect x="3" y="1" width="66" height="34" rx="8" fill="#E7F3F9"/>
<path fill-rule="evenodd" clip-rule="evenodd" d="M39.2376 9.89188C38.7984 10.3312 38.7984 11.0433 39.2376 11.4826L42.5158 14.7609C42.9551 15.2004 43.6675 15.2005 44.107 14.7613C44.5464 14.322 44.5466 13.6096 44.1073 13.1701L40.8283 9.89188C40.389 9.45271 39.6769 9.45271 39.2376 9.89188Z" stroke="#007DC5" stroke-linecap="round" stroke-linejoin="round"/>
<path fill-rule="evenodd" clip-rule="evenodd" d="M36.0563 9.88948C35.8452 10.1005 35.7266 10.3867 35.7266 10.6852C35.7266 10.9837 35.8452 11.27 36.0563 11.481L42.5176 17.9422C42.9577 18.3815 43.6705 18.3808 44.1098 17.9407C44.5491 17.5006 44.5484 16.7878 44.1083 16.3485L37.6501 9.88948C37.439 9.67766 37.1522 9.55859 36.8532 9.55859C36.5542 9.55859 36.2674 9.67766 36.0563 9.88948Z" stroke="#007DC5" stroke-linecap="round" stroke-linejoin="round"/>
<path fill-rule="evenodd" clip-rule="evenodd" d="M27.8919 21.236C28.1029 21.0249 28.3891 20.9062 28.6876 20.9062C28.9861 20.9062 29.2724 21.0249 29.4834 21.236L32.7616 24.5143C33.188 24.9557 33.1819 25.6574 32.7479 26.0913C32.314 26.5253 31.6123 26.5314 31.1709 26.105L27.8919 22.8268C27.4527 22.3874 27.4527 21.6753 27.8919 21.236Z" stroke="#007DC5" stroke-linecap="round" stroke-linejoin="round"/>
<path fill-rule="evenodd" clip-rule="evenodd" d="M27.8918 18.052C28.3311 17.6129 29.0432 17.6129 29.4826 18.052L35.9438 24.5133C36.3833 24.9534 36.3828 25.6664 35.9427 26.1059C35.5026 26.5454 34.7895 26.5449 34.3501 26.1048L27.8918 19.6465C27.6798 19.4354 27.5605 19.1485 27.5605 18.8493C27.5605 18.5501 27.6798 18.2632 27.8918 18.052Z" stroke="#007DC5" stroke-linecap="round" stroke-linejoin="round"/>
<rect x="31.918" y="20.4883" width="9.29625" height="2.25" transform="rotate(-45 31.918 20.4883)" stroke="#007DC5" stroke-linecap="round" stroke-linejoin="round"/>
</g>
<path d="M20.6251 49.5464H17.3434V53H16.3121V45.1797H21.1569V46.0283H17.3434V48.7031H20.6251V49.5464ZM22.9861 53H21.9924V47.1885H22.9861V53ZM21.9118 45.647C21.9118 45.4858 21.9602 45.3498 22.0569 45.2388C22.1571 45.1278 22.3039 45.0723 22.4973 45.0723C22.6906 45.0723 22.8375 45.1278 22.9377 45.2388C23.038 45.3498 23.0881 45.4858 23.0881 45.647C23.0881 45.8081 23.038 45.9424 22.9377 46.0498C22.8375 46.1572 22.6906 46.2109 22.4973 46.2109C22.3039 46.2109 22.1571 46.1572 22.0569 46.0498C21.9602 45.9424 21.9118 45.8081 21.9118 45.647ZM25.5994 45.7812V47.1885H26.6844V47.9565H25.5994V51.5605C25.5994 51.7933 25.6478 51.9688 25.7444 52.0869C25.8411 52.2015 26.0058 52.2588 26.2386 52.2588C26.3532 52.2588 26.5107 52.2373 26.7112 52.1943V53C26.4498 53.0716 26.1956 53.1074 25.9485 53.1074C25.5045 53.1074 25.1697 52.9731 24.9441 52.7046C24.7186 52.436 24.6058 52.0547 24.6058 51.5605V47.9565H23.5477V47.1885H24.6058V45.7812H25.5994ZM28.4598 47.1885L28.4921 47.9189C28.9361 47.3604 29.5162 47.0811 30.2323 47.0811C31.4605 47.0811 32.08 47.7739 32.0907 49.1597V53H31.0971V49.1543C31.0935 48.7354 30.9968 48.4256 30.807 48.2251C30.6208 48.0246 30.329 47.9243 29.9315 47.9243C29.6093 47.9243 29.3264 48.0103 29.0829 48.1821C28.8394 48.354 28.6496 48.5796 28.5136 48.8589V53H27.5199V47.1885H28.4598ZM35.6709 53.1074C34.8831 53.1074 34.2421 52.8496 33.748 52.334C33.2539 51.8148 33.0068 51.1219 33.0068 50.2554V50.0728C33.0068 49.4963 33.116 48.9824 33.3344 48.5312C33.5564 48.0765 33.8644 47.722 34.2583 47.4678C34.6557 47.21 35.0854 47.0811 35.5473 47.0811C36.3029 47.0811 36.8901 47.3299 37.309 47.8276C37.728 48.3254 37.9375 49.0379 37.9375 49.9653V50.3789H34.0005C34.0148 50.9518 34.1813 51.4155 34.5 51.77C34.8222 52.1209 35.2304 52.2964 35.7246 52.2964C36.0755 52.2964 36.3727 52.2248 36.6162 52.0815C36.8597 51.9383 37.0727 51.7485 37.2553 51.5122L37.8623 51.9849C37.3753 52.7332 36.6448 53.1074 35.6709 53.1074ZM35.5473 47.8975C35.1463 47.8975 34.8097 48.0443 34.5376 48.3379C34.2654 48.6279 34.0971 49.0361 34.0327 49.5625H36.9438V49.4873C36.9152 48.9824 36.7791 48.5921 36.5356 48.3164C36.2921 48.0371 35.9627 47.8975 35.5473 47.8975ZM42.146 51.4585C42.146 51.1899 42.044 50.9823 41.8399 50.8354C41.6394 50.6851 41.2867 50.5562 40.7818 50.4487C40.2805 50.3413 39.8812 50.2124 39.584 50.062C39.2904 49.9116 39.072 49.7326 38.9287 49.5249C38.7891 49.3172 38.7193 49.0701 38.7193 48.7837C38.7193 48.3075 38.9198 47.9046 39.3208 47.5752C39.7255 47.2458 40.2411 47.0811 40.8677 47.0811C41.5266 47.0811 42.0601 47.2511 42.4683 47.5913C42.8801 47.9315 43.086 48.3665 43.086 48.8965H42.087C42.087 48.6243 41.9706 48.3898 41.7378 48.1929C41.5087 47.9959 41.2186 47.8975 40.8677 47.8975C40.5061 47.8975 40.2232 47.9762 40.0191 48.1338C39.815 48.2913 39.7129 48.4972 39.7129 48.7515C39.7129 48.9914 39.8078 49.1722 39.9976 49.2939C40.1874 49.4157 40.5293 49.5321 41.0235 49.6431C41.5212 49.7541 41.924 49.8866 42.232 50.0405C42.5399 50.1945 42.7673 50.3807 42.9141 50.5991C43.0645 50.814 43.1397 51.0771 43.1397 51.3887C43.1397 51.9079 42.932 52.325 42.5166 52.6401C42.1013 52.9517 41.5624 53.1074 40.8999 53.1074C40.4344 53.1074 40.0227 53.0251 39.6646 52.8604C39.3065 52.6956 39.0254 52.4665 38.8213 52.1729C38.6208 51.8757 38.5205 51.5552 38.5205 51.2114H39.5142C39.5321 51.5444 39.6646 51.8094 39.9117 52.0063C40.1623 52.1997 40.4917 52.2964 40.8999 52.2964C41.2759 52.2964 41.5767 52.2212 41.8023 52.0708C42.0315 51.9168 42.146 51.7127 42.146 51.4585ZM47.4879 51.4585C47.4879 51.1899 47.3859 50.9823 47.1818 50.8354C46.9812 50.6851 46.6285 50.5562 46.1237 50.4487C45.6224 50.3413 45.2231 50.2124 44.9259 50.062C44.6323 49.9116 44.4139 49.7326 44.2706 49.5249C44.131 49.3172 44.0612 49.0701 44.0612 48.7837C44.0612 48.3075 44.2617 47.9046 44.6627 47.5752C45.0673 47.2458 45.583 47.0811 46.2096 47.0811C46.8684 47.0811 47.402 47.2511 47.8102 47.5913C48.222 47.9315 48.4279 48.3665 48.4279 48.8965H47.4288C47.4288 48.6243 47.3125 48.3898 47.0797 48.1929C46.8505 47.9959 46.5605 47.8975 46.2096 47.8975C45.8479 47.8975 45.5651 47.9762 45.361 48.1338C45.1569 48.2913 45.0548 48.4972 45.0548 48.7515C45.0548 48.9914 45.1497 49.1722 45.3395 49.2939C45.5293 49.4157 45.8712 49.5321 46.3654 49.6431C46.8631 49.7541 47.2659 49.8866 47.5738 50.0405C47.8818 50.1945 48.1092 50.3807 48.256 50.5991C48.4064 50.814 48.4816 51.0771 48.4816 51.3887C48.4816 51.9079 48.2739 52.325 47.8585 52.6401C47.4432 52.9517 46.9043 53.1074 46.2418 53.1074C45.7763 53.1074 45.3645 53.0251 45.0065 52.8604C44.6484 52.6956 44.3673 52.4665 44.1632 52.1729C43.9627 51.8757 43.8624 51.5552 43.8624 51.2114H44.8561C44.874 51.5444 45.0065 51.8094 45.2535 52.0063C45.5042 52.1997 45.8336 52.2964 46.2418 52.2964C46.6178 52.2964 46.9186 52.2212 47.1442 52.0708C47.3733 51.9168 47.4879 51.7127 47.4879 51.4585ZM54.2561 53.1074C53.4684 53.1074 52.8274 52.8496 52.3333 52.334C51.8391 51.8148 51.5921 51.1219 51.5921 50.2554V50.0728C51.5921 49.4963 51.7013 48.9824 51.9197 48.5312C52.1417 48.0765 52.4497 47.722 52.8435 47.4678C53.241 47.21 53.6707 47.0811 54.1326 47.0811C54.8881 47.0811 55.4754 47.3299 55.8943 47.8276C56.3133 48.3254 56.5227 49.0379 56.5227 49.9653V50.3789H52.5857C52.6 50.9518 52.7666 51.4155 53.0852 51.77C53.4075 52.1209 53.8157 52.2964 54.3098 52.2964C54.6608 52.2964 54.958 52.2248 55.2014 52.0815C55.4449 51.9383 55.658 51.7485 55.8406 51.5122L56.4475 51.9849C55.9606 52.7332 55.2301 53.1074 54.2561 53.1074ZM54.1326 47.8975C53.7316 47.8975 53.395 48.0443 53.1228 48.3379C52.8507 48.6279 52.6824 49.0361 52.618 49.5625H55.5291V49.4873C55.5004 48.9824 55.3644 48.5921 55.1209 48.3164C54.8774 48.0371 54.548 47.8975 54.1326 47.8975ZM18.7697 60.1885L18.802 60.9189C19.246 60.3604 19.8261 60.0811 20.5422 60.0811C21.7704 60.0811 22.3899 60.7739 22.4006 62.1597V66H21.407V62.1543C21.4034 61.7354 21.3067 61.4256 21.1169 61.2251C20.9307 61.0246 20.6389 60.9243 20.2414 60.9243C19.9192 60.9243 19.6363 61.0103 19.3928 61.1821C19.1493 61.354 18.9595 61.5796 18.8235 61.8589V66H17.8298V60.1885H18.7697ZM27.157 65.4253C26.7703 65.88 26.2028 66.1074 25.4544 66.1074C24.8349 66.1074 24.3623 65.9284 24.0364 65.5703C23.7142 65.2087 23.5512 64.6751 23.5477 63.9697V60.1885H24.5413V63.9429C24.5413 64.8237 24.8994 65.2642 25.6155 65.2642C26.3746 65.2642 26.8795 64.9813 27.1302 64.4155V60.1885H28.1238V66H27.1785L27.157 65.4253ZM30.6566 58.7812V60.1885H31.7416V60.9565H30.6566V64.5605C30.6566 64.7933 30.705 64.9688 30.8016 65.0869C30.8983 65.2015 31.063 65.2588 31.2958 65.2588C31.4104 65.2588 31.5679 65.2373 31.7684 65.1943V66C31.507 66.0716 31.2528 66.1074 31.0057 66.1074C30.5617 66.1074 30.2269 65.9731 30.0013 65.7046C29.7758 65.436 29.663 65.0547 29.663 64.5605V60.9565H28.6049V60.1885H29.663V58.7812H30.6566ZM35.3862 61.0801C35.2358 61.055 35.0729 61.0425 34.8974 61.0425C34.2457 61.0425 33.8035 61.32 33.5708 61.875V66H32.5771V60.1885H33.5439L33.56 60.8599C33.8859 60.3407 34.3478 60.0811 34.9458 60.0811C35.1391 60.0811 35.2859 60.1061 35.3862 60.1562V61.0801ZM37.0542 66H36.0606V60.1885H37.0542V66ZM35.98 58.647C35.98 58.4858 36.0284 58.3498 36.125 58.2388C36.2253 58.1278 36.3721 58.0723 36.5655 58.0723C36.7588 58.0723 36.9056 58.1278 37.0059 58.2388C37.1062 58.3498 37.1563 58.4858 37.1563 58.647C37.1563 58.8081 37.1062 58.9424 37.0059 59.0498C36.9056 59.1572 36.7588 59.2109 36.5655 59.2109C36.3721 59.2109 36.2253 59.1572 36.125 59.0498C36.0284 58.9424 35.98 58.8081 35.98 58.647ZM40.6505 65.2964C41.005 65.2964 41.3147 65.189 41.5797 64.9741C41.8447 64.7593 41.9915 64.4907 42.0201 64.1685H42.9601C42.9422 64.5015 42.8276 64.8184 42.6163 65.1191C42.4051 65.4199 42.1222 65.6598 41.7677 65.8389C41.4168 66.0179 41.0444 66.1074 40.6505 66.1074C39.8592 66.1074 39.229 65.8442 38.7599 65.3179C38.2944 64.7879 38.0616 64.0646 38.0616 63.1479V62.9814C38.0616 62.4157 38.1655 61.9126 38.3732 61.4722C38.5808 61.0317 38.878 60.6898 39.2648 60.4463C39.6551 60.2028 40.1152 60.0811 40.6451 60.0811C41.2968 60.0811 41.8375 60.2762 42.2672 60.6665C42.7005 61.0568 42.9314 61.5635 42.9601 62.1865H42.0201C41.9915 61.8105 41.8483 61.5026 41.5905 61.2627C41.3362 61.0192 41.0211 60.8975 40.6451 60.8975C40.1403 60.8975 39.7482 61.0801 39.4689 61.4453C39.1932 61.807 39.0553 62.3315 39.0553 63.019V63.207C39.0553 63.8766 39.1932 64.3923 39.4689 64.7539C39.7446 65.1156 40.1385 65.2964 40.6505 65.2964ZM40.8116 66.0483L40.7472 66.3276C41.295 66.4243 41.569 66.734 41.569 67.2568C41.569 67.6042 41.4257 67.8781 41.1393 68.0786C40.8528 68.2827 40.4536 68.3848 39.9415 68.3848L39.9039 67.8101C40.1868 67.8101 40.4052 67.7635 40.5592 67.6704C40.7168 67.5773 40.7955 67.4466 40.7955 67.2783C40.7955 67.1208 40.7382 67.0044 40.6237 66.9292C40.5091 66.854 40.2763 66.8003 39.9254 66.7681L40.0973 66.0483H40.8116ZM47.3352 66C47.2779 65.8854 47.2313 65.6813 47.1955 65.3877C46.7336 65.8675 46.1822 66.1074 45.5412 66.1074C44.9683 66.1074 44.4974 65.9463 44.1286 65.624C43.7634 65.2982 43.5808 64.8864 43.5808 64.3887C43.5808 63.7835 43.8099 63.3145 44.2683 62.9814C44.7302 62.6449 45.3783 62.4766 46.2126 62.4766H47.1794V62.02C47.1794 61.6727 47.0756 61.397 46.8679 61.1929C46.6602 60.9852 46.354 60.8813 45.9494 60.8813C45.5949 60.8813 45.2977 60.9709 45.0578 61.1499C44.8179 61.3289 44.698 61.5456 44.698 61.7998H43.6989C43.6989 61.5098 43.801 61.2305 44.0051 60.9619C44.2128 60.6898 44.4921 60.4749 44.843 60.3174C45.1975 60.1598 45.586 60.0811 46.0085 60.0811C46.6781 60.0811 47.2027 60.2493 47.5822 60.5859C47.9618 60.9189 48.1587 61.3791 48.173 61.9663V64.6411C48.173 65.1746 48.2411 65.599 48.3772 65.9141V66H47.3352ZM45.6862 65.2427C45.9978 65.2427 46.2932 65.1621 46.5725 65.001C46.8518 64.8398 47.0541 64.6304 47.1794 64.3726V63.1802H46.4006C45.1831 63.1802 44.5744 63.5365 44.5744 64.249C44.5744 64.5605 44.6783 64.804 44.8859 64.9795C45.0936 65.1549 45.3604 65.2427 45.6862 65.2427ZM48.0227 57.9219C48.0227 58.3086 47.9117 58.6219 47.6897 58.8618C47.4712 59.1017 47.1973 59.2217 46.8679 59.2217C46.7211 59.2217 46.5939 59.2038 46.4865 59.168C46.3791 59.1322 46.2377 59.0588 46.0622 58.9478C45.8903 58.8368 45.765 58.7705 45.6862 58.749C45.611 58.724 45.5233 58.7114 45.423 58.7114C45.2762 58.7114 45.1509 58.7687 45.0471 58.8833C44.9432 58.9943 44.8913 59.1375 44.8913 59.313L44.2253 59.2754C44.2253 58.8923 44.3327 58.5754 44.5476 58.3247C44.766 58.0741 45.0417 57.9487 45.3747 57.9487C45.5 57.9487 45.6128 57.9666 45.7131 58.0024C45.8133 58.0382 45.9494 58.1081 46.1213 58.2119C46.2932 58.3158 46.4239 58.3838 46.5134 58.416C46.6065 58.4482 46.7085 58.4644 46.8195 58.4644C46.9735 58.4644 47.1006 58.4035 47.2009 58.2817C47.3047 58.16 47.3566 58.0186 47.3566 57.8574L48.0227 57.9219ZM49.1375 63.0405C49.1375 62.4712 49.2485 61.9591 49.4705 61.5044C49.6961 61.0496 50.0076 60.6987 50.4051 60.4517C50.8061 60.2046 51.2626 60.0811 51.7747 60.0811C52.566 60.0811 53.2052 60.355 53.6922 60.9028C54.1827 61.4507 54.428 62.1794 54.428 63.0889V63.1587C54.428 63.7244 54.3188 64.2329 54.1004 64.6841C53.8855 65.1317 53.5758 65.4808 53.1712 65.7314C52.7701 65.9821 52.3082 66.1074 51.7854 66.1074C50.9977 66.1074 50.3585 65.8335 49.868 65.2856C49.381 64.7378 49.1375 64.0127 49.1375 63.1104V63.0405ZM50.1365 63.1587C50.1365 63.8032 50.2851 64.3206 50.5823 64.7109C50.8831 65.1012 51.2841 65.2964 51.7854 65.2964C52.2903 65.2964 52.6914 65.0994 52.9886 64.7056C53.2858 64.3081 53.4344 63.7531 53.4344 63.0405C53.4344 62.4032 53.2822 61.8875 52.9778 61.4937C52.677 61.0962 52.276 60.8975 51.7747 60.8975C51.2841 60.8975 50.8885 61.0926 50.5877 61.4829C50.2869 61.8732 50.1365 62.4318 50.1365 63.1587Z" fill="#666666"/>
<defs>
<filter id="filter0_d_7849_58639" x="1" y="0" width="70" height="38" filterUnits="userSpaceOnUse" color-interpolation-filters="sRGB">
<feFlood flood-opacity="0" result="BackgroundImageFix"/>
<feColorMatrix in="SourceAlpha" type="matrix" values="0 0 0 0 0 0 0 0 0 0 0 0 0 0 0 0 0 0 127 0" result="hardAlpha"/>
<feOffset dy="1"/>
<feGaussianBlur stdDeviation="1"/>
<feColorMatrix type="matrix" values="0 0 0 0 0 0 0 0 0 0 0 0 0 0 0 0 0 0 0.2 0"/>
<feBlend mode="normal" in2="BackgroundImageFix" result="effect1_dropShadow_7849_58639"/>
<feBlend mode="normal" in="SourceGraphic" in2="effect1_dropShadow_7849_58639" result="shape"/>
</filter>
</defs>
</svg>
