<svg width="72" height="69" viewBox="0 0 72 69" fill="none" xmlns="http://www.w3.org/2000/svg">
<g filter="url(#filter0_d_7849_58623)">
<rect x="3" y="1" width="66" height="34" rx="8" fill="#E7F3F9"/>
<path fill-rule="evenodd" clip-rule="evenodd" d="M28.3125 18.5625H33.5625C33.9767 18.5625 34.3125 18.8983 34.3125 19.3125V26.0625C34.3125 26.2696 34.1446 26.4375 33.9375 26.4375H27.9375C27.7304 26.4375 27.5625 26.2696 27.5625 26.0625V19.3125C27.5625 18.8983 27.8983 18.5625 28.3125 18.5625Z" stroke="#007DC5" stroke-linecap="round" stroke-linejoin="round"/>
<rect x="37.6875" y="17.4375" width="6.75" height="9" rx="0.5" stroke="#007DC5" stroke-linecap="round" stroke-linejoin="round"/>
<path d="M28.6875 18.5625V10.6875C28.6875 10.4744 28.8079 10.2797 28.9984 10.1844C29.189 10.0891 29.4171 10.1097 29.5875 10.2375L32.7375 12.6C33.0208 12.8125 33.1875 13.1459 33.1875 13.5V18.5625" stroke="#007DC5" stroke-linecap="round" stroke-linejoin="round"/>
<path d="M29.8125 24.1875H32.0625" stroke="#007DC5" stroke-linecap="round" stroke-linejoin="round"/>
<path d="M37.6875 21.9375H44.4375" stroke="#007DC5" stroke-linecap="round" stroke-linejoin="round"/>
<path d="M37.6875 24.1875H44.4375" stroke="#007DC5" stroke-linecap="round" stroke-linejoin="round"/>
</g>
<path d="M21.5704 53H20.5338V49.3853H16.5914V53H15.5602V45.1797H16.5914V48.542H20.5338V45.1797H21.5704V53ZM23.9958 53H23.0022V47.1885H23.9958V53ZM22.9216 45.647C22.9216 45.4858 22.9699 45.3498 23.0666 45.2388C23.1669 45.1278 23.3137 45.0723 23.5071 45.0723C23.7004 45.0723 23.8472 45.1278 23.9475 45.2388C24.0477 45.3498 24.0979 45.4858 24.0979 45.647C24.0979 45.8081 24.0477 45.9424 23.9475 46.0498C23.8472 46.1572 23.7004 46.2109 23.5071 46.2109C23.3137 46.2109 23.1669 46.1572 23.0666 46.0498C22.9699 45.9424 22.9216 45.8081 22.9216 45.647ZM25.0247 50.0459C25.0247 49.14 25.2342 48.4202 25.6531 47.8867C26.0721 47.3496 26.6271 47.0811 27.3182 47.0811C28.0271 47.0811 28.5804 47.3317 28.9778 47.833L29.0262 47.1885H29.9339V52.8604C29.9339 53.6123 29.7101 54.2049 29.2625 54.6382C28.8185 55.0715 28.2205 55.2881 27.4686 55.2881C27.0496 55.2881 26.6396 55.1986 26.2386 55.0195C25.8375 54.8405 25.5314 54.5952 25.3201 54.2837L25.8357 53.6875C26.2618 54.2139 26.7828 54.4771 27.3987 54.4771C27.8821 54.4771 28.2581 54.341 28.5267 54.0688C28.7988 53.7967 28.9349 53.4136 28.9349 52.9194V52.4199C28.5374 52.8783 27.9949 53.1074 27.3074 53.1074C26.6271 53.1074 26.0757 52.8335 25.6531 52.2856C25.2342 51.7378 25.0247 50.9912 25.0247 50.0459ZM26.0237 50.1587C26.0237 50.814 26.158 51.3296 26.4266 51.7056C26.6951 52.078 27.0711 52.2642 27.5545 52.2642C28.1811 52.2642 28.6412 51.9795 28.9349 51.4102V48.7568C28.6305 48.2018 28.174 47.9243 27.5652 47.9243C27.0818 47.9243 26.7041 48.1123 26.4319 48.4883C26.1598 48.8643 26.0237 49.4211 26.0237 50.1587ZM32.1874 53H31.1937V47.1885H32.1874V53ZM31.1132 45.647C31.1132 45.4858 31.1615 45.3498 31.2582 45.2388C31.3584 45.1278 31.5053 45.0723 31.6986 45.0723C31.892 45.0723 32.0388 45.1278 32.139 45.2388C32.2393 45.3498 32.2894 45.4858 32.2894 45.647C32.2894 45.8081 32.2393 45.9424 32.139 46.0498C32.0388 46.1572 31.892 46.2109 31.6986 46.2109C31.5053 46.2109 31.3584 46.1572 31.2582 46.0498C31.1615 45.9424 31.1132 45.8081 31.1132 45.647ZM35.8642 53.1074C35.0765 53.1074 34.4355 52.8496 33.9414 52.334C33.4472 51.8148 33.2002 51.1219 33.2002 50.2554V50.0728C33.2002 49.4963 33.3094 48.9824 33.5278 48.5312C33.7498 48.0765 34.0577 47.722 34.4516 47.4678C34.8491 47.21 35.2788 47.0811 35.7407 47.0811C36.4962 47.0811 37.0835 47.3299 37.5024 47.8276C37.9213 48.3254 38.1308 49.0379 38.1308 49.9653V50.3789H34.1938C34.2081 50.9518 34.3746 51.4155 34.6933 51.77C35.0156 52.1209 35.4238 52.2964 35.9179 52.2964C36.2688 52.2964 36.566 52.2248 36.8095 52.0815C37.053 51.9383 37.2661 51.7485 37.4487 51.5122L38.0556 51.9849C37.5686 52.7332 36.8382 53.1074 35.8642 53.1074ZM35.7407 47.8975C35.3396 47.8975 35.0031 48.0443 34.7309 48.3379C34.4588 48.6279 34.2905 49.0361 34.226 49.5625H37.1372V49.4873C37.1085 48.9824 36.9725 48.5921 36.729 48.3164C36.4855 48.0371 36.156 47.8975 35.7407 47.8975ZM39.8955 47.1885L39.9278 47.9189C40.3718 47.3604 40.9519 47.0811 41.668 47.0811C42.8962 47.0811 43.5157 47.7739 43.5264 49.1597V53H42.5328V49.1543C42.5292 48.7354 42.4325 48.4256 42.2427 48.2251C42.0565 48.0246 41.7647 47.9243 41.3672 47.9243C41.045 47.9243 40.7621 48.0103 40.5186 48.1821C40.2751 48.354 40.0853 48.5796 39.9493 48.8589V53H38.9556V47.1885H39.8955ZM47.1066 53.1074C46.3188 53.1074 45.6779 52.8496 45.1837 52.334C44.6896 51.8148 44.4425 51.1219 44.4425 50.2554V50.0728C44.4425 49.4963 44.5517 48.9824 44.7701 48.5312C44.9921 48.0765 45.3001 47.722 45.694 47.4678C46.0914 47.21 46.5211 47.0811 46.983 47.0811C47.7386 47.0811 48.3258 47.3299 48.7447 47.8276C49.1637 48.3254 49.3732 49.0379 49.3732 49.9653V50.3789H45.4362C45.4505 50.9518 45.617 51.4155 45.9357 51.77C46.2579 52.1209 46.6661 52.2964 47.1603 52.2964C47.5112 52.2964 47.8084 52.2248 48.0519 52.0815C48.2954 51.9383 48.5084 51.7485 48.691 51.5122L49.298 51.9849C48.811 52.7332 48.0805 53.1074 47.1066 53.1074ZM46.983 47.8975C46.582 47.8975 46.2454 48.0443 45.9733 48.3379C45.7011 48.6279 45.5328 49.0361 45.4684 49.5625H48.3795V49.4873C48.3509 48.9824 48.2148 48.5921 47.9713 48.3164C47.7278 48.0371 47.3984 47.8975 46.983 47.8975ZM55.0081 53.1074C54.2203 53.1074 53.5794 52.8496 53.0852 52.334C52.5911 51.8148 52.344 51.1219 52.344 50.2554V50.0728C52.344 49.4963 52.4532 48.9824 52.6717 48.5312C52.8937 48.0765 53.2016 47.722 53.5955 47.4678C53.993 47.21 54.4226 47.0811 54.8846 47.0811C55.6401 47.0811 56.2273 47.3299 56.6463 47.8276C57.0652 48.3254 57.2747 49.0379 57.2747 49.9653V50.3789H53.3377C53.352 50.9518 53.5185 51.4155 53.8372 51.77C54.1595 52.1209 54.5677 52.2964 55.0618 52.2964C55.4127 52.2964 55.7099 52.2248 55.9534 52.0815C56.1969 51.9383 56.4099 51.7485 56.5926 51.5122L57.1995 51.9849C56.7125 52.7332 55.982 53.1074 55.0081 53.1074ZM54.8846 47.8975C54.4835 47.8975 54.1469 48.0443 53.8748 48.3379C53.6027 48.6279 53.4344 49.0361 53.3699 49.5625H56.281V49.4873C56.2524 48.9824 56.1163 48.5921 55.8728 48.3164C55.6293 48.0371 55.2999 47.8975 54.8846 47.8975ZM26.5179 63.1587C26.5179 64.0467 26.3138 64.7611 25.9056 65.3018C25.4974 65.8389 24.9495 66.1074 24.262 66.1074C23.528 66.1074 22.9604 65.8478 22.5594 65.3286L22.511 66H21.5979V57.75H22.5916V60.8276C22.9926 60.3299 23.5459 60.0811 24.2513 60.0811C24.9567 60.0811 25.5099 60.3478 25.9109 60.8813C26.3156 61.4149 26.5179 62.1453 26.5179 63.0728V63.1587ZM25.5242 63.0459C25.5242 62.3691 25.3935 61.8464 25.1321 61.4775C24.8707 61.1087 24.4948 60.9243 24.0042 60.9243C23.3489 60.9243 22.8781 61.2287 22.5916 61.8374V64.3511C22.896 64.9598 23.3704 65.2642 24.0149 65.2642C24.4912 65.2642 24.8618 65.0798 25.1268 64.7109C25.3917 64.3421 25.5242 63.7871 25.5242 63.0459ZM29.8563 66.1074C29.0686 66.1074 28.4276 65.8496 27.9335 65.334C27.4393 64.8148 27.1923 64.1219 27.1923 63.2554V63.0728C27.1923 62.4963 27.3015 61.9824 27.5199 61.5312C27.7419 61.0765 28.0499 60.722 28.4437 60.4678C28.8412 60.21 29.2709 60.0811 29.7328 60.0811C30.4883 60.0811 31.0756 60.3299 31.4945 60.8276C31.9135 61.3254 32.1229 62.0379 32.1229 62.9653V63.3789H28.1859C28.2002 63.9518 28.3667 64.4155 28.6854 64.77C29.0077 65.1209 29.4159 65.2964 29.91 65.2964C30.261 65.2964 30.5582 65.2248 30.8016 65.0815C31.0451 64.9383 31.2582 64.7485 31.4408 64.5122L32.0477 64.9849C31.5608 65.7332 30.8303 66.1074 29.8563 66.1074ZM29.7328 60.8975C29.3318 60.8975 28.9952 61.0443 28.723 61.3379C28.4509 61.6279 28.2826 62.0361 28.2181 62.5625H31.1293V62.4873C31.1006 61.9824 30.9646 61.5921 30.7211 61.3164C30.4776 61.0371 30.1482 60.8975 29.7328 60.8975ZM34.0273 66H33.0337V57.75H34.0273V66ZM37.7041 66.1074C36.9164 66.1074 36.2754 65.8496 35.7813 65.334C35.2871 64.8148 35.0401 64.1219 35.0401 63.2554V63.0728C35.0401 62.4963 35.1493 61.9824 35.3677 61.5312C35.5897 61.0765 35.8977 60.722 36.2915 60.4678C36.689 60.21 37.1187 60.0811 37.5806 60.0811C38.3361 60.0811 38.9234 60.3299 39.3423 60.8276C39.7613 61.3254 39.9707 62.0379 39.9707 62.9653V63.3789H36.0337C36.0481 63.9518 36.2146 64.4155 36.5332 64.77C36.8555 65.1209 37.2637 65.2964 37.7579 65.2964C38.1088 65.2964 38.406 65.2248 38.6495 65.0815C38.8929 64.9383 39.106 64.7485 39.2886 64.5122L39.8955 64.9849C39.4086 65.7332 38.6781 66.1074 37.7041 66.1074ZM37.5806 60.8975C37.1796 60.8975 36.843 61.0443 36.5708 61.3379C36.2987 61.6279 36.1304 62.0361 36.066 62.5625H38.9771V62.4873C38.9484 61.9824 38.8124 61.5921 38.5689 61.3164C38.3254 61.0371 37.996 60.8975 37.5806 60.8975ZM41.7301 65.189H45.13V66H40.5162V65.2695L43.7228 61.0103H40.5646V60.1885H44.9689V60.8921L41.7301 65.189ZM49.5105 66C49.4532 65.8854 49.4066 65.6813 49.3708 65.3877C48.9089 65.8675 48.3575 66.1074 47.7165 66.1074C47.1436 66.1074 46.6727 65.9463 46.3039 65.624C45.9387 65.2982 45.7561 64.8864 45.7561 64.3887C45.7561 63.7835 45.9852 63.3145 46.4436 62.9814C46.9055 62.6449 47.5536 62.4766 48.3879 62.4766H49.3547V62.02C49.3547 61.6727 49.2508 61.397 49.0432 61.1929C48.8355 60.9852 48.5293 60.8813 48.1247 60.8813C47.7702 60.8813 47.473 60.9709 47.2331 61.1499C46.9932 61.3289 46.8732 61.5456 46.8732 61.7998H45.8742C45.8742 61.5098 45.9763 61.2305 46.1804 60.9619C46.3881 60.6898 46.6674 60.4749 47.0183 60.3174C47.3728 60.1598 47.7613 60.0811 48.1838 60.0811C48.8534 60.0811 49.378 60.2493 49.7575 60.5859C50.1371 60.9189 50.334 61.3791 50.3483 61.9663V64.6411C50.3483 65.1746 50.4164 65.599 50.5524 65.9141V66H49.5105ZM47.8615 65.2427C48.173 65.2427 48.4685 65.1621 48.7478 65.001C49.0271 64.8398 49.2294 64.6304 49.3547 64.3726V63.1802H48.5759C47.3584 63.1802 46.7497 63.5365 46.7497 64.249C46.7497 64.5605 46.8536 64.804 47.0612 64.9795C47.2689 65.1549 47.5357 65.2427 47.8615 65.2427Z" fill="#666666"/>
<defs>
<filter id="filter0_d_7849_58623" x="1" y="0" width="70" height="38" filterUnits="userSpaceOnUse" color-interpolation-filters="sRGB">
<feFlood flood-opacity="0" result="BackgroundImageFix"/>
<feColorMatrix in="SourceAlpha" type="matrix" values="0 0 0 0 0 0 0 0 0 0 0 0 0 0 0 0 0 0 127 0" result="hardAlpha"/>
<feOffset dy="1"/>
<feGaussianBlur stdDeviation="1"/>
<feColorMatrix type="matrix" values="0 0 0 0 0 0 0 0 0 0 0 0 0 0 0 0 0 0 0.2 0"/>
<feBlend mode="normal" in2="BackgroundImageFix" result="effect1_dropShadow_7849_58623"/>
<feBlend mode="normal" in="SourceGraphic" in2="effect1_dropShadow_7849_58623" result="shape"/>
</filter>
</defs>
</svg>
