<svg width="72" height="69" viewBox="0 0 72 69" fill="none" xmlns="http://www.w3.org/2000/svg">
<g filter="url(#filter0_d_7849_58631)">
<rect x="3" y="1" width="66" height="34" rx="8" fill="#E7F3F9"/>
<circle cx="29.25" cy="24.75" r="1.6875" stroke="#007DC5" stroke-linecap="round" stroke-linejoin="round"/>
<circle cx="40.5" cy="24.75" r="1.6875" stroke="#007DC5" stroke-linecap="round" stroke-linejoin="round"/>
<path d="M30.4434 23.5568L41.6251 12.375H44.4376" stroke="#007DC5" stroke-linecap="round" stroke-linejoin="round"/>
<path d="M40.9878 13.0127C40.0586 11.1298 38.2381 9.8464 36.1524 9.60396C34.0667 9.36153 32.0004 10.1931 30.6641 11.8127L36.5621 17.4377" stroke="#007DC5" stroke-linecap="round" stroke-linejoin="round"/>
<path d="M29.25 23.0625V19.6875C29.25 19.0662 29.7537 18.5625 30.375 18.5625H35.4375" stroke="#007DC5" stroke-linecap="round" stroke-linejoin="round"/>
<path d="M30.9375 23.0625H35.0205C35.6462 23.0635 36.244 22.804 36.6705 22.3463L41.3498 17.3213C41.5599 17.0688 41.6493 16.7371 41.5943 16.4133C41.5394 16.0894 41.3457 15.8058 41.064 15.6367L39.375 14.625" stroke="#007DC5" stroke-linecap="round" stroke-linejoin="round"/>
<path d="M39.2045 23.6708L37.082 21.9023" stroke="#007DC5" stroke-linecap="round" stroke-linejoin="round"/>
</g>
<path d="M3.87506 45.1797L6.4317 51.5605L8.98834 45.1797H10.3257V53H9.29449V49.9546L9.39117 46.6675L6.82379 53H6.03424L3.47223 46.6836L3.57428 49.9546V53H2.54303V45.1797H3.87506ZM15.2487 53C15.1914 52.8854 15.1448 52.6813 15.109 52.3877C14.6471 52.8675 14.0957 53.1074 13.4547 53.1074C12.8818 53.1074 12.4109 52.9463 12.0421 52.624C11.6769 52.2982 11.4943 51.8864 11.4943 51.3887C11.4943 50.7835 11.7234 50.3145 12.1818 49.9814C12.6437 49.6449 13.2918 49.4766 14.1261 49.4766H15.0929V49.02C15.0929 48.6727 14.9891 48.397 14.7814 48.1929C14.5737 47.9852 14.2676 47.8813 13.8629 47.8813C13.5084 47.8813 13.2112 47.9709 12.9713 48.1499C12.7314 48.3289 12.6115 48.5456 12.6115 48.7998H11.6124C11.6124 48.5098 11.7145 48.2305 11.9186 47.9619C12.1263 47.6898 12.4056 47.4749 12.7565 47.3174C13.111 47.1598 13.4995 47.0811 13.922 47.0811C14.5916 47.0811 15.1162 47.2493 15.4957 47.5859C15.8753 47.9189 16.0722 48.3791 16.0866 48.9663V51.6411C16.0866 52.1746 16.1546 52.599 16.2907 52.9141V53H15.2487ZM13.5997 52.2427C13.9113 52.2427 14.2067 52.1621 14.486 52.001C14.7653 51.8398 14.9676 51.6304 15.0929 51.3726V50.1802H14.3141C13.0967 50.1802 12.4879 50.5365 12.4879 51.249C12.4879 51.5605 12.5918 51.804 12.7995 51.9795C13.0071 52.1549 13.2739 52.2427 13.5997 52.2427ZM18.2487 47.1885L18.2756 47.833C18.7017 47.3317 19.2764 47.0811 19.9997 47.0811C20.8126 47.0811 21.3658 47.3926 21.6594 48.0156C21.8528 47.7363 22.1034 47.5107 22.4113 47.3389C22.7229 47.167 23.0899 47.0811 23.5124 47.0811C24.7872 47.0811 25.4353 47.756 25.4568 49.106V53H24.4631V49.165C24.4631 48.7497 24.3682 48.4399 24.1784 48.2358C23.9887 48.0282 23.67 47.9243 23.2224 47.9243C22.8536 47.9243 22.5474 48.0353 22.3039 48.2573C22.0604 48.4757 21.919 48.7712 21.8796 49.1436V53H20.8806V49.1919C20.8806 48.3468 20.467 47.9243 19.6399 47.9243C18.9882 47.9243 18.5424 48.2018 18.3025 48.7568V53H17.3088V47.1885H18.2487ZM30.2186 53C30.1613 52.8854 30.1147 52.6813 30.0789 52.3877C29.617 52.8675 29.0656 53.1074 28.4246 53.1074C27.8517 53.1074 27.3808 52.9463 27.012 52.624C26.6468 52.2982 26.4642 51.8864 26.4642 51.3887C26.4642 50.7835 26.6933 50.3145 27.1517 49.9814C27.6136 49.6449 28.2617 49.4766 29.096 49.4766H30.0628V49.02C30.0628 48.6727 29.959 48.397 29.7513 48.1929C29.5436 47.9852 29.2374 47.8813 28.8328 47.8813C28.4783 47.8813 28.1811 47.9709 27.9412 48.1499C27.7013 48.3289 27.5813 48.5456 27.5813 48.7998H26.5823C26.5823 48.5098 26.6844 48.2305 26.8885 47.9619C27.0962 47.6898 27.3755 47.4749 27.7264 47.3174C28.0809 47.1598 28.4694 47.0811 28.8919 47.0811C29.5615 47.0811 30.0861 47.2493 30.4656 47.5859C30.8452 47.9189 31.0421 48.3791 31.0564 48.9663V51.6411C31.0564 52.1746 31.1245 52.599 31.2605 52.9141V53H30.2186ZM28.5696 52.2427C28.8812 52.2427 29.1766 52.1621 29.4559 52.001C29.7352 51.8398 29.9375 51.6304 30.0628 51.3726V50.1802H29.284C28.0665 50.1802 27.4578 50.5365 27.4578 51.249C27.4578 51.5605 27.5617 51.804 27.7693 51.9795C27.977 52.1549 28.2438 52.2427 28.5696 52.2427ZM30.9061 44.9219C30.9061 45.3086 30.7951 45.6219 30.573 45.8618C30.3546 46.1017 30.0807 46.2217 29.7513 46.2217C29.6045 46.2217 29.4773 46.2038 29.3699 46.168C29.2625 46.1322 29.1211 46.0588 28.9456 45.9478C28.7737 45.8368 28.6484 45.7705 28.5696 45.749C28.4944 45.724 28.4067 45.7114 28.3064 45.7114C28.1596 45.7114 28.0343 45.7687 27.9305 45.8833C27.8266 45.9943 27.7747 46.1375 27.7747 46.313L27.1087 46.2754C27.1087 45.8923 27.2161 45.5754 27.431 45.3247C27.6494 45.0741 27.9251 44.9487 28.2581 44.9487C28.3834 44.9487 28.4962 44.9666 28.5965 45.0024C28.6967 45.0382 28.8328 45.1081 29.0047 45.2119C29.1766 45.3158 29.3073 45.3838 29.3968 45.416C29.4899 45.4482 29.5919 45.4644 29.7029 45.4644C29.8569 45.4644 29.984 45.4035 30.0843 45.2817C30.1881 45.16 30.24 45.0186 30.24 44.8574L30.9061 44.9219ZM34.6957 53.1074C33.9079 53.1074 33.267 52.8496 32.7728 52.334C32.2787 51.8148 32.0316 51.1219 32.0316 50.2554V50.0728C32.0316 49.4963 32.1408 48.9824 32.3593 48.5312C32.5813 48.0765 32.8892 47.722 33.2831 47.4678C33.6805 47.21 34.1102 47.0811 34.5721 47.0811C35.3277 47.0811 35.9149 47.3299 36.3339 47.8276C36.7528 48.3254 36.9623 49.0379 36.9623 49.9653V50.3789H33.0253C33.0396 50.9518 33.2061 51.4155 33.5248 51.77C33.847 52.1209 34.2553 52.2964 34.7494 52.2964C35.1003 52.2964 35.3975 52.2248 35.641 52.0815C35.8845 51.9383 36.0975 51.7485 36.2802 51.5122L36.8871 51.9849C36.4001 52.7332 35.6696 53.1074 34.6957 53.1074ZM34.5721 47.8975C34.1711 47.8975 33.8345 48.0443 33.5624 48.3379C33.2902 48.6279 33.122 49.0361 33.0575 49.5625H35.9686V49.4873C35.94 48.9824 35.8039 48.5921 35.5604 48.3164C35.3169 48.0371 34.9875 47.8975 34.5721 47.8975ZM42.5972 53.1074C41.8094 53.1074 41.1685 52.8496 40.6744 52.334C40.1802 51.8148 39.9331 51.1219 39.9331 50.2554V50.0728C39.9331 49.4963 40.0424 48.9824 40.2608 48.5312C40.4828 48.0765 40.7907 47.722 41.1846 47.4678C41.5821 47.21 42.0118 47.0811 42.4737 47.0811C43.2292 47.0811 43.8164 47.3299 44.2354 47.8276C44.6543 48.3254 44.8638 49.0379 44.8638 49.9653V50.3789H40.9268C40.9411 50.9518 41.1076 51.4155 41.4263 51.77C41.7486 52.1209 42.1568 52.2964 42.6509 52.2964C43.0018 52.2964 43.299 52.2248 43.5425 52.0815C43.786 51.9383 43.9991 51.7485 44.1817 51.5122L44.7886 51.9849C44.3016 52.7332 43.5712 53.1074 42.5972 53.1074ZM42.4737 47.8975C42.0726 47.8975 41.736 48.0443 41.4639 48.3379C41.1918 48.6279 41.0235 49.0361 40.959 49.5625H43.8702V49.4873C43.8415 48.9824 43.7054 48.5921 43.462 48.3164C43.2185 48.0371 42.889 47.8975 42.4737 47.8975ZM53.007 50.1587C53.007 51.0467 52.8029 51.7611 52.3947 52.3018C51.9865 52.8389 51.4387 53.1074 50.7512 53.1074C50.0171 53.1074 49.4496 52.8478 49.0485 52.3286L49.0002 53H48.0871V44.75H49.0808V47.8276C49.4818 47.3299 50.035 47.0811 50.7404 47.0811C51.4458 47.0811 51.9991 47.3478 52.4001 47.8813C52.8047 48.4149 53.007 49.1453 53.007 50.0728V50.1587ZM52.0134 50.0459C52.0134 49.3691 51.8827 48.8464 51.6213 48.4775C51.3599 48.1087 50.9839 47.9243 50.4934 47.9243C49.8381 47.9243 49.3672 48.2287 49.0808 48.8374V51.3511C49.3851 51.9598 49.8596 52.2642 50.5041 52.2642C50.9803 52.2642 51.3509 52.0798 51.6159 51.7109C51.8809 51.3421 52.0134 50.7871 52.0134 50.0459ZM56.3455 53.1074C55.5577 53.1074 54.9168 52.8496 54.4226 52.334C53.9285 51.8148 53.6814 51.1219 53.6814 50.2554V50.0728C53.6814 49.4963 53.7906 48.9824 54.0091 48.5312C54.2311 48.0765 54.539 47.722 54.9329 47.4678C55.3303 47.21 55.76 47.0811 56.222 47.0811C56.9775 47.0811 57.5647 47.3299 57.9837 47.8276C58.4026 48.3254 58.6121 49.0379 58.6121 49.9653V50.3789H54.6751C54.6894 50.9518 54.8559 51.4155 55.1746 51.77C55.4969 52.1209 55.9051 52.2964 56.3992 52.2964C56.7501 52.2964 57.0473 52.2248 57.2908 52.0815C57.5343 51.9383 57.7473 51.7485 57.93 51.5122L58.5369 51.9849C58.0499 52.7332 57.3194 53.1074 56.3455 53.1074ZM56.222 47.8975C55.8209 47.8975 55.4843 48.0443 55.2122 48.3379C54.94 48.6279 54.7718 49.0361 54.7073 49.5625H57.6184V49.4873C57.5898 48.9824 57.4537 48.5921 57.2102 48.3164C56.9667 48.0371 56.6373 47.8975 56.222 47.8975ZM64.3568 50.1587C64.3568 51.0467 64.1527 51.7611 63.7445 52.3018C63.3363 52.8389 62.7884 53.1074 62.1009 53.1074C61.3669 53.1074 60.7993 52.8478 60.3983 52.3286L60.35 53H59.4369V44.75H60.4305V47.8276C60.8316 47.3299 61.3848 47.0811 62.0902 47.0811C62.7956 47.0811 63.3488 47.3478 63.7499 47.8813C64.1545 48.4149 64.3568 49.1453 64.3568 50.0728V50.1587ZM63.3631 50.0459C63.3631 49.3691 63.2324 48.8464 62.9711 48.4775C62.7097 48.1087 62.3337 47.9243 61.8431 47.9243C61.1879 47.9243 60.717 48.2287 60.4305 48.8374V51.3511C60.7349 51.9598 61.2093 52.2642 61.8539 52.2642C62.3301 52.2642 62.7007 52.0798 62.9657 51.7109C63.2307 51.3421 63.3631 50.7871 63.3631 50.0459ZM67.6953 53.1074C66.9075 53.1074 66.2665 52.8496 65.7724 52.334C65.2783 51.8148 65.0312 51.1219 65.0312 50.2554V50.0728C65.0312 49.4963 65.1404 48.9824 65.3588 48.5312C65.5808 48.0765 65.8888 47.722 66.2827 47.4678C66.6801 47.21 67.1098 47.0811 67.5717 47.0811C68.3273 47.0811 68.9145 47.3299 69.3334 47.8276C69.7524 48.3254 69.9619 49.0379 69.9619 49.9653V50.3789H66.0248C66.0392 50.9518 66.2057 51.4155 66.5244 51.77C66.8466 52.1209 67.2548 52.2964 67.749 52.2964C68.0999 52.2964 68.3971 52.2248 68.6406 52.0815C68.8841 51.9383 69.0971 51.7485 69.2797 51.5122L69.8867 51.9849C69.3997 52.7332 68.6692 53.1074 67.6953 53.1074ZM67.5717 47.8975C67.1707 47.8975 66.8341 48.0443 66.562 48.3379C66.2898 48.6279 66.1215 49.0361 66.0571 49.5625H68.9682V49.4873C68.9396 48.9824 68.8035 48.5921 68.56 48.3164C68.3165 48.0371 67.9871 47.8975 67.5717 47.8975ZM69.1938 46.2217V46.2754H68.372L67.5663 45.3623L66.7661 46.2754H65.9443V46.2109L67.2656 44.75H67.8671L69.1938 46.2217Z" fill="#666666"/>
<defs>
<filter id="filter0_d_7849_58631" x="1" y="0" width="70" height="38" filterUnits="userSpaceOnUse" color-interpolation-filters="sRGB">
<feFlood flood-opacity="0" result="BackgroundImageFix"/>
<feColorMatrix in="SourceAlpha" type="matrix" values="0 0 0 0 0 0 0 0 0 0 0 0 0 0 0 0 0 0 127 0" result="hardAlpha"/>
<feOffset dy="1"/>
<feGaussianBlur stdDeviation="1"/>
<feColorMatrix type="matrix" values="0 0 0 0 0 0 0 0 0 0 0 0 0 0 0 0 0 0 0.2 0"/>
<feBlend mode="normal" in2="BackgroundImageFix" result="effect1_dropShadow_7849_58631"/>
<feBlend mode="normal" in="SourceGraphic" in2="effect1_dropShadow_7849_58631" result="shape"/>
</filter>
</defs>
</svg>
