<svg width="72" height="69" viewBox="0 0 72 69" fill="none" xmlns="http://www.w3.org/2000/svg">
<g filter="url(#filter0_d_7849_58611)">
<rect x="3" y="1" width="66" height="34" rx="8" fill="#E7F3F9"/>
<path d="M27.5625 17.25H44.4375" stroke="#007DC5" stroke-linecap="round" stroke-linejoin="round"/>
<path fill-rule="evenodd" clip-rule="evenodd" d="M43.3125 17.25H28.6875C28.6871 19.9813 30.2104 22.4847 32.6362 23.7397C32.7758 23.8124 32.8786 23.9401 32.9199 24.0919C32.9612 24.2437 32.9372 24.4059 32.8538 24.5392C32.6713 24.8337 32.5089 25.1402 32.3678 25.4565C32.2893 25.6306 32.3046 25.8326 32.4083 25.9929C32.5119 26.1532 32.6898 26.25 32.8808 26.25H39.1193C39.31 26.2496 39.4876 26.1528 39.5912 25.9926C39.6948 25.8323 39.7102 25.6306 39.6323 25.4565C39.4911 25.1402 39.3287 24.8337 39.1462 24.5392C39.063 24.4058 39.0391 24.2438 39.0804 24.092C39.1217 23.9403 39.2244 23.8126 39.3637 23.7397C41.7896 22.4847 43.3129 19.9813 43.3125 17.25Z" stroke="#007DC5" stroke-linecap="round" stroke-linejoin="round"/>
<path d="M37.6875 14.9996L40.6553 10.0534C40.8934 9.65665 41.3751 9.47861 41.814 9.6251V9.6251C42.0625 9.70792 42.268 9.88614 42.385 10.1205C42.502 10.3549 42.5211 10.6262 42.438 10.8746L41.0625 14.9996" stroke="#007DC5" stroke-linecap="round" stroke-linejoin="round"/>
</g>
<path d="M8.19492 45.1797L10.7516 51.5605L13.3082 45.1797H14.6456V53H13.6144V49.9546L13.711 46.6675L11.1437 53H10.3541L7.79209 46.6836L7.89414 49.9546V53H6.86289V45.1797H8.19492ZM19.5685 53C19.5112 52.8854 19.4647 52.6813 19.4289 52.3877C18.967 52.8675 18.4155 53.1074 17.7746 53.1074C17.2017 53.1074 16.7308 52.9463 16.362 52.624C15.9968 52.2982 15.8141 51.8864 15.8141 51.3887C15.8141 50.7835 16.0433 50.3145 16.5016 49.9814C16.9636 49.6449 17.6117 49.4766 18.446 49.4766H19.4128V49.02C19.4128 48.6727 19.3089 48.397 19.1012 48.1929C18.8936 47.9852 18.5874 47.8813 18.1828 47.8813C17.8283 47.8813 17.5311 47.9709 17.2912 48.1499C17.0513 48.3289 16.9313 48.5456 16.9313 48.7998H15.9323C15.9323 48.5098 16.0344 48.2305 16.2385 47.9619C16.4461 47.6898 16.7254 47.4749 17.0763 47.3174C17.4308 47.1598 17.8193 47.0811 18.2419 47.0811C18.9115 47.0811 19.436 47.2493 19.8156 47.5859C20.1952 47.9189 20.3921 48.3791 20.4064 48.9663V51.6411C20.4064 52.1746 20.4745 52.599 20.6105 52.9141V53H19.5685ZM17.9196 52.2427C18.2311 52.2427 18.5265 52.1621 18.8058 52.001C19.0851 51.8398 19.2874 51.6304 19.4128 51.3726V50.1802H18.634C17.4165 50.1802 16.8078 50.5365 16.8078 51.249C16.8078 51.5605 16.9116 51.804 17.1193 51.9795C17.327 52.1549 17.5938 52.2427 17.9196 52.2427ZM22.574 47.1885L22.6062 47.9189C23.0502 47.3604 23.6303 47.0811 24.3464 47.0811C25.5746 47.0811 26.1941 47.7739 26.2048 49.1597V53H25.2112V49.1543C25.2076 48.7354 25.1109 48.4256 24.9212 48.2251C24.735 48.0246 24.4431 47.9243 24.0457 47.9243C23.7234 47.9243 23.4405 48.0103 23.197 48.1821C22.9535 48.354 22.7638 48.5796 22.6277 48.8589V53H21.634V47.1885H22.574ZM28.453 53H27.4593V47.1885H28.453V53ZM27.3787 45.647C27.3787 45.4858 27.4271 45.3498 27.5238 45.2388C27.624 45.1278 27.7708 45.0723 27.9642 45.0723C28.1576 45.0723 28.3044 45.1278 28.4046 45.2388C28.5049 45.3498 28.555 45.4858 28.555 45.647C28.555 45.8081 28.5049 45.9424 28.4046 46.0498C28.3044 46.1572 28.1576 46.2109 27.9642 46.2109C27.7708 46.2109 27.624 46.1572 27.5238 46.0498C27.4271 45.9424 27.3787 45.8081 27.3787 45.647ZM34.6274 50.1587C34.6274 51.0431 34.4251 51.7557 34.0204 52.2964C33.6158 52.8371 33.068 53.1074 32.3769 53.1074C31.6715 53.1074 31.1165 52.8836 30.7118 52.436V55.2344H29.7182V47.1885H30.6259L30.6742 47.833C31.0789 47.3317 31.641 47.0811 32.3608 47.0811C33.059 47.0811 33.6104 47.3442 34.0151 47.8706C34.4233 48.397 34.6274 49.1292 34.6274 50.0674V50.1587ZM33.6337 50.0459C33.6337 49.3906 33.4941 48.8732 33.2148 48.4937C32.9355 48.1141 32.5523 47.9243 32.0654 47.9243C31.4638 47.9243 31.0126 48.1911 30.7118 48.7246V51.5015C31.009 52.0314 31.4638 52.2964 32.0761 52.2964C32.5523 52.2964 32.9301 52.1084 33.2094 51.7324C33.4923 51.3529 33.6337 50.7907 33.6337 50.0459ZM39.1528 52.4253C38.7661 52.88 38.1986 53.1074 37.4502 53.1074C36.8307 53.1074 36.3581 52.9284 36.0322 52.5703C35.71 52.2087 35.547 51.6751 35.5435 50.9697V47.1885H36.5371V50.9429C36.5371 51.8237 36.8952 52.2642 37.6113 52.2642C38.3704 52.2642 38.8753 51.9813 39.126 51.4155V47.1885H40.1196V53H39.1743L39.1528 52.4253ZM42.3839 53H41.3902V44.75H42.3839V53ZM47.237 53C47.1797 52.8854 47.1331 52.6813 47.0973 52.3877C46.6354 52.8675 46.084 53.1074 45.443 53.1074C44.8701 53.1074 44.3992 52.9463 44.0304 52.624C43.6652 52.2982 43.4826 51.8864 43.4826 51.3887C43.4826 50.7835 43.7117 50.3145 44.1701 49.9814C44.632 49.6449 45.2801 49.4766 46.1144 49.4766H47.0812V49.02C47.0812 48.6727 46.9774 48.397 46.7697 48.1929C46.562 47.9852 46.2558 47.8813 45.8512 47.8813C45.4967 47.8813 45.1995 47.9709 44.9596 48.1499C44.7197 48.3289 44.5998 48.5456 44.5998 48.7998H43.6007C43.6007 48.5098 43.7028 48.2305 43.9069 47.9619C44.1146 47.6898 44.3939 47.4749 44.7448 47.3174C45.0993 47.1598 45.4878 47.0811 45.9103 47.0811C46.5799 47.0811 47.1045 47.2493 47.484 47.5859C47.8636 47.9189 48.0605 48.3791 48.0749 48.9663V51.6411C48.0749 52.1746 48.1429 52.599 48.279 52.9141V53H47.237ZM45.588 52.2427C45.8996 52.2427 46.195 52.1621 46.4743 52.001C46.7536 51.8398 46.9559 51.6304 47.0812 51.3726V50.1802H46.3024C45.085 50.1802 44.4762 50.5365 44.4762 51.249C44.4762 51.5605 44.5801 51.804 44.7878 51.9795C44.9954 52.1549 45.2622 52.2427 45.588 52.2427ZM49.0608 50.0459C49.0608 49.1543 49.272 48.4382 49.6946 47.8975C50.1171 47.3532 50.6703 47.0811 51.3542 47.0811C52.0346 47.0811 52.5735 47.3138 52.9709 47.7793V44.75H53.9646V53H53.0515L53.0032 52.377C52.6057 52.8639 52.0525 53.1074 51.3435 53.1074C50.6703 53.1074 50.1207 52.8317 49.6946 52.2803C49.272 51.7288 49.0608 51.0091 49.0608 50.1211V50.0459ZM50.0544 50.1587C50.0544 50.8175 50.1905 51.3332 50.4626 51.7056C50.7348 52.078 51.1108 52.2642 51.5906 52.2642C52.2208 52.2642 52.6809 51.9813 52.9709 51.4155V48.7461C52.6737 48.1982 52.2172 47.9243 51.6013 47.9243C51.1143 47.9243 50.7348 48.1123 50.4626 48.4883C50.1905 48.8643 50.0544 49.4211 50.0544 50.1587ZM54.9183 50.0405C54.9183 49.4712 55.0293 48.9591 55.2513 48.5044C55.4769 48.0496 55.7884 47.6987 56.1859 47.4517C56.5869 47.2046 57.0434 47.0811 57.5555 47.0811C58.3468 47.0811 58.986 47.355 59.473 47.9028C59.9635 48.4507 60.2088 49.1794 60.2088 50.0889V50.1587C60.2088 50.7244 60.0996 51.2329 59.8812 51.6841C59.6663 52.1317 59.3566 52.4808 58.952 52.7314C58.5509 52.9821 58.089 53.1074 57.5662 53.1074C56.7785 53.1074 56.1393 52.8335 55.6488 52.2856C55.1618 51.7378 54.9183 51.0127 54.9183 50.1104V50.0405ZM55.9173 50.1587C55.9173 50.8032 56.0659 51.3206 56.3631 51.7109C56.6639 52.1012 57.0649 52.2964 57.5662 52.2964C58.0711 52.2964 58.4722 52.0994 58.7694 51.7056C59.0666 51.3081 59.2152 50.7531 59.2152 50.0405C59.2152 49.4032 59.063 48.8875 58.7586 48.4937C58.4578 48.0962 58.0568 47.8975 57.5555 47.8975C57.0649 47.8975 56.6693 48.0926 56.3685 48.4829C56.0677 48.8732 55.9173 49.4318 55.9173 50.1587ZM64.5087 51.4585C64.5087 51.1899 64.4066 50.9823 64.2025 50.8354C64.002 50.6851 63.6493 50.5562 63.1444 50.4487C62.6431 50.3413 62.2439 50.2124 61.9467 50.062C61.6531 49.9116 61.4346 49.7326 61.2914 49.5249C61.1518 49.3172 61.0819 49.0701 61.0819 48.7837C61.0819 48.3075 61.2825 47.9046 61.6835 47.5752C62.0881 47.2458 62.6037 47.0811 63.2304 47.0811C63.8892 47.0811 64.4228 47.2511 64.831 47.5913C65.2427 47.9315 65.4486 48.3665 65.4486 48.8965H64.4496C64.4496 48.6243 64.3332 48.3898 64.1005 48.1929C63.8713 47.9959 63.5813 47.8975 63.2304 47.8975C62.8687 47.8975 62.5858 47.9762 62.3817 48.1338C62.1776 48.2913 62.0756 48.4972 62.0756 48.7515C62.0756 48.9914 62.1705 49.1722 62.3603 49.2939C62.55 49.4157 62.892 49.5321 63.3861 49.6431C63.8839 49.7541 64.2867 49.8866 64.5946 50.0405C64.9026 50.1945 65.1299 50.3807 65.2768 50.5991C65.4271 50.814 65.5023 51.0771 65.5023 51.3887C65.5023 51.9079 65.2947 52.325 64.8793 52.6401C64.4639 52.9517 63.925 53.1074 63.2626 53.1074C62.7971 53.1074 62.3853 53.0251 62.0272 52.8604C61.6692 52.6956 61.3881 52.4665 61.184 52.1729C60.9835 51.8757 60.8832 51.5552 60.8832 51.2114H61.8769C61.8948 51.5444 62.0272 51.8094 62.2743 52.0063C62.525 52.1997 62.8544 52.2964 63.2626 52.2964C63.6386 52.2964 63.9394 52.2212 64.1649 52.0708C64.3941 51.9168 64.5087 51.7127 64.5087 51.4585Z" fill="#666666"/>
<defs>
<filter id="filter0_d_7849_58611" x="1" y="0" width="70" height="38" filterUnits="userSpaceOnUse" color-interpolation-filters="sRGB">
<feFlood flood-opacity="0" result="BackgroundImageFix"/>
<feColorMatrix in="SourceAlpha" type="matrix" values="0 0 0 0 0 0 0 0 0 0 0 0 0 0 0 0 0 0 127 0" result="hardAlpha"/>
<feOffset dy="1"/>
<feGaussianBlur stdDeviation="1"/>
<feColorMatrix type="matrix" values="0 0 0 0 0 0 0 0 0 0 0 0 0 0 0 0 0 0 0.2 0"/>
<feBlend mode="normal" in2="BackgroundImageFix" result="effect1_dropShadow_7849_58611"/>
<feBlend mode="normal" in="SourceGraphic" in2="effect1_dropShadow_7849_58611" result="shape"/>
</filter>
</defs>
</svg>
