<svg width="72" height="69" viewBox="0 0 72 69" fill="none" xmlns="http://www.w3.org/2000/svg">
<g filter="url(#filter0_d_7849_58615)">
<rect x="2.92383" y="1" width="66.1516" height="33.9992" rx="8" fill="#E7F3F9"/>
<circle cx="31.7432" cy="13.8193" r="4.81932" stroke="#007DC5" stroke-linecap="round" stroke-linejoin="round"/>
<path fill-rule="evenodd" clip-rule="evenodd" d="M39.0049 26.1908C37.8181 27.2967 35.9687 27.264 34.8217 26.117C33.6746 24.9699 33.642 23.1205 34.7479 21.9337L39.8596 16.822C40.6105 16.0162 41.7413 15.6845 42.8085 15.957C43.8758 16.2296 44.7091 17.0629 44.9816 18.1301C45.2542 19.1973 44.9225 20.3282 44.1166 21.0791L39.0049 26.1908Z" stroke="#007DC5" stroke-linecap="round" stroke-linejoin="round"/>
<path d="M37.2988 19.375L41.5591 23.6353" stroke="#007DC5" stroke-linecap="round" stroke-linejoin="round"/>
<path fill-rule="evenodd" clip-rule="evenodd" d="M34.3076 12.8496H32.7012V11.2432C32.7012 11.0657 32.5573 10.9219 32.3799 10.9219H31.0947C30.9173 10.9219 30.7734 11.0657 30.7734 11.2432V12.8496H29.167C28.9895 12.8496 28.8457 12.9935 28.8457 13.1709V14.456C28.8457 14.6335 28.9895 14.7773 29.167 14.7773H30.7734V16.3838C30.7734 16.5612 30.9173 16.7051 31.0947 16.7051H32.3799C32.5573 16.7051 32.7012 16.5612 32.7012 16.3838V14.7773H34.3076C34.485 14.7773 34.6289 14.6335 34.6289 14.456V13.1709C34.6289 12.9935 34.485 12.8496 34.3076 12.8496Z" stroke="#007DC5" stroke-linecap="round" stroke-linejoin="round"/>
</g>
<path d="M3.69631 45.1797L6.25295 51.5605L8.80959 45.1797H10.147V53H9.11574V49.9546L9.21242 46.6675L6.64504 53H5.85549L3.29348 46.6836L3.39553 49.9546V53H2.36428V45.1797H3.69631ZM13.8937 53.1074C13.1059 53.1074 12.4649 52.8496 11.9708 52.334C11.4767 51.8148 11.2296 51.1219 11.2296 50.2554V50.0728C11.2296 49.4963 11.3388 48.9824 11.5572 48.5312C11.7792 48.0765 12.0872 47.722 12.4811 47.4678C12.8785 47.21 13.3082 47.0811 13.7701 47.0811C14.5257 47.0811 15.1129 47.3299 15.5318 47.8276C15.9508 48.3254 16.1603 49.0379 16.1603 49.9653V50.3789H12.2232C12.2376 50.9518 12.4041 51.4155 12.7228 51.77C13.045 52.1209 13.4532 52.2964 13.9474 52.2964C14.2983 52.2964 14.5955 52.2248 14.839 52.0815C15.0825 51.9383 15.2955 51.7485 15.4781 51.5122L16.0851 51.9849C15.5981 52.7332 14.8676 53.1074 13.8937 53.1074ZM13.7701 47.8975C13.3691 47.8975 13.0325 48.0443 12.7604 48.3379C12.4882 48.6279 12.3199 49.0361 12.2555 49.5625H15.1666V49.4873C15.138 48.9824 15.0019 48.5921 14.7584 48.3164C14.5149 48.0371 14.1855 47.8975 13.7701 47.8975ZM16.7433 50.0459C16.7433 49.1543 16.9546 48.4382 17.3771 47.8975C17.7997 47.3532 18.3529 47.0811 19.0368 47.0811C19.7171 47.0811 20.256 47.3138 20.6535 47.7793V44.75H21.6471V53H20.7341L20.6857 52.377C20.2883 52.8639 19.735 53.1074 19.0261 53.1074C18.3529 53.1074 17.8032 52.8317 17.3771 52.2803C16.9546 51.7288 16.7433 51.0091 16.7433 50.1211V50.0459ZM17.737 50.1587C17.737 50.8175 17.8731 51.3332 18.1452 51.7056C18.4173 52.078 18.7933 52.2642 19.2731 52.2642C19.9033 52.2642 20.3635 51.9813 20.6535 51.4155V48.7461C20.3563 48.1982 19.8998 47.9243 19.2839 47.9243C18.7969 47.9243 18.4173 48.1123 18.1452 48.4883C17.8731 48.8643 17.737 49.4211 17.737 50.1587ZM23.9436 53H22.95V47.1885H23.9436V53ZM22.8694 45.647C22.8694 45.4858 22.9177 45.3498 23.0144 45.2388C23.1147 45.1278 23.2615 45.0723 23.4548 45.0723C23.6482 45.0723 23.795 45.1278 23.8953 45.2388C23.9955 45.3498 24.0457 45.4858 24.0457 45.647C24.0457 45.8081 23.9955 45.9424 23.8953 46.0498C23.795 46.1572 23.6482 46.2109 23.4548 46.2109C23.2615 46.2109 23.1147 46.1572 23.0144 46.0498C22.9177 45.9424 22.8694 45.8081 22.8694 45.647ZM27.5399 52.2964C27.8944 52.2964 28.2041 52.189 28.4691 51.9741C28.7341 51.7593 28.8809 51.4907 28.9095 51.1685H29.8495C29.8315 51.5015 29.717 51.8184 29.5057 52.1191C29.2944 52.4199 29.0116 52.6598 28.6571 52.8389C28.3062 53.0179 27.9338 53.1074 27.5399 53.1074C26.7485 53.1074 26.1183 52.8442 25.6493 52.3179C25.1838 51.7879 24.951 51.0646 24.951 50.1479V49.9814C24.951 49.4157 25.0549 48.9126 25.2625 48.4722C25.4702 48.0317 25.7674 47.6898 26.1541 47.4463C26.5444 47.2028 27.0046 47.0811 27.5345 47.0811C28.1862 47.0811 28.7269 47.2762 29.1566 47.6665C29.5899 48.0568 29.8208 48.5635 29.8495 49.1865H28.9095C28.8809 48.8105 28.7376 48.5026 28.4798 48.2627C28.2256 48.0192 27.9105 47.8975 27.5345 47.8975C27.0296 47.8975 26.6375 48.0801 26.3582 48.4453C26.0825 48.807 25.9447 49.3315 25.9447 50.019V50.207C25.9447 50.8766 26.0825 51.3923 26.3582 51.7539C26.634 52.1156 27.0278 52.2964 27.5399 52.2964ZM34.2245 53C34.1672 52.8854 34.1207 52.6813 34.0849 52.3877C33.623 52.8675 33.0715 53.1074 32.4306 53.1074C31.8577 53.1074 31.3868 52.9463 31.018 52.624C30.6528 52.2982 30.4701 51.8864 30.4701 51.3887C30.4701 50.7835 30.6993 50.3145 31.1576 49.9814C31.6196 49.6449 32.2677 49.4766 33.102 49.4766H34.0688V49.02C34.0688 48.6727 33.9649 48.397 33.7572 48.1929C33.5496 47.9852 33.2434 47.8813 32.8388 47.8813C32.4843 47.8813 32.1871 47.9709 31.9472 48.1499C31.7073 48.3289 31.5873 48.5456 31.5873 48.7998H30.5883C30.5883 48.5098 30.6904 48.2305 30.8945 47.9619C31.1021 47.6898 31.3814 47.4749 31.7323 47.3174C32.0868 47.1598 32.4753 47.0811 32.8979 47.0811C33.5675 47.0811 34.092 47.2493 34.4716 47.5859C34.8512 47.9189 35.0481 48.3791 35.0624 48.9663V51.6411C35.0624 52.1746 35.1305 52.599 35.2665 52.9141V53H34.2245ZM32.5756 52.2427C32.8871 52.2427 33.1825 52.1621 33.4618 52.001C33.7411 51.8398 33.9434 51.6304 34.0688 51.3726V50.1802H33.29C32.0725 50.1802 31.4638 50.5365 31.4638 51.249C31.4638 51.5605 31.5676 51.804 31.7753 51.9795C31.983 52.1549 32.2498 52.2427 32.5756 52.2427ZM37.2246 47.1885L37.2515 47.833C37.6776 47.3317 38.2523 47.0811 38.9756 47.0811C39.7884 47.0811 40.3416 47.3926 40.6353 48.0156C40.8286 47.7363 41.0793 47.5107 41.3872 47.3389C41.6987 47.167 42.0658 47.0811 42.4883 47.0811C43.763 47.0811 44.4111 47.756 44.4326 49.106V53H43.439V49.165C43.439 48.7497 43.3441 48.4399 43.1543 48.2358C42.9645 48.0282 42.6458 47.9243 42.1982 47.9243C41.8294 47.9243 41.5233 48.0353 41.2798 48.2573C41.0363 48.4757 40.8949 48.7712 40.8555 49.1436V53H39.8564V49.1919C39.8564 48.3468 39.4429 47.9243 38.6157 47.9243C37.964 47.9243 37.5182 48.2018 37.2783 48.7568V53H36.2847V47.1885H37.2246ZM48.0181 53.1074C47.2304 53.1074 46.5894 52.8496 46.0953 52.334C45.6012 51.8148 45.3541 51.1219 45.3541 50.2554V50.0728C45.3541 49.4963 45.4633 48.9824 45.6817 48.5312C45.9037 48.0765 46.2117 47.722 46.6055 47.4678C47.003 47.21 47.4327 47.0811 47.8946 47.0811C48.6501 47.0811 49.2374 47.3299 49.6563 47.8276C50.0753 48.3254 50.2847 49.0379 50.2847 49.9653V50.3789H46.3477C46.3621 50.9518 46.5286 51.4155 46.8472 51.77C47.1695 52.1209 47.5777 52.2964 48.0719 52.2964C48.4228 52.2964 48.72 52.2248 48.9635 52.0815C49.2069 51.9383 49.42 51.7485 49.6026 51.5122L50.2095 51.9849C49.7226 52.7332 48.9921 53.1074 48.0181 53.1074ZM47.8946 47.8975C47.4936 47.8975 47.157 48.0443 46.8848 48.3379C46.6127 48.6279 46.4444 49.0361 46.38 49.5625H49.2911V49.4873C49.2624 48.9824 49.1264 48.5921 48.8829 48.3164C48.6394 48.0371 48.31 47.8975 47.8946 47.8975ZM52.0495 47.1885L52.0817 47.9189C52.5257 47.3604 53.1058 47.0811 53.8219 47.0811C55.0501 47.0811 55.6696 47.7739 55.6803 49.1597V53H54.6867V49.1543C54.6831 48.7354 54.5864 48.4256 54.3966 48.2251C54.2104 48.0246 53.9186 47.9243 53.5212 47.9243C53.1989 47.9243 52.916 48.0103 52.6725 48.1821C52.429 48.354 52.2393 48.5796 52.1032 48.8589V53H51.1095V47.1885H52.0495ZM58.197 45.7812V47.1885H59.282V47.9565H58.197V51.5605C58.197 51.7933 58.2453 51.9688 58.342 52.0869C58.4387 52.2015 58.6034 52.2588 58.8362 52.2588C58.9508 52.2588 59.1083 52.2373 59.3088 52.1943V53C59.0474 53.0716 58.7932 53.1074 58.5461 53.1074C58.1021 53.1074 57.7673 52.9731 57.5417 52.7046C57.3162 52.436 57.2034 52.0547 57.2034 51.5605V47.9565H56.1453V47.1885H57.2034V45.7812H58.197ZM59.7469 50.0405C59.7469 49.4712 59.8579 48.9591 60.0799 48.5044C60.3055 48.0496 60.617 47.6987 61.0145 47.4517C61.4155 47.2046 61.8721 47.0811 62.3841 47.0811C63.1754 47.0811 63.8146 47.355 64.3016 47.9028C64.7921 48.4507 65.0374 49.1794 65.0374 50.0889V50.1587C65.0374 50.7244 64.9282 51.2329 64.7098 51.6841C64.4949 52.1317 64.1852 52.4808 63.7806 52.7314C63.3795 52.9821 62.9176 53.1074 62.3948 53.1074C61.6071 53.1074 60.9679 52.8335 60.4774 52.2856C59.9904 51.7378 59.7469 51.0127 59.7469 50.1104V50.0405ZM60.7459 50.1587C60.7459 50.8032 60.8945 51.3206 61.1917 51.7109C61.4925 52.1012 61.8935 52.2964 62.3948 52.2964C62.8997 52.2964 63.3008 52.0994 63.598 51.7056C63.8952 51.3081 64.0438 50.7531 64.0438 50.0405C64.0438 49.4032 63.8916 48.8875 63.5872 48.4937C63.2864 48.0962 62.8854 47.8975 62.3841 47.8975C61.8935 47.8975 61.4979 48.0926 61.1971 48.4829C60.8963 48.8732 60.7459 49.4318 60.7459 50.1587ZM69.3373 51.4585C69.3373 51.1899 69.2353 50.9823 69.0312 50.8354C68.8306 50.6851 68.4779 50.5562 67.973 50.4487C67.4717 50.3413 67.0725 50.2124 66.7753 50.062C66.4817 49.9116 66.2632 49.7326 66.12 49.5249C65.9804 49.3172 65.9105 49.0701 65.9105 48.7837C65.9105 48.3075 66.1111 47.9046 66.5121 47.5752C66.9167 47.2458 67.4324 47.0811 68.059 47.0811C68.7178 47.0811 69.2514 47.2511 69.6596 47.5913C70.0714 47.9315 70.2772 48.3665 70.2772 48.8965H69.2782C69.2782 48.6243 69.1618 48.3898 68.9291 48.1929C68.6999 47.9959 68.4099 47.8975 68.059 47.8975C67.6973 47.8975 67.4145 47.9762 67.2104 48.1338C67.0062 48.2913 66.9042 48.4972 66.9042 48.7515C66.9042 48.9914 66.9991 49.1722 67.1889 49.2939C67.3786 49.4157 67.7206 49.5321 68.2147 49.6431C68.7125 49.7541 69.1153 49.8866 69.4232 50.0405C69.7312 50.1945 69.9586 50.3807 70.1054 50.5991C70.2558 50.814 70.331 51.0771 70.331 51.3887C70.331 51.9079 70.1233 52.325 69.7079 52.6401C69.2925 52.9517 68.7536 53.1074 68.0912 53.1074C67.6257 53.1074 67.2139 53.0251 66.8559 52.8604C66.4978 52.6956 66.2167 52.4665 66.0126 52.1729C65.8121 51.8757 65.7118 51.5552 65.7118 51.2114H66.7055C66.7234 51.5444 66.8559 51.8094 67.1029 52.0063C67.3536 52.1997 67.683 52.2964 68.0912 52.2964C68.4672 52.2964 68.768 52.2212 68.9936 52.0708C69.2227 51.9168 69.3373 51.7127 69.3373 51.4585ZM20.9895 66.1074C20.2018 66.1074 19.5608 65.8496 19.0667 65.334C18.5725 64.8148 18.3254 64.1219 18.3254 63.2554V63.0728C18.3254 62.4963 18.4347 61.9824 18.6531 61.5312C18.8751 61.0765 19.183 60.722 19.5769 60.4678C19.9744 60.21 20.4041 60.0811 20.866 60.0811C21.6215 60.0811 22.2087 60.3299 22.6277 60.8276C23.0466 61.3254 23.2561 62.0379 23.2561 62.9653V63.3789H19.3191C19.3334 63.9518 19.4999 64.4155 19.8186 64.77C20.1409 65.1209 20.5491 65.2964 21.0432 65.2964C21.3941 65.2964 21.6913 65.2248 21.9348 65.0815C22.1783 64.9383 22.3914 64.7485 22.574 64.5122L23.1809 64.9849C22.6939 65.7332 21.9635 66.1074 20.9895 66.1074ZM20.866 60.8975C20.4649 60.8975 20.1283 61.0443 19.8562 61.3379C19.5841 61.6279 19.4158 62.0361 19.3513 62.5625H22.2625V62.4873C22.2338 61.9824 22.0977 61.5921 21.8543 61.3164C21.6108 61.0371 21.2813 60.8975 20.866 60.8975ZM29.8632 64.4585C29.8632 64.1899 29.7612 63.9823 29.5571 63.8354C29.3565 63.6851 29.0038 63.5562 28.4989 63.4487C27.9976 63.3413 27.5984 63.2124 27.3012 63.062C27.0076 62.9116 26.7891 62.7326 26.6459 62.5249C26.5063 62.3172 26.4364 62.0701 26.4364 61.7837C26.4364 61.3075 26.637 60.9046 27.038 60.5752C27.4426 60.2458 27.9583 60.0811 28.5849 60.0811C29.2437 60.0811 29.7773 60.2511 30.1855 60.5913C30.5973 60.9315 30.8031 61.3665 30.8031 61.8965H29.8041C29.8041 61.6243 29.6877 61.3898 29.455 61.1929C29.2258 60.9959 28.9358 60.8975 28.5849 60.8975C28.2232 60.8975 27.9404 60.9762 27.7362 61.1338C27.5321 61.2913 27.4301 61.4972 27.4301 61.7515C27.4301 61.9914 27.525 62.1722 27.7148 62.2939C27.9045 62.4157 28.2465 62.5321 28.7406 62.6431C29.2384 62.7541 29.6412 62.8866 29.9491 63.0405C30.2571 63.1945 30.4845 63.3807 30.6313 63.5991C30.7817 63.814 30.8569 64.0771 30.8569 64.3887C30.8569 64.9079 30.6492 65.325 30.2338 65.6401C29.8184 65.9517 29.2795 66.1074 28.6171 66.1074C28.1516 66.1074 27.7398 66.0251 27.3818 65.8604C27.0237 65.6956 26.7426 65.4665 26.5385 65.1729C26.338 64.8757 26.2377 64.5552 26.2377 64.2114H27.2314C27.2493 64.5444 27.3818 64.8094 27.6288 65.0063C27.8795 65.1997 28.2089 65.2964 28.6171 65.2964C28.9931 65.2964 29.2939 65.2212 29.5195 65.0708C29.7486 64.9168 29.8632 64.7127 29.8632 64.4585ZM35.4092 66C35.3519 65.8854 35.3053 65.6813 35.2695 65.3877C34.8076 65.8675 34.2562 66.1074 33.6152 66.1074C33.0423 66.1074 32.5715 65.9463 32.2026 65.624C31.8374 65.2982 31.6548 64.8864 31.6548 64.3887C31.6548 63.7835 31.884 63.3145 32.3423 62.9814C32.8042 62.6449 33.4523 62.4766 34.2866 62.4766H35.2534V62.02C35.2534 61.6727 35.1496 61.397 34.9419 61.1929C34.7342 60.9852 34.4281 60.8813 34.0234 60.8813C33.6689 60.8813 33.3717 60.9709 33.1318 61.1499C32.8919 61.3289 32.772 61.5456 32.772 61.7998H31.7729C31.7729 61.5098 31.875 61.2305 32.0791 60.9619C32.2868 60.6898 32.5661 60.4749 32.917 60.3174C33.2715 60.1598 33.66 60.0811 34.0825 60.0811C34.7521 60.0811 35.2767 60.2493 35.6562 60.5859C36.0358 60.9189 36.2327 61.3791 36.2471 61.9663V64.6411C36.2471 65.1746 36.3151 65.599 36.4512 65.9141V66H35.4092ZM33.7603 65.2427C34.0718 65.2427 34.3672 65.1621 34.6465 65.001C34.9258 64.8398 35.1281 64.6304 35.2534 64.3726V63.1802H34.4746C33.2572 63.1802 32.6484 63.5365 32.6484 64.249C32.6484 64.5605 32.7523 64.804 32.96 64.9795C33.1676 65.1549 33.4344 65.2427 33.7603 65.2427ZM41.0626 65.4253C40.6759 65.88 40.1083 66.1074 39.3599 66.1074C38.7405 66.1074 38.2678 65.9284 37.942 65.5703C37.6197 65.2087 37.4568 64.6751 37.4532 63.9697V60.1885H38.4469V63.9429C38.4469 64.8237 38.8049 65.2642 39.5211 65.2642C40.2802 65.2642 40.7851 64.9813 41.0357 64.4155V60.1885H42.0294V66H41.0841L41.0626 65.4253ZM40.2569 57.75H41.46L40.0206 59.3291H39.2203L40.2569 57.75ZM42.9723 63.0459C42.9723 62.1543 43.1836 61.4382 43.6061 60.8975C44.0286 60.3532 44.5819 60.0811 45.2658 60.0811C45.9461 60.0811 46.485 60.3138 46.8825 60.7793V57.75H47.8761V66H46.963L46.9147 65.377C46.5172 65.8639 45.964 66.1074 45.255 66.1074C44.5819 66.1074 44.0322 65.8317 43.6061 65.2803C43.1836 64.7288 42.9723 64.0091 42.9723 63.1211V63.0459ZM43.966 63.1587C43.966 63.8175 44.102 64.3332 44.3742 64.7056C44.6463 65.078 45.0223 65.2642 45.5021 65.2642C46.1323 65.2642 46.5924 64.9813 46.8825 64.4155V61.7461C46.5853 61.1982 46.1287 60.9243 45.5129 60.9243C45.0259 60.9243 44.6463 61.1123 44.3742 61.4883C44.102 61.8643 43.966 62.4211 43.966 63.1587ZM51.5046 66.1074C50.7169 66.1074 50.0759 65.8496 49.5818 65.334C49.0876 64.8148 48.8406 64.1219 48.8406 63.2554V63.0728C48.8406 62.4963 48.9498 61.9824 49.1682 61.5312C49.3902 61.0765 49.6982 60.722 50.092 60.4678C50.4895 60.21 50.9192 60.0811 51.3811 60.0811C52.1366 60.0811 52.7239 60.3299 53.1428 60.8276C53.5618 61.3254 53.7712 62.0379 53.7712 62.9653V63.3789H49.8342C49.8485 63.9518 50.015 64.4155 50.3337 64.77C50.656 65.1209 51.0642 65.2964 51.5583 65.2964C51.9093 65.2964 52.2065 65.2248 52.4499 65.0815C52.6934 64.9383 52.9065 64.7485 53.0891 64.5122L53.696 64.9849C53.2091 65.7332 52.4786 66.1074 51.5046 66.1074ZM51.3811 60.8975C50.9801 60.8975 50.6435 61.0443 50.3713 61.3379C50.0992 61.6279 49.9309 62.0361 49.8664 62.5625H52.7776V62.4873C52.7489 61.9824 52.6129 61.5921 52.3694 61.3164C52.1259 61.0371 51.7965 60.8975 51.3811 60.8975Z" fill="#666666"/>
<defs>
<filter id="filter0_d_7849_58615" x="0.923828" y="0" width="70.1523" height="38" filterUnits="userSpaceOnUse" color-interpolation-filters="sRGB">
<feFlood flood-opacity="0" result="BackgroundImageFix"/>
<feColorMatrix in="SourceAlpha" type="matrix" values="0 0 0 0 0 0 0 0 0 0 0 0 0 0 0 0 0 0 127 0" result="hardAlpha"/>
<feOffset dy="1"/>
<feGaussianBlur stdDeviation="1"/>
<feColorMatrix type="matrix" values="0 0 0 0 0 0 0 0 0 0 0 0 0 0 0 0 0 0 0.2 0"/>
<feBlend mode="normal" in2="BackgroundImageFix" result="effect1_dropShadow_7849_58615"/>
<feBlend mode="normal" in="SourceGraphic" in2="effect1_dropShadow_7849_58615" result="shape"/>
</filter>
</defs>
</svg>
