<svg width="72" height="69" viewBox="0 0 72 69" fill="none" xmlns="http://www.w3.org/2000/svg">
<g filter="url(#filter0_d_7849_58607)">
<rect x="3" y="1" width="66" height="34" rx="8" fill="#E7F3F9"/>
<circle cx="32.0625" cy="14.0625" r="4.5" stroke="#007DC5" stroke-linecap="round" stroke-linejoin="round"/>
<path d="M27.7051 12.9375H36.4216" stroke="#007DC5" stroke-linecap="round" stroke-linejoin="round"/>
<path d="M27.7051 15.1875H36.4216" stroke="#007DC5" stroke-linecap="round" stroke-linejoin="round"/>
<path fill-rule="evenodd" clip-rule="evenodd" d="M38.8412 25.6159C37.733 26.6485 36.0061 26.618 34.9351 25.547C33.864 24.4759 33.8336 22.7491 34.8662 21.6409L39.6392 16.8679C40.3403 16.1154 41.3963 15.8057 42.3928 16.0602C43.3893 16.3147 44.1674 17.0928 44.4219 18.0893C44.6764 19.0858 44.3666 20.1417 43.6142 20.8429L38.8412 25.6159Z" stroke="#007DC5" stroke-linecap="round" stroke-linejoin="round"/>
<path d="M37.25 19.25L41.228 23.228" stroke="#007DC5" stroke-linecap="round" stroke-linejoin="round"/>
</g>
<path d="M3.69631 45.1797L6.25295 51.5605L8.80959 45.1797H10.147V53H9.11574V49.9546L9.21242 46.6675L6.64504 53H5.85549L3.29348 46.6836L3.39553 49.9546V53H2.36428V45.1797H3.69631ZM13.8937 53.1074C13.1059 53.1074 12.4649 52.8496 11.9708 52.334C11.4767 51.8148 11.2296 51.1219 11.2296 50.2554V50.0728C11.2296 49.4963 11.3388 48.9824 11.5572 48.5312C11.7792 48.0765 12.0872 47.722 12.4811 47.4678C12.8785 47.21 13.3082 47.0811 13.7701 47.0811C14.5257 47.0811 15.1129 47.3299 15.5318 47.8276C15.9508 48.3254 16.1603 49.0379 16.1603 49.9653V50.3789H12.2232C12.2376 50.9518 12.4041 51.4155 12.7228 51.77C13.045 52.1209 13.4532 52.2964 13.9474 52.2964C14.2983 52.2964 14.5955 52.2248 14.839 52.0815C15.0825 51.9383 15.2955 51.7485 15.4781 51.5122L16.0851 51.9849C15.5981 52.7332 14.8676 53.1074 13.8937 53.1074ZM13.7701 47.8975C13.3691 47.8975 13.0325 48.0443 12.7604 48.3379C12.4882 48.6279 12.3199 49.0361 12.2555 49.5625H15.1666V49.4873C15.138 48.9824 15.0019 48.5921 14.7584 48.3164C14.5149 48.0371 14.1855 47.8975 13.7701 47.8975ZM16.7433 50.0459C16.7433 49.1543 16.9546 48.4382 17.3771 47.8975C17.7997 47.3532 18.3529 47.0811 19.0368 47.0811C19.7171 47.0811 20.256 47.3138 20.6535 47.7793V44.75H21.6471V53H20.7341L20.6857 52.377C20.2883 52.8639 19.735 53.1074 19.0261 53.1074C18.3529 53.1074 17.8032 52.8317 17.3771 52.2803C16.9546 51.7288 16.7433 51.0091 16.7433 50.1211V50.0459ZM17.737 50.1587C17.737 50.8175 17.8731 51.3332 18.1452 51.7056C18.4173 52.078 18.7933 52.2642 19.2731 52.2642C19.9033 52.2642 20.3635 51.9813 20.6535 51.4155V48.7461C20.3563 48.1982 19.8998 47.9243 19.2839 47.9243C18.7969 47.9243 18.4173 48.1123 18.1452 48.4883C17.8731 48.8643 17.737 49.4211 17.737 50.1587ZM23.9436 53H22.95V47.1885H23.9436V53ZM22.8694 45.647C22.8694 45.4858 22.9177 45.3498 23.0144 45.2388C23.1147 45.1278 23.2615 45.0723 23.4548 45.0723C23.6482 45.0723 23.795 45.1278 23.8953 45.2388C23.9955 45.3498 24.0457 45.4858 24.0457 45.647C24.0457 45.8081 23.9955 45.9424 23.8953 46.0498C23.795 46.1572 23.6482 46.2109 23.4548 46.2109C23.2615 46.2109 23.1147 46.1572 23.0144 46.0498C22.9177 45.9424 22.8694 45.8081 22.8694 45.647ZM27.5399 52.2964C27.8944 52.2964 28.2041 52.189 28.4691 51.9741C28.7341 51.7593 28.8809 51.4907 28.9095 51.1685H29.8495C29.8315 51.5015 29.717 51.8184 29.5057 52.1191C29.2944 52.4199 29.0116 52.6598 28.6571 52.8389C28.3062 53.0179 27.9338 53.1074 27.5399 53.1074C26.7485 53.1074 26.1183 52.8442 25.6493 52.3179C25.1838 51.7879 24.951 51.0646 24.951 50.1479V49.9814C24.951 49.4157 25.0549 48.9126 25.2625 48.4722C25.4702 48.0317 25.7674 47.6898 26.1541 47.4463C26.5444 47.2028 27.0046 47.0811 27.5345 47.0811C28.1862 47.0811 28.7269 47.2762 29.1566 47.6665C29.5899 48.0568 29.8208 48.5635 29.8495 49.1865H28.9095C28.8809 48.8105 28.7376 48.5026 28.4798 48.2627C28.2256 48.0192 27.9105 47.8975 27.5345 47.8975C27.0296 47.8975 26.6375 48.0801 26.3582 48.4453C26.0825 48.807 25.9447 49.3315 25.9447 50.019V50.207C25.9447 50.8766 26.0825 51.3923 26.3582 51.7539C26.634 52.1156 27.0278 52.2964 27.5399 52.2964ZM34.2245 53C34.1672 52.8854 34.1207 52.6813 34.0849 52.3877C33.623 52.8675 33.0715 53.1074 32.4306 53.1074C31.8577 53.1074 31.3868 52.9463 31.018 52.624C30.6528 52.2982 30.4701 51.8864 30.4701 51.3887C30.4701 50.7835 30.6993 50.3145 31.1576 49.9814C31.6196 49.6449 32.2677 49.4766 33.102 49.4766H34.0688V49.02C34.0688 48.6727 33.9649 48.397 33.7572 48.1929C33.5496 47.9852 33.2434 47.8813 32.8388 47.8813C32.4843 47.8813 32.1871 47.9709 31.9472 48.1499C31.7073 48.3289 31.5873 48.5456 31.5873 48.7998H30.5883C30.5883 48.5098 30.6904 48.2305 30.8945 47.9619C31.1021 47.6898 31.3814 47.4749 31.7323 47.3174C32.0868 47.1598 32.4753 47.0811 32.8979 47.0811C33.5675 47.0811 34.092 47.2493 34.4716 47.5859C34.8512 47.9189 35.0481 48.3791 35.0624 48.9663V51.6411C35.0624 52.1746 35.1305 52.599 35.2665 52.9141V53H34.2245ZM32.5756 52.2427C32.8871 52.2427 33.1825 52.1621 33.4618 52.001C33.7411 51.8398 33.9434 51.6304 34.0688 51.3726V50.1802H33.29C32.0725 50.1802 31.4638 50.5365 31.4638 51.249C31.4638 51.5605 31.5676 51.804 31.7753 51.9795C31.983 52.1549 32.2498 52.2427 32.5756 52.2427ZM37.2246 47.1885L37.2515 47.833C37.6776 47.3317 38.2523 47.0811 38.9756 47.0811C39.7884 47.0811 40.3416 47.3926 40.6353 48.0156C40.8286 47.7363 41.0793 47.5107 41.3872 47.3389C41.6987 47.167 42.0658 47.0811 42.4883 47.0811C43.763 47.0811 44.4111 47.756 44.4326 49.106V53H43.439V49.165C43.439 48.7497 43.3441 48.4399 43.1543 48.2358C42.9645 48.0282 42.6458 47.9243 42.1982 47.9243C41.8294 47.9243 41.5233 48.0353 41.2798 48.2573C41.0363 48.4757 40.8949 48.7712 40.8555 49.1436V53H39.8564V49.1919C39.8564 48.3468 39.4429 47.9243 38.6157 47.9243C37.964 47.9243 37.5182 48.2018 37.2783 48.7568V53H36.2847V47.1885H37.2246ZM48.0181 53.1074C47.2304 53.1074 46.5894 52.8496 46.0953 52.334C45.6012 51.8148 45.3541 51.1219 45.3541 50.2554V50.0728C45.3541 49.4963 45.4633 48.9824 45.6817 48.5312C45.9037 48.0765 46.2117 47.722 46.6055 47.4678C47.003 47.21 47.4327 47.0811 47.8946 47.0811C48.6501 47.0811 49.2374 47.3299 49.6563 47.8276C50.0753 48.3254 50.2847 49.0379 50.2847 49.9653V50.3789H46.3477C46.3621 50.9518 46.5286 51.4155 46.8472 51.77C47.1695 52.1209 47.5777 52.2964 48.0719 52.2964C48.4228 52.2964 48.72 52.2248 48.9635 52.0815C49.2069 51.9383 49.42 51.7485 49.6026 51.5122L50.2095 51.9849C49.7226 52.7332 48.9921 53.1074 48.0181 53.1074ZM47.8946 47.8975C47.4936 47.8975 47.157 48.0443 46.8848 48.3379C46.6127 48.6279 46.4444 49.0361 46.38 49.5625H49.2911V49.4873C49.2624 48.9824 49.1264 48.5921 48.8829 48.3164C48.6394 48.0371 48.31 47.8975 47.8946 47.8975ZM52.0495 47.1885L52.0817 47.9189C52.5257 47.3604 53.1058 47.0811 53.8219 47.0811C55.0501 47.0811 55.6696 47.7739 55.6803 49.1597V53H54.6867V49.1543C54.6831 48.7354 54.5864 48.4256 54.3966 48.2251C54.2104 48.0246 53.9186 47.9243 53.5212 47.9243C53.1989 47.9243 52.916 48.0103 52.6725 48.1821C52.429 48.354 52.2393 48.5796 52.1032 48.8589V53H51.1095V47.1885H52.0495ZM58.197 45.7812V47.1885H59.282V47.9565H58.197V51.5605C58.197 51.7933 58.2453 51.9688 58.342 52.0869C58.4387 52.2015 58.6034 52.2588 58.8362 52.2588C58.9508 52.2588 59.1083 52.2373 59.3088 52.1943V53C59.0474 53.0716 58.7932 53.1074 58.5461 53.1074C58.1021 53.1074 57.7673 52.9731 57.5417 52.7046C57.3162 52.436 57.2034 52.0547 57.2034 51.5605V47.9565H56.1453V47.1885H57.2034V45.7812H58.197ZM59.7469 50.0405C59.7469 49.4712 59.8579 48.9591 60.0799 48.5044C60.3055 48.0496 60.617 47.6987 61.0145 47.4517C61.4155 47.2046 61.8721 47.0811 62.3841 47.0811C63.1754 47.0811 63.8146 47.355 64.3016 47.9028C64.7921 48.4507 65.0374 49.1794 65.0374 50.0889V50.1587C65.0374 50.7244 64.9282 51.2329 64.7098 51.6841C64.4949 52.1317 64.1852 52.4808 63.7806 52.7314C63.3795 52.9821 62.9176 53.1074 62.3948 53.1074C61.6071 53.1074 60.9679 52.8335 60.4774 52.2856C59.9904 51.7378 59.7469 51.0127 59.7469 50.1104V50.0405ZM60.7459 50.1587C60.7459 50.8032 60.8945 51.3206 61.1917 51.7109C61.4925 52.1012 61.8935 52.2964 62.3948 52.2964C62.8997 52.2964 63.3008 52.0994 63.598 51.7056C63.8952 51.3081 64.0438 50.7531 64.0438 50.0405C64.0438 49.4032 63.8916 48.8875 63.5872 48.4937C63.2864 48.0962 62.8854 47.8975 62.3841 47.8975C61.8935 47.8975 61.4979 48.0926 61.1971 48.4829C60.8963 48.8732 60.7459 49.4318 60.7459 50.1587ZM69.3373 51.4585C69.3373 51.1899 69.2353 50.9823 69.0312 50.8354C68.8306 50.6851 68.4779 50.5562 67.973 50.4487C67.4717 50.3413 67.0725 50.2124 66.7753 50.062C66.4817 49.9116 66.2632 49.7326 66.12 49.5249C65.9804 49.3172 65.9105 49.0701 65.9105 48.7837C65.9105 48.3075 66.1111 47.9046 66.5121 47.5752C66.9167 47.2458 67.4324 47.0811 68.059 47.0811C68.7178 47.0811 69.2514 47.2511 69.6596 47.5913C70.0714 47.9315 70.2772 48.3665 70.2772 48.8965H69.2782C69.2782 48.6243 69.1618 48.3898 68.9291 48.1929C68.6999 47.9959 68.4099 47.8975 68.059 47.8975C67.6973 47.8975 67.4145 47.9762 67.2104 48.1338C67.0062 48.2913 66.9042 48.4972 66.9042 48.7515C66.9042 48.9914 66.9991 49.1722 67.1889 49.2939C67.3786 49.4157 67.7206 49.5321 68.2147 49.6431C68.7125 49.7541 69.1153 49.8866 69.4232 50.0405C69.7312 50.1945 69.9586 50.3807 70.1054 50.5991C70.2558 50.814 70.331 51.0771 70.331 51.3887C70.331 51.9079 70.1233 52.325 69.7079 52.6401C69.2925 52.9517 68.7536 53.1074 68.0912 53.1074C67.6257 53.1074 67.2139 53.0251 66.8559 52.8604C66.4978 52.6956 66.2167 52.4665 66.0126 52.1729C65.8121 51.8757 65.7118 51.5552 65.7118 51.2114H66.7055C66.7234 51.5444 66.8559 51.8094 67.1029 52.0063C67.3536 52.1997 67.683 52.2964 68.0912 52.2964C68.4672 52.2964 68.768 52.2212 68.9936 52.0708C69.2227 51.9168 69.3373 51.7127 69.3373 51.4585ZM17.3449 66.1074C16.5571 66.1074 15.9162 65.8496 15.4221 65.334C14.9279 64.8148 14.6808 64.1219 14.6808 63.2554V63.0728C14.6808 62.4963 14.7901 61.9824 15.0085 61.5312C15.2305 61.0765 15.5384 60.722 15.9323 60.4678C16.3298 60.21 16.7595 60.0811 17.2214 60.0811C17.9769 60.0811 18.5641 60.3299 18.9831 60.8276C19.402 61.3254 19.6115 62.0379 19.6115 62.9653V63.3789H15.6745C15.6888 63.9518 15.8553 64.4155 16.174 64.77C16.4963 65.1209 16.9045 65.2964 17.3986 65.2964C17.7495 65.2964 18.0467 65.2248 18.2902 65.0815C18.5337 64.9383 18.7468 64.7485 18.9294 64.5122L19.5363 64.9849C19.0493 65.7332 18.3189 66.1074 17.3449 66.1074ZM17.2214 60.8975C16.8203 60.8975 16.4837 61.0443 16.2116 61.3379C15.9395 61.6279 15.7712 62.0361 15.7067 62.5625H18.6179V62.4873C18.5892 61.9824 18.4531 61.5921 18.2096 61.3164C17.9662 61.0371 17.6367 60.8975 17.2214 60.8975ZM23.8201 64.4585C23.8201 64.1899 23.718 63.9823 23.5139 63.8354C23.3134 63.6851 22.9607 63.5562 22.4558 63.4487C21.9545 63.3413 21.5553 63.2124 21.2581 63.062C20.9644 62.9116 20.746 62.7326 20.6028 62.5249C20.4631 62.3172 20.3933 62.0701 20.3933 61.7837C20.3933 61.3075 20.5938 60.9046 20.9949 60.5752C21.3995 60.2458 21.9151 60.0811 22.5418 60.0811C23.2006 60.0811 23.7341 60.2511 24.1423 60.5913C24.5541 60.9315 24.76 61.3665 24.76 61.8965H23.761C23.761 61.6243 23.6446 61.3898 23.4119 61.1929C23.1827 60.9959 22.8927 60.8975 22.5418 60.8975C22.1801 60.8975 21.8972 60.9762 21.6931 61.1338C21.489 61.2913 21.387 61.4972 21.387 61.7515C21.387 61.9914 21.4819 62.1722 21.6716 62.2939C21.8614 62.4157 22.2034 62.5321 22.6975 62.6431C23.1952 62.7541 23.5981 62.8866 23.906 63.0405C24.214 63.1945 24.4413 63.3807 24.5881 63.5991C24.7385 63.814 24.8137 64.0771 24.8137 64.3887C24.8137 64.9079 24.606 65.325 24.1907 65.6401C23.7753 65.9517 23.2364 66.1074 22.574 66.1074C22.1085 66.1074 21.6967 66.0251 21.3386 65.8604C20.9806 65.6956 20.6995 65.4665 20.4954 65.1729C20.2949 64.8757 20.1946 64.5552 20.1946 64.2114H21.1882C21.2061 64.5444 21.3386 64.8094 21.5857 65.0063C21.8364 65.1997 22.1658 65.2964 22.574 65.2964C22.95 65.2964 23.2507 65.2212 23.4763 65.0708C23.7055 64.9168 23.8201 64.7127 23.8201 64.4585ZM30.6873 63.1587C30.6873 64.0431 30.485 64.7557 30.0804 65.2964C29.6758 65.8371 29.1279 66.1074 28.4369 66.1074C27.7315 66.1074 27.1764 65.8836 26.7718 65.436V68.2344H25.7782V60.1885H26.6859L26.7342 60.833C27.1388 60.3317 27.701 60.0811 28.4207 60.0811C29.119 60.0811 29.6704 60.3442 30.075 60.8706C30.4832 61.397 30.6873 62.1292 30.6873 63.0674V63.1587ZM29.6937 63.0459C29.6937 62.3906 29.554 61.8732 29.2747 61.4937C28.9954 61.1141 28.6123 60.9243 28.1253 60.9243C27.5238 60.9243 27.0726 61.1911 26.7718 61.7246V64.5015C27.069 65.0314 27.5238 65.2964 28.1361 65.2964C28.6123 65.2964 28.9901 65.1084 29.2694 64.7324C29.5523 64.3529 29.6937 63.7907 29.6937 63.0459ZM34.0365 66.1074C33.2488 66.1074 32.6078 65.8496 32.1137 65.334C31.6196 64.8148 31.3725 64.1219 31.3725 63.2554V63.0728C31.3725 62.4963 31.4817 61.9824 31.7001 61.5312C31.9221 61.0765 32.2301 60.722 32.6239 60.4678C33.0214 60.21 33.4511 60.0811 33.913 60.0811C34.6685 60.0811 35.2558 60.3299 35.6747 60.8276C36.0937 61.3254 36.3031 62.0379 36.3031 62.9653V63.3789H32.3661C32.3805 63.9518 32.547 64.4155 32.8656 64.77C33.1879 65.1209 33.5961 65.2964 34.0903 65.2964C34.4412 65.2964 34.7384 65.2248 34.9819 65.0815C35.2253 64.9383 35.4384 64.7485 35.621 64.5122L36.2279 64.9849C35.741 65.7332 35.0105 66.1074 34.0365 66.1074ZM33.913 60.8975C33.512 60.8975 33.1754 61.0443 32.9032 61.3379C32.6311 61.6279 32.4628 62.0361 32.3984 62.5625H35.3095V62.4873C35.2808 61.9824 35.1448 61.5921 34.9013 61.3164C34.6578 61.0371 34.3284 60.8975 33.913 60.8975ZM39.459 65.2964C39.8135 65.2964 40.1232 65.189 40.3882 64.9741C40.6532 64.7593 40.8 64.4907 40.8286 64.1685H41.7686C41.7507 64.5015 41.6361 64.8184 41.4248 65.1191C41.2135 65.4199 40.9307 65.6598 40.5762 65.8389C40.2253 66.0179 39.8529 66.1074 39.459 66.1074C38.6676 66.1074 38.0374 65.8442 37.5684 65.3179C37.1029 64.7879 36.8701 64.0646 36.8701 63.1479V62.9814C36.8701 62.4157 36.974 61.9126 37.1816 61.4722C37.3893 61.0317 37.6865 60.6898 38.0732 60.4463C38.4635 60.2028 38.9237 60.0811 39.4536 60.0811C40.1053 60.0811 40.646 60.2762 41.0757 60.6665C41.509 61.0568 41.7399 61.5635 41.7686 62.1865H40.8286C40.8 61.8105 40.6567 61.5026 40.3989 61.2627C40.1447 61.0192 39.8296 60.8975 39.4536 60.8975C38.9487 60.8975 38.5566 61.0801 38.2773 61.4453C38.0016 61.807 37.8638 62.3315 37.8638 63.019V63.207C37.8638 63.8766 38.0016 64.3923 38.2773 64.7539C38.5531 65.1156 38.9469 65.2964 39.459 65.2964ZM43.6353 66H42.6417V60.1885H43.6353V66ZM42.5611 58.647C42.5611 58.4858 42.6095 58.3498 42.7061 58.2388C42.8064 58.1278 42.9532 58.0723 43.1466 58.0723C43.3399 58.0723 43.4867 58.1278 43.587 58.2388C43.6873 58.3498 43.7374 58.4858 43.7374 58.647C43.7374 58.8081 43.6873 58.9424 43.587 59.0498C43.4867 59.1572 43.3399 59.2109 43.1466 59.2109C42.9532 59.2109 42.8064 59.1572 42.7061 59.0498C42.6095 58.9424 42.5611 58.8081 42.5611 58.647ZM48.4884 66C48.4311 65.8854 48.3846 65.6813 48.3488 65.3877C47.8869 65.8675 47.3354 66.1074 46.6945 66.1074C46.1216 66.1074 45.6507 65.9463 45.2819 65.624C44.9167 65.2982 44.734 64.8864 44.734 64.3887C44.734 63.7835 44.9632 63.3145 45.4215 62.9814C45.8835 62.6449 46.5316 62.4766 47.3659 62.4766H48.3327V62.02C48.3327 61.6727 48.2288 61.397 48.0212 61.1929C47.8135 60.9852 47.5073 60.8813 47.1027 60.8813C46.7482 60.8813 46.451 60.9709 46.2111 61.1499C45.9712 61.3289 45.8512 61.5456 45.8512 61.7998H44.8522C44.8522 61.5098 44.9543 61.2305 45.1584 60.9619C45.366 60.6898 45.6453 60.4749 45.9963 60.3174C46.3507 60.1598 46.7393 60.0811 47.1618 60.0811C47.8314 60.0811 48.356 60.2493 48.7355 60.5859C49.1151 60.9189 49.312 61.3791 49.3263 61.9663V64.6411C49.3263 65.1746 49.3944 65.599 49.5304 65.9141V66H48.4884ZM46.8395 65.2427C47.151 65.2427 47.4464 65.1621 47.7257 65.001C48.005 64.8398 48.2074 64.6304 48.3327 64.3726V63.1802H47.5539C46.3364 63.1802 45.7277 63.5365 45.7277 64.249C45.7277 64.5605 45.8315 64.804 46.0392 64.9795C46.2469 65.1549 46.5137 65.2427 46.8395 65.2427ZM51.6335 66H50.6399V60.1885H51.6335V66ZM50.5593 58.647C50.5593 58.4858 50.6077 58.3498 50.7043 58.2388C50.8046 58.1278 50.9514 58.0723 51.1448 58.0723C51.3381 58.0723 51.4849 58.1278 51.5852 58.2388C51.6855 58.3498 51.7356 58.4858 51.7356 58.647C51.7356 58.8081 51.6855 58.9424 51.5852 59.0498C51.4849 59.1572 51.3381 59.2109 51.1448 59.2109C50.9514 59.2109 50.8046 59.1572 50.7043 59.0498C50.6077 58.9424 50.5593 58.8081 50.5593 58.647ZM56.2825 64.4585C56.2825 64.1899 56.1805 63.9823 55.9764 63.8354C55.7759 63.6851 55.4232 63.5562 54.9183 63.4487C54.417 63.3413 54.0177 63.2124 53.7205 63.062C53.4269 62.9116 53.2085 62.7326 53.0653 62.5249C52.9256 62.3172 52.8558 62.0701 52.8558 61.7837C52.8558 61.3075 53.0563 60.9046 53.4573 60.5752C53.862 60.2458 54.3776 60.0811 55.0042 60.0811C55.6631 60.0811 56.1966 60.2511 56.6048 60.5913C57.0166 60.9315 57.2225 61.3665 57.2225 61.8965H56.2235C56.2235 61.6243 56.1071 61.3898 55.8743 61.1929C55.6452 60.9959 55.3551 60.8975 55.0042 60.8975C54.6426 60.8975 54.3597 60.9762 54.1556 61.1338C53.9515 61.2913 53.8494 61.4972 53.8494 61.7515C53.8494 61.9914 53.9443 62.1722 54.1341 62.2939C54.3239 62.4157 54.6658 62.5321 55.16 62.6431C55.6577 62.7541 56.0605 62.8866 56.3685 63.0405C56.6764 63.1945 56.9038 63.3807 57.0506 63.5991C57.201 63.814 57.2762 64.0771 57.2762 64.3887C57.2762 64.9079 57.0685 65.325 56.6531 65.6401C56.2378 65.9517 55.6989 66.1074 55.0364 66.1074C54.571 66.1074 54.1592 66.0251 53.8011 65.8604C53.443 65.6956 53.1619 65.4665 52.9578 65.1729C52.7573 64.8757 52.6571 64.5552 52.6571 64.2114H53.6507C53.6686 64.5444 53.8011 64.8094 54.0482 65.0063C54.2988 65.1997 54.6282 65.2964 55.0364 65.2964C55.4124 65.2964 55.7132 65.2212 55.9388 65.0708C56.168 64.9168 56.2825 64.7127 56.2825 64.4585Z" fill="#666666"/>
<defs>
<filter id="filter0_d_7849_58607" x="1" y="0" width="70" height="38" filterUnits="userSpaceOnUse" color-interpolation-filters="sRGB">
<feFlood flood-opacity="0" result="BackgroundImageFix"/>
<feColorMatrix in="SourceAlpha" type="matrix" values="0 0 0 0 0 0 0 0 0 0 0 0 0 0 0 0 0 0 127 0" result="hardAlpha"/>
<feOffset dy="1"/>
<feGaussianBlur stdDeviation="1"/>
<feColorMatrix type="matrix" values="0 0 0 0 0 0 0 0 0 0 0 0 0 0 0 0 0 0 0.2 0"/>
<feBlend mode="normal" in2="BackgroundImageFix" result="effect1_dropShadow_7849_58607"/>
<feBlend mode="normal" in="SourceGraphic" in2="effect1_dropShadow_7849_58607" result="shape"/>
</filter>
</defs>
</svg>
