<svg width="72" height="69" viewBox="0 0 72 69" fill="none" xmlns="http://www.w3.org/2000/svg">
<g filter="url(#filter0_d_7849_58600)">
<rect x="3" y="1" width="66" height="34" rx="8" fill="#E7F3F9"/>
<path opacity="0.5" d="M38.7149 16.4251V16.9251H39.2149H41.9578V20.7226H39.2149H38.7149V21.2226V23.9578H34.9299V21.2226V20.7226H34.4299H31.6875V16.9251H34.4299H34.9299V16.4251V13.6875H38.7149V16.4251Z" stroke="#E7F3F9"/>
<path d="M27.5 9.5H44.5V26.5H27.5V9.5Z" stroke="#007DC5"/>
<path d="M37.9281 15.5601V16.0601H38.4281H41.2241V19.9359H38.4281H37.9281V20.4359V23.2241H34.0649V20.4359V19.9359H33.5649H30.7695V16.0601H33.5649H34.0649V15.5601V12.7695H37.9281V15.5601Z" stroke="#007DC5"/>
</g>
<path d="M25.3508 53H24.3142L20.3772 46.9736V53H19.3406V45.1797H20.3772L24.325 51.2329V45.1797H25.3508V53ZM26.4334 50.0405C26.4334 49.4712 26.5444 48.9591 26.7664 48.5044C26.992 48.0496 27.3036 47.6987 27.701 47.4517C28.1021 47.2046 28.5586 47.0811 29.0706 47.0811C29.862 47.0811 30.5011 47.355 30.9881 47.9028C31.4787 48.4507 31.724 49.1794 31.724 50.0889V50.1587C31.724 50.7244 31.6148 51.2329 31.3963 51.6841C31.1815 52.1317 30.8718 52.4808 30.4671 52.7314C30.0661 52.9821 29.6042 53.1074 29.0814 53.1074C28.2936 53.1074 27.6545 52.8335 27.1639 52.2856C26.6769 51.7378 26.4334 51.0127 26.4334 50.1104V50.0405ZM27.4325 50.1587C27.4325 50.8032 27.5811 51.3206 27.8783 51.7109C28.179 52.1012 28.5801 52.2964 29.0814 52.2964C29.5863 52.2964 29.9873 52.0994 30.2845 51.7056C30.5817 51.3081 30.7303 50.7531 30.7303 50.0405C30.7303 49.4032 30.5781 48.8875 30.2738 48.4937C29.973 48.0962 29.5719 47.8975 29.0706 47.8975C28.5801 47.8975 28.1844 48.0926 27.8836 48.4829C27.5829 48.8732 27.4325 49.4318 27.4325 50.1587ZM36.0238 51.4585C36.0238 51.1899 35.9218 50.9823 35.7177 50.8354C35.5172 50.6851 35.1645 50.5562 34.6596 50.4487C34.1583 50.3413 33.759 50.2124 33.4618 50.062C33.1682 49.9116 32.9498 49.7326 32.8066 49.5249C32.6669 49.3172 32.5971 49.0701 32.5971 48.7837C32.5971 48.3075 32.7976 47.9046 33.1987 47.5752C33.6033 47.2458 34.1189 47.0811 34.7455 47.0811C35.4044 47.0811 35.9379 47.2511 36.3461 47.5913C36.7579 47.9315 36.9638 48.3665 36.9638 48.8965H35.9648C35.9648 48.6243 35.8484 48.3898 35.6156 48.1929C35.3865 47.9959 35.0964 47.8975 34.7455 47.8975C34.3839 47.8975 34.101 47.9762 33.8969 48.1338C33.6928 48.2913 33.5907 48.4972 33.5907 48.7515C33.5907 48.9914 33.6856 49.1722 33.8754 49.2939C34.0652 49.4157 34.4071 49.5321 34.9013 49.6431C35.399 49.7541 35.8018 49.8866 36.1098 50.0405C36.4177 50.1945 36.6451 50.3807 36.7919 50.5991C36.9423 50.814 37.0175 51.0771 37.0175 51.3887C37.0175 51.9079 36.8098 52.325 36.3945 52.6401C35.9791 52.9517 35.4402 53.1074 34.7778 53.1074C34.3123 53.1074 33.9005 53.0251 33.5424 52.8604C33.1843 52.6956 32.9032 52.4665 32.6991 52.1729C32.4986 51.8757 32.3984 51.5552 32.3984 51.2114H33.392C33.4099 51.5444 33.5424 51.8094 33.7895 52.0063C34.0401 52.1997 34.3696 52.2964 34.7778 52.2964C35.1537 52.2964 35.4545 52.2212 35.6801 52.0708C35.9093 51.9168 36.0238 51.7127 36.0238 51.4585ZM41.3657 51.4585C41.3657 51.1899 41.2637 50.9823 41.0596 50.8354C40.859 50.6851 40.5063 50.5562 40.0015 50.4487C39.5002 50.3413 39.1009 50.2124 38.8037 50.062C38.5101 49.9116 38.2917 49.7326 38.1484 49.5249C38.0088 49.3172 37.939 49.0701 37.939 48.7837C37.939 48.3075 38.1395 47.9046 38.5405 47.5752C38.9451 47.2458 39.4608 47.0811 40.0874 47.0811C40.7463 47.0811 41.2798 47.2511 41.688 47.5913C42.0998 47.9315 42.3057 48.3665 42.3057 48.8965H41.3066C41.3066 48.6243 41.1903 48.3898 40.9575 48.1929C40.7284 47.9959 40.4383 47.8975 40.0874 47.8975C39.7257 47.8975 39.4429 47.9762 39.2388 48.1338C39.0347 48.2913 38.9326 48.4972 38.9326 48.7515C38.9326 48.9914 39.0275 49.1722 39.2173 49.2939C39.4071 49.4157 39.749 49.5321 40.2432 49.6431C40.7409 49.7541 41.1437 49.8866 41.4517 50.0405C41.7596 50.1945 41.987 50.3807 42.1338 50.5991C42.2842 50.814 42.3594 51.0771 42.3594 51.3887C42.3594 51.9079 42.1517 52.325 41.7363 52.6401C41.321 52.9517 40.7821 53.1074 40.1196 53.1074C39.6541 53.1074 39.2424 53.0251 38.8843 52.8604C38.5262 52.6956 38.2451 52.4665 38.041 52.1729C37.8405 51.8757 37.7402 51.5552 37.7402 51.2114H38.7339C38.7518 51.5444 38.8843 51.8094 39.1313 52.0063C39.382 52.1997 39.7114 52.2964 40.1196 52.2964C40.4956 52.2964 40.7964 52.2212 41.022 52.0708C41.2511 51.9168 41.3657 51.7127 41.3657 51.4585ZM46.9117 53C46.8544 52.8854 46.8079 52.6813 46.772 52.3877C46.3101 52.8675 45.7587 53.1074 45.1178 53.1074C44.5448 53.1074 44.074 52.9463 43.7052 52.624C43.3399 52.2982 43.1573 51.8864 43.1573 51.3887C43.1573 50.7835 43.3865 50.3145 43.8448 49.9814C44.3067 49.6449 44.9548 49.4766 45.7891 49.4766H46.7559V49.02C46.7559 48.6727 46.6521 48.397 46.4444 48.1929C46.2367 47.9852 45.9306 47.8813 45.526 47.8813C45.1715 47.8813 44.8743 47.9709 44.6344 48.1499C44.3944 48.3289 44.2745 48.5456 44.2745 48.7998H43.2755C43.2755 48.5098 43.3775 48.2305 43.5816 47.9619C43.7893 47.6898 44.0686 47.4749 44.4195 47.3174C44.774 47.1598 45.1625 47.0811 45.585 47.0811C46.2546 47.0811 46.7792 47.2493 47.1588 47.5859C47.5383 47.9189 47.7353 48.3791 47.7496 48.9663V51.6411C47.7496 52.1746 47.8176 52.599 47.9537 52.9141V53H46.9117ZM45.2628 52.2427C45.5743 52.2427 45.8697 52.1621 46.149 52.001C46.4283 51.8398 46.6306 51.6304 46.7559 51.3726V50.1802H45.9771C44.7597 50.1802 44.151 50.5365 44.151 51.249C44.151 51.5605 44.2548 51.804 44.4625 51.9795C44.6702 52.1549 44.9369 52.2427 45.2628 52.2427ZM52.361 51.4585C52.361 51.1899 52.2589 50.9823 52.0548 50.8354C51.8543 50.6851 51.5016 50.5562 50.9967 50.4487C50.4954 50.3413 50.0962 50.2124 49.799 50.062C49.5054 49.9116 49.2869 49.7326 49.1437 49.5249C49.0041 49.3172 48.9342 49.0701 48.9342 48.7837C48.9342 48.3075 49.1348 47.9046 49.5358 47.5752C49.9404 47.2458 50.456 47.0811 51.0827 47.0811C51.7415 47.0811 52.2751 47.2511 52.6833 47.5913C53.095 47.9315 53.3009 48.3665 53.3009 48.8965H52.3019C52.3019 48.6243 52.1855 48.3898 51.9528 48.1929C51.7236 47.9959 51.4336 47.8975 51.0827 47.8975C50.721 47.8975 50.4381 47.9762 50.234 48.1338C50.0299 48.2913 49.9279 48.4972 49.9279 48.7515C49.9279 48.9914 50.0228 49.1722 50.2126 49.2939C50.4023 49.4157 50.7443 49.5321 51.2384 49.6431C51.7362 49.7541 52.139 49.8866 52.4469 50.0405C52.7549 50.1945 52.9823 50.3807 53.1291 50.5991C53.2795 50.814 53.3546 51.0771 53.3546 51.3887C53.3546 51.9079 53.147 52.325 52.7316 52.6401C52.3162 52.9517 51.7773 53.1074 51.1149 53.1074C50.6494 53.1074 50.2376 53.0251 49.8796 52.8604C49.5215 52.6956 49.2404 52.4665 49.0363 52.1729C48.8358 51.8757 48.7355 51.5552 48.7355 51.2114H49.7292C49.7471 51.5444 49.8796 51.8094 50.1266 52.0063C50.3773 52.1997 50.7067 52.2964 51.1149 52.2964C51.4909 52.2964 51.7917 52.2212 52.0172 52.0708C52.2464 51.9168 52.361 51.7127 52.361 51.4585ZM20.18 60.1885L20.2068 60.833C20.6329 60.3317 21.2077 60.0811 21.931 60.0811C22.7438 60.0811 23.297 60.3926 23.5906 61.0156C23.784 60.7363 24.0346 60.5107 24.3426 60.3389C24.6541 60.167 25.0211 60.0811 25.4437 60.0811C26.7184 60.0811 27.3665 60.756 27.388 62.106V66H26.3943V62.165C26.3943 61.7497 26.2994 61.4399 26.1097 61.2358C25.9199 61.0282 25.6012 60.9243 25.1536 60.9243C24.7848 60.9243 24.4786 61.0353 24.2352 61.2573C23.9917 61.4757 23.8502 61.7712 23.8108 62.1436V66H22.8118V62.1919C22.8118 61.3468 22.3982 60.9243 21.5711 60.9243C20.9194 60.9243 20.4736 61.2018 20.2337 61.7568V66H19.24V60.1885H20.18ZM32.1498 66C32.0925 65.8854 32.0459 65.6813 32.0101 65.3877C31.5482 65.8675 30.9968 66.1074 30.3558 66.1074C29.7829 66.1074 29.3121 65.9463 28.9432 65.624C28.578 65.2982 28.3954 64.8864 28.3954 64.3887C28.3954 63.7835 28.6246 63.3145 29.0829 62.9814C29.5448 62.6449 30.1929 62.4766 31.0272 62.4766H31.994V62.02C31.994 61.6727 31.8902 61.397 31.6825 61.1929C31.4748 60.9852 31.1687 60.8813 30.764 60.8813C30.4096 60.8813 30.1124 60.9709 29.8724 61.1499C29.6325 61.3289 29.5126 61.5456 29.5126 61.7998H28.5136C28.5136 61.5098 28.6156 61.2305 28.8197 60.9619C29.0274 60.6898 29.3067 60.4749 29.6576 60.3174C30.0121 60.1598 30.4006 60.0811 30.8231 60.0811C31.4927 60.0811 32.0173 60.2493 32.3969 60.5859C32.7764 60.9189 32.9734 61.3791 32.9877 61.9663V64.6411C32.9877 65.1746 33.0557 65.599 33.1918 65.9141V66H32.1498ZM30.5009 65.2427C30.8124 65.2427 31.1078 65.1621 31.3871 65.001C31.6664 64.8398 31.8687 64.6304 31.994 64.3726V63.1802H31.2152C29.9978 63.1802 29.389 63.5365 29.389 64.249C29.389 64.5605 29.4929 64.804 29.7006 64.9795C29.9082 65.1549 30.175 65.2427 30.5009 65.2427ZM37.0244 61.0801C36.874 61.055 36.7111 61.0425 36.5356 61.0425C35.8839 61.0425 35.4417 61.32 35.2089 61.875V66H34.2153V60.1885H35.1821L35.1982 60.8599C35.5241 60.3407 35.986 60.0811 36.5839 60.0811C36.7773 60.0811 36.9241 60.1061 37.0244 60.1562V61.0801ZM39.8365 65.2964C40.191 65.2964 40.5007 65.189 40.7657 64.9741C41.0306 64.7593 41.1774 64.4907 41.2061 64.1685H42.146C42.1281 64.5015 42.0135 64.8184 41.8023 65.1191C41.591 65.4199 41.3081 65.6598 40.9537 65.8389C40.6027 66.0179 40.2303 66.1074 39.8365 66.1074C39.0451 66.1074 38.4149 65.8442 37.9458 65.3179C37.4803 64.7879 37.2476 64.0646 37.2476 63.1479V62.9814C37.2476 62.4157 37.3514 61.9126 37.5591 61.4722C37.7668 61.0317 38.064 60.6898 38.4507 60.4463C38.841 60.2028 39.3011 60.0811 39.8311 60.0811C40.4828 60.0811 41.0235 60.2762 41.4532 60.6665C41.8864 61.0568 42.1174 61.5635 42.146 62.1865H41.2061C41.1774 61.8105 41.0342 61.5026 40.7764 61.2627C40.5222 61.0192 40.2071 60.8975 39.8311 60.8975C39.3262 60.8975 38.9341 61.0801 38.6548 61.4453C38.3791 61.807 38.2412 62.3315 38.2412 63.019V63.207C38.2412 63.8766 38.3791 64.3923 38.6548 64.7539C38.9305 65.1156 39.3244 65.2964 39.8365 65.2964ZM46.5211 66C46.4638 65.8854 46.4173 65.6813 46.3815 65.3877C45.9196 65.8675 45.3681 66.1074 44.7272 66.1074C44.1543 66.1074 43.6834 65.9463 43.3146 65.624C42.9493 65.2982 42.7667 64.8864 42.7667 64.3887C42.7667 63.7835 42.9959 63.3145 43.4542 62.9814C43.9161 62.6449 44.5642 62.4766 45.3986 62.4766H46.3654V62.02C46.3654 61.6727 46.2615 61.397 46.0538 61.1929C45.8461 60.9852 45.54 60.8813 45.1354 60.8813C44.7809 60.8813 44.4837 60.9709 44.2438 61.1499C44.0039 61.3289 43.8839 61.5456 43.8839 61.7998H42.8849C42.8849 61.5098 42.9869 61.2305 43.191 60.9619C43.3987 60.6898 43.678 60.4749 44.0289 60.3174C44.3834 60.1598 44.7719 60.0811 45.1945 60.0811C45.8641 60.0811 46.3886 60.2493 46.7682 60.5859C47.1477 60.9189 47.3447 61.3791 47.359 61.9663V64.6411C47.359 65.1746 47.427 65.599 47.5631 65.9141V66H46.5211ZM44.8722 65.2427C45.1837 65.2427 45.4791 65.1621 45.7584 65.001C46.0377 64.8398 46.24 64.6304 46.3654 64.3726V63.1802H45.5865C44.3691 63.1802 43.7604 63.5365 43.7604 64.249C43.7604 64.5605 43.8642 64.804 44.0719 64.9795C44.2796 65.1549 44.5463 65.2427 44.8722 65.2427ZM51.9704 64.4585C51.9704 64.1899 51.8684 63.9823 51.6643 63.8354C51.4637 63.6851 51.111 63.5562 50.6062 63.4487C50.1049 63.3413 49.7056 63.2124 49.4084 63.062C49.1148 62.9116 48.8964 62.7326 48.7531 62.5249C48.6135 62.3172 48.5437 62.0701 48.5437 61.7837C48.5437 61.3075 48.7442 60.9046 49.1452 60.5752C49.5498 60.2458 50.0655 60.0811 50.6921 60.0811C51.3509 60.0811 51.8845 60.2511 52.2927 60.5913C52.7045 60.9315 52.9104 61.3665 52.9104 61.8965H51.9113C51.9113 61.6243 51.795 61.3898 51.5622 61.1929C51.333 60.9959 51.043 60.8975 50.6921 60.8975C50.3304 60.8975 50.0476 60.9762 49.8435 61.1338C49.6394 61.2913 49.5373 61.4972 49.5373 61.7515C49.5373 61.9914 49.6322 62.1722 49.822 62.2939C50.0118 62.4157 50.3537 62.5321 50.8479 62.6431C51.3456 62.7541 51.7484 62.8866 52.0564 63.0405C52.3643 63.1945 52.5917 63.3807 52.7385 63.5991C52.8889 63.814 52.9641 64.0771 52.9641 64.3887C52.9641 64.9079 52.7564 65.325 52.341 65.6401C51.9257 65.9517 51.3868 66.1074 50.7243 66.1074C50.2588 66.1074 49.847 66.0251 49.489 65.8604C49.1309 65.6956 48.8498 65.4665 48.6457 65.1729C48.4452 64.8757 48.3449 64.5552 48.3449 64.2114H49.3386C49.3565 64.5444 49.489 64.8094 49.736 65.0063C49.9867 65.1997 50.3161 65.2964 50.7243 65.2964C51.1003 65.2964 51.4011 65.2212 51.6267 65.0708C51.8558 64.9168 51.9704 64.7127 51.9704 64.4585Z" fill="#666666"/>
<defs>
<filter id="filter0_d_7849_58600" x="1" y="0" width="70" height="38" filterUnits="userSpaceOnUse" color-interpolation-filters="sRGB">
<feFlood flood-opacity="0" result="BackgroundImageFix"/>
<feColorMatrix in="SourceAlpha" type="matrix" values="0 0 0 0 0 0 0 0 0 0 0 0 0 0 0 0 0 0 127 0" result="hardAlpha"/>
<feOffset dy="1"/>
<feGaussianBlur stdDeviation="1"/>
<feColorMatrix type="matrix" values="0 0 0 0 0 0 0 0 0 0 0 0 0 0 0 0 0 0 0.2 0"/>
<feBlend mode="normal" in2="BackgroundImageFix" result="effect1_dropShadow_7849_58600"/>
<feBlend mode="normal" in="SourceGraphic" in2="effect1_dropShadow_7849_58600" result="shape"/>
</filter>
</defs>
</svg>
