<svg width="72" height="69" viewBox="0 0 72 69" fill="none" xmlns="http://www.w3.org/2000/svg">
<g filter="url(#filter0_d_7849_58596)">
<rect x="3" y="1" width="66" height="34" rx="8" fill="#FDE9EA"/>
<path d="M37.0156 17.4258L35.9371 18.5043C35.5961 18.8455 35.5452 19.3807 35.8158 19.7801C36.0863 20.1795 36.6022 20.3308 37.0456 20.1408L38.5771 19.4838C39.0203 19.2946 39.5356 19.4461 39.8057 19.8453C40.0759 20.2444 40.0252 20.779 39.6848 21.1203L38.6071 22.201" stroke="#ED1D24" stroke-linecap="round" stroke-linejoin="round"/>
<path d="M36.2205 18.2186L35.8223 17.8203" stroke="#ED1D24" stroke-linecap="round" stroke-linejoin="round"/>
<path d="M39.8006 21.7998L39.4023 21.4023" stroke="#ED1D24" stroke-linecap="round" stroke-linejoin="round"/>
<path d="M30.138 14.7054L29.7285 17.6214C29.727 17.9216 29.8455 18.21 30.0578 18.4224L37.1828 25.5474C37.3938 25.7585 37.68 25.8771 37.9785 25.8771C38.277 25.8771 38.5633 25.7585 38.7743 25.5474L43.5465 20.7766C43.9857 20.3373 43.9857 19.6252 43.5465 19.1859L36.3293 11.9664C36.1111 11.7481 35.8128 11.629 35.5043 11.6371L32.6258 12.0931" stroke="#ED1D24" stroke-linecap="round" stroke-linejoin="round"/>
<circle cx="33.332" cy="15.332" r="1.125" stroke="#ED1D24" stroke-linecap="round" stroke-linejoin="round"/>
<path d="M32.5365 14.5365L28.125 10.125" stroke="#ED1D24" stroke-linecap="round" stroke-linejoin="round"/>
</g>
<path d="M25.7429 49.3423C25.7429 50.1086 25.614 50.7782 25.3562 51.3511C25.0984 51.9204 24.7332 52.3555 24.2605 52.6562C23.7879 52.957 23.2364 53.1074 22.6062 53.1074C21.9903 53.1074 21.4443 52.957 20.968 52.6562C20.4918 52.3519 20.1212 51.9204 19.8562 51.3618C19.5948 50.7996 19.4605 50.1497 19.4534 49.4121V48.8481C19.4534 48.0962 19.5841 47.432 19.8455 46.8555C20.1069 46.279 20.4757 45.8385 20.9519 45.5342C21.4317 45.2262 21.9796 45.0723 22.5955 45.0723C23.2221 45.0723 23.7735 45.2244 24.2498 45.5288C24.7296 45.8296 25.0984 46.2682 25.3562 46.8447C25.614 47.4176 25.7429 48.0854 25.7429 48.8481V49.3423ZM24.7171 48.8374C24.7171 47.91 24.5309 47.1992 24.1585 46.7051C23.7861 46.2074 23.2651 45.9585 22.5955 45.9585C21.9438 45.9585 21.4299 46.2074 21.054 46.7051C20.6816 47.1992 20.49 47.8867 20.4793 48.7676V49.3423C20.4793 50.241 20.6672 50.9482 21.0432 51.4639C21.4228 51.9759 21.9438 52.2319 22.6062 52.2319C23.2722 52.2319 23.7879 51.9902 24.1531 51.5068C24.5183 51.0199 24.7063 50.3234 24.7171 49.4175V48.8374ZM27.2928 53V47.9565H26.3744V47.1885H27.2928V46.5923C27.2928 45.9692 27.4593 45.4876 27.7923 45.1475C28.1253 44.8073 28.5962 44.6372 29.2049 44.6372C29.4341 44.6372 29.6615 44.6676 29.8871 44.7285L29.8333 45.5342C29.665 45.502 29.486 45.4858 29.2962 45.4858C28.974 45.4858 28.7251 45.5807 28.5496 45.7705C28.3742 45.9567 28.2865 46.2253 28.2865 46.5762V47.1885H29.5272V47.9565H28.2865V53H27.2928ZM32.581 53.1074C31.7932 53.1074 31.1523 52.8496 30.6581 52.334C30.164 51.8148 29.9169 51.1219 29.9169 50.2554V50.0728C29.9169 49.4963 30.0261 48.9824 30.2446 48.5312C30.4666 48.0765 30.7745 47.722 31.1684 47.4678C31.5658 47.21 31.9955 47.0811 32.4574 47.0811C33.213 47.0811 33.8002 47.3299 34.2192 47.8276C34.6381 48.3254 34.8476 49.0379 34.8476 49.9653V50.3789H30.9106C30.9249 50.9518 31.0914 51.4155 31.4101 51.77C31.7323 52.1209 32.1405 52.2964 32.6347 52.2964C32.9856 52.2964 33.2828 52.2248 33.5263 52.0815C33.7698 51.9383 33.9828 51.7485 34.1654 51.5122L34.7724 51.9849C34.2854 52.7332 33.5549 53.1074 32.581 53.1074ZM32.4574 47.8975C32.0564 47.8975 31.7198 48.0443 31.4477 48.3379C31.1755 48.6279 31.0072 49.0361 30.9428 49.5625H33.8539V49.4873C33.8253 48.9824 33.6892 48.5921 33.4457 48.3164C33.2022 48.0371 32.8728 47.8975 32.4574 47.8975ZM38.4814 48.0801C38.3311 48.055 38.1681 48.0425 37.9927 48.0425C37.341 48.0425 36.8988 48.32 36.666 48.875V53H35.6724V47.1885H36.6392L36.6553 47.8599C36.9811 47.3407 37.443 47.0811 38.041 47.0811C38.2344 47.0811 38.3812 47.1061 38.4814 47.1562V48.0801ZM40.6866 45.7812V47.1885H41.7716V47.9565H40.6866V51.5605C40.6866 51.7933 40.7349 51.9688 40.8316 52.0869C40.9283 52.2015 41.093 52.2588 41.3258 52.2588C41.4403 52.2588 41.5979 52.2373 41.7984 52.1943V53C41.537 53.0716 41.2828 53.1074 41.0357 53.1074C40.5917 53.1074 40.2569 52.9731 40.0313 52.7046C39.8057 52.436 39.6929 52.0547 39.6929 51.5605V47.9565H38.6348V47.1885H39.6929V45.7812H40.6866ZM46.195 53C46.1377 52.8854 46.0911 52.6813 46.0553 52.3877C45.5934 52.8675 45.042 53.1074 44.401 53.1074C43.8281 53.1074 43.3573 52.9463 42.9884 52.624C42.6232 52.2982 42.4406 51.8864 42.4406 51.3887C42.4406 50.7835 42.6698 50.3145 43.1281 49.9814C43.59 49.6449 44.2381 49.4766 45.0724 49.4766H46.0392V49.02C46.0392 48.6727 45.9354 48.397 45.7277 48.1929C45.52 47.9852 45.2139 47.8813 44.8092 47.8813C44.4547 47.8813 44.1575 47.9709 43.9176 48.1499C43.6777 48.3289 43.5578 48.5456 43.5578 48.7998H42.5588C42.5588 48.5098 42.6608 48.2305 42.8649 47.9619C43.0726 47.6898 43.3519 47.4749 43.7028 47.3174C44.0573 47.1598 44.4458 47.0811 44.8683 47.0811C45.5379 47.0811 46.0625 47.2493 46.4421 47.5859C46.8216 47.9189 47.0185 48.3791 47.0329 48.9663V51.6411C47.0329 52.1746 47.1009 52.599 47.237 52.9141V53H46.195ZM44.5461 52.2427C44.8576 52.2427 45.153 52.1621 45.4323 52.001C45.7116 51.8398 45.9139 51.6304 46.0392 51.3726V50.1802H45.2604C44.043 50.1802 43.4342 50.5365 43.4342 51.249C43.4342 51.5605 43.5381 51.804 43.7458 51.9795C43.9534 52.1549 44.2202 52.2427 44.5461 52.2427ZM51.6443 51.4585C51.6443 51.1899 51.5422 50.9823 51.3381 50.8354C51.1376 50.6851 50.7849 50.5562 50.28 50.4487C49.7787 50.3413 49.3795 50.2124 49.0823 50.062C48.7886 49.9116 48.5702 49.7326 48.427 49.5249C48.2873 49.3172 48.2175 49.0701 48.2175 48.7837C48.2175 48.3075 48.418 47.9046 48.8191 47.5752C49.2237 47.2458 49.7393 47.0811 50.366 47.0811C51.0248 47.0811 51.5583 47.2511 51.9665 47.5913C52.3783 47.9315 52.5842 48.3665 52.5842 48.8965H51.5852C51.5852 48.6243 51.4688 48.3898 51.2361 48.1929C51.0069 47.9959 50.7169 47.8975 50.366 47.8975C50.0043 47.8975 49.7214 47.9762 49.5173 48.1338C49.3132 48.2913 49.2112 48.4972 49.2112 48.7515C49.2112 48.9914 49.3061 49.1722 49.4958 49.2939C49.6856 49.4157 50.0276 49.5321 50.5217 49.6431C51.0194 49.7541 51.4223 49.8866 51.7302 50.0405C52.0382 50.1945 52.2655 50.3807 52.4123 50.5991C52.5627 50.814 52.6379 51.0771 52.6379 51.3887C52.6379 51.9079 52.4302 52.325 52.0149 52.6401C51.5995 52.9517 51.0606 53.1074 50.3982 53.1074C49.9327 53.1074 49.5209 53.0251 49.1628 52.8604C48.8048 52.6956 48.5237 52.4665 48.3196 52.1729C48.1191 51.8757 48.0188 51.5552 48.0188 51.2114H49.0124C49.0303 51.5444 49.1628 51.8094 49.4099 52.0063C49.6606 52.1997 49.99 52.2964 50.3982 52.2964C50.7742 52.2964 51.0749 52.2212 51.3005 52.0708C51.5297 51.9168 51.6443 51.7127 51.6443 51.4585Z" fill="#666666"/>
<defs>
<filter id="filter0_d_7849_58596" x="1" y="0" width="70" height="38" filterUnits="userSpaceOnUse" color-interpolation-filters="sRGB">
<feFlood flood-opacity="0" result="BackgroundImageFix"/>
<feColorMatrix in="SourceAlpha" type="matrix" values="0 0 0 0 0 0 0 0 0 0 0 0 0 0 0 0 0 0 127 0" result="hardAlpha"/>
<feOffset dy="1"/>
<feGaussianBlur stdDeviation="1"/>
<feColorMatrix type="matrix" values="0 0 0 0 0 0 0 0 0 0 0 0 0 0 0 0 0 0 0.2 0"/>
<feBlend mode="normal" in2="BackgroundImageFix" result="effect1_dropShadow_7849_58596"/>
<feBlend mode="normal" in="SourceGraphic" in2="effect1_dropShadow_7849_58596" result="shape"/>
</filter>
</defs>
</svg>
