<svg width="15" height="14" viewBox="0 0 15 14" fill="none" xmlns="http://www.w3.org/2000/svg">
<circle cx="9.19141" cy="7.4375" r="3.0625" stroke="#666666" stroke-linecap="round" stroke-linejoin="round"/>
<path fill-rule="evenodd" clip-rule="evenodd" d="M12.2539 3.5L11.621 2.23358C11.4727 1.93712 11.1696 1.7499 10.8382 1.75H7.54466C7.21318 1.7499 6.9101 1.93712 6.76182 2.23358L6.12891 3.5H2.19141C1.70816 3.5 1.31641 3.89175 1.31641 4.375V11.375C1.31641 11.8582 1.70816 12.25 2.19141 12.25H13.5664C14.0497 12.25 14.4414 11.8582 14.4414 11.375V4.375C14.4414 3.89175 14.0497 3.5 13.5664 3.5H12.2539Z" stroke="#666666" stroke-linecap="round" stroke-linejoin="round"/>
<path d="M3.28516 5.25C3.40597 5.25 3.50391 5.34794 3.50391 5.46875C3.50391 5.58956 3.40597 5.6875 3.28516 5.6875C3.16434 5.6875 3.06641 5.58956 3.06641 5.46875C3.06641 5.34794 3.16434 5.25 3.28516 5.25" stroke="#666666" stroke-linecap="round" stroke-linejoin="round"/>
<path d="M3.94141 3.5V2.625" stroke="#666666" stroke-linecap="round" stroke-linejoin="round"/>
</svg>
