<svg width="54" height="71" viewBox="0 0 54 71" fill="none" xmlns="http://www.w3.org/2000/svg">
<path d="M9.57227 67H3.98242V66.2207L6.93555 62.9395C7.37305 62.4434 7.67383 62.041 7.83789 61.7324C8.00586 61.4199 8.08984 61.0977 8.08984 60.7656C8.08984 60.3203 7.95508 59.9551 7.68555 59.6699C7.41602 59.3848 7.05664 59.2422 6.60742 59.2422C6.06836 59.2422 5.64844 59.3965 5.34766 59.7051C5.05078 60.0098 4.90234 60.4355 4.90234 60.9824H3.81836C3.81836 60.1973 4.07031 59.5625 4.57422 59.0781C5.08203 58.5938 5.75977 58.3516 6.60742 58.3516C7.40039 58.3516 8.02734 58.5605 8.48828 58.9785C8.94922 59.3926 9.17969 59.9453 9.17969 60.6367C9.17969 61.4766 8.64453 62.4766 7.57422 63.6367L5.28906 66.1152H9.57227V67ZM15.2969 64.1348H16.4805V65.0195H15.2969V67H14.207V65.0195H10.3223V64.3809L14.1426 58.4688H15.2969V64.1348ZM11.5527 64.1348H14.207V59.9512L14.0781 60.1855L11.5527 64.1348ZM21.6309 61.4277C22.1113 60.8379 22.7363 60.543 23.5059 60.543C24.8457 60.543 25.5215 61.2988 25.5332 62.8105V67H24.4492V62.8047C24.4453 62.3477 24.3398 62.0098 24.1328 61.791C23.9297 61.5723 23.6113 61.4629 23.1777 61.4629C22.8262 61.4629 22.5176 61.5566 22.252 61.7441C21.9863 61.9316 21.7793 62.1777 21.6309 62.4824V67H20.5469V58H21.6309V61.4277ZM26.8691 63.7715C26.8691 63.1504 26.9902 62.5918 27.2324 62.0957C27.4785 61.5996 27.8184 61.2168 28.252 60.9473C28.6895 60.6777 29.1875 60.543 29.7461 60.543C30.6094 60.543 31.3066 60.8418 31.8379 61.4395C32.373 62.0371 32.6406 62.832 32.6406 63.8242V63.9004C32.6406 64.5176 32.5215 65.0723 32.2832 65.5645C32.0488 66.0527 31.7109 66.4336 31.2695 66.707C30.832 66.9805 30.3281 67.1172 29.7578 67.1172C28.8984 67.1172 28.2012 66.8184 27.666 66.2207C27.1348 65.623 26.8691 64.832 26.8691 63.8477V63.7715ZM27.959 63.9004C27.959 64.6035 28.1211 65.168 28.4453 65.5938C28.7734 66.0195 29.2109 66.2324 29.7578 66.2324C30.3086 66.2324 30.7461 66.0176 31.0703 65.5879C31.3945 65.1543 31.5566 64.5488 31.5566 63.7715C31.5566 63.0762 31.3906 62.5137 31.0586 62.084C30.7305 61.6504 30.293 61.4336 29.7461 61.4336C29.2109 61.4336 28.7793 61.6465 28.4512 62.0723C28.123 62.498 27.959 63.1074 27.959 63.9004ZM37.0645 61.6328C36.9004 61.6055 36.7227 61.5918 36.5312 61.5918C35.8203 61.5918 35.3379 61.8945 35.084 62.5V67H34V60.6602H35.0547L35.0723 61.3926C35.4277 60.8262 35.9316 60.543 36.584 60.543C36.7949 60.543 36.9551 60.5703 37.0645 60.625V61.6328ZM41.7461 67C41.6836 66.875 41.6328 66.6523 41.5938 66.332C41.0898 66.8555 40.4883 67.1172 39.7891 67.1172C39.1641 67.1172 38.6504 66.9414 38.248 66.5898C37.8496 66.2344 37.6504 65.7852 37.6504 65.2422C37.6504 64.582 37.9004 64.0703 38.4004 63.707C38.9043 63.3398 39.6113 63.1562 40.5215 63.1562H41.5762V62.6582C41.5762 62.2793 41.4629 61.9785 41.2363 61.7559C41.0098 61.5293 40.6758 61.416 40.2344 61.416C39.8477 61.416 39.5234 61.5137 39.2617 61.709C39 61.9043 38.8691 62.1406 38.8691 62.418H37.7793C37.7793 62.1016 37.8906 61.7969 38.1133 61.5039C38.3398 61.207 38.6445 60.9727 39.0273 60.8008C39.4141 60.6289 39.8379 60.543 40.2988 60.543C41.0293 60.543 41.6016 60.7266 42.0156 61.0938C42.4297 61.457 42.6445 61.959 42.6602 62.5996V65.5176C42.6602 66.0996 42.7344 66.5625 42.8828 66.9062V67H41.7461ZM39.9473 66.1738C40.2871 66.1738 40.6094 66.0859 40.9141 65.9102C41.2188 65.7344 41.4395 65.5059 41.5762 65.2246V63.9238H40.7266C39.3984 63.9238 38.7344 64.3125 38.7344 65.0898C38.7344 65.4297 38.8477 65.6953 39.0742 65.8867C39.3008 66.0781 39.5918 66.1738 39.9473 66.1738ZM48.0508 65.3184C48.0508 65.0254 47.9395 64.7988 47.7168 64.6387C47.498 64.4746 47.1133 64.334 46.5625 64.2168C46.0156 64.0996 45.5801 63.959 45.2559 63.7949C44.9355 63.6309 44.6973 63.4355 44.541 63.209C44.3887 62.9824 44.3125 62.7129 44.3125 62.4004C44.3125 61.8809 44.5312 61.4414 44.9688 61.082C45.4102 60.7227 45.9727 60.543 46.6562 60.543C47.375 60.543 47.957 60.7285 48.4023 61.0996C48.8516 61.4707 49.0762 61.9453 49.0762 62.5234H47.9863C47.9863 62.2266 47.8594 61.9707 47.6055 61.7559C47.3555 61.541 47.0391 61.4336 46.6562 61.4336C46.2617 61.4336 45.9531 61.5195 45.7305 61.6914C45.5078 61.8633 45.3965 62.0879 45.3965 62.3652C45.3965 62.627 45.5 62.8242 45.707 62.957C45.9141 63.0898 46.2871 63.2168 46.8262 63.3379C47.3691 63.459 47.8086 63.6035 48.1445 63.7715C48.4805 63.9395 48.7285 64.1426 48.8887 64.3809C49.0527 64.6152 49.1348 64.9023 49.1348 65.2422C49.1348 65.8086 48.9082 66.2637 48.4551 66.6074C48.002 66.9473 47.4141 67.1172 46.6914 67.1172C46.1836 67.1172 45.7344 67.0273 45.3438 66.8477C44.9531 66.668 44.6465 66.418 44.4238 66.0977C44.2051 65.7734 44.0957 65.4238 44.0957 65.0488H45.1797C45.1992 65.4121 45.3438 65.7012 45.6133 65.916C45.8867 66.127 46.2461 66.2324 46.6914 66.2324C47.1016 66.2324 47.4297 66.1504 47.6758 65.9863C47.9258 65.8184 48.0508 65.5957 48.0508 65.3184Z" fill="#007DC5"/>
<g filter="url(#filter0_d)">
<circle cx="27" cy="27" r="22.5" fill="#E7F3F9" stroke="#007DC5"/>
</g>
<path d="M34.8543 28.1383L29.1406 28.1395V26.9967C29.1406 24.4723 31.1871 22.4258 33.7116 22.4258V31.5677" stroke="#007DC5" stroke-width="1.3" stroke-linecap="round" stroke-linejoin="round"/>
<path d="M21.1426 24.7113C21.1426 23.449 22.1658 22.4258 23.428 22.4258V22.4258C24.6903 22.4258 25.7135 23.449 25.7135 24.7113V24.7113C25.7137 25.4513 25.4616 26.1693 24.9989 26.7468L21.1426 31.5677H25.7135" stroke="#007DC5" stroke-width="1.3" stroke-linecap="round" stroke-linejoin="round"/>
<path d="M18.2567 25.1371L15.7141 26.8512L14 24.3086" stroke="#007DC5" stroke-width="1.3" stroke-linecap="round" stroke-linejoin="round"/>
<path d="M15.7168 26.8516C15.7909 20.8403 20.3023 15.8116 26.2704 15.088C32.2386 14.3645 37.8209 18.1693 39.3295 23.9888C40.838 29.8083 37.8069 35.8458 32.2388 38.1126C26.6707 40.3794 20.2845 38.1757 17.2995 32.9573" stroke="#007DC5" stroke-width="1.3" stroke-linecap="round" stroke-linejoin="round"/>
<defs>
<filter id="filter0_d" x="0" y="0" width="54" height="54" filterUnits="userSpaceOnUse" color-interpolation-filters="sRGB">
<feFlood flood-opacity="0" result="BackgroundImageFix"/>
<feColorMatrix in="SourceAlpha" type="matrix" values="0 0 0 0 0 0 0 0 0 0 0 0 0 0 0 0 0 0 127 0"/>
<feOffset/>
<feGaussianBlur stdDeviation="2"/>
<feColorMatrix type="matrix" values="0 0 0 0 0 0 0 0 0 0 0 0 0 0 0 0 0 0 0.1 0"/>
<feBlend mode="normal" in2="BackgroundImageFix" result="effect1_dropShadow"/>
<feBlend mode="normal" in="SourceGraphic" in2="effect1_dropShadow" result="shape"/>
</filter>
</defs>
</svg>
