<svg width="137" height="39" viewBox="0 0 137 39" fill="none" xmlns="http://www.w3.org/2000/svg">
<g filter="url(#filter0_d)">
<path d="M4 8.45117C4 6.24203 5.79086 4.45117 8 4.45117H129C131.209 4.45117 133 6.24203 133 8.45117V30.4512C133 32.6603 131.209 34.4512 129 34.4512H8C5.79086 34.4512 4 32.6603 4 30.4512V8.45117Z" fill="white"/>
<path fill-rule="evenodd" clip-rule="evenodd" d="M28.2322 14.9592C28.3723 14.9012 28.5336 14.9332 28.6409 15.0405C28.7482 15.1478 28.7803 15.3091 28.7222 15.4492L25.0337 24.3447C24.9704 24.4971 24.815 24.5903 24.6508 24.5742C24.4865 24.5581 24.3522 24.4365 24.3197 24.2747L23.5007 20.1807L19.4067 19.3617C19.2449 19.3293 19.1234 19.1949 19.1073 19.0307C19.0912 18.8665 19.1843 18.711 19.3367 18.6477L28.2322 14.9592Z" stroke="#007DC5" stroke-width="1.2" stroke-linecap="round" stroke-linejoin="round"/>
<path d="M40.6689 20.6162H38.7412V24.4512H37.0117V14.498H40.5117C41.6602 14.498 42.5465 14.7555 43.1709 15.2705C43.7952 15.7855 44.1074 16.5306 44.1074 17.5059C44.1074 18.1712 43.9456 18.7295 43.6221 19.1807C43.3031 19.6273 42.8564 19.9714 42.2822 20.2129L44.5176 24.3623V24.4512H42.665L40.6689 20.6162ZM38.7412 19.2285H40.5186C41.1019 19.2285 41.5576 19.0827 41.8857 18.791C42.2139 18.4948 42.3779 18.0915 42.3779 17.5811C42.3779 17.0479 42.2253 16.6354 41.9199 16.3438C41.6191 16.0521 41.168 15.9017 40.5664 15.8926H38.7412V19.2285ZM48.8447 24.5879C47.792 24.5879 46.9375 24.2575 46.2812 23.5967C45.6296 22.9313 45.3037 22.0472 45.3037 20.9443V20.7393C45.3037 20.001 45.445 19.3424 45.7275 18.7637C46.0146 18.1803 46.4157 17.7269 46.9307 17.4033C47.4456 17.0798 48.0199 16.918 48.6533 16.918C49.6605 16.918 50.4375 17.2393 50.9844 17.8818C51.5358 18.5244 51.8115 19.4336 51.8115 20.6094V21.2793H46.9785C47.0286 21.89 47.2314 22.373 47.5869 22.7285C47.9469 23.084 48.3981 23.2617 48.9404 23.2617C49.7015 23.2617 50.3213 22.9541 50.7998 22.3389L51.6953 23.1934C51.3991 23.6354 51.0026 23.9795 50.5059 24.2256C50.0137 24.4671 49.46 24.5879 48.8447 24.5879ZM48.6465 18.251C48.1908 18.251 47.8216 18.4105 47.5391 18.7295C47.2611 19.0485 47.0833 19.4928 47.0059 20.0625H50.1709V19.9395C50.1344 19.3835 49.9863 18.9642 49.7266 18.6816C49.4668 18.3945 49.1068 18.251 48.6465 18.251ZM56.1455 23.2617C56.5602 23.2617 56.9043 23.141 57.1777 22.8994C57.4512 22.6579 57.597 22.3594 57.6152 22.0039H59.1807C59.1624 22.4642 59.0189 22.8949 58.75 23.2959C58.4811 23.6924 58.1165 24.0068 57.6562 24.2393C57.196 24.4717 56.6992 24.5879 56.166 24.5879C55.1315 24.5879 54.3112 24.2529 53.7051 23.583C53.099 22.9131 52.7959 21.988 52.7959 20.8076V20.6367C52.7959 19.5111 53.0967 18.611 53.6982 17.9365C54.2998 17.2575 55.1201 16.918 56.1592 16.918C57.0387 16.918 57.7542 17.1755 58.3057 17.6904C58.8617 18.2008 59.1533 18.873 59.1807 19.707H57.6152C57.597 19.2832 57.4512 18.9346 57.1777 18.6611C56.9089 18.3877 56.5648 18.251 56.1455 18.251C55.6077 18.251 55.193 18.4469 54.9014 18.8389C54.6097 19.2262 54.4616 19.8164 54.457 20.6094V20.876C54.457 21.6781 54.6006 22.2773 54.8877 22.6738C55.1794 23.0658 55.5986 23.2617 56.1455 23.2617ZM63.6924 24.5879C62.6396 24.5879 61.7852 24.2575 61.1289 23.5967C60.4772 22.9313 60.1514 22.0472 60.1514 20.9443V20.7393C60.1514 20.001 60.2926 19.3424 60.5752 18.7637C60.8623 18.1803 61.2633 17.7269 61.7783 17.4033C62.2933 17.0798 62.8675 16.918 63.501 16.918C64.5081 16.918 65.2852 17.2393 65.832 17.8818C66.3835 18.5244 66.6592 19.4336 66.6592 20.6094V21.2793H61.8262C61.8763 21.89 62.0791 22.373 62.4346 22.7285C62.7946 23.084 63.2458 23.2617 63.7881 23.2617C64.5492 23.2617 65.1689 22.9541 65.6475 22.3389L66.543 23.1934C66.2467 23.6354 65.8503 23.9795 65.3535 24.2256C64.8613 24.4671 64.3076 24.5879 63.6924 24.5879ZM63.4941 18.251C63.0384 18.251 62.6693 18.4105 62.3867 18.7295C62.1087 19.0485 61.931 19.4928 61.8535 20.0625H65.0186V19.9395C64.9821 19.3835 64.834 18.9642 64.5742 18.6816C64.3145 18.3945 63.9544 18.251 63.4941 18.251ZM69.4961 17.0547L69.5439 17.9092C70.0908 17.2484 70.8086 16.918 71.6973 16.918C73.2376 16.918 74.0215 17.7998 74.0488 19.5635V24.4512H72.3877V19.6592C72.3877 19.1898 72.2852 18.8434 72.0801 18.6201C71.8796 18.3923 71.5492 18.2783 71.0889 18.2783C70.4189 18.2783 69.9199 18.5814 69.5918 19.1875V24.4512H67.9307V17.0547H69.4961ZM77.8291 15.2568V17.0547H79.1348V18.2852H77.8291V22.4141C77.8291 22.6966 77.8838 22.9017 77.9932 23.0293C78.1071 23.1523 78.3076 23.2139 78.5947 23.2139C78.7861 23.2139 78.9798 23.1911 79.1758 23.1455V24.4307C78.7975 24.5355 78.4329 24.5879 78.082 24.5879C76.806 24.5879 76.168 23.8838 76.168 22.4756V18.2852H74.9512V17.0547H76.168V15.2568H77.8291ZM84.2822 18.5723C84.0635 18.5358 83.8379 18.5176 83.6055 18.5176C82.8444 18.5176 82.3317 18.8092 82.0674 19.3926V24.4512H80.4062V17.0547H81.9922L82.0332 17.8818C82.4342 17.2393 82.9902 16.918 83.7012 16.918C83.9382 16.918 84.1341 16.9499 84.2891 17.0137L84.2822 18.5723ZM89.5459 24.4512C89.473 24.3099 89.4092 24.0798 89.3545 23.7607C88.8258 24.3122 88.1787 24.5879 87.4131 24.5879C86.6702 24.5879 86.0641 24.376 85.5947 23.9521C85.1253 23.5283 84.8906 23.0042 84.8906 22.3799C84.8906 21.5915 85.1823 20.9876 85.7656 20.5684C86.3535 20.1445 87.1921 19.9326 88.2812 19.9326H89.2998V19.4473C89.2998 19.0645 89.1927 18.7591 88.9785 18.5312C88.7643 18.2988 88.4385 18.1826 88.001 18.1826C87.6227 18.1826 87.3128 18.2783 87.0713 18.4697C86.8298 18.6566 86.709 18.8958 86.709 19.1875H85.0479C85.0479 18.7819 85.1823 18.4036 85.4512 18.0527C85.7201 17.6973 86.0846 17.4193 86.5449 17.2188C87.0098 17.0182 87.527 16.918 88.0967 16.918C88.9626 16.918 89.653 17.1367 90.168 17.5742C90.6829 18.0072 90.9473 18.6178 90.9609 19.4062V22.7422C90.9609 23.4076 91.0544 23.9385 91.2412 24.335V24.4512H89.5459ZM87.7207 23.2549C88.0488 23.2549 88.3564 23.1751 88.6436 23.0156C88.9352 22.8561 89.154 22.6419 89.2998 22.373V20.9785H88.4043C87.7891 20.9785 87.3265 21.0856 87.0166 21.2998C86.7067 21.514 86.5518 21.8171 86.5518 22.209C86.5518 22.528 86.6566 22.7832 86.8662 22.9746C87.0804 23.1615 87.3652 23.2549 87.7207 23.2549ZM94.4678 24.4512H92.8066V13.9512H94.4678V24.4512ZM98.0498 24.4512H96.3887V17.0547H98.0498V24.4512ZM96.2861 15.1338C96.2861 14.8786 96.3659 14.6667 96.5254 14.498C96.6895 14.3294 96.9219 14.2451 97.2227 14.2451C97.5234 14.2451 97.7559 14.3294 97.9199 14.498C98.084 14.6667 98.166 14.8786 98.166 15.1338C98.166 15.3844 98.084 15.5941 97.9199 15.7627C97.7559 15.9268 97.5234 16.0088 97.2227 16.0088C96.9219 16.0088 96.6895 15.9268 96.5254 15.7627C96.3659 15.5941 96.2861 15.3844 96.2861 15.1338ZM101.639 23.125H105.576V24.4512H99.5742V23.3643L103.327 18.3945H99.6426V17.0547H105.433V18.1074L101.639 23.125ZM111.325 24.4512C111.252 24.3099 111.188 24.0798 111.134 23.7607C110.605 24.3122 109.958 24.5879 109.192 24.5879C108.45 24.5879 107.843 24.376 107.374 23.9521C106.905 23.5283 106.67 23.0042 106.67 22.3799C106.67 21.5915 106.962 20.9876 107.545 20.5684C108.133 20.1445 108.971 19.9326 110.061 19.9326H111.079V19.4473C111.079 19.0645 110.972 18.7591 110.758 18.5312C110.544 18.2988 110.218 18.1826 109.78 18.1826C109.402 18.1826 109.092 18.2783 108.851 18.4697C108.609 18.6566 108.488 18.8958 108.488 19.1875H106.827C106.827 18.7819 106.962 18.4036 107.23 18.0527C107.499 17.6973 107.864 17.4193 108.324 17.2188C108.789 17.0182 109.306 16.918 109.876 16.918C110.742 16.918 111.432 17.1367 111.947 17.5742C112.462 18.0072 112.727 18.6178 112.74 19.4062V22.7422C112.74 23.4076 112.834 23.9385 113.021 24.335V24.4512H111.325ZM109.5 23.2549C109.828 23.2549 110.136 23.1751 110.423 23.0156C110.715 22.8561 110.933 22.6419 111.079 22.373V20.9785H110.184C109.568 20.9785 109.106 21.0856 108.796 21.2998C108.486 21.514 108.331 21.8171 108.331 22.209C108.331 22.528 108.436 22.7832 108.646 22.9746C108.86 23.1615 109.145 23.2549 109.5 23.2549ZM118.353 18.5723C118.134 18.5358 117.908 18.5176 117.676 18.5176C116.915 18.5176 116.402 18.8092 116.138 19.3926V24.4512H114.477V17.0547H116.062L116.104 17.8818C116.505 17.2393 117.061 16.918 117.771 16.918C118.008 16.918 118.204 16.9499 118.359 17.0137L118.353 18.5723Z" fill="#007DC5"/>
</g>
<defs>
<filter id="filter0_d" x="0" y="0.451172" width="137" height="38" filterUnits="userSpaceOnUse" color-interpolation-filters="sRGB">
<feFlood flood-opacity="0" result="BackgroundImageFix"/>
<feColorMatrix in="SourceAlpha" type="matrix" values="0 0 0 0 0 0 0 0 0 0 0 0 0 0 0 0 0 0 127 0" result="hardAlpha"/>
<feOffset/>
<feGaussianBlur stdDeviation="2"/>
<feColorMatrix type="matrix" values="0 0 0 0 0 0 0 0 0 0 0 0 0 0 0 0 0 0 0.1 0"/>
<feBlend mode="normal" in2="BackgroundImageFix" result="effect1_dropShadow"/>
<feBlend mode="normal" in="SourceGraphic" in2="effect1_dropShadow" result="shape"/>
</filter>
</defs>
</svg>
