<svg width="88" height="71" viewBox="0 0 88 71" fill="none" xmlns="http://www.w3.org/2000/svg">
<path d="M18.002 64.293C17.8965 65.1953 17.5625 65.8926 17 66.3848C16.4414 66.873 15.6973 67.1172 14.7676 67.1172C13.7598 67.1172 12.9512 66.7559 12.3418 66.0332C11.7363 65.3105 11.4336 64.3438 11.4336 63.1328V62.3125C11.4336 61.5195 11.5742 60.8223 11.8555 60.2207C12.1406 59.6191 12.543 59.1582 13.0625 58.8379C13.582 58.5137 14.1836 58.3516 14.8672 58.3516C15.7734 58.3516 16.5 58.6055 17.0469 59.1133C17.5938 59.6172 17.9121 60.3164 18.002 61.2109H16.8711C16.7734 60.5312 16.5605 60.0391 16.2324 59.7344C15.9082 59.4297 15.4531 59.2773 14.8672 59.2773C14.1484 59.2773 13.584 59.543 13.1738 60.0742C12.7676 60.6055 12.5645 61.3613 12.5645 62.3418V63.168C12.5645 64.0938 12.7578 64.8301 13.1445 65.377C13.5312 65.9238 14.0723 66.1973 14.7676 66.1973C15.3926 66.1973 15.8711 66.0566 16.2031 65.7754C16.5391 65.4902 16.7617 64.9961 16.8711 64.293H18.002ZM20.5508 67H19.4668V58H20.5508V67ZM23.4688 67H22.3848V60.6602H23.4688V67ZM22.2969 58.9785C22.2969 58.8027 22.3496 58.6543 22.4551 58.5332C22.5645 58.4121 22.7246 58.3516 22.9355 58.3516C23.1465 58.3516 23.3066 58.4121 23.416 58.5332C23.5254 58.6543 23.5801 58.8027 23.5801 58.9785C23.5801 59.1543 23.5254 59.3008 23.416 59.418C23.3066 59.5352 23.1465 59.5938 22.9355 59.5938C22.7246 59.5938 22.5645 59.5352 22.4551 59.418C22.3496 59.3008 22.2969 59.1543 22.2969 58.9785ZM26.2344 60.6602L26.2695 61.457C26.7539 60.8477 27.3867 60.543 28.168 60.543C29.5078 60.543 30.1836 61.2988 30.1953 62.8105V67H29.1113V62.8047C29.1074 62.3477 29.002 62.0098 28.7949 61.791C28.5918 61.5723 28.2734 61.4629 27.8398 61.4629C27.4883 61.4629 27.1797 61.5566 26.9141 61.7441C26.6484 61.9316 26.4414 62.1777 26.293 62.4824V67H25.209V60.6602H26.2344ZM33.0078 67H31.9238V60.6602H33.0078V67ZM31.8359 58.9785C31.8359 58.8027 31.8887 58.6543 31.9941 58.5332C32.1035 58.4121 32.2637 58.3516 32.4746 58.3516C32.6855 58.3516 32.8457 58.4121 32.9551 58.5332C33.0645 58.6543 33.1191 58.8027 33.1191 58.9785C33.1191 59.1543 33.0645 59.3008 32.9551 59.418C32.8457 59.5352 32.6855 59.5938 32.4746 59.5938C32.2637 59.5938 32.1035 59.5352 31.9941 59.418C31.8887 59.3008 31.8359 59.1543 31.8359 58.9785ZM37.291 66.2324C37.6777 66.2324 38.0156 66.1152 38.3047 65.8809C38.5938 65.6465 38.7539 65.3535 38.7852 65.002H39.8105C39.791 65.3652 39.666 65.7109 39.4355 66.0391C39.2051 66.3672 38.8965 66.6289 38.5098 66.8242C38.127 67.0195 37.7207 67.1172 37.291 67.1172C36.4277 67.1172 35.7402 66.8301 35.2285 66.2559C34.7207 65.6777 34.4668 64.8887 34.4668 63.8887V63.707C34.4668 63.0898 34.5801 62.541 34.8066 62.0605C35.0332 61.5801 35.3574 61.207 35.7793 60.9414C36.2051 60.6758 36.707 60.543 37.2852 60.543C37.9961 60.543 38.5859 60.7559 39.0547 61.1816C39.5273 61.6074 39.7793 62.1602 39.8105 62.8398H38.7852C38.7539 62.4297 38.5977 62.0938 38.3164 61.832C38.0391 61.5664 37.6953 61.4336 37.2852 61.4336C36.7344 61.4336 36.3066 61.6328 36.002 62.0312C35.7012 62.4258 35.5508 62.998 35.5508 63.748V63.9531C35.5508 64.6836 35.7012 65.2461 36.002 65.6406C36.3027 66.0352 36.7324 66.2324 37.291 66.2324ZM48.8809 63.2324H45.3008V67H44.1758V58.4688H49.4609V59.3945H45.3008V62.3125H48.8809V63.2324ZM54.3535 67C54.291 66.875 54.2402 66.6523 54.2012 66.332C53.6973 66.8555 53.0957 67.1172 52.3965 67.1172C51.7715 67.1172 51.2578 66.9414 50.8555 66.5898C50.457 66.2344 50.2578 65.7852 50.2578 65.2422C50.2578 64.582 50.5078 64.0703 51.0078 63.707C51.5117 63.3398 52.2188 63.1562 53.1289 63.1562H54.1836V62.6582C54.1836 62.2793 54.0703 61.9785 53.8438 61.7559C53.6172 61.5293 53.2832 61.416 52.8418 61.416C52.4551 61.416 52.1309 61.5137 51.8691 61.709C51.6074 61.9043 51.4766 62.1406 51.4766 62.418H50.3867C50.3867 62.1016 50.498 61.7969 50.7207 61.5039C50.9473 61.207 51.252 60.9727 51.6348 60.8008C52.0215 60.6289 52.4453 60.543 52.9062 60.543C53.6367 60.543 54.209 60.7266 54.623 61.0938C55.0371 61.457 55.252 61.959 55.2676 62.5996V65.5176C55.2676 66.0996 55.3418 66.5625 55.4902 66.9062V67H54.3535ZM52.5547 66.1738C52.8945 66.1738 53.2168 66.0859 53.5215 65.9102C53.8262 65.7344 54.0469 65.5059 54.1836 65.2246V63.9238H53.334C52.0059 63.9238 51.3418 64.3125 51.3418 65.0898C51.3418 65.4297 51.4551 65.6953 51.6816 65.8867C51.9082 66.0781 52.1992 66.1738 52.5547 66.1738ZM60.0312 61.6328C59.8672 61.6055 59.6895 61.5918 59.498 61.5918C58.7871 61.5918 58.3047 61.8945 58.0508 62.5V67H56.9668V60.6602H58.0215L58.0391 61.3926C58.3945 60.8262 58.8984 60.543 59.5508 60.543C59.7617 60.543 59.9219 60.5703 60.0312 60.625V61.6328ZM62.0527 60.6602L62.082 61.3633C62.5469 60.8164 63.1738 60.543 63.9629 60.543C64.8496 60.543 65.4531 60.8828 65.7734 61.5625C65.9844 61.2578 66.2578 61.0117 66.5938 60.8242C66.9336 60.6367 67.334 60.543 67.7949 60.543C69.1855 60.543 69.8926 61.2793 69.916 62.752V67H68.832V62.8164C68.832 62.3633 68.7285 62.0254 68.5215 61.8027C68.3145 61.5762 67.9668 61.4629 67.4785 61.4629C67.0762 61.4629 66.7422 61.584 66.4766 61.8262C66.2109 62.0645 66.0566 62.3867 66.0137 62.793V67H64.9238V62.8457C64.9238 61.9238 64.4727 61.4629 63.5703 61.4629C62.8594 61.4629 62.373 61.7656 62.1113 62.3711V67H61.0273V60.6602H62.0527ZM75.4707 67C75.4082 66.875 75.3574 66.6523 75.3184 66.332C74.8145 66.8555 74.2129 67.1172 73.5137 67.1172C72.8887 67.1172 72.375 66.9414 71.9727 66.5898C71.5742 66.2344 71.375 65.7852 71.375 65.2422C71.375 64.582 71.625 64.0703 72.125 63.707C72.6289 63.3398 73.3359 63.1562 74.2461 63.1562H75.3008V62.6582C75.3008 62.2793 75.1875 61.9785 74.9609 61.7559C74.7344 61.5293 74.4004 61.416 73.959 61.416C73.5723 61.416 73.248 61.5137 72.9863 61.709C72.7246 61.9043 72.5938 62.1406 72.5938 62.418H71.5039C71.5039 62.1016 71.6152 61.7969 71.8379 61.5039C72.0645 61.207 72.3691 60.9727 72.752 60.8008C73.1387 60.6289 73.5625 60.543 74.0234 60.543C74.7539 60.543 75.3262 60.7266 75.7402 61.0938C76.1543 61.457 76.3691 61.959 76.3848 62.5996V65.5176C76.3848 66.0996 76.459 66.5625 76.6074 66.9062V67H75.4707ZM73.6719 66.1738C74.0117 66.1738 74.334 66.0859 74.6387 65.9102C74.9434 65.7344 75.1641 65.5059 75.3008 65.2246V63.9238H74.4512C73.123 63.9238 72.459 64.3125 72.459 65.0898C72.459 65.4297 72.5723 65.6953 72.7988 65.8867C73.0254 66.0781 73.3164 66.1738 73.6719 66.1738Z" fill="#666666"/>
<g filter="url(#filter0_d)">
<circle cx="44" cy="27" r="22.5" fill="#E7F3F9" stroke="#007DC5"/>
</g>
<path d="M41.75 17.25H43.25C44.0784 17.25 44.75 17.9216 44.75 18.75V24.75C44.75 28.0637 42.0637 30.75 38.75 30.75C35.4363 30.75 32.75 28.0637 32.75 24.75V18.75C32.75 17.9216 33.4216 17.25 34.25 17.25H35.75" stroke="#007DC5" stroke-width="1.3" stroke-linecap="round" stroke-linejoin="round"/>
<path d="M35.75 15.75V19.5" stroke="#007DC5" stroke-width="1.3" stroke-linecap="round" stroke-linejoin="round"/>
<path d="M41.75 15.75V19.5" stroke="#007DC5" stroke-width="1.3" stroke-linecap="round" stroke-linejoin="round"/>
<circle cx="52.25" cy="24.75" r="3" stroke="#007DC5" stroke-width="1.3" stroke-linecap="round" stroke-linejoin="round"/>
<path d="M38.75 30.75V31.5C38.75 35.2279 41.7721 38.25 45.5 38.25C49.2279 38.25 52.25 35.2279 52.25 31.5V27.75" stroke="#007DC5" stroke-width="1.3" stroke-linecap="round" stroke-linejoin="round"/>
<defs>
<filter id="filter0_d" x="17" y="0" width="54" height="54" filterUnits="userSpaceOnUse" color-interpolation-filters="sRGB">
<feFlood flood-opacity="0" result="BackgroundImageFix"/>
<feColorMatrix in="SourceAlpha" type="matrix" values="0 0 0 0 0 0 0 0 0 0 0 0 0 0 0 0 0 0 127 0"/>
<feOffset/>
<feGaussianBlur stdDeviation="2"/>
<feColorMatrix type="matrix" values="0 0 0 0 0 0 0 0 0 0 0 0 0 0 0 0 0 0 0.1 0"/>
<feBlend mode="normal" in2="BackgroundImageFix" result="effect1_dropShadow"/>
<feBlend mode="normal" in="SourceGraphic" in2="effect1_dropShadow" result="shape"/>
</filter>
</defs>
</svg>
