<svg width="88" height="67" viewBox="0 0 88 67" fill="none" xmlns="http://www.w3.org/2000/svg">
<path d="M14.6445 60.293C14.5391 61.1953 14.2051 61.8926 13.6426 62.3848C13.084 62.873 12.3398 63.1172 11.4102 63.1172C10.4023 63.1172 9.59375 62.7559 8.98438 62.0332C8.37891 61.3105 8.07617 60.3438 8.07617 59.1328V58.3125C8.07617 57.5195 8.2168 56.8223 8.49805 56.2207C8.7832 55.6191 9.18555 55.1582 9.70508 54.8379C10.2246 54.5137 10.8262 54.3516 11.5098 54.3516C12.416 54.3516 13.1426 54.6055 13.6895 55.1133C14.2363 55.6172 14.5547 56.3164 14.6445 57.2109H13.5137C13.416 56.5312 13.2031 56.0391 12.875 55.7344C12.5508 55.4297 12.0957 55.2773 11.5098 55.2773C10.791 55.2773 10.2266 55.543 9.81641 56.0742C9.41016 56.6055 9.20703 57.3613 9.20703 58.3418V59.168C9.20703 60.0938 9.40039 60.8301 9.78711 61.377C10.1738 61.9238 10.7148 62.1973 11.4102 62.1973C12.0352 62.1973 12.5137 62.0566 12.8457 61.7754C13.1816 61.4902 13.4043 60.9961 13.5137 60.293H14.6445ZM17.1934 63H16.1094V54H17.1934V63ZM20.1113 63H19.0273V56.6602H20.1113V63ZM18.9395 54.9785C18.9395 54.8027 18.9922 54.6543 19.0977 54.5332C19.207 54.4121 19.3672 54.3516 19.5781 54.3516C19.7891 54.3516 19.9492 54.4121 20.0586 54.5332C20.168 54.6543 20.2227 54.8027 20.2227 54.9785C20.2227 55.1543 20.168 55.3008 20.0586 55.418C19.9492 55.5352 19.7891 55.5938 19.5781 55.5938C19.3672 55.5938 19.207 55.5352 19.0977 55.418C18.9922 55.3008 18.9395 55.1543 18.9395 54.9785ZM21.5879 59.7773C21.5879 58.7812 21.8164 57.9941 22.2734 57.416C22.7305 56.834 23.3438 56.543 24.1133 56.543C24.8633 56.543 25.4551 56.7949 25.8887 57.2988L25.9355 56.6602H26.9316V65.4375H25.8477V62.4141C25.4102 62.8828 24.8281 63.1172 24.1016 63.1172C23.3359 63.1172 22.7246 62.8203 22.2676 62.2266C21.8145 61.6289 21.5879 60.8379 21.5879 59.8535V59.7773ZM22.6719 59.9004C22.6719 60.627 22.8242 61.1973 23.1289 61.6113C23.4375 62.0254 23.8516 62.2324 24.3711 62.2324C25.0156 62.2324 25.5078 61.9473 25.8477 61.377V58.2715C25.5039 57.7129 25.0156 57.4336 24.3828 57.4336C23.8594 57.4336 23.4434 57.6426 23.1348 58.0605C22.8262 58.4746 22.6719 59.0879 22.6719 59.9004ZM32.5859 62.373C32.1641 62.8691 31.5449 63.1172 30.7285 63.1172C30.0527 63.1172 29.5371 62.9219 29.1816 62.5312C28.8301 62.1367 28.6523 61.5547 28.6484 60.7852V56.6602H29.7324V60.7559C29.7324 61.7168 30.123 62.1973 30.9043 62.1973C31.7324 62.1973 32.2832 61.8887 32.5566 61.2715V56.6602H33.6406V63H32.6094L32.5859 62.373ZM37.9238 63.1172C37.0645 63.1172 36.3652 62.8359 35.8262 62.2734C35.2871 61.707 35.0176 60.9512 35.0176 60.0059V59.8066C35.0176 59.1777 35.1367 58.6172 35.375 58.125C35.6172 57.6289 35.9531 57.2422 36.3828 56.9648C36.8164 56.6836 37.2852 56.543 37.7891 56.543C38.6133 56.543 39.2539 56.8145 39.7109 57.3574C40.168 57.9004 40.3965 58.6777 40.3965 59.6895V60.1406H36.1016C36.1172 60.7656 36.2988 61.2715 36.6465 61.6582C36.998 62.041 37.4434 62.2324 37.9824 62.2324C38.3652 62.2324 38.6895 62.1543 38.9551 61.998C39.2207 61.8418 39.4531 61.6348 39.6523 61.377L40.3145 61.8926C39.7832 62.709 38.9863 63.1172 37.9238 63.1172ZM37.7891 57.4336C37.3516 57.4336 36.9844 57.5938 36.6875 57.9141C36.3906 58.2305 36.207 58.6758 36.1367 59.25H39.3125V59.168C39.2812 58.6172 39.1328 58.1914 38.8672 57.8906C38.6016 57.5859 38.2422 57.4336 37.7891 57.4336ZM47.2637 63.1172C46.4043 63.1172 45.7051 62.8359 45.166 62.2734C44.627 61.707 44.3574 60.9512 44.3574 60.0059V59.8066C44.3574 59.1777 44.4766 58.6172 44.7148 58.125C44.957 57.6289 45.293 57.2422 45.7227 56.9648C46.1562 56.6836 46.625 56.543 47.1289 56.543C47.9531 56.543 48.5938 56.8145 49.0508 57.3574C49.5078 57.9004 49.7363 58.6777 49.7363 59.6895V60.1406H45.4414C45.457 60.7656 45.6387 61.2715 45.9863 61.6582C46.3379 62.041 46.7832 62.2324 47.3223 62.2324C47.7051 62.2324 48.0293 62.1543 48.2949 61.998C48.5605 61.8418 48.793 61.6348 48.9922 61.377L49.6543 61.8926C49.123 62.709 48.3262 63.1172 47.2637 63.1172ZM47.1289 57.4336C46.6914 57.4336 46.3242 57.5938 46.0273 57.9141C45.7305 58.2305 45.5469 58.6758 45.4766 59.25H48.6523V59.168C48.6211 58.6172 48.4727 58.1914 48.207 57.8906C47.9414 57.5859 47.582 57.4336 47.1289 57.4336ZM57.0371 57.6328C56.873 57.6055 56.6953 57.5918 56.5039 57.5918C55.793 57.5918 55.3105 57.8945 55.0566 58.5V63H53.9727V56.6602H55.0273L55.0449 57.3926C55.4004 56.8262 55.9043 56.543 56.5566 56.543C56.7676 56.543 56.9277 56.5703 57.0371 56.625V57.6328ZM60.5527 63.1172C59.6934 63.1172 58.9941 62.8359 58.4551 62.2734C57.916 61.707 57.6465 60.9512 57.6465 60.0059V59.8066C57.6465 59.1777 57.7656 58.6172 58.0039 58.125C58.2461 57.6289 58.582 57.2422 59.0117 56.9648C59.4453 56.6836 59.9141 56.543 60.418 56.543C61.2422 56.543 61.8828 56.8145 62.3398 57.3574C62.7969 57.9004 63.0254 58.6777 63.0254 59.6895V60.1406H58.7305C58.7461 60.7656 58.9277 61.2715 59.2754 61.6582C59.627 62.041 60.0723 62.2324 60.6113 62.2324C60.9941 62.2324 61.3184 62.1543 61.584 61.998C61.8496 61.8418 62.082 61.6348 62.2812 61.377L62.9434 61.8926C62.4121 62.709 61.6152 63.1172 60.5527 63.1172ZM60.418 57.4336C59.9805 57.4336 59.6133 57.5938 59.3164 57.9141C59.0195 58.2305 58.8359 58.6758 58.7656 59.25H61.9414V59.168C61.9102 58.6172 61.7617 58.1914 61.4961 57.8906C61.2305 57.5859 60.8711 57.4336 60.418 57.4336ZM65.7559 55.125V56.6602H66.9395V57.498H65.7559V61.4297C65.7559 61.6836 65.8086 61.875 65.9141 62.0039C66.0195 62.1289 66.1992 62.1914 66.4531 62.1914C66.5781 62.1914 66.75 62.168 66.9688 62.1211V63C66.6836 63.0781 66.4062 63.1172 66.1367 63.1172C65.6523 63.1172 65.2871 62.9707 65.041 62.6777C64.7949 62.3848 64.6719 61.9688 64.6719 61.4297V57.498H63.5176V56.6602H64.6719V55.125H65.7559ZM69.3887 63H68.3047V56.6602H69.3887V63ZM68.2168 54.9785C68.2168 54.8027 68.2695 54.6543 68.375 54.5332C68.4844 54.4121 68.6445 54.3516 68.8555 54.3516C69.0664 54.3516 69.2266 54.4121 69.3359 54.5332C69.4453 54.6543 69.5 54.8027 69.5 54.9785C69.5 55.1543 69.4453 55.3008 69.3359 55.418C69.2266 55.5352 69.0664 55.5938 68.8555 55.5938C68.6445 55.5938 68.4844 55.5352 68.375 55.418C68.2695 55.3008 68.2168 55.1543 68.2168 54.9785ZM74.1934 57.6328C74.0293 57.6055 73.8516 57.5918 73.6602 57.5918C72.9492 57.5918 72.4668 57.8945 72.2129 58.5V63H71.1289V56.6602H72.1836L72.2012 57.3926C72.5566 56.8262 73.0605 56.543 73.7129 56.543C73.9238 56.543 74.084 56.5703 74.1934 56.625V57.6328ZM77.709 63.1172C76.8496 63.1172 76.1504 62.8359 75.6113 62.2734C75.0723 61.707 74.8027 60.9512 74.8027 60.0059V59.8066C74.8027 59.1777 74.9219 58.6172 75.1602 58.125C75.4023 57.6289 75.7383 57.2422 76.168 56.9648C76.6016 56.6836 77.0703 56.543 77.5742 56.543C78.3984 56.543 79.0391 56.8145 79.4961 57.3574C79.9531 57.9004 80.1816 58.6777 80.1816 59.6895V60.1406H75.8867C75.9023 60.7656 76.084 61.2715 76.4316 61.6582C76.7832 62.041 77.2285 62.2324 77.7676 62.2324C78.1504 62.2324 78.4746 62.1543 78.7402 61.998C79.0059 61.8418 79.2383 61.6348 79.4375 61.377L80.0996 61.8926C79.5684 62.709 78.7715 63.1172 77.709 63.1172ZM77.5742 57.4336C77.1367 57.4336 76.7695 57.5938 76.4727 57.9141C76.1758 58.2305 75.9922 58.6758 75.9219 59.25H79.0977V59.168C79.0664 58.6172 78.918 58.1914 78.6523 57.8906C78.3867 57.5859 78.0273 57.4336 77.5742 57.4336Z" fill="#666666"/>
<circle cx="44" cy="23" r="22.5" fill="#E7F3F9" stroke="#007DC5"/>
<path d="M45.875 24.875V31.142C45.875 32.651 44.652 33.8744 43.143 33.875H36.608C35.0988 33.8744 33.8756 32.6512 33.875 31.142V15.607C33.8756 14.098 35.099 12.875 36.608 12.875H42.875" stroke="#007DC5" stroke-width="1.3" stroke-linecap="round" stroke-linejoin="round"/>
<path d="M33.875 29.375H45.875" stroke="#007DC5" stroke-width="1.3" stroke-linecap="round" stroke-linejoin="round"/>
<path fill-rule="evenodd" clip-rule="evenodd" d="M52.6233 15.875H44.9523C44.4613 15.8766 44.0021 16.1183 43.723 16.5223C43.4439 16.9262 43.3801 17.4412 43.5523 17.901L44.8593 21.388C44.9687 21.6801 45.2474 21.874 45.5593 21.875H52.0203C52.3322 21.874 52.6109 21.6801 52.7203 21.388L54.0283 17.9C54.2004 17.4395 54.1358 16.9238 53.8556 16.5199C53.5753 16.116 53.1149 15.875 52.6233 15.875Z" stroke="#007DC5" stroke-width="1.3" stroke-linecap="round" stroke-linejoin="round"/>
<path d="M45.0391 15.875L46.5391 12.125" stroke="#007DC5" stroke-width="1.3" stroke-linecap="round" stroke-linejoin="round"/>
<path d="M52.5391 15.875L51.0391 12.125" stroke="#007DC5" stroke-width="1.3" stroke-linecap="round" stroke-linejoin="round"/>
<path d="M47.375 19.625V18.125" stroke="#007DC5" stroke-width="1.3" stroke-linecap="round" stroke-linejoin="round"/>
<path d="M50.375 19.625V18.125" stroke="#007DC5" stroke-width="1.3" stroke-linecap="round" stroke-linejoin="round"/>
</svg>
