<svg width="54" height="71" viewBox="0 0 54 71" fill="none" xmlns="http://www.w3.org/2000/svg">
<path d="M6.66602 67V58.4688H9.07422C9.81641 58.4688 10.4727 58.6328 11.043 58.9609C11.6133 59.2891 12.0527 59.7559 12.3613 60.3613C12.6738 60.9668 12.832 61.6621 12.8359 62.4473V62.9922C12.8359 63.7969 12.6797 64.502 12.3672 65.1074C12.0586 65.7129 11.6152 66.1777 11.0371 66.502C10.4629 66.8262 9.79297 66.9922 9.02734 67H6.66602ZM7.79102 59.3945V66.0801H8.97461C9.8418 66.0801 10.5156 65.8105 10.9961 65.2715C11.4805 64.7324 11.7227 63.9648 11.7227 62.9688V62.4707C11.7227 61.502 11.4941 60.75 11.0371 60.2148C10.584 59.6758 9.93945 59.4023 9.10352 59.3945H7.79102ZM17.002 67.1172C16.1426 67.1172 15.4434 66.8359 14.9043 66.2734C14.3652 65.707 14.0957 64.9512 14.0957 64.0059V63.8066C14.0957 63.1777 14.2148 62.6172 14.4531 62.125C14.6953 61.6289 15.0312 61.2422 15.4609 60.9648C15.8945 60.6836 16.3633 60.543 16.8672 60.543C17.6914 60.543 18.332 60.8145 18.7891 61.3574C19.2461 61.9004 19.4746 62.6777 19.4746 63.6895V64.1406H15.1797C15.1953 64.7656 15.377 65.2715 15.7246 65.6582C16.0762 66.041 16.5215 66.2324 17.0605 66.2324C17.4434 66.2324 17.7676 66.1543 18.0332 65.998C18.2988 65.8418 18.5312 65.6348 18.7305 65.377L19.3926 65.8926C18.8613 66.709 18.0645 67.1172 17.002 67.1172ZM16.8672 61.4336C16.4297 61.4336 16.0625 61.5938 15.7656 61.9141C15.4688 62.2305 15.2852 62.6758 15.2148 63.25H18.3906V63.168C18.3594 62.6172 18.2109 62.1914 17.9453 61.8906C17.6797 61.5859 17.3203 61.4336 16.8672 61.4336ZM21.9121 67H20.8281V58H21.9121V67ZM24.8301 67H23.7461V60.6602H24.8301V67ZM23.6582 58.9785C23.6582 58.8027 23.7109 58.6543 23.8164 58.5332C23.9258 58.4121 24.0859 58.3516 24.2969 58.3516C24.5078 58.3516 24.668 58.4121 24.7773 58.5332C24.8867 58.6543 24.9414 58.8027 24.9414 58.9785C24.9414 59.1543 24.8867 59.3008 24.7773 59.418C24.668 59.5352 24.5078 59.5938 24.2969 59.5938C24.0859 59.5938 23.9258 59.5352 23.8164 59.418C23.7109 59.3008 23.6582 59.1543 23.6582 58.9785ZM28.6621 65.5293L30.2324 60.6602H31.3398L29.0664 67H28.2402L25.9434 60.6602H27.0508L28.6621 65.5293ZM34.9316 67.1172C34.0723 67.1172 33.373 66.8359 32.834 66.2734C32.2949 65.707 32.0254 64.9512 32.0254 64.0059V63.8066C32.0254 63.1777 32.1445 62.6172 32.3828 62.125C32.625 61.6289 32.9609 61.2422 33.3906 60.9648C33.8242 60.6836 34.293 60.543 34.7969 60.543C35.6211 60.543 36.2617 60.8145 36.7188 61.3574C37.1758 61.9004 37.4043 62.6777 37.4043 63.6895V64.1406H33.1094C33.125 64.7656 33.3066 65.2715 33.6543 65.6582C34.0059 66.041 34.4512 66.2324 34.9902 66.2324C35.373 66.2324 35.6973 66.1543 35.9629 65.998C36.2285 65.8418 36.4609 65.6348 36.6602 65.377L37.3223 65.8926C36.791 66.709 35.9941 67.1172 34.9316 67.1172ZM34.7969 61.4336C34.3594 61.4336 33.9922 61.5938 33.6953 61.9141C33.3984 62.2305 33.2148 62.6758 33.1445 63.25H36.3203V63.168C36.2891 62.6172 36.1406 62.1914 35.875 61.8906C35.6094 61.5859 35.25 61.4336 34.7969 61.4336ZM41.7285 61.6328C41.5645 61.6055 41.3867 61.5918 41.1953 61.5918C40.4844 61.5918 40.002 61.8945 39.748 62.5V67H38.6641V60.6602H39.7188L39.7363 61.3926C40.0918 60.8262 40.5957 60.543 41.248 60.543C41.459 60.543 41.6191 60.5703 41.7285 60.625V61.6328ZM44.9102 65.4121L46.3867 60.6602H47.5469L44.998 67.9785C44.6035 69.0332 43.9766 69.5605 43.1172 69.5605L42.9121 69.543L42.5078 69.4668V68.5879L42.8008 68.6113C43.168 68.6113 43.4531 68.5371 43.6562 68.3887C43.8633 68.2402 44.0332 67.9688 44.166 67.5742L44.4062 66.9297L42.1445 60.6602H43.3281L44.9102 65.4121Z" fill="#007DC5"/>
<g filter="url(#filter0_d)">
<circle cx="27" cy="27" r="22.5" fill="#E7F3F9" stroke="#007DC5"/>
</g>
<circle cx="21" cy="34.5" r="1.5" stroke="#007DC5" stroke-width="1.3" stroke-linecap="round" stroke-linejoin="round"/>
<circle cx="33.75" cy="34.5" r="1.5" stroke="#007DC5" stroke-width="1.3" stroke-linecap="round" stroke-linejoin="round"/>
<path d="M25.5 30H38.25V33C38.25 33.8284 37.5784 34.5 36.75 34.5H35.25" stroke="#007DC5" stroke-width="1.3" stroke-linecap="round" stroke-linejoin="round"/>
<path d="M25.5 34.5H32.25" stroke="#007DC5" stroke-width="1.3" stroke-linecap="round" stroke-linejoin="round"/>
<path d="M15.75 31.5H17.707" stroke="#007DC5" stroke-width="1.3" stroke-linecap="round" stroke-linejoin="round"/>
<path d="M19.5 34.5H17.25C16.4216 34.5 15.75 33.8284 15.75 33V28.765C15.7503 28.1519 16.1237 27.6007 16.693 27.373L19.5 26.25L20.25 21H25.5V34.5H22.5" stroke="#007DC5" stroke-width="1.3" stroke-linecap="round" stroke-linejoin="round"/>
<path d="M19.5 26.25H25.5" stroke="#007DC5" stroke-width="1.3" stroke-linecap="round" stroke-linejoin="round"/>
<path fill-rule="evenodd" clip-rule="evenodd" d="M25.5 18H37.25C37.8023 18 38.25 18.4477 38.25 19V30H25.5V18Z" stroke="#007DC5" stroke-width="1.3" stroke-linecap="round" stroke-linejoin="round"/>
<path fill-rule="evenodd" clip-rule="evenodd" d="M19.75 18H25.5V21H18.75V19C18.75 18.4477 19.1977 18 19.75 18Z" stroke="#007DC5" stroke-width="1.3" stroke-linecap="round" stroke-linejoin="round"/>
<defs>
<filter id="filter0_d" x="0" y="0" width="54" height="54" filterUnits="userSpaceOnUse" color-interpolation-filters="sRGB">
<feFlood flood-opacity="0" result="BackgroundImageFix"/>
<feColorMatrix in="SourceAlpha" type="matrix" values="0 0 0 0 0 0 0 0 0 0 0 0 0 0 0 0 0 0 127 0"/>
<feOffset/>
<feGaussianBlur stdDeviation="2"/>
<feColorMatrix type="matrix" values="0 0 0 0 0 0 0 0 0 0 0 0 0 0 0 0 0 0 0.1 0"/>
<feBlend mode="normal" in2="BackgroundImageFix" result="effect1_dropShadow"/>
<feBlend mode="normal" in="SourceGraphic" in2="effect1_dropShadow" result="shape"/>
</filter>
</defs>
</svg>
