<svg width="55" height="71" viewBox="0 0 55 71" fill="none" xmlns="http://www.w3.org/2000/svg">
<path d="M1.41406 67V58.4688H3.82227C4.56445 58.4688 5.2207 58.6328 5.79102 58.9609C6.36133 59.2891 6.80078 59.7559 7.10938 60.3613C7.42188 60.9668 7.58008 61.6621 7.58398 62.4473V62.9922C7.58398 63.7969 7.42773 64.502 7.11523 65.1074C6.80664 65.7129 6.36328 66.1777 5.78516 66.502C5.21094 66.8262 4.54102 66.9922 3.77539 67H1.41406ZM2.53906 59.3945V66.0801H3.72266C4.58984 66.0801 5.26367 65.8105 5.74414 65.2715C6.22852 64.7324 6.4707 63.9648 6.4707 62.9688V62.4707C6.4707 61.502 6.24219 60.75 5.78516 60.2148C5.33203 59.6758 4.6875 59.4023 3.85156 59.3945H2.53906ZM12.1836 61.6328C12.0195 61.6055 11.8418 61.5918 11.6504 61.5918C10.9395 61.5918 10.457 61.8945 10.2031 62.5V67H9.11914V60.6602H10.1738L10.1914 61.3926C10.5469 60.8262 11.0508 60.543 11.7031 60.543C11.9141 60.543 12.0742 60.5703 12.1836 60.625V61.6328ZM14.3633 67H13.2793V60.6602H14.3633V67ZM13.1914 58.9785C13.1914 58.8027 13.2441 58.6543 13.3496 58.5332C13.459 58.4121 13.6191 58.3516 13.8301 58.3516C14.041 58.3516 14.2012 58.4121 14.3105 58.5332C14.4199 58.6543 14.4746 58.8027 14.4746 58.9785C14.4746 59.1543 14.4199 59.3008 14.3105 59.418C14.2012 59.5352 14.041 59.5938 13.8301 59.5938C13.6191 59.5938 13.459 59.5352 13.3496 59.418C13.2441 59.3008 13.1914 59.1543 13.1914 58.9785ZM18.1953 65.5293L19.7656 60.6602H20.873L18.5996 67H17.7734L15.4766 60.6602H16.584L18.1953 65.5293ZM24.4648 67.1172C23.6055 67.1172 22.9062 66.8359 22.3672 66.2734C21.8281 65.707 21.5586 64.9512 21.5586 64.0059V63.8066C21.5586 63.1777 21.6777 62.6172 21.916 62.125C22.1582 61.6289 22.4941 61.2422 22.9238 60.9648C23.3574 60.6836 23.8262 60.543 24.3301 60.543C25.1543 60.543 25.7949 60.8145 26.252 61.3574C26.709 61.9004 26.9375 62.6777 26.9375 63.6895V64.1406H22.6426C22.6582 64.7656 22.8398 65.2715 23.1875 65.6582C23.5391 66.041 23.9844 66.2324 24.5234 66.2324C24.9062 66.2324 25.2305 66.1543 25.4961 65.998C25.7617 65.8418 25.9941 65.6348 26.1934 65.377L26.8555 65.8926C26.3242 66.709 25.5273 67.1172 24.4648 67.1172ZM24.3301 61.4336C23.8926 61.4336 23.5254 61.5938 23.2285 61.9141C22.9316 62.2305 22.748 62.6758 22.6777 63.25H25.8535V63.168C25.8223 62.6172 25.6738 62.1914 25.4082 61.8906C25.1426 61.5859 24.7832 61.4336 24.3301 61.4336ZM37.0039 59.3945H34.2617V67H33.1426V59.3945H30.4062V58.4688H37.0039V59.3945ZM39.1836 61.4277C39.6641 60.8379 40.2891 60.543 41.0586 60.543C42.3984 60.543 43.0742 61.2988 43.0859 62.8105V67H42.002V62.8047C41.998 62.3477 41.8926 62.0098 41.6855 61.791C41.4824 61.5723 41.1641 61.4629 40.7305 61.4629C40.3789 61.4629 40.0703 61.5566 39.8047 61.7441C39.5391 61.9316 39.332 62.1777 39.1836 62.4824V67H38.0996V58H39.1836V61.4277ZM47.7734 61.6328C47.6094 61.6055 47.4316 61.5918 47.2402 61.5918C46.5293 61.5918 46.0469 61.8945 45.793 62.5V67H44.709V60.6602H45.7637L45.7812 61.3926C46.1367 60.8262 46.6406 60.543 47.293 60.543C47.5039 60.543 47.6641 60.5703 47.7734 60.625V61.6328ZM52.6895 66.373C52.2676 66.8691 51.6484 67.1172 50.832 67.1172C50.1562 67.1172 49.6406 66.9219 49.2852 66.5312C48.9336 66.1367 48.7559 65.5547 48.752 64.7852V60.6602H49.8359V64.7559C49.8359 65.7168 50.2266 66.1973 51.0078 66.1973C51.8359 66.1973 52.3867 65.8887 52.6602 65.2715V60.6602H53.7441V67H52.7129L52.6895 66.373Z" fill="#007DC5"/>
<g filter="url(#filter0_d)">
<circle cx="28" cy="27" r="22.5" fill="#E7F3F9" stroke="#007DC5"/>
</g>
<path d="M36.25 25.5V38.25" stroke="#007DC5" stroke-width="1.3" stroke-linecap="round" stroke-linejoin="round"/>
<rect width="6" height="9.75" rx="0.5" transform="matrix(-1 0 0 1 39.25 15.75)" stroke="#007DC5" stroke-width="1.3" stroke-linecap="round" stroke-linejoin="round"/>
<path d="M28.75 33.75H27.25" stroke="#007DC5" stroke-width="1.3" stroke-linecap="round" stroke-linejoin="round"/>
<path d="M21.25 33.75H19.75" stroke="#007DC5" stroke-width="1.3" stroke-linecap="round" stroke-linejoin="round"/>
<path d="M30.25 36.75V38.25" stroke="#007DC5" stroke-width="1.3" stroke-linecap="round" stroke-linejoin="round"/>
<path d="M18.25 36.75V38.25" stroke="#007DC5" stroke-width="1.3" stroke-linecap="round" stroke-linejoin="round"/>
<path fill-rule="evenodd" clip-rule="evenodd" d="M20.831 26.25C20.1853 26.2501 19.6121 26.6634 19.408 27.276L18.25 30.75L17 32.622C16.8358 32.8684 16.7481 33.1579 16.748 33.454V35.254C16.748 36.0824 17.4196 36.754 18.248 36.754H30.248C31.0765 36.754 31.748 36.0824 31.748 35.254V33.454C31.748 33.1579 31.6603 32.8684 31.496 32.622L30.25 30.75L29.092 27.276C28.888 26.6634 28.3148 26.2501 27.669 26.25H20.831Z" stroke="#007DC5" stroke-width="1.3" stroke-linecap="round" stroke-linejoin="round"/>
<path d="M30.25 30.75H18.25" stroke="#007DC5" stroke-width="1.3" stroke-linecap="round" stroke-linejoin="round"/>
<defs>
<filter id="filter0_d" x="1" y="0" width="54" height="54" filterUnits="userSpaceOnUse" color-interpolation-filters="sRGB">
<feFlood flood-opacity="0" result="BackgroundImageFix"/>
<feColorMatrix in="SourceAlpha" type="matrix" values="0 0 0 0 0 0 0 0 0 0 0 0 0 0 0 0 0 0 127 0"/>
<feOffset/>
<feGaussianBlur stdDeviation="2"/>
<feColorMatrix type="matrix" values="0 0 0 0 0 0 0 0 0 0 0 0 0 0 0 0 0 0 0.1 0"/>
<feBlend mode="normal" in2="BackgroundImageFix" result="effect1_dropShadow"/>
<feBlend mode="normal" in="SourceGraphic" in2="effect1_dropShadow" result="shape"/>
</filter>
</defs>
</svg>
