<svg width="88" height="67" viewBox="0 0 88 67" fill="none" xmlns="http://www.w3.org/2000/svg">
<circle cx="44" cy="23" r="22.5" fill="#E7F3F9" stroke="#007DC5"/>
<circle cx="44" cy="23" r="11.25" stroke="#007DC5" stroke-width="1.5" stroke-linecap="round" stroke-linejoin="round"/>
<path d="M42 18H46" stroke="#007DC5" stroke-width="1.5" stroke-linecap="round" stroke-linejoin="round"/>
<path d="M42 23H46" stroke="#007DC5" stroke-width="1.5" stroke-linecap="round" stroke-linejoin="round"/>
<path d="M42 28H46" stroke="#007DC5" stroke-width="1.5" stroke-linecap="round" stroke-linejoin="round"/>
<path d="M42 28L42 18" stroke="#007DC5" stroke-width="1.5" stroke-linecap="round" stroke-linejoin="round"/>
<path d="M7.96625 59.0566H4.26899V62.0801H8.56391V63H3.14399V54.4688H8.50531V55.3945H4.26899V58.1367H7.96625V59.0566ZM13.2458 61.3184C13.2458 61.0254 13.1345 60.7988 12.9118 60.6387C12.693 60.4746 12.3083 60.334 11.7575 60.2168C11.2106 60.0996 10.7751 59.959 10.4509 59.7949C10.1305 59.6309 9.89227 59.4355 9.73602 59.209C9.58367 58.9824 9.5075 58.7129 9.5075 58.4004C9.5075 57.8809 9.72625 57.4414 10.1638 57.082C10.6052 56.7227 11.1677 56.543 11.8513 56.543C12.57 56.543 13.152 56.7285 13.5973 57.0996C14.0466 57.4707 14.2712 57.9453 14.2712 58.5234H13.1813C13.1813 58.2266 13.0544 57.9707 12.8005 57.7559C12.5505 57.541 12.2341 57.4336 11.8513 57.4336C11.4567 57.4336 11.1481 57.5195 10.9255 57.6914C10.7028 57.8633 10.5915 58.0879 10.5915 58.3652C10.5915 58.627 10.695 58.8242 10.902 58.957C11.1091 59.0898 11.4821 59.2168 12.0212 59.3379C12.5641 59.459 13.0036 59.6035 13.3395 59.7715C13.6755 59.9395 13.9235 60.1426 14.0837 60.3809C14.2477 60.6152 14.3298 60.9023 14.3298 61.2422C14.3298 61.8086 14.1032 62.2637 13.6501 62.6074C13.197 62.9473 12.6091 63.1172 11.8864 63.1172C11.3786 63.1172 10.9294 63.0273 10.5388 62.8477C10.1481 62.668 9.84149 62.418 9.61883 62.0977C9.40008 61.7734 9.2907 61.4238 9.2907 61.0488H10.3747C10.3942 61.4121 10.5388 61.7012 10.8083 61.916C11.0817 62.127 11.4411 62.2324 11.8864 62.2324C12.2966 62.2324 12.6247 62.1504 12.8708 61.9863C13.1208 61.8184 13.2458 61.5957 13.2458 61.3184ZM16.9726 55.125V56.6602H18.1562V57.498H16.9726V61.4297C16.9726 61.6836 17.0253 61.875 17.1308 62.0039C17.2363 62.1289 17.4159 62.1914 17.6698 62.1914C17.7948 62.1914 17.9667 62.168 18.1855 62.1211V63C17.9003 63.0781 17.623 63.1172 17.3534 63.1172C16.8691 63.1172 16.5038 62.9707 16.2577 62.6777C16.0116 62.3848 15.8886 61.9688 15.8886 61.4297V57.498H14.7343V56.6602H15.8886V55.125H16.9726ZM23.1017 63C23.0392 62.875 22.9884 62.6523 22.9494 62.332C22.4455 62.8555 21.8439 63.1172 21.1447 63.1172C20.5197 63.1172 20.006 62.9414 19.6037 62.5898C19.2052 62.2344 19.006 61.7852 19.006 61.2422C19.006 60.582 19.256 60.0703 19.756 59.707C20.2599 59.3398 20.967 59.1562 21.8771 59.1562H22.9318V58.6582C22.9318 58.2793 22.8185 57.9785 22.592 57.7559C22.3654 57.5293 22.0314 57.416 21.59 57.416C21.2033 57.416 20.8791 57.5137 20.6173 57.709C20.3556 57.9043 20.2248 58.1406 20.2248 58.418H19.1349C19.1349 58.1016 19.2463 57.7969 19.4689 57.5039C19.6955 57.207 20.0002 56.9727 20.383 56.8008C20.7697 56.6289 21.1935 56.543 21.6545 56.543C22.3849 56.543 22.9572 56.7266 23.3713 57.0938C23.7853 57.457 24.0002 57.959 24.0158 58.5996V61.5176C24.0158 62.0996 24.09 62.5625 24.2384 62.9062V63H23.1017ZM21.3029 62.1738C21.6427 62.1738 21.965 62.0859 22.2697 61.9102C22.5744 61.7344 22.7951 61.5059 22.9318 61.2246V59.9238H22.0822C20.7541 59.9238 20.09 60.3125 20.09 61.0898C20.09 61.4297 20.2033 61.6953 20.4298 61.8867C20.6564 62.0781 20.9474 62.1738 21.3029 62.1738ZM28.018 62.2324C28.4047 62.2324 28.7426 62.1152 29.0316 61.8809C29.3207 61.6465 29.4809 61.3535 29.5121 61.002H30.5375C30.518 61.3652 30.393 61.7109 30.1625 62.0391C29.932 62.3672 29.6234 62.6289 29.2367 62.8242C28.8539 63.0195 28.4477 63.1172 28.018 63.1172C27.1547 63.1172 26.4672 62.8301 25.9555 62.2559C25.4477 61.6777 25.1938 60.8887 25.1938 59.8887V59.707C25.1938 59.0898 25.307 58.541 25.5336 58.0605C25.7602 57.5801 26.0844 57.207 26.5063 56.9414C26.932 56.6758 27.434 56.543 28.0121 56.543C28.723 56.543 29.3129 56.7559 29.7816 57.1816C30.2543 57.6074 30.5063 58.1602 30.5375 58.8398H29.5121C29.4809 58.4297 29.3246 58.0938 29.0434 57.832C28.766 57.5664 28.4223 57.4336 28.0121 57.4336C27.4613 57.4336 27.0336 57.6328 26.7289 58.0312C26.4281 58.4258 26.2777 58.998 26.2777 59.748V59.9531C26.2777 60.6836 26.4281 61.2461 26.7289 61.6406C27.0297 62.0352 27.4594 62.2324 28.018 62.2324ZM32.694 63H31.61V56.6602H32.694V63ZM31.5221 54.9785C31.5221 54.8027 31.5748 54.6543 31.6803 54.5332C31.7897 54.4121 31.9498 54.3516 32.1608 54.3516C32.3717 54.3516 32.5319 54.4121 32.6413 54.5332C32.7506 54.6543 32.8053 54.8027 32.8053 54.9785C32.8053 55.1543 32.7506 55.3008 32.6413 55.418C32.5319 55.5352 32.3717 55.5938 32.1608 55.5938C31.9498 55.5938 31.7897 55.5352 31.6803 55.418C31.5748 55.3008 31.5221 55.1543 31.5221 54.9785ZM33.9071 59.7715C33.9071 59.1504 34.0282 58.5918 34.2704 58.0957C34.5165 57.5996 34.8563 57.2168 35.2899 56.9473C35.7274 56.6777 36.2255 56.543 36.7841 56.543C37.6473 56.543 38.3446 56.8418 38.8759 57.4395C39.411 58.0371 39.6786 58.832 39.6786 59.8242V59.9004C39.6786 60.5176 39.5595 61.0723 39.3212 61.5645C39.0868 62.0527 38.7489 62.4336 38.3075 62.707C37.87 62.9805 37.3661 63.1172 36.7958 63.1172C35.9364 63.1172 35.2391 62.8184 34.704 62.2207C34.1727 61.623 33.9071 60.832 33.9071 59.8477V59.7715ZM34.997 59.9004C34.997 60.6035 35.1591 61.168 35.4833 61.5938C35.8114 62.0195 36.2489 62.2324 36.7958 62.2324C37.3466 62.2324 37.7841 62.0176 38.1083 61.5879C38.4325 61.1543 38.5946 60.5488 38.5946 59.7715C38.5946 59.0762 38.4286 58.5137 38.0966 58.084C37.7684 57.6504 37.3309 57.4336 36.7841 57.4336C36.2489 57.4336 35.8173 57.6465 35.4891 58.0723C35.161 58.498 34.997 59.1074 34.997 59.9004ZM41.8234 56.6602L41.8585 57.457C42.3429 56.8477 42.9757 56.543 43.757 56.543C45.0968 56.543 45.7726 57.2988 45.7843 58.8105V63H44.7003V58.8047C44.6964 58.3477 44.5909 58.0098 44.3839 57.791C44.1808 57.5723 43.8624 57.4629 43.4288 57.4629C43.0773 57.4629 42.7687 57.5566 42.503 57.7441C42.2374 57.9316 42.0304 58.1777 41.882 58.4824V63H40.798V56.6602H41.8234ZM51.0931 63C51.0306 62.875 50.9798 62.6523 50.9408 62.332C50.4369 62.8555 49.8353 63.1172 49.1361 63.1172C48.5111 63.1172 47.9974 62.9414 47.5951 62.5898C47.1966 62.2344 46.9974 61.7852 46.9974 61.2422C46.9974 60.582 47.2474 60.0703 47.7474 59.707C48.2513 59.3398 48.9584 59.1562 49.8685 59.1562H50.9232V58.6582C50.9232 58.2793 50.8099 57.9785 50.5834 57.7559C50.3568 57.5293 50.0228 57.416 49.5814 57.416C49.1947 57.416 48.8705 57.5137 48.6088 57.709C48.347 57.9043 48.2162 58.1406 48.2162 58.418H47.1263C47.1263 58.1016 47.2377 57.7969 47.4603 57.5039C47.6869 57.207 47.9916 56.9727 48.3744 56.8008C48.7611 56.6289 49.1849 56.543 49.6459 56.543C50.3763 56.543 50.9486 56.7266 51.3627 57.0938C51.7767 57.457 51.9916 57.959 52.0072 58.5996V61.5176C52.0072 62.0996 52.0814 62.5625 52.2298 62.9062V63H51.0931ZM49.2943 62.1738C49.6341 62.1738 49.9564 62.0859 50.2611 61.9102C50.5658 61.7344 50.7865 61.5059 50.9232 61.2246V59.9238H50.0736C48.7455 59.9238 48.0814 60.3125 48.0814 61.0898C48.0814 61.4297 48.1947 61.6953 48.4213 61.8867C48.6478 62.0781 48.9388 62.1738 49.2943 62.1738ZM54.4859 56.6602L54.5152 57.3633C54.9801 56.8164 55.607 56.543 56.3961 56.543C57.2828 56.543 57.8863 56.8828 58.2066 57.5625C58.4176 57.2578 58.691 57.0117 59.027 56.8242C59.3668 56.6367 59.7672 56.543 60.2281 56.543C61.6188 56.543 62.3258 57.2793 62.3492 58.752V63H61.2652V58.8164C61.2652 58.3633 61.1617 58.0254 60.9547 57.8027C60.7477 57.5762 60.4 57.4629 59.9117 57.4629C59.5094 57.4629 59.1754 57.584 58.9098 57.8262C58.6441 58.0645 58.4898 58.3867 58.4469 58.793V63H57.357V58.8457C57.357 57.9238 56.9059 57.4629 56.0035 57.4629C55.2926 57.4629 54.8063 57.7656 54.5445 58.3711V63H53.4605V56.6602H54.4859ZM66.3807 63.1172C65.5213 63.1172 64.8221 62.8359 64.283 62.2734C63.744 61.707 63.4745 60.9512 63.4745 60.0059V59.8066C63.4745 59.1777 63.5936 58.6172 63.8319 58.125C64.0741 57.6289 64.41 57.2422 64.8397 56.9648C65.2733 56.6836 65.742 56.543 66.2459 56.543C67.0702 56.543 67.7108 56.8145 68.1678 57.3574C68.6248 57.9004 68.8534 58.6777 68.8534 59.6895V60.1406H64.5584C64.5741 60.7656 64.7557 61.2715 65.1034 61.6582C65.4549 62.041 65.9002 62.2324 66.4393 62.2324C66.8221 62.2324 67.1463 62.1543 67.412 61.998C67.6776 61.8418 67.91 61.6348 68.1092 61.377L68.7713 61.8926C68.2401 62.709 67.4432 63.1172 66.3807 63.1172ZM66.2459 57.4336C65.8084 57.4336 65.4412 57.5938 65.1444 57.9141C64.8475 58.2305 64.6639 58.6758 64.5936 59.25H67.7694V59.168C67.7381 58.6172 67.5897 58.1914 67.3241 57.8906C67.0584 57.5859 66.6991 57.4336 66.2459 57.4336ZM70.8985 56.6602L70.9337 57.457C71.418 56.8477 72.0509 56.543 72.8321 56.543C74.172 56.543 74.8477 57.2988 74.8595 58.8105V63H73.7755V58.8047C73.7716 58.3477 73.6661 58.0098 73.4591 57.791C73.2559 57.5723 72.9376 57.4629 72.504 57.4629C72.1524 57.4629 71.8438 57.5566 71.5782 57.7441C71.3126 57.9316 71.1055 58.1777 70.9571 58.4824V63H69.8731V56.6602H70.8985ZM77.7249 55.125V56.6602H78.9085V57.498H77.7249V61.4297C77.7249 61.6836 77.7777 61.875 77.8831 62.0039C77.9886 62.1289 78.1683 62.1914 78.4222 62.1914C78.5472 62.1914 78.7191 62.168 78.9378 62.1211V63C78.6527 63.0781 78.3753 63.1172 78.1058 63.1172C77.6214 63.1172 77.2562 62.9707 77.0101 62.6777C76.764 62.3848 76.6409 61.9688 76.6409 61.4297V57.498H75.4866V56.6602H76.6409V55.125H77.7249ZM79.5357 59.7715C79.5357 59.1504 79.6568 58.5918 79.899 58.0957C80.1451 57.5996 80.4849 57.2168 80.9185 56.9473C81.356 56.6777 81.8541 56.543 82.4127 56.543C83.2759 56.543 83.9732 56.8418 84.5045 57.4395C85.0396 58.0371 85.3072 58.832 85.3072 59.8242V59.9004C85.3072 60.5176 85.188 61.0723 84.9498 61.5645C84.7154 62.0527 84.3775 62.4336 83.9361 62.707C83.4986 62.9805 82.9947 63.1172 82.4244 63.1172C81.565 63.1172 80.8677 62.8184 80.3326 62.2207C79.8013 61.623 79.5357 60.832 79.5357 59.8477V59.7715ZM80.6255 59.9004C80.6255 60.6035 80.7877 61.168 81.1119 61.5938C81.44 62.0195 81.8775 62.2324 82.4244 62.2324C82.9752 62.2324 83.4127 62.0176 83.7369 61.5879C84.0611 61.1543 84.2232 60.5488 84.2232 59.7715C84.2232 59.0762 84.0572 58.5137 83.7252 58.084C83.397 57.6504 82.9595 57.4336 82.4127 57.4336C81.8775 57.4336 81.4459 57.6465 81.1177 58.0723C80.7896 58.498 80.6255 59.1074 80.6255 59.9004Z" fill="#666666"/>
</svg>
