<svg width="55" height="87" viewBox="0 0 55 87" fill="none" xmlns="http://www.w3.org/2000/svg">
<path d="M8.23047 63.2324H4.65039V67H3.52539V58.4688H8.81055V59.3945H4.65039V62.3125H8.23047V63.2324ZM13.7031 67C13.6406 66.875 13.5898 66.6523 13.5508 66.332C13.0469 66.8555 12.4453 67.1172 11.7461 67.1172C11.1211 67.1172 10.6074 66.9414 10.2051 66.5898C9.80664 66.2344 9.60742 65.7852 9.60742 65.2422C9.60742 64.582 9.85742 64.0703 10.3574 63.707C10.8613 63.3398 11.5684 63.1562 12.4785 63.1562H13.5332V62.6582C13.5332 62.2793 13.4199 61.9785 13.1934 61.7559C12.9668 61.5293 12.6328 61.416 12.1914 61.416C11.8047 61.416 11.4805 61.5137 11.2188 61.709C10.957 61.9043 10.8262 62.1406 10.8262 62.418H9.73633C9.73633 62.1016 9.84766 61.7969 10.0703 61.5039C10.2969 61.207 10.6016 60.9727 10.9844 60.8008C11.3711 60.6289 11.7949 60.543 12.2559 60.543C12.9863 60.543 13.5586 60.7266 13.9727 61.0938C14.3867 61.457 14.6016 61.959 14.6172 62.5996V65.5176C14.6172 66.0996 14.6914 66.5625 14.8398 66.9062V67H13.7031ZM11.9043 66.1738C12.2441 66.1738 12.5664 66.0859 12.8711 65.9102C13.1758 65.7344 13.3965 65.5059 13.5332 65.2246V63.9238H12.6836C11.3555 63.9238 10.6914 64.3125 10.6914 65.0898C10.6914 65.4297 10.8047 65.6953 11.0312 65.8867C11.2578 66.0781 11.5488 66.1738 11.9043 66.1738ZM19.3809 61.6328C19.2168 61.6055 19.0391 61.5918 18.8477 61.5918C18.1367 61.5918 17.6543 61.8945 17.4004 62.5V67H16.3164V60.6602H17.3711L17.3887 61.3926C17.7441 60.8262 18.248 60.543 18.9004 60.543C19.1113 60.543 19.2715 60.5703 19.3809 60.625V61.6328ZM21.4023 60.6602L21.4316 61.3633C21.8965 60.8164 22.5234 60.543 23.3125 60.543C24.1992 60.543 24.8027 60.8828 25.123 61.5625C25.334 61.2578 25.6074 61.0117 25.9434 60.8242C26.2832 60.6367 26.6836 60.543 27.1445 60.543C28.5352 60.543 29.2422 61.2793 29.2656 62.752V67H28.1816V62.8164C28.1816 62.3633 28.0781 62.0254 27.8711 61.8027C27.6641 61.5762 27.3164 61.4629 26.8281 61.4629C26.4258 61.4629 26.0918 61.584 25.8262 61.8262C25.5605 62.0645 25.4062 62.3867 25.3633 62.793V67H24.2734V62.8457C24.2734 61.9238 23.8223 61.4629 22.9199 61.4629C22.209 61.4629 21.7227 61.7656 21.4609 62.3711V67H20.377V60.6602H21.4023ZM34.8203 67C34.7578 66.875 34.707 66.6523 34.668 66.332C34.1641 66.8555 33.5625 67.1172 32.8633 67.1172C32.2383 67.1172 31.7246 66.9414 31.3223 66.5898C30.9238 66.2344 30.7246 65.7852 30.7246 65.2422C30.7246 64.582 30.9746 64.0703 31.4746 63.707C31.9785 63.3398 32.6855 63.1562 33.5957 63.1562H34.6504V62.6582C34.6504 62.2793 34.5371 61.9785 34.3105 61.7559C34.084 61.5293 33.75 61.416 33.3086 61.416C32.9219 61.416 32.5977 61.5137 32.3359 61.709C32.0742 61.9043 31.9434 62.1406 31.9434 62.418H30.8535C30.8535 62.1016 30.9648 61.7969 31.1875 61.5039C31.4141 61.207 31.7188 60.9727 32.1016 60.8008C32.4883 60.6289 32.9121 60.543 33.373 60.543C34.1035 60.543 34.6758 60.7266 35.0898 61.0938C35.5039 61.457 35.7188 61.959 35.7344 62.5996V65.5176C35.7344 66.0996 35.8086 66.5625 35.957 66.9062V67H34.8203ZM33.0215 66.1738C33.3613 66.1738 33.6836 66.0859 33.9883 65.9102C34.293 65.7344 34.5137 65.5059 34.6504 65.2246V63.9238H33.8008C32.4727 63.9238 31.8086 64.3125 31.8086 65.0898C31.8086 65.4297 31.9219 65.6953 32.1484 65.8867C32.375 66.0781 32.666 66.1738 33.0215 66.1738ZM34.0234 58H35.3359L33.7656 59.7227H32.8926L34.0234 58ZM39.9766 66.2324C40.3633 66.2324 40.7012 66.1152 40.9902 65.8809C41.2793 65.6465 41.4395 65.3535 41.4707 65.002H42.4961C42.4766 65.3652 42.3516 65.7109 42.1211 66.0391C41.8906 66.3672 41.582 66.6289 41.1953 66.8242C40.8125 67.0195 40.4062 67.1172 39.9766 67.1172C39.1133 67.1172 38.4258 66.8301 37.9141 66.2559C37.4062 65.6777 37.1523 64.8887 37.1523 63.8887V63.707C37.1523 63.0898 37.2656 62.541 37.4922 62.0605C37.7188 61.5801 38.043 61.207 38.4648 60.9414C38.8906 60.6758 39.3926 60.543 39.9707 60.543C40.6816 60.543 41.2715 60.7559 41.7402 61.1816C42.2129 61.6074 42.4648 62.1602 42.4961 62.8398H41.4707C41.4395 62.4297 41.2832 62.0938 41.002 61.832C40.7246 61.5664 40.3809 61.4336 39.9707 61.4336C39.4199 61.4336 38.9922 61.6328 38.6875 62.0312C38.3867 62.4258 38.2363 62.998 38.2363 63.748V63.9531C38.2363 64.6836 38.3867 65.2461 38.6875 65.6406C38.9883 66.0352 39.418 66.2324 39.9766 66.2324ZM44.8926 67H43.8086V60.6602H44.8926V67ZM43.7207 58.9785C43.7207 58.8027 43.7734 58.6543 43.8789 58.5332C43.9883 58.4121 44.1484 58.3516 44.3594 58.3516C44.5703 58.3516 44.7305 58.4121 44.8398 58.5332C44.9492 58.6543 45.0039 58.8027 45.0039 58.9785C45.0039 59.1543 44.9492 59.3008 44.8398 59.418C44.7305 59.5352 44.5703 59.5938 44.3594 59.5938C44.1484 59.5938 43.9883 59.5352 43.8789 59.418C43.7734 59.3008 43.7207 59.1543 43.7207 58.9785ZM50.5469 67C50.4844 66.875 50.4336 66.6523 50.3945 66.332C49.8906 66.8555 49.2891 67.1172 48.5898 67.1172C47.9648 67.1172 47.4512 66.9414 47.0488 66.5898C46.6504 66.2344 46.4512 65.7852 46.4512 65.2422C46.4512 64.582 46.7012 64.0703 47.2012 63.707C47.7051 63.3398 48.4121 63.1562 49.3223 63.1562H50.377V62.6582C50.377 62.2793 50.2637 61.9785 50.0371 61.7559C49.8105 61.5293 49.4766 61.416 49.0352 61.416C48.6484 61.416 48.3242 61.5137 48.0625 61.709C47.8008 61.9043 47.6699 62.1406 47.6699 62.418H46.5801C46.5801 62.1016 46.6914 61.7969 46.9141 61.5039C47.1406 61.207 47.4453 60.9727 47.8281 60.8008C48.2148 60.6289 48.6387 60.543 49.0996 60.543C49.8301 60.543 50.4023 60.7266 50.8164 61.0938C51.2305 61.457 51.4453 61.959 51.4609 62.5996V65.5176C51.4609 66.0996 51.5352 66.5625 51.6836 66.9062V67H50.5469ZM48.748 66.1738C49.0879 66.1738 49.4102 66.0859 49.7148 65.9102C50.0195 65.7344 50.2402 65.5059 50.377 65.2246V63.9238H49.5273C48.1992 63.9238 47.5352 64.3125 47.5352 65.0898C47.5352 65.4297 47.6484 65.6953 47.875 65.8867C48.1016 66.0781 48.3926 66.1738 48.748 66.1738ZM13.3867 79.9004C13.3867 80.8652 13.166 81.6426 12.7246 82.2324C12.2832 82.8223 11.6855 83.1172 10.9316 83.1172C10.1621 83.1172 9.55664 82.873 9.11523 82.3848V85.4375H8.03125V76.6602H9.02148L9.07422 77.3633C9.51562 76.8164 10.1289 76.543 10.9141 76.543C11.6758 76.543 12.2773 76.8301 12.7188 77.4043C13.1641 77.9785 13.3867 78.7773 13.3867 79.8008V79.9004ZM12.3027 79.7773C12.3027 79.0625 12.1504 78.498 11.8457 78.084C11.541 77.6699 11.123 77.4629 10.5918 77.4629C9.93555 77.4629 9.44336 77.7539 9.11523 78.3359V81.3652C9.43945 81.9434 9.93555 82.2324 10.6035 82.2324C11.123 82.2324 11.5352 82.0273 11.8398 81.6172C12.1484 81.2031 12.3027 80.5898 12.3027 79.7773ZM14.4824 79.7715C14.4824 79.1504 14.6035 78.5918 14.8457 78.0957C15.0918 77.5996 15.4316 77.2168 15.8652 76.9473C16.3027 76.6777 16.8008 76.543 17.3594 76.543C18.2227 76.543 18.9199 76.8418 19.4512 77.4395C19.9863 78.0371 20.2539 78.832 20.2539 79.8242V79.9004C20.2539 80.5176 20.1348 81.0723 19.8965 81.5645C19.6621 82.0527 19.3242 82.4336 18.8828 82.707C18.4453 82.9805 17.9414 83.1172 17.3711 83.1172C16.5117 83.1172 15.8145 82.8184 15.2793 82.2207C14.748 81.623 14.4824 80.832 14.4824 79.8477V79.7715ZM15.5723 79.9004C15.5723 80.6035 15.7344 81.168 16.0586 81.5938C16.3867 82.0195 16.8242 82.2324 17.3711 82.2324C17.9219 82.2324 18.3594 82.0176 18.6836 81.5879C19.0078 81.1543 19.1699 80.5488 19.1699 79.7715C19.1699 79.0762 19.0039 78.5137 18.6719 78.084C18.3438 77.6504 17.9062 77.4336 17.3594 77.4336C16.8242 77.4336 16.3926 77.6465 16.0645 78.0723C15.7363 78.498 15.5723 79.1074 15.5723 79.9004ZM26.9688 79.9004C26.9688 80.8652 26.748 81.6426 26.3066 82.2324C25.8652 82.8223 25.2676 83.1172 24.5137 83.1172C23.7441 83.1172 23.1387 82.873 22.6973 82.3848V85.4375H21.6133V76.6602H22.6035L22.6562 77.3633C23.0977 76.8164 23.7109 76.543 24.4961 76.543C25.2578 76.543 25.8594 76.8301 26.3008 77.4043C26.7461 77.9785 26.9688 78.7773 26.9688 79.8008V79.9004ZM25.8848 79.7773C25.8848 79.0625 25.7324 78.498 25.4277 78.084C25.123 77.6699 24.7051 77.4629 24.1738 77.4629C23.5176 77.4629 23.0254 77.7539 22.6973 78.3359V81.3652C23.0215 81.9434 23.5176 82.2324 24.1855 82.2324C24.7051 82.2324 25.1172 82.0273 25.4219 81.6172C25.7305 81.2031 25.8848 80.5898 25.8848 79.7773ZM32.2656 82.373C31.8438 82.8691 31.2246 83.1172 30.4082 83.1172C29.7324 83.1172 29.2168 82.9219 28.8613 82.5312C28.5098 82.1367 28.332 81.5547 28.3281 80.7852V76.6602H29.4121V80.7559C29.4121 81.7168 29.8027 82.1973 30.584 82.1973C31.4121 82.1973 31.9629 81.8887 32.2363 81.2715V76.6602H33.3203V83H32.2891L32.2656 82.373ZM36.1504 83H35.0664V74H36.1504V83ZM41.8047 83C41.7422 82.875 41.6914 82.6523 41.6523 82.332C41.1484 82.8555 40.5469 83.1172 39.8477 83.1172C39.2227 83.1172 38.709 82.9414 38.3066 82.5898C37.9082 82.2344 37.709 81.7852 37.709 81.2422C37.709 80.582 37.959 80.0703 38.459 79.707C38.9629 79.3398 39.6699 79.1562 40.5801 79.1562H41.6348V78.6582C41.6348 78.2793 41.5215 77.9785 41.2949 77.7559C41.0684 77.5293 40.7344 77.416 40.293 77.416C39.9062 77.416 39.582 77.5137 39.3203 77.709C39.0586 77.9043 38.9277 78.1406 38.9277 78.418H37.8379C37.8379 78.1016 37.9492 77.7969 38.1719 77.5039C38.3984 77.207 38.7031 76.9727 39.0859 76.8008C39.4727 76.6289 39.8965 76.543 40.3574 76.543C41.0879 76.543 41.6602 76.7266 42.0742 77.0938C42.4883 77.457 42.7031 77.959 42.7188 78.5996V81.5176C42.7188 82.0996 42.793 82.5625 42.9414 82.9062V83H41.8047ZM40.0059 82.1738C40.3457 82.1738 40.668 82.0859 40.9727 81.9102C41.2773 81.7344 41.498 81.5059 41.6348 81.2246V79.9238H40.7852C39.457 79.9238 38.793 80.3125 38.793 81.0898C38.793 81.4297 38.9062 81.6953 39.1328 81.8867C39.3594 82.0781 39.6504 82.1738 40.0059 82.1738ZM47.4824 77.6328C47.3184 77.6055 47.1406 77.5918 46.9492 77.5918C46.2383 77.5918 45.7559 77.8945 45.502 78.5V83H44.418V76.6602H45.4727L45.4902 77.3926C45.8457 76.8262 46.3496 76.543 47.002 76.543C47.2129 76.543 47.373 76.5703 47.4824 76.625V77.6328Z" fill="#007DC5"/>
<g filter="url(#filter0_d)">
<circle cx="27.75" cy="27" r="22.5" fill="#E7F3F9" stroke="#007DC5"/>
</g>
<path fill-rule="evenodd" clip-rule="evenodd" d="M30.5938 30.0625H28.875V28.3438C28.875 28.1539 28.7211 28 28.5313 28H27.1563C26.9664 28 26.8125 28.1539 26.8125 28.3438V30.0625H25.0938C24.9039 30.0625 24.75 30.2164 24.75 30.4063V31.7813C24.75 31.9711 24.9039 32.125 25.0938 32.125H26.8125V33.8438C26.8125 34.0336 26.9664 34.1875 27.1563 34.1875H28.5313C28.7211 34.1875 28.875 34.0336 28.875 33.8438V32.125H30.5938C30.7836 32.125 30.9375 31.9711 30.9375 31.7813V30.4063C30.9375 30.2164 30.7836 30.0625 30.5938 30.0625Z" stroke="#007DC5" stroke-linecap="round" stroke-linejoin="round"/>
<path d="M37.5 27.75V36.75C37.5 37.5784 36.8284 38.25 36 38.25H19.5C18.6716 38.25 18 37.5784 18 36.75V27.75" stroke="#007DC5" stroke-width="1.2" stroke-linecap="round" stroke-linejoin="round"/>
<path fill-rule="evenodd" clip-rule="evenodd" d="M36.898 15.75H18.602C18.2504 15.7499 17.9458 15.9939 17.869 16.337L16.5 22.5C16.5 23.7426 17.5074 24.75 18.75 24.75C19.9926 24.75 21 23.7426 21 22.5C21 23.7426 22.0074 24.75 23.25 24.75C24.4926 24.75 25.5 23.7426 25.5 22.5C25.5 23.7426 26.5074 24.75 27.75 24.75C28.9926 24.75 30 23.7426 30 22.5C30 23.7426 31.0074 24.75 32.25 24.75C33.4926 24.75 34.5 23.7426 34.5 22.5C34.5 23.7426 35.5074 24.75 36.75 24.75C37.9926 24.75 39 23.7426 39 22.5L37.63 16.337C37.554 15.9938 37.2495 15.7497 36.898 15.75Z" stroke="#007DC5" stroke-width="1.2" stroke-linecap="round" stroke-linejoin="round"/>
<defs>
<filter id="filter0_d" x="0.75" y="0" width="54" height="54" filterUnits="userSpaceOnUse" color-interpolation-filters="sRGB">
<feFlood flood-opacity="0" result="BackgroundImageFix"/>
<feColorMatrix in="SourceAlpha" type="matrix" values="0 0 0 0 0 0 0 0 0 0 0 0 0 0 0 0 0 0 127 0"/>
<feOffset/>
<feGaussianBlur stdDeviation="2"/>
<feColorMatrix type="matrix" values="0 0 0 0 0 0 0 0 0 0 0 0 0 0 0 0 0 0 0.1 0"/>
<feBlend mode="normal" in2="BackgroundImageFix" result="effect1_dropShadow"/>
<feBlend mode="normal" in="SourceGraphic" in2="effect1_dropShadow" result="shape"/>
</filter>
</defs>
</svg>
