<svg width="182" height="21" viewBox="0 0 182 21" fill="none" xmlns="http://www.w3.org/2000/svg">
<g clip-path="url(#clip0)">
<path d="M0 0.0390625H19.2411V18.9657H0V0.0390625Z" fill="#ED1C24"/>
<path d="M16.4969 6.61464H12.5396V2.75977H6.68975V6.61464H2.73047V12.3272H6.68843V16.1795H12.5383V12.3272H16.4956" fill="white"/>
<path d="M35.976 11.6769H32.183L31.0363 16.2052H26.1445L29.6865 2.66211H38.2714C41.1398 2.66211 43.2611 4.26508 43.2611 6.31726C43.2611 9.95109 39.8177 11.6769 35.976 11.6769ZM35.5259 5.15899H33.8541L32.806 9.17934H34.1038C36.2501 9.17934 38.2964 8.79411 38.2964 6.72318C38.2964 5.60498 36.7738 5.15899 35.5259 5.15899ZM55.8355 13.1997C55.4366 14.6818 55.3624 15.575 55.3124 16.2052H50.5718C50.6467 15.6966 50.8715 14.824 51.0463 14.0322C49.9975 15.4128 48.651 16.4282 46.4055 16.4282C43.6107 16.4282 42.3135 15.0476 42.3135 13.1189C42.3135 8.12254 48.0044 5.72778 52.7489 5.72778C54.4443 5.72778 56.7443 5.97082 57.6643 6.2759L55.8368 13.1997H55.8355ZM51.9433 8.06308C49.6722 8.06308 47.202 9.99245 47.202 12.6522C47.202 13.4033 47.5273 14.0122 48.5754 14.0122C50.1223 14.0122 51.3945 12.2056 52.0688 9.95173L52.6175 8.14452C52.3941 8.07988 52.1443 8.06049 51.9472 8.06049L51.9433 8.06308ZM70.9386 14.4336C69.7163 18.9969 67.62 20.7873 61.4823 20.7873C59.5372 20.7873 57.6906 20.5029 56.6195 20.2185L57.4475 17.7171C58.7946 18.2665 60.0695 18.4281 61.2129 18.4281C64.3869 18.4281 65.4843 17.2065 66.0297 15.4613L66.378 14.3625C65.1748 15.63 63.8999 16.1988 61.8562 16.1988C59.0614 16.1988 57.7373 14.8996 57.7373 13.1124C57.7373 8.09669 63.6279 5.74265 68.3948 5.74265C69.9917 5.74265 72.1622 5.98568 73.1098 6.27008L70.9399 14.4271L70.9386 14.4336ZM67.4229 8.07342C65.1557 8.07342 62.6323 9.99956 62.6323 12.7401C62.6323 13.5093 62.9083 14.0781 63.9335 14.0781C65.8063 14.0781 66.9826 11.8675 67.5017 10.0383L68.0537 8.15098C67.8303 8.08634 67.6332 8.06695 67.4295 8.06695L67.4229 8.07342ZM85.9477 13.9747C85.7769 14.6857 85.5731 15.4561 85.5008 16.1871H81.1571L81.5054 14.3806C80.4606 15.4988 79.0872 16.4127 76.9646 16.4127C74.9209 16.4127 73.4489 15.7211 73.4489 13.976C73.4489 13.6108 73.4752 13.2456 73.5737 12.8791L75.373 5.91781H79.9907L78.3939 12.0905C78.3183 12.3943 78.2427 12.7188 78.2427 13.0239C78.2427 13.6554 78.6173 14.0387 79.5163 14.0387C80.962 14.0387 81.6125 12.923 81.8623 11.9283L83.4105 5.91846H88.0256L85.9556 13.9785L85.9477 13.9747ZM93.012 12.0873C92.9134 12.2683 92.9134 12.5139 92.9134 12.6949C92.9134 13.9747 94.3657 14.3819 95.7063 14.3819C97.1323 14.3819 98.6568 13.9553 99.8265 13.3238L99.4907 15.5524C97.8689 16.1833 96.1965 16.425 94.1758 16.425C91.2791 16.425 88.2089 15.5944 88.2089 12.8506C88.2089 8.64932 92.0269 5.74588 96.8668 5.74588C99.1122 5.74588 101.907 6.29529 101.907 8.42827C101.907 11.576 96.0191 12.1022 92.9995 12.1022L93.012 12.0873ZM96.5941 7.75864C94.9486 7.75864 93.8498 9.12052 93.3254 10.2575C95.2489 10.2575 97.842 9.85026 97.842 8.63381C97.842 8.00555 97.2965 7.76123 96.5934 7.76123L96.5941 7.75864ZM122.675 16.2195H118.233L121.124 5.0504L114.067 16.2182H109.953L108.724 5.02972L105.833 16.2182H101.594L105.142 2.67245H112.371L113.218 11.9302L118.934 2.66793H126.219L122.675 16.2195ZM130.642 12.1112C130.541 12.2922 130.541 12.5378 130.541 12.7188C130.541 13.9986 131.987 14.4019 133.334 14.4019C134.76 14.4019 136.278 13.9753 137.454 13.3464L137.132 15.5621C135.509 16.1923 133.84 16.4347 131.816 16.4347C128.925 16.4347 125.856 15.6028 125.856 12.8623C125.856 8.66096 129.674 5.75558 134.517 5.75558C136.763 5.75558 139.557 6.3011 139.557 8.43409C139.557 11.5818 133.668 12.1073 130.649 12.1073L130.642 12.1112ZM134.244 7.76123C132.594 7.76123 131.497 9.11858 130.974 10.2562C132.897 10.2562 135.492 9.84896 135.492 8.63381C135.492 8.00296 134.945 7.76123 134.243 7.76123H134.244ZM153.662 9.30408L151.866 16.2072H147.252L148.849 10.0765C148.926 9.75136 149.027 9.44757 149.027 9.14249C149.027 8.53492 148.678 8.12771 147.779 8.12771C146.331 8.12771 145.633 9.24591 145.384 10.2413L143.836 16.2098H139.22L141.316 8.16908C141.517 7.43869 141.691 6.70637 141.767 5.95466H146.133L145.734 7.76446C146.956 6.36833 148.178 5.75429 150.299 5.75429C152.297 5.75429 153.817 6.44589 153.817 8.19105C153.815 8.55948 153.765 8.92144 153.666 9.30925L153.662 9.30408ZM160.454 16.4386C157.537 16.4386 154.616 15.4044 154.616 12.6832C154.616 8.48192 158.135 5.76075 163.249 5.76075C166.17 5.76075 169.089 6.75614 169.089 9.4967C169.089 13.6786 165.546 16.4425 160.456 16.4425L160.454 16.4386ZM162.575 8.13676C160.452 8.13676 159.457 11.0583 159.457 12.4609C159.457 13.3529 159.854 14.0639 161.077 14.0639C163.199 14.0639 164.246 11.1423 164.246 9.73973C164.246 8.82836 163.796 8.13676 162.574 8.13676H162.575ZM180.494 8.42116C179.421 8.05467 178.273 7.81164 177.099 7.81164C176.304 7.81164 174.779 7.93445 174.779 8.78764C174.779 10.1282 180.418 9.98664 180.418 12.6878C180.418 15.7515 176.455 16.4431 173.432 16.4431C171.888 16.4431 170.367 16.2815 168.891 15.915L169.739 13.5364C170.837 14.0212 172.039 14.3276 173.307 14.3276C174.181 14.3276 175.929 14.166 175.929 13.2326C175.929 11.9141 170.416 12.1183 170.416 9.31572C170.416 6.45235 174.533 5.74136 177.329 5.74136C178.676 5.74136 180.097 5.94625 181.397 6.23L180.497 8.42504L180.494 8.42116Z" fill="white"/>
</g>
<defs>
<clipPath id="clip0">
<rect width="181.371" height="20.7539" fill="white" transform="translate(0 0.0390625)"/>
</clipPath>
</defs>
</svg>
