<svg width="70" height="67" viewBox="0 0 70 67" fill="none" xmlns="http://www.w3.org/2000/svg">
<circle cx="35" cy="23" r="22.5" fill="#E7F3F9" stroke="#007DC5"/>
<path d="M23.75 22H46.25" stroke="#007DC5" stroke-width="1.5" stroke-linecap="round" stroke-linejoin="round"/>
<path fill-rule="evenodd" clip-rule="evenodd" d="M44.75 22H25.25C25.2495 25.6417 27.2805 28.9796 30.515 30.653C30.7011 30.7499 30.8382 30.9201 30.8932 31.1225C30.9483 31.325 30.9163 31.5412 30.805 31.719C30.5617 32.1116 30.3453 32.5202 30.157 32.942C30.0525 33.1741 30.0728 33.4434 30.211 33.6572C30.3492 33.871 30.5864 34.0001 30.841 34H39.159C39.4134 33.9995 39.6502 33.8703 39.7883 33.6567C39.9264 33.4431 39.947 33.1741 39.843 32.942C39.6547 32.5202 39.4383 32.1116 39.195 31.719C39.084 31.5411 39.0522 31.325 39.1072 31.1227C39.1623 30.9203 39.2992 30.7501 39.485 30.653C42.7195 28.9796 44.7505 25.6417 44.75 22Z" stroke="#007DC5" stroke-width="1.5" stroke-linecap="round" stroke-linejoin="round"/>
<path d="M37.25 18.9995L41.207 12.4045C41.5245 11.8755 42.1668 11.6381 42.752 11.8335V11.8335C43.0834 11.9439 43.3573 12.1815 43.5133 12.494C43.6694 12.8065 43.6948 13.1682 43.584 13.4995L41.75 18.9995" stroke="#007DC5" stroke-width="1.5" stroke-linecap="round" stroke-linejoin="round"/>
<path d="M2.94336 54.4688L5.73242 61.4297L8.52148 54.4688H9.98047V63H8.85547V59.6777L8.96094 56.0918L6.16016 63H5.29883L2.50391 56.1094L2.61523 59.6777V63H1.49023V54.4688H2.94336ZM15.7109 63C15.6484 62.875 15.5977 62.6523 15.5586 62.332C15.0547 62.8555 14.4531 63.1172 13.7539 63.1172C13.1289 63.1172 12.6152 62.9414 12.2129 62.5898C11.8145 62.2344 11.6152 61.7852 11.6152 61.2422C11.6152 60.582 11.8652 60.0703 12.3652 59.707C12.8691 59.3398 13.5762 59.1562 14.4863 59.1562H15.541V58.6582C15.541 58.2793 15.4277 57.9785 15.2012 57.7559C14.9746 57.5293 14.6406 57.416 14.1992 57.416C13.8125 57.416 13.4883 57.5137 13.2266 57.709C12.9648 57.9043 12.834 58.1406 12.834 58.418H11.7441C11.7441 58.1016 11.8555 57.7969 12.0781 57.5039C12.3047 57.207 12.6094 56.9727 12.9922 56.8008C13.3789 56.6289 13.8027 56.543 14.2637 56.543C14.9941 56.543 15.5664 56.7266 15.9805 57.0938C16.3945 57.457 16.6094 57.959 16.625 58.5996V61.5176C16.625 62.0996 16.6992 62.5625 16.8477 62.9062V63H15.7109ZM13.9121 62.1738C14.252 62.1738 14.5742 62.0859 14.8789 61.9102C15.1836 61.7344 15.4043 61.5059 15.541 61.2246V59.9238H14.6914C13.3633 59.9238 12.6992 60.3125 12.6992 61.0898C12.6992 61.4297 12.8125 61.6953 13.0391 61.8867C13.2656 62.0781 13.5566 62.1738 13.9121 62.1738ZM19.3496 56.6602L19.3848 57.457C19.8691 56.8477 20.502 56.543 21.2832 56.543C22.623 56.543 23.2988 57.2988 23.3105 58.8105V63H22.2266V58.8047C22.2227 58.3477 22.1172 58.0098 21.9102 57.791C21.707 57.5723 21.3887 57.4629 20.9551 57.4629C20.6035 57.4629 20.2949 57.5566 20.0293 57.7441C19.7637 57.9316 19.5566 58.1777 19.4082 58.4824V63H18.3242V56.6602H19.3496ZM26.123 63H25.0391V56.6602H26.123V63ZM24.9512 54.9785C24.9512 54.8027 25.0039 54.6543 25.1094 54.5332C25.2188 54.4121 25.3789 54.3516 25.5898 54.3516C25.8008 54.3516 25.9609 54.4121 26.0703 54.5332C26.1797 54.6543 26.2344 54.8027 26.2344 54.9785C26.2344 55.1543 26.1797 55.3008 26.0703 55.418C25.9609 55.5352 25.8008 55.5938 25.5898 55.5938C25.3789 55.5938 25.2188 55.5352 25.1094 55.418C25.0039 55.3008 24.9512 55.1543 24.9512 54.9785ZM33.2188 59.9004C33.2188 60.8652 32.998 61.6426 32.5566 62.2324C32.1152 62.8223 31.5176 63.1172 30.7637 63.1172C29.9941 63.1172 29.3887 62.873 28.9473 62.3848V65.4375H27.8633V56.6602H28.8535L28.9062 57.3633C29.3477 56.8164 29.9609 56.543 30.7461 56.543C31.5078 56.543 32.1094 56.8301 32.5508 57.4043C32.9961 57.9785 33.2188 58.7773 33.2188 59.8008V59.9004ZM32.1348 59.7773C32.1348 59.0625 31.9824 58.498 31.6777 58.084C31.373 57.6699 30.9551 57.4629 30.4238 57.4629C29.7676 57.4629 29.2754 57.7539 28.9473 58.3359V61.3652C29.2715 61.9434 29.7676 62.2324 30.4355 62.2324C30.9551 62.2324 31.3672 62.0273 31.6719 61.6172C31.9805 61.2031 32.1348 60.5898 32.1348 59.7773ZM38.5156 62.373C38.0938 62.8691 37.4746 63.1172 36.6582 63.1172C35.9824 63.1172 35.4668 62.9219 35.1113 62.5312C34.7598 62.1367 34.582 61.5547 34.5781 60.7852V56.6602H35.6621V60.7559C35.6621 61.7168 36.0527 62.1973 36.834 62.1973C37.6621 62.1973 38.2129 61.8887 38.4863 61.2715V56.6602H39.5703V63H38.5391L38.5156 62.373ZM42.4004 63H41.3164V54H42.4004V63ZM48.0547 63C47.9922 62.875 47.9414 62.6523 47.9023 62.332C47.3984 62.8555 46.7969 63.1172 46.0977 63.1172C45.4727 63.1172 44.959 62.9414 44.5566 62.5898C44.1582 62.2344 43.959 61.7852 43.959 61.2422C43.959 60.582 44.209 60.0703 44.709 59.707C45.2129 59.3398 45.9199 59.1562 46.8301 59.1562H47.8848V58.6582C47.8848 58.2793 47.7715 57.9785 47.5449 57.7559C47.3184 57.5293 46.9844 57.416 46.543 57.416C46.1562 57.416 45.832 57.5137 45.5703 57.709C45.3086 57.9043 45.1777 58.1406 45.1777 58.418H44.0879C44.0879 58.1016 44.1992 57.7969 44.4219 57.5039C44.6484 57.207 44.9531 56.9727 45.3359 56.8008C45.7227 56.6289 46.1465 56.543 46.6074 56.543C47.3379 56.543 47.9102 56.7266 48.3242 57.0938C48.7383 57.457 48.9531 57.959 48.9688 58.5996V61.5176C48.9688 62.0996 49.043 62.5625 49.1914 62.9062V63H48.0547ZM46.2559 62.1738C46.5957 62.1738 46.918 62.0859 47.2227 61.9102C47.5273 61.7344 47.748 61.5059 47.8848 61.2246V59.9238H47.0352C45.707 59.9238 45.043 60.3125 45.043 61.0898C45.043 61.4297 45.1562 61.6953 45.3828 61.8867C45.6094 62.0781 45.9004 62.1738 46.2559 62.1738ZM53.2109 62.2324C53.5977 62.2324 53.9355 62.1152 54.2246 61.8809C54.5137 61.6465 54.6738 61.3535 54.7051 61.002H55.7305C55.7109 61.3652 55.5859 61.7109 55.3555 62.0391C55.125 62.3672 54.8164 62.6289 54.4297 62.8242C54.0469 63.0195 53.6406 63.1172 53.2109 63.1172C52.3477 63.1172 51.6602 62.8301 51.1484 62.2559C50.6406 61.6777 50.3867 60.8887 50.3867 59.8887V59.707C50.3867 59.0898 50.5 58.541 50.7266 58.0605C50.9531 57.5801 51.2773 57.207 51.6992 56.9414C52.125 56.6758 52.627 56.543 53.2051 56.543C53.916 56.543 54.5059 56.7559 54.9746 57.1816C55.4473 57.6074 55.6992 58.1602 55.7305 58.8398H54.7051C54.6738 58.4297 54.5176 58.0938 54.2363 57.832C53.959 57.5664 53.6152 57.4336 53.2051 57.4336C52.6543 57.4336 52.2266 57.6328 51.9219 58.0312C51.6211 58.4258 51.4707 58.998 51.4707 59.748V59.9531C51.4707 60.6836 51.6211 61.2461 51.9219 61.6406C52.2227 62.0352 52.6523 62.2324 53.2109 62.2324ZM53.3867 63.0527L53.3164 63.3574C53.9141 63.4629 54.2129 63.8008 54.2129 64.3711C54.2129 64.75 54.0566 65.0488 53.7441 65.2676C53.4316 65.4902 52.9961 65.6016 52.4375 65.6016L52.3965 64.9746C52.7051 64.9746 52.9434 64.9238 53.1113 64.8223C53.2832 64.7207 53.3691 64.5781 53.3691 64.3945C53.3691 64.2227 53.3066 64.0957 53.1816 64.0137C53.0566 63.9316 52.8027 63.873 52.4199 63.8379L52.6074 63.0527H53.3867ZM60.8633 63C60.8008 62.875 60.75 62.6523 60.7109 62.332C60.207 62.8555 59.6055 63.1172 58.9062 63.1172C58.2812 63.1172 57.7676 62.9414 57.3652 62.5898C56.9668 62.2344 56.7676 61.7852 56.7676 61.2422C56.7676 60.582 57.0176 60.0703 57.5176 59.707C58.0215 59.3398 58.7285 59.1562 59.6387 59.1562H60.6934V58.6582C60.6934 58.2793 60.5801 57.9785 60.3535 57.7559C60.127 57.5293 59.793 57.416 59.3516 57.416C58.9648 57.416 58.6406 57.5137 58.3789 57.709C58.1172 57.9043 57.9863 58.1406 57.9863 58.418H56.8965C56.8965 58.1016 57.0078 57.7969 57.2305 57.5039C57.457 57.207 57.7617 56.9727 58.1445 56.8008C58.5312 56.6289 58.9551 56.543 59.416 56.543C60.1465 56.543 60.7188 56.7266 61.1328 57.0938C61.5469 57.457 61.7617 57.959 61.7773 58.5996V61.5176C61.7773 62.0996 61.8516 62.5625 62 62.9062V63H60.8633ZM59.0645 62.1738C59.4043 62.1738 59.7266 62.0859 60.0312 61.9102C60.3359 61.7344 60.5566 61.5059 60.6934 61.2246V59.9238H59.8438C58.5156 59.9238 57.8516 60.3125 57.8516 61.0898C57.8516 61.4297 57.9648 61.6953 58.1914 61.8867C58.418 62.0781 58.709 62.1738 59.0645 62.1738ZM61.6133 54.1875C61.6133 54.6094 61.4922 54.9512 61.25 55.2129C61.0117 55.4746 60.7129 55.6055 60.3535 55.6055C60.1934 55.6055 60.0547 55.5859 59.9375 55.5469C59.8203 55.5078 59.666 55.4277 59.4746 55.3066C59.2871 55.1855 59.1504 55.1133 59.0645 55.0898C58.9824 55.0625 58.8867 55.0488 58.7773 55.0488C58.6172 55.0488 58.4805 55.1113 58.3672 55.2363C58.2539 55.3574 58.1973 55.5137 58.1973 55.7051L57.4707 55.6641C57.4707 55.2461 57.5879 54.9004 57.8223 54.627C58.0605 54.3535 58.3613 54.2168 58.7246 54.2168C58.8613 54.2168 58.9844 54.2363 59.0938 54.2754C59.2031 54.3145 59.3516 54.3906 59.5391 54.5039C59.7266 54.6172 59.8691 54.6914 59.9668 54.7266C60.0684 54.7617 60.1797 54.7793 60.3008 54.7793C60.4688 54.7793 60.6074 54.7129 60.7168 54.5801C60.8301 54.4473 60.8867 54.293 60.8867 54.1172L61.6133 54.1875ZM63.1895 59.7715C63.1895 59.1504 63.3105 58.5918 63.5527 58.0957C63.7988 57.5996 64.1387 57.2168 64.5723 56.9473C65.0098 56.6777 65.5078 56.543 66.0664 56.543C66.9297 56.543 67.627 56.8418 68.1582 57.4395C68.6934 58.0371 68.9609 58.832 68.9609 59.8242V59.9004C68.9609 60.5176 68.8418 61.0723 68.6035 61.5645C68.3691 62.0527 68.0312 62.4336 67.5898 62.707C67.1523 62.9805 66.6484 63.1172 66.0781 63.1172C65.2188 63.1172 64.5215 62.8184 63.9863 62.2207C63.4551 61.623 63.1895 60.832 63.1895 59.8477V59.7715ZM64.2793 59.9004C64.2793 60.6035 64.4414 61.168 64.7656 61.5938C65.0938 62.0195 65.5312 62.2324 66.0781 62.2324C66.6289 62.2324 67.0664 62.0176 67.3906 61.5879C67.7148 61.1543 67.877 60.5488 67.877 59.7715C67.877 59.0762 67.7109 58.5137 67.3789 58.084C67.0508 57.6504 66.6133 57.4336 66.0664 57.4336C65.5312 57.4336 65.0996 57.6465 64.7715 58.0723C64.4434 58.498 64.2793 59.1074 64.2793 59.9004Z" fill="#666666"/>
</svg>
