<svg width="13" height="13" viewBox="0 0 13 13" fill="none" xmlns="http://www.w3.org/2000/svg">
<path fill-rule="evenodd" clip-rule="evenodd" d="M8.01991 11.647L8.02591 11.6505C9.1199 12.347 10.5509 12.19 11.4679 11.273L11.8549 10.886C12.2148 10.5256 12.2148 9.94182 11.8549 9.58146L10.2244 7.95196C9.86405 7.59205 9.28027 7.59205 8.91991 7.95196V7.95196C8.74706 8.12502 8.5125 8.22226 8.26791 8.22226C8.02331 8.22226 7.78875 8.12502 7.61591 7.95196L5.00691 5.34246C4.647 4.9821 4.647 4.39832 5.00691 4.03796V4.03796C5.17997 3.86511 5.27721 3.63056 5.27721 3.38596C5.27721 3.14137 5.17997 2.90681 5.00691 2.73396L3.37691 1.10196C3.01655 0.742054 2.43277 0.742054 2.07241 1.10196L1.68541 1.48896C0.768549 2.40603 0.611426 3.83677 1.30741 4.93096L1.31141 4.93696C3.09811 7.58187 5.37539 9.85966 8.01991 11.647V11.647Z" stroke="#007DC5" stroke-width="1.2" stroke-linecap="round" stroke-linejoin="round"/>
</svg>
