<svg width="13" height="13" viewBox="0 0 13 13" fill="none" xmlns="http://www.w3.org/2000/svg">
<path fill-rule="evenodd" clip-rule="evenodd" d="M12.125 2.70117C12.125 3.55117 10.8565 5.54017 10.4065 6.21917C10.3718 6.27154 10.3131 6.30303 10.2502 6.30303C10.1874 6.30303 10.1287 6.27154 10.094 6.21917C9.6435 5.54067 8.375 3.55117 8.375 2.70117C8.375 1.66564 9.21447 0.826172 10.25 0.826172C11.2855 0.826172 12.125 1.66564 12.125 2.70117Z" stroke="#007DC5" stroke-linecap="round" stroke-linejoin="round"/>
<path d="M10.25 2.51367C10.3536 2.51367 10.4375 2.59762 10.4375 2.70117" stroke="#007DC5" stroke-linecap="round" stroke-linejoin="round"/>
<path d="M10.0625 2.70117C10.0625 2.59762 10.1464 2.51367 10.25 2.51367" stroke="#007DC5" stroke-linecap="round" stroke-linejoin="round"/>
<path d="M10.25 2.88867C10.1464 2.88867 10.0625 2.80473 10.0625 2.70117" stroke="#007DC5" stroke-linecap="round" stroke-linejoin="round"/>
<path d="M10.4375 2.70117C10.4375 2.80473 10.3536 2.88867 10.25 2.88867" stroke="#007DC5" stroke-linecap="round" stroke-linejoin="round"/>
<path d="M3.125 6.63867C3.22855 6.63867 3.3125 6.72262 3.3125 6.82617" stroke="#007DC5" stroke-linecap="round" stroke-linejoin="round"/>
<path d="M2.9375 6.82617C2.9375 6.72262 3.02145 6.63867 3.125 6.63867" stroke="#007DC5" stroke-linecap="round" stroke-linejoin="round"/>
<path d="M3.125 7.01367C3.02145 7.01367 2.9375 6.92973 2.9375 6.82617" stroke="#007DC5" stroke-linecap="round" stroke-linejoin="round"/>
<path d="M3.3125 6.82617C3.3125 6.92973 3.22855 7.01367 3.125 7.01367" stroke="#007DC5" stroke-linecap="round" stroke-linejoin="round"/>
<path fill-rule="evenodd" clip-rule="evenodd" d="M3.125 4.57617C4.36764 4.57617 5.375 5.58353 5.375 6.82617C5.375 7.78667 4.031 9.61417 3.4205 10.3952C3.34943 10.4861 3.24043 10.5393 3.125 10.5393C3.00957 10.5393 2.90057 10.4861 2.8295 10.3952C2.219 9.61467 0.875 7.78667 0.875 6.82617C0.875 5.58353 1.88236 4.57617 3.125 4.57617Z" stroke="#007DC5" stroke-linecap="round" stroke-linejoin="round"/>
<path d="M3.125 12.0762H7.625C8.03921 12.0762 8.375 11.7404 8.375 11.3262V9.07617C8.375 8.66196 8.71079 8.32617 9.125 8.32617H10.625" stroke="#007DC5" stroke-linecap="round" stroke-linejoin="round"/>
</svg>
