<svg width="76" height="67" viewBox="0 0 76 67" fill="none" xmlns="http://www.w3.org/2000/svg">
<path d="M9.3125 55.3945H6.57031V63H5.45117V55.3945H2.71484V54.4688H9.3125V55.3945ZM12.4531 63.1172C11.5938 63.1172 10.8945 62.8359 10.3555 62.2734C9.81641 61.707 9.54688 60.9512 9.54688 60.0059V59.8066C9.54688 59.1777 9.66602 58.6172 9.9043 58.125C10.1465 57.6289 10.4824 57.2422 10.9121 56.9648C11.3457 56.6836 11.8145 56.543 12.3184 56.543C13.1426 56.543 13.7832 56.8145 14.2402 57.3574C14.6973 57.9004 14.9258 58.6777 14.9258 59.6895V60.1406H10.6309C10.6465 60.7656 10.8281 61.2715 11.1758 61.6582C11.5273 62.041 11.9727 62.2324 12.5117 62.2324C12.8945 62.2324 13.2188 62.1543 13.4844 61.998C13.75 61.8418 13.9824 61.6348 14.1816 61.377L14.8438 61.8926C14.3125 62.709 13.5156 63.1172 12.4531 63.1172ZM12.3184 57.4336C11.8809 57.4336 11.5137 57.5938 11.2168 57.9141C10.9199 58.2305 10.7363 58.6758 10.666 59.25H13.8418V59.168C13.8105 58.6172 13.6621 58.1914 13.3965 57.8906C13.1309 57.5859 12.7715 57.4336 12.3184 57.4336ZM17.3633 63H16.2793V54H17.3633V63ZM21.7344 63.1172C20.875 63.1172 20.1758 62.8359 19.6367 62.2734C19.0977 61.707 18.8281 60.9512 18.8281 60.0059V59.8066C18.8281 59.1777 18.9473 58.6172 19.1855 58.125C19.4277 57.6289 19.7637 57.2422 20.1934 56.9648C20.627 56.6836 21.0957 56.543 21.5996 56.543C22.4238 56.543 23.0645 56.8145 23.5215 57.3574C23.9785 57.9004 24.207 58.6777 24.207 59.6895V60.1406H19.9121C19.9277 60.7656 20.1094 61.2715 20.457 61.6582C20.8086 62.041 21.2539 62.2324 21.793 62.2324C22.1758 62.2324 22.5 62.1543 22.7656 61.998C23.0312 61.8418 23.2637 61.6348 23.4629 61.377L24.125 61.8926C23.5938 62.709 22.7969 63.1172 21.7344 63.1172ZM21.5996 57.4336C21.1621 57.4336 20.7949 57.5938 20.498 57.9141C20.2012 58.2305 20.0176 58.6758 19.9473 59.25H23.123V59.168C23.0918 58.6172 22.9434 58.1914 22.6777 57.8906C22.4121 57.5859 22.0527 57.4336 21.5996 57.4336ZM26.4863 56.6602L26.5156 57.3633C26.9805 56.8164 27.6074 56.543 28.3965 56.543C29.2832 56.543 29.8867 56.8828 30.207 57.5625C30.418 57.2578 30.6914 57.0117 31.0273 56.8242C31.3672 56.6367 31.7676 56.543 32.2285 56.543C33.6191 56.543 34.3262 57.2793 34.3496 58.752V63H33.2656V58.8164C33.2656 58.3633 33.1621 58.0254 32.9551 57.8027C32.748 57.5762 32.4004 57.4629 31.9121 57.4629C31.5098 57.4629 31.1758 57.584 30.9102 57.8262C30.6445 58.0645 30.4902 58.3867 30.4473 58.793V63H29.3574V58.8457C29.3574 57.9238 28.9062 57.4629 28.0039 57.4629C27.293 57.4629 26.8066 57.7656 26.5449 58.3711V63H25.4609V56.6602H26.4863ZM38.6211 63.1172C37.7617 63.1172 37.0625 62.8359 36.5234 62.2734C35.9844 61.707 35.7148 60.9512 35.7148 60.0059V59.8066C35.7148 59.1777 35.834 58.6172 36.0723 58.125C36.3145 57.6289 36.6504 57.2422 37.0801 56.9648C37.5137 56.6836 37.9824 56.543 38.4863 56.543C39.3105 56.543 39.9512 56.8145 40.4082 57.3574C40.8652 57.9004 41.0938 58.6777 41.0938 59.6895V60.1406H36.7988C36.8145 60.7656 36.9961 61.2715 37.3438 61.6582C37.6953 62.041 38.1406 62.2324 38.6797 62.2324C39.0625 62.2324 39.3867 62.1543 39.6523 61.998C39.918 61.8418 40.1504 61.6348 40.3496 61.377L41.0117 61.8926C40.4805 62.709 39.6836 63.1172 38.6211 63.1172ZM38.4863 57.4336C38.0488 57.4336 37.6816 57.5938 37.3848 57.9141C37.0879 58.2305 36.9043 58.6758 36.834 59.25H40.0098V59.168C39.9785 58.6172 39.8301 58.1914 39.5645 57.8906C39.2988 57.5859 38.9395 57.4336 38.4863 57.4336ZM42.0898 59.7773C42.0898 58.8047 42.3203 58.0234 42.7812 57.4336C43.2422 56.8398 43.8457 56.543 44.5918 56.543C45.334 56.543 45.9219 56.7969 46.3555 57.3047V54H47.4395V63H46.4434L46.3906 62.3203C45.957 62.8516 45.3535 63.1172 44.5801 63.1172C43.8457 63.1172 43.2461 62.8164 42.7812 62.2148C42.3203 61.6133 42.0898 60.8281 42.0898 59.8594V59.7773ZM43.1738 59.9004C43.1738 60.6191 43.3223 61.1816 43.6191 61.5879C43.916 61.9941 44.3262 62.1973 44.8496 62.1973C45.5371 62.1973 46.0391 61.8887 46.3555 61.2715V58.3594C46.0312 57.7617 45.5332 57.4629 44.8613 57.4629C44.3301 57.4629 43.916 57.668 43.6191 58.0781C43.3223 58.4883 43.1738 59.0957 43.1738 59.9004ZM50.3047 63H49.2207V56.6602H50.3047V63ZM49.1328 54.9785C49.1328 54.8027 49.1855 54.6543 49.291 54.5332C49.4004 54.4121 49.5605 54.3516 49.7715 54.3516C49.9824 54.3516 50.1426 54.4121 50.252 54.5332C50.3613 54.6543 50.416 54.8027 50.416 54.9785C50.416 55.1543 50.3613 55.3008 50.252 55.418C50.1426 55.5352 49.9824 55.5938 49.7715 55.5938C49.5605 55.5938 49.4004 55.5352 49.291 55.418C49.1855 55.3008 49.1328 55.1543 49.1328 54.9785ZM54.5879 62.2324C54.9746 62.2324 55.3125 62.1152 55.6016 61.8809C55.8906 61.6465 56.0508 61.3535 56.082 61.002H57.1074C57.0879 61.3652 56.9629 61.7109 56.7324 62.0391C56.502 62.3672 56.1934 62.6289 55.8066 62.8242C55.4238 63.0195 55.0176 63.1172 54.5879 63.1172C53.7246 63.1172 53.0371 62.8301 52.5254 62.2559C52.0176 61.6777 51.7637 60.8887 51.7637 59.8887V59.707C51.7637 59.0898 51.877 58.541 52.1035 58.0605C52.3301 57.5801 52.6543 57.207 53.0762 56.9414C53.502 56.6758 54.0039 56.543 54.582 56.543C55.293 56.543 55.8828 56.7559 56.3516 57.1816C56.8242 57.6074 57.0762 58.1602 57.1074 58.8398H56.082C56.0508 58.4297 55.8945 58.0938 55.6133 57.832C55.3359 57.5664 54.9922 57.4336 54.582 57.4336C54.0312 57.4336 53.6035 57.6328 53.2988 58.0312C52.998 58.4258 52.8477 58.998 52.8477 59.748V59.9531C52.8477 60.6836 52.998 61.2461 53.2988 61.6406C53.5996 62.0352 54.0293 62.2324 54.5879 62.2324ZM59.5039 63H58.4199V56.6602H59.5039V63ZM58.332 54.9785C58.332 54.8027 58.3848 54.6543 58.4902 54.5332C58.5996 54.4121 58.7598 54.3516 58.9707 54.3516C59.1816 54.3516 59.3418 54.4121 59.4512 54.5332C59.5605 54.6543 59.6152 54.8027 59.6152 54.9785C59.6152 55.1543 59.5605 55.3008 59.4512 55.418C59.3418 55.5352 59.1816 55.5938 58.9707 55.5938C58.7598 55.5938 58.5996 55.5352 58.4902 55.418C58.3848 55.3008 58.332 55.1543 58.332 54.9785ZM62.2695 56.6602L62.3047 57.457C62.7891 56.8477 63.4219 56.543 64.2031 56.543C65.543 56.543 66.2188 57.2988 66.2305 58.8105V63H65.1465V58.8047C65.1426 58.3477 65.0371 58.0098 64.8301 57.791C64.627 57.5723 64.3086 57.4629 63.875 57.4629C63.5234 57.4629 63.2148 57.5566 62.9492 57.7441C62.6836 57.9316 62.4766 58.1777 62.3281 58.4824V63H61.2441V56.6602H62.2695ZM71.7793 63C71.7168 62.875 71.666 62.6523 71.627 62.332C71.123 62.8555 70.5215 63.1172 69.8223 63.1172C69.1973 63.1172 68.6836 62.9414 68.2812 62.5898C67.8828 62.2344 67.6836 61.7852 67.6836 61.2422C67.6836 60.582 67.9336 60.0703 68.4336 59.707C68.9375 59.3398 69.6445 59.1562 70.5547 59.1562H71.6094V58.6582C71.6094 58.2793 71.4961 57.9785 71.2695 57.7559C71.043 57.5293 70.709 57.416 70.2676 57.416C69.8809 57.416 69.5566 57.5137 69.2949 57.709C69.0332 57.9043 68.9023 58.1406 68.9023 58.418H67.8125C67.8125 58.1016 67.9238 57.7969 68.1465 57.5039C68.373 57.207 68.6777 56.9727 69.0605 56.8008C69.4473 56.6289 69.8711 56.543 70.332 56.543C71.0625 56.543 71.6348 56.7266 72.0488 57.0938C72.4629 57.457 72.6777 57.959 72.6934 58.5996V61.5176C72.6934 62.0996 72.7676 62.5625 72.916 62.9062V63H71.7793ZM69.9805 62.1738C70.3203 62.1738 70.6426 62.0859 70.9473 61.9102C71.252 61.7344 71.4727 61.5059 71.6094 61.2246V59.9238H70.7598C69.4316 59.9238 68.7676 60.3125 68.7676 61.0898C68.7676 61.4297 68.8809 61.6953 69.1074 61.8867C69.334 62.0781 69.625 62.1738 69.9805 62.1738Z" fill="#666666"/>
<circle cx="38" cy="23" r="22.5" fill="#E7F3F9" stroke="#007DC5"/>
<path fill-rule="evenodd" clip-rule="evenodd" d="M31.5576 27.7363L33.2636 29.4423C34.8113 30.9911 36.5238 32.366 38.3706 33.5423L38.3806 33.5483C40.1604 34.6819 42.4888 34.4266 43.9806 32.9343L44.6096 32.3043C45.1952 31.7186 45.1952 30.7691 44.6096 30.1833L41.9586 27.5313C41.6773 27.2498 41.2956 27.0916 40.8976 27.0916C40.4996 27.0916 40.1179 27.2498 39.8366 27.5313V27.5313C39.2509 28.1169 38.3014 28.1169 37.7156 27.5313L33.4716 23.2863C32.886 22.7006 32.886 21.7511 33.4716 21.1653V21.1653C33.7531 20.884 33.9113 20.5023 33.9113 20.1043C33.9113 19.7063 33.7531 19.3246 33.4716 19.0433L30.8196 16.3923C30.2339 15.8067 29.2844 15.8067 28.6986 16.3923L28.0686 17.0213C26.5763 18.5131 26.321 20.8416 27.4546 22.6213L27.4606 22.6313C28.6361 24.4772 30.0099 26.1891 31.5576 27.7363V27.7363Z" stroke="#007DC5" stroke-width="1.2" stroke-linecap="round" stroke-linejoin="round"/>
<path fill-rule="evenodd" clip-rule="evenodd" d="M49.25 15.5C49.25 15.0858 48.9142 14.75 48.5 14.75H46.25V12.5C46.25 12.0858 45.9142 11.75 45.5 11.75H42.5C42.0858 11.75 41.75 12.0858 41.75 12.5V14.75H39.5C39.0858 14.75 38.75 15.0858 38.75 15.5V18.5C38.75 18.9142 39.0858 19.25 39.5 19.25H41.75V21.5C41.75 21.9142 42.0858 22.25 42.5 22.25H45.5C45.9142 22.25 46.25 21.9142 46.25 21.5V19.25H48.5C48.9142 19.25 49.25 18.9142 49.25 18.5V15.5Z" stroke="#007DC5" stroke-width="1.2" stroke-linecap="round" stroke-linejoin="round"/>
</svg>
