<svg width="88" height="83" viewBox="0 0 88 83" fill="none" xmlns="http://www.w3.org/2000/svg">
<path d="M11.5977 55.3945H8.85547V63H7.73633V55.3945H5V54.4688H11.5977V55.3945ZM14.7383 63.1172C13.8789 63.1172 13.1797 62.8359 12.6406 62.2734C12.1016 61.707 11.832 60.9512 11.832 60.0059V59.8066C11.832 59.1777 11.9512 58.6172 12.1895 58.125C12.4316 57.6289 12.7676 57.2422 13.1973 56.9648C13.6309 56.6836 14.0996 56.543 14.6035 56.543C15.4277 56.543 16.0684 56.8145 16.5254 57.3574C16.9824 57.9004 17.2109 58.6777 17.2109 59.6895V60.1406H12.916C12.9316 60.7656 13.1133 61.2715 13.4609 61.6582C13.8125 62.041 14.2578 62.2324 14.7969 62.2324C15.1797 62.2324 15.5039 62.1543 15.7695 61.998C16.0352 61.8418 16.2676 61.6348 16.4668 61.377L17.1289 61.8926C16.5977 62.709 15.8008 63.1172 14.7383 63.1172ZM14.6035 57.4336C14.166 57.4336 13.7988 57.5938 13.502 57.9141C13.2051 58.2305 13.0215 58.6758 12.9512 59.25H16.127V59.168C16.0957 58.6172 15.9473 58.1914 15.6816 57.8906C15.416 57.5859 15.0566 57.4336 14.6035 57.4336ZM22.1621 61.3184C22.1621 61.0254 22.0508 60.7988 21.8281 60.6387C21.6094 60.4746 21.2246 60.334 20.6738 60.2168C20.127 60.0996 19.6914 59.959 19.3672 59.7949C19.0469 59.6309 18.8086 59.4355 18.6523 59.209C18.5 58.9824 18.4238 58.7129 18.4238 58.4004C18.4238 57.8809 18.6426 57.4414 19.0801 57.082C19.5215 56.7227 20.084 56.543 20.7676 56.543C21.4863 56.543 22.0684 56.7285 22.5137 57.0996C22.9629 57.4707 23.1875 57.9453 23.1875 58.5234H22.0977C22.0977 58.2266 21.9707 57.9707 21.7168 57.7559C21.4668 57.541 21.1504 57.4336 20.7676 57.4336C20.373 57.4336 20.0645 57.5195 19.8418 57.6914C19.6191 57.8633 19.5078 58.0879 19.5078 58.3652C19.5078 58.627 19.6113 58.8242 19.8184 58.957C20.0254 59.0898 20.3984 59.2168 20.9375 59.3379C21.4805 59.459 21.9199 59.6035 22.2559 59.7715C22.5918 59.9395 22.8398 60.1426 23 60.3809C23.1641 60.6152 23.2461 60.9023 23.2461 61.2422C23.2461 61.8086 23.0195 62.2637 22.5664 62.6074C22.1133 62.9473 21.5254 63.1172 20.8027 63.1172C20.2949 63.1172 19.8457 63.0273 19.4551 62.8477C19.0645 62.668 18.7578 62.418 18.5352 62.0977C18.3164 61.7734 18.207 61.4238 18.207 61.0488H19.291C19.3105 61.4121 19.4551 61.7012 19.7246 61.916C19.998 62.127 20.3574 62.2324 20.8027 62.2324C21.2129 62.2324 21.541 62.1504 21.7871 61.9863C22.0371 61.8184 22.1621 61.5957 22.1621 61.3184ZM26.1289 55.125V56.6602H27.3125V57.498H26.1289V61.4297C26.1289 61.6836 26.1816 61.875 26.2871 62.0039C26.3926 62.1289 26.5723 62.1914 26.8262 62.1914C26.9512 62.1914 27.123 62.168 27.3418 62.1211V63C27.0566 63.0781 26.7793 63.1172 26.5098 63.1172C26.0254 63.1172 25.6602 62.9707 25.4141 62.6777C25.168 62.3848 25.0449 61.9688 25.0449 61.4297V57.498H23.8906V56.6602H25.0449V55.125H26.1289ZM31.2148 63.1172C30.3555 63.1172 29.6562 62.8359 29.1172 62.2734C28.5781 61.707 28.3086 60.9512 28.3086 60.0059V59.8066C28.3086 59.1777 28.4277 58.6172 28.666 58.125C28.9082 57.6289 29.2441 57.2422 29.6738 56.9648C30.1074 56.6836 30.5762 56.543 31.0801 56.543C31.9043 56.543 32.5449 56.8145 33.002 57.3574C33.459 57.9004 33.6875 58.6777 33.6875 59.6895V60.1406H29.3926C29.4082 60.7656 29.5898 61.2715 29.9375 61.6582C30.2891 62.041 30.7344 62.2324 31.2734 62.2324C31.6562 62.2324 31.9805 62.1543 32.2461 61.998C32.5117 61.8418 32.7441 61.6348 32.9434 61.377L33.6055 61.8926C33.0742 62.709 32.2773 63.1172 31.2148 63.1172ZM31.0801 57.4336C30.6426 57.4336 30.2754 57.5938 29.9785 57.9141C29.6816 58.2305 29.498 58.6758 29.4277 59.25H32.6035V59.168C32.5723 58.6172 32.4238 58.1914 32.1582 57.8906C31.8926 57.5859 31.5332 57.4336 31.0801 57.4336ZM37.6602 59.7773C37.6602 58.8047 37.8906 58.0234 38.3516 57.4336C38.8125 56.8398 39.416 56.543 40.1621 56.543C40.9043 56.543 41.4922 56.7969 41.9258 57.3047V54H43.0098V63H42.0137L41.9609 62.3203C41.5273 62.8516 40.9238 63.1172 40.1504 63.1172C39.416 63.1172 38.8164 62.8164 38.3516 62.2148C37.8906 61.6133 37.6602 60.8281 37.6602 59.8594V59.7773ZM38.7441 59.9004C38.7441 60.6191 38.8926 61.1816 39.1895 61.5879C39.4863 61.9941 39.8965 62.1973 40.4199 62.1973C41.1074 62.1973 41.6094 61.8887 41.9258 61.2715V58.3594C41.6016 57.7617 41.1035 57.4629 40.4316 57.4629C39.9004 57.4629 39.4863 57.668 39.1895 58.0781C38.8926 58.4883 38.7441 59.0957 38.7441 59.9004ZM47.3281 63.1172C46.4688 63.1172 45.7695 62.8359 45.2305 62.2734C44.6914 61.707 44.4219 60.9512 44.4219 60.0059V59.8066C44.4219 59.1777 44.541 58.6172 44.7793 58.125C45.0215 57.6289 45.3574 57.2422 45.7871 56.9648C46.2207 56.6836 46.6895 56.543 47.1934 56.543C48.0176 56.543 48.6582 56.8145 49.1152 57.3574C49.5723 57.9004 49.8008 58.6777 49.8008 59.6895V60.1406H45.5059C45.5215 60.7656 45.7031 61.2715 46.0508 61.6582C46.4023 62.041 46.8477 62.2324 47.3867 62.2324C47.7695 62.2324 48.0938 62.1543 48.3594 61.998C48.625 61.8418 48.8574 61.6348 49.0566 61.377L49.7188 61.8926C49.1875 62.709 48.3906 63.1172 47.3281 63.1172ZM47.1934 57.4336C46.7559 57.4336 46.3887 57.5938 46.0918 57.9141C45.7949 58.2305 45.6113 58.6758 45.541 59.25H48.7168V59.168C48.6855 58.6172 48.5371 58.1914 48.2715 57.8906C48.0059 57.5859 47.6465 57.4336 47.1934 57.4336ZM60.4824 60.293C60.377 61.1953 60.043 61.8926 59.4805 62.3848C58.9219 62.873 58.1777 63.1172 57.248 63.1172C56.2402 63.1172 55.4316 62.7559 54.8223 62.0332C54.2168 61.3105 53.9141 60.3438 53.9141 59.1328V58.3125C53.9141 57.5195 54.0547 56.8223 54.3359 56.2207C54.6211 55.6191 55.0234 55.1582 55.543 54.8379C56.0625 54.5137 56.6641 54.3516 57.3477 54.3516C58.2539 54.3516 58.9805 54.6055 59.5273 55.1133C60.0742 55.6172 60.3926 56.3164 60.4824 57.2109H59.3516C59.2539 56.5312 59.041 56.0391 58.7129 55.7344C58.3887 55.4297 57.9336 55.2773 57.3477 55.2773C56.6289 55.2773 56.0645 55.543 55.6543 56.0742C55.248 56.6055 55.0449 57.3613 55.0449 58.3418V59.168C55.0449 60.0938 55.2383 60.8301 55.625 61.377C56.0117 61.9238 56.5527 62.1973 57.248 62.1973C57.873 62.1973 58.3516 62.0566 58.6836 61.7754C59.0195 61.4902 59.2422 60.9961 59.3516 60.293H60.4824ZM61.5664 59.7715C61.5664 59.1504 61.6875 58.5918 61.9297 58.0957C62.1758 57.5996 62.5156 57.2168 62.9492 56.9473C63.3867 56.6777 63.8848 56.543 64.4434 56.543C65.3066 56.543 66.0039 56.8418 66.5352 57.4395C67.0703 58.0371 67.3379 58.832 67.3379 59.8242V59.9004C67.3379 60.5176 67.2188 61.0723 66.9805 61.5645C66.7461 62.0527 66.4082 62.4336 65.9668 62.707C65.5293 62.9805 65.0254 63.1172 64.4551 63.1172C63.5957 63.1172 62.8984 62.8184 62.3633 62.2207C61.832 61.623 61.5664 60.832 61.5664 59.8477V59.7715ZM62.6562 59.9004C62.6562 60.6035 62.8184 61.168 63.1426 61.5938C63.4707 62.0195 63.9082 62.2324 64.4551 62.2324C65.0059 62.2324 65.4434 62.0176 65.7676 61.5879C66.0918 61.1543 66.2539 60.5488 66.2539 59.7715C66.2539 59.0762 66.0879 58.5137 65.7559 58.084C65.4277 57.6504 64.9902 57.4336 64.4434 57.4336C63.9082 57.4336 63.4766 57.6465 63.1484 58.0723C62.8203 58.498 62.6562 59.1074 62.6562 59.9004ZM70.6953 61.5293L72.2656 56.6602H73.373L71.0996 63H70.2734L67.9766 56.6602H69.084L70.6953 61.5293ZM75.5938 63H74.5098V56.6602H75.5938V63ZM74.4219 54.9785C74.4219 54.8027 74.4746 54.6543 74.5801 54.5332C74.6895 54.4121 74.8496 54.3516 75.0605 54.3516C75.2715 54.3516 75.4316 54.4121 75.541 54.5332C75.6504 54.6543 75.7051 54.8027 75.7051 54.9785C75.7051 55.1543 75.6504 55.3008 75.541 55.418C75.4316 55.5352 75.2715 55.5938 75.0605 55.5938C74.8496 55.5938 74.6895 55.5352 74.5801 55.418C74.4746 55.3008 74.4219 55.1543 74.4219 54.9785ZM77.0703 59.7773C77.0703 58.8047 77.3008 58.0234 77.7617 57.4336C78.2227 56.8398 78.8262 56.543 79.5723 56.543C80.3145 56.543 80.9023 56.7969 81.3359 57.3047V54H82.4199V63H81.4238L81.3711 62.3203C80.9375 62.8516 80.334 63.1172 79.5605 63.1172C78.8262 63.1172 78.2266 62.8164 77.7617 62.2148C77.3008 61.6133 77.0703 60.8281 77.0703 59.8594V59.7773ZM78.1543 59.9004C78.1543 60.6191 78.3027 61.1816 78.5996 61.5879C78.8965 61.9941 79.3066 62.1973 79.8301 62.1973C80.5176 62.1973 81.0195 61.8887 81.3359 61.2715V58.3594C81.0117 57.7617 80.5137 57.4629 79.8418 57.4629C79.3105 57.4629 78.8965 57.668 78.5996 58.0781C78.3027 58.4883 78.1543 59.0957 78.1543 59.9004ZM17.0117 75.6602V79H15.8867V70.4688H19.0332C19.9668 70.4688 20.6973 70.707 21.2246 71.1836C21.7559 71.6602 22.0215 72.291 22.0215 73.0762C22.0215 73.9043 21.7617 74.543 21.2422 74.9922C20.7266 75.4375 19.9863 75.6602 19.0215 75.6602H17.0117ZM17.0117 74.7402H19.0332C19.6348 74.7402 20.0957 74.5996 20.416 74.3184C20.7363 74.0332 20.8965 73.623 20.8965 73.0879C20.8965 72.5801 20.7363 72.1738 20.416 71.8691C20.0957 71.5645 19.6562 71.4062 19.0977 71.3945H17.0117V74.7402ZM29.7324 76.293C29.627 77.1953 29.293 77.8926 28.7305 78.3848C28.1719 78.873 27.4277 79.1172 26.498 79.1172C25.4902 79.1172 24.6816 78.7559 24.0723 78.0332C23.4668 77.3105 23.1641 76.3438 23.1641 75.1328V74.3125C23.1641 73.5195 23.3047 72.8223 23.5859 72.2207C23.8711 71.6191 24.2734 71.1582 24.793 70.8379C25.3125 70.5137 25.9141 70.3516 26.5977 70.3516C27.5039 70.3516 28.2305 70.6055 28.7773 71.1133C29.3242 71.6172 29.6426 72.3164 29.7324 73.2109H28.6016C28.5039 72.5312 28.291 72.0391 27.9629 71.7344C27.6387 71.4297 27.1836 71.2773 26.5977 71.2773C25.8789 71.2773 25.3145 71.543 24.9043 72.0742C24.498 72.6055 24.2949 73.3613 24.2949 74.3418V75.168C24.2949 76.0938 24.4883 76.8301 24.875 77.377C25.2617 77.9238 25.8027 78.1973 26.498 78.1973C27.123 78.1973 27.6016 78.0566 27.9336 77.7754C28.2695 77.4902 28.4922 76.9961 28.6016 76.293H29.7324ZM34.4023 75.5488H32.3984V79H31.2676V70.4688H34.0918C35.0527 70.4688 35.791 70.6875 36.3066 71.125C36.8262 71.5625 37.0859 72.1992 37.0859 73.0352C37.0859 73.5664 36.9414 74.0293 36.6523 74.4238C36.3672 74.8184 35.9688 75.1133 35.457 75.3086L37.4609 78.9297V79H36.2539L34.4023 75.5488ZM32.3984 74.6289H34.127C34.6855 74.6289 35.1289 74.4844 35.457 74.1953C35.7891 73.9062 35.9551 73.5195 35.9551 73.0352C35.9551 72.5078 35.7969 72.1035 35.4805 71.8223C35.168 71.541 34.7148 71.3984 34.1211 71.3945H32.3984V74.6289ZM42.7754 78.0801H46.8184V79H41.6445V70.4688H42.7754V78.0801ZM52.9297 76.7734H49.3555L48.5527 79H47.3926L50.6504 70.4688H51.6348L54.8984 79H53.7441L52.9297 76.7734ZM49.6953 75.8477H52.5957L51.1426 71.8574L49.6953 75.8477ZM57.5 70.4688L60.2891 77.4297L63.0781 70.4688H64.5371V79H63.4121V75.6777L63.5176 72.0918L60.7168 79H59.8555L57.0605 72.1094L57.1719 75.6777V79H56.0469V70.4688H57.5ZM67.6484 75.6602V79H66.5234V70.4688H69.6699C70.6035 70.4688 71.334 70.707 71.8613 71.1836C72.3926 71.6602 72.6582 72.291 72.6582 73.0762C72.6582 73.9043 72.3984 74.543 71.8789 74.9922C71.3633 75.4375 70.623 75.6602 69.6582 75.6602H67.6484ZM67.6484 74.7402H69.6699C70.2715 74.7402 70.7324 74.5996 71.0527 74.3184C71.373 74.0332 71.5332 73.623 71.5332 73.0879C71.5332 72.5801 71.373 72.1738 71.0527 71.8691C70.7324 71.5645 70.293 71.4062 69.7344 71.3945H67.6484V74.7402Z" fill="#666666"/>
<circle cx="44" cy="23" r="22.5" fill="#E7F3F9" stroke="#007DC5"/>
<g clip-path="url(#clip0)">
<path d="M35.0469 17.375C35.0469 18.1706 35.3629 18.9337 35.9256 19.4963C36.4882 20.0589 37.2512 20.375 38.0469 20.375C38.8425 20.375 39.6056 20.0589 40.1682 19.4963C40.7308 18.9337 41.0469 18.1706 41.0469 17.375C41.0469 16.5794 40.7308 15.8163 40.1682 15.2537C39.6056 14.6911 38.8425 14.375 38.0469 14.375C37.2512 14.375 36.4882 14.6911 35.9256 15.2537C35.3629 15.8163 35.0469 16.5794 35.0469 17.375Z" stroke="#007DC5" stroke-width="1.3" stroke-linecap="round" stroke-linejoin="round"/>
<path d="M37.5469 12.125H38.5469" stroke="#007DC5" stroke-width="2.1875" stroke-linecap="round" stroke-linejoin="round"/>
<path d="M38.0469 12.125V14.375" stroke="#007DC5" stroke-width="1.3" stroke-linecap="round" stroke-linejoin="round"/>
<path d="M41.4062 13.3086L42.1132 14.0156" stroke="#007DC5" stroke-width="2.1875" stroke-linecap="round" stroke-linejoin="round"/>
<path d="M41.759 13.6621L40.168 15.2531" stroke="#007DC5" stroke-width="1.3" stroke-linecap="round" stroke-linejoin="round"/>
<path d="M43.2969 16.875V17.875" stroke="#007DC5" stroke-width="2.1875" stroke-linecap="round" stroke-linejoin="round"/>
<path d="M43.2969 17.375H41.0469" stroke="#007DC5" stroke-width="1.3" stroke-linecap="round" stroke-linejoin="round"/>
<path d="M42.1132 20.7344L41.4062 21.4414" stroke="#007DC5" stroke-width="2.1875" stroke-linecap="round" stroke-linejoin="round"/>
<path d="M41.759 21.0871L40.168 19.4961" stroke="#007DC5" stroke-width="1.3" stroke-linecap="round" stroke-linejoin="round"/>
<path d="M38.5469 22.625H37.5469" stroke="#007DC5" stroke-width="2.1875" stroke-linecap="round" stroke-linejoin="round"/>
<path d="M38.0469 22.625V20.375" stroke="#007DC5" stroke-width="1.3" stroke-linecap="round" stroke-linejoin="round"/>
<path d="M34.6875 21.4414L33.9805 20.7344" stroke="#007DC5" stroke-width="2.1875" stroke-linecap="round" stroke-linejoin="round"/>
<path d="M34.3359 21.0871L35.9269 19.4961" stroke="#007DC5" stroke-width="1.3" stroke-linecap="round" stroke-linejoin="round"/>
<path d="M32.7969 17.875V16.875" stroke="#007DC5" stroke-width="2.1875" stroke-linecap="round" stroke-linejoin="round"/>
<path d="M32.7969 17.375H35.0469" stroke="#007DC5" stroke-width="1.3" stroke-linecap="round" stroke-linejoin="round"/>
<path d="M33.9805 14.0156L34.6875 13.3086" stroke="#007DC5" stroke-width="2.1875" stroke-linecap="round" stroke-linejoin="round"/>
<path d="M34.3359 13.6621L35.9269 15.2531" stroke="#007DC5" stroke-width="1.3" stroke-linecap="round" stroke-linejoin="round"/>
<path d="M50.1469 20.0996C50.7985 20.6522 51.3275 21.3349 51.7 22.1038C52.0725 22.8728 52.2802 23.7111 52.3098 24.565C52.3395 25.4189 52.1904 26.2695 51.8722 27.0625C51.554 27.8554 51.0736 28.5731 50.4619 29.1696C49.2664 30.3366 47.662 30.9898 45.9914 30.9898C44.3208 30.9898 42.7164 30.3366 41.5209 29.1696C40.8046 28.4686 40.2698 27.6037 39.9629 26.6496" stroke="#007DC5" stroke-width="1.3" stroke-linecap="round" stroke-linejoin="round"/>
<path d="M48.1516 22.0531C47.981 22.22 47.7518 22.3135 47.5131 22.3135C47.2744 22.3135 47.0452 22.22 46.8746 22.0531L45.6006 20.7991C45.5169 20.7176 45.4503 20.6201 45.4048 20.5124C45.3594 20.4047 45.3359 20.289 45.3359 20.1721C45.3359 20.0552 45.3594 19.9395 45.4048 19.8318C45.4503 19.7241 45.5169 19.6266 45.6006 19.5451L49.4326 15.7811C49.6035 15.6146 49.8326 15.5215 50.0711 15.5215C50.3096 15.5215 50.5388 15.6146 50.7096 15.7811L51.9866 17.0361C52.0704 17.1176 52.1369 17.2151 52.1824 17.3228C52.2279 17.4305 52.2513 17.5462 52.2513 17.6631C52.2513 17.78 52.2279 17.8957 52.1824 18.0034C52.1369 18.1111 52.0704 18.2086 51.9866 18.2901L48.1516 22.0531Z" stroke="#007DC5" stroke-width="1.3" stroke-linecap="round" stroke-linejoin="round"/>
<path d="M51.168 16.2362L53.758 13.6442L52.313 12.1992" stroke="#007DC5" stroke-width="1.3" stroke-linecap="round" stroke-linejoin="round"/>
<path d="M55.2028 15.0895L53.7578 13.6445" stroke="#007DC5" stroke-width="1.3" stroke-linecap="round" stroke-linejoin="round"/>
<path d="M37.7969 26.6504H42.8549" stroke="#007DC5" stroke-width="1.3" stroke-linecap="round" stroke-linejoin="round"/>
<path d="M38.5859 33.875H52.3139" stroke="#007DC5" stroke-width="1.3" stroke-linecap="round" stroke-linejoin="round"/>
<path d="M45.8105 30.9844V33.8744" stroke="#007DC5" stroke-width="1.3" stroke-linecap="round" stroke-linejoin="round"/>
</g>
<defs>
<clipPath id="clip0">
<rect width="24" height="24" fill="white" transform="translate(32 11)"/>
</clipPath>
</defs>
</svg>
