<svg width="88" height="83" viewBox="0 0 88 83" fill="none" xmlns="http://www.w3.org/2000/svg">
<path d="M11.5977 55.3945H8.85547V63H7.73633V55.3945H5V54.4688H11.5977V55.3945ZM14.7383 63.1172C13.8789 63.1172 13.1797 62.8359 12.6406 62.2734C12.1016 61.707 11.832 60.9512 11.832 60.0059V59.8066C11.832 59.1777 11.9512 58.6172 12.1895 58.125C12.4316 57.6289 12.7676 57.2422 13.1973 56.9648C13.6309 56.6836 14.0996 56.543 14.6035 56.543C15.4277 56.543 16.0684 56.8145 16.5254 57.3574C16.9824 57.9004 17.2109 58.6777 17.2109 59.6895V60.1406H12.916C12.9316 60.7656 13.1133 61.2715 13.4609 61.6582C13.8125 62.041 14.2578 62.2324 14.7969 62.2324C15.1797 62.2324 15.5039 62.1543 15.7695 61.998C16.0352 61.8418 16.2676 61.6348 16.4668 61.377L17.1289 61.8926C16.5977 62.709 15.8008 63.1172 14.7383 63.1172ZM14.6035 57.4336C14.166 57.4336 13.7988 57.5938 13.502 57.9141C13.2051 58.2305 13.0215 58.6758 12.9512 59.25H16.127V59.168C16.0957 58.6172 15.9473 58.1914 15.6816 57.8906C15.416 57.5859 15.0566 57.4336 14.6035 57.4336ZM22.1621 61.3184C22.1621 61.0254 22.0508 60.7988 21.8281 60.6387C21.6094 60.4746 21.2246 60.334 20.6738 60.2168C20.127 60.0996 19.6914 59.959 19.3672 59.7949C19.0469 59.6309 18.8086 59.4355 18.6523 59.209C18.5 58.9824 18.4238 58.7129 18.4238 58.4004C18.4238 57.8809 18.6426 57.4414 19.0801 57.082C19.5215 56.7227 20.084 56.543 20.7676 56.543C21.4863 56.543 22.0684 56.7285 22.5137 57.0996C22.9629 57.4707 23.1875 57.9453 23.1875 58.5234H22.0977C22.0977 58.2266 21.9707 57.9707 21.7168 57.7559C21.4668 57.541 21.1504 57.4336 20.7676 57.4336C20.373 57.4336 20.0645 57.5195 19.8418 57.6914C19.6191 57.8633 19.5078 58.0879 19.5078 58.3652C19.5078 58.627 19.6113 58.8242 19.8184 58.957C20.0254 59.0898 20.3984 59.2168 20.9375 59.3379C21.4805 59.459 21.9199 59.6035 22.2559 59.7715C22.5918 59.9395 22.8398 60.1426 23 60.3809C23.1641 60.6152 23.2461 60.9023 23.2461 61.2422C23.2461 61.8086 23.0195 62.2637 22.5664 62.6074C22.1133 62.9473 21.5254 63.1172 20.8027 63.1172C20.2949 63.1172 19.8457 63.0273 19.4551 62.8477C19.0645 62.668 18.7578 62.418 18.5352 62.0977C18.3164 61.7734 18.207 61.4238 18.207 61.0488H19.291C19.3105 61.4121 19.4551 61.7012 19.7246 61.916C19.998 62.127 20.3574 62.2324 20.8027 62.2324C21.2129 62.2324 21.541 62.1504 21.7871 61.9863C22.0371 61.8184 22.1621 61.5957 22.1621 61.3184ZM26.1289 55.125V56.6602H27.3125V57.498H26.1289V61.4297C26.1289 61.6836 26.1816 61.875 26.2871 62.0039C26.3926 62.1289 26.5723 62.1914 26.8262 62.1914C26.9512 62.1914 27.123 62.168 27.3418 62.1211V63C27.0566 63.0781 26.7793 63.1172 26.5098 63.1172C26.0254 63.1172 25.6602 62.9707 25.4141 62.6777C25.168 62.3848 25.0449 61.9688 25.0449 61.4297V57.498H23.8906V56.6602H25.0449V55.125H26.1289ZM31.2148 63.1172C30.3555 63.1172 29.6562 62.8359 29.1172 62.2734C28.5781 61.707 28.3086 60.9512 28.3086 60.0059V59.8066C28.3086 59.1777 28.4277 58.6172 28.666 58.125C28.9082 57.6289 29.2441 57.2422 29.6738 56.9648C30.1074 56.6836 30.5762 56.543 31.0801 56.543C31.9043 56.543 32.5449 56.8145 33.002 57.3574C33.459 57.9004 33.6875 58.6777 33.6875 59.6895V60.1406H29.3926C29.4082 60.7656 29.5898 61.2715 29.9375 61.6582C30.2891 62.041 30.7344 62.2324 31.2734 62.2324C31.6562 62.2324 31.9805 62.1543 32.2461 61.998C32.5117 61.8418 32.7441 61.6348 32.9434 61.377L33.6055 61.8926C33.0742 62.709 32.2773 63.1172 31.2148 63.1172ZM31.0801 57.4336C30.6426 57.4336 30.2754 57.5938 29.9785 57.9141C29.6816 58.2305 29.498 58.6758 29.4277 59.25H32.6035V59.168C32.5723 58.6172 32.4238 58.1914 32.1582 57.8906C31.8926 57.5859 31.5332 57.4336 31.0801 57.4336ZM37.6602 59.7773C37.6602 58.8047 37.8906 58.0234 38.3516 57.4336C38.8125 56.8398 39.416 56.543 40.1621 56.543C40.9043 56.543 41.4922 56.7969 41.9258 57.3047V54H43.0098V63H42.0137L41.9609 62.3203C41.5273 62.8516 40.9238 63.1172 40.1504 63.1172C39.416 63.1172 38.8164 62.8164 38.3516 62.2148C37.8906 61.6133 37.6602 60.8281 37.6602 59.8594V59.7773ZM38.7441 59.9004C38.7441 60.6191 38.8926 61.1816 39.1895 61.5879C39.4863 61.9941 39.8965 62.1973 40.4199 62.1973C41.1074 62.1973 41.6094 61.8887 41.9258 61.2715V58.3594C41.6016 57.7617 41.1035 57.4629 40.4316 57.4629C39.9004 57.4629 39.4863 57.668 39.1895 58.0781C38.8926 58.4883 38.7441 59.0957 38.7441 59.9004ZM47.3281 63.1172C46.4688 63.1172 45.7695 62.8359 45.2305 62.2734C44.6914 61.707 44.4219 60.9512 44.4219 60.0059V59.8066C44.4219 59.1777 44.541 58.6172 44.7793 58.125C45.0215 57.6289 45.3574 57.2422 45.7871 56.9648C46.2207 56.6836 46.6895 56.543 47.1934 56.543C48.0176 56.543 48.6582 56.8145 49.1152 57.3574C49.5723 57.9004 49.8008 58.6777 49.8008 59.6895V60.1406H45.5059C45.5215 60.7656 45.7031 61.2715 46.0508 61.6582C46.4023 62.041 46.8477 62.2324 47.3867 62.2324C47.7695 62.2324 48.0938 62.1543 48.3594 61.998C48.625 61.8418 48.8574 61.6348 49.0566 61.377L49.7188 61.8926C49.1875 62.709 48.3906 63.1172 47.3281 63.1172ZM47.1934 57.4336C46.7559 57.4336 46.3887 57.5938 46.0918 57.9141C45.7949 58.2305 45.6113 58.6758 45.541 59.25H48.7168V59.168C48.6855 58.6172 48.5371 58.1914 48.2715 57.8906C48.0059 57.5859 47.6465 57.4336 47.1934 57.4336ZM60.4824 60.293C60.377 61.1953 60.043 61.8926 59.4805 62.3848C58.9219 62.873 58.1777 63.1172 57.248 63.1172C56.2402 63.1172 55.4316 62.7559 54.8223 62.0332C54.2168 61.3105 53.9141 60.3438 53.9141 59.1328V58.3125C53.9141 57.5195 54.0547 56.8223 54.3359 56.2207C54.6211 55.6191 55.0234 55.1582 55.543 54.8379C56.0625 54.5137 56.6641 54.3516 57.3477 54.3516C58.2539 54.3516 58.9805 54.6055 59.5273 55.1133C60.0742 55.6172 60.3926 56.3164 60.4824 57.2109H59.3516C59.2539 56.5312 59.041 56.0391 58.7129 55.7344C58.3887 55.4297 57.9336 55.2773 57.3477 55.2773C56.6289 55.2773 56.0645 55.543 55.6543 56.0742C55.248 56.6055 55.0449 57.3613 55.0449 58.3418V59.168C55.0449 60.0938 55.2383 60.8301 55.625 61.377C56.0117 61.9238 56.5527 62.1973 57.248 62.1973C57.873 62.1973 58.3516 62.0566 58.6836 61.7754C59.0195 61.4902 59.2422 60.9961 59.3516 60.293H60.4824ZM61.5664 59.7715C61.5664 59.1504 61.6875 58.5918 61.9297 58.0957C62.1758 57.5996 62.5156 57.2168 62.9492 56.9473C63.3867 56.6777 63.8848 56.543 64.4434 56.543C65.3066 56.543 66.0039 56.8418 66.5352 57.4395C67.0703 58.0371 67.3379 58.832 67.3379 59.8242V59.9004C67.3379 60.5176 67.2188 61.0723 66.9805 61.5645C66.7461 62.0527 66.4082 62.4336 65.9668 62.707C65.5293 62.9805 65.0254 63.1172 64.4551 63.1172C63.5957 63.1172 62.8984 62.8184 62.3633 62.2207C61.832 61.623 61.5664 60.832 61.5664 59.8477V59.7715ZM62.6562 59.9004C62.6562 60.6035 62.8184 61.168 63.1426 61.5938C63.4707 62.0195 63.9082 62.2324 64.4551 62.2324C65.0059 62.2324 65.4434 62.0176 65.7676 61.5879C66.0918 61.1543 66.2539 60.5488 66.2539 59.7715C66.2539 59.0762 66.0879 58.5137 65.7559 58.084C65.4277 57.6504 64.9902 57.4336 64.4434 57.4336C63.9082 57.4336 63.4766 57.6465 63.1484 58.0723C62.8203 58.498 62.6562 59.1074 62.6562 59.9004ZM70.6953 61.5293L72.2656 56.6602H73.373L71.0996 63H70.2734L67.9766 56.6602H69.084L70.6953 61.5293ZM75.5938 63H74.5098V56.6602H75.5938V63ZM74.4219 54.9785C74.4219 54.8027 74.4746 54.6543 74.5801 54.5332C74.6895 54.4121 74.8496 54.3516 75.0605 54.3516C75.2715 54.3516 75.4316 54.4121 75.541 54.5332C75.6504 54.6543 75.7051 54.8027 75.7051 54.9785C75.7051 55.1543 75.6504 55.3008 75.541 55.418C75.4316 55.5352 75.2715 55.5938 75.0605 55.5938C74.8496 55.5938 74.6895 55.5352 74.5801 55.418C74.4746 55.3008 74.4219 55.1543 74.4219 54.9785ZM77.0703 59.7773C77.0703 58.8047 77.3008 58.0234 77.7617 57.4336C78.2227 56.8398 78.8262 56.543 79.5723 56.543C80.3145 56.543 80.9023 56.7969 81.3359 57.3047V54H82.4199V63H81.4238L81.3711 62.3203C80.9375 62.8516 80.334 63.1172 79.5605 63.1172C78.8262 63.1172 78.2266 62.8164 77.7617 62.2148C77.3008 61.6133 77.0703 60.8281 77.0703 59.8594V59.7773ZM78.1543 59.9004C78.1543 60.6191 78.3027 61.1816 78.5996 61.5879C78.8965 61.9941 79.3066 62.1973 79.8301 62.1973C80.5176 62.1973 81.0195 61.8887 81.3359 61.2715V58.3594C81.0117 57.7617 80.5137 57.4629 79.8418 57.4629C79.3105 57.4629 78.8965 57.668 78.5996 58.0781C78.3027 58.4883 78.1543 59.0957 78.1543 59.9004ZM5.88477 76.7734H2.31055L1.50781 79H0.347656L3.60547 70.4688H4.58984L7.85352 79H6.69922L5.88477 76.7734ZM2.65039 75.8477H5.55078L4.09766 71.8574L2.65039 75.8477ZM9.85742 72.6602L9.89258 73.457C10.377 72.8477 11.0098 72.543 11.791 72.543C13.1309 72.543 13.8066 73.2988 13.8184 74.8105V79H12.7344V74.8047C12.7305 74.3477 12.625 74.0098 12.418 73.791C12.2148 73.5723 11.8965 73.4629 11.4629 73.4629C11.1113 73.4629 10.8027 73.5566 10.5371 73.7441C10.2715 73.9316 10.0645 74.1777 9.91602 74.4824V79H8.83203V72.6602H9.85742ZM16.9238 71.125V72.6602H18.1074V73.498H16.9238V77.4297C16.9238 77.6836 16.9766 77.875 17.082 78.0039C17.1875 78.1289 17.3672 78.1914 17.6211 78.1914C17.7461 78.1914 17.918 78.168 18.1367 78.1211V79C17.8516 79.0781 17.5742 79.1172 17.3047 79.1172C16.8203 79.1172 16.4551 78.9707 16.209 78.6777C15.9629 78.3848 15.8398 77.9688 15.8398 77.4297V73.498H14.6855V72.6602H15.8398V71.125H16.9238ZM20.5566 79H19.4668V72.6602H20.5566V79ZM20.5684 70.0059H21.8809L20.3105 71.7285H19.4375L20.5684 70.0059ZM22.0859 75.7773C22.0859 74.7891 22.3145 74.0039 22.7715 73.4219C23.2285 72.8359 23.834 72.543 24.5879 72.543C25.3613 72.543 25.9648 72.8164 26.3984 73.3633L26.4512 72.6602H27.4414V78.8477C27.4414 79.668 27.1973 80.3145 26.709 80.7871C26.2246 81.2598 25.5723 81.4961 24.752 81.4961C24.2949 81.4961 23.8477 81.3984 23.4102 81.2031C22.9727 81.0078 22.6387 80.7402 22.4082 80.4004L22.9707 79.75C23.4355 80.3242 24.0039 80.6113 24.6758 80.6113C25.2031 80.6113 25.6133 80.4629 25.9062 80.166C26.2031 79.8691 26.3516 79.4512 26.3516 78.9121V78.3672C25.918 78.8672 25.3262 79.1172 24.5762 79.1172C23.834 79.1172 23.2324 78.8184 22.7715 78.2207C22.3145 77.623 22.0859 76.8086 22.0859 75.7773ZM23.1758 75.9004C23.1758 76.6152 23.3223 77.1777 23.6152 77.5879C23.9082 77.9941 24.3184 78.1973 24.8457 78.1973C25.5293 78.1973 26.0312 77.8867 26.3516 77.2656V74.3711C26.0195 73.7656 25.5215 73.4629 24.8574 73.4629C24.3301 73.4629 23.918 73.668 23.6211 74.0781C23.3242 74.4883 23.1758 75.0957 23.1758 75.9004ZM31.7129 79.1172C30.8535 79.1172 30.1543 78.8359 29.6152 78.2734C29.0762 77.707 28.8066 76.9512 28.8066 76.0059V75.8066C28.8066 75.1777 28.9258 74.6172 29.1641 74.125C29.4062 73.6289 29.7422 73.2422 30.1719 72.9648C30.6055 72.6836 31.0742 72.543 31.5781 72.543C32.4023 72.543 33.043 72.8145 33.5 73.3574C33.957 73.9004 34.1855 74.6777 34.1855 75.6895V76.1406H29.8906C29.9062 76.7656 30.0879 77.2715 30.4355 77.6582C30.7871 78.041 31.2324 78.2324 31.7715 78.2324C32.1543 78.2324 32.4785 78.1543 32.7441 77.998C33.0098 77.8418 33.2422 77.6348 33.4414 77.377L34.1035 77.8926C33.5723 78.709 32.7754 79.1172 31.7129 79.1172ZM31.5781 73.4336C31.1406 73.4336 30.7734 73.5938 30.4766 73.9141C30.1797 74.2305 29.9961 74.6758 29.9258 75.25H33.1016V75.168C33.0703 74.6172 32.9219 74.1914 32.6562 73.8906C32.3906 73.5859 32.0312 73.4336 31.5781 73.4336ZM36.4707 72.6602L36.5059 73.457C36.9902 72.8477 37.623 72.543 38.4043 72.543C39.7441 72.543 40.4199 73.2988 40.4316 74.8105V79H39.3477V74.8047C39.3438 74.3477 39.2383 74.0098 39.0312 73.791C38.8281 73.5723 38.5098 73.4629 38.0762 73.4629C37.7246 73.4629 37.416 73.5566 37.1504 73.7441C36.8848 73.9316 36.6777 74.1777 36.5293 74.4824V79H35.4453V72.6602H36.4707ZM41.7793 75.7715C41.7793 75.1504 41.9004 74.5918 42.1426 74.0957C42.3887 73.5996 42.7285 73.2168 43.1621 72.9473C43.5996 72.6777 44.0977 72.543 44.6562 72.543C45.5195 72.543 46.2168 72.8418 46.748 73.4395C47.2832 74.0371 47.5508 74.832 47.5508 75.8242V75.9004C47.5508 76.5176 47.4316 77.0723 47.1934 77.5645C46.959 78.0527 46.6211 78.4336 46.1797 78.707C45.7422 78.9805 45.2383 79.1172 44.668 79.1172C43.8086 79.1172 43.1113 78.8184 42.5762 78.2207C42.0449 77.623 41.7793 76.832 41.7793 75.8477V75.7715ZM42.8691 75.9004C42.8691 76.6035 43.0312 77.168 43.3555 77.5938C43.6836 78.0195 44.1211 78.2324 44.668 78.2324C45.2188 78.2324 45.6562 78.0176 45.9805 77.5879C46.3047 77.1543 46.4668 76.5488 46.4668 75.7715C46.4668 75.0762 46.3008 74.5137 45.9688 74.084C45.6406 73.6504 45.2031 73.4336 44.6562 73.4336C44.1211 73.4336 43.6895 73.6465 43.3613 74.0723C43.0332 74.498 42.8691 75.1074 42.8691 75.9004ZM51.8457 75.5371C51.8457 74.6543 51.9629 73.8066 52.1973 72.9941C52.4355 72.1816 52.7891 71.4434 53.2578 70.7793C53.7266 70.1152 54.2129 69.6465 54.7168 69.373L54.9395 70.0879C54.3691 70.5254 53.9004 71.1934 53.5332 72.0918C53.1699 72.9902 52.9707 73.9961 52.9355 75.1094L52.9297 75.6074C52.9297 77.1152 53.2051 78.4238 53.7559 79.5332C54.0879 80.1973 54.4824 80.7168 54.9395 81.0918L54.7168 81.7539C54.1973 81.4648 53.7012 80.9805 53.2285 80.3008C52.3066 78.9727 51.8457 77.3848 51.8457 75.5371ZM59.6797 77.3184C59.6797 77.0254 59.5684 76.7988 59.3457 76.6387C59.127 76.4746 58.7422 76.334 58.1914 76.2168C57.6445 76.0996 57.209 75.959 56.8848 75.7949C56.5645 75.6309 56.3262 75.4355 56.1699 75.209C56.0176 74.9824 55.9414 74.7129 55.9414 74.4004C55.9414 73.8809 56.1602 73.4414 56.5977 73.082C57.0391 72.7227 57.6016 72.543 58.2852 72.543C59.0039 72.543 59.5859 72.7285 60.0312 73.0996C60.4805 73.4707 60.7051 73.9453 60.7051 74.5234H59.6152C59.6152 74.2266 59.4883 73.9707 59.2344 73.7559C58.9844 73.541 58.668 73.4336 58.2852 73.4336C57.8906 73.4336 57.582 73.5195 57.3594 73.6914C57.1367 73.8633 57.0254 74.0879 57.0254 74.3652C57.0254 74.627 57.1289 74.8242 57.3359 74.957C57.543 75.0898 57.916 75.2168 58.4551 75.3379C58.998 75.459 59.4375 75.6035 59.7734 75.7715C60.1094 75.9395 60.3574 76.1426 60.5176 76.3809C60.6816 76.6152 60.7637 76.9023 60.7637 77.2422C60.7637 77.8086 60.5371 78.2637 60.084 78.6074C59.6309 78.9473 59.043 79.1172 58.3203 79.1172C57.8125 79.1172 57.3633 79.0273 56.9727 78.8477C56.582 78.668 56.2754 78.418 56.0527 78.0977C55.834 77.7734 55.7246 77.4238 55.7246 77.0488H56.8086C56.8281 77.4121 56.9727 77.7012 57.2422 77.916C57.5156 78.127 57.875 78.2324 58.3203 78.2324C58.7305 78.2324 59.0586 78.1504 59.3047 77.9863C59.5547 77.8184 59.6797 77.5957 59.6797 77.3184ZM67.7891 77.5059L69.0078 72.6602H70.0918L68.2461 79H67.3672L65.8262 74.1953L64.3262 79H63.4473L61.6074 72.6602H62.6855L63.9336 77.4062L65.4102 72.6602H66.2832L67.7891 77.5059ZM75.1133 79C75.0508 78.875 75 78.6523 74.9609 78.332C74.457 78.8555 73.8555 79.1172 73.1562 79.1172C72.5312 79.1172 72.0176 78.9414 71.6152 78.5898C71.2168 78.2344 71.0176 77.7852 71.0176 77.2422C71.0176 76.582 71.2676 76.0703 71.7676 75.707C72.2715 75.3398 72.9785 75.1562 73.8887 75.1562H74.9434V74.6582C74.9434 74.2793 74.8301 73.9785 74.6035 73.7559C74.377 73.5293 74.043 73.416 73.6016 73.416C73.2148 73.416 72.8906 73.5137 72.6289 73.709C72.3672 73.9043 72.2363 74.1406 72.2363 74.418H71.1465C71.1465 74.1016 71.2578 73.7969 71.4805 73.5039C71.707 73.207 72.0117 72.9727 72.3945 72.8008C72.7812 72.6289 73.2051 72.543 73.666 72.543C74.3965 72.543 74.9688 72.7266 75.3828 73.0938C75.7969 73.457 76.0117 73.959 76.0273 74.5996V77.5176C76.0273 78.0996 76.1016 78.5625 76.25 78.9062V79H75.1133ZM73.3145 78.1738C73.6543 78.1738 73.9766 78.0859 74.2812 77.9102C74.5859 77.7344 74.8066 77.5059 74.9434 77.2246V75.9238H74.0938C72.7656 75.9238 72.1016 76.3125 72.1016 77.0898C72.1016 77.4297 72.2148 77.6953 72.4414 77.8867C72.668 78.0781 72.959 78.1738 73.3145 78.1738ZM83.0938 75.9004C83.0938 76.8691 82.8711 77.6484 82.4258 78.2383C81.9805 78.8242 81.3828 79.1172 80.6328 79.1172C79.832 79.1172 79.2129 78.834 78.7754 78.2676L78.7227 79H77.7266V70H78.8105V73.3574C79.248 72.8145 79.8516 72.543 80.6211 72.543C81.3906 72.543 81.9941 72.834 82.4316 73.416C82.873 73.998 83.0938 74.7949 83.0938 75.8066V75.9004ZM82.0098 75.7773C82.0098 75.0391 81.8672 74.4688 81.582 74.0664C81.2969 73.6641 80.8867 73.4629 80.3516 73.4629C79.6367 73.4629 79.123 73.7949 78.8105 74.459V77.2012C79.1426 77.8652 79.6602 78.1973 80.3633 78.1973C80.8828 78.1973 81.2871 77.9961 81.5762 77.5938C81.8652 77.1914 82.0098 76.5859 82.0098 75.7773ZM86.9668 75.5957C86.9668 76.4668 86.8516 77.3027 86.6211 78.1035C86.3945 78.9004 86.0449 79.6367 85.5723 80.3125C85.1035 80.9883 84.6113 81.4688 84.0957 81.7539L83.8672 81.0918C84.4688 80.6309 84.9512 79.916 85.3145 78.9473C85.6816 77.9746 85.8691 76.8965 85.877 75.7129V75.5254C85.877 74.7051 85.791 73.9434 85.6191 73.2402C85.4473 72.5332 85.207 71.9004 84.8984 71.3418C84.5938 70.7832 84.25 70.3477 83.8672 70.0352L84.0957 69.373C84.6113 69.6582 85.1016 70.1348 85.5664 70.8027C86.0352 71.4707 86.3848 72.207 86.6152 73.0117C86.8496 73.8164 86.9668 74.6777 86.9668 75.5957Z" fill="#666666"/>
<circle cx="44" cy="23" r="22.5" fill="#E7F3F9" stroke="#007DC5"/>
<g clip-path="url(#clip0)">
<path d="M35.0469 17.375C35.0469 18.1706 35.3629 18.9337 35.9256 19.4963C36.4882 20.0589 37.2512 20.375 38.0469 20.375C38.8425 20.375 39.6056 20.0589 40.1682 19.4963C40.7308 18.9337 41.0469 18.1706 41.0469 17.375C41.0469 16.5794 40.7308 15.8163 40.1682 15.2537C39.6056 14.6911 38.8425 14.375 38.0469 14.375C37.2512 14.375 36.4882 14.6911 35.9256 15.2537C35.3629 15.8163 35.0469 16.5794 35.0469 17.375Z" stroke="#007DC5" stroke-width="1.3" stroke-linecap="round" stroke-linejoin="round"/>
<path d="M37.5469 12.125H38.5469" stroke="#007DC5" stroke-width="2.1875" stroke-linecap="round" stroke-linejoin="round"/>
<path d="M38.0469 12.125V14.375" stroke="#007DC5" stroke-width="1.3" stroke-linecap="round" stroke-linejoin="round"/>
<path d="M41.4062 13.3086L42.1132 14.0156" stroke="#007DC5" stroke-width="2.1875" stroke-linecap="round" stroke-linejoin="round"/>
<path d="M41.759 13.6621L40.168 15.2531" stroke="#007DC5" stroke-width="1.3" stroke-linecap="round" stroke-linejoin="round"/>
<path d="M43.2969 16.875V17.875" stroke="#007DC5" stroke-width="2.1875" stroke-linecap="round" stroke-linejoin="round"/>
<path d="M43.2969 17.375H41.0469" stroke="#007DC5" stroke-width="1.3" stroke-linecap="round" stroke-linejoin="round"/>
<path d="M42.1132 20.7344L41.4062 21.4414" stroke="#007DC5" stroke-width="2.1875" stroke-linecap="round" stroke-linejoin="round"/>
<path d="M41.759 21.0871L40.168 19.4961" stroke="#007DC5" stroke-width="1.3" stroke-linecap="round" stroke-linejoin="round"/>
<path d="M38.5469 22.625H37.5469" stroke="#007DC5" stroke-width="2.1875" stroke-linecap="round" stroke-linejoin="round"/>
<path d="M38.0469 22.625V20.375" stroke="#007DC5" stroke-width="1.3" stroke-linecap="round" stroke-linejoin="round"/>
<path d="M34.6875 21.4414L33.9805 20.7344" stroke="#007DC5" stroke-width="2.1875" stroke-linecap="round" stroke-linejoin="round"/>
<path d="M34.3359 21.0871L35.9269 19.4961" stroke="#007DC5" stroke-width="1.3" stroke-linecap="round" stroke-linejoin="round"/>
<path d="M32.7969 17.875V16.875" stroke="#007DC5" stroke-width="2.1875" stroke-linecap="round" stroke-linejoin="round"/>
<path d="M32.7969 17.375H35.0469" stroke="#007DC5" stroke-width="1.3" stroke-linecap="round" stroke-linejoin="round"/>
<path d="M33.9805 14.0156L34.6875 13.3086" stroke="#007DC5" stroke-width="2.1875" stroke-linecap="round" stroke-linejoin="round"/>
<path d="M34.3359 13.6621L35.9269 15.2531" stroke="#007DC5" stroke-width="1.3" stroke-linecap="round" stroke-linejoin="round"/>
<path d="M50.1469 20.0996C50.7985 20.6522 51.3275 21.3349 51.7 22.1038C52.0725 22.8728 52.2802 23.7111 52.3098 24.565C52.3395 25.4189 52.1904 26.2695 51.8722 27.0625C51.554 27.8554 51.0736 28.5731 50.4619 29.1696C49.2664 30.3366 47.662 30.9898 45.9914 30.9898C44.3208 30.9898 42.7164 30.3366 41.5209 29.1696C40.8046 28.4686 40.2698 27.6037 39.9629 26.6496" stroke="#007DC5" stroke-width="1.3" stroke-linecap="round" stroke-linejoin="round"/>
<path d="M48.1516 22.0531C47.981 22.22 47.7518 22.3135 47.5131 22.3135C47.2744 22.3135 47.0452 22.22 46.8746 22.0531L45.6006 20.7991C45.5169 20.7176 45.4503 20.6201 45.4048 20.5124C45.3594 20.4047 45.3359 20.289 45.3359 20.1721C45.3359 20.0552 45.3594 19.9395 45.4048 19.8318C45.4503 19.7241 45.5169 19.6266 45.6006 19.5451L49.4326 15.7811C49.6035 15.6146 49.8326 15.5215 50.0711 15.5215C50.3096 15.5215 50.5388 15.6146 50.7096 15.7811L51.9866 17.0361C52.0704 17.1176 52.1369 17.2151 52.1824 17.3228C52.2279 17.4305 52.2513 17.5462 52.2513 17.6631C52.2513 17.78 52.2279 17.8957 52.1824 18.0034C52.1369 18.1111 52.0704 18.2086 51.9866 18.2901L48.1516 22.0531Z" stroke="#007DC5" stroke-width="1.3" stroke-linecap="round" stroke-linejoin="round"/>
<path d="M51.168 16.2362L53.758 13.6442L52.313 12.1992" stroke="#007DC5" stroke-width="1.3" stroke-linecap="round" stroke-linejoin="round"/>
<path d="M55.2028 15.0895L53.7578 13.6445" stroke="#007DC5" stroke-width="1.3" stroke-linecap="round" stroke-linejoin="round"/>
<path d="M37.7969 26.6504H42.8549" stroke="#007DC5" stroke-width="1.3" stroke-linecap="round" stroke-linejoin="round"/>
<path d="M38.5859 33.875H52.3139" stroke="#007DC5" stroke-width="1.3" stroke-linecap="round" stroke-linejoin="round"/>
<path d="M45.8105 30.9844V33.8744" stroke="#007DC5" stroke-width="1.3" stroke-linecap="round" stroke-linejoin="round"/>
</g>
<defs>
<clipPath id="clip0">
<rect width="24" height="24" fill="white" transform="translate(32 11)"/>
</clipPath>
</defs>
</svg>
