<svg width="88" height="69" viewBox="0 0 88 69" fill="none" xmlns="http://www.w3.org/2000/svg">
<path d="M26.5977 63.5059L29.0352 56.4688H30.2656L27.1016 65H26.1055L22.9473 56.4688H24.1719L26.5977 63.5059ZM34.8887 65C34.8262 64.875 34.7754 64.6523 34.7363 64.332C34.2324 64.8555 33.6309 65.1172 32.9316 65.1172C32.3066 65.1172 31.793 64.9414 31.3906 64.5898C30.9922 64.2344 30.793 63.7852 30.793 63.2422C30.793 62.582 31.043 62.0703 31.543 61.707C32.0469 61.3398 32.7539 61.1562 33.6641 61.1562H34.7188V60.6582C34.7188 60.2793 34.6055 59.9785 34.3789 59.7559C34.1523 59.5293 33.8184 59.416 33.377 59.416C32.9902 59.416 32.666 59.5137 32.4043 59.709C32.1426 59.9043 32.0117 60.1406 32.0117 60.418H30.9219C30.9219 60.1016 31.0332 59.7969 31.2559 59.5039C31.4824 59.207 31.7871 58.9727 32.1699 58.8008C32.5566 58.6289 32.9805 58.543 33.4414 58.543C34.1719 58.543 34.7441 58.7266 35.1582 59.0938C35.5723 59.457 35.7871 59.959 35.8027 60.5996V63.5176C35.8027 64.0996 35.877 64.5625 36.0254 64.9062V65H34.8887ZM33.0898 64.1738C33.4297 64.1738 33.752 64.0859 34.0566 63.9102C34.3613 63.7344 34.582 63.5059 34.7188 63.2246V61.9238H33.8691C32.541 61.9238 31.877 62.3125 31.877 63.0898C31.877 63.4297 31.9902 63.6953 32.2168 63.8867C32.4434 64.0781 32.7344 64.1738 33.0898 64.1738ZM40.0449 64.2324C40.4316 64.2324 40.7695 64.1152 41.0586 63.8809C41.3477 63.6465 41.5078 63.3535 41.5391 63.002H42.5645C42.5449 63.3652 42.4199 63.7109 42.1895 64.0391C41.959 64.3672 41.6504 64.6289 41.2637 64.8242C40.8809 65.0195 40.4746 65.1172 40.0449 65.1172C39.1816 65.1172 38.4941 64.8301 37.9824 64.2559C37.4746 63.6777 37.2207 62.8887 37.2207 61.8887V61.707C37.2207 61.0898 37.334 60.541 37.5605 60.0605C37.7871 59.5801 38.1113 59.207 38.5332 58.9414C38.959 58.6758 39.4609 58.543 40.0391 58.543C40.75 58.543 41.3398 58.7559 41.8086 59.1816C42.2812 59.6074 42.5332 60.1602 42.5645 60.8398H41.5391C41.5078 60.4297 41.3516 60.0938 41.0703 59.832C40.793 59.5664 40.4492 59.4336 40.0391 59.4336C39.4883 59.4336 39.0605 59.6328 38.7559 60.0312C38.4551 60.4258 38.3047 60.998 38.3047 61.748V61.9531C38.3047 62.6836 38.4551 63.2461 38.7559 63.6406C39.0566 64.0352 39.4863 64.2324 40.0449 64.2324ZM44.9609 65H43.877V58.6602H44.9609V65ZM43.7891 56.9785C43.7891 56.8027 43.8418 56.6543 43.9473 56.5332C44.0566 56.4121 44.2168 56.3516 44.4277 56.3516C44.6387 56.3516 44.7988 56.4121 44.9082 56.5332C45.0176 56.6543 45.0723 56.8027 45.0723 56.9785C45.0723 57.1543 45.0176 57.3008 44.9082 57.418C44.7988 57.5352 44.6387 57.5938 44.4277 57.5938C44.2168 57.5938 44.0566 57.5352 43.9473 57.418C43.8418 57.3008 43.7891 57.1543 43.7891 56.9785ZM47.7266 58.6602L47.7617 59.457C48.2461 58.8477 48.8789 58.543 49.6602 58.543C51 58.543 51.6758 59.2988 51.6875 60.8105V65H50.6035V60.8047C50.5996 60.3477 50.4941 60.0098 50.2871 59.791C50.084 59.5723 49.7656 59.4629 49.332 59.4629C48.9805 59.4629 48.6719 59.5566 48.4062 59.7441C48.1406 59.9316 47.9336 60.1777 47.7852 60.4824V65H46.7012V58.6602H47.7266ZM57.2363 65C57.1738 64.875 57.123 64.6523 57.084 64.332C56.5801 64.8555 55.9785 65.1172 55.2793 65.1172C54.6543 65.1172 54.1406 64.9414 53.7383 64.5898C53.3398 64.2344 53.1406 63.7852 53.1406 63.2422C53.1406 62.582 53.3906 62.0703 53.8906 61.707C54.3945 61.3398 55.1016 61.1562 56.0117 61.1562H57.0664V60.6582C57.0664 60.2793 56.9531 59.9785 56.7266 59.7559C56.5 59.5293 56.166 59.416 55.7246 59.416C55.3379 59.416 55.0137 59.5137 54.752 59.709C54.4902 59.9043 54.3594 60.1406 54.3594 60.418H53.2695C53.2695 60.1016 53.3809 59.7969 53.6035 59.5039C53.8301 59.207 54.1348 58.9727 54.5176 58.8008C54.9043 58.6289 55.3281 58.543 55.7891 58.543C56.5195 58.543 57.0918 58.7266 57.5059 59.0938C57.9199 59.457 58.1348 59.959 58.1504 60.5996V63.5176C58.1504 64.0996 58.2246 64.5625 58.373 64.9062V65H57.2363ZM55.4375 64.1738C55.7773 64.1738 56.0996 64.0859 56.4043 63.9102C56.709 63.7344 56.9297 63.5059 57.0664 63.2246V61.9238H56.2168C54.8887 61.9238 54.2246 62.3125 54.2246 63.0898C54.2246 63.4297 54.3379 63.6953 54.5645 63.8867C54.791 64.0781 55.082 64.1738 55.4375 64.1738ZM63.541 63.3184C63.541 63.0254 63.4297 62.7988 63.207 62.6387C62.9883 62.4746 62.6035 62.334 62.0527 62.2168C61.5059 62.0996 61.0703 61.959 60.7461 61.7949C60.4258 61.6309 60.1875 61.4355 60.0312 61.209C59.8789 60.9824 59.8027 60.7129 59.8027 60.4004C59.8027 59.8809 60.0215 59.4414 60.459 59.082C60.9004 58.7227 61.4629 58.543 62.1465 58.543C62.8652 58.543 63.4473 58.7285 63.8926 59.0996C64.3418 59.4707 64.5664 59.9453 64.5664 60.5234H63.4766C63.4766 60.2266 63.3496 59.9707 63.0957 59.7559C62.8457 59.541 62.5293 59.4336 62.1465 59.4336C61.752 59.4336 61.4434 59.5195 61.2207 59.6914C60.998 59.8633 60.8867 60.0879 60.8867 60.3652C60.8867 60.627 60.9902 60.8242 61.1973 60.957C61.4043 61.0898 61.7773 61.2168 62.3164 61.3379C62.8594 61.459 63.2988 61.6035 63.6348 61.7715C63.9707 61.9395 64.2188 62.1426 64.3789 62.3809C64.543 62.6152 64.625 62.9023 64.625 63.2422C64.625 63.8086 64.3984 64.2637 63.9453 64.6074C63.4922 64.9473 62.9043 65.1172 62.1816 65.1172C61.6738 65.1172 61.2246 65.0273 60.834 64.8477C60.4434 64.668 60.1367 64.418 59.9141 64.0977C59.6953 63.7734 59.5859 63.4238 59.5859 63.0488H60.6699C60.6895 63.4121 60.834 63.7012 61.1035 63.916C61.377 64.127 61.7363 64.2324 62.1816 64.2324C62.5918 64.2324 62.9199 64.1504 63.166 63.9863C63.416 63.8184 63.541 63.5957 63.541 63.3184Z" fill="#666666"/>
<circle cx="44" cy="23" r="22.5" fill="#E7F3F9" stroke="#007DC5"/>
<path fill-rule="evenodd" clip-rule="evenodd" d="M39.8932 30.0378L36.7112 26.8558C36.4297 26.5744 36.2715 26.1927 36.2715 25.7948C36.2715 25.3968 36.4297 25.0151 36.7112 24.7338L45.7272 15.7188L51.0272 21.0188L42.0122 30.0347C41.4275 30.6198 40.4795 30.6212 39.8932 30.0378Z" stroke="#007DC5" stroke-width="1.3" stroke-linecap="round" stroke-linejoin="round"/>
<rect x="34.5918" y="30.0391" width="3.75" height="3" transform="rotate(-45 34.5918 30.0391)" stroke="#007DC5" stroke-width="1.3" stroke-linecap="round" stroke-linejoin="round"/>
<path d="M33 33.7497L35.652 31.0977" stroke="#007DC5" stroke-width="1.3" stroke-linecap="round" stroke-linejoin="round"/>
<path d="M44.1367 14.127L52.6217 22.612" stroke="#007DC5" stroke-width="1.3" stroke-linecap="round" stroke-linejoin="round"/>
<rect x="47.3184" y="17.3086" width="5.25" height="3" transform="rotate(-45 47.3184 17.3086)" stroke="#007DC5" stroke-width="1.3" stroke-linecap="round" stroke-linejoin="round"/>
<path d="M49.4395 12.0059L54.7435 17.3099" stroke="#007DC5" stroke-width="1.3" stroke-linecap="round" stroke-linejoin="round"/>
<path d="M45.7285 22.082L47.8495 24.203" stroke="#007DC5" stroke-width="1.3" stroke-linecap="round" stroke-linejoin="round"/>
<path d="M42.5469 25.2656L44.6679 27.3866" stroke="#007DC5" stroke-width="1.3" stroke-linecap="round" stroke-linejoin="round"/>
</svg>
