<svg width="172" height="196" viewBox="0 0 172 196" fill="none" xmlns="http://www.w3.org/2000/svg">
<path d="M8.67188 166.008L11.9219 156.625H13.5625L9.34375 168H8.01562L3.80469 156.625H5.4375L8.67188 166.008ZM14.125 163.695C14.125 162.867 14.2865 162.122 14.6094 161.461C14.9375 160.799 15.3906 160.289 15.9688 159.93C16.5521 159.57 17.2161 159.391 17.9609 159.391C19.112 159.391 20.0417 159.789 20.75 160.586C21.4635 161.383 21.8203 162.443 21.8203 163.766V163.867C21.8203 164.69 21.6615 165.43 21.3438 166.086C21.0312 166.737 20.5807 167.245 19.9922 167.609C19.4089 167.974 18.737 168.156 17.9766 168.156C16.8307 168.156 15.901 167.758 15.1875 166.961C14.4792 166.164 14.125 165.109 14.125 163.797V163.695ZM15.5781 163.867C15.5781 164.805 15.7943 165.557 16.2266 166.125C16.6641 166.693 17.2474 166.977 17.9766 166.977C18.7109 166.977 19.2943 166.69 19.7266 166.117C20.1589 165.539 20.375 164.732 20.375 163.695C20.375 162.768 20.1536 162.018 19.7109 161.445C19.2734 160.867 18.6901 160.578 17.9609 160.578C17.2474 160.578 16.6719 160.862 16.2344 161.43C15.7969 161.997 15.5781 162.81 15.5781 163.867ZM27.0234 166.977C27.5391 166.977 27.9896 166.82 28.375 166.508C28.7604 166.195 28.974 165.805 29.0156 165.336H30.3828C30.3568 165.82 30.1901 166.281 29.8828 166.719C29.5755 167.156 29.1641 167.505 28.6484 167.766C28.138 168.026 27.5964 168.156 27.0234 168.156C25.8724 168.156 24.9557 167.773 24.2734 167.008C23.5964 166.237 23.2578 165.185 23.2578 163.852V163.609C23.2578 162.786 23.4089 162.055 23.7109 161.414C24.013 160.773 24.4453 160.276 25.0078 159.922C25.5755 159.568 26.2448 159.391 27.0156 159.391C27.9635 159.391 28.75 159.674 29.375 160.242C30.0052 160.81 30.3411 161.547 30.3828 162.453H29.0156C28.974 161.906 28.7656 161.458 28.3906 161.109C28.0208 160.755 27.5625 160.578 27.0156 160.578C26.2812 160.578 25.7109 160.844 25.3047 161.375C24.9036 161.901 24.7031 162.664 24.7031 163.664V163.938C24.7031 164.911 24.9036 165.661 25.3047 166.188C25.7057 166.714 26.2786 166.977 27.0234 166.977ZM35.5156 168.156C34.3698 168.156 33.4375 167.781 32.7188 167.031C32 166.276 31.6406 165.268 31.6406 164.008V163.742C31.6406 162.904 31.7995 162.156 32.1172 161.5C32.4401 160.839 32.888 160.323 33.4609 159.953C34.0391 159.578 34.6641 159.391 35.3359 159.391C36.4349 159.391 37.2891 159.753 37.8984 160.477C38.5078 161.201 38.8125 162.237 38.8125 163.586V164.188H33.0859C33.1068 165.021 33.349 165.695 33.8125 166.211C34.2812 166.721 34.875 166.977 35.5938 166.977C36.1042 166.977 36.5365 166.872 36.8906 166.664C37.2448 166.456 37.5547 166.18 37.8203 165.836L38.7031 166.523C37.9948 167.612 36.9323 168.156 35.5156 168.156ZM35.3359 160.578C34.7526 160.578 34.263 160.792 33.8672 161.219C33.4714 161.641 33.2266 162.234 33.1328 163H37.3672V162.891C37.3255 162.156 37.1276 161.589 36.7734 161.188C36.4193 160.781 35.9401 160.578 35.3359 160.578ZM37.6953 158.141V158.219H36.5L35.3281 156.891L34.1641 158.219H32.9688V158.125L34.8906 156H35.7656L37.6953 158.141ZM49.6797 168C49.5964 167.833 49.5286 167.536 49.4766 167.109C48.8047 167.807 48.0026 168.156 47.0703 168.156C46.237 168.156 45.5521 167.922 45.0156 167.453C44.4844 166.979 44.2188 166.38 44.2188 165.656C44.2188 164.776 44.5521 164.094 45.2188 163.609C45.8906 163.12 46.8333 162.875 48.0469 162.875H49.4531V162.211C49.4531 161.706 49.3021 161.305 49 161.008C48.6979 160.706 48.2526 160.555 47.6641 160.555C47.1484 160.555 46.7161 160.685 46.3672 160.945C46.0182 161.206 45.8438 161.521 45.8438 161.891H44.3906C44.3906 161.469 44.5391 161.062 44.8359 160.672C45.138 160.276 45.5443 159.964 46.0547 159.734C46.5703 159.505 47.1354 159.391 47.75 159.391C48.724 159.391 49.487 159.635 50.0391 160.125C50.5911 160.609 50.8776 161.279 50.8984 162.133V166.023C50.8984 166.799 50.9974 167.417 51.1953 167.875V168H49.6797ZM47.2812 166.898C47.7344 166.898 48.1641 166.781 48.5703 166.547C48.9766 166.312 49.2708 166.008 49.4531 165.633V163.898H48.3203C46.5495 163.898 45.6641 164.417 45.6641 165.453C45.6641 165.906 45.8151 166.26 46.1172 166.516C46.4193 166.771 46.8073 166.898 47.2812 166.898ZM54.7344 168H53.2891V159.547H54.7344V168ZM53.1719 157.305C53.1719 157.07 53.2422 156.872 53.3828 156.711C53.5286 156.549 53.7422 156.469 54.0234 156.469C54.3047 156.469 54.5182 156.549 54.6641 156.711C54.8099 156.872 54.8828 157.07 54.8828 157.305C54.8828 157.539 54.8099 157.734 54.6641 157.891C54.5182 158.047 54.3047 158.125 54.0234 158.125C53.7422 158.125 53.5286 158.047 53.3828 157.891C53.2422 157.734 53.1719 157.539 53.1719 157.305ZM58.4219 159.547L58.4688 160.609C59.1146 159.797 59.9583 159.391 61 159.391C62.7865 159.391 63.6875 160.398 63.7031 162.414V168H62.2578V162.406C62.2526 161.797 62.112 161.346 61.8359 161.055C61.5651 160.763 61.1406 160.617 60.5625 160.617C60.0938 160.617 59.6823 160.742 59.3281 160.992C58.974 161.242 58.6979 161.57 58.5 161.977V168H57.0547V159.547H58.4219ZM65.5312 163.703C65.5312 162.406 65.8385 161.365 66.4531 160.578C67.0677 159.786 67.8724 159.391 68.8672 159.391C69.8568 159.391 70.6406 159.729 71.2188 160.406V156H72.6641V168H71.3359L71.2656 167.094C70.6875 167.802 69.8828 168.156 68.8516 168.156C67.8724 168.156 67.0729 167.755 66.4531 166.953C65.8385 166.151 65.5312 165.104 65.5312 163.812V163.703ZM66.9766 163.867C66.9766 164.826 67.1745 165.576 67.5703 166.117C67.9661 166.659 68.513 166.93 69.2109 166.93C70.1276 166.93 70.7969 166.518 71.2188 165.695V161.812C70.7865 161.016 70.1224 160.617 69.2266 160.617C68.5182 160.617 67.9661 160.891 67.5703 161.438C67.1745 161.984 66.9766 162.794 66.9766 163.867ZM80.1328 168C80.0495 167.833 79.9818 167.536 79.9297 167.109C79.2578 167.807 78.4557 168.156 77.5234 168.156C76.6901 168.156 76.0052 167.922 75.4688 167.453C74.9375 166.979 74.6719 166.38 74.6719 165.656C74.6719 164.776 75.0052 164.094 75.6719 163.609C76.3438 163.12 77.2865 162.875 78.5 162.875H79.9062V162.211C79.9062 161.706 79.7552 161.305 79.4531 161.008C79.151 160.706 78.7057 160.555 78.1172 160.555C77.6016 160.555 77.1693 160.685 76.8203 160.945C76.4714 161.206 76.2969 161.521 76.2969 161.891H74.8438C74.8438 161.469 74.9922 161.062 75.2891 160.672C75.5911 160.276 75.9974 159.964 76.5078 159.734C77.0234 159.505 77.5885 159.391 78.2031 159.391C79.1771 159.391 79.9401 159.635 80.4922 160.125C81.0443 160.609 81.3307 161.279 81.3516 162.133V166.023C81.3516 166.799 81.4505 167.417 81.6484 167.875V168H80.1328ZM77.7344 166.898C78.1875 166.898 78.6172 166.781 79.0234 166.547C79.4297 166.312 79.724 166.008 79.9062 165.633V163.898H78.7734C77.0026 163.898 76.1172 164.417 76.1172 165.453C76.1172 165.906 76.2682 166.26 76.5703 166.516C76.8724 166.771 77.2604 166.898 77.7344 166.898ZM88.9531 159.547L89 160.609C89.6458 159.797 90.4896 159.391 91.5312 159.391C93.3177 159.391 94.2188 160.398 94.2344 162.414V168H92.7891V162.406C92.7839 161.797 92.6432 161.346 92.3672 161.055C92.0964 160.763 91.6719 160.617 91.0938 160.617C90.625 160.617 90.2135 160.742 89.8594 160.992C89.5052 161.242 89.2292 161.57 89.0312 161.977V168H87.5859V159.547H88.9531ZM101.633 168C101.549 167.833 101.482 167.536 101.43 167.109C100.758 167.807 99.9557 168.156 99.0234 168.156C98.1901 168.156 97.5052 167.922 96.9688 167.453C96.4375 166.979 96.1719 166.38 96.1719 165.656C96.1719 164.776 96.5052 164.094 97.1719 163.609C97.8438 163.12 98.7865 162.875 100 162.875H101.406V162.211C101.406 161.706 101.255 161.305 100.953 161.008C100.651 160.706 100.206 160.555 99.6172 160.555C99.1016 160.555 98.6693 160.685 98.3203 160.945C97.9714 161.206 97.7969 161.521 97.7969 161.891H96.3438C96.3438 161.469 96.4922 161.062 96.7891 160.672C97.0911 160.276 97.4974 159.964 98.0078 159.734C98.5234 159.505 99.0885 159.391 99.7031 159.391C100.677 159.391 101.44 159.635 101.992 160.125C102.544 160.609 102.831 161.279 102.852 162.133V166.023C102.852 166.799 102.951 167.417 103.148 167.875V168H101.633ZM99.2344 166.898C99.6875 166.898 100.117 166.781 100.523 166.547C100.93 166.312 101.224 166.008 101.406 165.633V163.898H100.273C98.5026 163.898 97.6172 164.417 97.6172 165.453C97.6172 165.906 97.7682 166.26 98.0703 166.516C98.3724 166.771 98.7604 166.898 99.2344 166.898ZM102.633 156.25C102.633 156.812 102.471 157.268 102.148 157.617C101.831 157.966 101.432 158.141 100.953 158.141C100.74 158.141 100.555 158.115 100.398 158.062C100.242 158.01 100.036 157.904 99.7812 157.742C99.5312 157.581 99.349 157.484 99.2344 157.453C99.125 157.417 98.9974 157.398 98.8516 157.398C98.638 157.398 98.4557 157.482 98.3047 157.648C98.1536 157.81 98.0781 158.018 98.0781 158.273L97.1094 158.219C97.1094 157.661 97.2656 157.201 97.5781 156.836C97.8958 156.471 98.2969 156.289 98.7812 156.289C98.9635 156.289 99.1276 156.315 99.2734 156.367C99.4193 156.419 99.6172 156.521 99.8672 156.672C100.117 156.823 100.307 156.922 100.438 156.969C100.573 157.016 100.721 157.039 100.883 157.039C101.107 157.039 101.292 156.951 101.438 156.773C101.589 156.596 101.664 156.391 101.664 156.156L102.633 156.25ZM104.734 163.695C104.734 162.867 104.896 162.122 105.219 161.461C105.547 160.799 106 160.289 106.578 159.93C107.161 159.57 107.826 159.391 108.57 159.391C109.721 159.391 110.651 159.789 111.359 160.586C112.073 161.383 112.43 162.443 112.43 163.766V163.867C112.43 164.69 112.271 165.43 111.953 166.086C111.641 166.737 111.19 167.245 110.602 167.609C110.018 167.974 109.346 168.156 108.586 168.156C107.44 168.156 106.51 167.758 105.797 166.961C105.089 166.164 104.734 165.109 104.734 163.797V163.695ZM106.188 163.867C106.188 164.805 106.404 165.557 106.836 166.125C107.273 166.693 107.857 166.977 108.586 166.977C109.32 166.977 109.904 166.69 110.336 166.117C110.768 165.539 110.984 164.732 110.984 163.695C110.984 162.768 110.763 162.018 110.32 161.445C109.883 160.867 109.299 160.578 108.57 160.578C107.857 160.578 107.281 160.862 106.844 161.43C106.406 161.997 106.188 162.81 106.188 163.867ZM125.352 163.867C125.352 165.154 125.057 166.19 124.469 166.977C123.88 167.763 123.083 168.156 122.078 168.156C121.052 168.156 120.245 167.831 119.656 167.18V171.25H118.211V159.547H119.531L119.602 160.484C120.19 159.755 121.008 159.391 122.055 159.391C123.07 159.391 123.872 159.773 124.461 160.539C125.055 161.305 125.352 162.37 125.352 163.734V163.867ZM123.906 163.703C123.906 162.75 123.703 161.997 123.297 161.445C122.891 160.893 122.333 160.617 121.625 160.617C120.75 160.617 120.094 161.005 119.656 161.781V165.82C120.089 166.591 120.75 166.977 121.641 166.977C122.333 166.977 122.883 166.703 123.289 166.156C123.701 165.604 123.906 164.786 123.906 163.703ZM126.812 163.695C126.812 162.867 126.974 162.122 127.297 161.461C127.625 160.799 128.078 160.289 128.656 159.93C129.24 159.57 129.904 159.391 130.648 159.391C131.799 159.391 132.729 159.789 133.438 160.586C134.151 161.383 134.508 162.443 134.508 163.766V163.867C134.508 164.69 134.349 165.43 134.031 166.086C133.719 166.737 133.268 167.245 132.68 167.609C132.096 167.974 131.424 168.156 130.664 168.156C129.518 168.156 128.589 167.758 127.875 166.961C127.167 166.164 126.812 165.109 126.812 163.797V163.695ZM128.266 163.867C128.266 164.805 128.482 165.557 128.914 166.125C129.352 166.693 129.935 166.977 130.664 166.977C131.398 166.977 131.982 166.69 132.414 166.117C132.846 165.539 133.062 164.732 133.062 163.695C133.062 162.768 132.841 162.018 132.398 161.445C131.961 160.867 131.378 160.578 130.648 160.578C129.935 160.578 129.359 160.862 128.922 161.43C128.484 161.997 128.266 162.81 128.266 163.867ZM141.242 165.758C141.242 165.367 141.094 165.065 140.797 164.852C140.505 164.633 139.992 164.445 139.258 164.289C138.529 164.133 137.948 163.945 137.516 163.727C137.089 163.508 136.771 163.247 136.562 162.945C136.359 162.643 136.258 162.284 136.258 161.867C136.258 161.174 136.549 160.589 137.133 160.109C137.721 159.63 138.471 159.391 139.383 159.391C140.341 159.391 141.117 159.638 141.711 160.133C142.31 160.628 142.609 161.26 142.609 162.031H141.156C141.156 161.635 140.987 161.294 140.648 161.008C140.315 160.721 139.893 160.578 139.383 160.578C138.857 160.578 138.445 160.693 138.148 160.922C137.852 161.151 137.703 161.451 137.703 161.82C137.703 162.169 137.841 162.432 138.117 162.609C138.393 162.786 138.891 162.956 139.609 163.117C140.333 163.279 140.919 163.471 141.367 163.695C141.815 163.919 142.146 164.19 142.359 164.508C142.578 164.82 142.688 165.203 142.688 165.656C142.688 166.411 142.385 167.018 141.781 167.477C141.177 167.93 140.393 168.156 139.43 168.156C138.753 168.156 138.154 168.036 137.633 167.797C137.112 167.557 136.703 167.224 136.406 166.797C136.115 166.365 135.969 165.898 135.969 165.398H137.414C137.44 165.883 137.633 166.268 137.992 166.555C138.357 166.836 138.836 166.977 139.43 166.977C139.977 166.977 140.414 166.867 140.742 166.648C141.076 166.424 141.242 166.128 141.242 165.758ZM149.492 165.758C149.492 165.367 149.344 165.065 149.047 164.852C148.755 164.633 148.242 164.445 147.508 164.289C146.779 164.133 146.198 163.945 145.766 163.727C145.339 163.508 145.021 163.247 144.812 162.945C144.609 162.643 144.508 162.284 144.508 161.867C144.508 161.174 144.799 160.589 145.383 160.109C145.971 159.63 146.721 159.391 147.633 159.391C148.591 159.391 149.367 159.638 149.961 160.133C150.56 160.628 150.859 161.26 150.859 162.031H149.406C149.406 161.635 149.237 161.294 148.898 161.008C148.565 160.721 148.143 160.578 147.633 160.578C147.107 160.578 146.695 160.693 146.398 160.922C146.102 161.151 145.953 161.451 145.953 161.82C145.953 162.169 146.091 162.432 146.367 162.609C146.643 162.786 147.141 162.956 147.859 163.117C148.583 163.279 149.169 163.471 149.617 163.695C150.065 163.919 150.396 164.19 150.609 164.508C150.828 164.82 150.938 165.203 150.938 165.656C150.938 166.411 150.635 167.018 150.031 167.477C149.427 167.93 148.643 168.156 147.68 168.156C147.003 168.156 146.404 168.036 145.883 167.797C145.362 167.557 144.953 167.224 144.656 166.797C144.365 166.365 144.219 165.898 144.219 165.398H145.664C145.69 165.883 145.883 166.268 146.242 166.555C146.607 166.836 147.086 166.977 147.68 166.977C148.227 166.977 148.664 166.867 148.992 166.648C149.326 166.424 149.492 166.128 149.492 165.758ZM158.039 167.164C157.477 167.826 156.651 168.156 155.562 168.156C154.661 168.156 153.974 167.896 153.5 167.375C153.031 166.849 152.794 166.073 152.789 165.047V159.547H154.234V165.008C154.234 166.289 154.755 166.93 155.797 166.93C156.901 166.93 157.635 166.518 158 165.695V159.547H159.445V168H158.07L158.039 167.164ZM163.219 168H161.773V159.547H163.219V168ZM161.656 157.305C161.656 157.07 161.727 156.872 161.867 156.711C162.013 156.549 162.227 156.469 162.508 156.469C162.789 156.469 163.003 156.549 163.148 156.711C163.294 156.872 163.367 157.07 163.367 157.305C163.367 157.539 163.294 157.734 163.148 157.891C163.003 158.047 162.789 158.125 162.508 158.125C162.227 158.125 162.013 158.047 161.867 157.891C161.727 157.734 161.656 157.539 161.656 157.305ZM5.08594 190.156C3.9401 190.156 3.00781 189.781 2.28906 189.031C1.57031 188.276 1.21094 187.268 1.21094 186.008V185.742C1.21094 184.904 1.36979 184.156 1.6875 183.5C2.01042 182.839 2.45833 182.323 3.03125 181.953C3.60938 181.578 4.23438 181.391 4.90625 181.391C6.00521 181.391 6.85938 181.753 7.46875 182.477C8.07812 183.201 8.38281 184.237 8.38281 185.586V186.188H2.65625C2.67708 187.021 2.91927 187.695 3.38281 188.211C3.85156 188.721 4.44531 188.977 5.16406 188.977C5.67448 188.977 6.10677 188.872 6.46094 188.664C6.8151 188.456 7.125 188.18 7.39062 187.836L8.27344 188.523C7.5651 189.612 6.5026 190.156 5.08594 190.156ZM4.90625 182.578C4.32292 182.578 3.83333 182.792 3.4375 183.219C3.04167 183.641 2.79688 184.234 2.70312 185H6.9375V184.891C6.89583 184.156 6.69792 183.589 6.34375 183.188C5.98958 182.781 5.51042 182.578 4.90625 182.578ZM11.4297 181.547L11.4766 182.609C12.1224 181.797 12.9661 181.391 14.0078 181.391C15.7943 181.391 16.6953 182.398 16.7109 184.414V190H15.2656V184.406C15.2604 183.797 15.1198 183.346 14.8438 183.055C14.5729 182.763 14.1484 182.617 13.5703 182.617C13.1016 182.617 12.6901 182.742 12.3359 182.992C11.9818 183.242 11.7057 183.57 11.5078 183.977V190H10.0625V181.547H11.4297ZM18.5391 185.703C18.5391 184.406 18.8464 183.365 19.4609 182.578C20.0755 181.786 20.8802 181.391 21.875 181.391C22.8646 181.391 23.6484 181.729 24.2266 182.406V178H25.6719V190H24.3438L24.2734 189.094C23.6953 189.802 22.8906 190.156 21.8594 190.156C20.8802 190.156 20.0807 189.755 19.4609 188.953C18.8464 188.151 18.5391 187.104 18.5391 185.812V185.703ZM19.9844 185.867C19.9844 186.826 20.1823 187.576 20.5781 188.117C20.974 188.659 21.5208 188.93 22.2188 188.93C23.1354 188.93 23.8047 188.518 24.2266 187.695V183.812C23.7943 183.016 23.1302 182.617 22.2344 182.617C21.526 182.617 20.974 182.891 20.5781 183.438C20.1823 183.984 19.9844 184.794 19.9844 185.867ZM31.4297 190.156C30.2839 190.156 29.3516 189.781 28.6328 189.031C27.9141 188.276 27.5547 187.268 27.5547 186.008V185.742C27.5547 184.904 27.7135 184.156 28.0312 183.5C28.3542 182.839 28.8021 182.323 29.375 181.953C29.9531 181.578 30.5781 181.391 31.25 181.391C32.349 181.391 33.2031 181.753 33.8125 182.477C34.4219 183.201 34.7266 184.237 34.7266 185.586V186.188H29C29.0208 187.021 29.263 187.695 29.7266 188.211C30.1953 188.721 30.7891 188.977 31.5078 188.977C32.0182 188.977 32.4505 188.872 32.8047 188.664C33.1589 188.456 33.4688 188.18 33.7344 187.836L34.6172 188.523C33.9089 189.612 32.8464 190.156 31.4297 190.156ZM31.25 182.578C30.6667 182.578 30.1771 182.792 29.7812 183.219C29.3854 183.641 29.1406 184.234 29.0469 185H33.2812V184.891C33.2396 184.156 33.0417 183.589 32.6875 183.188C32.3333 182.781 31.8542 182.578 31.25 182.578ZM40.4922 182.844C40.2734 182.807 40.0365 182.789 39.7812 182.789C38.8333 182.789 38.1901 183.193 37.8516 184V190H36.4062V181.547H37.8125L37.8359 182.523C38.3099 181.768 38.9818 181.391 39.8516 181.391C40.1328 181.391 40.3464 181.427 40.4922 181.5V182.844ZM45.1797 190.156C44.0339 190.156 43.1016 189.781 42.3828 189.031C41.6641 188.276 41.3047 187.268 41.3047 186.008V185.742C41.3047 184.904 41.4635 184.156 41.7812 183.5C42.1042 182.839 42.5521 182.323 43.125 181.953C43.7031 181.578 44.3281 181.391 45 181.391C46.099 181.391 46.9531 181.753 47.5625 182.477C48.1719 183.201 48.4766 184.237 48.4766 185.586V186.188H42.75C42.7708 187.021 43.013 187.695 43.4766 188.211C43.9453 188.721 44.5391 188.977 45.2578 188.977C45.7682 188.977 46.2005 188.872 46.5547 188.664C46.9089 188.456 47.2188 188.18 47.4844 187.836L48.3672 188.523C47.6589 189.612 46.5964 190.156 45.1797 190.156ZM45 182.578C44.4167 182.578 43.9271 182.792 43.5312 183.219C43.1354 183.641 42.8906 184.234 42.7969 185H47.0312V184.891C46.9896 184.156 46.7917 183.589 46.4375 183.188C46.0833 182.781 45.6042 182.578 45 182.578ZM53.5469 188.977C54.0625 188.977 54.513 188.82 54.8984 188.508C55.2839 188.195 55.4974 187.805 55.5391 187.336H56.9062C56.8802 187.82 56.7135 188.281 56.4062 188.719C56.099 189.156 55.6875 189.505 55.1719 189.766C54.6615 190.026 54.1198 190.156 53.5469 190.156C52.3958 190.156 51.4792 189.773 50.7969 189.008C50.1198 188.237 49.7812 187.185 49.7812 185.852V185.609C49.7812 184.786 49.9323 184.055 50.2344 183.414C50.5365 182.773 50.9688 182.276 51.5312 181.922C52.099 181.568 52.7682 181.391 53.5391 181.391C54.487 181.391 55.2734 181.674 55.8984 182.242C56.5286 182.81 56.8646 183.547 56.9062 184.453H55.5391C55.4974 183.906 55.2891 183.458 54.9141 183.109C54.5443 182.755 54.0859 182.578 53.5391 182.578C52.8047 182.578 52.2344 182.844 51.8281 183.375C51.4271 183.901 51.2266 184.664 51.2266 185.664V185.938C51.2266 186.911 51.4271 187.661 51.8281 188.188C52.2292 188.714 52.8021 188.977 53.5469 188.977ZM53.7812 190.07L53.6875 190.477C54.4844 190.617 54.8828 191.068 54.8828 191.828C54.8828 192.333 54.6745 192.732 54.2578 193.023C53.8411 193.32 53.2604 193.469 52.5156 193.469L52.4609 192.633C52.8724 192.633 53.1901 192.565 53.4141 192.43C53.6432 192.294 53.7578 192.104 53.7578 191.859C53.7578 191.63 53.6745 191.461 53.5078 191.352C53.3411 191.242 53.0026 191.164 52.4922 191.117L52.7422 190.07H53.7812ZM58.1484 185.695C58.1484 184.867 58.3099 184.122 58.6328 183.461C58.9609 182.799 59.4141 182.289 59.9922 181.93C60.5755 181.57 61.2396 181.391 61.9844 181.391C63.1354 181.391 64.0651 181.789 64.7734 182.586C65.487 183.383 65.8438 184.443 65.8438 185.766V185.867C65.8438 186.69 65.6849 187.43 65.3672 188.086C65.0547 188.737 64.6042 189.245 64.0156 189.609C63.4323 189.974 62.7604 190.156 62 190.156C60.8542 190.156 59.9245 189.758 59.2109 188.961C58.5026 188.164 58.1484 187.109 58.1484 185.797V185.695ZM59.6016 185.867C59.6016 186.805 59.8177 187.557 60.25 188.125C60.6875 188.693 61.2708 188.977 62 188.977C62.7344 188.977 63.3177 188.69 63.75 188.117C64.1823 187.539 64.3984 186.732 64.3984 185.695C64.3984 184.768 64.1771 184.018 63.7344 183.445C63.2969 182.867 62.7135 182.578 61.9844 182.578C61.2708 182.578 60.6953 182.862 60.2578 183.43C59.8203 183.997 59.6016 184.81 59.6016 185.867ZM72.5781 187.758C72.5781 187.367 72.4297 187.065 72.1328 186.852C71.8411 186.633 71.3281 186.445 70.5938 186.289C69.8646 186.133 69.2839 185.945 68.8516 185.727C68.4245 185.508 68.1068 185.247 67.8984 184.945C67.6953 184.643 67.5938 184.284 67.5938 183.867C67.5938 183.174 67.8854 182.589 68.4688 182.109C69.0573 181.63 69.8073 181.391 70.7188 181.391C71.6771 181.391 72.4531 181.638 73.0469 182.133C73.6458 182.628 73.9453 183.26 73.9453 184.031H72.4922C72.4922 183.635 72.3229 183.294 71.9844 183.008C71.651 182.721 71.2292 182.578 70.7188 182.578C70.1927 182.578 69.7812 182.693 69.4844 182.922C69.1875 183.151 69.0391 183.451 69.0391 183.82C69.0391 184.169 69.1771 184.432 69.4531 184.609C69.7292 184.786 70.2266 184.956 70.9453 185.117C71.6693 185.279 72.2552 185.471 72.7031 185.695C73.151 185.919 73.4818 186.19 73.6953 186.508C73.9141 186.82 74.0234 187.203 74.0234 187.656C74.0234 188.411 73.7214 189.018 73.1172 189.477C72.513 189.93 71.7292 190.156 70.7656 190.156C70.0885 190.156 69.4896 190.036 68.9688 189.797C68.4479 189.557 68.0391 189.224 67.7422 188.797C67.4505 188.365 67.3047 187.898 67.3047 187.398H68.75C68.776 187.883 68.9688 188.268 69.3281 188.555C69.6927 188.836 70.1719 188.977 70.7656 188.977C71.3125 188.977 71.75 188.867 72.0781 188.648C72.4115 188.424 72.5781 188.128 72.5781 187.758ZM83.2656 188.977C83.7812 188.977 84.2318 188.82 84.6172 188.508C85.0026 188.195 85.2161 187.805 85.2578 187.336H86.625C86.599 187.82 86.4323 188.281 86.125 188.719C85.8177 189.156 85.4062 189.505 84.8906 189.766C84.3802 190.026 83.8385 190.156 83.2656 190.156C82.1146 190.156 81.1979 189.773 80.5156 189.008C79.8385 188.237 79.5 187.185 79.5 185.852V185.609C79.5 184.786 79.651 184.055 79.9531 183.414C80.2552 182.773 80.6875 182.276 81.25 181.922C81.8177 181.568 82.487 181.391 83.2578 181.391C84.2057 181.391 84.9922 181.674 85.6172 182.242C86.2474 182.81 86.5833 183.547 86.625 184.453H85.2578C85.2161 183.906 85.0078 183.458 84.6328 183.109C84.263 182.755 83.8047 182.578 83.2578 182.578C82.5234 182.578 81.9531 182.844 81.5469 183.375C81.1458 183.901 80.9453 184.664 80.9453 185.664V185.938C80.9453 186.911 81.1458 187.661 81.5469 188.188C81.9479 188.714 82.5208 188.977 83.2656 188.977ZM93.4688 190C93.3854 189.833 93.3177 189.536 93.2656 189.109C92.5938 189.807 91.7917 190.156 90.8594 190.156C90.026 190.156 89.3411 189.922 88.8047 189.453C88.2734 188.979 88.0078 188.38 88.0078 187.656C88.0078 186.776 88.3411 186.094 89.0078 185.609C89.6797 185.12 90.6224 184.875 91.8359 184.875H93.2422V184.211C93.2422 183.706 93.0911 183.305 92.7891 183.008C92.487 182.706 92.0417 182.555 91.4531 182.555C90.9375 182.555 90.5052 182.685 90.1562 182.945C89.8073 183.206 89.6328 183.521 89.6328 183.891H88.1797C88.1797 183.469 88.3281 183.062 88.625 182.672C88.9271 182.276 89.3333 181.964 89.8438 181.734C90.3594 181.505 90.9245 181.391 91.5391 181.391C92.513 181.391 93.276 181.635 93.8281 182.125C94.3802 182.609 94.6667 183.279 94.6875 184.133V188.023C94.6875 188.799 94.7865 189.417 94.9844 189.875V190H93.4688ZM91.0703 188.898C91.5234 188.898 91.9531 188.781 92.3594 188.547C92.7656 188.312 93.0599 188.008 93.2422 187.633V185.898H92.1094C90.3385 185.898 89.4531 186.417 89.4531 187.453C89.4531 187.906 89.6042 188.26 89.9062 188.516C90.2083 188.771 90.5964 188.898 91.0703 188.898ZM96.6016 185.703C96.6016 184.406 96.9089 183.365 97.5234 182.578C98.138 181.786 98.9427 181.391 99.9375 181.391C100.927 181.391 101.711 181.729 102.289 182.406V178H103.734V190H102.406L102.336 189.094C101.758 189.802 100.953 190.156 99.9219 190.156C98.9427 190.156 98.1432 189.755 97.5234 188.953C96.9089 188.151 96.6016 187.104 96.6016 185.812V185.703ZM98.0469 185.867C98.0469 186.826 98.2448 187.576 98.6406 188.117C99.0365 188.659 99.5833 188.93 100.281 188.93C101.198 188.93 101.867 188.518 102.289 187.695V183.812C101.857 183.016 101.193 182.617 100.297 182.617C99.5885 182.617 99.0365 182.891 98.6406 183.438C98.2448 183.984 98.0469 184.794 98.0469 185.867ZM111.203 190C111.12 189.833 111.052 189.536 111 189.109C110.328 189.807 109.526 190.156 108.594 190.156C107.76 190.156 107.076 189.922 106.539 189.453C106.008 188.979 105.742 188.38 105.742 187.656C105.742 186.776 106.076 186.094 106.742 185.609C107.414 185.12 108.357 184.875 109.57 184.875H110.977V184.211C110.977 183.706 110.826 183.305 110.523 183.008C110.221 182.706 109.776 182.555 109.188 182.555C108.672 182.555 108.24 182.685 107.891 182.945C107.542 183.206 107.367 183.521 107.367 183.891H105.914C105.914 183.469 106.062 183.062 106.359 182.672C106.661 182.276 107.068 181.964 107.578 181.734C108.094 181.505 108.659 181.391 109.273 181.391C110.247 181.391 111.01 181.635 111.562 182.125C112.115 182.609 112.401 183.279 112.422 184.133V188.023C112.422 188.799 112.521 189.417 112.719 189.875V190H111.203ZM108.805 188.898C109.258 188.898 109.688 188.781 110.094 188.547C110.5 188.312 110.794 188.008 110.977 187.633V185.898H109.844C108.073 185.898 107.188 186.417 107.188 187.453C107.188 187.906 107.339 188.26 107.641 188.516C107.943 188.771 108.331 188.898 108.805 188.898ZM119.609 187.758C119.609 187.367 119.461 187.065 119.164 186.852C118.872 186.633 118.359 186.445 117.625 186.289C116.896 186.133 116.315 185.945 115.883 185.727C115.456 185.508 115.138 185.247 114.93 184.945C114.727 184.643 114.625 184.284 114.625 183.867C114.625 183.174 114.917 182.589 115.5 182.109C116.089 181.63 116.839 181.391 117.75 181.391C118.708 181.391 119.484 181.638 120.078 182.133C120.677 182.628 120.977 183.26 120.977 184.031H119.523C119.523 183.635 119.354 183.294 119.016 183.008C118.682 182.721 118.26 182.578 117.75 182.578C117.224 182.578 116.812 182.693 116.516 182.922C116.219 183.151 116.07 183.451 116.07 183.82C116.07 184.169 116.208 184.432 116.484 184.609C116.76 184.786 117.258 184.956 117.977 185.117C118.701 185.279 119.286 185.471 119.734 185.695C120.182 185.919 120.513 186.19 120.727 186.508C120.945 186.82 121.055 187.203 121.055 187.656C121.055 188.411 120.753 189.018 120.148 189.477C119.544 189.93 118.76 190.156 117.797 190.156C117.12 190.156 116.521 190.036 116 189.797C115.479 189.557 115.07 189.224 114.773 188.797C114.482 188.365 114.336 187.898 114.336 187.398H115.781C115.807 187.883 116 188.268 116.359 188.555C116.724 188.836 117.203 188.977 117.797 188.977C118.344 188.977 118.781 188.867 119.109 188.648C119.443 188.424 119.609 188.128 119.609 187.758ZM124.898 179.5V181.547H126.477V182.664H124.898V187.906C124.898 188.245 124.969 188.5 125.109 188.672C125.25 188.839 125.49 188.922 125.828 188.922C125.995 188.922 126.224 188.891 126.516 188.828V190C126.135 190.104 125.766 190.156 125.406 190.156C124.76 190.156 124.273 189.961 123.945 189.57C123.617 189.18 123.453 188.625 123.453 187.906V182.664H121.914V181.547H123.453V179.5H124.898ZM132.258 182.844C132.039 182.807 131.802 182.789 131.547 182.789C130.599 182.789 129.956 183.193 129.617 184V190H128.172V181.547H129.578L129.602 182.523C130.076 181.768 130.747 181.391 131.617 181.391C131.898 181.391 132.112 181.427 132.258 181.5V182.844ZM138.5 190C138.417 189.833 138.349 189.536 138.297 189.109C137.625 189.807 136.823 190.156 135.891 190.156C135.057 190.156 134.372 189.922 133.836 189.453C133.305 188.979 133.039 188.38 133.039 187.656C133.039 186.776 133.372 186.094 134.039 185.609C134.711 185.12 135.654 184.875 136.867 184.875H138.273V184.211C138.273 183.706 138.122 183.305 137.82 183.008C137.518 182.706 137.073 182.555 136.484 182.555C135.969 182.555 135.536 182.685 135.188 182.945C134.839 183.206 134.664 183.521 134.664 183.891H133.211C133.211 183.469 133.359 183.062 133.656 182.672C133.958 182.276 134.365 181.964 134.875 181.734C135.391 181.505 135.956 181.391 136.57 181.391C137.544 181.391 138.307 181.635 138.859 182.125C139.411 182.609 139.698 183.279 139.719 184.133V188.023C139.719 188.799 139.818 189.417 140.016 189.875V190H138.5ZM136.102 188.898C136.555 188.898 136.984 188.781 137.391 188.547C137.797 188.312 138.091 188.008 138.273 187.633V185.898H137.141C135.37 185.898 134.484 186.417 134.484 187.453C134.484 187.906 134.635 188.26 134.938 188.516C135.24 188.771 135.628 188.898 136.102 188.898ZM141.633 185.703C141.633 184.406 141.94 183.365 142.555 182.578C143.169 181.786 143.974 181.391 144.969 181.391C145.958 181.391 146.742 181.729 147.32 182.406V178H148.766V190H147.438L147.367 189.094C146.789 189.802 145.984 190.156 144.953 190.156C143.974 190.156 143.174 189.755 142.555 188.953C141.94 188.151 141.633 187.104 141.633 185.812V185.703ZM143.078 185.867C143.078 186.826 143.276 187.576 143.672 188.117C144.068 188.659 144.615 188.93 145.312 188.93C146.229 188.93 146.898 188.518 147.32 187.695V183.812C146.888 183.016 146.224 182.617 145.328 182.617C144.62 182.617 144.068 182.891 143.672 183.438C143.276 183.984 143.078 184.794 143.078 185.867ZM150.633 185.695C150.633 184.867 150.794 184.122 151.117 183.461C151.445 182.799 151.898 182.289 152.477 181.93C153.06 181.57 153.724 181.391 154.469 181.391C155.62 181.391 156.549 181.789 157.258 182.586C157.971 183.383 158.328 184.443 158.328 185.766V185.867C158.328 186.69 158.169 187.43 157.852 188.086C157.539 188.737 157.089 189.245 156.5 189.609C155.917 189.974 155.245 190.156 154.484 190.156C153.339 190.156 152.409 189.758 151.695 188.961C150.987 188.164 150.633 187.109 150.633 185.797V185.695ZM152.086 185.867C152.086 186.805 152.302 187.557 152.734 188.125C153.172 188.693 153.755 188.977 154.484 188.977C155.219 188.977 155.802 188.69 156.234 188.117C156.667 187.539 156.883 186.732 156.883 185.695C156.883 184.768 156.661 184.018 156.219 183.445C155.781 182.867 155.198 182.578 154.469 182.578C153.755 182.578 153.18 182.862 152.742 183.43C152.305 183.997 152.086 184.81 152.086 185.867ZM165.062 187.758C165.062 187.367 164.914 187.065 164.617 186.852C164.326 186.633 163.812 186.445 163.078 186.289C162.349 186.133 161.768 185.945 161.336 185.727C160.909 185.508 160.591 185.247 160.383 184.945C160.18 184.643 160.078 184.284 160.078 183.867C160.078 183.174 160.37 182.589 160.953 182.109C161.542 181.63 162.292 181.391 163.203 181.391C164.161 181.391 164.938 181.638 165.531 182.133C166.13 182.628 166.43 183.26 166.43 184.031H164.977C164.977 183.635 164.807 183.294 164.469 183.008C164.135 182.721 163.714 182.578 163.203 182.578C162.677 182.578 162.266 182.693 161.969 182.922C161.672 183.151 161.523 183.451 161.523 183.82C161.523 184.169 161.661 184.432 161.938 184.609C162.214 184.786 162.711 184.956 163.43 185.117C164.154 185.279 164.74 185.471 165.188 185.695C165.635 185.919 165.966 186.19 166.18 186.508C166.398 186.82 166.508 187.203 166.508 187.656C166.508 188.411 166.206 189.018 165.602 189.477C164.997 189.93 164.214 190.156 163.25 190.156C162.573 190.156 161.974 190.036 161.453 189.797C160.932 189.557 160.523 189.224 160.227 188.797C159.935 188.365 159.789 187.898 159.789 187.398H161.234C161.26 187.883 161.453 188.268 161.812 188.555C162.177 188.836 162.656 188.977 163.25 188.977C163.797 188.977 164.234 188.867 164.562 188.648C164.896 188.424 165.062 188.128 165.062 187.758ZM168.422 189.242C168.422 188.992 168.495 188.784 168.641 188.617C168.792 188.451 169.016 188.367 169.312 188.367C169.609 188.367 169.833 188.451 169.984 188.617C170.141 188.784 170.219 188.992 170.219 189.242C170.219 189.482 170.141 189.682 169.984 189.844C169.833 190.005 169.609 190.086 169.312 190.086C169.016 190.086 168.792 190.005 168.641 189.844C168.495 189.682 168.422 189.482 168.422 189.242Z" fill="#666666"/>
<path d="M125.819 40.2302C125.819 57.1719 101.854 88.5439 90.8633 102.052C88.114 105.431 82.9595 105.562 80.1938 102.309C69.0221 89.1702 44 57.7653 44 40.2941C44 17.7127 62.7572 -0.322948 85.5387 0.00438606C107.937 0.326451 125.819 18.3338 125.819 40.2302Z" fill="#0054A6"/>
<path d="M93.8759 121.505C93.8759 126.035 90.1513 129.836 85.5424 129.996C80.9177 130.156 77.1562 126.59 77.1562 122.031C77.1562 117.472 80.917 113.67 85.5424 113.539C90.1513 113.408 93.8759 116.975 93.8759 121.505Z" fill="#0054A6"/>
<path d="M127.264 40.2302C127.264 57.1719 103.299 88.5439 92.3086 102.052C89.5594 105.431 84.4048 105.562 81.6391 102.309C70.4674 89.1702 45.4453 57.7653 45.4453 40.2941C45.4453 17.7127 64.2025 -0.322948 86.9841 0.00438606C109.383 0.326451 127.264 18.3338 127.264 40.2302Z" fill="#007DC5"/>
<path d="M109.6 40.2438C109.6 52.5383 99.5225 62.598 86.9841 62.7133C74.3265 62.8298 63.9766 52.7866 63.9766 40.2794C63.9766 27.7722 74.3265 17.7125 86.9841 17.8093C99.5225 17.9054 109.6 27.9494 109.6 40.2438Z" fill="white"/>
<g opacity="0.3">
<path opacity="0.3" d="M86.8035 85.654C89.3959 68.8033 100.612 63.3176 98.6941 47.5233C96.478 29.2802 80.0173 24.3333 79.618 7.98441C79.5534 5.35191 79.9185 2.81886 80.6058 0.398438C60.7995 3.15542 45.4453 19.8758 45.4453 40.293C45.4453 57.7648 70.4668 89.1691 81.6391 102.309C83.2674 104.224 85.7254 104.965 88.0318 104.561C86.049 97.2411 85.989 90.9487 86.8035 85.654Z" fill="#007DC5"/>
</g>
<path d="M95.3212 121.505C95.3212 126.035 91.5966 129.836 86.9877 129.996C82.363 130.156 78.6016 126.59 78.6016 122.031C78.6016 117.472 82.3624 113.67 86.9877 113.539C91.5966 113.408 95.3212 116.975 95.3212 121.505Z" fill="#007DC5"/>
</svg>
