<svg width="22" height="22" viewBox="0 0 22 22" fill="none" xmlns="http://www.w3.org/2000/svg">
<path d="M11 16.623C10.8274 16.623 10.6875 16.763 10.6875 16.9355C10.6875 17.1081 10.8274 17.248 11 17.248C11.1726 17.248 11.3125 17.1081 11.3125 16.9355C11.3125 16.763 11.1726 16.623 11 16.623V16.623" stroke="#FFB500" stroke-width="1.6" stroke-linecap="round" stroke-linejoin="round"/>
<path d="M11 14.123V7.87305" stroke="#FFB500" stroke-width="1.6" stroke-linecap="round"/>
<path fill-rule="evenodd" clip-rule="evenodd" d="M12.3508 2.46452C12.0978 1.94942 11.5739 1.62305 11 1.62305C10.4261 1.62305 9.90219 1.94942 9.64918 2.46452L1.75501 18.5462C1.56182 18.9392 1.58518 19.4041 1.81678 19.7757C2.04839 20.1474 2.45543 20.3731 2.89334 20.3728H19.1067C19.5446 20.3731 19.9516 20.1474 20.1832 19.7757C20.4148 19.4041 20.4382 18.9392 20.245 18.5462L12.3508 2.46452Z" stroke="#FFB500" stroke-width="1.6" stroke-linecap="round" stroke-linejoin="round"/>
</svg>
