<svg width="22" height="22" viewBox="0 0 22 22" fill="none" xmlns="http://www.w3.org/2000/svg">
<path d="M11 16.625C10.8274 16.625 10.6875 16.7649 10.6875 16.9375C10.6875 17.1101 10.8274 17.25 11 17.25C11.1726 17.25 11.3125 17.1101 11.3125 16.9375C11.3125 16.7649 11.1726 16.625 11 16.625V16.625" stroke="#FF5110" stroke-width="1.6" stroke-linecap="round" stroke-linejoin="round"/>
<path d="M11 14.125V7.875" stroke="#FF5110" stroke-width="1.6" stroke-linecap="round"/>
<path fill-rule="evenodd" clip-rule="evenodd" d="M12.3508 2.46647C12.0978 1.95137 11.5739 1.625 11 1.625C10.4261 1.625 9.90219 1.95137 9.64918 2.46647L1.75501 18.5481C1.56182 18.9411 1.58518 19.406 1.81678 19.7777C2.04839 20.1493 2.45543 20.3751 2.89334 20.3748H19.1067C19.5446 20.3751 19.9516 20.1493 20.1832 19.7777C20.4148 19.406 20.4382 18.9411 20.245 18.5481L12.3508 2.46647Z" stroke="#FF5110" stroke-width="1.6" stroke-linecap="round" stroke-linejoin="round"/>
</svg>
