<svg width="186" height="54" viewBox="0 0 186 54" fill="none" xmlns="http://www.w3.org/2000/svg">
<g filter="url(#filter0_d)">
<rect x="4.99998" y="5.67987" width="176" height="38.4333" rx="4.99304" fill="#0054A6"/>
</g>
<path d="M4.99998 10.6729C4.99998 7.91533 7.23544 5.67987 9.99301 5.67987H143V44.1131H9.99302C7.23544 44.1131 4.99998 41.8777 4.99998 39.1201V10.6729Z" fill="#CCDDED"/>
<path d="M34.1885 27.748H29.7822L28.8603 30.3965H26.8056L31.1025 19.0215H32.876L37.1806 30.3965H35.1181L34.1885 27.748ZM30.3369 26.1543H33.6338L31.9853 21.4355L30.3369 26.1543ZM40.5322 19.8886V21.9433H42.0244V23.3496H40.5322V28.0683C40.5322 28.3912 40.5947 28.6256 40.7197 28.7715C40.8499 28.9121 41.0791 28.9824 41.4072 28.9824C41.626 28.9824 41.8473 28.9563 42.0713 28.9043V30.373C41.639 30.4928 41.2223 30.5527 40.8213 30.5527C39.3629 30.5527 38.6338 29.748 38.6338 28.1386V23.3496H37.2431V21.9433H38.6338V19.8886H40.5322ZM45.501 30.3965H43.6025V21.9433H45.501V30.3965ZM43.4853 19.748C43.4853 19.4563 43.5765 19.2142 43.7588 19.0215C43.9463 18.8287 44.2119 18.7324 44.5556 18.7324C44.8994 18.7324 45.165 18.8287 45.3525 19.0215C45.54 19.2142 45.6338 19.4563 45.6338 19.748C45.6338 20.0345 45.54 20.2741 45.3525 20.4668C45.165 20.6543 44.8994 20.748 44.5556 20.748C44.2119 20.748 43.9463 20.6543 43.7588 20.4668C43.5765 20.2741 43.4853 20.0345 43.4853 19.748ZM50.5556 27.9902L52.3447 21.9433H54.3056L51.376 30.3965H49.7275L46.7744 21.9433H48.7431L50.5556 27.9902ZM60.4228 30.3965C60.3395 30.235 60.2666 29.972 60.2041 29.6074C59.5999 30.2376 58.8603 30.5527 57.9853 30.5527C57.1364 30.5527 56.4437 30.3105 55.9072 29.8261C55.3707 29.3418 55.1025 28.7428 55.1025 28.0293C55.1025 27.1282 55.4358 26.4381 56.1025 25.959C56.7744 25.4746 57.7327 25.2324 58.9775 25.2324H60.1416V24.6777C60.1416 24.2402 60.0192 23.8912 59.7744 23.6308C59.5296 23.3652 59.1572 23.2324 58.6572 23.2324C58.2249 23.2324 57.8707 23.3418 57.5947 23.5605C57.3187 23.7741 57.1806 24.0475 57.1806 24.3808H55.2822C55.2822 23.9173 55.4358 23.485 55.7431 23.084C56.0504 22.6777 56.4671 22.36 56.9931 22.1308C57.5244 21.9017 58.1155 21.7871 58.7666 21.7871C59.7562 21.7871 60.5452 22.0371 61.1338 22.5371C61.7223 23.0319 62.0244 23.7298 62.04 24.6308V28.4433C62.04 29.2037 62.1468 29.8105 62.3603 30.2636V30.3965H60.4228ZM58.3369 29.0293C58.7119 29.0293 59.0635 28.9381 59.3916 28.7558C59.7249 28.5735 59.9749 28.3287 60.1416 28.0215V26.4277H59.1181C58.415 26.4277 57.8864 26.5501 57.5322 26.7949C57.178 27.0397 57.001 27.386 57.001 27.834C57.001 28.1985 57.1207 28.4902 57.3603 28.709C57.6051 28.9225 57.9306 29.0293 58.3369 29.0293ZM68.4541 23.6777C68.2041 23.636 67.9463 23.6152 67.6806 23.6152C66.8108 23.6152 66.2249 23.9485 65.9228 24.6152V30.3965H64.0244V21.9433H65.8369L65.8838 22.8886C66.3421 22.1543 66.9775 21.7871 67.79 21.7871C68.0608 21.7871 68.2848 21.8235 68.4619 21.8965L68.4541 23.6777ZM73.2822 26.0918C73.2822 25.2636 73.4463 24.5188 73.7744 23.8574C74.1025 23.1907 74.5635 22.6803 75.1572 22.3261C75.751 21.9668 76.4332 21.7871 77.2041 21.7871C78.3447 21.7871 79.2692 22.1543 79.9775 22.8886C80.6911 23.623 81.0765 24.597 81.1338 25.8105L81.1416 26.2558C81.1416 27.0892 80.9801 27.834 80.6572 28.4902C80.3395 29.1465 79.8812 29.6543 79.2822 30.0136C78.6885 30.373 78.001 30.5527 77.2197 30.5527C76.027 30.5527 75.0713 30.1569 74.3525 29.3652C73.639 28.5683 73.2822 27.5084 73.2822 26.1855V26.0918ZM75.1806 26.2558C75.1806 27.1256 75.3603 27.8079 75.7197 28.3027C76.0791 28.7923 76.5791 29.0371 77.2197 29.0371C77.8603 29.0371 78.3577 28.7871 78.7119 28.2871C79.0713 27.7871 79.251 27.0553 79.251 26.0918C79.251 25.2376 79.0661 24.5605 78.6963 24.0605C78.3317 23.5605 77.8343 23.3105 77.2041 23.3105C76.5843 23.3105 76.0921 23.5579 75.7275 24.0527C75.3629 24.5423 75.1806 25.2767 75.1806 26.2558ZM83.415 30.3965V23.3496H82.126V21.9433H83.415V21.1699C83.415 20.2324 83.6754 19.5084 84.1963 18.998C84.7171 18.4876 85.4463 18.2324 86.3838 18.2324C86.7171 18.2324 87.0713 18.2793 87.4463 18.373L87.3994 19.8574C87.1911 19.8157 86.9489 19.7949 86.6728 19.7949C85.7666 19.7949 85.3135 20.261 85.3135 21.1933V21.9433H87.0322V23.3496H85.3135V30.3965H83.415ZM91.9541 30.5527C90.751 30.5527 89.7744 30.1751 89.0244 29.4199C88.2796 28.6595 87.9072 27.6491 87.9072 26.3886V26.1543C87.9072 25.3105 88.0687 24.5579 88.3916 23.8965C88.7197 23.2298 89.178 22.7116 89.7666 22.3418C90.3551 21.972 91.0114 21.7871 91.7353 21.7871C92.8864 21.7871 93.7744 22.1543 94.3994 22.8886C95.0296 23.623 95.3447 24.6621 95.3447 26.0058V26.7715H89.8213C89.8786 27.4694 90.1103 28.0215 90.5166 28.4277C90.928 28.834 91.4437 29.0371 92.0635 29.0371C92.9332 29.0371 93.6416 28.6855 94.1885 27.9824L95.2119 28.959C94.8733 29.4642 94.4202 29.8574 93.8525 30.1386C93.29 30.4147 92.6572 30.5527 91.9541 30.5527ZM91.7275 23.3105C91.2067 23.3105 90.7848 23.4928 90.4619 23.8574C90.1442 24.222 89.9411 24.7298 89.8525 25.3808H93.4697V25.2402C93.428 24.6048 93.2588 24.1256 92.9619 23.8027C92.665 23.4746 92.2536 23.3105 91.7275 23.3105ZM101.251 23.6777C101.001 23.636 100.743 23.6152 100.478 23.6152C99.6077 23.6152 99.0218 23.9485 98.7197 24.6152V30.3965H96.8213V21.9433H98.6338L98.6806 22.8886C99.139 22.1543 99.7744 21.7871 100.587 21.7871C100.858 21.7871 101.082 21.8235 101.259 21.8965L101.251 23.6777ZM105.22 19.8886V21.9433H106.712V23.3496H105.22V28.0683C105.22 28.3912 105.282 28.6256 105.407 28.7715C105.537 28.9121 105.767 28.9824 106.095 28.9824C106.313 28.9824 106.535 28.9563 106.759 28.9043V30.373C106.326 30.4928 105.91 30.5527 105.509 30.5527C104.05 30.5527 103.321 29.748 103.321 28.1386V23.3496H101.931V21.9433H103.321V19.8886H105.22ZM113.22 30.3965C113.136 30.235 113.063 29.972 113.001 29.6074C112.397 30.2376 111.657 30.5527 110.782 30.5527C109.933 30.5527 109.241 30.3105 108.704 29.8261C108.168 29.3418 107.899 28.7428 107.899 28.0293C107.899 27.1282 108.233 26.4381 108.899 25.959C109.571 25.4746 110.53 25.2324 111.774 25.2324H112.938V24.6777C112.938 24.2402 112.816 23.8912 112.571 23.6308C112.326 23.3652 111.954 23.2324 111.454 23.2324C111.022 23.2324 110.668 23.3418 110.392 23.5605C110.116 23.7741 109.978 24.0475 109.978 24.3808H108.079C108.079 23.9173 108.233 23.485 108.54 23.084C108.847 22.6777 109.264 22.36 109.79 22.1308C110.321 21.9017 110.912 21.7871 111.563 21.7871C112.553 21.7871 113.342 22.0371 113.931 22.5371C114.519 23.0319 114.821 23.7298 114.837 24.6308V28.4433C114.837 29.2037 114.944 29.8105 115.157 30.2636V30.3965H113.22ZM111.134 29.0293C111.509 29.0293 111.86 28.9381 112.188 28.7558C112.522 28.5735 112.772 28.3287 112.938 28.0215V26.4277H111.915C111.212 26.4277 110.683 26.5501 110.329 26.7949C109.975 27.0397 109.798 27.386 109.798 27.834C109.798 28.1985 109.918 28.4902 110.157 28.709C110.402 28.9225 110.728 29.0293 111.134 29.0293Z" fill="#0054A6"/>
<rect x="5.62416" y="6.304" width="174.752" height="37.185" rx="4.36891" stroke="#0054A6" stroke-width="1.24826" stroke-dasharray="6.24 6.24"/>
<path fill-rule="evenodd" clip-rule="evenodd" d="M172.77 27.1486V29.6486C172.77 30.339 172.21 30.8986 171.52 30.8986H155.27C154.579 30.8986 154.02 30.339 154.02 29.6486V27.1486C155.4 27.1486 156.52 26.0293 156.52 24.6486C156.52 23.2679 155.4 22.1486 154.02 22.1486V19.6486C154.02 18.9582 154.579 18.3986 155.27 18.3986H171.52C172.21 18.3986 172.77 18.9582 172.77 19.6486V22.1486C171.389 22.1486 170.27 23.2679 170.27 24.6486C170.27 26.0293 171.389 27.1486 172.77 27.1486Z" stroke="#E7F3F9" stroke-width="1.24826" stroke-linecap="round" stroke-linejoin="round"/>
<ellipse cx="160.27" cy="22.1486" rx="1.25" ry="1.25" stroke="#E7F3F9" stroke-width="1.24826" stroke-linecap="round" stroke-linejoin="round"/>
<circle cx="167.145" cy="27.1486" r="1.25" stroke="#E7F3F9" stroke-width="1.24826" stroke-linecap="round" stroke-linejoin="round"/>
<path d="M166.52 21.5236L160.27 27.7736" stroke="#E7F3F9" stroke-width="1.24826" stroke-linecap="round" stroke-linejoin="round"/>
<g filter="url(#filter1_d)">
<path d="M143.381 5.67987L127.794 27.367C126.728 28.8791 126.231 30.7962 126.409 32.7112C126.588 34.6261 127.427 36.388 128.749 37.6225L135.429 42.4768C136.389 43.3668 137.512 44.0115 138.719 44.3658C139.926 44.7201 141.187 44.7754 142.415 44.5279L148.275 42.5999L143.381 5.67987Z" fill="#3376B8"/>
</g>
<defs>
<filter id="filter0_d" x="0.00693989" y="0.686833" width="185.986" height="48.4193" filterUnits="userSpaceOnUse" color-interpolation-filters="sRGB">
<feFlood flood-opacity="0" result="BackgroundImageFix"/>
<feColorMatrix in="SourceAlpha" type="matrix" values="0 0 0 0 0 0 0 0 0 0 0 0 0 0 0 0 0 0 127 0"/>
<feOffset/>
<feGaussianBlur stdDeviation="2.49652"/>
<feColorMatrix type="matrix" values="0 0 0 0 0 0 0 0 0 0 0 0 0 0 0 0 0 0 0.1 0"/>
<feBlend mode="normal" in2="BackgroundImageFix" result="effect1_dropShadow"/>
<feBlend mode="normal" in="SourceGraphic" in2="effect1_dropShadow" result="shape"/>
</filter>
<filter id="filter1_d" x="119.859" y="1.77113" width="34.9304" height="52.0291" filterUnits="userSpaceOnUse" color-interpolation-filters="sRGB">
<feFlood flood-opacity="0" result="BackgroundImageFix"/>
<feColorMatrix in="SourceAlpha" type="matrix" values="0 0 0 0 0 0 0 0 0 0 0 0 0 0 0 0 0 0 127 0"/>
<feOffset dy="2.60582"/>
<feGaussianBlur stdDeviation="3.25728"/>
<feColorMatrix type="matrix" values="0 0 0 0 0 0 0 0 0 0 0 0 0 0 0 0 0 0 0.25 0"/>
<feBlend mode="normal" in2="BackgroundImageFix" result="effect1_dropShadow"/>
<feBlend mode="normal" in="SourceGraphic" in2="effect1_dropShadow" result="shape"/>
</filter>
</defs>
</svg>
