<svg width="16" height="17" viewBox="0 0 16 17" fill="none" xmlns="http://www.w3.org/2000/svg">
<rect x="2.5" y="7.12109" width="11" height="9" rx="1.5" stroke="#303030" stroke-width="1.2" stroke-linecap="round" stroke-linejoin="round"/>
<path d="M4.5 7.12109V4.62109C4.5 2.6881 6.067 1.12109 8 1.12109C9.933 1.12109 11.5 2.6881 11.5 4.62109V7.12109" stroke="#303030" stroke-width="1.2" stroke-linecap="round" stroke-linejoin="round"/>
<path d="M5.75 10.1211C5.61193 10.1211 5.5 10.233 5.5 10.3711C5.5 10.5092 5.61193 10.6211 5.75 10.6211C5.88807 10.6211 6 10.5092 6 10.3711C6 10.233 5.88807 10.1211 5.75 10.1211V10.1211" stroke="#303030" stroke-width="1.2" stroke-linecap="round" stroke-linejoin="round"/>
<path d="M8 10.1211C7.86193 10.1211 7.75 10.233 7.75 10.3711C7.75 10.5092 7.86193 10.6211 8 10.6211C8.13807 10.6211 8.25 10.5092 8.25 10.3711C8.25 10.233 8.13807 10.1211 8 10.1211V10.1211" stroke="#303030" stroke-width="1.2" stroke-linecap="round" stroke-linejoin="round"/>
<path d="M10.25 10.1211C10.1119 10.1211 10 10.233 10 10.3711C10 10.5092 10.1119 10.6211 10.25 10.6211C10.3881 10.6211 10.5 10.5092 10.5 10.3711C10.5 10.233 10.3881 10.1211 10.25 10.1211V10.1211" stroke="#303030" stroke-width="1.2" stroke-linecap="round" stroke-linejoin="round"/>
<path d="M5.75 12.6211C5.61193 12.6211 5.5 12.733 5.5 12.8711C5.5 13.0092 5.61193 13.1211 5.75 13.1211C5.88807 13.1211 6 13.0092 6 12.8711C6 12.733 5.88807 12.6211 5.75 12.6211V12.6211" stroke="#303030" stroke-width="1.2" stroke-linecap="round" stroke-linejoin="round"/>
<path d="M8 12.6211C7.86193 12.6211 7.75 12.733 7.75 12.8711C7.75 13.0092 7.86193 13.1211 8 13.1211C8.13807 13.1211 8.25 13.0092 8.25 12.8711C8.25 12.733 8.13807 12.6211 8 12.6211V12.6211" stroke="#303030" stroke-width="1.2" stroke-linecap="round" stroke-linejoin="round"/>
<path d="M10.25 12.6211C10.1119 12.6211 10 12.733 10 12.8711C10 13.0092 10.1119 13.1211 10.25 13.1211C10.3881 13.1211 10.5 13.0092 10.5 12.8711C10.5 12.733 10.3881 12.6211 10.25 12.6211V12.6211" stroke="#303030" stroke-width="1.2" stroke-linecap="round" stroke-linejoin="round"/>
</svg>
