<svg width="110" height="146" viewBox="0 0 110 146" fill="none" xmlns="http://www.w3.org/2000/svg">
<path d="M55 145.999C85.3765 145.999 110 142.663 110 138.548C110 134.433 85.3736 131.098 55 131.098C24.6235 131.098 0 134.433 0 138.548C0 142.663 24.6235 145.999 55 145.999Z" fill="#E6E6E5"/>
<path d="M33.3086 0L76.7065 5.13401V102.668L33.3086 97.5343V0Z" fill="#F2F1F1"/>
<path d="M0.761719 5.13401L33.3094 0V97.5343L0.761719 102.668V5.13401Z" fill="#C3C5C7"/>
<path d="M76.707 5.13401L109.255 0V97.5343L76.707 102.668V5.13401Z" fill="#C3C5C7"/>
<path d="M6.1875 10.2668L33.3116 5.13281V92.3991L6.1875 97.5331V10.2668Z" fill="#53AE7A"/>
<path d="M33.3125 5.13281L76.7104 10.2668V97.5331L33.3125 92.3991V5.13281Z" fill="#74BA89"/>
<path d="M103.831 92.3991L76.707 97.5331V10.2668L103.831 5.13281V92.3991Z" fill="#53AE7A"/>
<path d="M20.7661 7.1875L8.22266 9.75304L33.3125 34.9076V20.021L20.7661 7.1875Z" fill="#F2B964"/>
<path d="M103.831 82.1326L76.707 87.2666V56.4655L103.831 41.0664V82.1326Z" fill="#F2B964"/>
<path d="M103.831 92.4021L76.707 97.5361V66.735L103.831 51.3359V92.4021Z" fill="#5A94BA"/>
<path d="M33.3125 61.6027L76.7104 56.4688V87.2698L33.3125 82.1358V61.6027Z" fill="#F0D360"/>
<path d="M33.3125 71.8684L76.7104 66.7344V97.5355L33.3125 92.4015V71.8684Z" fill="#6EABD3"/>
<path d="M6.1875 77.0046L33.3116 61.6055V82.1385L6.1875 87.2726V77.0046Z" fill="#F2B964"/>
<path d="M6.1875 87.2663L33.3116 71.8672V92.4003L6.1875 97.5343V87.2663Z" fill="#5A94BA"/>
<path d="M33.3125 34.909V20.0312L55.01 64.4859H47.0421L33.3125 34.909Z" fill="#F0D360"/>
<path opacity="0.2" d="M93.4222 15.048L88.2521 9.85547L75.3327 22.8384L62.4162 9.85547L57.2461 15.048L70.1655 28.0309L57.2461 41.0138L62.4162 46.2064L75.3327 33.2264L88.2521 46.2064L93.4222 41.0138L80.5028 28.0309L93.4222 15.048Z" fill="#666766"/>
<path d="M103.43 11.048L98.2599 5.85547L85.3434 18.8384L72.424 5.85547L67.2539 11.048L80.1733 24.0309L67.2539 37.0138L72.424 42.2064L85.3434 29.2265L98.2599 42.2064L103.43 37.0138L90.5106 24.0309L103.43 11.048Z" fill="#ED2024"/>
</svg>
