<svg width="111" height="146" viewBox="0 0 111 146" fill="none" xmlns="http://www.w3.org/2000/svg">
<path d="M55.9453 145.999C86.3218 145.999 110.945 142.665 110.945 138.552C110.945 134.44 86.3189 131.105 55.9453 131.105C25.5688 131.105 0.945312 134.44 0.945312 138.552C0.945312 142.665 25.5688 145.999 55.9453 145.999Z" fill="#E6E6E5"/>
<path d="M103.846 2.07812C101.145 2.07812 10.7673 2.07812 8.06563 2.07812C5.72539 2.07812 3.82812 3.87252 3.82812 6.08552V96.6777C3.82812 98.8936 5.72539 100.685 8.06563 100.685H103.846C106.187 100.685 108.084 98.8907 108.084 96.6777C108.084 94.1222 108.084 8.641 108.084 6.08552C108.087 3.8696 106.19 2.07812 103.846 2.07812Z" fill="#BACEDB"/>
<path d="M63.7995 1.53125C66.7634 1.53125 69.3135 3.64178 69.876 6.5661L77.3717 45.4398C78.112 49.2775 75.1859 52.8399 71.2952 52.8399H63.7995C60.3809 52.8399 57.6094 50.0561 57.6094 46.6225V7.7487C57.6094 4.31505 60.3809 1.53125 63.7995 1.53125Z" fill="#C8D9E3"/>
<path d="M7.90106 0C10.865 0 13.415 2.11054 13.9775 5.03486L21.4732 43.9086C22.2135 47.7462 19.2875 51.3087 15.3968 51.3087H7.90106C4.4825 51.3087 1.71094 48.5249 1.71094 45.0912V6.21746C1.71094 2.78381 4.4825 0 7.90106 0Z" fill="#C8D9E3"/>
<path d="M7.90106 48.2422C10.865 48.2422 13.415 50.3527 13.9775 53.277L21.4732 92.1508C22.2135 95.9884 19.2875 99.5509 15.3968 99.5509H7.90106C4.4825 99.5509 1.71094 96.7671 1.71094 93.3334V54.4597C1.71094 51.026 4.4825 48.2422 7.90106 48.2422Z" fill="#C8D9E3"/>
<path d="M63.7995 48.2422C66.7634 48.2422 69.3135 50.3527 69.876 53.277L77.3717 92.1508C78.112 95.9884 75.1859 99.5509 71.2952 99.5509H63.7995C60.3809 99.5509 57.6094 96.7671 57.6094 93.3334V54.4597C57.6094 51.026 60.3809 48.2422 63.7995 48.2422Z" fill="#C8D9E3"/>
<path d="M103.848 0.0703125C101.146 0.0703125 10.7687 0.0703125 8.06713 0.0703125C4.56114 0.0703125 1.71094 2.7663 1.71094 6.08287V96.6751C1.71094 99.9916 4.56114 102.688 8.06713 102.688H103.848C107.354 102.688 110.204 99.9916 110.204 96.6751C110.204 94.1196 110.204 8.63835 110.204 6.08287C110.207 2.7663 107.354 0.0703125 103.848 0.0703125ZM105.967 6.08287V49.3738H58.0778V4.0777H103.848C105.017 4.0777 105.967 4.97637 105.967 6.08287ZM8.07004 4.0777H53.8403V49.3738H5.95129V6.08287C5.94838 4.97637 6.89847 4.0777 8.07004 4.0777ZM5.94837 96.6751V53.3841H53.8373V98.6802H8.06713C6.89846 98.6773 5.94837 97.7786 5.94837 96.6751ZM105.967 96.6751C105.967 97.7816 105.017 98.6802 103.848 98.6802H58.0778V53.3841H105.967V96.6751Z" fill="#90A3B0"/>
<path d="M16.5438 73.4219C13.0378 73.4219 10.1875 76.1179 10.1875 79.4344C10.1875 82.0455 11.9594 84.2761 14.425 85.1016V87.4492C14.425 88.5557 15.3722 89.4544 16.5438 89.4544C17.7153 89.4544 18.6625 88.5557 18.6625 87.4492V85.1016C21.1281 84.2732 22.9 82.0455 22.9 79.4344C22.9 76.1208 20.0497 73.4219 16.5438 73.4219ZM16.5438 81.4396C15.3751 81.4396 14.425 80.5409 14.425 79.4344C14.425 78.3279 15.3751 77.4293 16.5438 77.4293C17.7124 77.4293 18.6625 78.3279 18.6625 79.4344C18.6625 80.5409 17.7124 81.4396 16.5438 81.4396Z" fill="#90A3B0"/>
<path d="M37.7359 61.397H47.4845C48.6561 61.397 49.6033 60.4984 49.6033 59.3919C49.6033 58.2854 48.6561 57.3867 47.4845 57.3867H37.7359C36.5644 57.3867 35.6172 58.2854 35.6172 59.3919C35.6172 60.4984 36.5644 61.397 37.7359 61.397Z" fill="#90A3B0"/>
<path d="M29.2594 61.397C30.428 61.397 31.3781 60.4984 31.3781 59.3919C31.3781 58.2854 30.428 57.3867 29.2594 57.3867C28.0907 57.3867 27.1406 58.2854 27.1406 59.3919C27.1406 60.4984 28.0878 61.397 29.2594 61.397Z" fill="#90A3B0"/>
<path d="M47.4845 65.4141H37.7359C36.5644 65.4141 35.6172 66.3127 35.6172 67.4192C35.6172 68.5257 36.5644 69.4244 37.7359 69.4244H47.4845C48.6561 69.4244 49.6033 68.5257 49.6033 67.4192C49.6033 66.3098 48.6532 65.4141 47.4845 65.4141Z" fill="#90A3B0"/>
<path d="M47.4845 73.4219H37.7359C36.5644 73.4219 35.6172 74.3205 35.6172 75.427C35.6172 76.5335 36.5644 77.4322 37.7359 77.4322H47.4845C48.6561 77.4322 49.6033 76.5335 49.6033 75.427C49.6033 74.3205 48.6532 73.4219 47.4845 73.4219Z" fill="#90A3B0"/>
<path d="M66.5539 85.1055V87.4531C66.5539 88.5596 67.501 89.4583 68.6726 89.4583C69.8442 89.4583 70.7913 88.5596 70.7913 87.4531V85.1055C73.2569 84.277 75.0289 82.0494 75.0289 79.4383C75.0289 76.1218 72.1786 73.4258 68.6726 73.4258C65.1666 73.4258 62.3164 76.1218 62.3164 79.4383C62.3164 82.0494 64.0884 84.277 66.5539 85.1055ZM68.6755 77.4332C69.8442 77.4332 70.7943 78.3318 70.7943 79.4383C70.7943 80.5448 69.8442 81.4435 68.6755 81.4435C67.5068 81.4435 66.5568 80.5448 66.5568 79.4383C66.5539 78.3318 67.5068 77.4332 68.6755 77.4332Z" fill="#90A3B0"/>
<path d="M89.8648 61.397H99.6134C100.785 61.397 101.732 60.4984 101.732 59.3919C101.732 58.2854 100.785 57.3867 99.6134 57.3867H89.8648C88.6933 57.3867 87.7461 58.2854 87.7461 59.3919C87.7461 60.4984 88.6933 61.397 89.8648 61.397Z" fill="#90A3B0"/>
<path d="M81.3844 61.397C82.553 61.397 83.5031 60.4984 83.5031 59.3919C83.5031 58.2854 82.553 57.3867 81.3844 57.3867C80.2157 57.3867 79.2656 58.2854 79.2656 59.3919C79.2656 60.4984 80.2157 61.397 81.3844 61.397Z" fill="#90A3B0"/>
<path d="M89.8649 69.4205H99.6134C100.785 69.4205 101.732 68.5218 101.732 67.4153C101.732 66.3088 100.785 65.4102 99.6134 65.4102H89.8649C88.6933 65.4102 87.7461 66.3088 87.7461 67.4153C87.7432 68.5247 88.6933 69.4205 89.8649 69.4205Z" fill="#90A3B0"/>
<path d="M89.8648 77.4322H99.6134C100.785 77.4322 101.732 76.5335 101.732 75.427C101.732 74.3205 100.785 73.4219 99.6134 73.4219H89.8648C88.6933 73.4219 87.7461 74.3205 87.7461 75.427C87.7461 76.5335 88.6933 77.4322 89.8648 77.4322Z" fill="#90A3B0"/>
<path d="M66.5539 35.8047V38.1523C66.5539 39.2588 67.501 40.1575 68.6726 40.1575C69.8442 40.1575 70.7913 39.2588 70.7913 38.1523V35.8047C73.2569 34.9763 75.0289 32.7486 75.0289 30.1375C75.0289 26.821 72.1786 24.125 68.6726 24.125C65.1666 24.125 62.3164 26.821 62.3164 30.1375C62.3164 32.7486 64.0884 34.9763 66.5539 35.8047ZM68.6755 28.1324C69.8442 28.1324 70.7943 29.031 70.7943 30.1375C70.7943 31.244 69.8442 32.1427 68.6755 32.1427C67.5068 32.1427 66.5568 31.244 66.5568 30.1375C66.5539 29.031 67.5068 28.1324 68.6755 28.1324Z" fill="#90A3B0"/>
<path d="M89.8648 12.1002H99.6134C100.785 12.1002 101.732 11.2015 101.732 10.095C101.732 8.98851 100.785 8.08984 99.6134 8.08984H89.8648C88.6933 8.08984 87.7461 8.98851 87.7461 10.095C87.7461 11.2015 88.6933 12.1002 89.8648 12.1002Z" fill="#90A3B0"/>
<path d="M81.3844 12.1002C82.553 12.1002 83.5031 11.2015 83.5031 10.095C83.5031 8.98851 82.553 8.08984 81.3844 8.08984C80.2157 8.08984 79.2656 8.98851 79.2656 10.095C79.2656 11.2015 80.2157 12.1002 81.3844 12.1002Z" fill="#90A3B0"/>
<path d="M89.8649 20.1158H99.6134C100.785 20.1158 101.732 19.2171 101.732 18.1106C101.732 17.0041 100.785 16.1055 99.6134 16.1055H89.8649C88.6933 16.1055 87.7461 17.0041 87.7461 18.1106C87.7432 19.2171 88.6933 20.1158 89.8649 20.1158Z" fill="#90A3B0"/>
<path d="M89.8648 28.1275H99.6134C100.785 28.1275 101.732 27.2288 101.732 26.1223C101.732 25.0158 100.785 24.1172 99.6134 24.1172H89.8648C88.6933 24.1172 87.7461 25.0158 87.7461 26.1223C87.7461 27.2288 88.6933 28.1275 89.8648 28.1275Z" fill="#90A3B0"/>
<path d="M14.425 35.8047V38.1523C14.425 39.2588 15.3722 40.1575 16.5438 40.1575C17.7153 40.1575 18.6625 39.2588 18.6625 38.1523V35.8047C21.1281 34.9763 22.9 32.7486 22.9 30.1375C22.9 26.821 20.0497 24.125 16.5438 24.125C13.0378 24.125 10.1875 26.821 10.1875 30.1375C10.1875 32.7486 11.9565 34.9763 14.425 35.8047ZM16.5438 28.1324C17.7124 28.1324 18.6625 29.031 18.6625 30.1375C18.6625 31.244 17.7124 32.1427 16.5438 32.1427C15.3751 32.1427 14.425 31.244 14.425 30.1375C14.425 29.031 15.3751 28.1324 16.5438 28.1324Z" fill="#90A3B0"/>
<path d="M37.7359 12.1002H47.4845C48.6561 12.1002 49.6033 11.2015 49.6033 10.095C49.6033 8.98851 48.6561 8.08984 47.4845 8.08984H37.7359C36.5644 8.08984 35.6172 8.98851 35.6172 10.095C35.6172 11.2015 36.5644 12.1002 37.7359 12.1002Z" fill="#90A3B0"/>
<path d="M29.2594 12.1002C30.428 12.1002 31.3781 11.2015 31.3781 10.095C31.3781 8.98851 30.428 8.08984 29.2594 8.08984C28.0907 8.08984 27.1406 8.98851 27.1406 10.095C27.1377 11.2015 28.0878 12.1002 29.2594 12.1002Z" fill="#90A3B0"/>
<path d="M37.7359 20.1158H47.4845C48.6561 20.1158 49.6033 19.2171 49.6033 18.1106C49.6033 17.0041 48.6561 16.1055 47.4845 16.1055H37.7359C36.5644 16.1055 35.6172 17.0041 35.6172 18.1106C35.6172 19.2171 36.5644 20.1158 37.7359 20.1158Z" fill="#90A3B0"/>
<path d="M37.7359 28.1275H47.4845C48.6561 28.1275 49.6033 27.2288 49.6033 26.1223C49.6033 25.0158 48.6561 24.1172 47.4845 24.1172H37.7359C36.5644 24.1172 35.6172 25.0158 35.6172 26.1223C35.6172 27.2288 36.5644 28.1275 37.7359 28.1275Z" fill="#90A3B0"/>
<path opacity="0.2" d="M94.3714 15.1119L89.2013 9.92188L76.2819 22.8983L63.3654 9.92188L58.1953 15.1119L71.1147 28.0883L58.1953 41.0648L63.3654 46.2548L76.2819 33.2812L89.2013 46.2548L94.3714 41.0648L81.452 28.0883L94.3714 15.1119Z" fill="#666766"/>
<path d="M104.375 11.1119L99.2052 5.92188L86.2858 18.8983L73.3693 5.92188L68.1992 11.1119L81.1186 24.0883L68.1992 37.0648L73.3693 42.2548L86.2858 29.2813L99.2052 42.2548L104.375 37.0648L91.4559 24.0883L104.375 11.1119Z" fill="#ED2024"/>
</svg>
