<svg width="110" height="146" viewBox="0 0 110 146" fill="none" xmlns="http://www.w3.org/2000/svg">
<path d="M55 145.999C85.3765 145.999 110 142.663 110 138.548C110 134.433 85.3736 131.098 55 131.098C24.6235 131.098 0 134.433 0 138.548C0 142.663 24.6235 145.999 55 145.999Z" fill="#E6E6E5"/>
<path d="M0.765625 0H109.259V102.667H0.765625V0Z" fill="#D7B778"/>
<path d="M0.765625 0H6.98781L12.4377 102.667H0.765625V0Z" fill="#C2A56D"/>
<path d="M73.0941 0V36.3418L54.8268 27.2571L36.9297 36.3418V0H73.0941Z" fill="#FAE7D0"/>
<path opacity="0.2" d="M93.4193 15.0519L88.2521 9.85938L75.3327 22.8421L62.4133 9.85938L57.2461 15.0519L70.1655 28.0347L57.2461 41.0174L62.4133 46.21L75.3327 33.2301L88.2521 46.21L93.4193 41.0174L80.5028 28.0347L93.4193 15.0519Z" fill="#666766"/>
<path d="M103.427 11.048L98.2599 5.85547L85.3405 18.8382L72.4211 5.85547L67.2539 11.048L80.1733 24.0308L67.2539 37.0135L72.4211 42.2061L85.3405 29.2262L98.2599 42.2061L103.427 37.0135L90.5106 24.0308L103.427 11.048Z" fill="#ED2024"/>
</svg>
