<svg width="80" height="62" viewBox="0 0 80 17" fill="none" xmlns="http://www.w3.org/2000/svg">
<g filter="url(#filter0_d_9583_74528)">
<circle cx="39.5" cy="32.5" r="10.5" fill="white"/>
</g>
<circle cx="39.4997" cy="32.4997" r="7.26923" fill="#ED1D24"/>
<g filter="url(#filter1_d_9583_74528)">
<mask id="path-3-inside-1_9583_74528" fill="white">
<path fill-rule="evenodd" clip-rule="evenodd" d="M6 1C3.79086 1 2 2.79086 2 5V13C2 15.2091 3.79086 17 6 17H37.0505L39.7124 19.8852L42.3743 17H74C76.2091 17 78 15.2091 78 13V5C78 2.79086 76.2091 1 74 1H6Z"/>
</mask>
<path fill-rule="evenodd" clip-rule="evenodd" d="M6 1C3.79086 1 2 2.79086 2 5V13C2 15.2091 3.79086 17 6 17H37.0505L39.7124 19.8852L42.3743 17H74C76.2091 17 78 15.2091 78 13V5C78 2.79086 76.2091 1 74 1H6Z" fill="white"/>
<path d="M37.0505 17L37.7854 16.3219L37.4884 16H37.0505V17ZM39.7124 19.8852L38.9774 20.5633L39.7124 21.3599L40.4474 20.5633L39.7124 19.8852ZM42.3743 17V16H41.9364L41.6394 16.3219L42.3743 17ZM3 5C3 3.34315 4.34315 2 6 2V0C3.23858 0 1 2.23858 1 5H3ZM3 13V5H1V13H3ZM6 16C4.34314 16 3 14.6569 3 13H1C1 15.7614 3.23857 18 6 18V16ZM37.0505 16H6V18H37.0505V16ZM40.4474 19.2071L37.7854 16.3219L36.3155 17.6781L38.9774 20.5633L40.4474 19.2071ZM41.6394 16.3219L38.9774 19.2071L40.4474 20.5633L43.1093 17.6781L41.6394 16.3219ZM74 16H42.3743V18H74V16ZM77 13C77 14.6569 75.6569 16 74 16V18C76.7614 18 79 15.7614 79 13H77ZM77 5V13H79V5H77ZM74 2C75.6569 2 77 3.34315 77 5H79C79 2.23858 76.7614 0 74 0V2ZM6 2H74V0H6V2Z" fill="white" mask="url(#path-3-inside-1_9583_74528)"/>
<path d="M10.2197 11.4521L12.0264 5.89062H13.3838L10.8252 13H9.62891L7.08008 5.89062H8.43262L10.2197 11.4521ZM13.6279 10.3096C13.6279 9.79199 13.7305 9.3265 13.9355 8.91309C14.1406 8.49642 14.4287 8.17741 14.7998 7.95605C15.1709 7.73145 15.5973 7.61914 16.0791 7.61914C16.792 7.61914 17.3698 7.84863 17.8125 8.30762C18.2585 8.7666 18.4993 9.37533 18.5352 10.1338L18.54 10.4121C18.54 10.9329 18.4391 11.3984 18.2373 11.8086C18.0387 12.2188 17.7523 12.5361 17.3779 12.7607C17.0068 12.9854 16.5771 13.0977 16.0889 13.0977C15.3434 13.0977 14.7461 12.8503 14.2969 12.3555C13.8509 11.8574 13.6279 11.195 13.6279 10.3682V10.3096ZM14.8145 10.4121C14.8145 10.9557 14.9268 11.3822 15.1514 11.6914C15.376 11.9974 15.6885 12.1504 16.0889 12.1504C16.4893 12.1504 16.8001 11.9941 17.0215 11.6816C17.2461 11.3691 17.3584 10.9118 17.3584 10.3096C17.3584 9.77572 17.2428 9.35254 17.0117 9.04004C16.7839 8.72754 16.473 8.57129 16.0791 8.57129C15.6917 8.57129 15.3841 8.72591 15.1562 9.03516C14.9284 9.34115 14.8145 9.80013 14.8145 10.4121ZM21.7139 12.1504C22.0101 12.1504 22.2559 12.0641 22.4512 11.8916C22.6465 11.7191 22.7507 11.5059 22.7637 11.252H23.8818C23.8688 11.5807 23.7663 11.8883 23.5742 12.1748C23.3822 12.458 23.1217 12.6826 22.793 12.8486C22.4642 13.0146 22.1094 13.0977 21.7285 13.0977C20.9896 13.0977 20.4036 12.8584 19.9707 12.3799C19.5378 11.9014 19.3213 11.2406 19.3213 10.3975V10.2754C19.3213 9.47135 19.5361 8.82845 19.9658 8.34668C20.3955 7.86165 20.9814 7.61914 21.7236 7.61914C22.3519 7.61914 22.863 7.80306 23.2568 8.1709C23.654 8.53548 23.8623 9.01562 23.8818 9.61133H22.7637C22.7507 9.30859 22.6465 9.05957 22.4512 8.86426C22.2591 8.66895 22.0133 8.57129 21.7139 8.57129C21.3298 8.57129 21.0335 8.71126 20.8252 8.99121C20.6169 9.2679 20.5111 9.68945 20.5078 10.2559V10.4463C20.5078 11.0192 20.6104 11.4473 20.8154 11.7305C21.0238 12.0104 21.3232 12.1504 21.7139 12.1504ZM27.1045 13.0977C26.3525 13.0977 25.7422 12.8617 25.2734 12.3896C24.8079 11.9144 24.5752 11.2829 24.5752 10.4951V10.3486C24.5752 9.82129 24.6761 9.35091 24.8779 8.9375C25.083 8.52083 25.3695 8.19694 25.7373 7.96582C26.1051 7.7347 26.5153 7.61914 26.9678 7.61914C27.6872 7.61914 28.2422 7.84863 28.6328 8.30762C29.0267 8.7666 29.2236 9.41602 29.2236 10.2559V10.7344H25.7715C25.8073 11.1706 25.9521 11.5156 26.2061 11.7695C26.4632 12.0234 26.7855 12.1504 27.1729 12.1504C27.7165 12.1504 28.1592 11.9307 28.501 11.4912L29.1406 12.1016C28.929 12.4173 28.6458 12.6631 28.291 12.8389C27.9395 13.0114 27.5439 13.0977 27.1045 13.0977ZM26.9629 8.57129C26.6374 8.57129 26.3737 8.68522 26.1719 8.91309C25.9733 9.14095 25.8464 9.45833 25.791 9.86523H28.0518V9.77734C28.0257 9.38021 27.9199 9.08073 27.7344 8.87891C27.5488 8.67383 27.2917 8.57129 26.9629 8.57129ZM28.5645 6.85254V6.90625H27.6123L26.8799 6.14453L26.1523 6.90625H25.21V6.84277L26.5332 5.49512H27.2314L28.5645 6.85254ZM34.9658 13.0977C34.2139 13.0977 33.6035 12.8617 33.1348 12.3896C32.6693 11.9144 32.4365 11.2829 32.4365 10.4951V10.3486C32.4365 9.82129 32.5374 9.35091 32.7393 8.9375C32.9443 8.52083 33.2308 8.19694 33.5986 7.96582C33.9665 7.7347 34.3766 7.61914 34.8291 7.61914C35.5485 7.61914 36.1035 7.84863 36.4941 8.30762C36.888 8.7666 37.085 9.41602 37.085 10.2559V10.7344H33.6328C33.6686 11.1706 33.8135 11.5156 34.0674 11.7695C34.3245 12.0234 34.6468 12.1504 35.0342 12.1504C35.5778 12.1504 36.0205 11.9307 36.3623 11.4912L37.002 12.1016C36.7904 12.4173 36.5072 12.6631 36.1523 12.8389C35.8008 13.0114 35.4053 13.0977 34.9658 13.0977ZM34.8242 8.57129C34.4987 8.57129 34.235 8.68522 34.0332 8.91309C33.8346 9.14095 33.7077 9.45833 33.6523 9.86523H35.9131V9.77734C35.887 9.38021 35.7812 9.08073 35.5957 8.87891C35.4102 8.67383 35.153 8.57129 34.8242 8.57129ZM40.9717 11.5645C40.9717 11.3529 40.8838 11.1917 40.708 11.0811C40.5355 10.9704 40.2474 10.8727 39.8438 10.7881C39.4401 10.7035 39.1032 10.596 38.833 10.4658C38.2406 10.1794 37.9443 9.76432 37.9443 9.2207C37.9443 8.76497 38.1364 8.38411 38.5205 8.07812C38.9046 7.77214 39.3929 7.61914 39.9854 7.61914C40.6169 7.61914 41.1263 7.77539 41.5137 8.08789C41.9043 8.40039 42.0996 8.80566 42.0996 9.30371H40.9131C40.9131 9.07585 40.8285 8.88704 40.6592 8.7373C40.4899 8.58431 40.2653 8.50781 39.9854 8.50781C39.7249 8.50781 39.5117 8.56803 39.3457 8.68848C39.1829 8.80892 39.1016 8.97005 39.1016 9.17188C39.1016 9.35417 39.1781 9.49577 39.3311 9.59668C39.484 9.69759 39.7933 9.80013 40.2588 9.9043C40.7243 10.0052 41.0889 10.1273 41.3525 10.2705C41.6195 10.4105 41.8164 10.5798 41.9434 10.7783C42.0736 10.9769 42.1387 11.2178 42.1387 11.501C42.1387 11.9762 41.9417 12.362 41.5479 12.6582C41.154 12.9512 40.638 13.0977 40 13.0977C39.5671 13.0977 39.1813 13.0195 38.8428 12.8633C38.5042 12.707 38.2406 12.4922 38.0518 12.2188C37.863 11.9453 37.7686 11.6507 37.7686 11.335H38.9209C38.9372 11.6149 39.043 11.8314 39.2383 11.9844C39.4336 12.1341 39.6924 12.209 40.0146 12.209C40.3271 12.209 40.5648 12.1504 40.7275 12.0332C40.8903 11.9128 40.9717 11.7565 40.9717 11.5645ZM44.6631 6.43262V7.7168H45.5957V8.5957H44.6631V11.5449C44.6631 11.7467 44.7021 11.8932 44.7803 11.9844C44.8617 12.0723 45.0049 12.1162 45.21 12.1162C45.3467 12.1162 45.485 12.0999 45.625 12.0674V12.9854C45.3548 13.0602 45.0944 13.0977 44.8438 13.0977C43.9323 13.0977 43.4766 12.5947 43.4766 11.5889V8.5957H42.6074V7.7168H43.4766V6.43262H44.6631ZM49.6631 13C49.611 12.8991 49.5654 12.7347 49.5264 12.5068C49.1488 12.9007 48.6865 13.0977 48.1396 13.0977C47.609 13.0977 47.1761 12.9463 46.8408 12.6436C46.5055 12.3408 46.3379 11.9665 46.3379 11.5205C46.3379 10.9574 46.5462 10.526 46.9629 10.2266C47.3828 9.92383 47.9818 9.77246 48.7598 9.77246H49.4873V9.42578C49.4873 9.15234 49.4108 8.93424 49.2578 8.77148C49.1048 8.60547 48.8721 8.52246 48.5596 8.52246C48.2894 8.52246 48.068 8.59082 47.8955 8.72754C47.723 8.861 47.6367 9.0319 47.6367 9.24023H46.4502C46.4502 8.95052 46.5462 8.68034 46.7383 8.42969C46.9303 8.17578 47.1908 7.97721 47.5195 7.83398C47.8516 7.69076 48.221 7.61914 48.6279 7.61914C49.2464 7.61914 49.7396 7.77539 50.1074 8.08789C50.4753 8.39714 50.6641 8.83333 50.6738 9.39648V11.7793C50.6738 12.2546 50.7406 12.6338 50.874 12.917V13H49.6631ZM48.3594 12.1455C48.5938 12.1455 48.8135 12.0885 49.0186 11.9746C49.2269 11.8607 49.3831 11.7077 49.4873 11.5156V10.5195H48.8477C48.4082 10.5195 48.0778 10.596 47.8564 10.749C47.6351 10.902 47.5244 11.1185 47.5244 11.3984C47.5244 11.6263 47.5993 11.8086 47.749 11.9453C47.902 12.0788 48.1055 12.1455 48.3594 12.1455ZM49.0186 5.5H50.3711L49.0186 6.97949H48.0664L49.0186 5.5ZM57.5635 13C57.5114 12.8991 57.4658 12.7347 57.4268 12.5068C57.0492 12.9007 56.5869 13.0977 56.04 13.0977C55.5094 13.0977 55.0765 12.9463 54.7412 12.6436C54.4059 12.3408 54.2383 11.9665 54.2383 11.5205C54.2383 10.9574 54.4466 10.526 54.8633 10.2266C55.2832 9.92383 55.8822 9.77246 56.6602 9.77246H57.3877V9.42578C57.3877 9.15234 57.3112 8.93424 57.1582 8.77148C57.0052 8.60547 56.7725 8.52246 56.46 8.52246C56.1898 8.52246 55.9684 8.59082 55.7959 8.72754C55.6234 8.861 55.5371 9.0319 55.5371 9.24023H54.3506C54.3506 8.95052 54.4466 8.68034 54.6387 8.42969C54.8307 8.17578 55.0911 7.97721 55.4199 7.83398C55.752 7.69076 56.1214 7.61914 56.5283 7.61914C57.1468 7.61914 57.64 7.77539 58.0078 8.08789C58.3757 8.39714 58.5645 8.83333 58.5742 9.39648V11.7793C58.5742 12.2546 58.641 12.6338 58.7744 12.917V13H57.5635ZM56.2598 12.1455C56.4941 12.1455 56.7139 12.0885 56.9189 11.9746C57.1273 11.8607 57.2835 11.7077 57.3877 11.5156V10.5195H56.748C56.3086 10.5195 55.9782 10.596 55.7568 10.749C55.5355 10.902 55.4248 11.1185 55.4248 11.3984C55.4248 11.6263 55.4997 11.8086 55.6494 11.9453C55.8024 12.0788 56.0059 12.1455 56.2598 12.1455ZM59.5947 10.3145C59.5947 9.48763 59.7835 8.83171 60.1611 8.34668C60.5387 7.86165 61.0498 7.61914 61.6943 7.61914C62.2835 7.61914 62.7507 7.82585 63.0957 8.23926L63.1641 7.7168H64.2188V15.0312H63.0322V12.5508C62.6872 12.9154 62.238 13.0977 61.6846 13.0977C61.0531 13.0977 60.5469 12.8519 60.166 12.3604C59.7852 11.8656 59.5947 11.1836 59.5947 10.3145ZM60.7812 10.417C60.7812 10.9574 60.887 11.3822 61.0986 11.6914C61.3135 11.9974 61.6097 12.1504 61.9873 12.1504C62.4561 12.1504 62.8044 11.9502 63.0322 11.5498V9.14746C62.8044 8.76335 62.4593 8.57129 61.9971 8.57129C61.6195 8.57129 61.3216 8.72266 61.1035 9.02539C60.8887 9.32812 60.7812 9.79199 60.7812 10.417ZM68.7012 12.4824C68.3529 12.8926 67.8581 13.0977 67.2168 13.0977C66.6439 13.0977 66.2093 12.93 65.9131 12.5947C65.6201 12.2594 65.4736 11.7744 65.4736 11.1396V7.7168H66.6602V11.125C66.6602 11.7956 66.9385 12.1309 67.4951 12.1309C68.0713 12.1309 68.4603 11.9242 68.6621 11.5107V7.7168H69.8486V13H68.7305L68.7012 12.4824ZM72.3193 13H71.1328V7.7168H72.3193V13ZM71.0596 6.34473C71.0596 6.16243 71.1165 6.01107 71.2305 5.89062C71.3477 5.77018 71.5137 5.70996 71.7285 5.70996C71.9434 5.70996 72.1094 5.77018 72.2266 5.89062C72.3438 6.01107 72.4023 6.16243 72.4023 6.34473C72.4023 6.52376 72.3438 6.6735 72.2266 6.79395C72.1094 6.91113 71.9434 6.96973 71.7285 6.96973C71.5137 6.96973 71.3477 6.91113 71.2305 6.79395C71.1165 6.6735 71.0596 6.52376 71.0596 6.34473Z" fill="#666666"/>
</g>
<defs>
<filter id="filter0_d_9583_74528" x="14" y="7" width="51" height="51" filterUnits="userSpaceOnUse" color-interpolation-filters="sRGB">
<feFlood flood-opacity="0" result="BackgroundImageFix"/>
<feColorMatrix in="SourceAlpha" type="matrix" values="0 0 0 0 0 0 0 0 0 0 0 0 0 0 0 0 0 0 127 0" result="hardAlpha"/>
<feOffset/>
<feGaussianBlur stdDeviation="7.5"/>
<feColorMatrix type="matrix" values="0 0 0 0 0 0 0 0 0 0.329412 0 0 0 0 0.65098 0 0 0 0.5 0"/>
<feBlend mode="normal" in2="BackgroundImageFix" result="effect1_dropShadow_9583_74528"/>
<feBlend mode="normal" in="SourceGraphic" in2="effect1_dropShadow_9583_74528" result="shape"/>
</filter>
<filter id="filter1_d_9583_74528" x="0" y="0" width="80" height="22.8867" filterUnits="userSpaceOnUse" color-interpolation-filters="sRGB">
<feFlood flood-opacity="0" result="BackgroundImageFix"/>
<feColorMatrix in="SourceAlpha" type="matrix" values="0 0 0 0 0 0 0 0 0 0 0 0 0 0 0 0 0 0 127 0" result="hardAlpha"/>
<feOffset dy="1"/>
<feGaussianBlur stdDeviation="1"/>
<feColorMatrix type="matrix" values="0 0 0 0 0 0 0 0 0 0 0 0 0 0 0 0 0 0 0.2 0"/>
<feBlend mode="normal" in2="BackgroundImageFix" result="effect1_dropShadow_9583_74528"/>
<feBlend mode="normal" in="SourceGraphic" in2="effect1_dropShadow_9583_74528" result="shape"/>
</filter>
</defs>
</svg>
