<svg width="114" height="123" viewBox="0 0 114 123" fill="none" xmlns="http://www.w3.org/2000/svg">
<path d="M56.7175 122.376C87.952 122.376 113.271 118.963 113.271 114.752C113.271 110.542 87.949 107.129 56.7175 107.129C25.4831 107.129 0.164062 110.542 0.164062 114.752C0.164062 118.963 25.4831 122.376 56.7175 122.376Z" fill="#E6E6E5"/>
<path d="M100.845 56.966C90.6858 71.2453 68.0997 86.4474 56.7213 88.7039C45.3429 86.4474 22.7569 71.2453 12.5981 56.966C9.27182 52.2852 6.55083 46.2019 5.00454 39.7561C1.98088 27.176 3.4103 13.2354 13.4462 5.73471C29.0739 -5.94337 51.624 2.19262 56.7243 12.5492C61.6269 2.58819 82.6726 -5.31706 98.1775 4.4821C98.7948 4.86867 99.4031 5.2882 99.9995 5.73471C115.175 17.0802 110.671 43.1513 100.845 56.966Z" fill="#F15956"/>
<path opacity="0.5" d="M100.236 56.793C90.2184 70.8774 67.941 85.8668 56.7184 88.0934C50.0688 86.7718 39.5384 80.9732 29.979 73.5325C23.4043 68.4201 17.285 62.5317 13.2066 56.793C9.92519 52.1781 7.24315 46.1787 5.71484 39.8198C10.4316 47.3534 17.6566 53.4637 25.8556 57.0117C39.4096 62.8763 55.0942 62.4178 69.2296 58.1355C77.2997 55.6902 85.172 51.9264 91.0724 45.903C96.7871 40.0715 100.416 32.2352 101.156 24.0992C101.747 17.5814 100.485 10.9077 97.6022 5.03125C98.2135 5.41483 98.8099 5.83136 99.4002 6.26588C101.531 7.86012 103.269 9.74804 104.65 11.8517C112.999 24.5337 108.549 45.1119 100.236 56.793Z" fill="#ED4B47"/>
<path opacity="0.5" d="M100.238 56.7929C90.2198 70.8773 67.9425 85.8667 56.7199 88.0932C50.0702 86.7717 39.5399 80.9731 29.9805 73.5323C47.3582 76.1724 65.626 72.7592 80.8222 63.904C90.6573 58.1773 99.3927 49.9874 103.96 39.5559C107.765 30.8625 108.302 20.503 104.652 11.8516C113.001 24.5335 108.551 45.1118 100.238 56.7929Z" fill="#ED4440"/>
<path d="M45.2812 55.418C45.2812 55.418 55.7277 65.8644 68.095 55.418" stroke="#20352E" stroke-width="6.7229" stroke-miterlimit="10" stroke-linecap="round" stroke-linejoin="round"/>
<path d="M29.1285 40.0499C32.278 40.0499 34.8312 37.4967 34.8312 34.3472C34.8312 31.1977 32.278 28.6445 29.1285 28.6445C25.979 28.6445 23.4258 31.1977 23.4258 34.3472C23.4258 37.4967 25.979 40.0499 29.1285 40.0499Z" fill="#20352E"/>
<path d="M84.3042 40.0499C87.4538 40.0499 90.0069 37.4967 90.0069 34.3472C90.0069 31.1977 87.4538 28.6445 84.3042 28.6445C81.1547 28.6445 78.6016 31.1977 78.6016 34.3472C78.6016 37.4967 81.1547 40.0499 84.3042 40.0499Z" fill="#20352E"/>
</svg>
