<svg width="16" height="15" viewBox="0 0 16 15" fill="none" xmlns="http://www.w3.org/2000/svg">
<path fill-rule="evenodd" clip-rule="evenodd" d="M8.77734 11.6792H14.9996H8.77734Z" fill="#666666"/>
<path d="M8.77734 11.6792H14.9996" stroke="#666666" stroke-width="1.5" stroke-linecap="round" stroke-linejoin="round"/>
<path fill-rule="evenodd" clip-rule="evenodd" d="M1 11.6792H4.11111H1Z" fill="#666666"/>
<path d="M1 11.6792H4.11111" stroke="#666666" stroke-width="1.5" stroke-linecap="round" stroke-linejoin="round"/>
<path fill-rule="evenodd" clip-rule="evenodd" d="M8.778 11.679C8.778 12.9676 7.73354 14.0122 6.44501 14.0124C5.15648 14.0126 4.11171 12.9683 4.11133 11.6797C4.11095 10.3912 5.1551 9.34628 6.44363 9.3457C7.06264 9.34543 7.6564 9.59114 8.09421 10.0288C8.53202 10.4664 8.778 11.06 8.778 11.679V11.679Z" stroke="#666666" stroke-width="1.5" stroke-linecap="round" stroke-linejoin="round"/>
<path fill-rule="evenodd" clip-rule="evenodd" d="M10.3333 3.90137H1H10.3333Z" fill="#666666"/>
<path d="M10.3333 3.90137H1" stroke="#666666" stroke-width="1.5" stroke-linecap="round" stroke-linejoin="round"/>
<path fill-rule="evenodd" clip-rule="evenodd" d="M15.0007 3.9012C15.0007 2.61267 13.9562 1.56806 12.6677 1.56787C11.3791 1.56768 10.3344 2.61198 10.334 3.90051C10.3336 5.18904 11.3778 6.23396 12.6663 6.23454C13.9551 6.23454 15.0001 5.19004 15.0007 3.9012Z" stroke="#666666" stroke-width="1.5" stroke-linecap="round" stroke-linejoin="round"/>
</svg>
