<svg width="94" height="114" viewBox="0 0 94 114" fill="none" xmlns="http://www.w3.org/2000/svg">
<mask id="mask0" mask-type="alpha" maskUnits="userSpaceOnUse" x="0" y="19" width="94" height="95">
<circle cx="47" cy="66.8008" r="47" fill="#C4C4C4"/>
</mask>
<g mask="url(#mask0)">
<mask id="mask1" mask-type="alpha" maskUnits="userSpaceOnUse" x="0" y="18" width="96" height="167">
<rect y="18.2832" width="95.8697" height="165.918" rx="6.98494" fill="#C4C4C4"/>
</mask>
<g mask="url(#mask1)">
<rect x="0.8125" y="18.2842" width="94.2448" height="163.106" rx="3.88109" fill="#CCE5F3" fill-opacity="0.3"/>
<path d="M99.5762 -8.55859L-8.43698 99.7102" stroke="white" stroke-width="4.85909"/>
<path d="M-16.3613 -28.501L78.6925 119.777L45.3787 152.629L74.3953 186.503" stroke="white" stroke-width="5.28261"/>
<path d="M100.344 40.0137L0.127987 140.229" stroke="white" stroke-width="4.85909"/>
</g>
</g>
<path d="M71.889 25.022C71.889 35.5593 56.9834 55.0718 50.1476 63.4735C48.4377 65.575 45.2317 65.6565 43.5115 63.6333C36.563 55.4613 21 35.9284 21 25.0618C21 11.0168 32.6664 -0.200864 46.8359 0.00272801C60.7673 0.203043 71.889 11.4031 71.889 25.022Z" fill="#0054A6"/>
<path d="M52.0222 75.5764C52.0222 78.3939 49.7056 80.7584 46.839 80.8575C43.9626 80.9571 41.623 78.7393 41.623 75.9037C41.623 73.0682 43.9622 70.7033 46.839 70.6218C49.7056 70.5403 52.0222 72.7589 52.0222 75.5764Z" fill="#0054A6"/>
<path d="M72.7835 25.022C72.7835 35.5593 57.8779 55.0718 51.0422 63.4735C49.3322 65.575 46.1262 65.6565 44.406 63.6333C37.4576 55.4613 21.8945 35.9284 21.8945 25.0618C21.8945 11.0168 33.561 -0.200864 47.7305 0.00272801C61.6618 0.203043 72.7835 11.4031 72.7835 25.022Z" fill="#007DC5"/>
<path d="M61.7985 25.0346C61.7985 32.6814 55.5305 38.9383 47.7319 39.01C39.8592 39.0825 33.4219 32.8359 33.4219 25.0568C33.4219 17.2777 39.8592 11.0208 47.7319 11.081C55.5305 11.1408 61.7985 17.3878 61.7985 25.0346Z" fill="white"/>
<g opacity="0.3">
<path opacity="0.3" d="M47.6201 53.2658C49.2325 42.7851 56.2089 39.3732 55.0157 29.5496C53.6374 18.2029 43.3993 15.1261 43.1509 4.95752C43.1107 3.32018 43.3378 1.74469 43.7653 0.239258C31.4464 1.95402 21.8965 12.3536 21.8965 25.0525C21.8965 35.9195 37.4591 55.4521 44.408 63.6244C45.4208 64.8157 46.9496 65.2765 48.3841 65.0254C47.1508 60.4727 47.1135 56.5589 47.6201 53.2658Z" fill="#007DC5"/>
</g>
<path d="M52.9206 75.5764C52.9206 78.3939 50.604 80.7584 47.7374 80.8575C44.861 80.9571 42.5215 78.7393 42.5215 75.9037C42.5215 73.0682 44.8606 70.7033 47.7374 70.6218C50.604 70.5403 52.9206 72.7589 52.9206 75.5764Z" fill="#007DC5"/>
</svg>
