<svg width="228" height="27" viewBox="0 0 228 27" fill="none" xmlns="http://www.w3.org/2000/svg">
<g clip-path="url(#clip0)">
<path d="M0.46875 0.410156H24.5736V24.121H0.46875V0.410156Z" fill="#ED1C24"/>
<path d="M21.1369 8.64864H16.1793V3.81934H8.85071V8.64864H3.89062V15.8051H8.84907V20.6312H16.1777V15.8051H21.1353" fill="white"/>
<path d="M45.5393 14.9888H40.7875L39.3509 20.6618H33.2227L37.66 3.69531H48.4149C52.0084 3.69531 54.6659 5.70347 54.6659 8.2744C54.6659 12.8268 50.352 14.9888 45.5393 14.9888ZM44.9754 6.82334H42.881L41.568 11.8599H43.1939C45.8826 11.8599 48.4462 11.3773 48.4462 8.78292C48.4462 7.38207 46.5387 6.82334 44.9754 6.82334ZM70.4188 16.8965C69.9191 18.7533 69.8261 19.8723 69.7635 20.6618H63.8246C63.9184 20.0246 64.2 18.9314 64.4189 17.9395C63.105 19.6691 61.4182 20.9412 58.6051 20.9412C55.1039 20.9412 53.4788 19.2116 53.4788 16.7953C53.4788 10.536 60.6081 7.53592 66.552 7.53592C68.676 7.53592 71.5574 7.84038 72.7099 8.22258L70.4204 16.8965H70.4188ZM65.5427 10.4615C62.6975 10.4615 59.6029 12.8786 59.6029 16.2107C59.6029 17.1516 60.0104 17.9144 61.3235 17.9144C63.2615 17.9144 64.8553 15.6511 65.6999 12.8276L66.3873 10.5635C66.1074 10.4826 65.7946 10.4583 65.5476 10.4583L65.5427 10.4615ZM89.3396 18.4423C87.8083 24.1591 85.1822 26.4021 77.493 26.4021C75.0562 26.4021 72.7428 26.0458 71.4009 25.6895L72.4382 22.5558C74.1259 23.2441 75.723 23.4465 77.1555 23.4465C81.1318 23.4465 82.5066 21.9161 83.1899 19.7298L83.6262 18.3533C82.1189 19.9412 80.5217 20.6537 77.9614 20.6537C74.4601 20.6537 72.8013 19.0262 72.8013 16.7872C72.8013 10.5036 80.1809 7.55454 86.1528 7.55454C88.1533 7.55454 90.8725 7.859 92.0596 8.21529L89.3412 18.4342L89.3396 18.4423ZM84.9352 10.4745C82.095 10.4745 78.9337 12.8875 78.9337 16.3208C78.9337 17.2844 79.2795 17.997 80.5637 17.997C82.91 17.997 84.3836 15.2277 85.034 12.9361L85.7255 10.5716C85.4456 10.4907 85.1986 10.4664 84.9434 10.4664L84.9352 10.4745ZM108.143 17.8674C107.929 18.7581 107.673 19.7233 107.583 20.6392H102.141L102.577 18.3759C101.268 19.7768 99.5479 20.9218 96.8888 20.9218C94.3285 20.9218 92.4844 20.0553 92.4844 17.869C92.4844 17.4115 92.5173 16.954 92.6408 16.4949L94.8949 7.77398H100.68L98.6794 15.507C98.5847 15.8876 98.49 16.2941 98.49 16.6763C98.49 17.4674 98.9593 17.9476 100.085 17.9476C101.897 17.9476 102.712 16.55 103.024 15.3038L104.964 7.77479H110.746L108.153 17.8723L108.143 17.8674ZM116.993 15.503C116.869 15.7297 116.869 16.0374 116.869 16.2641C116.869 17.8674 118.689 18.3775 120.368 18.3775C122.154 18.3775 124.064 17.8431 125.53 17.052L125.109 19.844C123.077 20.6343 120.982 20.9371 118.451 20.9371C114.822 20.9371 110.975 19.8966 110.975 16.4593C110.975 11.196 115.759 7.55859 121.822 7.55859C124.635 7.55859 128.136 8.24687 128.136 10.919C128.136 14.8625 120.76 15.5216 116.977 15.5216L116.993 15.503ZM121.48 10.0801C119.419 10.0801 118.042 11.7863 117.385 13.2106C119.795 13.2106 123.044 12.7004 123.044 11.1765C123.044 10.3894 122.36 10.0834 121.479 10.0834L121.48 10.0801ZM154.154 20.6796H148.589L152.211 6.68731L143.37 20.678H138.216L136.677 6.6614L133.054 20.678H127.744L132.189 3.70827H141.245L142.307 15.3062L149.467 3.7026H158.594L154.154 20.6796ZM164.134 15.5329C164.008 15.7597 164.008 16.0674 164.008 16.2941C164.008 17.8974 165.82 18.4026 167.507 18.4026C169.294 18.4026 171.195 17.8682 172.669 17.0803L172.266 19.8561C170.232 20.6456 168.141 20.9493 165.606 20.9493C161.983 20.9493 158.139 19.9072 158.139 16.4738C158.139 11.2105 162.922 7.57074 168.989 7.57074C171.802 7.57074 175.303 8.25416 175.303 10.9263C175.303 14.8697 167.926 15.5281 164.144 15.5281L164.134 15.5329ZM168.647 10.0834C166.58 10.0834 165.206 11.7838 164.55 13.209C166.96 13.209 170.21 12.6988 170.21 11.1765C170.21 10.3862 169.525 10.0834 168.646 10.0834H168.647ZM192.973 12.0162L190.723 20.6643H184.944L186.944 12.9839C187.041 12.5766 187.167 12.196 187.167 11.8138C187.167 11.0526 186.73 10.5425 185.604 10.5425C183.79 10.5425 182.914 11.9433 182.602 13.1903L180.664 20.6675H174.881L177.507 10.5943C177.758 9.6793 177.977 8.76187 178.071 7.82014H183.541L183.041 10.0874C184.572 8.33837 186.104 7.56912 188.76 7.56912C191.263 7.56912 193.168 8.43554 193.168 10.6218C193.166 11.0834 193.102 11.5369 192.979 12.0227L192.973 12.0162ZM201.483 20.9541C197.828 20.9541 194.168 19.6586 194.168 16.2495C194.168 10.9862 198.577 7.57721 204.984 7.57721C208.644 7.57721 212.3 8.82422 212.3 12.2575C212.3 17.4965 207.861 20.959 201.485 20.959L201.483 20.9541ZM204.14 10.5538C201.48 10.5538 200.233 14.2139 200.233 15.971C200.233 17.0884 200.73 17.9792 202.263 17.9792C204.922 17.9792 206.233 14.3191 206.233 12.562C206.233 11.4202 205.669 10.5538 204.138 10.5538H204.14ZM226.588 10.9101C225.244 10.451 223.805 10.1465 222.335 10.1465C221.339 10.1465 219.429 10.3004 219.429 11.3692C219.429 13.0486 226.492 12.8713 226.492 16.2552C226.492 20.0934 221.528 20.9598 217.741 20.9598C215.807 20.9598 213.901 20.7574 212.053 20.2983L213.115 17.3184C214.489 17.9257 215.996 18.3095 217.585 18.3095C218.68 18.3095 220.87 18.1071 220.87 16.9378C220.87 15.286 213.963 15.5418 213.963 12.0308C213.963 8.44364 219.12 7.55292 222.623 7.55292C224.311 7.55292 226.091 7.80961 227.719 8.16509L226.591 10.915L226.588 10.9101Z" fill="#0054A6"/>
</g>
<defs>
<clipPath id="clip0">
<rect width="227.217" height="26" fill="white" transform="translate(0.46875 0.410156)"/>
</clipPath>
</defs>
</svg>
