<svg width="121" height="115" viewBox="0 0 121 115" fill="none" xmlns="http://www.w3.org/2000/svg">
<g opacity="0.4">
<mask id="mask0" mask-type="alpha" maskUnits="userSpaceOnUse" x="0" y="0" width="121" height="115">
<rect x="0.53125" y="0.410156" width="120" height="114" fill="white"/>
</mask>
<g mask="url(#mask0)">
<path d="M50.3822 93.7517L42.9281 95.7491L40.9457 88.3509L29.9266 91.3034L31.909 98.7016L24.4511 100.7L27.3887 111.663L34.8441 109.666L36.8251 117.059L47.8442 114.106L45.8632 106.713L53.3174 104.716" fill="#CCE5F3"/>
<path d="M29.4213 15.53L21.9671 17.5274L19.9848 10.1292L8.96569 13.0817L10.948 20.4799L3.49015 22.4783L6.42776 33.4416L13.8832 31.4439L15.8642 38.8372L26.8833 35.8846L24.9023 28.4914L32.3564 26.494" fill="#CCE5F3"/>
<path d="M40.3393 56.2791L32.8851 58.2764L30.9028 50.8782L19.8837 53.8308L21.866 61.229L14.4081 63.2273L17.3457 74.1906L24.8011 72.1929L26.7822 79.5862L37.8012 76.6336L35.8202 69.2404L43.2744 67.243" fill="#CCE5F3"/>
<path d="M109.988 77.783L102.534 79.7803L100.551 72.3821L89.5321 75.3347L91.5144 82.7329L84.0566 84.7312L86.9942 95.6945L94.4496 93.6968L96.4306 101.09L107.45 98.1375L105.469 90.7443L112.923 88.747" fill="#CCE5F3"/>
<path d="M120.906 118.531L113.452 120.528L111.469 113.13L100.45 116.083L102.432 123.481L94.9745 125.479L97.9121 136.443L105.368 134.445L107.349 141.838L118.368 138.886L116.387 131.492L123.841 129.495" fill="#CCE5F3"/>
<path d="M89.0268 -0.441639L81.5726 1.5557L79.5903 -5.84249L68.5712 -2.88993L70.5535 4.50826L63.0956 6.50659L66.0332 17.4699L73.4886 15.4722L75.4697 22.8655L86.4887 19.9129L84.5077 12.5197L91.9619 10.5223" fill="#CCE5F3"/>
<path d="M99.9447 40.3064L92.4906 42.3037L90.5082 34.9056L79.4891 37.8581L81.4715 45.2563L74.0136 47.2546L76.9512 58.218L84.4066 56.2203L86.3876 63.6135L97.4067 60.661L95.4257 53.2677L102.88 51.2704" fill="#CCE5F3"/>
<path d="M54.1986 -11.2078L46.7445 -9.21041L44.7621 -16.6086L33.743 -13.656L35.7254 -6.25786L28.2675 -4.25952L31.2051 6.7038L38.6605 4.70613L40.6415 12.0994L51.6606 9.1468L49.6796 1.75357L57.1338 -0.24377" fill="#CCE5F3"/>
<path d="M65.1166 29.5418L57.6624 31.5391L55.6801 24.1409L44.661 27.0935L46.6433 34.4917L39.1855 36.49L42.1231 47.4533L49.5785 45.4556L51.5595 52.8489L62.5786 49.8963L60.5976 42.5031L68.0517 40.5057" fill="#CCE5F3"/>
<path d="M75.1596 67.0173L67.7054 69.0147L65.7231 61.6165L54.704 64.569L56.6863 71.9672L49.2284 73.9656L52.166 84.9289L59.6215 82.9312L61.6025 90.3245L72.6216 87.3719L70.6405 79.9787L78.0947 77.9813" fill="#CCE5F3"/>
<path d="M86.0775 107.766L78.6234 109.764L76.641 102.366L65.6219 105.318L67.6043 112.716L60.1464 114.715L63.084 125.678L70.5394 123.68L72.5204 131.073L83.5395 128.121L81.5585 120.728L89.0127 118.73" fill="#CCE5F3"/>
<path d="M124.722 13.5711L117.268 15.5684L115.286 8.1702L104.266 11.1228L106.249 18.521L98.7909 20.5193L101.729 31.4826L109.184 29.4849L111.165 36.8782L122.184 33.9256L120.203 26.5324L127.657 24.535" fill="#CCE5F3"/>
<path d="M134.761 51.0457L127.307 53.043L125.325 45.6448L114.306 48.5974L116.288 55.9956L108.83 57.9939L111.768 68.9572L119.223 66.9595L121.204 74.3528L132.223 71.4002L130.242 64.007L137.696 62.0096" fill="#CCE5F3"/>
<path d="M145.679 91.7947L138.225 93.792L136.243 86.3938L125.224 89.3464L127.206 96.7446L119.748 98.7429L122.686 109.706L130.141 107.709L132.122 115.102L143.141 112.149L141.16 104.756L148.614 102.759" fill="#CCE5F3"/>
</g>
</g>
</svg>
