<svg width="14" height="16" viewBox="0 0 14 16" fill="none" xmlns="http://www.w3.org/2000/svg">
<path d="M8.51172 9.75V12.9688C8.5114 13.8491 7.79772 14.5625 6.91747 14.5625H3.10539C2.22523 14.5625 1.51172 13.849 1.51172 12.9688V3.90675C1.51172 3.0265 2.22513 2.31282 3.10539 2.3125H4.13672" stroke="white" stroke-linecap="round" stroke-linejoin="round"/>
<path d="M1.51172 11.9375H8.51172" stroke="white" stroke-linecap="round" stroke-linejoin="round"/>
<path d="M12.4882 1.4375L10.8432 5.96242C10.7804 6.13408 10.6177 6.24871 10.4349 6.25H7.30063C7.12577 6.24997 6.96772 6.14583 6.89871 5.98517L5.9613 3.36017C5.90324 3.225 5.917 3.06969 5.99792 2.94684C6.07885 2.82398 6.2161 2.75002 6.36321 2.75H12.011" stroke="white" stroke-linecap="round" stroke-linejoin="round"/>
<path d="M7.89453 7.5625C7.77372 7.5625 7.67578 7.66044 7.67578 7.78125C7.67578 7.90206 7.77372 8 7.89453 8C8.01534 8 8.11328 7.90206 8.11328 7.78125C8.11328 7.66044 8.01534 7.5625 7.89453 7.5625" stroke="white" stroke-linecap="round" stroke-linejoin="round"/>
<path d="M10.082 7.5625C9.96122 7.5625 9.86328 7.66044 9.86328 7.78125C9.86328 7.90206 9.96122 8 10.082 8C10.2028 8 10.3008 7.90206 10.3008 7.78125C10.3008 7.66044 10.2028 7.5625 10.082 7.5625" stroke="white" stroke-linecap="round" stroke-linejoin="round"/>
</svg>
