<svg width="19" height="19" viewBox="0 0 19 19" fill="none" xmlns="http://www.w3.org/2000/svg">
<path fill-rule="evenodd" clip-rule="evenodd" d="M17.7852 3.9082C17.7852 5.1832 15.8824 8.1667 15.2074 9.1852C15.1553 9.26376 15.0673 9.31099 14.973 9.31099C14.8788 9.31099 14.7908 9.26376 14.7387 9.1852C14.0629 8.16745 12.1602 5.1832 12.1602 3.9082C12.1602 2.3549 13.4194 1.0957 14.9727 1.0957C16.526 1.0957 17.7852 2.3549 17.7852 3.9082Z" stroke="#007DC5" stroke-width="1.4" stroke-linecap="round" stroke-linejoin="round"/>
<path d="M14.9727 3.62695C15.128 3.62695 15.2539 3.75287 15.2539 3.9082" stroke="#007DC5" stroke-width="1.4" stroke-linecap="round" stroke-linejoin="round"/>
<path d="M14.6914 3.9082C14.6914 3.75287 14.8173 3.62695 14.9727 3.62695" stroke="#007DC5" stroke-width="1.4" stroke-linecap="round" stroke-linejoin="round"/>
<path d="M14.9727 4.18945C14.8173 4.18945 14.6914 4.06353 14.6914 3.9082" stroke="#007DC5" stroke-width="1.4" stroke-linecap="round" stroke-linejoin="round"/>
<path d="M15.2539 3.9082C15.2539 4.06353 15.128 4.18945 14.9727 4.18945" stroke="#007DC5" stroke-width="1.4" stroke-linecap="round" stroke-linejoin="round"/>
<path d="M4.28516 9.81445C4.44049 9.81445 4.56641 9.94037 4.56641 10.0957" stroke="#007DC5" stroke-width="1.4" stroke-linecap="round" stroke-linejoin="round"/>
<path d="M4.00391 10.0957C4.00391 9.94037 4.12983 9.81445 4.28516 9.81445" stroke="#007DC5" stroke-width="1.4" stroke-linecap="round" stroke-linejoin="round"/>
<path d="M4.28516 10.377C4.12983 10.377 4.00391 10.251 4.00391 10.0957" stroke="#007DC5" stroke-width="1.4" stroke-linecap="round" stroke-linejoin="round"/>
<path d="M4.56641 10.0957C4.56641 10.251 4.44049 10.377 4.28516 10.377" stroke="#007DC5" stroke-width="1.4" stroke-linecap="round" stroke-linejoin="round"/>
<path fill-rule="evenodd" clip-rule="evenodd" d="M4.28516 6.7207C6.14912 6.7207 7.66016 8.23174 7.66016 10.0957C7.66016 11.5365 5.64416 14.2777 4.72841 15.4492C4.6218 15.5856 4.4583 15.6654 4.28516 15.6654C4.11201 15.6654 3.94851 15.5856 3.84191 15.4492C2.92616 14.2785 0.910156 11.5365 0.910156 10.0957C0.910156 8.23174 2.4212 6.7207 4.28516 6.7207Z" stroke="#007DC5" stroke-width="1.4" stroke-linecap="round" stroke-linejoin="round"/>
<path d="M4.28516 17.9707H11.0352C11.6565 17.9707 12.1602 17.467 12.1602 16.8457V13.4707C12.1602 12.8494 12.6638 12.3457 13.2852 12.3457H15.5352" stroke="#007DC5" stroke-width="1.4" stroke-linecap="round" stroke-linejoin="round"/>
</svg>
