<svg width="102" height="146" viewBox="0 0 102 146" fill="none" xmlns="http://www.w3.org/2000/svg">
<path d="M51.4994 146.001C79.3881 146.001 101.995 142.972 101.995 139.235C101.995 135.498 79.3854 132.469 51.4994 132.469C23.6108 132.469 1.00391 135.498 1.00391 139.235C1.00391 142.972 23.6108 146.001 51.4994 146.001Z" fill="#E6E6E5"/>
<g opacity="0.5">
<path opacity="0.5" d="M92.5934 31.0859C82.3536 45.3654 65.8553 54.3416 49.8895 60.9534C40.7173 64.754 31.2989 67.8711 21.7012 70.2434C23.0845 70.9509 24.3662 71.7488 25.4632 72.6583C25.712 72.8844 25.9314 73.1291 26.1615 73.3658C26.389 73.2514 26.6111 73.1318 26.8385 73.0201C36.083 68.4934 46.0071 65.8098 55.7787 62.6928C65.8607 59.4747 76.7052 55.9826 85.2861 49.6128C89.693 46.3415 93.0376 42.4372 95.3868 37.9823C94.437 35.4743 93.4844 33.1152 92.5934 31.0859Z" fill="white"/>
</g>
<path d="M86.4881 35.5351C86.4881 35.5351 90.6434 35.4899 90.5283 39.099C90.3892 43.4102 89.2841 77.7698 88.733 80.5464C88.1844 83.323 88.7945 85.3709 82.9026 85.2672C77.0108 85.1635 29.8893 81.7671 29.8893 81.7671C29.8893 81.7671 26.3601 81.7698 25.8758 78.6288C25.2283 74.4373 25.3273 37.7027 25.3273 37.7027C25.3273 37.7027 25.0222 34.1415 27.9816 34.176C32.2707 34.2266 62.3534 34.9526 62.3534 34.9526L86.4881 35.5351Z" fill="#C6D8F0"/>
<path d="M27.2732 38.662L27.5167 54.9548C27.5167 54.9548 27.7174 68.0347 28.0117 74.1173C28.306 80.1998 31.4312 79.5056 31.4312 79.5056C31.4312 79.5056 39.3914 79.9817 42.158 80.1094C44.9247 80.2344 59.1513 79.9471 62.8357 80.4578C66.5228 80.9658 76.752 81.8302 82.3174 81.9897C87.8828 82.1467 86.3068 77.8407 86.3068 77.8407C86.3068 77.8407 86.3256 77.5508 86.3577 77.0216C86.6788 71.8167 88.4046 43.4945 87.8828 40.6141C87.3075 37.4412 84.4874 37.8162 84.4874 37.8162L72.2943 37.5902C72.2943 37.5902 56.2348 37.4199 50.4473 36.9864C48.0312 36.8056 44.4645 36.6673 40.9326 36.5609C35.9959 36.4119 31.1289 36.3215 29.5716 36.2683C26.904 36.1726 27.2732 38.662 27.2732 38.662Z" fill="#E1EBF7"/>
<path d="M36.166 66.8454C36.1874 66.8534 36.2115 66.8561 36.2356 66.8587C36.3854 66.872 36.5272 66.7869 36.5807 66.646L42.0578 52.7442L44.1984 62.4145C44.2251 62.5315 44.3108 62.6273 44.4258 62.6619C44.5489 62.6911 44.6666 62.6699 44.7549 62.5901L49.1725 58.59L50.4809 61.7071C50.5317 61.8294 50.6495 61.9092 50.7806 61.9145C50.9117 61.9198 51.0348 61.848 51.0936 61.731L53.2074 57.6113L54.5105 69.9865C54.5265 70.1513 54.663 70.2764 54.8262 70.287C54.9921 70.2976 55.1393 70.1886 55.1767 70.029L59.5809 51.2947L60.6057 61.7284C60.6191 61.8693 60.7154 61.9837 60.8599 62.0209C60.999 62.0555 61.1435 61.9996 61.2238 61.8826L64.6647 56.8134L66.7838 63.3773C66.8293 63.5209 66.9658 63.614 67.1156 63.6114C67.2655 63.6087 67.3966 63.505 67.434 63.3613L70.891 50.4303L74.0671 71.9679C74.0885 72.1195 74.2089 72.2365 74.3614 72.2524C74.5139 72.2711 74.6584 72.1859 74.7146 72.0423L81.8105 54.441L82.2118 62.7576C82.2199 62.9119 82.3322 63.0422 82.4874 63.0715L86.905 63.9092C87.0896 63.9438 87.2662 63.8241 87.301 63.6433C87.3358 63.4598 87.2154 63.2842 87.0307 63.2496L82.8754 62.4624L82.4125 52.8692C82.4045 52.7123 82.2868 52.5793 82.1316 52.5527C81.9737 52.5261 81.8212 52.6112 81.7623 52.7601L74.554 70.6327L71.3218 48.7095C71.2977 48.5526 71.1666 48.4303 71.0061 48.4223C70.8455 48.4143 70.701 48.5181 70.6609 48.6723L67.0755 62.0768L65.0982 55.9464C65.058 55.824 64.951 55.7336 64.8226 55.715C64.6941 55.6963 64.5657 55.7522 64.4934 55.8586L61.189 60.7283L60.0545 49.1936C60.0384 49.0287 59.9047 48.901 59.7388 48.8904C59.5729 48.8798 59.4257 48.9888 59.3883 49.1484L54.9734 67.9226L53.7613 56.4038C53.7452 56.2549 53.6329 56.1352 53.4857 56.1086C53.3385 56.082 53.1914 56.1538 53.1218 56.2868L50.8207 60.7735L49.6086 57.8852C49.5658 57.7841 49.4748 57.7097 49.3705 57.6857C49.2635 57.6618 49.1511 57.6911 49.0681 57.7655L44.7282 61.6964L42.4752 51.5128C42.4431 51.3692 42.3227 51.2628 42.1702 51.2495C42.0204 51.2388 41.8839 51.3239 41.8277 51.4622L36.3693 65.3188L34.8174 57.4357C34.7827 57.2629 34.6194 57.1432 34.4402 57.1671L27.5289 58.0767C27.3443 58.1006 27.2131 58.2709 27.2372 58.4544C27.2613 58.6379 27.4326 58.7682 27.6172 58.7443L34.2127 57.8772L35.9279 66.5821C35.9573 66.7125 36.0483 66.8082 36.166 66.8454Z" fill="#0D71BA"/>
<path opacity="0.6" d="M27.2732 38.662L27.5167 54.9548C27.5167 54.9548 27.7174 68.0347 28.0117 74.1173C28.306 80.1998 31.4312 79.5056 31.4312 79.5056C31.4312 79.5056 39.3914 79.9817 42.158 80.1094C44.9247 80.2344 59.1513 79.9471 62.8357 80.4578C66.5228 80.9658 76.752 81.8302 82.3174 81.9897C87.8828 82.1467 86.3068 77.8407 86.3068 77.8407C86.3068 77.8407 86.3256 77.5508 86.3577 77.0216C82.0338 75.6785 77.4824 75.0641 72.9525 75.2184C65.6479 75.4684 58.3968 77.6891 51.135 76.8407C46.605 76.3115 42.2945 74.596 38.2194 72.5641C36.6461 71.7795 35.038 70.8912 34.032 69.455C32.6433 67.4656 32.6808 64.8432 32.9028 62.4309C33.3122 58.0186 34.1658 53.6462 35.4421 49.3988C36.5632 45.6541 38.0161 42.0078 39.7713 38.5104C40.0871 37.88 40.5071 37.2231 40.9326 36.5609C35.9959 36.4119 31.1289 36.3215 29.5716 36.2683C26.904 36.1726 27.2732 38.662 27.2732 38.662Z" fill="#C0DCFE"/>
<path opacity="0.6" d="M83.4694 39.5303C84.3684 39.7431 85.3237 39.9878 85.9524 40.6607C86.4983 41.2458 86.7097 42.065 86.806 42.8549C86.9237 43.8203 86.905 44.8044 86.7445 45.7645C86.6321 46.44 86.4367 47.1368 85.9631 47.6368C85.4895 48.1368 84.6761 48.3709 84.0902 48.0092C83.5309 47.6634 83.3651 46.9267 83.3838 46.2725C83.3998 45.6182 83.547 44.956 83.3998 44.3177C83.2125 43.5011 82.5142 42.8256 81.6901 42.6581C81.0479 42.5277 80.3496 42.682 79.7449 42.432C79.587 42.3681 79.4372 42.2724 79.3435 42.1315C79.191 41.9054 79.207 41.6075 79.2606 41.3415C79.6352 39.4213 81.856 39.15 83.4694 39.5303Z" fill="white"/>
<path d="M11.286 94.6448C16.0407 99.9348 25.5099 96.5571 29.6091 94.1581C31.0325 93.3256 31.6934 92.1368 31.953 90.9373C32.4426 88.6793 31.5035 86.3867 31.5035 86.3867C31.5035 86.3867 30.781 84.0542 29.8017 80.884C28.8947 77.9451 27.7709 74.2828 26.805 71.0966C25.7668 67.6657 24.9106 64.7853 24.7126 63.9475C24.4691 62.9316 23.9259 62.0512 23.3694 61.373C22.5827 60.4102 21.772 59.8438 21.772 59.8438C8.09122 67.0247 3.92518 64.7561 3.92518 64.7561C2.38399 67.4928 3.48904 70.1152 3.48904 70.1152L5.45299 76.9717L8.18754 86.5303L8.45511 87.4638C8.45511 87.4638 10.9114 94.2299 11.286 94.6448Z" fill="#F6E5D4"/>
<path d="M8.18839 86.5275C9.71353 86.5807 11.2681 86.4424 12.7852 86.2988C14.6341 86.1259 16.491 85.9477 18.2891 85.4823C19.5761 85.1498 20.8176 84.6684 22.0565 84.1923C24.676 83.1817 27.3115 82.1657 29.8026 80.8811C28.8955 77.9423 27.7717 74.28 26.8058 71.0938C26.3188 71.4209 25.9282 71.6868 25.7676 71.7746C24.2024 72.639 22.5889 73.4183 20.9728 74.1895C19.1373 75.0672 17.2857 75.9449 15.3191 76.4742C13.299 77.0194 11.1905 77.1816 9.09545 77.1789C7.88069 77.1763 6.65523 77.1178 5.45117 76.9662L8.18839 86.5275Z" fill="#E07826"/>
<path opacity="0.6" d="M11.2867 94.6448C16.0414 99.9348 25.5106 96.5571 29.6098 94.1581C31.0333 93.3256 31.6942 92.1368 31.9537 90.9373C28.2693 91.8761 25.1307 94.7565 21.3259 94.9001C19.9345 94.9533 18.5458 94.6262 17.2588 94.0996C15.6347 93.4373 14.1203 92.4293 13.0687 91.0357C12.2018 89.8841 11.6774 88.5197 11.1636 87.1739C9.36556 82.4558 7.56751 77.7376 5.76945 73.0221C5.23432 71.6152 4.74466 69.8918 5.70523 68.7295C6.44372 67.8359 7.73875 67.6896 8.89465 67.5566C14.2112 66.9502 19.6295 65.1231 23.3674 61.373C22.5808 60.4102 21.77 59.8438 21.77 59.8438C8.08927 67.0247 3.92322 64.7561 3.92322 64.7561C2.38203 67.4928 3.48709 70.1152 3.48709 70.1152L5.45105 76.9717L8.18559 86.5303L8.45316 87.4638C8.45584 87.4638 10.9121 94.2299 11.2867 94.6448Z" fill="#FED9B4"/>
<path d="M21.083 54.3047C21.083 54.3047 22.8142 58.6851 22.1051 60.6612C21.3158 62.8554 7.67784 67.5177 3.58404 65.4671C3.58404 65.4671 1.90104 64.2118 0.951172 59.451L21.083 54.3047Z" fill="#E07826"/>
<path d="M12.0421 60.6838C17.6031 59.1861 21.6693 56.354 21.1245 54.3581C20.5796 52.3622 15.6298 51.9584 10.0689 53.4561C4.50801 54.9538 0.441723 57.786 0.986615 59.7818C1.53151 61.7777 6.48124 62.1815 12.0421 60.6838Z" fill="#F68B3B"/>
<path opacity="0.6" d="M24.4954 69.3194C24.886 69.3619 25.1777 69.6997 25.3516 70.0508C25.7182 70.7875 25.7396 71.6385 25.86 72.4524C26.0125 73.4843 26.3309 74.4896 26.7403 75.4498C26.8312 75.6625 26.9249 75.878 26.9383 76.1094C26.949 76.3407 26.858 76.5907 26.6547 76.7024C26.4138 76.8328 26.1088 76.7264 25.8974 76.5535C25.4452 76.1865 25.266 75.5881 25.1135 75.0269C24.7843 73.8168 24.4552 72.6066 24.1261 71.3965C24.0164 70.9896 23.7355 70.4284 23.7729 70.0029C23.7863 69.8273 24.2305 69.0454 24.4954 69.3194Z" fill="white"/>
<path d="M88.203 45.5824L89.6211 45.0238C94.5551 43.0823 96.9792 37.5131 95.026 32.6088L95.0126 32.5795C91.3442 24.9757 87.9648 16.4915 84.6791 6.64296L84.6711 6.61902C83.8202 4.48335 84.8771 2.06044 87.023 1.21469C89.1716 0.36893 91.6091 1.41948 92.46 3.55249L92.4787 3.59238C95.0741 8.63501 96.9685 13.3824 98.2636 18.1086L99.1599 17.8665C97.8488 13.0872 95.9384 8.2866 93.3162 3.19344C92.27 0.600317 89.2974 -0.673639 86.6805 0.358291C84.061 1.39022 82.7714 4.34505 83.8015 6.94881C87.0953 16.8213 90.4853 25.3347 94.1671 32.9678C95.9223 37.3934 93.7309 42.4174 89.2786 44.1701L87.8605 44.7286C83.4028 46.484 78.3404 44.3057 76.5771 39.8748L75.7129 40.2153C77.6688 45.1143 83.2717 47.5239 88.203 45.5824Z" fill="#8FB7E1"/>
<path d="M77.5405 32.1211C77.5405 32.1211 76.1866 35.7169 77.0615 38.6504L74.7792 39.5494C74.7792 39.5494 73.3611 35.8073 70.375 34.9403L77.5405 32.1211Z" fill="#B2CBEA"/>
<path d="M65.1109 34.2412C67.5457 38.696 70.3338 36.5843 70.3338 36.5843C70.3338 36.5843 76.421 34.055 78.5615 33.2119C80.2686 32.5417 80.9563 32.9991 81.4004 30.8714C81.5155 30.3315 81.6145 29.6267 81.7081 28.6905C82.1791 24.0761 78.5909 7.61045 77.5501 3.75668C76.5093 -0.0971041 71.9713 2.17953 71.9713 2.17953C71.9713 2.17953 66.4648 4.26998 61.8171 6.09979C59.6739 6.94289 57.7153 7.72748 56.5594 8.22748C52.9017 9.81527 53.1425 9.59187 53.6215 11.2063C54.1031 12.8233 62.6787 29.7863 65.1109 34.2412Z" fill="#C6D8F0"/>
<path d="M76.6378 37.4078C76.892 37.3041 77.1997 37.2057 77.4217 37.3653C77.5635 37.4663 77.6251 37.6472 77.6759 37.8121C77.9328 38.6472 78.1897 39.4823 78.4465 40.3148C78.4893 40.4531 78.5321 40.6047 78.4813 40.7403C78.4198 40.9079 78.2378 40.9983 78.0746 41.0701C77.197 41.4558 76.314 41.8255 75.423 42.1792C75.2598 42.243 75.0805 42.3095 74.9119 42.259C74.6738 42.1898 74.5588 41.9265 74.4758 41.6925C74.2082 40.9265 73.9755 40.1472 73.7775 39.3626C73.5661 38.5222 73.9005 38.5222 74.6203 38.2296C75.2946 37.9557 75.9662 37.6818 76.6378 37.4078Z" fill="#5474B8"/>
<path d="M98.4905 17.2435C98.4905 17.2435 100.364 16.286 100.693 17.5254C101.022 18.7621 100.283 19.1079 100.283 19.1079L101.543 22.2755C101.543 22.2755 102.183 23.0627 101.107 23.8154C100.032 24.5681 99.3548 22.592 99.3548 22.592L98.3353 20.0414C98.3353 20.0414 97.4069 19.6398 96.8905 18.4776C96.3714 17.31 98.4905 17.2435 98.4905 17.2435Z" fill="#5474B8"/>
<path d="M100.815 22.2891C101.265 23.1216 101.428 24.079 101.846 24.9274C101.921 25.079 102.003 25.236 101.998 25.4035C101.993 25.5711 101.851 25.7466 101.685 25.7227C101.527 25.6987 101.444 25.5259 101.391 25.3769C101.12 24.6269 100.848 23.8769 100.577 23.1269C100.508 22.9327 100.165 22.313 100.27 22.1162C100.414 21.829 100.733 22.087 100.815 22.2891Z" fill="#5474B8"/>
<path d="M73.3152 4.59828C73.655 4.49987 74.035 4.41742 74.3453 4.58232C74.6744 4.75785 74.8109 5.14616 74.9206 5.49989C75.3353 6.84033 75.7233 8.38557 74.9688 9.56909C74.5246 10.2659 73.762 10.6888 73.0262 11.0718C69.4729 12.9122 65.7537 14.4389 61.9302 15.633C61.4485 15.782 60.9295 15.9282 60.4505 15.7687C59.8271 15.5612 59.4819 14.9176 59.1956 14.3298C58.6043 13.1037 58.0451 11.5372 58.92 10.4946C59.2759 10.0691 59.8084 9.83506 60.3248 9.62761C61.4191 9.18345 62.5322 8.79249 63.6453 8.39887C65.4273 7.7712 67.22 7.17013 68.9913 6.5132C70.4843 5.95468 71.7633 5.05307 73.3152 4.59828Z" fill="#E1EBF7"/>
<path d="M72.4345 13.8216C73.0312 13.6088 73.7028 13.404 74.278 13.6673C74.8399 13.9253 75.1236 14.5476 75.3403 15.1248C75.7149 16.1141 76.044 17.1195 76.3276 18.1381C76.4132 18.4493 76.4962 18.7764 76.44 19.0956C76.3892 19.3828 76.2313 19.6381 76.052 19.8695C75.3082 20.8243 74.2031 21.4254 73.0874 21.8988C72.3248 22.2233 71.5435 22.4999 70.7622 22.7765C69.4484 23.2419 68.1347 23.71 66.8209 24.1754C66.3366 24.3483 65.7667 24.5132 65.3332 24.2366C65.0496 24.0584 64.8998 23.7339 64.7713 23.4281C64.1506 21.9546 63.6449 20.436 63.2623 18.8855C63.1258 18.3296 63.0214 17.678 63.3907 17.2365C63.578 17.0131 63.8536 16.8881 64.1238 16.7711C65.4938 16.1833 66.9039 15.678 68.338 15.2684C69.7321 14.8721 71.0646 14.3136 72.4345 13.8216Z" fill="#E1EBF7"/>
<path opacity="0.6" d="M65.1116 34.2404C67.5464 38.6953 70.3345 36.5835 70.3345 36.5835C70.3345 36.5835 76.4217 34.0543 78.5622 33.2112C80.2693 32.5409 80.957 32.9984 81.4011 30.8707C78.2866 29.517 74.6664 31.2031 71.279 30.8148C69.7806 30.642 68.3625 30.0622 66.9872 29.4425C66.0481 29.0196 65.1089 28.5675 64.3303 27.8946C63.5062 27.1818 62.9015 26.2563 62.3101 25.344C60.381 22.3679 58.4411 19.3759 57.0658 16.1072C56.6243 15.0593 56.239 13.905 56.5414 12.8093C56.7581 12.0194 57.3066 11.3678 57.8391 10.7428C58.6097 9.84115 59.3803 8.93688 60.1535 8.03261C60.5228 7.60175 61.5101 6.78525 61.8151 6.09375C59.6719 6.93685 57.7133 7.72143 56.5574 8.22144C52.8998 9.80923 53.1406 9.58582 53.6195 11.2002C54.1038 12.8226 62.6794 29.7856 65.1116 34.2404Z" fill="#ABC9F1"/>
<path d="M7.86737 19.6039C7.86737 19.6039 9.71092 21.7076 12.1672 24.5002C12.2421 24.5853 12.317 24.6704 12.392 24.7529C12.5177 24.8939 12.6435 25.0375 12.7719 25.1837C12.8468 25.2689 12.9217 25.354 12.9967 25.4364C13.1224 25.58 13.2482 25.7237 13.3766 25.8699C13.4515 25.955 13.5264 26.0401 13.6014 26.1226C13.7271 26.2662 13.8529 26.4098 13.9813 26.5535C14.0562 26.6386 14.1311 26.7237 14.2061 26.8061C14.3318 26.9497 14.4576 27.096 14.586 27.2396C14.6636 27.3247 14.7359 27.4098 14.8108 27.4923C14.9365 27.6359 15.0623 27.7795 15.1907 27.9231C15.2656 28.0083 15.3406 28.0934 15.4155 28.1758C15.5412 28.3194 15.6697 28.463 15.7954 28.6067C15.8703 28.6918 15.9453 28.7769 16.0202 28.8593C16.1459 29.003 16.2744 29.1466 16.4001 29.2902C16.475 29.3753 16.55 29.4604 16.6249 29.5429C16.7533 29.6865 16.8791 29.8301 17.0048 29.9737C17.0798 30.0588 17.1547 30.1439 17.2296 30.2264C17.3554 30.37 17.4838 30.5136 17.6095 30.6572C17.6845 30.7423 17.7594 30.8275 17.8343 30.9126C17.9627 31.0562 18.0885 31.1998 18.2142 31.3434C18.2892 31.4285 18.3641 31.5136 18.439 31.5961C18.5674 31.7397 18.6932 31.8833 18.8189 32.0269C18.8939 32.112 18.9688 32.1971 19.0437 32.2796C19.1721 32.4232 19.3006 32.5668 19.4263 32.7104C19.5012 32.7956 19.5762 32.8807 19.6511 32.9631C19.7795 33.1094 19.9079 33.2504 20.0337 33.394C20.1086 33.4791 20.1835 33.5642 20.2585 33.6466C20.3869 33.7929 20.5153 33.9339 20.6411 34.0748C20.716 34.1599 20.7909 34.245 20.8658 34.3275C20.9943 34.4738 21.1227 34.6147 21.2485 34.7557C21.3261 34.8408 21.401 34.9259 21.4732 35.0084C22.7549 36.4419 23.7422 37.527 24.1757 37.9738C26.2252 40.0856 28.24 41.3968 29.3531 40.4526C30.4662 39.5058 31.4776 40.8116 31.4776 40.8116C31.4776 40.8116 34.7072 44.6681 36.7514 46.6814C38.5361 48.4367 39.3976 49.2399 40.2993 48.8224C40.4304 48.7612 40.5616 48.6761 40.698 48.5618C41.7629 47.6681 40.5883 45.9686 40.5883 45.9686C40.5883 45.9686 36.837 41.6334 35.5794 40.4393C34.3219 39.2451 33.6556 37.7265 34.2148 36.7025C34.774 35.6786 33.1927 33.8993 33.1927 33.8993C33.1927 33.8993 19.3996 17.8565 15.9346 14.3432C14.7787 13.1703 13.7512 12.516 12.8923 12.1676C11.6107 11.6437 10.1337 11.9788 9.1731 12.9708C9.16508 12.9814 9.15437 12.9894 9.14635 13.0001C8.51756 13.6463 7.6774 14.5134 6.8854 15.3432C5.3442 16.9629 7.86737 19.6039 7.86737 19.6039Z" fill="#F6E5D4"/>
<path d="M20.4047 22.6665C20.7257 22.9112 20.9452 23.2835 21.0843 23.6772C21.301 24.2968 21.3198 25.0362 20.9746 25.5841C20.6829 26.0469 20.1746 26.3075 19.6689 26.4511C19.2621 26.5655 18.8314 26.6187 18.4166 26.5336C18.0019 26.4511 17.6006 26.2197 17.3544 25.8554C17.1457 25.5469 17.0574 25.1665 17.0146 24.7915C16.9825 24.507 16.9744 24.2144 17.0387 23.9351C17.1537 23.4271 17.5015 22.999 17.9297 22.7436C18.5772 22.3527 19.7572 22.1745 20.4047 22.6665Z" fill="#D92B27"/>
<path d="M39.2542 46.854C39.4468 46.6811 39.4629 46.3859 39.289 46.1944L19.826 24.6914L19.125 25.3164L38.5879 46.8194C38.7645 47.0109 39.0615 47.0268 39.2542 46.854Z" fill="#D92B27"/>
<path d="M21.2422 34.7658C21.3198 34.8509 21.3947 34.936 21.4669 35.0184L23.2463 33.5051C23.3185 33.444 23.3265 33.3376 23.265 33.2658C23.2302 33.2259 23.1794 33.2046 23.1285 33.2073C23.0911 33.2099 23.0563 33.2232 23.0242 33.2471L21.2422 34.7658Z" fill="#D92B27"/>
<path d="M20.6348 34.0861C20.7097 34.1712 20.7846 34.2563 20.8595 34.3388L21.9084 33.4504C21.9806 33.3893 21.9887 33.2829 21.9271 33.2111C21.8923 33.1712 21.8415 33.1499 21.7907 33.1526C21.7532 33.1552 21.7184 33.1685 21.6863 33.1925L20.6348 34.0861Z" fill="#D92B27"/>
<path d="M20.0273 33.4016C20.1023 33.4867 20.1772 33.5718 20.2521 33.6543L22.0582 32.1223C22.1278 32.0611 22.1385 31.9548 22.0769 31.8829C22.0421 31.8431 21.9913 31.8218 21.9405 31.8244C21.903 31.8271 21.8655 31.8404 21.8361 31.8643L20.0273 33.4016Z" fill="#D92B27"/>
<path d="M19.4199 32.7167C19.4948 32.8018 19.5698 32.887 19.6447 32.9694L20.715 32.0598C20.7845 31.9986 20.7952 31.8923 20.7337 31.8204C20.6989 31.7806 20.6481 31.7593 20.5972 31.7619C20.5598 31.7646 20.5223 31.7779 20.4929 31.8018L19.4199 32.7167Z" fill="#D92B27"/>
<path d="M18.8125 32.0362C18.8874 32.1213 18.9623 32.2064 19.0373 32.2888L20.8648 30.7356C20.9343 30.6744 20.945 30.5681 20.8835 30.4962C20.846 30.4563 20.7979 30.4351 20.7443 30.4377C20.7069 30.4404 20.6721 30.4537 20.64 30.4776L18.8125 32.0362Z" fill="#D92B27"/>
<path d="M18.209 31.3564C18.2839 31.4416 18.3588 31.5267 18.4337 31.6091L19.5281 30.6809C19.5977 30.6197 19.6084 30.5133 19.5468 30.4415C19.5094 30.4016 19.4585 30.3804 19.4077 30.383C19.3702 30.3857 19.3354 30.399 19.3033 30.4229L18.209 31.3564Z" fill="#D92B27"/>
<path d="M17.6055 30.6654C17.6804 30.7505 17.7553 30.8356 17.8302 30.9207L19.6764 29.3489C19.7487 29.2877 19.7567 29.1813 19.6952 29.1095C19.6604 29.0696 19.6096 29.0483 19.5587 29.051C19.5213 29.0537 19.4865 29.067 19.4544 29.0909L17.6055 30.6654Z" fill="#D92B27"/>
<path d="M16.9961 29.9845C17.071 30.0696 17.1459 30.1547 17.2209 30.2371L18.3339 29.2929C18.4062 29.2318 18.4142 29.1254 18.3527 29.0536C18.3179 29.011 18.267 28.9897 18.2135 28.9924C18.1787 28.9951 18.1413 29.0084 18.1118 29.0323L16.9961 29.9845Z" fill="#D92B27"/>
<path d="M16.3945 29.2985C16.4695 29.3836 16.5444 29.4688 16.6193 29.5512L18.4869 27.9661C18.5592 27.9049 18.5672 27.7985 18.5056 27.7267C18.4709 27.6868 18.42 27.6655 18.3692 27.6682C18.3317 27.6709 18.2969 27.6841 18.2648 27.7081L16.3945 29.2985Z" fill="#D92B27"/>
<path d="M15.7891 28.6149C15.864 28.7 15.9389 28.7852 16.0138 28.8676L17.1456 27.9075C17.2179 27.8463 17.2259 27.7399 17.1644 27.6681C17.1296 27.6282 17.0787 27.6069 17.0279 27.6096C16.9904 27.6123 16.9557 27.6256 16.9235 27.6495L15.7891 28.6149Z" fill="#D92B27"/>
<path d="M15.1855 27.9317C15.2605 28.0168 15.3354 28.1019 15.4103 28.1843L17.2967 26.5833C17.3662 26.5221 17.3769 26.4157 17.3154 26.3439C17.2806 26.304 17.2298 26.2827 17.1789 26.2854C17.1415 26.288 17.104 26.3013 17.0746 26.3253L15.1855 27.9317Z" fill="#D92B27"/>
<path d="M14.582 27.2442C14.6596 27.3293 14.7319 27.4144 14.8068 27.4968L15.9547 26.5208C16.0242 26.4596 16.0349 26.3532 15.9734 26.2814C15.9386 26.2415 15.8878 26.2202 15.8369 26.2229C15.7995 26.2255 15.7647 26.2388 15.7353 26.2628L14.582 27.2442Z" fill="#D92B27"/>
<path d="M13.9766 26.5609C14.0515 26.646 14.1264 26.7311 14.2013 26.8136L16.1037 25.1965C16.176 25.1354 16.184 25.029 16.1225 24.9572C16.0877 24.9173 16.0368 24.896 15.986 24.8987C15.9485 24.9013 15.9138 24.9146 15.8816 24.9385L13.9766 26.5609Z" fill="#D92B27"/>
<path d="M13.373 25.8747C13.448 25.9598 13.5229 26.0449 13.5978 26.1273L14.7617 25.1379C14.834 25.0768 14.842 24.9704 14.7805 24.8986C14.7457 24.8587 14.6948 24.8374 14.644 24.8401C14.6065 24.8427 14.5717 24.856 14.5396 24.88L13.373 25.8747Z" fill="#D92B27"/>
<path d="M12.7695 25.1848C12.8445 25.2699 12.9194 25.3551 12.9943 25.4375L14.9128 23.8098C14.985 23.7486 14.993 23.6423 14.9315 23.5704C14.8967 23.5306 14.8459 23.5093 14.795 23.5119C14.7576 23.5146 14.7228 23.5279 14.6907 23.5518L12.7695 25.1848Z" fill="#D92B27"/>
<path d="M12.168 24.5051C12.2429 24.5902 12.3178 24.6754 12.3927 24.7578L13.5754 23.7551C13.6476 23.694 13.6557 23.5876 13.5941 23.5158C13.5593 23.4759 13.5085 23.4546 13.4577 23.4573C13.4202 23.4599 13.3854 23.4732 13.3533 23.4972L12.168 24.5051Z" fill="#D92B27"/>
<path opacity="0.3" d="M19.2363 22.6052C19.1293 22.5972 19.0169 22.5999 18.9179 22.6398C18.8189 22.6796 18.7306 22.7648 18.7092 22.8685C18.6824 23.0121 18.7895 23.1557 18.9233 23.2195C19.057 23.2834 19.2096 23.2914 19.3567 23.2993C19.6243 23.3153 19.9186 23.3632 20.0872 23.568C20.221 23.7275 20.245 23.9483 20.3119 24.1451C20.3788 24.3419 20.534 24.5467 20.7427 24.5387C20.7962 24.536 20.8524 24.5174 20.8819 24.4722C20.9006 24.443 20.9086 24.4084 20.9113 24.3738C20.9782 23.8765 20.7989 23.5919 20.4805 23.2302C20.1728 22.8765 19.7179 22.6398 19.2363 22.6052Z" fill="white"/>
<path opacity="0.6" d="M7.86737 19.6065C7.86737 19.6065 9.71092 21.7102 12.1672 24.5028C12.2421 24.5879 12.317 24.673 12.392 24.7555C12.5177 24.8964 12.6435 25.0401 12.7719 25.1863C12.8468 25.2714 12.9217 25.3566 12.9967 25.439C13.1224 25.5826 13.2482 25.7262 13.3766 25.8725C13.4515 25.9576 13.5264 26.0427 13.6014 26.1252C13.7271 26.2688 13.8529 26.4124 13.9813 26.556C14.0562 26.6412 14.1311 26.7263 14.2061 26.8087C14.3318 26.9523 14.4576 27.0986 14.586 27.2422C14.6636 27.3273 14.7359 27.4124 14.8108 27.4949C14.9365 27.6385 15.0623 27.7821 15.1907 27.9257C15.2656 28.0108 15.3406 28.096 15.4155 28.1784C15.5412 28.322 15.6697 28.4656 15.7954 28.6093C15.8703 28.6944 15.9453 28.7795 16.0202 28.8619C16.1459 29.0055 16.2744 29.1492 16.4001 29.2928C16.475 29.3779 16.55 29.463 16.6249 29.5454C16.7533 29.6891 16.8791 29.8327 17.0048 29.9763C17.0798 30.0614 17.1547 30.1465 17.2296 30.229C17.3554 30.3726 17.4838 30.5162 17.6095 30.6598C17.6845 30.7449 17.7594 30.83 17.8343 30.9152C17.9627 31.0588 18.0885 31.2024 18.2142 31.346C18.2892 31.4311 18.3641 31.5162 18.439 31.5987C18.5674 31.7423 18.6932 31.8859 18.8189 32.0295C18.8939 32.1146 18.9688 32.1997 19.0437 32.2822C19.1721 32.4258 19.3006 32.5694 19.4263 32.713C19.5012 32.7981 19.5762 32.8833 19.6511 32.9657C19.7795 33.112 19.9079 33.2529 20.0337 33.3966C20.1086 33.4817 20.1835 33.5668 20.2585 33.6492C20.3869 33.7955 20.5153 33.9365 20.6411 34.0774C20.716 34.1625 20.7909 34.2476 20.8658 34.3301C20.9943 34.4764 21.1227 34.6173 21.2485 34.7583C21.3261 34.8434 21.401 34.9285 21.4732 35.0109C22.7549 36.4445 23.7422 37.5296 24.1757 37.9764C26.2252 40.0882 28.24 41.3993 29.3531 40.4552C30.4662 39.5084 31.4776 40.8142 31.4776 40.8142C31.4776 40.8142 34.7072 44.6707 36.7514 46.684C38.5361 48.4393 39.3976 49.2425 40.2993 48.825C40.2699 48.7931 40.2405 48.7612 40.211 48.7292C38.5601 46.8941 37.2651 44.7744 35.7319 42.8382C34.1988 40.902 32.3526 39.1041 30.0274 38.2504C29.0855 37.9046 28.0875 37.7238 27.1483 37.3647C24.5824 36.3833 22.7121 34.1971 20.9568 32.0934C18.5246 29.1784 16.0924 26.2608 13.6576 23.3486C12.3893 21.8299 11.1103 20.2927 10.2434 18.5187C9.70289 17.415 9.33364 16.2102 9.25605 14.9788C9.21591 14.3431 9.32294 13.6303 9.14635 13C8.51756 13.6463 7.6774 14.5133 6.8854 15.3431C5.3442 16.9655 7.86737 19.6065 7.86737 19.6065Z" fill="#F6D3AF"/>
<path d="M63.7901 95.3988C64.3788 96.452 65.0075 97.1435 65.7648 97.5345C67.2926 98.3218 69.3502 97.8776 72.6814 96.6967C77.6609 94.9281 93.0113 83.6779 97.0408 80.8481C100.418 78.4784 101.006 75.3241 99.8182 72.5953C99.5881 72.066 99.2911 71.5554 98.9379 71.0687C96.0883 67.167 90.4025 70.1245 90.4025 70.1245C90.4025 70.1245 74.8139 81.0236 67.8197 85.6194C60.8281 90.2152 62.0135 92.2179 63.7901 95.3988Z" fill="#F6E5D4"/>
<path d="M82.2158 78.2819C82.2158 78.2819 83.8265 76.6808 85.0761 78.2819C86.3256 79.883 87.5805 83.1517 87.9364 83.782C88.2949 84.415 88.0247 85.3911 86.5049 86.2794C84.9851 87.1677 81.0492 89.923 81.0492 89.923C81.0492 89.923 80.3348 90.7236 78.815 89.4789C77.2952 88.2342 75.8637 85.1251 75.8637 85.1251C75.8637 85.1251 74.7907 83.4362 76.6691 82.1038C78.5501 80.7713 82.2158 78.2819 82.2158 78.2819Z" fill="#FBF9F7"/>
<path d="M89.8756 76.7046C89.956 76.8243 89.9801 76.9705 89.972 77.1142C89.9667 77.2338 89.9319 77.3615 89.8381 77.4333C89.7471 77.5051 89.6186 77.5078 89.5034 77.5078C89.4044 77.5078 89.3079 77.5078 89.2089 77.5078C89.0536 77.5078 88.8715 77.4945 88.7831 77.3695C88.7537 77.3269 88.7376 77.2764 88.7242 77.2259C88.7055 77.1461 88.6894 77.0636 88.6974 76.9838C88.7162 76.8003 88.8581 76.6487 89.0268 76.5716C89.3026 76.4466 89.6909 76.428 89.8756 76.7046Z" fill="#E6C5A6"/>
<path d="M91.653 79.1382C91.7333 79.2579 91.7574 79.4042 91.7494 79.5478C91.744 79.6675 91.7092 79.7951 91.6155 79.8669C91.5244 79.9387 91.3959 79.9414 91.2808 79.9414C91.1817 79.9414 91.0853 79.9414 90.9862 79.9414C90.8309 79.9414 90.6488 79.9281 90.5604 79.8031C90.531 79.7605 90.5149 79.71 90.5015 79.6595C90.4828 79.5797 90.4667 79.4972 90.4748 79.4174C90.4935 79.2339 90.6381 79.0823 90.8041 79.0052C91.0799 78.8802 91.4682 78.8616 91.653 79.1382Z" fill="#E6C5A6"/>
<path d="M87.7311 77.9233C87.8114 78.043 87.8355 78.1893 87.8275 78.3329C87.8221 78.4526 87.7873 78.5803 87.6936 78.6521C87.6026 78.7239 87.474 78.7265 87.3589 78.7265C87.2598 78.7265 87.1634 78.7265 87.0644 78.7265C86.909 78.7265 86.727 78.7132 86.6386 78.5882C86.6091 78.5457 86.5931 78.4952 86.5797 78.4446C86.5609 78.3648 86.5449 78.2824 86.5529 78.2026C86.5716 78.0191 86.7136 77.8675 86.8823 77.7904C87.1554 77.6654 87.5463 77.6467 87.7311 77.9233Z" fill="#E6C5A6"/>
<path d="M89.5104 80.3569C89.5907 80.4766 89.6148 80.6229 89.6068 80.7665C89.6014 80.8862 89.5666 81.0139 89.4729 81.0857C89.3819 81.1575 89.2533 81.1601 89.1382 81.1601C89.0391 81.1601 88.9427 81.1601 88.8436 81.1601C88.6883 81.1601 88.5063 81.1468 88.4179 81.0218C88.3884 80.9793 88.3724 80.9288 88.359 80.8782C88.3402 80.7984 88.3242 80.716 88.3322 80.6362C88.3509 80.4527 88.4955 80.3011 88.6616 80.224C88.9374 80.099 89.3256 80.0803 89.5104 80.3569Z" fill="#E6C5A6"/>
<path d="M74.6256 86.8413C74.706 86.961 74.7301 87.1073 74.722 87.2509C74.7167 87.3706 74.6819 87.4982 74.5881 87.57C74.4971 87.6419 74.3686 87.6445 74.2534 87.6445C74.1544 87.6445 74.0579 87.6445 73.9589 87.6445C73.8036 87.6445 73.6215 87.6312 73.5331 87.5062C73.5037 87.4637 73.4876 87.4131 73.4742 87.3626C73.4555 87.2828 73.4394 87.2004 73.4474 87.1206C73.4662 86.9371 73.6081 86.7855 73.7768 86.7083C74.0526 86.5833 74.4409 86.5647 74.6256 86.8413Z" fill="#E6C5A6"/>
<path d="M76.403 89.2749C76.4833 89.3946 76.5074 89.5409 76.4994 89.6845C76.494 89.8042 76.4592 89.9318 76.3655 90.0036C76.2744 90.0754 76.1459 90.0781 76.0308 90.0781C75.9317 90.0781 75.8353 90.0781 75.7362 90.0781C75.5809 90.0781 75.3988 90.0648 75.3104 89.9398C75.281 89.8973 75.2649 89.8467 75.2515 89.7962C75.2328 89.7164 75.2167 89.6339 75.2248 89.5542C75.2435 89.3706 75.3854 89.2191 75.5541 89.1419C75.8273 89.0169 76.2182 88.9983 76.403 89.2749Z" fill="#E6C5A6"/>
<path d="M72.4811 88.0601C72.5614 88.1797 72.5855 88.326 72.5775 88.4696C72.5721 88.5893 72.5373 88.717 72.4436 88.7888C72.3526 88.8606 72.224 88.8633 72.1089 88.8633C72.0098 88.8633 71.9134 88.8633 71.8144 88.8633C71.659 88.8633 71.477 88.85 71.3886 88.725C71.3591 88.6824 71.3431 88.6319 71.3297 88.5813C71.3109 88.5015 71.2949 88.4191 71.3029 88.3393C71.3216 88.1558 71.4662 88.0042 71.6323 87.9271C71.9054 87.8021 72.2937 87.7835 72.4811 88.0601Z" fill="#E6C5A6"/>
<path d="M74.2604 90.4948C74.3407 90.6145 74.3648 90.7607 74.3568 90.9044C74.3514 91.024 74.3166 91.1517 74.2229 91.2235C74.1319 91.2953 74.0033 91.298 73.8882 91.298C73.7891 91.298 73.6927 91.298 73.5936 91.298C73.4383 91.298 73.2563 91.2847 73.1679 91.1597C73.1384 91.1171 73.1224 91.0666 73.109 91.0161C73.0902 90.9363 73.0742 90.8538 73.0822 90.774C73.1009 90.5905 73.2429 90.4389 73.4116 90.3618C73.6874 90.2341 74.0756 90.2182 74.2604 90.4948Z" fill="#E6C5A6"/>
<path opacity="0.6" d="M63.7901 95.4001C64.3788 96.4533 65.0075 97.1448 65.7648 97.5358C65.7594 96.7139 65.6631 95.8762 65.6149 95.057C65.4892 92.8575 65.7755 90.549 66.9902 88.7058C67.7769 87.5143 68.906 86.5914 70.0325 85.7058C75.6942 81.2642 81.752 77.3227 88.1148 73.9503C89.5008 73.2162 90.9189 72.5008 92.4467 72.1311C93.7952 71.804 95.2 71.7561 96.5806 71.8997C97.3218 71.9769 98.0576 72.1072 98.7854 72.2801C99.0556 72.3439 99.4463 72.5115 99.8182 72.5992C99.5881 72.07 99.2911 71.5593 98.9379 71.0726C96.0883 67.171 90.4025 70.1284 90.4025 70.1284C90.4025 70.1284 74.8139 81.0275 67.8197 85.6233C60.8281 90.2165 62.0135 92.2192 63.7901 95.4001Z" fill="#FAD6B3"/>
</svg>
