<svg width="25" height="24" viewBox="0 0 25 24" fill="none" xmlns="http://www.w3.org/2000/svg">
<circle cx="18.25" cy="17.25" r="6" stroke="white" stroke-width="1.5" stroke-linecap="round" stroke-linejoin="round"/>
<path d="M20.9237 15.5059L18.0187 19.3799C17.888 19.5537 17.6884 19.6623 17.4714 19.6777C17.2545 19.693 17.0416 19.6136 16.8877 19.4599L15.3877 17.9599" stroke="white" stroke-width="1.5" stroke-linecap="round" stroke-linejoin="round"/>
<path d="M8.87489 17.25H5.31389C4.64524 17.2378 4.07269 16.7676 3.93089 16.114L1.79289 7.114C1.67693 6.67736 1.7662 6.21168 2.03539 5.84886C2.30458 5.48605 2.72438 5.26561 3.17589 5.25H21.3239C21.7752 5.26599 22.1948 5.48652 22.4639 5.84922C22.733 6.21193 22.8224 6.67739 22.7069 7.114L22.4069 8.37" stroke="white" stroke-width="1.5" stroke-linecap="round" stroke-linejoin="round"/>
<path d="M4.75 5.25L9.25 0.75" stroke="white" stroke-width="1.5" stroke-linecap="round" stroke-linejoin="round"/>
<path d="M19.75 5.24995L15.25 0.751953" stroke="white" stroke-width="1.5" stroke-linecap="round" stroke-linejoin="round"/>
</svg>
