<svg width="25" height="24" viewBox="0 0 25 24" fill="none" xmlns="http://www.w3.org/2000/svg">
<ellipse cx="18.25" cy="16.9282" rx="6" ry="5.86373" stroke="white" stroke-width="1.5" stroke-linecap="round" stroke-linejoin="round"/>
<path d="M20.5 14.7285L16 19.1263" stroke="white" stroke-width="1.5" stroke-linecap="round" stroke-linejoin="round"/>
<path d="M16 14.7285L20.5 19.1263" stroke="white" stroke-width="1.5" stroke-linecap="round" stroke-linejoin="round"/>
<path d="M8.87586 16.9286H5.31486C4.64622 16.9168 4.07367 16.4571 3.93186 15.8184L1.79386 7.02284C1.67791 6.59611 1.76717 6.14101 2.03636 5.78643C2.30556 5.43186 2.72536 5.21643 3.17686 5.20117H21.3249C21.7762 5.2168 22.1958 5.43232 22.4649 5.78679C22.734 6.14125 22.8234 6.59615 22.7079 7.02284L22.4079 8.25031" stroke="white" stroke-width="1.5" stroke-linecap="round" stroke-linejoin="round"/>
<path d="M4.75 5.20053L9.25 0.802734" stroke="white" stroke-width="1.5" stroke-linecap="round" stroke-linejoin="round"/>
<path d="M19.75 5.20053L15.25 0.804688" stroke="white" stroke-width="1.5" stroke-linecap="round" stroke-linejoin="round"/>
</svg>
