<svg width="27" height="27" viewBox="0 0 27 27" fill="none" xmlns="http://www.w3.org/2000/svg">
<path d="M5.84375 9.9541L10.7188 4.2666" stroke="#ffffff" stroke-width="1.8" stroke-linecap="round" stroke-linejoin="round"/>
<path d="M22.0938 9.9541L17.2188 4.2666" stroke="#ffffff" stroke-width="1.8" stroke-linecap="round" stroke-linejoin="round"/>
<path fill-rule="evenodd" clip-rule="evenodd" d="M21.4822 22.9541H6.45422C5.72985 22.9409 5.10959 22.4315 4.95597 21.7234L2.6398 11.9734C2.51419 11.5004 2.61089 10.9959 2.90251 10.6029C3.19414 10.2098 3.64893 9.97102 4.13805 9.9541H23.7984C24.2875 9.97102 24.7423 10.2098 25.0339 10.6029C25.3256 10.9959 25.4223 11.5004 25.2966 11.9734L22.9805 21.7234C22.8269 22.4315 22.2066 22.9409 21.4822 22.9541Z" stroke="#ffffff" stroke-width="1.8" stroke-linecap="round" stroke-linejoin="round"/>
<path d="M9.09375 13.2041V19.7041" stroke="#ffffff" stroke-width="1.8" stroke-linecap="round" stroke-linejoin="round"/>
<path d="M13.9688 13.2041V19.7041" stroke="#ffffff" stroke-width="1.8" stroke-linecap="round" stroke-linejoin="round"/>
<path d="M18.8438 13.2041V19.7041" stroke="#ffffff" stroke-width="1.8" stroke-linecap="round" stroke-linejoin="round"/>
</svg>
