<svg width="110" height="227" viewBox="0 0 110 227" fill="none" xmlns="http://www.w3.org/2000/svg">
<path d="M14.2888 196.75H95.1496C101.529 196.75 106.696 191.579 106.696 185.203V11.5466C106.696 5.16756 101.526 0 95.1496 0H14.2888C7.91264 0 2.74219 5.17046 2.74219 11.5466V185.203C2.73929 191.579 7.90975 196.75 14.2888 196.75Z" fill="#544C63"/>
<path d="M100.901 173.149V13.4473C100.901 9.32604 97.5594 5.98438 93.4381 5.98438H16.0001C11.8788 5.98438 8.53711 9.32604 8.53711 13.4473V173.146C8.53711 177.267 11.8788 180.609 16.0001 180.609H93.441C97.5623 180.612 100.901 177.27 100.901 173.149Z" fill="#59B3B1"/>
<g style="mix-blend-mode:multiply">
<path d="M54.719 226.002C84.9273 226.002 109.415 222.701 109.415 218.629C109.415 214.557 84.9244 211.256 54.719 211.256C24.5106 211.256 0.0234375 214.557 0.0234375 218.629C0.0234375 222.701 24.5106 226.002 54.719 226.002Z" fill="#E6E6E5"/>
</g>
<path d="M73.5554 11.714H35.8783C33.9567 11.714 32.4004 10.1577 32.4004 8.23616V3.59898C32.4004 1.67745 33.9567 0.121094 35.8783 0.121094H73.5554C75.4769 0.121094 77.0332 1.67745 77.0332 3.59898V8.23616C77.0332 10.1577 75.4769 11.714 73.5554 11.714Z" fill="#544C63"/>
<path d="M42.9015 78.0352L35.1429 85.7908L27.3872 78.0352L24.2832 81.1363L32.0389 88.8949L24.2832 96.6505L27.3872 99.7546L35.1429 91.9989L42.9015 99.7546L46.0026 96.6505L38.2469 88.8949L46.0026 81.1363L42.9015 78.0352Z" fill="#20352E"/>
<path d="M85.1452 81.1363L82.0412 78.0352L74.2855 85.7908L66.5269 78.0352L63.4258 81.1363L71.1815 88.8949L63.4258 96.6505L66.5269 99.7546L74.2855 91.9989L82.0412 99.7546L85.1452 96.6505L77.3895 88.8949L85.1452 81.1363Z" fill="#20352E"/>
<path d="M71.335 118.708C54.9194 107.373 38.2922 118.592 38.1241 118.708L35.9707 115.589C36.1562 115.459 54.9455 102.785 73.4855 115.589L71.335 118.708Z" fill="#20352E"/>
</svg>
