<svg width="23" height="22" viewBox="0 0 23 22" fill="none" xmlns="http://www.w3.org/2000/svg">
<path d="M2.36719 15.125V4.125C2.36719 3.36561 2.9828 2.75 3.74219 2.75H18.8672C19.6266 2.75 20.2422 3.36561 20.2422 4.125V15.125" stroke="#3376B8" stroke-width="1.4" stroke-linecap="round" stroke-linejoin="round"/>
<path fill-rule="evenodd" clip-rule="evenodd" d="M14.0419 15.125C13.8255 15.1253 13.6219 15.2271 13.4919 15.4C12.9783 16.092 12.1674 16.5001 11.3056 16.5001C10.4438 16.5001 9.63292 16.092 9.11935 15.4C8.98933 15.2271 8.78568 15.1253 8.56935 15.125H0.992188V16.5C0.992188 18.0188 2.2234 19.25 3.74219 19.25H18.8672C20.386 19.25 21.6172 18.0188 21.6172 16.5V15.125H14.0419Z" stroke="#3376B8" stroke-width="1.4" stroke-linecap="round" stroke-linejoin="round"/>
<path fill-rule="evenodd" clip-rule="evenodd" d="M14.7422 8.25C14.7422 7.8703 14.4344 7.5625 14.0547 7.5625H12.6797V6.1875C12.6797 5.8078 12.3719 5.5 11.9922 5.5H10.6172C10.2375 5.5 9.92969 5.8078 9.92969 6.1875V7.5625H8.55469C8.17499 7.5625 7.86719 7.8703 7.86719 8.25V9.625C7.86719 10.0047 8.17499 10.3125 8.55469 10.3125H9.92969V11.6875C9.92969 12.0672 10.2375 12.375 10.6172 12.375H11.9922C12.3719 12.375 12.6797 12.0672 12.6797 11.6875V10.3125H14.0547C14.4344 10.3125 14.7422 10.0047 14.7422 9.625V8.25Z" stroke="#3376B8" stroke-width="1.4" stroke-linecap="round" stroke-linejoin="round"/>
</svg>
