<svg width="23" height="22" viewBox="0 0 23 22" fill="none" xmlns="http://www.w3.org/2000/svg">
<path d="M9.92985 15.2405L3.01451 14.7134C2.50169 14.6728 2.00684 14.912 1.72012 15.3392C1.43341 15.7663 1.39944 16.3149 1.63126 16.7741V16.7741C1.79165 17.0959 2.06814 17.3449 2.40493 17.4708L11.9694 21.0577C12.5587 21.2784 13.2058 21.2904 13.8028 21.0916L21.1297 18.6496" stroke="#3376B8" stroke-width="1.4" stroke-linecap="round" stroke-linejoin="round"/>
<path d="M16.3183 15.8958H11.0117C10.4854 15.8962 10.0181 15.5593 9.85216 15.0598V15.0598C9.74554 14.741 9.77495 14.3924 9.93348 14.096C10.092 13.7995 10.3657 13.5815 10.69 13.4932L16.1332 12.0082C16.7075 11.8507 17.3092 11.8194 17.8968 11.9165L21.1308 12.4555" stroke="#3376B8" stroke-width="1.4" stroke-linecap="round" stroke-linejoin="round"/>
<path d="M3.25586 11.8966V2.14598C3.27635 1.36645 3.92465 0.750977 4.70419 0.770982H16.9334C17.7126 0.751492 18.3604 1.36681 18.3809 2.14598V9.14657" stroke="#3376B8" stroke-width="1.4" stroke-linecap="round" stroke-linejoin="round"/>
<path fill-rule="evenodd" clip-rule="evenodd" d="M12.1934 6.27051H9.44336C9.06366 6.27051 8.75586 5.9627 8.75586 5.58301V0.770508H12.8809V5.58301C12.8809 5.9627 12.5731 6.27051 12.1934 6.27051V6.27051Z" stroke="#3376B8" stroke-width="1.4" stroke-linecap="round" stroke-linejoin="round"/>
</svg>
