<svg width="66" height="61" viewBox="0 0 66 61" fill="none" xmlns="http://www.w3.org/2000/svg">
<g filter="url(#filter0_d_7838:59931)">
<rect x="2" y="1" width="62" height="30" rx="8" fill="#E7F3F9"/>
<g clip-path="url(#clip0_7838:59931)">
<path d="M26 18.425C26.2192 17.4033 26.9551 16.7935 27.7677 16.2501C27.906 16.1575 27.9584 16.0655 27.9421 15.9012C27.8999 15.4826 27.8709 15.0625 27.8425 14.6429C27.812 14.1858 27.9279 13.7581 28.2371 13.424C28.6938 12.93 29.1718 12.4523 29.6707 12.0008C30.1782 11.5423 30.8149 11.611 31.4353 11.6641C31.6713 11.6843 31.9083 11.701 32.1432 11.7303C32.2984 11.7495 32.3843 11.6853 32.4763 11.5635C32.7291 11.2273 32.9966 10.9012 33.2692 10.5802C33.6313 10.153 34.1276 9.94468 34.6453 9.77734C34.9336 9.77734 35.2215 9.77734 35.5098 9.77734C35.5312 9.78948 35.551 9.80768 35.5744 9.81324C37.2608 10.2096 38.3714 11.2607 39.0254 12.8244C39.1119 13.0306 39.1576 13.2536 39.2222 13.469C39.2222 13.7556 39.2222 14.0423 39.2222 14.3289C38.9954 15.3562 38.2534 15.9669 37.4413 16.5281C37.3579 16.5858 37.2892 16.7293 37.2913 16.8315C37.2984 17.1843 37.3304 17.5377 37.3701 17.8891C37.4342 18.4533 37.3279 18.9781 36.9404 19.3977C36.5066 19.8674 36.0453 20.3148 35.5688 20.7415C35.2296 21.0458 34.8019 21.1601 34.3407 21.1242C33.9354 21.0928 33.5295 21.0691 33.1253 21.0281C32.9442 21.0099 32.8369 21.065 32.7271 21.2157C32.4794 21.5554 32.2231 21.8947 31.9317 22.1965C31.1816 22.9735 30.2489 23.1859 29.2506 22.837C27.5933 22.2577 26.4806 21.1333 26.0509 19.4012C26.0371 19.3451 26.0168 19.29 26 19.2344C26 18.9644 26 18.695 26 18.425ZM26.4775 18.8426C26.4953 20.4331 28.1613 22.2577 29.781 22.4751C30.4661 22.5671 31.0468 22.3891 31.5472 21.9088C32.042 21.4336 32.3919 20.8618 32.7362 20.2789C33.0571 19.7349 33.3811 19.1879 33.7594 18.6838C34.4775 17.7263 35.46 17.0847 36.4939 16.5033C37.0212 16.2066 37.5232 15.8532 37.9936 15.4735C38.7447 14.8673 38.91 14.0514 38.6298 13.1656C38.2341 11.9139 37.3869 11.0165 36.1913 10.5043C35.0465 10.0134 34.2247 10.1585 33.4578 11.0938C33.0174 11.6312 32.6421 12.2303 32.2984 12.836C31.5874 14.0893 30.6552 15.1191 29.4062 15.8542C29.0203 16.0817 28.6083 16.2718 28.2447 16.5301C27.786 16.8557 27.3436 17.2111 26.9322 17.5944C26.5828 17.9199 26.4704 18.3684 26.4775 18.8426ZM32.0715 12.2091C31.6576 12.1732 31.2792 12.1414 30.9004 12.1075C30.4869 12.0706 30.1294 12.2025 29.8278 12.4755C29.5339 12.742 29.2669 13.0392 28.9638 13.2945C28.1186 14.0064 28.3164 14.9139 28.4426 15.8335C30.0811 15.0534 31.2752 13.8658 32.0715 12.2091ZM33.1532 20.5468C33.5667 20.5822 33.946 20.6121 34.3244 20.6474C34.6992 20.6828 35.0425 20.5908 35.313 20.337C35.7555 19.9215 36.1857 19.4917 36.5976 19.0468C36.7288 18.9048 36.857 18.6975 36.8636 18.5155C36.8829 17.9907 36.8402 17.4634 36.8204 16.9017C35.1376 17.7036 33.943 18.8906 33.1532 20.5468Z" fill="#007DC5"/>
<path d="M33.7243 13.0829C33.9552 13.0849 34.1459 13.2791 34.1398 13.5046C34.1337 13.7235 33.9252 13.9313 33.7136 13.9292C33.496 13.9272 33.3012 13.7235 33.3012 13.4975C33.3017 13.272 33.496 13.0809 33.7243 13.0829Z" fill="#007DC5"/>
<path d="M35.3969 15.593C35.1711 15.588 34.9703 15.3883 34.9728 15.1724C34.9753 14.9505 35.1747 14.7644 35.4076 14.7659C35.6436 14.7675 35.8277 14.9535 35.8221 15.1845C35.8165 15.4211 35.6314 15.5986 35.3969 15.593Z" fill="#007DC5"/>
<path d="M29.3854 19.1786C29.6122 19.1761 29.8024 19.3666 29.8029 19.5957C29.8034 19.8277 29.6153 20.0163 29.3874 20.0128C29.1657 20.0097 28.9674 19.8131 28.9638 19.5931C28.9603 19.3692 29.152 19.1811 29.3854 19.1786Z" fill="#007DC5"/>
<path d="M35.8195 12.7937C36.0357 12.7988 36.2106 12.9874 36.2025 13.2063C36.1933 13.454 36.0219 13.6284 35.7911 13.6254C35.5581 13.6218 35.3603 13.41 35.3735 13.178C35.3863 12.9469 35.5714 12.7877 35.8195 12.7937Z" fill="#007DC5"/>
<path d="M30.1991 17.6361C30.193 17.8641 29.9987 18.0441 29.7673 18.0355C29.5339 18.0269 29.3554 17.8378 29.363 17.6073C29.3706 17.3757 29.5598 17.1998 29.7938 17.2074C30.0226 17.215 30.2052 17.4081 30.1991 17.6361Z" fill="#007DC5"/>
<path d="M31.0448 19.2812C31.0494 19.0451 31.2324 18.8727 31.4715 18.8813C31.7028 18.8894 31.8854 19.081 31.8783 19.3075C31.8712 19.534 31.6744 19.7185 31.4481 19.7114C31.2192 19.7044 31.0402 19.5138 31.0448 19.2812Z" fill="#007DC5"/>
<path d="M26 18.425C26.2192 17.4033 26.9551 16.7935 27.7677 16.2501C27.906 16.1575 27.9584 16.0655 27.9421 15.9012C27.8999 15.4826 27.8709 15.0625 27.8425 14.6429C27.812 14.1858 27.9279 13.7581 28.2371 13.424C28.6938 12.93 29.1718 12.4523 29.6707 12.0008C30.1782 11.5423 30.8149 11.611 31.4353 11.6641C31.6713 11.6843 31.9083 11.701 32.1432 11.7303C32.2984 11.7495 32.3843 11.6853 32.4763 11.5635C32.7291 11.2273 32.9966 10.9012 33.2692 10.5802C33.6313 10.153 34.1276 9.94468 34.6453 9.77734C34.9336 9.77734 35.2215 9.77734 35.5098 9.77734C35.5312 9.78948 35.551 9.80768 35.5744 9.81324C37.2608 10.2096 38.3714 11.2607 39.0254 12.8244C39.1119 13.0306 39.1576 13.2536 39.2222 13.469C39.2222 13.7556 39.2222 14.0423 39.2222 14.3289C38.9954 15.3562 38.2534 15.9669 37.4413 16.5281C37.3579 16.5858 37.2892 16.7293 37.2913 16.8315C37.2984 17.1843 37.3304 17.5377 37.3701 17.8891C37.4342 18.4533 37.3279 18.9781 36.9404 19.3977C36.5066 19.8674 36.0453 20.3148 35.5688 20.7415C35.2296 21.0458 34.8019 21.1601 34.3407 21.1242C33.9354 21.0928 33.5295 21.0691 33.1253 21.0281C32.9442 21.0099 32.8369 21.065 32.7271 21.2157C32.4794 21.5554 32.2231 21.8947 31.9317 22.1965C31.1816 22.9735 30.2489 23.1859 29.2506 22.837C27.5933 22.2577 26.4806 21.1333 26.0509 19.4012C26.0371 19.3451 26.0168 19.29 26 19.2344C26 18.9644 26 18.695 26 18.425ZM26.4775 18.8426C26.4953 20.4331 28.1613 22.2577 29.781 22.4751C30.4661 22.5671 31.0468 22.3891 31.5472 21.9088C32.042 21.4336 32.3919 20.8618 32.7362 20.2789C33.0571 19.7349 33.3811 19.1879 33.7594 18.6838C34.4775 17.7263 35.46 17.0847 36.4939 16.5033C37.0212 16.2066 37.5232 15.8532 37.9936 15.4735C38.7447 14.8673 38.91 14.0514 38.6298 13.1656C38.2341 11.9139 37.3869 11.0165 36.1913 10.5043C35.0465 10.0134 34.2247 10.1585 33.4578 11.0938C33.0174 11.6312 32.6421 12.2303 32.2984 12.836C31.5874 14.0893 30.6552 15.1191 29.4062 15.8542C29.0203 16.0817 28.6083 16.2718 28.2447 16.5301C27.786 16.8557 27.3436 17.2111 26.9322 17.5944C26.5828 17.9199 26.4704 18.3684 26.4775 18.8426ZM32.0715 12.2091C31.6576 12.1732 31.2792 12.1414 30.9004 12.1075C30.4869 12.0706 30.1294 12.2025 29.8278 12.4755C29.5339 12.742 29.2669 13.0392 28.9638 13.2945C28.1186 14.0064 28.3164 14.9139 28.4426 15.8335C30.0811 15.0534 31.2752 13.8658 32.0715 12.2091ZM33.1532 20.5468C33.5667 20.5822 33.946 20.6121 34.3244 20.6474C34.6992 20.6828 35.0425 20.5908 35.313 20.337C35.7555 19.9215 36.1857 19.4917 36.5976 19.0468C36.7288 18.9048 36.857 18.6975 36.8636 18.5155C36.8829 17.9907 36.8402 17.4634 36.8204 16.9017C35.1376 17.7036 33.943 18.8906 33.1532 20.5468Z" stroke="#007DC5" stroke-width="0.3"/>
<path d="M33.7243 13.0829C33.9552 13.0849 34.1459 13.2791 34.1398 13.5046C34.1337 13.7235 33.9252 13.9313 33.7136 13.9292C33.496 13.9272 33.3012 13.7235 33.3012 13.4975C33.3017 13.272 33.496 13.0809 33.7243 13.0829Z" stroke="#007DC5" stroke-width="0.3"/>
<path d="M35.3969 15.593C35.1711 15.588 34.9703 15.3883 34.9728 15.1724C34.9753 14.9505 35.1747 14.7644 35.4076 14.7659C35.6436 14.7675 35.8277 14.9535 35.8221 15.1845C35.8165 15.4211 35.6314 15.5986 35.3969 15.593Z" stroke="#007DC5" stroke-width="0.3"/>
<path d="M29.3854 19.1786C29.6122 19.1761 29.8024 19.3666 29.8029 19.5957C29.8034 19.8277 29.6153 20.0163 29.3874 20.0128C29.1657 20.0097 28.9674 19.8131 28.9638 19.5931C28.9603 19.3692 29.152 19.1811 29.3854 19.1786Z" stroke="#007DC5" stroke-width="0.3"/>
<path d="M35.8195 12.7937C36.0357 12.7988 36.2106 12.9874 36.2025 13.2063C36.1933 13.454 36.0219 13.6284 35.7911 13.6254C35.5581 13.6218 35.3603 13.41 35.3735 13.178C35.3863 12.9469 35.5714 12.7877 35.8195 12.7937Z" stroke="#007DC5" stroke-width="0.3"/>
<path d="M30.1991 17.6361C30.193 17.8641 29.9987 18.0441 29.7673 18.0355C29.5339 18.0269 29.3554 17.8378 29.363 17.6073C29.3706 17.3757 29.5598 17.1998 29.7938 17.2074C30.0226 17.215 30.2052 17.4081 30.1991 17.6361Z" stroke="#007DC5" stroke-width="0.3"/>
<path d="M31.0448 19.2812C31.0494 19.0451 31.2324 18.8727 31.4715 18.8813C31.7028 18.8894 31.8854 19.081 31.8783 19.3075C31.8712 19.534 31.6744 19.7185 31.4481 19.7114C31.2192 19.7044 31.0402 19.5138 31.0448 19.2812Z" stroke="#007DC5" stroke-width="0.3"/>
</g>
</g>
<path d="M11.3506 42.1445H8.37207L7.70312 44H6.73633L9.45117 36.8906H10.2715L12.9912 44H12.0293L11.3506 42.1445ZM8.65527 41.373H11.0723L9.86133 38.0479L8.65527 41.373ZM17.9793 41.417C17.9793 42.2243 17.7937 42.8737 17.4227 43.3652C17.0516 43.8535 16.5535 44.0977 15.9285 44.0977C15.2612 44.0977 14.7452 43.8617 14.3807 43.3896L14.3367 44H13.5066V36.5H14.41V39.2979C14.7745 38.8454 15.2775 38.6191 15.9187 38.6191C16.56 38.6191 17.063 38.8617 17.4275 39.3467C17.7954 39.8317 17.9793 40.4958 17.9793 41.3389V41.417ZM17.076 41.3145C17.076 40.6992 16.9572 40.224 16.7195 39.8887C16.4819 39.5534 16.1401 39.3857 15.6941 39.3857C15.0984 39.3857 14.6704 39.6624 14.41 40.2158V42.501C14.6867 43.0544 15.118 43.3311 15.7039 43.3311C16.1368 43.3311 16.4738 43.1634 16.7146 42.8281C16.9555 42.4928 17.076 41.9883 17.076 41.3145ZM21.898 42.5986C21.898 42.3545 21.8053 42.1657 21.6197 42.0322C21.4374 41.8955 21.1168 41.7783 20.6578 41.6807C20.2021 41.583 19.8391 41.4658 19.5689 41.3291C19.302 41.1924 19.1035 41.0296 18.9732 40.8408C18.8463 40.652 18.7828 40.4274 18.7828 40.167C18.7828 39.734 18.9651 39.3678 19.3297 39.0684C19.6975 38.7689 20.1663 38.6191 20.7359 38.6191C21.3349 38.6191 21.8199 38.7738 22.191 39.083C22.5654 39.3923 22.7525 39.7878 22.7525 40.2695H21.8443C21.8443 40.0221 21.7385 39.8089 21.527 39.6299C21.3186 39.4508 21.0549 39.3613 20.7359 39.3613C20.4072 39.3613 20.15 39.4329 19.9645 39.5762C19.7789 39.7194 19.6861 39.9066 19.6861 40.1377C19.6861 40.3558 19.7724 40.5202 19.9449 40.6309C20.1174 40.7415 20.4283 40.8473 20.8775 40.9482C21.33 41.0492 21.6962 41.1696 21.9762 41.3096C22.2561 41.4495 22.4628 41.6188 22.5963 41.8174C22.733 42.0127 22.8014 42.252 22.8014 42.5352C22.8014 43.0072 22.6126 43.3864 22.235 43.6729C21.8574 43.9561 21.3674 44.0977 20.7652 44.0977C20.3421 44.0977 19.9677 44.0228 19.6422 43.873C19.3167 43.7233 19.0611 43.515 18.8756 43.248C18.6933 42.9779 18.6021 42.6865 18.6021 42.374H19.5055C19.5217 42.6768 19.6422 42.9176 19.8668 43.0967C20.0947 43.2725 20.3941 43.3604 20.7652 43.3604C21.107 43.3604 21.3805 43.292 21.5855 43.1553C21.7939 43.0153 21.898 42.8298 21.898 42.5986ZM23.4389 41.3096C23.4389 40.792 23.5398 40.3265 23.7416 39.9131C23.9467 39.4997 24.2299 39.1807 24.5912 38.9561C24.9558 38.7314 25.3708 38.6191 25.8363 38.6191C26.5557 38.6191 27.1368 38.8682 27.5795 39.3662C28.0255 39.8643 28.2484 40.5267 28.2484 41.3535V41.417C28.2484 41.9313 28.1492 42.3936 27.9506 42.8037C27.7553 43.2106 27.4737 43.528 27.1059 43.7559C26.7413 43.9837 26.3214 44.0977 25.8461 44.0977C25.1299 44.0977 24.5489 43.8486 24.1029 43.3506C23.6602 42.8525 23.4389 42.1934 23.4389 41.373V41.3096ZM24.3471 41.417C24.3471 42.0029 24.4822 42.4733 24.7523 42.8281C25.0258 43.1829 25.3904 43.3604 25.8461 43.3604C26.3051 43.3604 26.6697 43.1813 26.9398 42.8232C27.21 42.4619 27.3451 41.9574 27.3451 41.3096C27.3451 40.7301 27.2068 40.2614 26.9301 39.9033C26.6566 39.542 26.2921 39.3613 25.8363 39.3613C25.3904 39.3613 25.0307 39.5387 24.7572 39.8936C24.4838 40.2484 24.3471 40.7562 24.3471 41.417ZM31.635 39.5273C31.4982 39.5046 31.3501 39.4932 31.1906 39.4932C30.5982 39.4932 30.1962 39.7454 29.9846 40.25V44H29.0812V38.7168H29.9602L29.9748 39.3271C30.271 38.8551 30.6909 38.6191 31.2346 38.6191C31.4104 38.6191 31.5438 38.6419 31.635 38.6875V39.5273ZM34.001 42.7744L35.3096 38.7168H36.2324L34.3379 44H33.6494L31.7354 38.7168H32.6582L34.001 42.7744ZM38.9256 44.0977C38.2094 44.0977 37.6268 43.8633 37.1775 43.3945C36.7283 42.9225 36.5037 42.2926 36.5037 41.5049V41.3389C36.5037 40.8148 36.603 40.3477 36.8016 39.9375C37.0034 39.5241 37.2833 39.2018 37.6414 38.9707C38.0027 38.7363 38.3934 38.6191 38.8133 38.6191C39.5001 38.6191 40.034 38.8454 40.4148 39.2979C40.7957 39.7503 40.9861 40.3981 40.9861 41.2412V41.6172H37.407C37.4201 42.138 37.5714 42.5596 37.8611 42.8818C38.1541 43.2008 38.5252 43.3604 38.9744 43.3604C39.2934 43.3604 39.5636 43.2952 39.785 43.165C40.0063 43.0348 40.2 42.8623 40.366 42.6475L40.9178 43.0771C40.4751 43.7575 39.811 44.0977 38.9256 44.0977ZM38.8133 39.3613C38.4487 39.3613 38.1427 39.4948 37.8953 39.7617C37.6479 40.0254 37.4949 40.3965 37.4363 40.875H40.0828V40.8066C40.0568 40.3477 39.9331 39.9928 39.7117 39.7422C39.4904 39.4883 39.1909 39.3613 38.8133 39.3613ZM42.5904 38.7168L42.6197 39.3809C43.0234 38.873 43.5507 38.6191 44.2018 38.6191C45.3183 38.6191 45.8814 39.249 45.8912 40.5088V44H44.9879V40.5039C44.9846 40.123 44.8967 39.8415 44.7242 39.6592C44.5549 39.4769 44.2896 39.3857 43.9283 39.3857C43.6354 39.3857 43.3782 39.4639 43.1568 39.6201C42.9355 39.7764 42.763 39.9814 42.6393 40.2354V44H41.7359V38.7168H42.5904ZM48.1791 37.4375V38.7168H49.1654V39.415H48.1791V42.6914C48.1791 42.903 48.223 43.0625 48.3109 43.1699C48.3988 43.2741 48.5486 43.3262 48.7602 43.3262C48.8643 43.3262 49.0076 43.3066 49.1898 43.2676V44C48.9522 44.0651 48.7211 44.0977 48.4965 44.0977C48.0928 44.0977 47.7885 43.9756 47.5834 43.7314C47.3783 43.4873 47.2758 43.1406 47.2758 42.6914V39.415H46.3139V38.7168H47.2758V37.4375H48.1791ZM52.1174 44.0977C51.4012 44.0977 50.8186 43.8633 50.3693 43.3945C49.9201 42.9225 49.6955 42.2926 49.6955 41.5049V41.3389C49.6955 40.8148 49.7948 40.3477 49.9934 39.9375C50.1952 39.5241 50.4751 39.2018 50.8332 38.9707C51.1945 38.7363 51.5852 38.6191 52.0051 38.6191C52.6919 38.6191 53.2258 38.8454 53.6066 39.2979C53.9875 39.7503 54.1779 40.3981 54.1779 41.2412V41.6172H50.5988C50.6118 42.138 50.7632 42.5596 51.0529 42.8818C51.3459 43.2008 51.717 43.3604 52.1662 43.3604C52.4852 43.3604 52.7554 43.2952 52.9768 43.165C53.1981 43.0348 53.3918 42.8623 53.5578 42.6475L54.1096 43.0771C53.6669 43.7575 53.0028 44.0977 52.1174 44.0977ZM52.0051 39.3613C51.6405 39.3613 51.3345 39.4948 51.0871 39.7617C50.8397 40.0254 50.6867 40.3965 50.6281 40.875H53.2746V40.8066C53.2486 40.3477 53.1249 39.9928 52.9035 39.7422C52.6822 39.4883 52.3827 39.3613 52.0051 39.3613ZM58.0039 42.5986C58.0039 42.3545 57.9111 42.1657 57.7256 42.0322C57.5433 41.8955 57.2227 41.7783 56.7637 41.6807C56.3079 41.583 55.945 41.4658 55.6748 41.3291C55.4079 41.1924 55.2093 41.0296 55.0791 40.8408C54.9521 40.652 54.8887 40.4274 54.8887 40.167C54.8887 39.734 55.071 39.3678 55.4355 39.0684C55.8034 38.7689 56.2721 38.6191 56.8418 38.6191C57.4408 38.6191 57.9258 38.7738 58.2969 39.083C58.6712 39.3923 58.8584 39.7878 58.8584 40.2695H57.9502C57.9502 40.0221 57.8444 39.8089 57.6328 39.6299C57.4245 39.4508 57.1608 39.3613 56.8418 39.3613C56.513 39.3613 56.2559 39.4329 56.0703 39.5762C55.8848 39.7194 55.792 39.9066 55.792 40.1377C55.792 40.3558 55.8783 40.5202 56.0508 40.6309C56.2233 40.7415 56.5342 40.8473 56.9834 40.9482C57.4359 41.0492 57.8021 41.1696 58.082 41.3096C58.362 41.4495 58.5687 41.6188 58.7021 41.8174C58.8389 42.0127 58.9072 42.252 58.9072 42.5352C58.9072 43.0072 58.7184 43.3864 58.3408 43.6729C57.9632 43.9561 57.4733 44.0977 56.8711 44.0977C56.4479 44.0977 56.0736 44.0228 55.748 43.873C55.4225 43.7233 55.167 43.515 54.9814 43.248C54.7992 42.9779 54.708 42.6865 54.708 42.374H55.6113C55.6276 42.6768 55.748 42.9176 55.9727 43.0967C56.2005 43.2725 56.5 43.3604 56.8711 43.3604C57.2129 43.3604 57.4863 43.292 57.6914 43.1553C57.8997 43.0153 58.0039 42.8298 58.0039 42.5986Z" fill="#666666"/>
<defs>
<filter id="filter0_d_7838:59931" x="0" y="0" width="66" height="34" filterUnits="userSpaceOnUse" color-interpolation-filters="sRGB">
<feFlood flood-opacity="0" result="BackgroundImageFix"/>
<feColorMatrix in="SourceAlpha" type="matrix" values="0 0 0 0 0 0 0 0 0 0 0 0 0 0 0 0 0 0 127 0" result="hardAlpha"/>
<feOffset dy="1"/>
<feGaussianBlur stdDeviation="1"/>
<feColorMatrix type="matrix" values="0 0 0 0 0 0 0 0 0 0 0 0 0 0 0 0 0 0 0.2 0"/>
<feBlend mode="normal" in2="BackgroundImageFix" result="effect1_dropShadow_7838:59931"/>
<feBlend mode="normal" in="SourceGraphic" in2="effect1_dropShadow_7838:59931" result="shape"/>
</filter>
<clipPath id="clip0_7838:59931">
<rect width="14" height="14" fill="white" transform="translate(26 9)"/>
</clipPath>
</defs>
</svg>
