<svg width="66" height="61" viewBox="0 0 66 61" fill="none" xmlns="http://www.w3.org/2000/svg">
<g filter="url(#filter0_d_7838:59987)">
<rect x="2" y="1" width="62" height="30" rx="8" fill="#E7F3F9"/>
<path fill-rule="evenodd" clip-rule="evenodd" d="M39.5625 21.6875C39.5625 22.1707 39.1707 22.5625 38.6875 22.5625C38.2043 22.5625 37.8125 22.1707 37.8125 21.6875V9.4375C38.779 9.4375 39.5625 10.221 39.5625 11.1875V21.6875Z" stroke="#007DC5" stroke-linecap="round" stroke-linejoin="round"/>
<path d="M34.75 9.4375H37.8125" stroke="#007DC5" stroke-linecap="round" stroke-linejoin="round"/>
<path d="M34.75 18.1875H37.8125" stroke="#007DC5" stroke-linecap="round" stroke-linejoin="round"/>
<path d="M34.75 11.1875H36.0625" stroke="#007DC5" stroke-linecap="round" stroke-linejoin="round"/>
<path d="M34.75 12.9375H36.0625" stroke="#007DC5" stroke-linecap="round" stroke-linejoin="round"/>
<path d="M34.75 14.6875H36.0625" stroke="#007DC5" stroke-linecap="round" stroke-linejoin="round"/>
<path d="M34.75 16.4375H36.0625" stroke="#007DC5" stroke-linecap="round" stroke-linejoin="round"/>
<circle cx="27.75" cy="20.375" r="1.3125" stroke="#007DC5" stroke-linecap="round" stroke-linejoin="round"/>
<circle cx="32.125" cy="20.375" r="1.3125" stroke="#007DC5" stroke-linecap="round" stroke-linejoin="round"/>
<path d="M33.4376 22.5625C32.8811 22.5627 32.3849 22.2121 32.1992 21.6875" stroke="#007DC5" stroke-linecap="round" stroke-linejoin="round"/>
<path d="M29.0625 20.375V15.5625L29.9375 9.4375L30.8125 15.5625V20.375" stroke="#007DC5" stroke-linecap="round" stroke-linejoin="round"/>
<path d="M29.0625 17.3125L30.8125 16.4375" stroke="#007DC5" stroke-linecap="round" stroke-linejoin="round"/>
</g>
<path d="M14.223 42.1445H11.2445L10.5756 44H9.60879L12.3236 36.8906H13.1439L15.8637 44H14.9018L14.223 42.1445ZM11.5277 41.373H13.9447L12.7338 38.0479L11.5277 41.373ZM18.4982 43.3604C18.8205 43.3604 19.1021 43.2627 19.343 43.0674C19.5839 42.8721 19.7173 42.6279 19.7434 42.335H20.5979C20.5816 42.6377 20.4774 42.9258 20.2854 43.1992C20.0933 43.4727 19.8361 43.6908 19.5139 43.8535C19.1949 44.0163 18.8563 44.0977 18.4982 44.0977C17.7788 44.0977 17.2059 43.8584 16.7795 43.3799C16.3563 42.8981 16.1447 42.2406 16.1447 41.4072V41.2559C16.1447 40.7415 16.2391 40.2842 16.4279 39.8838C16.6167 39.4834 16.8869 39.1725 17.2385 38.9512C17.5933 38.7298 18.0116 38.6191 18.4934 38.6191C19.0858 38.6191 19.5773 38.7965 19.968 39.1514C20.3618 39.5062 20.5718 39.9668 20.5979 40.5332H19.7434C19.7173 40.1914 19.5871 39.9115 19.3527 39.6934C19.1216 39.472 18.8352 39.3613 18.4934 39.3613C18.0344 39.3613 17.6779 39.5273 17.424 39.8594C17.1734 40.1882 17.048 40.665 17.048 41.29V41.4609C17.048 42.0697 17.1734 42.5384 17.424 42.8672C17.6747 43.196 18.0327 43.3604 18.4982 43.3604ZM23.5059 44.0977C22.7897 44.0977 22.207 43.8633 21.7578 43.3945C21.3086 42.9225 21.084 42.2926 21.084 41.5049V41.3389C21.084 40.8148 21.1833 40.3477 21.3818 39.9375C21.5837 39.5241 21.8636 39.2018 22.2217 38.9707C22.583 38.7363 22.9736 38.6191 23.3936 38.6191C24.0804 38.6191 24.6143 38.8454 24.9951 39.2979C25.376 39.7503 25.5664 40.3981 25.5664 41.2412V41.6172H21.9873C22.0003 42.138 22.1517 42.5596 22.4414 42.8818C22.7344 43.2008 23.1055 43.3604 23.5547 43.3604C23.8737 43.3604 24.1439 43.2952 24.3652 43.165C24.5866 43.0348 24.7803 42.8623 24.9463 42.6475L25.498 43.0771C25.0553 43.7575 24.3913 44.0977 23.5059 44.0977ZM23.3936 39.3613C23.029 39.3613 22.723 39.4948 22.4756 39.7617C22.2282 40.0254 22.0752 40.3965 22.0166 40.875H24.6631V40.8066C24.637 40.3477 24.5133 39.9928 24.292 39.7422C24.0706 39.4883 23.7712 39.3613 23.3936 39.3613ZM29.3924 42.5986C29.3924 42.3545 29.2996 42.1657 29.1141 42.0322C28.9318 41.8955 28.6111 41.7783 28.1521 41.6807C27.6964 41.583 27.3335 41.4658 27.0633 41.3291C26.7964 41.1924 26.5978 41.0296 26.4676 40.8408C26.3406 40.652 26.2771 40.4274 26.2771 40.167C26.2771 39.734 26.4594 39.3678 26.824 39.0684C27.1919 38.7689 27.6606 38.6191 28.2303 38.6191C28.8292 38.6191 29.3143 38.7738 29.6854 39.083C30.0597 39.3923 30.2469 39.7878 30.2469 40.2695H29.3387C29.3387 40.0221 29.2329 39.8089 29.0213 39.6299C28.813 39.4508 28.5493 39.3613 28.2303 39.3613C27.9015 39.3613 27.6443 39.4329 27.4588 39.5762C27.2732 39.7194 27.1805 39.9066 27.1805 40.1377C27.1805 40.3558 27.2667 40.5202 27.4393 40.6309C27.6118 40.7415 27.9227 40.8473 28.3719 40.9482C28.8243 41.0492 29.1906 41.1696 29.4705 41.3096C29.7505 41.4495 29.9572 41.6188 30.0906 41.8174C30.2273 42.0127 30.2957 42.252 30.2957 42.5352C30.2957 43.0072 30.1069 43.3864 29.7293 43.6729C29.3517 43.9561 28.8618 44.0977 28.2596 44.0977C27.8364 44.0977 27.462 44.0228 27.1365 43.873C26.811 43.7233 26.5555 43.515 26.3699 43.248C26.1876 42.9779 26.0965 42.6865 26.0965 42.374H26.9998C27.0161 42.6768 27.1365 42.9176 27.3611 43.0967C27.589 43.2725 27.8885 43.3604 28.2596 43.3604C28.6014 43.3604 28.8748 43.292 29.0799 43.1553C29.2882 43.0153 29.3924 42.8298 29.3924 42.5986ZM34.2486 42.5986C34.2486 42.3545 34.1559 42.1657 33.9703 42.0322C33.788 41.8955 33.4674 41.7783 33.0084 41.6807C32.5527 41.583 32.1897 41.4658 31.9195 41.3291C31.6526 41.1924 31.454 41.0296 31.3238 40.8408C31.1969 40.652 31.1334 40.4274 31.1334 40.167C31.1334 39.734 31.3157 39.3678 31.6803 39.0684C32.0481 38.7689 32.5169 38.6191 33.0865 38.6191C33.6855 38.6191 34.1705 38.7738 34.5416 39.083C34.916 39.3923 35.1031 39.7878 35.1031 40.2695H34.1949C34.1949 40.0221 34.0891 39.8089 33.8775 39.6299C33.6692 39.4508 33.4055 39.3613 33.0865 39.3613C32.7577 39.3613 32.5006 39.4329 32.315 39.5762C32.1295 39.7194 32.0367 39.9066 32.0367 40.1377C32.0367 40.3558 32.123 40.5202 32.2955 40.6309C32.468 40.7415 32.7789 40.8473 33.2281 40.9482C33.6806 41.0492 34.0468 41.1696 34.3268 41.3096C34.6067 41.4495 34.8134 41.6188 34.9469 41.8174C35.0836 42.0127 35.152 42.252 35.152 42.5352C35.152 43.0072 34.9632 43.3864 34.5855 43.6729C34.2079 43.9561 33.718 44.0977 33.1158 44.0977C32.6926 44.0977 32.3183 44.0228 31.9928 43.873C31.6673 43.7233 31.4117 43.515 31.2262 43.248C31.0439 42.9779 30.9527 42.6865 30.9527 42.374H31.8561C31.8723 42.6768 31.9928 42.9176 32.2174 43.0967C32.4452 43.2725 32.7447 43.3604 33.1158 43.3604C33.4576 43.3604 33.7311 43.292 33.9361 43.1553C34.1445 43.0153 34.2486 42.8298 34.2486 42.5986ZM35.7895 41.3096C35.7895 40.792 35.8904 40.3265 36.0922 39.9131C36.2973 39.4997 36.5805 39.1807 36.9418 38.9561C37.3064 38.7314 37.7214 38.6191 38.1869 38.6191C38.9063 38.6191 39.4874 38.8682 39.9301 39.3662C40.376 39.8643 40.599 40.5267 40.599 41.3535V41.417C40.599 41.9313 40.4997 42.3936 40.3012 42.8037C40.1059 43.2106 39.8243 43.528 39.4564 43.7559C39.0919 43.9837 38.6719 44.0977 38.1967 44.0977C37.4805 44.0977 36.8995 43.8486 36.4535 43.3506C36.0108 42.8525 35.7895 42.1934 35.7895 41.373V41.3096ZM36.6977 41.417C36.6977 42.0029 36.8327 42.4733 37.1029 42.8281C37.3764 43.1829 37.7409 43.3604 38.1967 43.3604C38.6557 43.3604 39.0202 43.1813 39.2904 42.8232C39.5606 42.4619 39.6957 41.9574 39.6957 41.3096C39.6957 40.7301 39.5574 40.2614 39.2807 39.9033C39.0072 39.542 38.6426 39.3613 38.1869 39.3613C37.7409 39.3613 37.3812 39.5387 37.1078 39.8936C36.8344 40.2484 36.6977 40.7562 36.6977 41.417ZM38.5971 36.5H39.6908L38.3822 37.9355H37.6547L38.5971 36.5ZM43.9855 39.5273C43.8488 39.5046 43.7007 39.4932 43.5412 39.4932C42.9488 39.4932 42.5467 39.7454 42.3352 40.25V44H41.4318V38.7168H42.3107L42.3254 39.3271C42.6216 38.8551 43.0415 38.6191 43.5852 38.6191C43.7609 38.6191 43.8944 38.6419 43.9855 38.6875V39.5273ZM45.502 44H44.5986V38.7168H45.502V44ZM44.5254 37.3154C44.5254 37.1689 44.5693 37.0452 44.6572 36.9443C44.7484 36.8434 44.8818 36.793 45.0576 36.793C45.2334 36.793 45.3669 36.8434 45.458 36.9443C45.5492 37.0452 45.5947 37.1689 45.5947 37.3154C45.5947 37.4619 45.5492 37.584 45.458 37.6816C45.3669 37.7793 45.2334 37.8281 45.0576 37.8281C44.8818 37.8281 44.7484 37.7793 44.6572 37.6816C44.5693 37.584 44.5254 37.4619 44.5254 37.3154ZM46.4129 41.3096C46.4129 40.792 46.5138 40.3265 46.7156 39.9131C46.9207 39.4997 47.2039 39.1807 47.5652 38.9561C47.9298 38.7314 48.3449 38.6191 48.8103 38.6191C49.5297 38.6191 50.1108 38.8682 50.5535 39.3662C50.9995 39.8643 51.2225 40.5267 51.2225 41.3535V41.417C51.2225 41.9313 51.1232 42.3936 50.9246 42.8037C50.7293 43.2106 50.4477 43.528 50.0799 43.7559C49.7153 43.9837 49.2954 44.0977 48.8201 44.0977C48.104 44.0977 47.5229 43.8486 47.077 43.3506C46.6342 42.8525 46.4129 42.1934 46.4129 41.373V41.3096ZM47.3211 41.417C47.3211 42.0029 47.4562 42.4733 47.7264 42.8281C47.9998 43.1829 48.3644 43.3604 48.8201 43.3604C49.2791 43.3604 49.6437 43.1813 49.9139 42.8232C50.184 42.4619 50.3191 41.9574 50.3191 41.3096C50.3191 40.7301 50.1808 40.2614 49.9041 39.9033C49.6307 39.542 49.2661 39.3613 48.8103 39.3613C48.3644 39.3613 48.0047 39.5387 47.7312 39.8936C47.4578 40.2484 47.3211 40.7562 47.3211 41.417ZM55.1314 42.5986C55.1314 42.3545 55.0387 42.1657 54.8531 42.0322C54.6708 41.8955 54.3502 41.7783 53.8912 41.6807C53.4355 41.583 53.0725 41.4658 52.8023 41.3291C52.5354 41.1924 52.3369 41.0296 52.2066 40.8408C52.0797 40.652 52.0162 40.4274 52.0162 40.167C52.0162 39.734 52.1985 39.3678 52.5631 39.0684C52.9309 38.7689 53.3997 38.6191 53.9693 38.6191C54.5683 38.6191 55.0533 38.7738 55.4244 39.083C55.7988 39.3923 55.9859 39.7878 55.9859 40.2695H55.0777C55.0777 40.0221 54.9719 39.8089 54.7604 39.6299C54.552 39.4508 54.2883 39.3613 53.9693 39.3613C53.6406 39.3613 53.3834 39.4329 53.1979 39.5762C53.0123 39.7194 52.9195 39.9066 52.9195 40.1377C52.9195 40.3558 53.0058 40.5202 53.1783 40.6309C53.3508 40.7415 53.6617 40.8473 54.1109 40.9482C54.5634 41.0492 54.9296 41.1696 55.2096 41.3096C55.4895 41.4495 55.6962 41.6188 55.8297 41.8174C55.9664 42.0127 56.0348 42.252 56.0348 42.5352C56.0348 43.0072 55.846 43.3864 55.4684 43.6729C55.0908 43.9561 54.6008 44.0977 53.9986 44.0977C53.5755 44.0977 53.2011 44.0228 52.8756 43.873C52.5501 43.7233 52.2945 43.515 52.109 43.248C51.9267 42.9779 51.8355 42.6865 51.8355 42.374H52.7389C52.7551 42.6768 52.8756 42.9176 53.1002 43.0967C53.3281 43.2725 53.6275 43.3604 53.9986 43.3604C54.3404 43.3604 54.6139 43.292 54.8189 43.1553C55.0273 43.0153 55.1314 42.8298 55.1314 42.5986Z" fill="#666666"/>
<defs>
<filter id="filter0_d_7838:59987" x="0" y="0" width="66" height="34" filterUnits="userSpaceOnUse" color-interpolation-filters="sRGB">
<feFlood flood-opacity="0" result="BackgroundImageFix"/>
<feColorMatrix in="SourceAlpha" type="matrix" values="0 0 0 0 0 0 0 0 0 0 0 0 0 0 0 0 0 0 127 0" result="hardAlpha"/>
<feOffset dy="1"/>
<feGaussianBlur stdDeviation="1"/>
<feColorMatrix type="matrix" values="0 0 0 0 0 0 0 0 0 0 0 0 0 0 0 0 0 0 0.2 0"/>
<feBlend mode="normal" in2="BackgroundImageFix" result="effect1_dropShadow_7838:59987"/>
<feBlend mode="normal" in="SourceGraphic" in2="effect1_dropShadow_7838:59987" result="shape"/>
</filter>
</defs>
</svg>
