<svg width="70" height="65" viewBox="0 0 70 65" fill="none" xmlns="http://www.w3.org/2000/svg">
<g filter="url(#filter0_d_7838:60087)">
<rect x="2" y="1" width="66" height="34" rx="8" fill="#E7F3F9"/>
<path d="M40.3624 26.4375V21.7388C42.4833 19.7739 43.1835 16.7102 42.1268 14.0191C41.0701 11.3279 38.4723 9.55925 35.5811 9.5625C30.2269 9.5625 29.0741 13.971 27.1624 18.9225C27.096 19.0955 27.119 19.2902 27.2238 19.443C27.3287 19.5958 27.502 19.6872 27.6874 19.6875H29.1124V21.9375C29.1124 23.1801 30.1197 24.1875 31.3624 24.1875H32.4874V26.4375" stroke="#007DC5" stroke-linecap="round" stroke-linejoin="round"/>
<path d="M32.4883 19.9688C32.6436 19.9688 32.7695 20.0947 32.7695 20.25" stroke="#007DC5" stroke-linecap="round" stroke-linejoin="round"/>
<path d="M32.207 20.25C32.207 20.0947 32.333 19.9688 32.4883 19.9688" stroke="#007DC5" stroke-linecap="round" stroke-linejoin="round"/>
<path d="M32.4883 20.5312C32.333 20.5312 32.207 20.4053 32.207 20.25" stroke="#007DC5" stroke-linecap="round" stroke-linejoin="round"/>
<path d="M32.7695 20.25C32.7695 20.4053 32.6436 20.5312 32.4883 20.5312" stroke="#007DC5" stroke-linecap="round" stroke-linejoin="round"/>
<path d="M34.7383 17.1562C34.8936 17.1562 35.0195 17.2822 35.0195 17.4375" stroke="#007DC5" stroke-linecap="round" stroke-linejoin="round"/>
<path d="M34.457 17.4375C34.457 17.2822 34.583 17.1562 34.7383 17.1562" stroke="#007DC5" stroke-linecap="round" stroke-linejoin="round"/>
<path d="M34.7383 17.7188C34.583 17.7188 34.457 17.5928 34.457 17.4375" stroke="#007DC5" stroke-linecap="round" stroke-linejoin="round"/>
<path d="M35.0195 17.4375C35.0195 17.5928 34.8936 17.7188 34.7383 17.7188" stroke="#007DC5" stroke-linecap="round" stroke-linejoin="round"/>
<path d="M36.4238 19.9688C36.5792 19.9688 36.7051 20.0947 36.7051 20.25" stroke="#007DC5" stroke-linecap="round" stroke-linejoin="round"/>
<path d="M36.1445 20.25C36.1445 20.0947 36.2705 19.9688 36.4258 19.9688" stroke="#007DC5" stroke-linecap="round" stroke-linejoin="round"/>
<path d="M36.425 20.5312C36.27 20.5308 36.1445 20.405 36.1445 20.25" stroke="#007DC5" stroke-linecap="round" stroke-linejoin="round"/>
<path d="M36.707 20.25C36.707 20.4053 36.5811 20.5312 36.4258 20.5312" stroke="#007DC5" stroke-linecap="round" stroke-linejoin="round"/>
</g>
<path d="M22.7053 46.1445H19.7268L19.0578 48H18.091L20.8059 40.8906H21.6262L24.3459 48H23.384L22.7053 46.1445ZM20.01 45.373H22.427L21.216 42.0479L20.01 45.373ZM25.8428 48H24.9395V40.5H25.8428V48ZM29.1854 48.0977C28.4692 48.0977 27.8865 47.8633 27.4373 47.3945C26.9881 46.9225 26.7635 46.2926 26.7635 45.5049V45.3389C26.7635 44.8148 26.8628 44.3477 27.0613 43.9375C27.2631 43.5241 27.5431 43.2018 27.9012 42.9707C28.2625 42.7363 28.6531 42.6191 29.073 42.6191C29.7599 42.6191 30.2937 42.8454 30.6746 43.2979C31.0555 43.7503 31.2459 44.3981 31.2459 45.2412V45.6172H27.6668C27.6798 46.138 27.8312 46.5596 28.1209 46.8818C28.4139 47.2008 28.785 47.3604 29.2342 47.3604C29.5532 47.3604 29.8234 47.2952 30.0447 47.165C30.2661 47.0348 30.4598 46.8623 30.6258 46.6475L31.1775 47.0771C30.7348 47.7575 30.0708 48.0977 29.1854 48.0977ZM29.073 43.3613C28.7085 43.3613 28.4025 43.4948 28.1551 43.7617C27.9077 44.0254 27.7547 44.3965 27.6961 44.875H30.3426V44.8066C30.3165 44.3477 30.1928 43.9928 29.9715 43.7422C29.7501 43.4883 29.4506 43.3613 29.073 43.3613ZM34.5494 43.5273C34.4127 43.5046 34.2646 43.4932 34.1051 43.4932C33.5126 43.4932 33.1106 43.7454 32.899 44.25V48H31.9957V42.7168H32.8746L32.8893 43.3271C33.1855 42.8551 33.6054 42.6191 34.149 42.6191C34.3248 42.6191 34.4583 42.6419 34.5494 42.6875V43.5273ZM34.7719 45.3145C34.7719 44.4909 34.9623 43.8366 35.3432 43.3516C35.724 42.8633 36.2286 42.6191 36.8568 42.6191C37.5014 42.6191 38.0043 42.847 38.3656 43.3027L38.4096 42.7168H39.2348V47.873C39.2348 48.5566 39.0313 49.0954 38.6244 49.4893C38.2208 49.8831 37.6771 50.0801 36.9936 50.0801C36.6127 50.0801 36.24 49.9987 35.8754 49.8359C35.5108 49.6732 35.2325 49.4502 35.0404 49.167L35.5092 48.625C35.8965 49.1035 36.3702 49.3428 36.9301 49.3428C37.3695 49.3428 37.7113 49.2191 37.9555 48.9717C38.2029 48.7243 38.3266 48.376 38.3266 47.9268V47.4727C37.9652 47.8893 37.4721 48.0977 36.8471 48.0977C36.2286 48.0977 35.7273 47.8486 35.3432 47.3506C34.9623 46.8525 34.7719 46.1738 34.7719 45.3145ZM35.6801 45.417C35.6801 46.0127 35.8021 46.4814 36.0463 46.8232C36.2904 47.1618 36.6322 47.3311 37.0717 47.3311C37.6413 47.3311 38.0596 47.0723 38.3266 46.5547V44.1426C38.0499 43.638 37.6348 43.3857 37.0814 43.3857C36.642 43.3857 36.2986 43.5566 36.0512 43.8984C35.8038 44.2402 35.6801 44.7464 35.6801 45.417ZM41.2834 48H40.3801V42.7168H41.2834V48ZM40.3068 41.3154C40.3068 41.1689 40.3508 41.0452 40.4387 40.9443C40.5298 40.8434 40.6633 40.793 40.8391 40.793C41.0148 40.793 41.1483 40.8434 41.2395 40.9443C41.3306 41.0452 41.3762 41.1689 41.3762 41.3154C41.3762 41.4619 41.3306 41.584 41.2395 41.6816C41.1483 41.7793 41.0148 41.8281 40.8391 41.8281C40.6633 41.8281 40.5298 41.7793 40.4387 41.6816C40.3508 41.584 40.3068 41.4619 40.3068 41.3154ZM45.6953 48C45.6432 47.8958 45.6009 47.7103 45.5684 47.4434C45.1484 47.8796 44.6471 48.0977 44.0645 48.0977C43.5436 48.0977 43.1156 47.9512 42.7803 47.6582C42.4482 47.362 42.2822 46.9876 42.2822 46.5352C42.2822 45.985 42.4906 45.5586 42.9072 45.2559C43.3271 44.9499 43.9163 44.7969 44.6748 44.7969H45.5537V44.3818C45.5537 44.0661 45.4593 43.8154 45.2705 43.6299C45.0817 43.4411 44.8034 43.3467 44.4355 43.3467C44.1133 43.3467 43.8431 43.4281 43.625 43.5908C43.4069 43.7536 43.2979 43.9505 43.2979 44.1816H42.3896C42.3896 43.918 42.4824 43.6641 42.668 43.4199C42.8568 43.1725 43.1107 42.9772 43.4297 42.834C43.752 42.6908 44.1051 42.6191 44.4893 42.6191C45.098 42.6191 45.5749 42.7721 45.9199 43.0781C46.265 43.3809 46.444 43.7992 46.457 44.333V46.7646C46.457 47.2497 46.5189 47.6354 46.6426 47.9219V48H45.6953ZM44.1963 47.3115C44.4795 47.3115 44.748 47.2383 45.002 47.0918C45.2559 46.9453 45.4398 46.7549 45.5537 46.5205V45.4365H44.8457C43.7389 45.4365 43.1855 45.7604 43.1855 46.4082C43.1855 46.6914 43.2799 46.9128 43.4688 47.0723C43.6576 47.2318 43.9001 47.3115 44.1963 47.3115ZM50.6492 46.5986C50.6492 46.3545 50.5564 46.1657 50.3709 46.0322C50.1886 45.8955 49.868 45.7783 49.409 45.6807C48.9533 45.583 48.5903 45.4658 48.3201 45.3291C48.0532 45.1924 47.8546 45.0296 47.7244 44.8408C47.5975 44.652 47.534 44.4274 47.534 44.167C47.534 43.734 47.7163 43.3678 48.0809 43.0684C48.4487 42.7689 48.9174 42.6191 49.4871 42.6191C50.0861 42.6191 50.5711 42.7738 50.9422 43.083C51.3165 43.3923 51.5037 43.7878 51.5037 44.2695H50.5955C50.5955 44.0221 50.4897 43.8089 50.2781 43.6299C50.0698 43.4508 49.8061 43.3613 49.4871 43.3613C49.1583 43.3613 48.9012 43.4329 48.7156 43.5762C48.5301 43.7194 48.4373 43.9066 48.4373 44.1377C48.4373 44.3558 48.5236 44.5202 48.6961 44.6309C48.8686 44.7415 49.1795 44.8473 49.6287 44.9482C50.0812 45.0492 50.4474 45.1696 50.7273 45.3096C51.0073 45.4495 51.214 45.6188 51.3475 45.8174C51.4842 46.0127 51.5525 46.252 51.5525 46.5352C51.5525 47.0072 51.3637 47.3864 50.9861 47.6729C50.6085 47.9561 50.1186 48.0977 49.5164 48.0977C49.0932 48.0977 48.7189 48.0228 48.3934 47.873C48.0678 47.7233 47.8123 47.515 47.6268 47.248C47.4445 46.9779 47.3533 46.6865 47.3533 46.374H48.2566C48.2729 46.6768 48.3934 46.9176 48.618 47.0967C48.8458 47.2725 49.1453 47.3604 49.5164 47.3604C49.8582 47.3604 50.1316 47.292 50.3367 47.1553C50.545 47.0153 50.6492 46.8298 50.6492 46.5986Z" fill="#666666"/>
<defs>
<filter id="filter0_d_7838:60087" x="0" y="0" width="70" height="38" filterUnits="userSpaceOnUse" color-interpolation-filters="sRGB">
<feFlood flood-opacity="0" result="BackgroundImageFix"/>
<feColorMatrix in="SourceAlpha" type="matrix" values="0 0 0 0 0 0 0 0 0 0 0 0 0 0 0 0 0 0 127 0" result="hardAlpha"/>
<feOffset dy="1"/>
<feGaussianBlur stdDeviation="1"/>
<feColorMatrix type="matrix" values="0 0 0 0 0 0 0 0 0 0 0 0 0 0 0 0 0 0 0.2 0"/>
<feBlend mode="normal" in2="BackgroundImageFix" result="effect1_dropShadow_7838:60087"/>
<feBlend mode="normal" in="SourceGraphic" in2="effect1_dropShadow_7838:60087" result="shape"/>
</filter>
</defs>
</svg>
