<svg width="66" height="61" viewBox="0 0 66 61" fill="none" xmlns="http://www.w3.org/2000/svg">
<g filter="url(#filter0_d_7838:60025)">
<rect x="2" y="1" width="62" height="30" rx="8" fill="#E7F3F9"/>
<path fill-rule="evenodd" clip-rule="evenodd" d="M26.7004 19.4692C26.5182 19.6514 26.4224 19.9026 26.437 20.1598C26.4516 20.417 26.5752 20.6558 26.7768 20.8161C29.9102 23.3334 34.4299 23.1146 37.3054 20.3063C40.1123 17.4311 40.3311 12.913 37.8152 9.78006C37.6552 9.57814 37.4166 9.45408 37.1594 9.43904C36.9022 9.42401 36.6508 9.51941 36.4683 9.70131L26.7004 19.4692Z" stroke="#007DC5" stroke-linecap="round" stroke-linejoin="round"/>
<path d="M27.2246 18.9471C29.6136 21.4034 33.5412 21.4587 35.9985 19.0708C38.3863 16.6133 38.3307 12.6857 35.8743 10.2969" stroke="#007DC5" stroke-linecap="round" stroke-linejoin="round"/>
<path d="M34.752 14.6875H35.6258" stroke="#007DC5" stroke-linecap="round" stroke-linejoin="round"/>
<path d="M33.4375 16.4375L34.3125 17.3125" stroke="#007DC5" stroke-linecap="round" stroke-linejoin="round"/>
<path d="M31.6875 17.75V18.6238" stroke="#007DC5" stroke-linecap="round" stroke-linejoin="round"/>
</g>
<path d="M13.0045 42.1445H10.026L9.35703 44H8.39023L11.1051 36.8906H11.9254L14.6451 44H13.6832L13.0045 42.1445ZM10.3092 41.373H12.7262L11.5152 38.0479L10.3092 41.373ZM16.142 44H15.2387V36.5H16.142V44ZM18.2736 44H17.3703V38.7168H18.2736V44ZM17.2971 37.3154C17.2971 37.1689 17.341 37.0452 17.4289 36.9443C17.5201 36.8434 17.6535 36.793 17.8293 36.793C18.0051 36.793 18.1385 36.8434 18.2297 36.9443C18.3208 37.0452 18.3664 37.1689 18.3664 37.3154C18.3664 37.4619 18.3208 37.584 18.2297 37.6816C18.1385 37.7793 18.0051 37.8281 17.8293 37.8281C17.6535 37.8281 17.5201 37.7793 17.4289 37.6816C17.341 37.584 17.2971 37.4619 17.2971 37.3154ZM20.2734 38.7168L20.2979 39.3027C20.6852 38.847 21.2077 38.6191 21.8652 38.6191C22.6042 38.6191 23.1071 38.9023 23.374 39.4688C23.5498 39.2148 23.7777 39.0098 24.0576 38.8535C24.3408 38.6973 24.6745 38.6191 25.0586 38.6191C26.2174 38.6191 26.8066 39.2327 26.8262 40.46V44H25.9229V40.5137C25.9229 40.1361 25.8366 39.8545 25.6641 39.6689C25.4915 39.4801 25.2018 39.3857 24.7949 39.3857C24.4596 39.3857 24.1813 39.4867 23.96 39.6885C23.7386 39.887 23.61 40.1556 23.5742 40.4941V44H22.666V40.5381C22.666 39.7699 22.29 39.3857 21.5381 39.3857C20.9456 39.3857 20.5404 39.638 20.3223 40.1426V44H19.4189V38.7168H20.2734ZM30.0857 44.0977C29.3696 44.0977 28.7869 43.8633 28.3377 43.3945C27.8885 42.9225 27.6639 42.2926 27.6639 41.5049V41.3389C27.6639 40.8148 27.7631 40.3477 27.9617 39.9375C28.1635 39.5241 28.4435 39.2018 28.8016 38.9707C29.1629 38.7363 29.5535 38.6191 29.9734 38.6191C30.6603 38.6191 31.1941 38.8454 31.575 39.2979C31.9559 39.7503 32.1463 40.3981 32.1463 41.2412V41.6172H28.5672C28.5802 42.138 28.7316 42.5596 29.0213 42.8818C29.3143 43.2008 29.6854 43.3604 30.1346 43.3604C30.4536 43.3604 30.7238 43.2952 30.9451 43.165C31.1665 43.0348 31.3602 42.8623 31.5262 42.6475L32.0779 43.0771C31.6352 43.7575 30.9712 44.0977 30.0857 44.0977ZM29.9734 39.3613C29.6089 39.3613 29.3029 39.4948 29.0555 39.7617C28.8081 40.0254 28.6551 40.3965 28.5965 40.875H31.243V40.8066C31.2169 40.3477 31.0932 39.9928 30.8719 39.7422C30.6505 39.4883 30.351 39.3613 29.9734 39.3613ZM33.7506 38.7168L33.7799 39.3809C34.1835 38.873 34.7109 38.6191 35.3619 38.6191C36.4785 38.6191 37.0416 39.249 37.0514 40.5088V44H36.148V40.5039C36.1448 40.123 36.0569 39.8415 35.8844 39.6592C35.7151 39.4769 35.4498 39.3857 35.0885 39.3857C34.7955 39.3857 34.5383 39.4639 34.317 39.6201C34.0956 39.7764 33.9231 39.9814 33.7994 40.2354V44H32.8961V38.7168H33.7506ZM39.3393 37.4375V38.7168H40.3256V39.415H39.3393V42.6914C39.3393 42.903 39.3832 43.0625 39.4711 43.1699C39.559 43.2741 39.7087 43.3262 39.9203 43.3262C40.0245 43.3262 40.1677 43.3066 40.35 43.2676V44C40.1124 44.0651 39.8812 44.0977 39.6566 44.0977C39.253 44.0977 38.9486 43.9756 38.7436 43.7314C38.5385 43.4873 38.4359 43.1406 38.4359 42.6914V39.415H37.474V38.7168H38.4359V37.4375H39.3393ZM40.7482 41.3096C40.7482 40.792 40.8492 40.3265 41.051 39.9131C41.2561 39.4997 41.5393 39.1807 41.9006 38.9561C42.2652 38.7314 42.6802 38.6191 43.1457 38.6191C43.8651 38.6191 44.4462 38.8682 44.8889 39.3662C45.3348 39.8643 45.5578 40.5267 45.5578 41.3535V41.417C45.5578 41.9313 45.4585 42.3936 45.26 42.8037C45.0647 43.2106 44.7831 43.528 44.4152 43.7559C44.0507 43.9837 43.6307 44.0977 43.1555 44.0977C42.4393 44.0977 41.8583 43.8486 41.4123 43.3506C40.9696 42.8525 40.7482 42.1934 40.7482 41.373V41.3096ZM41.6564 41.417C41.6564 42.0029 41.7915 42.4733 42.0617 42.8281C42.3352 43.1829 42.6997 43.3604 43.1555 43.3604C43.6145 43.3604 43.979 43.1813 44.2492 42.8232C44.5194 42.4619 44.6545 41.9574 44.6545 41.3096C44.6545 40.7301 44.5161 40.2614 44.2395 39.9033C43.966 39.542 43.6014 39.3613 43.1457 39.3613C42.6997 39.3613 42.34 39.5387 42.0666 39.8936C41.7932 40.2484 41.6564 40.7562 41.6564 41.417ZM49.4668 42.5986C49.4668 42.3545 49.374 42.1657 49.1885 42.0322C49.0062 41.8955 48.6855 41.7783 48.2266 41.6807C47.7708 41.583 47.4079 41.4658 47.1377 41.3291C46.8708 41.1924 46.6722 41.0296 46.542 40.8408C46.415 40.652 46.3516 40.4274 46.3516 40.167C46.3516 39.734 46.5339 39.3678 46.8984 39.0684C47.2663 38.7689 47.735 38.6191 48.3047 38.6191C48.9036 38.6191 49.3887 38.7738 49.7598 39.083C50.1341 39.3923 50.3213 39.7878 50.3213 40.2695H49.4131C49.4131 40.0221 49.3073 39.8089 49.0957 39.6299C48.8874 39.4508 48.6237 39.3613 48.3047 39.3613C47.9759 39.3613 47.7188 39.4329 47.5332 39.5762C47.3477 39.7194 47.2549 39.9066 47.2549 40.1377C47.2549 40.3558 47.3411 40.5202 47.5137 40.6309C47.6862 40.7415 47.9971 40.8473 48.4463 40.9482C48.8988 41.0492 49.265 41.1696 49.5449 41.3096C49.8249 41.4495 50.0316 41.6188 50.165 41.8174C50.3018 42.0127 50.3701 42.252 50.3701 42.5352C50.3701 43.0072 50.1813 43.3864 49.8037 43.6729C49.4261 43.9561 48.9362 44.0977 48.334 44.0977C47.9108 44.0977 47.5365 44.0228 47.2109 43.873C46.8854 43.7233 46.6299 43.515 46.4443 43.248C46.262 42.9779 46.1709 42.6865 46.1709 42.374H47.0742C47.0905 42.6768 47.2109 42.9176 47.4355 43.0967C47.6634 43.2725 47.9629 43.3604 48.334 43.3604C48.6758 43.3604 48.9492 43.292 49.1543 43.1553C49.3626 43.0153 49.4668 42.8298 49.4668 42.5986ZM55.6197 44.0977C54.9036 44.0977 54.3209 43.8633 53.8717 43.3945C53.4225 42.9225 53.1979 42.2926 53.1979 41.5049V41.3389C53.1979 40.8148 53.2971 40.3477 53.4957 39.9375C53.6975 39.5241 53.9775 39.2018 54.3355 38.9707C54.6969 38.7363 55.0875 38.6191 55.5074 38.6191C56.1943 38.6191 56.7281 38.8454 57.109 39.2979C57.4898 39.7503 57.6803 40.3981 57.6803 41.2412V41.6172H54.1012C54.1142 42.138 54.2656 42.5596 54.5553 42.8818C54.8482 43.2008 55.2193 43.3604 55.6686 43.3604C55.9876 43.3604 56.2577 43.2952 56.4791 43.165C56.7005 43.0348 56.8941 42.8623 57.0602 42.6475L57.6119 43.0771C57.1692 43.7575 56.5051 44.0977 55.6197 44.0977ZM55.5074 39.3613C55.1428 39.3613 54.8369 39.4948 54.5895 39.7617C54.3421 40.0254 54.1891 40.3965 54.1305 40.875H56.777V40.8066C56.7509 40.3477 56.6272 39.9928 56.4059 39.7422C56.1845 39.4883 55.885 39.3613 55.5074 39.3613ZM21.4537 53.417C21.4537 54.2243 21.2682 54.8737 20.8971 55.3652C20.526 55.8535 20.0279 56.0977 19.4029 56.0977C18.7356 56.0977 18.2197 55.8617 17.8551 55.3896L17.8111 56H16.9811V48.5H17.8844V51.2979C18.249 50.8454 18.7519 50.6191 19.3932 50.6191C20.0344 50.6191 20.5374 50.8617 20.902 51.3467C21.2698 51.8317 21.4537 52.4958 21.4537 53.3389V53.417ZM20.5504 53.3145C20.5504 52.6992 20.4316 52.224 20.1939 51.8887C19.9563 51.5534 19.6145 51.3857 19.1686 51.3857C18.5729 51.3857 18.1448 51.6624 17.8844 52.2158V54.501C18.1611 55.0544 18.5924 55.3311 19.1783 55.3311C19.6113 55.3311 19.9482 55.1634 20.1891 54.8281C20.4299 54.4928 20.5504 53.9883 20.5504 53.3145ZM24.4887 56.0977C23.7725 56.0977 23.1898 55.8633 22.7406 55.3945C22.2914 54.9225 22.0668 54.2926 22.0668 53.5049V53.3389C22.0668 52.8148 22.1661 52.3477 22.3646 51.9375C22.5665 51.5241 22.8464 51.2018 23.2045 50.9707C23.5658 50.7363 23.9564 50.6191 24.3764 50.6191C25.0632 50.6191 25.5971 50.8454 25.9779 51.2979C26.3588 51.7503 26.5492 52.3981 26.5492 53.2412V53.6172H22.9701C22.9831 54.138 23.1345 54.5596 23.4242 54.8818C23.7172 55.2008 24.0883 55.3604 24.5375 55.3604C24.8565 55.3604 25.1267 55.2952 25.348 55.165C25.5694 55.0348 25.7631 54.8623 25.9291 54.6475L26.4809 55.0771C26.0381 55.7575 25.3741 56.0977 24.4887 56.0977ZM24.3764 51.3613C24.0118 51.3613 23.7058 51.4948 23.4584 51.7617C23.211 52.0254 23.058 52.3965 22.9994 52.875H25.6459V52.8066C25.6199 52.3477 25.4962 51.9928 25.2748 51.7422C25.0534 51.4883 24.754 51.3613 24.3764 51.3613ZM31.7717 53.417C31.7717 54.2243 31.5861 54.8737 31.215 55.3652C30.8439 55.8535 30.3459 56.0977 29.7209 56.0977C29.0536 56.0977 28.5376 55.8617 28.173 55.3896L28.1291 56H27.299V48.5H28.2023V51.2979C28.5669 50.8454 29.0699 50.6191 29.7111 50.6191C30.3524 50.6191 30.8553 50.8617 31.2199 51.3467C31.5878 51.8317 31.7717 52.4958 31.7717 53.3389V53.417ZM30.8684 53.3145C30.8684 52.6992 30.7495 52.224 30.5119 51.8887C30.2743 51.5534 29.9325 51.3857 29.4865 51.3857C28.8908 51.3857 28.4628 51.6624 28.2023 52.2158V54.501C28.479 55.0544 28.9104 55.3311 29.4963 55.3311C29.9292 55.3311 30.2661 55.1634 30.507 54.8281C30.7479 54.4928 30.8684 53.9883 30.8684 53.3145ZM33.5957 56H32.6924V50.7168H33.5957V56ZM32.6191 49.3154C32.6191 49.1689 32.6631 49.0452 32.751 48.9443C32.8421 48.8434 32.9756 48.793 33.1514 48.793C33.3271 48.793 33.4606 48.8434 33.5518 48.9443C33.6429 49.0452 33.6885 49.1689 33.6885 49.3154C33.6885 49.4619 33.6429 49.584 33.5518 49.6816C33.4606 49.7793 33.3271 49.8281 33.1514 49.8281C32.9756 49.8281 32.8421 49.7793 32.751 49.6816C32.6631 49.584 32.6191 49.4619 32.6191 49.3154ZM34.5262 53.3145C34.5262 52.5039 34.7182 51.8529 35.1023 51.3613C35.4865 50.8665 35.9894 50.6191 36.6111 50.6191C37.2296 50.6191 37.7195 50.8307 38.0809 51.2539V48.5H38.9842V56H38.1541L38.1102 55.4336C37.7488 55.8763 37.2459 56.0977 36.6014 56.0977C35.9894 56.0977 35.4897 55.847 35.1023 55.3457C34.7182 54.8444 34.5262 54.1901 34.5262 53.3828V53.3145ZM35.4295 53.417C35.4295 54.016 35.5532 54.4847 35.8006 54.8232C36.048 55.1618 36.3898 55.3311 36.826 55.3311C37.3989 55.3311 37.8172 55.0739 38.0809 54.5596V52.1328C37.8107 51.6348 37.3956 51.3857 36.8357 51.3857C36.393 51.3857 36.048 51.5566 35.8006 51.8984C35.5532 52.2402 35.4295 52.7464 35.4295 53.417ZM43.3521 56C43.3001 55.8958 43.2577 55.7103 43.2252 55.4434C42.8053 55.8796 42.304 56.0977 41.7213 56.0977C41.2005 56.0977 40.7724 55.9512 40.4371 55.6582C40.1051 55.362 39.9391 54.9876 39.9391 54.5352C39.9391 53.985 40.1474 53.5586 40.5641 53.2559C40.984 52.9499 41.5732 52.7969 42.3316 52.7969H43.2105V52.3818C43.2105 52.0661 43.1161 51.8154 42.9273 51.6299C42.7385 51.4411 42.4602 51.3467 42.0924 51.3467C41.7701 51.3467 41.4999 51.4281 41.2818 51.5908C41.0637 51.7536 40.9547 51.9505 40.9547 52.1816H40.0465C40.0465 51.918 40.1393 51.6641 40.3248 51.4199C40.5136 51.1725 40.7675 50.9772 41.0865 50.834C41.4088 50.6908 41.762 50.6191 42.1461 50.6191C42.7548 50.6191 43.2317 50.7721 43.5768 51.0781C43.9218 51.3809 44.1008 51.7992 44.1139 52.333V54.7646C44.1139 55.2497 44.1757 55.6354 44.2994 55.9219V56H43.3521ZM41.8531 55.3115C42.1363 55.3115 42.4049 55.2383 42.6588 55.0918C42.9127 54.9453 43.0966 54.7549 43.2105 54.5205V53.4365H42.5025C41.3958 53.4365 40.8424 53.7604 40.8424 54.4082C40.8424 54.6914 40.9368 54.9128 41.1256 55.0723C41.3144 55.2318 41.5569 55.3115 41.8531 55.3115ZM48.3061 54.5986C48.3061 54.3545 48.2133 54.1657 48.0277 54.0322C47.8454 53.8955 47.5248 53.7783 47.0658 53.6807C46.6101 53.583 46.2471 53.4658 45.977 53.3291C45.71 53.1924 45.5115 53.0296 45.3812 52.8408C45.2543 52.652 45.1908 52.4274 45.1908 52.167C45.1908 51.734 45.3731 51.3678 45.7377 51.0684C46.1055 50.7689 46.5743 50.6191 47.1439 50.6191C47.7429 50.6191 48.2279 50.7738 48.599 51.083C48.9734 51.3923 49.1605 51.7878 49.1605 52.2695H48.2523C48.2523 52.0221 48.1465 51.8089 47.935 51.6299C47.7266 51.4508 47.463 51.3613 47.1439 51.3613C46.8152 51.3613 46.558 51.4329 46.3725 51.5762C46.1869 51.7194 46.0941 51.9066 46.0941 52.1377C46.0941 52.3558 46.1804 52.5202 46.3529 52.6309C46.5255 52.7415 46.8363 52.8473 47.2855 52.9482C47.738 53.0492 48.1042 53.1696 48.3842 53.3096C48.6641 53.4495 48.8708 53.6188 49.0043 53.8174C49.141 54.0127 49.2094 54.252 49.2094 54.5352C49.2094 55.0072 49.0206 55.3864 48.643 55.6729C48.2654 55.9561 47.7755 56.0977 47.1732 56.0977C46.7501 56.0977 46.3757 56.0228 46.0502 55.873C45.7247 55.7233 45.4691 55.515 45.2836 55.248C45.1013 54.9779 45.0102 54.6865 45.0102 54.374H45.9135C45.9298 54.6768 46.0502 54.9176 46.2748 55.0967C46.5027 55.2725 46.8021 55.3604 47.1732 55.3604C47.515 55.3604 47.7885 55.292 47.9936 55.1553C48.2019 55.0153 48.3061 54.8298 48.3061 54.5986Z" fill="#666666"/>
<defs>
<filter id="filter0_d_7838:60025" x="0" y="0" width="66" height="34" filterUnits="userSpaceOnUse" color-interpolation-filters="sRGB">
<feFlood flood-opacity="0" result="BackgroundImageFix"/>
<feColorMatrix in="SourceAlpha" type="matrix" values="0 0 0 0 0 0 0 0 0 0 0 0 0 0 0 0 0 0 127 0" result="hardAlpha"/>
<feOffset dy="1"/>
<feGaussianBlur stdDeviation="1"/>
<feColorMatrix type="matrix" values="0 0 0 0 0 0 0 0 0 0 0 0 0 0 0 0 0 0 0.2 0"/>
<feBlend mode="normal" in2="BackgroundImageFix" result="effect1_dropShadow_7838:60025"/>
<feBlend mode="normal" in="SourceGraphic" in2="effect1_dropShadow_7838:60025" result="shape"/>
</filter>
</defs>
</svg>
