<svg width="66" height="61" viewBox="0 0 66 61" fill="none" xmlns="http://www.w3.org/2000/svg">
<g filter="url(#filter0_d_7838:60050)">
<rect x="2" y="1" width="62" height="30" rx="8" fill="#E7F3F9"/>
<path fill-rule="evenodd" clip-rule="evenodd" d="M35.5762 9.69392L39.3096 13.4273C39.4732 13.5906 39.5651 13.8123 39.5651 14.0435C39.5651 14.2748 39.4732 14.4965 39.3096 14.6598L34.2532 19.7168L29.2891 14.7526L34.3419 9.69392C34.5053 9.52978 34.7274 9.4375 34.9591 9.4375C35.1907 9.4375 35.4128 9.52978 35.5762 9.69392Z" stroke="#007DC5" stroke-linecap="round" stroke-linejoin="round"/>
<path fill-rule="evenodd" clip-rule="evenodd" d="M27.8662 14.7505C28.258 14.3592 28.8926 14.3592 29.2843 14.7505L34.2485 19.7146C34.6406 20.1059 34.6412 20.7409 34.25 21.133C33.8587 21.5251 33.2237 21.5257 32.8316 21.1345L27.8662 16.1691C27.678 15.9811 27.5723 15.7259 27.5723 15.4598C27.5723 15.1937 27.678 14.9386 27.8662 14.7505Z" stroke="#007DC5" stroke-linecap="round" stroke-linejoin="round"/>
<path d="M32.1237 14.7501L30.7051 13.332" stroke="#007DC5" stroke-linecap="round" stroke-linejoin="round"/>
<path d="M33.5411 13.3321L32.123 11.9141" stroke="#007DC5" stroke-linecap="round" stroke-linejoin="round"/>
<path d="M27.9866 16.2852L27.7463 16.7664C27.5102 17.2388 27.4286 17.7734 27.513 18.2947C27.6243 19.076 27.3616 19.8641 26.8036 20.4222C26.4818 20.7378 26.3542 21.2019 26.4694 21.6377C26.5847 22.0735 26.925 22.4139 27.3608 22.5291C27.7966 22.6444 28.2608 22.5168 28.5764 22.1949C29.1345 21.637 29.9226 21.3742 30.7038 21.4856C31.2251 21.5699 31.7597 21.4883 32.2321 21.2522L32.7134 21.0119" stroke="#007DC5" stroke-linecap="round" stroke-linejoin="round"/>
</g>
<path d="M16.4461 42.1445H13.4676L12.7986 44H11.8318L14.5467 36.8906H15.367L18.0867 44H17.1248L16.4461 42.1445ZM13.7508 41.373H16.1678L14.9568 38.0479L13.7508 41.373ZM19.5836 44H18.6803V36.5H19.5836V44ZM21.7152 44H20.8119V38.7168H21.7152V44ZM20.7387 37.3154C20.7387 37.1689 20.7826 37.0452 20.8705 36.9443C20.9617 36.8434 21.0951 36.793 21.2709 36.793C21.4467 36.793 21.5801 36.8434 21.6713 36.9443C21.7624 37.0452 21.808 37.1689 21.808 37.3154C21.808 37.4619 21.7624 37.584 21.6713 37.6816C21.5801 37.7793 21.4467 37.8281 21.2709 37.8281C21.0951 37.8281 20.9617 37.7793 20.8705 37.6816C20.7826 37.584 20.7387 37.4619 20.7387 37.3154ZM23.715 38.7168L23.7395 39.3027C24.1268 38.847 24.6493 38.6191 25.3068 38.6191C26.0458 38.6191 26.5487 38.9023 26.8156 39.4688C26.9914 39.2148 27.2193 39.0098 27.4992 38.8535C27.7824 38.6973 28.1161 38.6191 28.5002 38.6191C29.6591 38.6191 30.2482 39.2327 30.2678 40.46V44H29.3645V40.5137C29.3645 40.1361 29.2782 39.8545 29.1057 39.6689C28.9331 39.4801 28.6434 39.3857 28.2365 39.3857C27.9012 39.3857 27.6229 39.4867 27.4016 39.6885C27.1802 39.887 27.0516 40.1556 27.0158 40.4941V44H26.1076V40.5381C26.1076 39.7699 25.7316 39.3857 24.9797 39.3857C24.3872 39.3857 23.982 39.638 23.7639 40.1426V44H22.8605V38.7168H23.715ZM33.5273 44.0977C32.8112 44.0977 32.2285 43.8633 31.7793 43.3945C31.3301 42.9225 31.1055 42.2926 31.1055 41.5049V41.3389C31.1055 40.8148 31.2048 40.3477 31.4033 39.9375C31.6051 39.5241 31.8851 39.2018 32.2432 38.9707C32.6045 38.7363 32.9951 38.6191 33.415 38.6191C34.1019 38.6191 34.6357 38.8454 35.0166 39.2979C35.3975 39.7503 35.5879 40.3981 35.5879 41.2412V41.6172H32.0088C32.0218 42.138 32.1732 42.5596 32.4629 42.8818C32.7559 43.2008 33.127 43.3604 33.5762 43.3604C33.8952 43.3604 34.1654 43.2952 34.3867 43.165C34.6081 43.0348 34.8018 42.8623 34.9678 42.6475L35.5195 43.0771C35.0768 43.7575 34.4128 44.0977 33.5273 44.0977ZM33.415 39.3613C33.0505 39.3613 32.7445 39.4948 32.4971 39.7617C32.2497 40.0254 32.0967 40.3965 32.0381 40.875H34.6846V40.8066C34.6585 40.3477 34.5348 39.9928 34.3135 39.7422C34.0921 39.4883 33.7926 39.3613 33.415 39.3613ZM37.1922 38.7168L37.2215 39.3809C37.6251 38.873 38.1525 38.6191 38.8035 38.6191C39.9201 38.6191 40.4832 39.249 40.493 40.5088V44H39.5896V40.5039C39.5864 40.123 39.4985 39.8415 39.326 39.6592C39.1567 39.4769 38.8914 39.3857 38.5301 39.3857C38.2371 39.3857 37.9799 39.4639 37.7586 39.6201C37.5372 39.7764 37.3647 39.9814 37.241 40.2354V44H36.3377V38.7168H37.1922ZM42.7809 37.4375V38.7168H43.7672V39.415H42.7809V42.6914C42.7809 42.903 42.8248 43.0625 42.9127 43.1699C43.0006 43.2741 43.1503 43.3262 43.3619 43.3262C43.4661 43.3262 43.6093 43.3066 43.7916 43.2676V44C43.554 44.0651 43.3229 44.0977 43.0982 44.0977C42.6946 44.0977 42.3902 43.9756 42.1852 43.7314C41.9801 43.4873 41.8775 43.1406 41.8775 42.6914V39.415H40.9156V38.7168H41.8775V37.4375H42.7809ZM44.1898 41.3096C44.1898 40.792 44.2908 40.3265 44.4926 39.9131C44.6977 39.4997 44.9809 39.1807 45.3422 38.9561C45.7068 38.7314 46.1218 38.6191 46.5873 38.6191C47.3067 38.6191 47.8878 38.8682 48.3305 39.3662C48.7764 39.8643 48.9994 40.5267 48.9994 41.3535V41.417C48.9994 41.9313 48.9001 42.3936 48.7016 42.8037C48.5063 43.2106 48.2247 43.528 47.8568 43.7559C47.4923 43.9837 47.0723 44.0977 46.5971 44.0977C45.8809 44.0977 45.2999 43.8486 44.8539 43.3506C44.4112 42.8525 44.1898 42.1934 44.1898 41.373V41.3096ZM45.098 41.417C45.098 42.0029 45.2331 42.4733 45.5033 42.8281C45.7768 43.1829 46.1413 43.3604 46.5971 43.3604C47.0561 43.3604 47.4206 43.1813 47.6908 42.8232C47.961 42.4619 48.0961 41.9574 48.0961 41.3096C48.0961 40.7301 47.9577 40.2614 47.6811 39.9033C47.4076 39.542 47.043 39.3613 46.5873 39.3613C46.1413 39.3613 45.7816 39.5387 45.5082 39.8936C45.2348 40.2484 45.098 40.7562 45.098 41.417ZM52.9084 42.5986C52.9084 42.3545 52.8156 42.1657 52.6301 42.0322C52.4478 41.8955 52.1271 41.7783 51.6682 41.6807C51.2124 41.583 50.8495 41.4658 50.5793 41.3291C50.3124 41.1924 50.1138 41.0296 49.9836 40.8408C49.8566 40.652 49.7932 40.4274 49.7932 40.167C49.7932 39.734 49.9755 39.3678 50.34 39.0684C50.7079 38.7689 51.1766 38.6191 51.7463 38.6191C52.3452 38.6191 52.8303 38.7738 53.2014 39.083C53.5757 39.3923 53.7629 39.7878 53.7629 40.2695H52.8547C52.8547 40.0221 52.7489 39.8089 52.5373 39.6299C52.329 39.4508 52.0653 39.3613 51.7463 39.3613C51.4175 39.3613 51.1604 39.4329 50.9748 39.5762C50.7893 39.7194 50.6965 39.9066 50.6965 40.1377C50.6965 40.3558 50.7827 40.5202 50.9553 40.6309C51.1278 40.7415 51.4387 40.8473 51.8879 40.9482C52.3404 41.0492 52.7066 41.1696 52.9865 41.3096C53.2665 41.4495 53.4732 41.6188 53.6066 41.8174C53.7434 42.0127 53.8117 42.252 53.8117 42.5352C53.8117 43.0072 53.6229 43.3864 53.2453 43.6729C52.8677 43.9561 52.3778 44.0977 51.7756 44.0977C51.3524 44.0977 50.9781 44.0228 50.6525 43.873C50.327 43.7233 50.0715 43.515 49.8859 43.248C49.7036 42.9779 49.6125 42.6865 49.6125 42.374H50.5158C50.5321 42.6768 50.6525 42.9176 50.8771 43.0967C51.105 43.2725 51.4045 43.3604 51.7756 43.3604C52.1174 43.3604 52.3908 43.292 52.5959 43.1553C52.8042 43.0153 52.9084 42.8298 52.9084 42.5986Z" fill="#666666"/>
<defs>
<filter id="filter0_d_7838:60050" x="0" y="0" width="66" height="34" filterUnits="userSpaceOnUse" color-interpolation-filters="sRGB">
<feFlood flood-opacity="0" result="BackgroundImageFix"/>
<feColorMatrix in="SourceAlpha" type="matrix" values="0 0 0 0 0 0 0 0 0 0 0 0 0 0 0 0 0 0 127 0" result="hardAlpha"/>
<feOffset dy="1"/>
<feGaussianBlur stdDeviation="1"/>
<feColorMatrix type="matrix" values="0 0 0 0 0 0 0 0 0 0 0 0 0 0 0 0 0 0 0.2 0"/>
<feBlend mode="normal" in2="BackgroundImageFix" result="effect1_dropShadow_7838:60050"/>
<feBlend mode="normal" in="SourceGraphic" in2="effect1_dropShadow_7838:60050" result="shape"/>
</filter>
</defs>
</svg>
