<svg width="70" height="65" viewBox="0 0 70 65" fill="none" xmlns="http://www.w3.org/2000/svg">
<g filter="url(#filter0_d_7838:60099)">
<rect x="2" y="1" width="66" height="34" rx="8" fill="#E7F3F9"/>
<path d="M38.0779 15.015L38.0782 15.0151C38.5641 15.1106 38.9064 15.2795 39.1856 15.5391C39.4555 15.79 39.6531 16.1147 39.8676 16.4824L39.8677 16.4826C39.8872 16.516 39.923 16.536 39.962 16.536C39.9799 16.536 39.998 16.5315 40.0157 16.5211L40.0167 16.5205C40.0677 16.4909 40.086 16.4246 40.0554 16.3718C39.8459 16.0131 39.6513 15.6831 39.3641 15.4082C39.0835 15.1397 38.7051 14.9161 38.1201 14.8016L38.1199 14.8016C37.6519 14.7097 37.2869 14.7076 36.9147 14.7058L36.9146 14.7058L36.8973 14.7057C36.5796 14.704 36.2582 14.7023 35.8735 14.6329L38.0779 15.015ZM38.0779 15.015C37.6273 14.927 37.2719 14.9252 36.9176 14.9234L36.9137 14.9234C36.5728 14.9216 36.2396 14.9195 35.835 14.8474C35.4306 14.775 35.0857 14.6399 34.7349 14.3172C34.3756 13.9868 33.9981 13.4484 33.5586 12.5442C33.5325 12.4899 33.5551 12.4246 33.6081 12.3979C33.6631 12.372 33.7275 12.395 33.7537 12.4487L33.9783 12.3392L33.7536 12.4485C34.2125 13.3922 34.6004 13.9191 34.9527 14.2205C35.3181 14.5333 35.6304 14.5893 35.8729 14.6328L35.8732 14.6328L38.0779 15.015ZM35.0763 15.8169C35.7758 16.1369 36.4257 15.943 36.6113 15.8747C36.6684 15.8542 36.7309 15.884 36.7512 15.9394C36.7716 15.9948 36.743 16.0577 36.6866 16.0785C36.5407 16.1314 36.2578 16.214 35.9042 16.214C35.6304 16.214 35.3143 16.1649 34.9858 16.0143L34.9857 16.0143C34.2812 15.6918 33.965 15.0995 33.8622 14.8594C33.8389 14.8037 33.8649 14.7397 33.9199 14.7161C33.9741 14.6929 34.0385 14.7179 34.0626 14.7741L34.2924 14.6756L34.0624 14.7737C34.1544 14.9893 34.4365 15.5242 35.0763 15.8169ZM40.4159 24.2427L40.4028 24.2562L40.3918 24.2716L40.3877 24.2773C40.3867 24.2782 40.3855 24.2791 40.3844 24.28L40.3731 24.289L40.3629 24.2993C38.8658 25.812 36.7906 26.75 34.5004 26.75C29.951 26.75 26.25 23.0483 26.25 18.5C26.25 16.2117 27.1863 14.1383 28.6973 12.6414L28.7058 12.633L28.7134 12.6239C28.7182 12.6181 28.7222 12.613 28.7249 12.6095L28.7263 12.6077C28.7284 12.6061 28.7313 12.604 28.7356 12.6008L28.7494 12.5907L28.7617 12.5788C30.2483 11.1384 32.2721 10.25 34.5004 10.25C39.049 10.25 42.75 13.9508 42.75 18.4991C42.75 20.73 41.8598 22.7563 40.4159 24.2427ZM40.3824 24.2847L40.3817 24.2855C40.3819 24.2852 40.3821 24.285 40.3824 24.2847C40.3821 24.2851 40.3819 24.2853 40.3819 24.2853C40.3819 24.2853 40.3823 24.2848 40.3831 24.2839L40.3824 24.2847ZM40.1252 23.8573L40.3122 24.0443L40.4884 23.8471C41.7581 22.4256 42.5324 20.5517 42.5324 18.5C42.5324 14.0702 38.9296 10.4675 34.5004 10.4675C32.4478 10.4675 30.5737 11.2418 29.153 12.5115L28.9559 12.6877L29.1429 12.8747L33.6357 17.3673L33.7089 17.4405H33.8125H39.9387C40.2383 17.4405 40.4825 17.6847 40.4825 17.9843V19.0157C40.4825 19.3153 40.2383 19.5595 39.9387 19.5595H36.4307H35.8271L36.2539 19.9863L40.1252 23.8573ZM31.1674 19.3411H31.4227L31.4173 19.0857C31.4121 18.8401 31.4181 18.4747 31.4361 17.9161L31.4444 17.658H31.1862H29.0613C28.8811 17.658 28.7351 17.804 28.7351 17.9843V19.0148C28.7351 19.1951 28.8811 19.3411 29.0613 19.3411H31.1674ZM31.6358 19.0935L31.6382 19.3411H31.8858H34.6978H35.3014L34.8746 18.9143L33.6915 17.7313L33.6182 17.658H33.5147H31.9038H31.6607L31.6539 17.9011C31.6413 18.3509 31.6331 18.8069 31.6358 19.0935ZM34.53 17.658H33.9265L34.3533 18.0848L35.5364 19.2678L35.6096 19.3411H35.7131H39.9387C40.1189 19.3411 40.2649 19.1951 40.2649 19.0148V17.9843C40.2649 17.804 40.1189 17.658 39.9387 17.658H39.7019H39.4519V17.908V18.3735C39.4519 18.4337 39.4033 18.4823 39.3431 18.4823C39.2829 18.4823 39.2343 18.4337 39.2343 18.3735V17.908V17.658H38.9843H34.53ZM28.9842 13.0234L28.8012 12.8403L28.6246 13.0297C27.2872 14.4642 26.4676 16.3882 26.4676 18.5C26.4676 22.9289 30.0705 26.5316 34.4996 26.5316C36.6114 26.5316 38.5355 25.712 39.9701 24.3756L40.1596 24.199L39.9764 24.0159L35.593 19.6327L35.5198 19.5595H35.4162H29.0613C28.7617 19.5595 28.5175 19.3153 28.5175 19.0157V17.9852C28.5175 17.6856 28.7617 17.4414 29.0613 17.4414H32.7989H33.4025L32.9757 17.0146L28.9842 13.0234Z" fill="#007DC5" stroke="#007DC5" stroke-width="0.5"/>
</g>
<path d="M8.9582 46.1445H5.97969L5.31074 48H4.34394L7.05879 40.8906H7.8791L10.5988 48H9.63691L8.9582 46.1445ZM6.26289 45.373H8.67988L7.46894 42.0479L6.26289 45.373ZM11.9687 42.7168L11.998 43.3809C12.4017 42.873 12.929 42.6191 13.5801 42.6191C14.6966 42.6191 15.2598 43.249 15.2695 44.5088V48H14.3662V44.5039C14.363 44.123 14.2751 43.8415 14.1025 43.6592C13.9333 43.4769 13.668 43.3857 13.3066 43.3857C13.0137 43.3857 12.7565 43.4639 12.5352 43.6201C12.3138 43.7764 12.1413 43.9814 12.0176 44.2354V48H11.1143V42.7168H11.9687ZM17.5574 41.4375V42.7168H18.5437V43.415H17.5574V46.6914C17.5574 46.903 17.6014 47.0625 17.6893 47.1699C17.7771 47.2741 17.9269 47.3262 18.1385 47.3262C18.2426 47.3262 18.3859 47.3066 18.5682 47.2676V48C18.3305 48.0651 18.0994 48.0977 17.8748 48.0977C17.4712 48.0977 17.1668 47.9756 16.9617 47.7314C16.7566 47.4873 16.6541 47.1406 16.6541 46.6914V43.415H15.6922V42.7168H16.6541V41.4375H17.5574ZM20.2848 48H19.3814V42.7168H20.2848V48ZM19.3082 41.3154C19.3082 41.1689 19.3521 41.0452 19.44 40.9443C19.5312 40.8434 19.6646 40.793 19.8404 40.793C20.0162 40.793 20.1497 40.8434 20.2408 40.9443C20.332 41.0452 20.3775 41.1689 20.3775 41.3154C20.3775 41.4619 20.332 41.584 20.2408 41.6816C20.1497 41.7793 20.0162 41.8281 19.8404 41.8281C19.6646 41.8281 19.5312 41.7793 19.44 41.6816C19.3521 41.584 19.3082 41.4619 19.3082 41.3154ZM22.6605 41.4375V42.7168H23.6469V43.415H22.6605V46.6914C22.6605 46.903 22.7045 47.0625 22.7924 47.1699C22.8803 47.2741 23.03 47.3262 23.2416 47.3262C23.3458 47.3262 23.489 47.3066 23.6713 47.2676V48C23.4337 48.0651 23.2025 48.0977 22.9779 48.0977C22.5743 48.0977 22.2699 47.9756 22.0648 47.7314C21.8598 47.4873 21.7572 47.1406 21.7572 46.6914V43.415H20.7953V42.7168H21.7572V41.4375H22.6605ZM27.6682 48C27.6161 47.8958 27.5738 47.7103 27.5412 47.4434C27.1213 47.8796 26.62 48.0977 26.0373 48.0977C25.5165 48.0977 25.0884 47.9512 24.7531 47.6582C24.4211 47.362 24.2551 46.9876 24.2551 46.5352C24.2551 45.985 24.4634 45.5586 24.8801 45.2559C25.3 44.9499 25.8892 44.7969 26.6477 44.7969H27.5266V44.3818C27.5266 44.0661 27.4322 43.8154 27.2434 43.6299C27.0546 43.4411 26.7762 43.3467 26.4084 43.3467C26.0861 43.3467 25.8159 43.4281 25.5979 43.5908C25.3798 43.7536 25.2707 43.9505 25.2707 44.1816H24.3625C24.3625 43.918 24.4553 43.6641 24.6408 43.4199C24.8296 43.1725 25.0835 42.9772 25.4025 42.834C25.7248 42.6908 26.078 42.6191 26.4621 42.6191C27.0708 42.6191 27.5477 42.7721 27.8928 43.0781C28.2378 43.3809 28.4169 43.7992 28.4299 44.333V46.7646C28.4299 47.2497 28.4917 47.6354 28.6154 47.9219V48H27.6682ZM26.1691 47.3115C26.4523 47.3115 26.7209 47.2383 26.9748 47.0918C27.2287 46.9453 27.4126 46.7549 27.5266 46.5205V45.4365H26.8186C25.7118 45.4365 25.1584 45.7604 25.1584 46.4082C25.1584 46.6914 25.2528 46.9128 25.4416 47.0723C25.6304 47.2318 25.8729 47.3115 26.1691 47.3115ZM34.0186 45.417C34.0186 46.2243 33.833 46.8737 33.4619 47.3652C33.0908 47.8535 32.5928 48.0977 31.9678 48.0977C31.3005 48.0977 30.7845 47.8617 30.4199 47.3896L30.376 48H29.5459V40.5H30.4492V43.2979C30.8138 42.8454 31.3167 42.6191 31.958 42.6191C32.5993 42.6191 33.1022 42.8617 33.4668 43.3467C33.8346 43.8317 34.0186 44.4958 34.0186 45.3389V45.417ZM33.1152 45.3145C33.1152 44.6992 32.9964 44.224 32.7588 43.8887C32.5212 43.5534 32.1794 43.3857 31.7334 43.3857C31.1377 43.3857 30.7096 43.6624 30.4492 44.2158V46.501C30.7259 47.0544 31.1572 47.3311 31.7432 47.3311C32.1761 47.3311 32.513 47.1634 32.7539 46.8281C32.9948 46.4928 33.1152 45.9883 33.1152 45.3145ZM38.1228 48C38.0708 47.8958 38.0284 47.7103 37.9959 47.4434C37.576 47.8796 37.0747 48.0977 36.492 48.0977C35.9712 48.0977 35.5431 47.9512 35.2078 47.6582C34.8758 47.362 34.7098 46.9876 34.7098 46.5352C34.7098 45.985 34.9181 45.5586 35.3348 45.2559C35.7547 44.9499 36.3439 44.7969 37.1023 44.7969H37.9812V44.3818C37.9812 44.0661 37.8868 43.8154 37.698 43.6299C37.5092 43.4411 37.2309 43.3467 36.8631 43.3467C36.5408 43.3467 36.2706 43.4281 36.0525 43.5908C35.8344 43.7536 35.7254 43.9505 35.7254 44.1816H34.8172C34.8172 43.918 34.91 43.6641 35.0955 43.4199C35.2843 43.1725 35.5382 42.9772 35.8572 42.834C36.1795 42.6908 36.5327 42.6191 36.9168 42.6191C37.5255 42.6191 38.0024 42.7721 38.3475 43.0781C38.6925 43.3809 38.8715 43.7992 38.8846 44.333V46.7646C38.8846 47.2497 38.9464 47.6354 39.0701 47.9219V48H38.1228ZM36.6238 47.3115C36.907 47.3115 37.1756 47.2383 37.4295 47.0918C37.6834 46.9453 37.8673 46.7549 37.9812 46.5205V45.4365H37.2732C36.1665 45.4365 35.6131 45.7604 35.6131 46.4082C35.6131 46.6914 35.7075 46.9128 35.8963 47.0723C36.0851 47.2318 36.3276 47.3115 36.6238 47.3115ZM39.7857 45.3145C39.7857 44.4909 39.9762 43.8366 40.357 43.3516C40.7379 42.8633 41.2424 42.6191 41.8707 42.6191C42.5152 42.6191 43.0182 42.847 43.3795 43.3027L43.4234 42.7168H44.2486V47.873C44.2486 48.5566 44.0452 49.0954 43.6383 49.4893C43.2346 49.8831 42.691 50.0801 42.0074 50.0801C41.6266 50.0801 41.2538 49.9987 40.8893 49.8359C40.5247 49.6732 40.2464 49.4502 40.0543 49.167L40.523 48.625C40.9104 49.1035 41.384 49.3428 41.9439 49.3428C42.3834 49.3428 42.7252 49.2191 42.9693 48.9717C43.2167 48.7243 43.3404 48.376 43.3404 47.9268V47.4727C42.9791 47.8893 42.4859 48.0977 41.8609 48.0977C41.2424 48.0977 40.7411 47.8486 40.357 47.3506C39.9762 46.8525 39.7857 46.1738 39.7857 45.3145ZM40.6939 45.417C40.6939 46.0127 40.816 46.4814 41.0602 46.8232C41.3043 47.1618 41.6461 47.3311 42.0855 47.3311C42.6552 47.3311 43.0735 47.0723 43.3404 46.5547V44.1426C43.0637 43.638 42.6487 43.3857 42.0953 43.3857C41.6559 43.3857 41.3124 43.5566 41.065 43.8984C40.8176 44.2402 40.6939 44.7464 40.6939 45.417ZM46.2973 48H45.3939V42.7168H46.2973V48ZM45.3207 41.3154C45.3207 41.1689 45.3646 41.0452 45.4525 40.9443C45.5437 40.8434 45.6771 40.793 45.8529 40.793C46.0287 40.793 46.1622 40.8434 46.2533 40.9443C46.3445 41.0452 46.39 41.1689 46.39 41.3154C46.39 41.4619 46.3445 41.584 46.2533 41.6816C46.1622 41.7793 46.0287 41.8281 45.8529 41.8281C45.6771 41.8281 45.5437 41.7793 45.4525 41.6816C45.3646 41.584 45.3207 41.4619 45.3207 41.3154ZM50.5236 46.5986C50.5236 46.3545 50.4309 46.1657 50.2453 46.0322C50.063 45.8955 49.7424 45.7783 49.2834 45.6807C48.8277 45.583 48.4647 45.4658 48.1945 45.3291C47.9276 45.1924 47.729 45.0296 47.5988 44.8408C47.4719 44.652 47.4084 44.4274 47.4084 44.167C47.4084 43.734 47.5907 43.3678 47.9553 43.0684C48.3231 42.7689 48.7919 42.6191 49.3615 42.6191C49.9605 42.6191 50.4455 42.7738 50.8166 43.083C51.1909 43.3923 51.3781 43.7878 51.3781 44.2695H50.4699C50.4699 44.0221 50.3641 43.8089 50.1525 43.6299C49.9442 43.4508 49.6805 43.3613 49.3615 43.3613C49.0327 43.3613 48.7756 43.4329 48.59 43.5762C48.4045 43.7194 48.3117 43.9066 48.3117 44.1377C48.3117 44.3558 48.398 44.5202 48.5705 44.6309C48.743 44.7415 49.0539 44.8473 49.5031 44.9482C49.9556 45.0492 50.3218 45.1696 50.6018 45.3096C50.8817 45.4495 51.0884 45.6188 51.2219 45.8174C51.3586 46.0127 51.427 46.252 51.427 46.5352C51.427 47.0072 51.2382 47.3864 50.8605 47.6729C50.4829 47.9561 49.993 48.0977 49.3908 48.0977C48.9676 48.0977 48.5933 48.0228 48.2678 47.873C47.9423 47.7233 47.6867 47.515 47.5012 47.248C47.3189 46.9779 47.2277 46.6865 47.2277 46.374H48.1311C48.1473 46.6768 48.2678 46.9176 48.4924 47.0967C48.7202 47.2725 49.0197 47.3604 49.3908 47.3604C49.7326 47.3604 50.0061 47.292 50.2111 47.1553C50.4195 47.0153 50.5236 46.8298 50.5236 46.5986ZM53.1533 42.7168L53.1777 43.3027C53.5651 42.847 54.0876 42.6191 54.7451 42.6191C55.484 42.6191 55.987 42.9023 56.2539 43.4688C56.4297 43.2148 56.6576 43.0098 56.9375 42.8535C57.2207 42.6973 57.5544 42.6191 57.9385 42.6191C59.0973 42.6191 59.6865 43.2327 59.7061 44.46V48H58.8027V44.5137C58.8027 44.1361 58.7165 43.8545 58.5439 43.6689C58.3714 43.4801 58.0817 43.3857 57.6748 43.3857C57.3395 43.3857 57.0612 43.4867 56.8398 43.6885C56.6185 43.887 56.4899 44.1556 56.4541 44.4941V48H55.5459V44.5381C55.5459 43.7699 55.1699 43.3857 54.418 43.3857C53.8255 43.3857 53.4202 43.638 53.2021 44.1426V48H52.2988V42.7168H53.1533ZM60.534 45.3096C60.534 44.792 60.6349 44.3265 60.8367 43.9131C61.0418 43.4997 61.325 43.1807 61.6863 42.9561C62.0509 42.7314 62.466 42.6191 62.9314 42.6191C63.6508 42.6191 64.2319 42.8682 64.6746 43.3662C65.1206 43.8643 65.3436 44.5267 65.3436 45.3535V45.417C65.3436 45.9313 65.2443 46.3936 65.0457 46.8037C64.8504 47.2106 64.5688 47.528 64.201 47.7559C63.8364 47.9837 63.4165 48.0977 62.9412 48.0977C62.2251 48.0977 61.644 47.8486 61.198 47.3506C60.7553 46.8525 60.534 46.1934 60.534 45.373V45.3096ZM61.4422 45.417C61.4422 46.0029 61.5773 46.4733 61.8475 46.8281C62.1209 47.1829 62.4855 47.3604 62.9412 47.3604C63.4002 47.3604 63.7648 47.1813 64.035 46.8232C64.3051 46.4619 64.4402 45.9574 64.4402 45.3096C64.4402 44.7301 64.3019 44.2614 64.0252 43.9033C63.7518 43.542 63.3872 43.3613 62.9314 43.3613C62.4855 43.3613 62.1258 43.5387 61.8523 43.8936C61.5789 44.2484 61.4422 44.7562 61.4422 45.417Z" fill="#666666"/>
<defs>
<filter id="filter0_d_7838:60099" x="0" y="0" width="70" height="38" filterUnits="userSpaceOnUse" color-interpolation-filters="sRGB">
<feFlood flood-opacity="0" result="BackgroundImageFix"/>
<feColorMatrix in="SourceAlpha" type="matrix" values="0 0 0 0 0 0 0 0 0 0 0 0 0 0 0 0 0 0 127 0" result="hardAlpha"/>
<feOffset dy="1"/>
<feGaussianBlur stdDeviation="1"/>
<feColorMatrix type="matrix" values="0 0 0 0 0 0 0 0 0 0 0 0 0 0 0 0 0 0 0.2 0"/>
<feBlend mode="normal" in2="BackgroundImageFix" result="effect1_dropShadow_7838:60099"/>
<feBlend mode="normal" in="SourceGraphic" in2="effect1_dropShadow_7838:60099" result="shape"/>
</filter>
</defs>
</svg>
