<svg width="70" height="65" viewBox="0 0 70 65" fill="none" xmlns="http://www.w3.org/2000/svg">
<g filter="url(#filter0_d_7838:60115)">
<rect x="2" y="1" width="66" height="34" rx="8" fill="#E7F3F9"/>
<path d="M33.3125 10.6875H34.4375C35.0588 10.6875 35.5625 11.1912 35.5625 11.8125V16.3125C35.5625 18.7978 33.5478 20.8125 31.0625 20.8125C28.5772 20.8125 26.5625 18.7978 26.5625 16.3125V11.8125C26.5625 11.1912 27.0662 10.6875 27.6875 10.6875H28.8125" stroke="#007DC5" stroke-linecap="round" stroke-linejoin="round"/>
<path d="M28.8125 9.5625V12.375" stroke="#007DC5" stroke-linecap="round" stroke-linejoin="round"/>
<path d="M33.3125 9.5625V12.375" stroke="#007DC5" stroke-linecap="round" stroke-linejoin="round"/>
<circle cx="41.1875" cy="16.3125" r="2.25" stroke="#007DC5" stroke-linecap="round" stroke-linejoin="round"/>
<path d="M31.0625 20.8125V21.375C31.0625 24.1709 33.3291 26.4375 36.125 26.4375C38.9209 26.4375 41.1875 24.1709 41.1875 21.375V18.5625" stroke="#007DC5" stroke-linecap="round" stroke-linejoin="round"/>
</g>
<path d="M17.3754 46.1445H14.3969L13.7279 48H12.7611L15.476 40.8906H16.2963L19.016 48H18.0541L17.3754 46.1445ZM14.6801 45.373H17.0971L15.8861 42.0479L14.6801 45.373ZM23.9943 45.417C23.9943 46.221 23.8104 46.8688 23.4426 47.3604C23.0747 47.8519 22.5767 48.0977 21.9484 48.0977C21.3072 48.0977 20.8026 47.8942 20.4348 47.4873V50.0312H19.5314V42.7168H20.3566L20.4006 43.3027C20.7684 42.847 21.2795 42.6191 21.9338 42.6191C22.5686 42.6191 23.0699 42.8584 23.4377 43.3369C23.8088 43.8154 23.9943 44.4811 23.9943 45.334V45.417ZM23.091 45.3145C23.091 44.7188 22.9641 44.2484 22.7102 43.9033C22.4562 43.5583 22.1079 43.3857 21.6652 43.3857C21.1184 43.3857 20.7082 43.6283 20.4348 44.1133V46.6377C20.7049 47.1195 21.1184 47.3604 21.675 47.3604C22.1079 47.3604 22.4514 47.1895 22.7053 46.8477C22.9624 46.5026 23.091 45.9915 23.091 45.3145ZM28.1084 48C28.0563 47.8958 28.014 47.7103 27.9814 47.4434C27.5615 47.8796 27.0602 48.0977 26.4775 48.0977C25.9567 48.0977 25.5286 47.9512 25.1934 47.6582C24.8613 47.362 24.6953 46.9876 24.6953 46.5352C24.6953 45.985 24.9036 45.5586 25.3203 45.2559C25.7402 44.9499 26.3294 44.7969 27.0879 44.7969H27.9668V44.3818C27.9668 44.0661 27.8724 43.8154 27.6836 43.6299C27.4948 43.4411 27.2165 43.3467 26.8486 43.3467C26.5264 43.3467 26.2562 43.4281 26.0381 43.5908C25.82 43.7536 25.7109 43.9505 25.7109 44.1816H24.8027C24.8027 43.918 24.8955 43.6641 25.0811 43.4199C25.2699 43.1725 25.5238 42.9772 25.8428 42.834C26.165 42.6908 26.5182 42.6191 26.9023 42.6191C27.5111 42.6191 27.988 42.7721 28.333 43.0781C28.6781 43.3809 28.8571 43.7992 28.8701 44.333V46.7646C28.8701 47.2497 28.932 47.6354 29.0557 47.9219V48H28.1084ZM26.6094 47.3115C26.8926 47.3115 27.1611 47.2383 27.415 47.0918C27.6689 46.9453 27.8529 46.7549 27.9668 46.5205V45.4365H27.2588C26.152 45.4365 25.5986 45.7604 25.5986 46.4082C25.5986 46.6914 25.693 46.9128 25.8818 47.0723C26.0706 47.2318 26.3132 47.3115 26.6094 47.3115ZM32.5398 43.5273C32.4031 43.5046 32.255 43.4932 32.0955 43.4932C31.5031 43.4932 31.101 43.7454 30.8895 44.25V48H29.9861V42.7168H30.865L30.8797 43.3271C31.1759 42.8551 31.5958 42.6191 32.1395 42.6191C32.3152 42.6191 32.4487 42.6419 32.5398 42.6875V43.5273ZM35.1695 48.0977C34.4534 48.0977 33.8707 47.8633 33.4215 47.3945C32.9723 46.9225 32.7477 46.2926 32.7477 45.5049V45.3389C32.7477 44.8148 32.8469 44.3477 33.0455 43.9375C33.2473 43.5241 33.5273 43.2018 33.8854 42.9707C34.2467 42.7363 34.6373 42.6191 35.0572 42.6191C35.7441 42.6191 36.2779 42.8454 36.6588 43.2979C37.0396 43.7503 37.2301 44.3981 37.2301 45.2412V45.6172H33.651C33.664 46.138 33.8154 46.5596 34.1051 46.8818C34.398 47.2008 34.7691 47.3604 35.2184 47.3604C35.5374 47.3604 35.8076 47.2952 36.0289 47.165C36.2503 47.0348 36.4439 46.8623 36.61 46.6475L37.1617 47.0771C36.719 47.7575 36.0549 48.0977 35.1695 48.0977ZM35.0572 43.3613C34.6926 43.3613 34.3867 43.4948 34.1393 43.7617C33.8919 44.0254 33.7389 44.3965 33.6803 44.875H36.3268V44.8066C36.3007 44.3477 36.177 43.9928 35.9557 43.7422C35.7343 43.4883 35.4348 43.3613 35.0572 43.3613ZM38.9613 48H38.058V40.5H38.9613V48ZM41.0148 43.3564C41.4152 42.8649 41.9361 42.6191 42.5773 42.6191C43.6939 42.6191 44.257 43.249 44.2668 44.5088V48H43.3635V44.5039C43.3602 44.123 43.2723 43.8415 43.0998 43.6592C42.9305 43.4769 42.6652 43.3857 42.3039 43.3857C42.0109 43.3857 41.7538 43.4639 41.5324 43.6201C41.3111 43.7764 41.1385 43.9814 41.0148 44.2354V48H40.1115V40.5H41.0148V43.3564ZM45.0801 45.3096C45.0801 44.792 45.181 44.3265 45.3828 43.9131C45.5879 43.4997 45.8711 43.1807 46.2324 42.9561C46.597 42.7314 47.012 42.6191 47.4775 42.6191C48.1969 42.6191 48.778 42.8682 49.2207 43.3662C49.6667 43.8643 49.8896 44.5267 49.8896 45.3535V45.417C49.8896 45.9313 49.7904 46.3936 49.5918 46.8037C49.3965 47.2106 49.1149 47.528 48.7471 47.7559C48.3825 47.9837 47.9626 48.0977 47.4873 48.0977C46.7712 48.0977 46.1901 47.8486 45.7441 47.3506C45.3014 46.8525 45.0801 46.1934 45.0801 45.373V45.3096ZM45.9883 45.417C45.9883 46.0029 46.1234 46.4733 46.3936 46.8281C46.667 47.1829 47.0316 47.3604 47.4873 47.3604C47.9463 47.3604 48.3109 47.1813 48.5811 46.8232C48.8512 46.4619 48.9863 45.9574 48.9863 45.3096C48.9863 44.7301 48.848 44.2614 48.5713 43.9033C48.2979 43.542 47.9333 43.3613 47.4775 43.3613C47.0316 43.3613 46.6719 43.5387 46.3984 43.8936C46.125 44.2484 45.9883 44.7562 45.9883 45.417ZM53.7986 46.5986C53.7986 46.3545 53.7059 46.1657 53.5203 46.0322C53.338 45.8955 53.0174 45.7783 52.5584 45.6807C52.1027 45.583 51.7397 45.4658 51.4695 45.3291C51.2026 45.1924 51.004 45.0296 50.8738 44.8408C50.7469 44.652 50.6834 44.4274 50.6834 44.167C50.6834 43.734 50.8657 43.3678 51.2303 43.0684C51.5981 42.7689 52.0669 42.6191 52.6365 42.6191C53.2355 42.6191 53.7205 42.7738 54.0916 43.083C54.4659 43.3923 54.6531 43.7878 54.6531 44.2695H53.7449C53.7449 44.0221 53.6391 43.8089 53.4275 43.6299C53.2192 43.4508 52.9555 43.3613 52.6365 43.3613C52.3077 43.3613 52.0506 43.4329 51.865 43.5762C51.6795 43.7194 51.5867 43.9066 51.5867 44.1377C51.5867 44.3558 51.673 44.5202 51.8455 44.6309C52.018 44.7415 52.3289 44.8473 52.7781 44.9482C53.2306 45.0492 53.5968 45.1696 53.8768 45.3096C54.1567 45.4495 54.3634 45.6188 54.4969 45.8174C54.6336 46.0127 54.702 46.252 54.702 46.5352C54.702 47.0072 54.5131 47.3864 54.1355 47.6729C53.7579 47.9561 53.268 48.0977 52.6658 48.0977C52.2426 48.0977 51.8683 48.0228 51.5428 47.873C51.2172 47.7233 50.9617 47.515 50.7762 47.248C50.5939 46.9779 50.5027 46.6865 50.5027 46.374H51.4061C51.4223 46.6768 51.5428 46.9176 51.7674 47.0967C51.9952 47.2725 52.2947 47.3604 52.6658 47.3604C53.0076 47.3604 53.2811 47.292 53.4861 47.1553C53.6945 47.0153 53.7986 46.8298 53.7986 46.5986ZM16.8822 57.417C16.8822 58.221 16.6983 58.8688 16.3305 59.3604C15.9626 59.8519 15.4646 60.0977 14.8363 60.0977C14.1951 60.0977 13.6905 59.8942 13.3227 59.4873V62.0312H12.4193V54.7168H13.2445L13.2885 55.3027C13.6563 54.847 14.1674 54.6191 14.8217 54.6191C15.4564 54.6191 15.9577 54.8584 16.3256 55.3369C16.6967 55.8154 16.8822 56.4811 16.8822 57.334V57.417ZM15.9789 57.3145C15.9789 56.7188 15.852 56.2484 15.598 55.9033C15.3441 55.5583 14.9958 55.3857 14.5531 55.3857C14.0063 55.3857 13.5961 55.6283 13.3227 56.1133V58.6377C13.5928 59.1195 14.0063 59.3604 14.5629 59.3604C14.9958 59.3604 15.3393 59.1895 15.5932 58.8477C15.8503 58.5026 15.9789 57.9915 15.9789 57.3145ZM20.9963 60C20.9442 59.8958 20.9019 59.7103 20.8693 59.4434C20.4494 59.8796 19.9481 60.0977 19.3654 60.0977C18.8446 60.0977 18.4165 59.9512 18.0812 59.6582C17.7492 59.362 17.5832 58.9876 17.5832 58.5352C17.5832 57.985 17.7915 57.5586 18.2082 57.2559C18.6281 56.9499 19.2173 56.7969 19.9758 56.7969H20.8547V56.3818C20.8547 56.0661 20.7603 55.8154 20.5715 55.6299C20.3827 55.4411 20.1044 55.3467 19.7365 55.3467C19.4143 55.3467 19.1441 55.4281 18.926 55.5908C18.7079 55.7536 18.5988 55.9505 18.5988 56.1816H17.6906C17.6906 55.918 17.7834 55.6641 17.9689 55.4199C18.1577 55.1725 18.4117 54.9772 18.7307 54.834C19.0529 54.6908 19.4061 54.6191 19.7902 54.6191C20.399 54.6191 20.8758 54.7721 21.2209 55.0781C21.5659 55.3809 21.745 55.7992 21.758 56.333V58.7646C21.758 59.2497 21.8199 59.6354 21.9436 59.9219V60H20.9963ZM19.4973 59.3115C19.7805 59.3115 20.049 59.2383 20.3029 59.0918C20.5568 58.9453 20.7408 58.7549 20.8547 58.5205V57.4365H20.1467C19.0399 57.4365 18.4865 57.7604 18.4865 58.4082C18.4865 58.6914 18.5809 58.9128 18.7697 59.0723C18.9585 59.2318 19.201 59.3115 19.4973 59.3115ZM25.4277 55.5273C25.291 55.5046 25.1429 55.4932 24.9834 55.4932C24.391 55.4932 23.9889 55.7454 23.7773 56.25V60H22.874V54.7168H23.7529L23.7676 55.3271C24.0638 54.8551 24.4837 54.6191 25.0273 54.6191C25.2031 54.6191 25.3366 54.6419 25.4277 54.6875V55.5273ZM29.0291 60C28.977 59.8958 28.9347 59.7103 28.9021 59.4434C28.4822 59.8796 27.9809 60.0977 27.3982 60.0977C26.8774 60.0977 26.4493 59.9512 26.1141 59.6582C25.782 59.362 25.616 58.9876 25.616 58.5352C25.616 57.985 25.8243 57.5586 26.241 57.2559C26.6609 56.9499 27.2501 56.7969 28.0086 56.7969H28.8875V56.3818C28.8875 56.0661 28.7931 55.8154 28.6043 55.6299C28.4155 55.4411 28.1372 55.3467 27.7693 55.3467C27.4471 55.3467 27.1769 55.4281 26.9588 55.5908C26.7407 55.7536 26.6316 55.9505 26.6316 56.1816H25.7234C25.7234 55.918 25.8162 55.6641 26.0018 55.4199C26.1906 55.1725 26.4445 54.9772 26.7635 54.834C27.0857 54.6908 27.4389 54.6191 27.823 54.6191C28.4318 54.6191 28.9087 54.7721 29.2537 55.0781C29.5988 55.3809 29.7778 55.7992 29.7908 56.333V58.7646C29.7908 59.2497 29.8527 59.6354 29.9764 59.9219V60H29.0291ZM27.5301 59.3115C27.8133 59.3115 28.0818 59.2383 28.3357 59.0918C28.5896 58.9453 28.7736 58.7549 28.8875 58.5205V57.4365H28.1795C27.0727 57.4365 26.5193 57.7604 26.5193 58.4082C26.5193 58.6914 26.6137 58.9128 26.8025 59.0723C26.9913 59.2318 27.2339 59.3115 27.5301 59.3115ZM36.1635 58.5986C36.1635 58.3545 36.0707 58.1657 35.8852 58.0322C35.7029 57.8955 35.3822 57.7783 34.9232 57.6807C34.4675 57.583 34.1046 57.4658 33.8344 57.3291C33.5674 57.1924 33.3689 57.0296 33.2387 56.8408C33.1117 56.652 33.0482 56.4274 33.0482 56.167C33.0482 55.734 33.2305 55.3678 33.5951 55.0684C33.963 54.7689 34.4317 54.6191 35.0014 54.6191C35.6003 54.6191 36.0854 54.7738 36.4564 55.083C36.8308 55.3923 37.018 55.7878 37.018 56.2695H36.1098C36.1098 56.0221 36.004 55.8089 35.7924 55.6299C35.584 55.4508 35.3204 55.3613 35.0014 55.3613C34.6726 55.3613 34.4154 55.4329 34.2299 55.5762C34.0443 55.7194 33.9516 55.9066 33.9516 56.1377C33.9516 56.3558 34.0378 56.5202 34.2104 56.6309C34.3829 56.7415 34.6937 56.8473 35.143 56.9482C35.5954 57.0492 35.9617 57.1696 36.2416 57.3096C36.5215 57.4495 36.7283 57.6188 36.8617 57.8174C36.9984 58.0127 37.0668 58.252 37.0668 58.5352C37.0668 59.0072 36.878 59.3864 36.5004 59.6729C36.1228 59.9561 35.6329 60.0977 35.0307 60.0977C34.6075 60.0977 34.2331 60.0228 33.9076 59.873C33.5821 59.7233 33.3266 59.515 33.141 59.248C32.9587 58.9779 32.8676 58.6865 32.8676 58.374H33.7709C33.7872 58.6768 33.9076 58.9176 34.1322 59.0967C34.3601 59.2725 34.6596 59.3604 35.0307 59.3604C35.3725 59.3604 35.6459 59.292 35.851 59.1553C36.0593 59.0153 36.1635 58.8298 36.1635 58.5986ZM41.2053 60C41.1532 59.8958 41.1109 59.7103 41.0783 59.4434C40.6584 59.8796 40.1571 60.0977 39.5744 60.0977C39.0536 60.0977 38.6255 59.9512 38.2902 59.6582C37.9582 59.362 37.7922 58.9876 37.7922 58.5352C37.7922 57.985 38.0005 57.5586 38.4172 57.2559C38.8371 56.9499 39.4263 56.7969 40.1848 56.7969H41.0637V56.3818C41.0637 56.0661 40.9693 55.8154 40.7805 55.6299C40.5917 55.4411 40.3133 55.3467 39.9455 55.3467C39.6232 55.3467 39.3531 55.4281 39.135 55.5908C38.9169 55.7536 38.8078 55.9505 38.8078 56.1816H37.8996C37.8996 55.918 37.9924 55.6641 38.1779 55.4199C38.3667 55.1725 38.6206 54.9772 38.9397 54.834C39.2619 54.6908 39.6151 54.6191 39.9992 54.6191C40.6079 54.6191 41.0848 54.7721 41.4299 55.0781C41.7749 55.3809 41.954 55.7992 41.967 56.333V58.7646C41.967 59.2497 42.0288 59.6354 42.1525 59.9219V60H41.2053ZM39.7063 59.3115C39.9895 59.3115 40.258 59.2383 40.5119 59.0918C40.7658 58.9453 40.9497 58.7549 41.0637 58.5205V57.4365H40.3557C39.2489 57.4365 38.6955 57.7604 38.6955 58.4082C38.6955 58.6914 38.7899 58.9128 38.9787 59.0723C39.1675 59.2318 39.41 59.3115 39.7063 59.3115ZM46.3447 59.4775C45.9932 59.891 45.4772 60.0977 44.7969 60.0977C44.2337 60.0977 43.804 59.9349 43.5078 59.6094C43.2148 59.2806 43.0667 58.7956 43.0635 58.1543V54.7168H43.9668V58.1299C43.9668 58.9307 44.2923 59.3311 44.9434 59.3311C45.6335 59.3311 46.0924 59.0739 46.3203 58.5596V54.7168H47.2236V60H46.3643L46.3447 59.4775ZM45.6123 52.5H46.7061L45.3975 53.9355H44.6699L45.6123 52.5ZM48.0809 57.3145C48.0809 56.5039 48.2729 55.8529 48.657 55.3613C49.0411 54.8665 49.5441 54.6191 50.1658 54.6191C50.7843 54.6191 51.2742 54.8307 51.6355 55.2539V52.5H52.5389V60H51.7088L51.6648 59.4336C51.3035 59.8763 50.8006 60.0977 50.1561 60.0977C49.5441 60.0977 49.0444 59.847 48.657 59.3457C48.2729 58.8444 48.0809 58.1901 48.0809 57.3828V57.3145ZM48.9842 57.417C48.9842 58.016 49.1079 58.4847 49.3553 58.8232C49.6027 59.1618 49.9445 59.3311 50.3807 59.3311C50.9536 59.3311 51.3719 59.0739 51.6355 58.5596V56.1328C51.3654 55.6348 50.9503 55.3857 50.3904 55.3857C49.9477 55.3857 49.6027 55.5566 49.3553 55.8984C49.1079 56.2402 48.9842 56.7464 48.9842 57.417ZM55.8375 60.0977C55.1214 60.0977 54.5387 59.8633 54.0895 59.3945C53.6402 58.9225 53.4156 58.2926 53.4156 57.5049V57.3389C53.4156 56.8148 53.5149 56.3477 53.7135 55.9375C53.9153 55.5241 54.1952 55.2018 54.5533 54.9707C54.9146 54.7363 55.3053 54.6191 55.7252 54.6191C56.412 54.6191 56.9459 54.8454 57.3268 55.2979C57.7076 55.7503 57.898 56.3981 57.898 57.2412V57.6172H54.3189C54.332 58.138 54.4833 58.5596 54.773 58.8818C55.066 59.2008 55.4371 59.3604 55.8863 59.3604C56.2053 59.3604 56.4755 59.2952 56.6969 59.165C56.9182 59.0348 57.1119 58.8623 57.2779 58.6475L57.8297 59.0771C57.387 59.7575 56.7229 60.0977 55.8375 60.0977ZM55.7252 55.3613C55.3606 55.3613 55.0546 55.4948 54.8072 55.7617C54.5598 56.0254 54.4068 56.3965 54.3482 56.875H56.9947V56.8066C56.9687 56.3477 56.845 55.9928 56.6236 55.7422C56.4023 55.4883 56.1028 55.3613 55.7252 55.3613Z" fill="#666666"/>
<defs>
<filter id="filter0_d_7838:60115" x="0" y="0" width="70" height="38" filterUnits="userSpaceOnUse" color-interpolation-filters="sRGB">
<feFlood flood-opacity="0" result="BackgroundImageFix"/>
<feColorMatrix in="SourceAlpha" type="matrix" values="0 0 0 0 0 0 0 0 0 0 0 0 0 0 0 0 0 0 127 0" result="hardAlpha"/>
<feOffset dy="1"/>
<feGaussianBlur stdDeviation="1"/>
<feColorMatrix type="matrix" values="0 0 0 0 0 0 0 0 0 0 0 0 0 0 0 0 0 0 0.2 0"/>
<feBlend mode="normal" in2="BackgroundImageFix" result="effect1_dropShadow_7838:60115"/>
<feBlend mode="normal" in="SourceGraphic" in2="effect1_dropShadow_7838:60115" result="shape"/>
</filter>
</defs>
</svg>
