<svg width="66" height="61" viewBox="0 0 66 61" fill="none" xmlns="http://www.w3.org/2000/svg">
<g filter="url(#filter0_d_7838:59947)">
<rect x="2" y="1" width="62" height="30" rx="8" fill="#E7F3F9"/>
<path d="M31.4688 12.9375C31.4688 11.0045 33.0358 9.4375 34.9687 9.4375C36.9017 9.4375 38.4687 11.0045 38.4687 12.9375V22.5625" stroke="#007DC5" stroke-linecap="round" stroke-linejoin="round"/>
<path fill-rule="evenodd" clip-rule="evenodd" d="M28.8438 15.5625C28.8438 14.1128 30.019 12.9375 31.4687 12.9375C32.9185 12.9375 34.0937 14.1128 34.0937 15.5625H28.8438Z" stroke="#007DC5" stroke-linecap="round" stroke-linejoin="round"/>
<path d="M29.2813 17.3125L28.8438 18.625" stroke="#007DC5" stroke-linecap="round" stroke-linejoin="round"/>
<path d="M27.9688 21.25L27.5312 22.5625" stroke="#007DC5" stroke-linecap="round" stroke-linejoin="round"/>
<path d="M33.6562 17.3125L34.0938 18.625" stroke="#007DC5" stroke-linecap="round" stroke-linejoin="round"/>
<path d="M34.9688 21.25L35.4063 22.5625" stroke="#007DC5" stroke-linecap="round" stroke-linejoin="round"/>
<path d="M31.4688 17.3125V18.625" stroke="#007DC5" stroke-linecap="round" stroke-linejoin="round"/>
<path d="M31.4688 22.5625V21.25" stroke="#007DC5" stroke-linecap="round" stroke-linejoin="round"/>
</g>
<path d="M20.226 44V36.8906H22.5502C23.3217 36.8906 23.9011 37.0501 24.2885 37.3691C24.6791 37.6882 24.8744 38.1602 24.8744 38.7852C24.8744 39.1172 24.78 39.4118 24.5912 39.6689C24.4024 39.9229 24.1452 40.1198 23.8197 40.2598C24.2038 40.3672 24.5066 40.5723 24.7279 40.875C24.9525 41.1745 25.0648 41.5326 25.0648 41.9492C25.0648 42.5872 24.8581 43.0885 24.4447 43.4531C24.0313 43.8177 23.447 44 22.6918 44H20.226ZM21.1635 40.6748V43.2334H22.7113C23.1475 43.2334 23.491 43.1211 23.7416 42.8965C23.9955 42.6686 24.1225 42.3561 24.1225 41.959C24.1225 41.1029 23.657 40.6748 22.726 40.6748H21.1635ZM21.1635 39.9229H22.5795C22.9896 39.9229 23.3168 39.8203 23.5609 39.6152C23.8083 39.4102 23.932 39.1318 23.932 38.7803C23.932 38.3896 23.8181 38.1064 23.5902 37.9307C23.3624 37.7516 23.0157 37.6621 22.5502 37.6621H21.1635V39.9229ZM29.2766 44C29.2245 43.8958 29.1822 43.7103 29.1496 43.4434C28.7297 43.8796 28.2284 44.0977 27.6457 44.0977C27.1249 44.0977 26.6968 43.9512 26.3615 43.6582C26.0295 43.362 25.8635 42.9876 25.8635 42.5352C25.8635 41.985 26.0718 41.5586 26.4885 41.2559C26.9084 40.9499 27.4976 40.7969 28.2561 40.7969H29.135V40.3818C29.135 40.0661 29.0406 39.8154 28.8518 39.6299C28.663 39.4411 28.3846 39.3467 28.0168 39.3467C27.6945 39.3467 27.4243 39.4281 27.2062 39.5908C26.9882 39.7536 26.8791 39.9505 26.8791 40.1816H25.9709C25.9709 39.918 26.0637 39.6641 26.2492 39.4199C26.438 39.1725 26.6919 38.9772 27.0109 38.834C27.3332 38.6908 27.6864 38.6191 28.0705 38.6191C28.6792 38.6191 29.1561 38.7721 29.5012 39.0781C29.8462 39.3809 30.0253 39.7992 30.0383 40.333V42.7646C30.0383 43.2497 30.1001 43.6354 30.2238 43.9219V44H29.2766ZM27.7775 43.3115C28.0607 43.3115 28.3293 43.2383 28.5832 43.0918C28.8371 42.9453 29.021 42.7549 29.135 42.5205V41.4365H28.427C27.3202 41.4365 26.7668 41.7604 26.7668 42.4082C26.7668 42.6914 26.8612 42.9128 27.05 43.0723C27.2388 43.2318 27.4813 43.3115 27.7775 43.3115ZM32.0088 38.7168L32.0381 39.3809C32.4417 38.873 32.9691 38.6191 33.6201 38.6191C34.7367 38.6191 35.2998 39.249 35.3096 40.5088V44H34.4062V40.5039C34.403 40.123 34.3151 39.8415 34.1426 39.6592C33.9733 39.4769 33.708 39.3857 33.3467 39.3857C33.0537 39.3857 32.7965 39.4639 32.5752 39.6201C32.3538 39.7764 32.1813 39.9814 32.0576 40.2354V44H31.1543V38.7168H32.0088ZM37.2752 39.3564C37.6756 38.8649 38.1964 38.6191 38.8377 38.6191C39.9542 38.6191 40.5174 39.249 40.5271 40.5088V44H39.6238V40.5039C39.6206 40.123 39.5327 39.8415 39.3602 39.6592C39.1909 39.4769 38.9256 39.3857 38.5643 39.3857C38.2713 39.3857 38.0141 39.4639 37.7928 39.6201C37.5714 39.7764 37.3989 39.9814 37.2752 40.2354V44H36.3719V36.5H37.2752V39.3564ZM41.3404 41.3096C41.3404 40.792 41.4413 40.3265 41.6432 39.9131C41.8482 39.4997 42.1314 39.1807 42.4928 38.9561C42.8574 38.7314 43.2724 38.6191 43.7379 38.6191C44.4573 38.6191 45.0383 38.8682 45.4811 39.3662C45.927 39.8643 46.15 40.5267 46.15 41.3535V41.417C46.15 41.9313 46.0507 42.3936 45.8521 42.8037C45.6568 43.2106 45.3753 43.528 45.0074 43.7559C44.6428 43.9837 44.2229 44.0977 43.7477 44.0977C43.0315 44.0977 42.4505 43.8486 42.0045 43.3506C41.5618 42.8525 41.3404 42.1934 41.3404 41.373V41.3096ZM42.2486 41.417C42.2486 42.0029 42.3837 42.4733 42.6539 42.8281C42.9273 43.1829 43.2919 43.3604 43.7477 43.3604C44.2066 43.3604 44.5712 43.1813 44.8414 42.8232C45.1116 42.4619 45.2467 41.9574 45.2467 41.3096C45.2467 40.7301 45.1083 40.2614 44.8316 39.9033C44.5582 39.542 44.1936 39.3613 43.7379 39.3613C43.2919 39.3613 42.9322 39.5387 42.6588 39.8936C42.3854 40.2484 42.2486 40.7562 42.2486 41.417Z" fill="#666666"/>
<defs>
<filter id="filter0_d_7838:59947" x="0" y="0" width="66" height="34" filterUnits="userSpaceOnUse" color-interpolation-filters="sRGB">
<feFlood flood-opacity="0" result="BackgroundImageFix"/>
<feColorMatrix in="SourceAlpha" type="matrix" values="0 0 0 0 0 0 0 0 0 0 0 0 0 0 0 0 0 0 127 0" result="hardAlpha"/>
<feOffset dy="1"/>
<feGaussianBlur stdDeviation="1"/>
<feColorMatrix type="matrix" values="0 0 0 0 0 0 0 0 0 0 0 0 0 0 0 0 0 0 0.2 0"/>
<feBlend mode="normal" in2="BackgroundImageFix" result="effect1_dropShadow_7838:59947"/>
<feBlend mode="normal" in="SourceGraphic" in2="effect1_dropShadow_7838:59947" result="shape"/>
</filter>
</defs>
</svg>
