<svg width="66" height="61" viewBox="0 0 66 61" fill="none" xmlns="http://www.w3.org/2000/svg">
<g filter="url(#filter0_d_7838:60017)">
<rect x="2" y="1" width="62" height="30" rx="8" fill="#E7F3F9"/>
<rect x="28.3301" y="19.2812" width="5.25" height="3.0625" rx="1.5" stroke="#007DC5" stroke-linecap="round" stroke-linejoin="round"/>
<rect x="28.3301" y="16.2188" width="5.25" height="3.0625" rx="1.5" stroke="#007DC5" stroke-linecap="round" stroke-linejoin="round"/>
<rect x="26.5801" y="13.1562" width="5.25" height="3.0625" rx="1.5" stroke="#007DC5" stroke-linecap="round" stroke-linejoin="round"/>
<rect x="28.3301" y="10.0938" width="5.25" height="3.0625" rx="1.5" stroke="#007DC5" stroke-linecap="round" stroke-linejoin="round"/>
<path d="M37.3633 15.8398L38.2441 22.3428" stroke="#007DC5" stroke-linecap="round" stroke-linejoin="round"/>
<rect x="34.7832" y="13.1016" width="4.375" height="3.0625" rx="1.5" transform="rotate(-7.718 34.7832 13.1016)" stroke="#007DC5" stroke-linecap="round" stroke-linejoin="round"/>
<path d="M35.7676 10.9687V9.65625" stroke="#007DC5" stroke-width="1.5" stroke-linecap="round" stroke-linejoin="round"/>
<path d="M37.5176 11.4062L38.3926 10.5312" stroke="#007DC5" stroke-linecap="round" stroke-linejoin="round"/>
</g>
<path d="M9.88711 44V36.8906H12.2113C12.9828 36.8906 13.5622 37.0501 13.9496 37.3691C14.3402 37.6882 14.5355 38.1602 14.5355 38.7852C14.5355 39.1172 14.4411 39.4118 14.2523 39.6689C14.0635 39.9229 13.8064 40.1198 13.4809 40.2598C13.865 40.3672 14.1677 40.5723 14.3891 40.875C14.6137 41.1745 14.726 41.5326 14.726 41.9492C14.726 42.5872 14.5193 43.0885 14.1059 43.4531C13.6924 43.8177 13.1081 44 12.3529 44H9.88711ZM10.8246 40.6748V43.2334H12.3725C12.8087 43.2334 13.1521 43.1211 13.4027 42.8965C13.6566 42.6686 13.7836 42.3561 13.7836 41.959C13.7836 41.1029 13.3181 40.6748 12.3871 40.6748H10.8246ZM10.8246 39.9229H12.2406C12.6508 39.9229 12.9779 39.8203 13.2221 39.6152C13.4695 39.4102 13.5932 39.1318 13.5932 38.7803C13.5932 38.3896 13.4792 38.1064 13.2514 37.9307C13.0235 37.7516 12.6768 37.6621 12.2113 37.6621H10.8246V39.9229ZM18.2297 39.5273C18.093 39.5046 17.9449 39.4932 17.7854 39.4932C17.1929 39.4932 16.7909 39.7454 16.5793 40.25V44H15.676V38.7168H16.5549L16.5695 39.3271C16.8658 38.8551 17.2857 38.6191 17.8293 38.6191C18.0051 38.6191 18.1385 38.6419 18.2297 38.6875V39.5273ZM19.7461 44H18.8428V38.7168H19.7461V44ZM18.7695 37.3154C18.7695 37.1689 18.8135 37.0452 18.9014 36.9443C18.9925 36.8434 19.126 36.793 19.3018 36.793C19.4775 36.793 19.611 36.8434 19.7021 36.9443C19.7933 37.0452 19.8389 37.1689 19.8389 37.3154C19.8389 37.4619 19.7933 37.584 19.7021 37.6816C19.611 37.7793 19.4775 37.8281 19.3018 37.8281C19.126 37.8281 18.9925 37.7793 18.9014 37.6816C18.8135 37.584 18.7695 37.4619 18.7695 37.3154ZM21.7508 38.7168L21.7801 39.3809C22.1837 38.873 22.7111 38.6191 23.3621 38.6191C24.4786 38.6191 25.0418 39.249 25.0516 40.5088V44H24.1482V40.5039C24.145 40.123 24.0571 39.8415 23.8846 39.6592C23.7153 39.4769 23.45 39.3857 23.0887 39.3857C22.7957 39.3857 22.5385 39.4639 22.3172 39.6201C22.0958 39.7764 21.9233 39.9814 21.7996 40.2354V44H20.8963V38.7168H21.7508ZM25.8941 41.3145C25.8941 40.4844 26.0846 39.8285 26.4654 39.3467C26.8463 38.8617 27.3574 38.6191 27.9986 38.6191C28.6236 38.6191 29.1168 38.8291 29.4781 39.249L29.5172 38.7168H30.3473V46.0312H29.4439V43.5117C29.0794 43.9023 28.5943 44.0977 27.9889 44.0977C27.3508 44.0977 26.8414 43.8503 26.4605 43.3555C26.0829 42.8574 25.8941 42.1982 25.8941 41.3779V41.3145ZM26.7975 41.417C26.7975 42.0225 26.9244 42.4977 27.1783 42.8428C27.4355 43.1878 27.7805 43.3604 28.2135 43.3604C28.7506 43.3604 29.1607 43.1227 29.4439 42.6475V40.0596C29.1575 39.5941 28.7506 39.3613 28.2232 39.3613C27.787 39.3613 27.4404 39.5355 27.1832 39.8838C26.926 40.2288 26.7975 40.7399 26.7975 41.417ZM34.7592 43.4775C34.4076 43.891 33.8917 44.0977 33.2113 44.0977C32.6482 44.0977 32.2185 43.9349 31.9223 43.6094C31.6293 43.2806 31.4812 42.7956 31.4779 42.1543V38.7168H32.3812V42.1299C32.3812 42.9307 32.7068 43.3311 33.3578 43.3311C34.0479 43.3311 34.5069 43.0739 34.7348 42.5596V38.7168H35.6381V44H34.7787L34.7592 43.4775ZM38.9074 44.0977C38.1913 44.0977 37.6086 43.8633 37.1594 43.3945C36.7102 42.9225 36.4855 42.2926 36.4855 41.5049V41.3389C36.4855 40.8148 36.5848 40.3477 36.7834 39.9375C36.9852 39.5241 37.2652 39.2018 37.6232 38.9707C37.9846 38.7363 38.3752 38.6191 38.7951 38.6191C39.482 38.6191 40.0158 38.8454 40.3967 39.2979C40.7775 39.7503 40.968 40.3981 40.968 41.2412V41.6172H37.3889C37.4019 42.138 37.5533 42.5596 37.843 42.8818C38.1359 43.2008 38.507 43.3604 38.9563 43.3604C39.2753 43.3604 39.5454 43.2952 39.7668 43.165C39.9882 43.0348 40.1818 42.8623 40.3479 42.6475L40.8996 43.0771C40.4569 43.7575 39.7928 44.0977 38.9074 44.0977ZM38.7951 39.3613C38.4305 39.3613 38.1245 39.4948 37.8772 39.7617C37.6298 40.0254 37.4768 40.3965 37.4182 40.875H40.0647V40.8066C40.0386 40.3477 39.9149 39.9928 39.6936 39.7422C39.4722 39.4883 39.1727 39.3613 38.7951 39.3613ZM41.498 41.3145C41.498 40.5039 41.6901 39.8529 42.0742 39.3613C42.4583 38.8665 42.9613 38.6191 43.583 38.6191C44.2015 38.6191 44.6914 38.8307 45.0527 39.2539V36.5H45.9561V44H45.126L45.082 43.4336C44.7207 43.8763 44.2178 44.0977 43.5732 44.0977C42.9613 44.0977 42.4616 43.847 42.0742 43.3457C41.6901 42.8444 41.498 42.1901 41.498 41.3828V41.3145ZM42.4014 41.417C42.4014 42.016 42.5251 42.4847 42.7725 42.8232C43.0199 43.1618 43.3617 43.3311 43.7979 43.3311C44.3708 43.3311 44.7891 43.0739 45.0527 42.5596V40.1328C44.7826 39.6348 44.3675 39.3857 43.8076 39.3857C43.3649 39.3857 43.0199 39.5566 42.7725 39.8984C42.5251 40.2402 42.4014 40.7464 42.4014 41.417ZM46.823 41.3096C46.823 40.792 46.924 40.3265 47.1258 39.9131C47.3309 39.4997 47.6141 39.1807 47.9754 38.9561C48.34 38.7314 48.755 38.6191 49.2205 38.6191C49.9399 38.6191 50.521 38.8682 50.9637 39.3662C51.4096 39.8643 51.6326 40.5267 51.6326 41.3535V41.417C51.6326 41.9313 51.5333 42.3936 51.3348 42.8037C51.1395 43.2106 50.8579 43.528 50.49 43.7559C50.1255 43.9837 49.7055 44.0977 49.2303 44.0977C48.5141 44.0977 47.9331 43.8486 47.4871 43.3506C47.0444 42.8525 46.823 42.1934 46.823 41.373V41.3096ZM47.7312 41.417C47.7312 42.0029 47.8663 42.4733 48.1365 42.8281C48.41 43.1829 48.7745 43.3604 49.2303 43.3604C49.6893 43.3604 50.0538 43.1813 50.324 42.8232C50.5942 42.4619 50.7293 41.9574 50.7293 41.3096C50.7293 40.7301 50.5909 40.2614 50.3143 39.9033C50.0408 39.542 49.6762 39.3613 49.2205 39.3613C48.7745 39.3613 48.4148 39.5387 48.1414 39.8936C47.868 40.2484 47.7312 40.7562 47.7312 41.417ZM55.5416 42.5986C55.5416 42.3545 55.4488 42.1657 55.2633 42.0322C55.081 41.8955 54.7604 41.7783 54.3014 41.6807C53.8456 41.583 53.4827 41.4658 53.2125 41.3291C52.9456 41.1924 52.747 41.0296 52.6168 40.8408C52.4898 40.652 52.4264 40.4274 52.4264 40.167C52.4264 39.734 52.6087 39.3678 52.9732 39.0684C53.3411 38.7689 53.8098 38.6191 54.3795 38.6191C54.9785 38.6191 55.4635 38.7738 55.8346 39.083C56.2089 39.3923 56.3961 39.7878 56.3961 40.2695H55.4879C55.4879 40.0221 55.3821 39.8089 55.1705 39.6299C54.9622 39.4508 54.6985 39.3613 54.3795 39.3613C54.0507 39.3613 53.7936 39.4329 53.608 39.5762C53.4225 39.7194 53.3297 39.9066 53.3297 40.1377C53.3297 40.3558 53.416 40.5202 53.5885 40.6309C53.761 40.7415 54.0719 40.8473 54.5211 40.9482C54.9736 41.0492 55.3398 41.1696 55.6197 41.3096C55.8997 41.4495 56.1064 41.6188 56.2398 41.8174C56.3766 42.0127 56.4449 42.252 56.4449 42.5352C56.4449 43.0072 56.2561 43.3864 55.8785 43.6729C55.5009 43.9561 55.011 44.0977 54.4088 44.0977C53.9856 44.0977 53.6113 44.0228 53.2857 43.873C52.9602 43.7233 52.7047 43.515 52.5191 43.248C52.3369 42.9779 52.2457 42.6865 52.2457 42.374H53.149C53.1653 42.6768 53.2857 42.9176 53.5104 43.0967C53.7382 43.2725 54.0377 43.3604 54.4088 43.3604C54.7506 43.3604 55.024 43.292 55.2291 43.1553C55.4374 43.0153 55.5416 42.8298 55.5416 42.5986Z" fill="#666666"/>
<defs>
<filter id="filter0_d_7838:60017" x="0" y="0" width="66" height="34" filterUnits="userSpaceOnUse" color-interpolation-filters="sRGB">
<feFlood flood-opacity="0" result="BackgroundImageFix"/>
<feColorMatrix in="SourceAlpha" type="matrix" values="0 0 0 0 0 0 0 0 0 0 0 0 0 0 0 0 0 0 127 0" result="hardAlpha"/>
<feOffset dy="1"/>
<feGaussianBlur stdDeviation="1"/>
<feColorMatrix type="matrix" values="0 0 0 0 0 0 0 0 0 0 0 0 0 0 0 0 0 0 0.2 0"/>
<feBlend mode="normal" in2="BackgroundImageFix" result="effect1_dropShadow_7838:60017"/>
<feBlend mode="normal" in="SourceGraphic" in2="effect1_dropShadow_7838:60017" result="shape"/>
</filter>
</defs>
</svg>
