<svg width="70" height="65" viewBox="0 0 70 65" fill="none" xmlns="http://www.w3.org/2000/svg">
<g filter="url(#filter0_d_7838:60123)">
<rect x="2" y="1" width="66" height="34" rx="8" fill="#E7F3F9"/>
<path d="M26.6375 19.125C26.5878 18.7521 26.5628 18.3762 26.5625 18C26.5625 13.3401 30.3401 9.5625 35 9.5625" stroke="#007DC5" stroke-linecap="round" stroke-linejoin="round"/>
<path d="M43.364 19.125C43.4137 18.7521 43.4387 18.3762 43.439 18C43.439 15.762 42.5498 13.6156 40.9672 12.0333C39.3845 10.4509 37.238 9.5621 35 9.5625" stroke="#007DC5" stroke-linecap="round" stroke-linejoin="round"/>
<path fill-rule="evenodd" clip-rule="evenodd" d="M41.1883 18.0352C39.5452 18.0367 37.97 18.6911 36.8095 19.8542C35.6489 21.0173 34.998 22.5938 35 24.2369C36.643 24.2351 38.218 23.5807 39.3786 22.4177C40.5391 21.2546 41.19 19.6782 41.1883 18.0352Z" stroke="#007DC5" stroke-linecap="round" stroke-linejoin="round"/>
<path d="M36.6274 20.0438C37.4935 17.5603 36.8643 14.8002 35.0074 12.9375C33.1429 14.8073 32.5164 17.5811 33.3964 20.0708" stroke="#007DC5" stroke-linecap="round" stroke-linejoin="round"/>
<path fill-rule="evenodd" clip-rule="evenodd" d="M35 24.2369C35.0037 20.8158 32.2336 18.0393 28.8125 18.0352C28.8105 19.6781 29.4613 21.2545 30.6217 22.4176C31.7821 23.5807 33.3571 24.2351 35 24.2369V24.2369Z" stroke="#007DC5" stroke-linecap="round" stroke-linejoin="round"/>
<path d="M35 26.4356V24.2344" stroke="#007DC5" stroke-linecap="round" stroke-linejoin="round"/>
<path d="M42.7372 21.3672C42.4632 22.0056 42.1078 22.6058 41.6797 23.1529" stroke="#007DC5" stroke-linecap="round" stroke-linejoin="round"/>
<path d="M40.0539 24.7539C39.5015 25.1742 38.8963 25.5201 38.2539 25.7829" stroke="#007DC5" stroke-linecap="round" stroke-linejoin="round"/>
<path d="M31.7648 25.7829C31.1221 25.5207 30.5169 25.1747 29.9648 24.7539" stroke="#007DC5" stroke-linecap="round" stroke-linejoin="round"/>
<path d="M28.3368 23.1529C27.9085 22.6059 27.5531 22.0057 27.2793 21.3672" stroke="#007DC5" stroke-linecap="round" stroke-linejoin="round"/>
</g>
<path d="M18.4838 45.7441C18.3959 46.4961 18.1176 47.0771 17.6488 47.4873C17.1833 47.8942 16.5632 48.0977 15.7885 48.0977C14.9486 48.0977 14.2748 47.7965 13.767 47.1943C13.2624 46.5921 13.0102 45.7865 13.0102 44.7773V44.0938C13.0102 43.4329 13.1273 42.8519 13.3617 42.3506C13.5993 41.8493 13.9346 41.4652 14.3676 41.1982C14.8005 40.9281 15.3018 40.793 15.8715 40.793C16.6267 40.793 17.2322 41.0046 17.6879 41.4277C18.1436 41.8477 18.4089 42.4303 18.4838 43.1758H17.5414C17.46 42.6094 17.2826 42.1992 17.0092 41.9453C16.739 41.6914 16.3598 41.5645 15.8715 41.5645C15.2725 41.5645 14.8021 41.7858 14.4604 42.2285C14.1218 42.6712 13.9525 43.3011 13.9525 44.1182V44.8066C13.9525 45.5781 14.1137 46.1917 14.4359 46.6475C14.7582 47.1032 15.209 47.3311 15.7885 47.3311C16.3093 47.3311 16.7081 47.2139 16.9848 46.9795C17.2647 46.7419 17.4503 46.3301 17.5414 45.7441H18.4838ZM22.5881 48C22.536 47.8958 22.4937 47.7103 22.4611 47.4434C22.0412 47.8796 21.5399 48.0977 20.9572 48.0977C20.4364 48.0977 20.0083 47.9512 19.673 47.6582C19.341 47.362 19.175 46.9876 19.175 46.5352C19.175 45.985 19.3833 45.5586 19.8 45.2559C20.2199 44.9499 20.8091 44.7969 21.5676 44.7969H22.4465V44.3818C22.4465 44.0661 22.3521 43.8154 22.1633 43.6299C21.9745 43.4411 21.6962 43.3467 21.3283 43.3467C21.0061 43.3467 20.7359 43.4281 20.5178 43.5908C20.2997 43.7536 20.1906 43.9505 20.1906 44.1816H19.2824C19.2824 43.918 19.3752 43.6641 19.5607 43.4199C19.7495 43.1725 20.0034 42.9772 20.3225 42.834C20.6447 42.6908 20.9979 42.6191 21.382 42.6191C21.9908 42.6191 22.4676 42.7721 22.8127 43.0781C23.1577 43.3809 23.3368 43.7992 23.3498 44.333V46.7646C23.3498 47.2497 23.4117 47.6354 23.5354 47.9219V48H22.5881ZM21.0891 47.3115C21.3723 47.3115 21.6408 47.2383 21.8947 47.0918C22.1486 46.9453 22.3326 46.7549 22.4465 46.5205V45.4365H21.7385C20.6317 45.4365 20.0783 45.7604 20.0783 46.4082C20.0783 46.6914 20.1727 46.9128 20.3615 47.0723C20.5503 47.2318 20.7928 47.3115 21.0891 47.3115ZM25.4473 48H24.5439V40.5H25.4473V48ZM27.4471 42.7168L27.4715 43.3027C27.8589 42.847 28.3813 42.6191 29.0389 42.6191C29.7778 42.6191 30.2807 42.9023 30.5477 43.4688C30.7234 43.2148 30.9513 43.0098 31.2313 42.8535C31.5145 42.6973 31.8481 42.6191 32.2322 42.6191C33.3911 42.6191 33.9803 43.2327 33.9998 44.46V48H33.0965V44.5137C33.0965 44.1361 33.0102 43.8545 32.8377 43.6689C32.6652 43.4801 32.3755 43.3857 31.9686 43.3857C31.6333 43.3857 31.3549 43.4867 31.1336 43.6885C30.9122 43.887 30.7837 44.1556 30.7479 44.4941V48H29.8396V44.5381C29.8396 43.7699 29.4637 43.3857 28.7117 43.3857C28.1193 43.3857 27.714 43.638 27.4959 44.1426V48H26.5926V42.7168H27.4471ZM38.3287 48C38.2766 47.8958 38.2343 47.7103 38.2018 47.4434C37.7818 47.8796 37.2805 48.0977 36.6979 48.0977C36.177 48.0977 35.749 47.9512 35.4137 47.6582C35.0816 47.362 34.9156 46.9876 34.9156 46.5352C34.9156 45.985 35.124 45.5586 35.5406 45.2559C35.9605 44.9499 36.5497 44.7969 37.3082 44.7969H38.1871V44.3818C38.1871 44.0661 38.0927 43.8154 37.9039 43.6299C37.7151 43.4411 37.4368 43.3467 37.0689 43.3467C36.7467 43.3467 36.4765 43.4281 36.2584 43.5908C36.0403 43.7536 35.9313 43.9505 35.9313 44.1816H35.023C35.023 43.918 35.1158 43.6641 35.3014 43.4199C35.4902 43.1725 35.7441 42.9772 36.0631 42.834C36.3854 42.6908 36.7385 42.6191 37.1227 42.6191C37.7314 42.6191 38.2083 42.7721 38.5533 43.0781C38.8984 43.3809 39.0774 43.7992 39.0904 44.333V46.7646C39.0904 47.2497 39.1523 47.6354 39.276 47.9219V48H38.3287ZM36.8297 47.3115C37.1129 47.3115 37.3814 47.2383 37.6354 47.0918C37.8893 46.9453 38.0732 46.7549 38.1871 46.5205V45.4365H37.4791C36.3723 45.4365 35.8189 45.7604 35.8189 46.4082C35.8189 46.6914 35.9133 46.9128 36.1021 47.0723C36.291 47.2318 36.5335 47.3115 36.8297 47.3115ZM41.0609 42.7168L41.0902 43.3809C41.4939 42.873 42.0212 42.6191 42.6723 42.6191C43.7888 42.6191 44.352 43.249 44.3617 44.5088V48H43.4584V44.5039C43.4551 44.123 43.3673 43.8415 43.1947 43.6592C43.0255 43.4769 42.7602 43.3857 42.3988 43.3857C42.1059 43.3857 41.8487 43.4639 41.6273 43.6201C41.406 43.7764 41.2335 43.9814 41.1098 44.2354V48H40.2064V42.7168H41.0609ZM46.6496 41.4375V42.7168H47.6359V43.415H46.6496V46.6914C46.6496 46.903 46.6936 47.0625 46.7814 47.1699C46.8693 47.2741 47.0191 47.3262 47.2307 47.3262C47.3348 47.3262 47.4781 47.3066 47.6604 47.2676V48C47.4227 48.0651 47.1916 48.0977 46.967 48.0977C46.5633 48.0977 46.259 47.9756 46.0539 47.7314C45.8488 47.4873 45.7463 47.1406 45.7463 46.6914V43.415H44.7844V42.7168H45.7463V41.4375H46.6496ZM50.5879 48.0977C49.8717 48.0977 49.2891 47.8633 48.8398 47.3945C48.3906 46.9225 48.166 46.2926 48.166 45.5049V45.3389C48.166 44.8148 48.2653 44.3477 48.4639 43.9375C48.6657 43.5241 48.9456 43.2018 49.3037 42.9707C49.665 42.7363 50.0557 42.6191 50.4756 42.6191C51.1624 42.6191 51.6963 42.8454 52.0771 43.2979C52.458 43.7503 52.6484 44.3981 52.6484 45.2412V45.6172H49.0693C49.0824 46.138 49.2337 46.5596 49.5234 46.8818C49.8164 47.2008 50.1875 47.3604 50.6367 47.3604C50.9557 47.3604 51.2259 47.2952 51.4473 47.165C51.6686 47.0348 51.8623 46.8623 52.0283 46.6475L52.5801 47.0771C52.1374 47.7575 51.4733 48.0977 50.5879 48.0977ZM50.4756 43.3613C50.111 43.3613 49.805 43.4948 49.5576 43.7617C49.3102 44.0254 49.1572 44.3965 49.0986 44.875H51.7451V44.8066C51.7191 44.3477 51.5954 43.9928 51.374 43.7422C51.1527 43.4883 50.8532 43.3613 50.4756 43.3613ZM56.4744 46.5986C56.4744 46.3545 56.3816 46.1657 56.1961 46.0322C56.0138 45.8955 55.6932 45.7783 55.2342 45.6807C54.7784 45.583 54.4155 45.4658 54.1453 45.3291C53.8784 45.1924 53.6798 45.0296 53.5496 44.8408C53.4227 44.652 53.3592 44.4274 53.3592 44.167C53.3592 43.734 53.5415 43.3678 53.9061 43.0684C54.2739 42.7689 54.7426 42.6191 55.3123 42.6191C55.9113 42.6191 56.3963 42.7738 56.7674 43.083C57.1417 43.3923 57.3289 43.7878 57.3289 44.2695H56.4207C56.4207 44.0221 56.3149 43.8089 56.1033 43.6299C55.895 43.4508 55.6313 43.3613 55.3123 43.3613C54.9835 43.3613 54.7264 43.4329 54.5408 43.5762C54.3553 43.7194 54.2625 43.9066 54.2625 44.1377C54.2625 44.3558 54.3488 44.5202 54.5213 44.6309C54.6938 44.7415 55.0047 44.8473 55.4539 44.9482C55.9064 45.0492 56.2726 45.1696 56.5525 45.3096C56.8325 45.4495 57.0392 45.6188 57.1727 45.8174C57.3094 46.0127 57.3777 46.252 57.3777 46.5352C57.3777 47.0072 57.1889 47.3864 56.8113 47.6729C56.4337 47.9561 55.9438 48.0977 55.3416 48.0977C54.9184 48.0977 54.5441 48.0228 54.2186 47.873C53.893 47.7233 53.6375 47.515 53.452 47.248C53.2697 46.9779 53.1785 46.6865 53.1785 46.374H54.0818C54.0981 46.6768 54.2186 46.9176 54.4432 47.0967C54.671 47.2725 54.9705 47.3604 55.3416 47.3604C55.6834 47.3604 55.9568 47.292 56.1619 47.1553C56.3702 47.0153 56.4744 46.8298 56.4744 46.5986ZM19.6047 54.7168L19.634 55.3809C20.0376 54.873 20.565 54.6191 21.216 54.6191C22.3326 54.6191 22.8957 55.249 22.9055 56.5088V60H22.0021V56.5039C21.9989 56.123 21.911 55.8415 21.7385 55.6592C21.5692 55.4769 21.3039 55.3857 20.9426 55.3857C20.6496 55.3857 20.3924 55.4639 20.1711 55.6201C19.9497 55.7764 19.7772 55.9814 19.6535 56.2354V60H18.7502V54.7168H19.6047ZM27.2295 60C27.1774 59.8958 27.1351 59.7103 27.1025 59.4434C26.6826 59.8796 26.1813 60.0977 25.5986 60.0977C25.0778 60.0977 24.6497 59.9512 24.3145 59.6582C23.9824 59.362 23.8164 58.9876 23.8164 58.5352C23.8164 57.985 24.0247 57.5586 24.4414 57.2559C24.8613 56.9499 25.4505 56.7969 26.209 56.7969H27.0879V56.3818C27.0879 56.0661 26.9935 55.8154 26.8047 55.6299C26.6159 55.4411 26.3376 55.3467 25.9697 55.3467C25.6475 55.3467 25.3773 55.4281 25.1592 55.5908C24.9411 55.7536 24.832 55.9505 24.832 56.1816H23.9238C23.9238 55.918 24.0166 55.6641 24.2021 55.4199C24.391 55.1725 24.6449 54.9772 24.9639 54.834C25.2861 54.6908 25.6393 54.6191 26.0234 54.6191C26.6322 54.6191 27.109 54.7721 27.4541 55.0781C27.7992 55.3809 27.9782 55.7992 27.9912 56.333V58.7646C27.9912 59.2497 28.0531 59.6354 28.1768 59.9219V60H27.2295ZM25.7305 59.3115C26.0137 59.3115 26.2822 59.2383 26.5361 59.0918C26.79 58.9453 26.974 58.7549 27.0879 58.5205V57.4365H26.3799C25.2731 57.4365 24.7197 57.7604 24.7197 58.4082C24.7197 58.6914 24.8141 58.9128 25.0029 59.0723C25.1917 59.2318 25.4342 59.3115 25.7305 59.3115ZM30.3328 53.4375V54.7168H31.3191V55.415H30.3328V58.6914C30.3328 58.903 30.3768 59.0625 30.4646 59.1699C30.5525 59.2741 30.7023 59.3262 30.9139 59.3262C31.018 59.3262 31.1613 59.3066 31.3436 59.2676V60C31.1059 60.0651 30.8748 60.0977 30.6502 60.0977C30.2465 60.0977 29.9422 59.9756 29.7371 59.7314C29.532 59.4873 29.4295 59.1406 29.4295 58.6914V55.415H28.4676V54.7168H29.4295V53.4375H30.3328ZM35.3404 59.4775C34.9889 59.891 34.4729 60.0977 33.7926 60.0977C33.2294 60.0977 32.7997 59.9349 32.5035 59.6094C32.2105 59.2806 32.0624 58.7956 32.0592 58.1543V54.7168H32.9625V58.1299C32.9625 58.9307 33.288 59.3311 33.9391 59.3311C34.6292 59.3311 35.0882 59.0739 35.316 58.5596V54.7168H36.2193V60H35.36L35.3404 59.4775ZM39.85 55.5273C39.7133 55.5046 39.5652 55.4932 39.4057 55.4932C38.8132 55.4932 38.4112 55.7454 38.1996 56.25V60H37.2963V54.7168H38.1752L38.1898 55.3271C38.4861 54.8551 38.906 54.6191 39.4496 54.6191C39.6254 54.6191 39.7589 54.6419 39.85 54.6875V55.5273ZM43.4514 60C43.3993 59.8958 43.357 59.7103 43.3244 59.4434C42.9045 59.8796 42.4032 60.0977 41.8205 60.0977C41.2997 60.0977 40.8716 59.9512 40.5363 59.6582C40.2043 59.362 40.0383 58.9876 40.0383 58.5352C40.0383 57.985 40.2466 57.5586 40.6633 57.2559C41.0832 56.9499 41.6724 56.7969 42.4309 56.7969H43.3098V56.3818C43.3098 56.0661 43.2154 55.8154 43.0266 55.6299C42.8378 55.4411 42.5594 55.3467 42.1916 55.3467C41.8693 55.3467 41.5992 55.4281 41.3811 55.5908C41.163 55.7536 41.0539 55.9505 41.0539 56.1816H40.1457C40.1457 55.918 40.2385 55.6641 40.424 55.4199C40.6128 55.1725 40.8667 54.9772 41.1857 54.834C41.508 54.6908 41.8612 54.6191 42.2453 54.6191C42.854 54.6191 43.3309 54.7721 43.676 55.0781C44.021 55.3809 44.2001 55.7992 44.2131 56.333V58.7646C44.2131 59.2497 44.2749 59.6354 44.3986 59.9219V60H43.4514ZM41.9523 59.3115C42.2355 59.3115 42.5041 59.2383 42.758 59.0918C43.0119 58.9453 43.1958 58.7549 43.3098 58.5205V57.4365H42.6018C41.495 57.4365 40.9416 57.7604 40.9416 58.4082C40.9416 58.6914 41.036 58.9128 41.2248 59.0723C41.4136 59.2318 41.6561 59.3115 41.9523 59.3115ZM46.3105 60H45.4072V54.7168H46.3105V60ZM45.334 53.3154C45.334 53.1689 45.3779 53.0452 45.4658 52.9443C45.557 52.8434 45.6904 52.793 45.8662 52.793C46.042 52.793 46.1755 52.8434 46.2666 52.9443C46.3577 53.0452 46.4033 53.1689 46.4033 53.3154C46.4033 53.4619 46.3577 53.584 46.2666 53.6816C46.1755 53.7793 46.042 53.8281 45.8662 53.8281C45.6904 53.8281 45.557 53.7793 45.4658 53.6816C45.3779 53.584 45.334 53.4619 45.334 53.3154ZM50.5369 58.5986C50.5369 58.3545 50.4441 58.1657 50.2586 58.0322C50.0763 57.8955 49.7557 57.7783 49.2967 57.6807C48.8409 57.583 48.478 57.4658 48.2078 57.3291C47.9409 57.1924 47.7423 57.0296 47.6121 56.8408C47.4852 56.652 47.4217 56.4274 47.4217 56.167C47.4217 55.734 47.604 55.3678 47.9686 55.0684C48.3364 54.7689 48.8051 54.6191 49.3748 54.6191C49.9738 54.6191 50.4588 54.7738 50.8299 55.083C51.2042 55.3923 51.3914 55.7878 51.3914 56.2695H50.4832C50.4832 56.0221 50.3774 55.8089 50.1658 55.6299C49.9575 55.4508 49.6938 55.3613 49.3748 55.3613C49.046 55.3613 48.7889 55.4329 48.6033 55.5762C48.4178 55.7194 48.325 55.9066 48.325 56.1377C48.325 56.3558 48.4113 56.5202 48.5838 56.6309C48.7563 56.7415 49.0672 56.8473 49.5164 56.9482C49.9689 57.0492 50.3351 57.1696 50.615 57.3096C50.895 57.4495 51.1017 57.6188 51.2352 57.8174C51.3719 58.0127 51.4402 58.252 51.4402 58.5352C51.4402 59.0072 51.2514 59.3864 50.8738 59.6729C50.4962 59.9561 50.0063 60.0977 49.4041 60.0977C48.9809 60.0977 48.6066 60.0228 48.2811 59.873C47.9555 59.7233 47.7 59.515 47.5145 59.248C47.3322 58.9779 47.241 58.6865 47.241 58.374H48.1443C48.1606 58.6768 48.2811 58.9176 48.5057 59.0967C48.7335 59.2725 49.033 59.3604 49.4041 59.3604C49.7459 59.3604 50.0193 59.292 50.2244 59.1553C50.4327 59.0153 50.5369 58.8298 50.5369 58.5986Z" fill="#666666"/>
<defs>
<filter id="filter0_d_7838:60123" x="0" y="0" width="70" height="38" filterUnits="userSpaceOnUse" color-interpolation-filters="sRGB">
<feFlood flood-opacity="0" result="BackgroundImageFix"/>
<feColorMatrix in="SourceAlpha" type="matrix" values="0 0 0 0 0 0 0 0 0 0 0 0 0 0 0 0 0 0 127 0" result="hardAlpha"/>
<feOffset dy="1"/>
<feGaussianBlur stdDeviation="1"/>
<feColorMatrix type="matrix" values="0 0 0 0 0 0 0 0 0 0 0 0 0 0 0 0 0 0 0.2 0"/>
<feBlend mode="normal" in2="BackgroundImageFix" result="effect1_dropShadow_7838:60123"/>
<feBlend mode="normal" in="SourceGraphic" in2="effect1_dropShadow_7838:60123" result="shape"/>
</filter>
</defs>
</svg>
