<svg width="70" height="65" viewBox="0 0 70 65" fill="none" xmlns="http://www.w3.org/2000/svg">
<g filter="url(#filter0_d_7838:60004)">
<rect x="2" y="1" width="66" height="34" rx="8" fill="#E7F3F9"/>
<path d="M31.625 23.0538L38.1898 16.4883" stroke="#007DC5" stroke-linecap="round" stroke-linejoin="round"/>
<path d="M35.9219 15.918L36.1469 18.5295L38.7576 18.7537" stroke="#007DC5" stroke-linecap="round" stroke-linejoin="round"/>
<path d="M33.5352 18.3047L33.7602 20.9162L36.3709 21.1404" stroke="#007DC5" stroke-linecap="round" stroke-linejoin="round"/>
<path fill-rule="evenodd" clip-rule="evenodd" d="M40.4517 26.4273H29.5482C28.2584 26.4733 27.1746 25.467 27.125 24.1773V15.1773C27.1742 13.8875 28.2583 12.8809 29.5482 12.9273H40.4517C41.7417 12.8809 42.8258 13.8875 42.875 15.1773V24.1773C42.8254 25.467 41.7416 26.4733 40.4517 26.4273Z" stroke="#007DC5" stroke-linecap="round" stroke-linejoin="round"/>
<path fill-rule="evenodd" clip-rule="evenodd" d="M38.2145 9.55314H31.7855C31.1209 9.51196 30.5473 10.014 30.5 10.6781V12.9281H39.5V10.6781C39.4527 10.014 38.8791 9.51196 38.2145 9.55314Z" stroke="#007DC5" stroke-linecap="round" stroke-linejoin="round"/>
<path d="M32.75 9.55469V12.9297" stroke="#007DC5" stroke-linecap="round" stroke-linejoin="round"/>
<path d="M35 9.55469V12.9297" stroke="#007DC5" stroke-linecap="round" stroke-linejoin="round"/>
<path d="M37.25 9.55469V12.9297" stroke="#007DC5" stroke-linecap="round" stroke-linejoin="round"/>
</g>
<path d="M8.8334 45.7441C8.74551 46.4961 8.46719 47.0771 7.99844 47.4873C7.53294 47.8942 6.91282 48.0977 6.13808 48.0977C5.29824 48.0977 4.62441 47.7965 4.1166 47.1943C3.61204 46.5921 3.35976 45.7865 3.35976 44.7773V44.0938C3.35976 43.4329 3.47695 42.8519 3.71133 42.3506C3.94896 41.8493 4.28424 41.4652 4.71719 41.1982C5.15013 40.9281 5.65143 40.793 6.22109 40.793C6.9763 40.793 7.58177 41.0046 8.0375 41.4277C8.49323 41.8477 8.75853 42.4303 8.8334 43.1758H7.89101C7.80963 42.6094 7.63223 42.1992 7.35879 41.9453C7.08861 41.6914 6.70937 41.5645 6.22109 41.5645C5.62213 41.5645 5.15176 41.7858 4.80996 42.2285C4.47142 42.6712 4.30215 43.3011 4.30215 44.1182V44.8066C4.30215 45.5781 4.46328 46.1917 4.78555 46.6475C5.10781 47.1032 5.55866 47.3311 6.13808 47.3311C6.65892 47.3311 7.05768 47.2139 7.33437 46.9795C7.61432 46.7419 7.79987 46.3301 7.89101 45.7441H8.8334ZM11.8684 48.0977C11.1522 48.0977 10.5695 47.8633 10.1203 47.3945C9.67109 46.9225 9.44648 46.2926 9.44648 45.5049V45.3389C9.44648 44.8148 9.54577 44.3477 9.74433 43.9375C9.94616 43.5241 10.2261 43.2018 10.5842 42.9707C10.9455 42.7363 11.3361 42.6191 11.7561 42.6191C12.4429 42.6191 12.9768 42.8454 13.3576 43.2979C13.7385 43.7503 13.9289 44.3981 13.9289 45.2412V45.6172H10.3498C10.3628 46.138 10.5142 46.5596 10.8039 46.8818C11.0969 47.2008 11.468 47.3604 11.9172 47.3604C12.2362 47.3604 12.5064 47.2952 12.7277 47.165C12.9491 47.0348 13.1428 46.8623 13.3088 46.6475L13.8605 47.0771C13.4178 47.7575 12.7538 48.0977 11.8684 48.0977ZM11.7561 43.3613C11.3915 43.3613 11.0855 43.4948 10.8381 43.7617C10.5907 44.0254 10.4377 44.3965 10.3791 44.875H13.0256V44.8066C12.9995 44.3477 12.8758 43.9928 12.6545 43.7422C12.4331 43.4883 12.1337 43.3613 11.7561 43.3613ZM17.2324 43.5273C17.0957 43.5046 16.9476 43.4932 16.7881 43.4932C16.1956 43.4932 15.7936 43.7454 15.582 44.25V48H14.6787V42.7168H15.5576L15.5723 43.3271C15.8685 42.8551 16.2884 42.6191 16.832 42.6191C17.0078 42.6191 17.1413 42.6419 17.2324 42.6875V43.5273ZM19.8621 48.0977C19.146 48.0977 18.5633 47.8633 18.1141 47.3945C17.6648 46.9225 17.4402 46.2926 17.4402 45.5049V45.3389C17.4402 44.8148 17.5395 44.3477 17.7381 43.9375C17.9399 43.5241 18.2199 43.2018 18.5779 42.9707C18.9393 42.7363 19.3299 42.6191 19.7498 42.6191C20.4367 42.6191 20.9705 42.8454 21.3514 43.2979C21.7322 43.7503 21.9227 44.3981 21.9227 45.2412V45.6172H18.3436C18.3566 46.138 18.5079 46.5596 18.7977 46.8818C19.0906 47.2008 19.4617 47.3604 19.9109 47.3604C20.2299 47.3604 20.5001 47.2952 20.7215 47.165C20.9428 47.0348 21.1365 46.8623 21.3025 46.6475L21.8543 47.0771C21.4116 47.7575 20.7475 48.0977 19.8621 48.0977ZM19.7498 43.3613C19.3852 43.3613 19.0792 43.4948 18.8318 43.7617C18.5844 44.0254 18.4314 44.3965 18.3729 44.875H21.0193V44.8066C20.9933 44.3477 20.8696 43.9928 20.6482 43.7422C20.4269 43.4883 20.1274 43.3613 19.7498 43.3613ZM25.9342 48C25.8821 47.8958 25.8398 47.7103 25.8072 47.4434C25.3873 47.8796 24.886 48.0977 24.3033 48.0977C23.7825 48.0977 23.3544 47.9512 23.0191 47.6582C22.6871 47.362 22.5211 46.9876 22.5211 46.5352C22.5211 45.985 22.7294 45.5586 23.1461 45.2559C23.566 44.9499 24.1552 44.7969 24.9137 44.7969H25.7926V44.3818C25.7926 44.0661 25.6982 43.8154 25.5094 43.6299C25.3206 43.4411 25.0423 43.3467 24.6744 43.3467C24.3521 43.3467 24.082 43.4281 23.8639 43.5908C23.6458 43.7536 23.5367 43.9505 23.5367 44.1816H22.6285C22.6285 43.918 22.7213 43.6641 22.9068 43.4199C23.0956 43.1725 23.3495 42.9772 23.6686 42.834C23.9908 42.6908 24.344 42.6191 24.7281 42.6191C25.3368 42.6191 25.8137 42.7721 26.1588 43.0781C26.5038 43.3809 26.6829 43.7992 26.6959 44.333V46.7646C26.6959 47.2497 26.7577 47.6354 26.8814 47.9219V48H25.9342ZM24.4352 47.3115C24.7184 47.3115 24.9869 47.2383 25.2408 47.0918C25.4947 46.9453 25.6786 46.7549 25.7926 46.5205V45.4365H25.0846C23.9778 45.4365 23.4244 45.7604 23.4244 46.4082C23.4244 46.6914 23.5188 46.9128 23.7076 47.0723C23.8964 47.2318 24.1389 47.3115 24.4352 47.3115ZM28.7934 48H27.89V42.7168H28.7934V48ZM27.8168 41.3154C27.8168 41.1689 27.8607 41.0452 27.9486 40.9443C28.0398 40.8434 28.1732 40.793 28.349 40.793C28.5248 40.793 28.6583 40.8434 28.7494 40.9443C28.8406 41.0452 28.8861 41.1689 28.8861 41.3154C28.8861 41.4619 28.8406 41.584 28.7494 41.6816C28.6583 41.7793 28.5248 41.8281 28.349 41.8281C28.1732 41.8281 28.0398 41.7793 27.9486 41.6816C27.8607 41.584 27.8168 41.4619 27.8168 41.3154ZM33.0197 46.5986C33.0197 46.3545 32.927 46.1657 32.7414 46.0322C32.5591 45.8955 32.2385 45.7783 31.7795 45.6807C31.3238 45.583 30.9608 45.4658 30.6906 45.3291C30.4237 45.1924 30.2251 45.0296 30.0949 44.8408C29.968 44.652 29.9045 44.4274 29.9045 44.167C29.9045 43.734 30.0868 43.3678 30.4514 43.0684C30.8192 42.7689 31.288 42.6191 31.8576 42.6191C32.4566 42.6191 32.9416 42.7738 33.3127 43.083C33.687 43.3923 33.8742 43.7878 33.8742 44.2695H32.966C32.966 44.0221 32.8602 43.8089 32.6486 43.6299C32.4403 43.4508 32.1766 43.3613 31.8576 43.3613C31.5288 43.3613 31.2717 43.4329 31.0861 43.5762C30.9006 43.7194 30.8078 43.9066 30.8078 44.1377C30.8078 44.3558 30.8941 44.5202 31.0666 44.6309C31.2391 44.7415 31.55 44.8473 31.9992 44.9482C32.4517 45.0492 32.8179 45.1696 33.0979 45.3096C33.3778 45.4495 33.5845 45.6188 33.718 45.8174C33.8547 46.0127 33.923 46.252 33.923 46.5352C33.923 47.0072 33.7342 47.3864 33.3566 47.6729C32.979 47.9561 32.4891 48.0977 31.8869 48.0977C31.4637 48.0977 31.0894 48.0228 30.7639 47.873C30.4383 47.7233 30.1828 47.515 29.9973 47.248C29.815 46.9779 29.7238 46.6865 29.7238 46.374H30.6271C30.6434 46.6768 30.7639 46.9176 30.9885 47.0967C31.2163 47.2725 31.5158 47.3604 31.8869 47.3604C32.2287 47.3604 32.5021 47.292 32.7072 47.1553C32.9156 47.0153 33.0197 46.8298 33.0197 46.5986ZM39.1727 48.0977C38.4565 48.0977 37.8738 47.8633 37.4246 47.3945C36.9754 46.9225 36.7508 46.2926 36.7508 45.5049V45.3389C36.7508 44.8148 36.8501 44.3477 37.0486 43.9375C37.2505 43.5241 37.5304 43.2018 37.8885 42.9707C38.2498 42.7363 38.6404 42.6191 39.0603 42.6191C39.7472 42.6191 40.2811 42.8454 40.6619 43.2979C41.0428 43.7503 41.2332 44.3981 41.2332 45.2412V45.6172H37.6541C37.6671 46.138 37.8185 46.5596 38.1082 46.8818C38.4012 47.2008 38.7723 47.3604 39.2215 47.3604C39.5405 47.3604 39.8107 47.2952 40.032 47.165C40.2534 47.0348 40.4471 46.8623 40.6131 46.6475L41.1648 47.0771C40.7221 47.7575 40.0581 48.0977 39.1727 48.0977ZM39.0603 43.3613C38.6958 43.3613 38.3898 43.4948 38.1424 43.7617C37.895 44.0254 37.742 44.3965 37.6834 44.875H40.3299V44.8066C40.3038 44.3477 40.1801 43.9928 39.9588 43.7422C39.7374 43.4883 39.438 43.3613 39.0603 43.3613ZM44.4662 48V43.415H43.6312V42.7168H44.4662V42.2676C44.4662 41.6784 44.6339 41.2194 44.9691 40.8906C45.3077 40.5618 45.7846 40.3975 46.3998 40.3975C46.7644 40.3975 47.225 40.4967 47.7816 40.6953L47.6303 41.457C47.2234 41.2943 46.836 41.2129 46.4682 41.2129C46.0808 41.2129 45.8008 41.3008 45.6283 41.4766C45.459 41.6491 45.3744 41.9095 45.3744 42.2578V42.7168H46.4535V43.415H45.3744V48H44.4662ZM48.2309 48H47.3227V42.7168H48.2309V48ZM53.8732 45.417C53.8732 46.2243 53.6877 46.8737 53.3166 47.3652C52.9455 47.8535 52.4475 48.0977 51.8225 48.0977C51.1551 48.0977 50.6392 47.8617 50.2746 47.3896L50.2307 48H49.4006V40.5H50.3039V43.2979C50.6685 42.8454 51.1714 42.6191 51.8127 42.6191C52.454 42.6191 52.9569 42.8617 53.3215 43.3467C53.6893 43.8317 53.8732 44.4958 53.8732 45.3389V45.417ZM52.9699 45.3145C52.9699 44.6992 52.8511 44.224 52.6135 43.8887C52.3758 43.5534 52.034 43.3857 51.5881 43.3857C50.9924 43.3857 50.5643 43.6624 50.3039 44.2158V46.501C50.5806 47.0544 51.0119 47.3311 51.5979 47.3311C52.0308 47.3311 52.3677 47.1634 52.6086 46.8281C52.8495 46.4928 52.9699 45.9883 52.9699 45.3145ZM57.2695 43.5273C57.1328 43.5046 56.9847 43.4932 56.8252 43.4932C56.2327 43.4932 55.8307 43.7454 55.6191 44.25V48H54.7158V42.7168H55.5947L55.6094 43.3271C55.9056 42.8551 56.3255 42.6191 56.8691 42.6191C57.0449 42.6191 57.1784 42.6419 57.2695 42.6875V43.5273ZM60.8709 48C60.8188 47.8958 60.7765 47.7103 60.7439 47.4434C60.324 47.8796 59.8227 48.0977 59.24 48.0977C58.7192 48.0977 58.2911 47.9512 57.9559 47.6582C57.6238 47.362 57.4578 46.9876 57.4578 46.5352C57.4578 45.985 57.6661 45.5586 58.0828 45.2559C58.5027 44.9499 59.0919 44.7969 59.8504 44.7969H60.7293V44.3818C60.7293 44.0661 60.6349 43.8154 60.4461 43.6299C60.2573 43.4411 59.979 43.3467 59.6111 43.3467C59.2889 43.3467 59.0187 43.4281 58.8006 43.5908C58.5825 43.7536 58.4734 43.9505 58.4734 44.1816H57.5652C57.5652 43.918 57.658 43.6641 57.8436 43.4199C58.0324 43.1725 58.2863 42.9772 58.6053 42.834C58.9275 42.6908 59.2807 42.6191 59.6648 42.6191C60.2736 42.6191 60.7505 42.7721 61.0955 43.0781C61.4406 43.3809 61.6196 43.7992 61.6326 44.333V46.7646C61.6326 47.2497 61.6945 47.6354 61.8182 47.9219V48H60.8709ZM59.3719 47.3115C59.6551 47.3115 59.9236 47.2383 60.1775 47.0918C60.4314 46.9453 60.6154 46.7549 60.7293 46.5205V45.4365H60.0213C58.9145 45.4365 58.3611 45.7604 58.3611 46.4082C58.3611 46.6914 58.4555 46.9128 58.6443 47.0723C58.8331 47.2318 59.0756 47.3115 59.3719 47.3115ZM65.8248 46.5986C65.8248 46.3545 65.732 46.1657 65.5465 46.0322C65.3642 45.8955 65.0436 45.7783 64.5846 45.6807C64.1288 45.583 63.7659 45.4658 63.4957 45.3291C63.2288 45.1924 63.0302 45.0296 62.9 44.8408C62.773 44.652 62.7096 44.4274 62.7096 44.167C62.7096 43.734 62.8919 43.3678 63.2564 43.0684C63.6243 42.7689 64.093 42.6191 64.6627 42.6191C65.2617 42.6191 65.7467 42.7738 66.1178 43.083C66.4921 43.3923 66.6793 43.7878 66.6793 44.2695H65.7711C65.7711 44.0221 65.6653 43.8089 65.4537 43.6299C65.2454 43.4508 64.9817 43.3613 64.6627 43.3613C64.3339 43.3613 64.0768 43.4329 63.8912 43.5762C63.7057 43.7194 63.6129 43.9066 63.6129 44.1377C63.6129 44.3558 63.6992 44.5202 63.8717 44.6309C64.0442 44.7415 64.3551 44.8473 64.8043 44.9482C65.2568 45.0492 65.623 45.1696 65.9029 45.3096C66.1829 45.4495 66.3896 45.6188 66.523 45.8174C66.6598 46.0127 66.7281 46.252 66.7281 46.5352C66.7281 47.0072 66.5393 47.3864 66.1617 47.6729C65.7841 47.9561 65.2942 48.0977 64.692 48.0977C64.2688 48.0977 63.8945 48.0228 63.5689 47.873C63.2434 47.7233 62.9879 47.515 62.8023 47.248C62.62 46.9779 62.5289 46.6865 62.5289 46.374H63.4322C63.4485 46.6768 63.5689 46.9176 63.7936 47.0967C64.0214 47.2725 64.3209 47.3604 64.692 47.3604C65.0338 47.3604 65.3072 47.292 65.5123 47.1553C65.7206 47.0153 65.8248 46.8298 65.8248 46.5986Z" fill="#666666"/>
<defs>
<filter id="filter0_d_7838:60004" x="0" y="0" width="70" height="38" filterUnits="userSpaceOnUse" color-interpolation-filters="sRGB">
<feFlood flood-opacity="0" result="BackgroundImageFix"/>
<feColorMatrix in="SourceAlpha" type="matrix" values="0 0 0 0 0 0 0 0 0 0 0 0 0 0 0 0 0 0 127 0" result="hardAlpha"/>
<feOffset dy="1"/>
<feGaussianBlur stdDeviation="1"/>
<feColorMatrix type="matrix" values="0 0 0 0 0 0 0 0 0 0 0 0 0 0 0 0 0 0 0.2 0"/>
<feBlend mode="normal" in2="BackgroundImageFix" result="effect1_dropShadow_7838:60004"/>
<feBlend mode="normal" in="SourceGraphic" in2="effect1_dropShadow_7838:60004" result="shape"/>
</filter>
</defs>
</svg>
