<svg width="70" height="65" viewBox="0 0 70 65" fill="none" xmlns="http://www.w3.org/2000/svg">
<g filter="url(#filter0_d_7838:60127)">
<rect x="2" y="1" width="66" height="34" rx="8" fill="#E7F3F9"/>
<path d="M33.3125 25.6992C31.7628 26.2452 30.0445 26.0059 28.7031 25.057C27.3617 24.1082 26.5637 22.5677 26.5625 20.9247C26.5625 17.2722 29.8985 11.7657 31.1547 9.82467C31.257 9.66382 31.4344 9.56641 31.625 9.56641C31.8156 9.56641 31.993 9.66382 32.0952 9.82467C33.2099 11.5427 34.2055 13.3352 35.075 15.1894" stroke="#007DC5" stroke-linecap="round" stroke-linejoin="round"/>
<path d="M31.625 23.736C30.0726 23.736 28.8137 22.4782 28.8125 20.9258" stroke="#007DC5" stroke-linecap="round" stroke-linejoin="round"/>
<ellipse cx="37.8125" cy="20.8125" rx="3.9375" ry="3.9375" stroke="#007DC5" stroke-linecap="round" stroke-linejoin="round"/>
<path d="M43.4367 26.4387L40.5957 23.5977" stroke="#007DC5" stroke-linecap="round" stroke-linejoin="round"/>
<path d="M36.6875 19.4062C36.8428 19.4062 36.9688 19.5322 36.9688 19.6875" stroke="#007DC5" stroke-linecap="round" stroke-linejoin="round"/>
<path d="M36.4062 19.6875C36.4062 19.5322 36.5322 19.4062 36.6875 19.4062" stroke="#007DC5" stroke-linecap="round" stroke-linejoin="round"/>
<path d="M36.6875 19.9688C36.5322 19.9688 36.4062 19.8428 36.4062 19.6875" stroke="#007DC5" stroke-linecap="round" stroke-linejoin="round"/>
<path d="M36.9688 19.6875C36.9688 19.8428 36.8428 19.9688 36.6875 19.9688" stroke="#007DC5" stroke-linecap="round" stroke-linejoin="round"/>
<path d="M38.9375 21.6562C39.0928 21.6562 39.2188 21.7822 39.2188 21.9375" stroke="#007DC5" stroke-linecap="round" stroke-linejoin="round"/>
<path d="M38.6562 21.9375C38.6562 21.7822 38.7822 21.6562 38.9375 21.6562" stroke="#007DC5" stroke-linecap="round" stroke-linejoin="round"/>
<path d="M38.9375 22.2188C38.7822 22.2188 38.6562 22.0928 38.6562 21.9375" stroke="#007DC5" stroke-linecap="round" stroke-linejoin="round"/>
<path d="M39.2188 21.9375C39.2188 22.0928 39.0928 22.2188 38.9375 22.2188" stroke="#007DC5" stroke-linecap="round" stroke-linejoin="round"/>
</g>
<path d="M16.4094 45.7441C16.3215 46.4961 16.0432 47.0771 15.5744 47.4873C15.1089 47.8942 14.4888 48.0977 13.7141 48.0977C12.8742 48.0977 12.2004 47.7965 11.6926 47.1943C11.188 46.5921 10.9357 45.7865 10.9357 44.7773V44.0938C10.9357 43.4329 11.0529 42.8519 11.2873 42.3506C11.5249 41.8493 11.8602 41.4652 12.2932 41.1982C12.7261 40.9281 13.2274 40.793 13.7971 40.793C14.5523 40.793 15.1577 41.0046 15.6135 41.4277C16.0692 41.8477 16.3345 42.4303 16.4094 43.1758H15.467C15.3856 42.6094 15.2082 42.1992 14.9348 41.9453C14.6646 41.6914 14.2854 41.5645 13.7971 41.5645C13.1981 41.5645 12.7277 41.7858 12.3859 42.2285C12.0474 42.6712 11.8781 43.3011 11.8781 44.1182V44.8066C11.8781 45.5781 12.0393 46.1917 12.3615 46.6475C12.6838 47.1032 13.1346 47.3311 13.7141 47.3311C14.2349 47.3311 14.6337 47.2139 14.9104 46.9795C15.1903 46.7419 15.3758 46.3301 15.467 45.7441H16.4094ZM17.0127 45.3096C17.0127 44.792 17.1136 44.3265 17.3154 43.9131C17.5205 43.4997 17.8037 43.1807 18.165 42.9561C18.5296 42.7314 18.9447 42.6191 19.4102 42.6191C20.1296 42.6191 20.7106 42.8682 21.1533 43.3662C21.5993 43.8643 21.8223 44.5267 21.8223 45.3535V45.417C21.8223 45.9313 21.723 46.3936 21.5244 46.8037C21.3291 47.2106 21.0475 47.528 20.6797 47.7559C20.3151 47.9837 19.8952 48.0977 19.4199 48.0977C18.7038 48.0977 18.1227 47.8486 17.6768 47.3506C17.234 46.8525 17.0127 46.1934 17.0127 45.373V45.3096ZM17.9209 45.417C17.9209 46.0029 18.056 46.4733 18.3262 46.8281C18.5996 47.1829 18.9642 47.3604 19.4199 47.3604C19.8789 47.3604 20.2435 47.1813 20.5137 46.8232C20.7839 46.4619 20.9189 45.9574 20.9189 45.3096C20.9189 44.7301 20.7806 44.2614 20.5039 43.9033C20.2305 43.542 19.8659 43.3613 19.4102 43.3613C18.9642 43.3613 18.6045 43.5387 18.3311 43.8936C18.0576 44.2484 17.9209 44.7562 17.9209 45.417ZM23.6365 48H22.7332V40.5H23.6365V48ZM26.9791 48.0977C26.263 48.0977 25.6803 47.8633 25.2311 47.3945C24.7818 46.9225 24.5572 46.2926 24.5572 45.5049V45.3389C24.5572 44.8148 24.6565 44.3477 24.8551 43.9375C25.0569 43.5241 25.3368 43.2018 25.6949 42.9707C26.0562 42.7363 26.4469 42.6191 26.8668 42.6191C27.5536 42.6191 28.0875 42.8454 28.4684 43.2979C28.8492 43.7503 29.0396 44.3981 29.0396 45.2412V45.6172H25.4605C25.4736 46.138 25.6249 46.5596 25.9146 46.8818C26.2076 47.2008 26.5787 47.3604 27.0279 47.3604C27.3469 47.3604 27.6171 47.2952 27.8385 47.165C28.0598 47.0348 28.2535 46.8623 28.4195 46.6475L28.9713 47.0771C28.5286 47.7575 27.8645 48.0977 26.9791 48.0977ZM26.8668 43.3613C26.5022 43.3613 26.1962 43.4948 25.9488 43.7617C25.7014 44.0254 25.5484 44.3965 25.4898 44.875H28.1363V44.8066C28.1103 44.3477 27.9866 43.9928 27.7652 43.7422C27.5439 43.4883 27.2444 43.3613 26.8668 43.3613ZM32.8656 46.5986C32.8656 46.3545 32.7729 46.1657 32.5873 46.0322C32.405 45.8955 32.0844 45.7783 31.6254 45.6807C31.1697 45.583 30.8067 45.4658 30.5365 45.3291C30.2696 45.1924 30.071 45.0296 29.9408 44.8408C29.8139 44.652 29.7504 44.4274 29.7504 44.167C29.7504 43.734 29.9327 43.3678 30.2973 43.0684C30.6651 42.7689 31.1339 42.6191 31.7035 42.6191C32.3025 42.6191 32.7875 42.7738 33.1586 43.083C33.5329 43.3923 33.7201 43.7878 33.7201 44.2695H32.8119C32.8119 44.0221 32.7061 43.8089 32.4945 43.6299C32.2862 43.4508 32.0225 43.3613 31.7035 43.3613C31.3747 43.3613 31.1176 43.4329 30.932 43.5762C30.7465 43.7194 30.6537 43.9066 30.6537 44.1377C30.6537 44.3558 30.74 44.5202 30.9125 44.6309C31.085 44.7415 31.3959 44.8473 31.8451 44.9482C32.2976 45.0492 32.6638 45.1696 32.9437 45.3096C33.2237 45.4495 33.4304 45.6188 33.5639 45.8174C33.7006 46.0127 33.7689 46.252 33.7689 46.5352C33.7689 47.0072 33.5801 47.3864 33.2025 47.6729C32.8249 47.9561 32.335 48.0977 31.7328 48.0977C31.3096 48.0977 30.9353 48.0228 30.6098 47.873C30.2842 47.7233 30.0287 47.515 29.8432 47.248C29.6609 46.9779 29.5697 46.6865 29.5697 46.374H30.473C30.4893 46.6768 30.6098 46.9176 30.8344 47.0967C31.0622 47.2725 31.3617 47.3604 31.7328 47.3604C32.0746 47.3604 32.348 47.292 32.5531 47.1553C32.7615 47.0153 32.8656 46.8298 32.8656 46.5986ZM35.8713 41.4375V42.7168H36.8576V43.415H35.8713V46.6914C35.8713 46.903 35.9152 47.0625 36.0031 47.1699C36.091 47.2741 36.2408 47.3262 36.4523 47.3262C36.5565 47.3262 36.6997 47.3066 36.882 47.2676V48C36.6444 48.0651 36.4133 48.0977 36.1887 48.0977C35.785 48.0977 35.4807 47.9756 35.2756 47.7314C35.0705 47.4873 34.968 47.1406 34.968 46.6914V43.415H34.0061V42.7168H34.968V41.4375H35.8713ZM39.8096 48.0977C39.0934 48.0977 38.5107 47.8633 38.0615 47.3945C37.6123 46.9225 37.3877 46.2926 37.3877 45.5049V45.3389C37.3877 44.8148 37.487 44.3477 37.6855 43.9375C37.8874 43.5241 38.1673 43.2018 38.5254 42.9707C38.8867 42.7363 39.2773 42.6191 39.6973 42.6191C40.3841 42.6191 40.918 42.8454 41.2988 43.2979C41.6797 43.7503 41.8701 44.3981 41.8701 45.2412V45.6172H38.291C38.304 46.138 38.4554 46.5596 38.7451 46.8818C39.0381 47.2008 39.4092 47.3604 39.8584 47.3604C40.1774 47.3604 40.4476 47.2952 40.6689 47.165C40.8903 47.0348 41.084 46.8623 41.25 46.6475L41.8018 47.0771C41.359 47.7575 40.695 48.0977 39.8096 48.0977ZM39.6973 43.3613C39.3327 43.3613 39.0267 43.4948 38.7793 43.7617C38.5319 44.0254 38.3789 44.3965 38.3203 44.875H40.9668V44.8066C40.9408 44.3477 40.8171 43.9928 40.5957 43.7422C40.3743 43.4883 40.0749 43.3613 39.6973 43.3613ZM45.1736 43.5273C45.0369 43.5046 44.8888 43.4932 44.7293 43.4932C44.1368 43.4932 43.7348 43.7454 43.5232 44.25V48H42.6199V42.7168H43.4988L43.5135 43.3271C43.8097 42.8551 44.2296 42.6191 44.7732 42.6191C44.949 42.6191 45.0825 42.6419 45.1736 42.6875V43.5273ZM45.3717 45.3096C45.3717 44.792 45.4726 44.3265 45.6744 43.9131C45.8795 43.4997 46.1627 43.1807 46.524 42.9561C46.8886 42.7314 47.3036 42.6191 47.7691 42.6191C48.4885 42.6191 49.0696 42.8682 49.5123 43.3662C49.9583 43.8643 50.1812 44.5267 50.1812 45.3535V45.417C50.1812 45.9313 50.082 46.3936 49.8834 46.8037C49.6881 47.2106 49.4065 47.528 49.0387 47.7559C48.6741 47.9837 48.2542 48.0977 47.7789 48.0977C47.0628 48.0977 46.4817 47.8486 46.0357 47.3506C45.593 46.8525 45.3717 46.1934 45.3717 45.373V45.3096ZM46.2799 45.417C46.2799 46.0029 46.415 46.4733 46.6852 46.8281C46.9586 47.1829 47.3232 47.3604 47.7789 47.3604C48.2379 47.3604 48.6025 47.1813 48.8727 46.8232C49.1428 46.4619 49.2779 45.9574 49.2779 45.3096C49.2779 44.7301 49.1396 44.2614 48.8629 43.9033C48.5895 43.542 48.2249 43.3613 47.7691 43.3613C47.3232 43.3613 46.9635 43.5387 46.69 43.8936C46.4166 44.2484 46.2799 44.7562 46.2799 45.417ZM51.9955 48H51.0922V40.5H51.9955V48ZM57.5186 48.0977C56.8024 48.0977 56.2197 47.8633 55.7705 47.3945C55.3213 46.9225 55.0967 46.2926 55.0967 45.5049V45.3389C55.0967 44.8148 55.196 44.3477 55.3945 43.9375C55.5964 43.5241 55.8763 43.2018 56.2344 42.9707C56.5957 42.7363 56.9863 42.6191 57.4062 42.6191C58.0931 42.6191 58.627 42.8454 59.0078 43.2979C59.3887 43.7503 59.5791 44.3981 59.5791 45.2412V45.6172H56C56.013 46.138 56.1644 46.5596 56.4541 46.8818C56.7471 47.2008 57.1182 47.3604 57.5674 47.3604C57.8864 47.3604 58.1566 47.2952 58.3779 47.165C58.5993 47.0348 58.793 46.8623 58.959 46.6475L59.5107 47.0771C59.068 47.7575 58.404 48.0977 57.5186 48.0977ZM57.4062 43.3613C57.0417 43.3613 56.7357 43.4948 56.4883 43.7617C56.2409 44.0254 56.0879 44.3965 56.0293 44.875H58.6758V44.8066C58.6497 44.3477 58.526 43.9928 58.3047 43.7422C58.0833 43.4883 57.7839 43.3613 57.4062 43.3613ZM11.408 53.4375V54.7168H12.3943V55.415H11.408V58.6914C11.408 58.903 11.452 59.0625 11.5398 59.1699C11.6277 59.2741 11.7775 59.3262 11.9891 59.3262C12.0932 59.3262 12.2365 59.3066 12.4188 59.2676V60C12.1811 60.0651 11.95 60.0977 11.7254 60.0977C11.3217 60.0977 11.0174 59.9756 10.8123 59.7314C10.6072 59.4873 10.5047 59.1406 10.5047 58.6914V55.415H9.54277V54.7168H10.5047V53.4375H11.408ZM15.7076 55.5273C15.5709 55.5046 15.4228 55.4932 15.2633 55.4932C14.6708 55.4932 14.2688 55.7454 14.0572 56.25V60H13.1539V54.7168H14.0328L14.0475 55.3271C14.3437 54.8551 14.7636 54.6191 15.3072 54.6191C15.483 54.6191 15.6165 54.6419 15.7076 54.6875V55.5273ZM17.224 60H16.3207V54.7168H17.224V60ZM16.2475 53.3154C16.2475 53.1689 16.2914 53.0452 16.3793 52.9443C16.4704 52.8434 16.6039 52.793 16.7797 52.793C16.9555 52.793 17.0889 52.8434 17.1801 52.9443C17.2712 53.0452 17.3168 53.1689 17.3168 53.3154C17.3168 53.4619 17.2712 53.584 17.1801 53.6816C17.0889 53.7793 16.9555 53.8281 16.7797 53.8281C16.6039 53.8281 16.4704 53.7793 16.3793 53.6816C16.2914 53.584 16.2475 53.4619 16.2475 53.3154ZM18.1594 57.3145C18.1594 56.4909 18.3498 55.8366 18.7307 55.3516C19.1115 54.8633 19.6161 54.6191 20.2443 54.6191C20.8889 54.6191 21.3918 54.847 21.7531 55.3027L21.7971 54.7168H22.6223V59.873C22.6223 60.5566 22.4188 61.0954 22.0119 61.4893C21.6083 61.8831 21.0646 62.0801 20.3811 62.0801C20.0002 62.0801 19.6275 61.9987 19.2629 61.8359C18.8983 61.6732 18.62 61.4502 18.4279 61.167L18.8967 60.625C19.2841 61.1035 19.7577 61.3428 20.3176 61.3428C20.757 61.3428 21.0988 61.2191 21.343 60.9717C21.5904 60.7243 21.7141 60.376 21.7141 59.9268V59.4727C21.3527 59.8893 20.8596 60.0977 20.2346 60.0977C19.6161 60.0977 19.1148 59.8486 18.7307 59.3506C18.3498 58.8525 18.1594 58.1738 18.1594 57.3145ZM19.0676 57.417C19.0676 58.0127 19.1896 58.4814 19.4338 58.8232C19.6779 59.1618 20.0197 59.3311 20.4592 59.3311C21.0288 59.3311 21.4471 59.0723 21.7141 58.5547V56.1426C21.4374 55.638 21.0223 55.3857 20.4689 55.3857C20.0295 55.3857 19.6861 55.5566 19.4387 55.8984C19.1913 56.2402 19.0676 56.7464 19.0676 57.417ZM24.6709 60H23.7676V52.5H24.6709V60ZM26.8025 60H25.8992V54.7168H26.8025V60ZM25.826 53.3154C25.826 53.1689 25.8699 53.0452 25.9578 52.9443C26.049 52.8434 26.1824 52.793 26.3582 52.793C26.534 52.793 26.6674 52.8434 26.7586 52.9443C26.8497 53.0452 26.8953 53.1689 26.8953 53.3154C26.8953 53.4619 26.8497 53.584 26.7586 53.6816C26.6674 53.7793 26.534 53.8281 26.3582 53.8281C26.1824 53.8281 26.049 53.7793 25.9578 53.6816C25.8699 53.584 25.826 53.4619 25.826 53.3154ZM30.0719 59.3604C30.3941 59.3604 30.6757 59.2627 30.9166 59.0674C31.1575 58.8721 31.291 58.6279 31.317 58.335H32.1715C32.1552 58.6377 32.051 58.9258 31.859 59.1992C31.6669 59.4727 31.4098 59.6908 31.0875 59.8535C30.7685 60.0163 30.4299 60.0977 30.0719 60.0977C29.3525 60.0977 28.7796 59.8584 28.3531 59.3799C27.9299 58.8981 27.7184 58.2406 27.7184 57.4072V57.2559C27.7184 56.7415 27.8128 56.2842 28.0016 55.8838C28.1904 55.4834 28.4605 55.1725 28.8121 54.9512C29.1669 54.7298 29.5852 54.6191 30.067 54.6191C30.6594 54.6191 31.151 54.7965 31.5416 55.1514C31.9355 55.5062 32.1454 55.9668 32.1715 56.5332H31.317C31.291 56.1914 31.1607 55.9115 30.9264 55.6934C30.6952 55.472 30.4088 55.3613 30.067 55.3613C29.608 55.3613 29.2516 55.5273 28.9977 55.8594C28.747 56.1882 28.6217 56.665 28.6217 57.29V57.4609C28.6217 58.0697 28.747 58.5384 28.9977 58.8672C29.2483 59.196 29.6064 59.3604 30.0719 59.3604ZM35.0795 60.0977C34.3633 60.0977 33.7807 59.8633 33.3314 59.3945C32.8822 58.9225 32.6576 58.2926 32.6576 57.5049V57.3389C32.6576 56.8148 32.7569 56.3477 32.9555 55.9375C33.1573 55.5241 33.4372 55.2018 33.7953 54.9707C34.1566 54.7363 34.5473 54.6191 34.9672 54.6191C35.654 54.6191 36.1879 54.8454 36.5687 55.2979C36.9496 55.7503 37.14 56.3981 37.14 57.2412V57.6172H33.5609C33.574 58.138 33.7253 58.5596 34.015 58.8818C34.308 59.2008 34.6791 59.3604 35.1283 59.3604C35.4473 59.3604 35.7175 59.2952 35.9389 59.165C36.1602 59.0348 36.3539 58.8623 36.5199 58.6475L37.0717 59.0771C36.629 59.7575 35.9649 60.0977 35.0795 60.0977ZM34.9672 55.3613C34.6026 55.3613 34.2966 55.4948 34.0492 55.7617C33.8018 56.0254 33.6488 56.3965 33.5902 56.875H36.2367V56.8066C36.2107 56.3477 36.087 55.9928 35.8656 55.7422C35.6443 55.4883 35.3448 55.3613 34.9672 55.3613ZM40.4436 55.5273C40.3068 55.5046 40.1587 55.4932 39.9992 55.4932C39.4068 55.4932 39.0048 55.7454 38.7932 56.25V60H37.8898V54.7168H38.7688L38.7834 55.3271C39.0796 54.8551 39.4995 54.6191 40.0432 54.6191C40.2189 54.6191 40.3524 54.6419 40.4436 54.6875V55.5273ZM41.96 60H41.0518V54.7168H41.96V60ZM41.9697 52.5049H43.0635L41.7549 53.9404H41.0273L41.9697 52.5049ZM42.9295 57.3145C42.9295 56.5039 43.1216 55.8529 43.5057 55.3613C43.8898 54.8665 44.3927 54.6191 45.0145 54.6191C45.6329 54.6191 46.1229 54.8307 46.4842 55.2539V52.5H47.3875V60H46.5574L46.5135 59.4336C46.1521 59.8763 45.6492 60.0977 45.0047 60.0977C44.3927 60.0977 43.893 59.847 43.5057 59.3457C43.1216 58.8444 42.9295 58.1901 42.9295 57.3828V57.3145ZM43.8328 57.417C43.8328 58.016 43.9565 58.4847 44.2039 58.8232C44.4513 59.1618 44.7931 59.3311 45.2293 59.3311C45.8022 59.3311 46.2205 59.0739 46.4842 58.5596V56.1328C46.214 55.6348 45.799 55.3857 45.2391 55.3857C44.7964 55.3857 44.4513 55.5566 44.2039 55.8984C43.9565 56.2402 43.8328 56.7464 43.8328 57.417ZM49.4752 60H48.5719V54.7168H49.4752V60ZM48.4986 53.3154C48.4986 53.1689 48.5426 53.0452 48.6305 52.9443C48.7216 52.8434 48.8551 52.793 49.0309 52.793C49.2066 52.793 49.3401 52.8434 49.4313 52.9443C49.5224 53.0452 49.568 53.1689 49.568 53.3154C49.568 53.4619 49.5224 53.584 49.4313 53.6816C49.3401 53.7793 49.2066 53.8281 49.0309 53.8281C48.8551 53.8281 48.7216 53.7793 48.6305 53.6816C48.5426 53.584 48.4986 53.4619 48.4986 53.3154ZM50.3861 57.3096C50.3861 56.792 50.487 56.3265 50.6889 55.9131C50.8939 55.4997 51.1772 55.1807 51.5385 54.9561C51.9031 54.7314 52.3181 54.6191 52.7836 54.6191C53.503 54.6191 54.0841 54.8682 54.5268 55.3662C54.9727 55.8643 55.1957 56.5267 55.1957 57.3535V57.417C55.1957 57.9313 55.0964 58.3936 54.8979 58.8037C54.7025 59.2106 54.421 59.528 54.0531 59.7559C53.6885 59.9837 53.2686 60.0977 52.7934 60.0977C52.0772 60.0977 51.4962 59.8486 51.0502 59.3506C50.6075 58.8525 50.3861 58.1934 50.3861 57.373V57.3096ZM51.2943 57.417C51.2943 58.0029 51.4294 58.4733 51.6996 58.8281C51.973 59.1829 52.3376 59.3604 52.7934 59.3604C53.2523 59.3604 53.6169 59.1813 53.8871 58.8232C54.1573 58.4619 54.2924 57.9574 54.2924 57.3096C54.2924 56.7301 54.154 56.2614 53.8773 55.9033C53.6039 55.542 53.2393 55.3613 52.7836 55.3613C52.3376 55.3613 51.9779 55.5387 51.7045 55.8936C51.4311 56.2484 51.2943 56.7562 51.2943 57.417ZM59.1047 58.5986C59.1047 58.3545 59.0119 58.1657 58.8264 58.0322C58.6441 57.8955 58.3234 57.7783 57.8645 57.6807C57.4087 57.583 57.0458 57.4658 56.7756 57.3291C56.5087 57.1924 56.3101 57.0296 56.1799 56.8408C56.0529 56.652 55.9895 56.4274 55.9895 56.167C55.9895 55.734 56.1717 55.3678 56.5363 55.0684C56.9042 54.7689 57.3729 54.6191 57.9426 54.6191C58.5415 54.6191 59.0266 54.7738 59.3977 55.083C59.772 55.3923 59.9592 55.7878 59.9592 56.2695H59.051C59.051 56.0221 58.9452 55.8089 58.7336 55.6299C58.5253 55.4508 58.2616 55.3613 57.9426 55.3613C57.6138 55.3613 57.3566 55.4329 57.1711 55.5762C56.9855 55.7194 56.8928 55.9066 56.8928 56.1377C56.8928 56.3558 56.979 56.5202 57.1516 56.6309C57.3241 56.7415 57.635 56.8473 58.0842 56.9482C58.5367 57.0492 58.9029 57.1696 59.1828 57.3096C59.4628 57.4495 59.6695 57.6188 59.8029 57.8174C59.9396 58.0127 60.008 58.252 60.008 58.5352C60.008 59.0072 59.8192 59.3864 59.4416 59.6729C59.064 59.9561 58.5741 60.0977 57.9719 60.0977C57.5487 60.0977 57.1743 60.0228 56.8488 59.873C56.5233 59.7233 56.2678 59.515 56.0822 59.248C55.8999 58.9779 55.8088 58.6865 55.8088 58.374H56.7121C56.7284 58.6768 56.8488 58.9176 57.0734 59.0967C57.3013 59.2725 57.6008 59.3604 57.9719 59.3604C58.3137 59.3604 58.5871 59.292 58.7922 59.1553C59.0005 59.0153 59.1047 58.8298 59.1047 58.5986Z" fill="#666666"/>
<defs>
<filter id="filter0_d_7838:60127" x="0" y="0" width="70" height="38" filterUnits="userSpaceOnUse" color-interpolation-filters="sRGB">
<feFlood flood-opacity="0" result="BackgroundImageFix"/>
<feColorMatrix in="SourceAlpha" type="matrix" values="0 0 0 0 0 0 0 0 0 0 0 0 0 0 0 0 0 0 127 0" result="hardAlpha"/>
<feOffset dy="1"/>
<feGaussianBlur stdDeviation="1"/>
<feColorMatrix type="matrix" values="0 0 0 0 0 0 0 0 0 0 0 0 0 0 0 0 0 0 0.2 0"/>
<feBlend mode="normal" in2="BackgroundImageFix" result="effect1_dropShadow_7838:60127"/>
<feBlend mode="normal" in="SourceGraphic" in2="effect1_dropShadow_7838:60127" result="shape"/>
</filter>
</defs>
</svg>
