<svg width="70" height="65" viewBox="0 0 70 65" fill="none" xmlns="http://www.w3.org/2000/svg">
<g filter="url(#filter0_d_7838:60079)">
<rect x="2" y="1" width="66" height="34" rx="8" fill="#E7F3F9"/>
<rect x="26.1289" y="19.4766" width="14.6355" height="10.4543" rx="1.394" transform="rotate(-45 26.1289 19.4766)" stroke="#007DC5" stroke-linecap="round" stroke-linejoin="round"/>
<path fill-rule="evenodd" clip-rule="evenodd" d="M35.7382 12.8225C36.1487 12.4284 36.799 12.4351 37.2014 12.8375C37.6038 13.2399 37.6105 13.8902 37.2164 14.3007L35.7382 15.7797C35.33 16.1881 34.668 16.1883 34.2595 15.7801C33.8511 15.3719 33.851 14.7099 34.2592 14.3015L35.7382 12.8225Z" stroke="#007DC5" stroke-linecap="round" stroke-linejoin="round"/>
<path fill-rule="evenodd" clip-rule="evenodd" d="M38.696 15.783C38.9601 15.5188 39.345 15.4156 39.7059 15.5121C40.0667 15.6087 40.3486 15.8905 40.4454 16.2513C40.5422 16.6121 40.4391 16.9971 40.175 17.2613L38.6968 18.7403C38.2884 19.1485 37.6264 19.1483 37.2182 18.7399C36.8099 18.3315 36.8101 17.6695 37.2185 17.2613L38.696 15.783Z" stroke="#007DC5" stroke-linecap="round" stroke-linejoin="round"/>
<path fill-rule="evenodd" clip-rule="evenodd" d="M31.3026 17.2592C31.5668 16.9951 31.9518 16.8921 32.3126 16.9888C32.6734 17.0856 32.9552 17.3675 33.0517 17.7283C33.1483 18.0892 33.0451 18.4741 32.7809 18.7382L31.3026 20.2164C30.8944 20.6249 30.2324 20.625 29.824 20.2168C29.4156 19.8086 29.4154 19.1466 29.8236 18.7382L31.3026 17.2592Z" stroke="#007DC5" stroke-linecap="round" stroke-linejoin="round"/>
<path fill-rule="evenodd" clip-rule="evenodd" d="M34.2597 20.2166C34.5238 19.9524 34.9087 19.8492 35.2696 19.9457C35.6304 20.0423 35.9123 20.3241 36.0091 20.6849C36.1058 21.0456 36.0028 21.4307 35.7387 21.6949L34.2597 23.1739C33.8492 23.5679 33.1988 23.5613 32.7965 23.1589C32.3941 22.7565 32.3874 22.1062 32.7815 21.6956L34.2597 20.2166Z" stroke="#007DC5" stroke-linecap="round" stroke-linejoin="round"/>
</g>
<path d="M22.3195 46.1445H19.341L18.6721 48H17.7053L20.4201 40.8906H21.2404L23.9602 48H22.9982L22.3195 46.1445ZM19.6242 45.373H22.0412L20.8303 42.0479L19.6242 45.373ZM25.3301 42.7168L25.3594 43.3809C25.763 42.873 26.2904 42.6191 26.9414 42.6191C28.0579 42.6191 28.6211 43.249 28.6309 44.5088V48H27.7275V44.5039C27.7243 44.123 27.6364 43.8415 27.4639 43.6592C27.2946 43.4769 27.0293 43.3857 26.668 43.3857C26.375 43.3857 26.1178 43.4639 25.8965 43.6201C25.6751 43.7764 25.5026 43.9814 25.3789 44.2354V48H24.4756V42.7168H25.3301ZM30.9187 41.4375V42.7168H31.9051V43.415H30.9187V46.6914C30.9187 46.903 30.9627 47.0625 31.0506 47.1699C31.1385 47.2741 31.2882 47.3262 31.4998 47.3262C31.604 47.3262 31.7472 47.3066 31.9295 47.2676V48C31.6919 48.0651 31.4607 48.0977 31.2361 48.0977C30.8325 48.0977 30.5281 47.9756 30.323 47.7314C30.118 47.4873 30.0154 47.1406 30.0154 46.6914V43.415H29.0535V42.7168H30.0154V41.4375H30.9187ZM33.6461 48H32.7428V42.7168H33.6461V48ZM32.6695 41.3154C32.6695 41.1689 32.7135 41.0452 32.8014 40.9443C32.8925 40.8434 33.026 40.793 33.2018 40.793C33.3775 40.793 33.511 40.8434 33.6021 40.9443C33.6933 41.0452 33.7389 41.1689 33.7389 41.3154C33.7389 41.4619 33.6933 41.584 33.6021 41.6816C33.511 41.7793 33.3775 41.8281 33.2018 41.8281C33.026 41.8281 32.8925 41.7793 32.8014 41.6816C32.7135 41.584 32.6695 41.4619 32.6695 41.3154ZM36.9154 47.3604C37.2377 47.3604 37.5193 47.2627 37.7602 47.0674C38.001 46.8721 38.1345 46.6279 38.1605 46.335H39.015C38.9988 46.6377 38.8946 46.9258 38.7025 47.1992C38.5105 47.4727 38.2533 47.6908 37.9311 47.8535C37.612 48.0163 37.2735 48.0977 36.9154 48.0977C36.196 48.0977 35.6231 47.8584 35.1967 47.3799C34.7735 46.8981 34.5619 46.2406 34.5619 45.4072V45.2559C34.5619 44.7415 34.6563 44.2842 34.8451 43.8838C35.0339 43.4834 35.3041 43.1725 35.6557 42.9512C36.0105 42.7298 36.4288 42.6191 36.9105 42.6191C37.503 42.6191 37.9945 42.7965 38.3852 43.1514C38.779 43.5062 38.989 43.9668 39.015 44.5332H38.1605C38.1345 44.1914 38.0043 43.9115 37.7699 43.6934C37.5388 43.472 37.2523 43.3613 36.9105 43.3613C36.4516 43.3613 36.0951 43.5273 35.8412 43.8594C35.5906 44.1882 35.4652 44.665 35.4652 45.29V45.4609C35.4652 46.0697 35.5906 46.5384 35.8412 46.8672C36.0919 47.196 36.4499 47.3604 36.9154 47.3604ZM39.4914 45.3096C39.4914 44.792 39.5923 44.3265 39.7941 43.9131C39.9992 43.4997 40.2824 43.1807 40.6437 42.9561C41.0083 42.7314 41.4234 42.6191 41.8889 42.6191C42.6083 42.6191 43.1893 42.8682 43.632 43.3662C44.078 43.8643 44.301 44.5267 44.301 45.3535V45.417C44.301 45.9313 44.2017 46.3936 44.0031 46.8037C43.8078 47.2106 43.5262 47.528 43.1584 47.7559C42.7938 47.9837 42.3739 48.0977 41.8986 48.0977C41.1825 48.0977 40.6014 47.8486 40.1555 47.3506C39.7128 46.8525 39.4914 46.1934 39.4914 45.373V45.3096ZM40.3996 45.417C40.3996 46.0029 40.5347 46.4733 40.8049 46.8281C41.0783 47.1829 41.4429 47.3604 41.8986 47.3604C42.3576 47.3604 42.7222 47.1813 42.9924 46.8232C43.2626 46.4619 43.3977 45.9574 43.3977 45.3096C43.3977 44.7301 43.2593 44.2614 42.9826 43.9033C42.7092 43.542 42.3446 43.3613 41.8889 43.3613C41.4429 43.3613 41.0832 43.5387 40.8098 43.8936C40.5363 44.2484 40.3996 44.7562 40.3996 45.417ZM45.9883 42.7168L46.0176 43.3809C46.4212 42.873 46.9486 42.6191 47.5996 42.6191C48.7161 42.6191 49.2793 43.249 49.2891 44.5088V48H48.3857V44.5039C48.3825 44.123 48.2946 43.8415 48.1221 43.6592C47.9528 43.4769 47.6875 43.3857 47.3262 43.3857C47.0332 43.3857 46.776 43.4639 46.5547 43.6201C46.3333 43.7764 46.1608 43.9814 46.0371 44.2354V48H45.1338V42.7168H45.9883ZM52.2313 45.3486H49.8484V44.6113H52.2313V45.3486ZM17.5477 59.3604C17.8699 59.3604 18.1515 59.2627 18.3924 59.0674C18.6333 58.8721 18.7667 58.6279 18.7928 58.335H19.6473C19.631 58.6377 19.5268 58.9258 19.3348 59.1992C19.1427 59.4727 18.8855 59.6908 18.5633 59.8535C18.2443 60.0163 17.9057 60.0977 17.5477 60.0977C16.8283 60.0977 16.2553 59.8584 15.8289 59.3799C15.4057 58.8981 15.1941 58.2406 15.1941 57.4072V57.2559C15.1941 56.7415 15.2885 56.2842 15.4773 55.8838C15.6661 55.4834 15.9363 55.1725 16.2879 54.9512C16.6427 54.7298 17.061 54.6191 17.5428 54.6191C18.1352 54.6191 18.6268 54.7965 19.0174 55.1514C19.4113 55.5062 19.6212 55.9668 19.6473 56.5332H18.7928C18.7667 56.1914 18.6365 55.9115 18.4021 55.6934C18.171 55.472 17.8846 55.3613 17.5428 55.3613C17.0838 55.3613 16.7273 55.5273 16.4734 55.8594C16.2228 56.1882 16.0975 56.665 16.0975 57.29V57.4609C16.0975 58.0697 16.2228 58.5384 16.4734 58.8672C16.7241 59.196 17.0822 59.3604 17.5477 59.3604ZM22.5553 60.0977C21.8391 60.0977 21.2564 59.8633 20.8072 59.3945C20.358 58.9225 20.1334 58.2926 20.1334 57.5049V57.3389C20.1334 56.8148 20.2327 56.3477 20.4313 55.9375C20.6331 55.5241 20.913 55.2018 21.2711 54.9707C21.6324 54.7363 22.023 54.6191 22.443 54.6191C23.1298 54.6191 23.6637 54.8454 24.0445 55.2979C24.4254 55.7503 24.6158 56.3981 24.6158 57.2412V57.6172H21.0367C21.0497 58.138 21.2011 58.5596 21.4908 58.8818C21.7838 59.2008 22.1549 59.3604 22.6041 59.3604C22.9231 59.3604 23.1933 59.2952 23.4146 59.165C23.636 59.0348 23.8297 58.8623 23.9957 58.6475L24.5475 59.0771C24.1048 59.7575 23.4407 60.0977 22.5553 60.0977ZM22.443 55.3613C22.0784 55.3613 21.7724 55.4948 21.525 55.7617C21.2776 56.0254 21.1246 56.3965 21.066 56.875H23.7125V56.8066C23.6865 56.3477 23.5628 55.9928 23.3414 55.7422C23.1201 55.4883 22.8206 55.3613 22.443 55.3613ZM29.8285 57.417C29.8285 58.221 29.6446 58.8688 29.2768 59.3604C28.9089 59.8519 28.4109 60.0977 27.7826 60.0977C27.1413 60.0977 26.6368 59.8942 26.2689 59.4873V62.0312H25.3656V54.7168H26.1908L26.2348 55.3027C26.6026 54.847 27.1137 54.6191 27.768 54.6191C28.4027 54.6191 28.904 54.8584 29.2719 55.3369C29.643 55.8154 29.8285 56.4811 29.8285 57.334V57.417ZM28.9252 57.3145C28.9252 56.7188 28.7982 56.2484 28.5443 55.9033C28.2904 55.5583 27.9421 55.3857 27.4994 55.3857C26.9525 55.3857 26.5424 55.6283 26.2689 56.1133V58.6377C26.5391 59.1195 26.9525 59.3604 27.5092 59.3604C27.9421 59.3604 28.2855 59.1895 28.5395 58.8477C28.7966 58.5026 28.9252 57.9915 28.9252 57.3145ZM32.8 59.3604C33.1223 59.3604 33.4038 59.2627 33.6447 59.0674C33.8856 58.8721 34.0191 58.6279 34.0451 58.335H34.8996C34.8833 58.6377 34.7792 58.9258 34.5871 59.1992C34.3951 59.4727 34.1379 59.6908 33.8156 59.8535C33.4966 60.0163 33.1581 60.0977 32.8 60.0977C32.0806 60.0977 31.5077 59.8584 31.0813 59.3799C30.6581 58.8981 30.4465 58.2406 30.4465 57.4072V57.2559C30.4465 56.7415 30.5409 56.2842 30.7297 55.8838C30.9185 55.4834 31.1887 55.1725 31.5402 54.9512C31.8951 54.7298 32.3133 54.6191 32.7951 54.6191C33.3876 54.6191 33.8791 54.7965 34.2697 55.1514C34.6636 55.5062 34.8736 55.9668 34.8996 56.5332H34.0451C34.0191 56.1914 33.8889 55.9115 33.6545 55.6934C33.4234 55.472 33.1369 55.3613 32.7951 55.3613C32.3361 55.3613 31.9797 55.5273 31.7258 55.8594C31.4751 56.1882 31.3498 56.665 31.3498 57.29V57.4609C31.3498 58.0697 31.4751 58.5384 31.7258 58.8672C31.9764 59.196 32.3345 59.3604 32.8 59.3604ZM36.5967 60H35.6934V54.7168H36.5967V60ZM35.6201 53.3154C35.6201 53.1689 35.6641 53.0452 35.752 52.9443C35.8431 52.8434 35.9766 52.793 36.1523 52.793C36.3281 52.793 36.4616 52.8434 36.5527 52.9443C36.6439 53.0452 36.6895 53.1689 36.6895 53.3154C36.6895 53.4619 36.6439 53.584 36.5527 53.6816C36.4616 53.7793 36.3281 53.8281 36.1523 53.8281C35.9766 53.8281 35.8431 53.7793 35.752 53.6816C35.6641 53.584 35.6201 53.4619 35.6201 53.3154ZM37.5076 57.3096C37.5076 56.792 37.6085 56.3265 37.8104 55.9131C38.0154 55.4997 38.2986 55.1807 38.66 54.9561C39.0245 54.7314 39.4396 54.6191 39.9051 54.6191C40.6245 54.6191 41.2055 54.8682 41.6482 55.3662C42.0942 55.8643 42.3172 56.5267 42.3172 57.3535V57.417C42.3172 57.9313 42.2179 58.3936 42.0193 58.8037C41.824 59.2106 41.5424 59.528 41.1746 59.7559C40.81 59.9837 40.3901 60.0977 39.9148 60.0977C39.1987 60.0977 38.6176 59.8486 38.1717 59.3506C37.729 58.8525 37.5076 58.1934 37.5076 57.373V57.3096ZM38.4158 57.417C38.4158 58.0029 38.5509 58.4733 38.8211 58.8281C39.0945 59.1829 39.4591 59.3604 39.9148 59.3604C40.3738 59.3604 40.7384 59.1813 41.0086 58.8232C41.2788 58.4619 41.4139 57.9574 41.4139 57.3096C41.4139 56.7301 41.2755 56.2614 40.9988 55.9033C40.7254 55.542 40.3608 55.3613 39.9051 55.3613C39.4591 55.3613 39.0994 55.5387 38.826 55.8936C38.5525 56.2484 38.4158 56.7562 38.4158 57.417ZM44.0045 54.7168L44.0338 55.3809C44.4374 54.873 44.9648 54.6191 45.6158 54.6191C46.7324 54.6191 47.2955 55.249 47.3053 56.5088V60H46.402V56.5039C46.3987 56.123 46.3108 55.8415 46.1383 55.6592C45.969 55.4769 45.7037 55.3857 45.3424 55.3857C45.0494 55.3857 44.7923 55.4639 44.5709 55.6201C44.3495 55.7764 44.177 55.9814 44.0533 56.2354V60H43.15V54.7168H44.0045ZM51.6293 60C51.5772 59.8958 51.5349 59.7103 51.5023 59.4434C51.0824 59.8796 50.5811 60.0977 49.9984 60.0977C49.4776 60.0977 49.0495 59.9512 48.7143 59.6582C48.3822 59.362 48.2162 58.9876 48.2162 58.5352C48.2162 57.985 48.4245 57.5586 48.8412 57.2559C49.2611 56.9499 49.8503 56.7969 50.6088 56.7969H51.4877V56.3818C51.4877 56.0661 51.3933 55.8154 51.2045 55.6299C51.0157 55.4411 50.7374 55.3467 50.3695 55.3467C50.0473 55.3467 49.7771 55.4281 49.559 55.5908C49.3409 55.7536 49.2318 55.9505 49.2318 56.1816H48.3236C48.3236 55.918 48.4164 55.6641 48.602 55.4199C48.7908 55.1725 49.0447 54.9772 49.3637 54.834C49.6859 54.6908 50.0391 54.6191 50.4232 54.6191C51.032 54.6191 51.5089 54.7721 51.8539 55.0781C52.199 55.3809 52.378 55.7992 52.391 56.333V58.7646C52.391 59.2497 52.4529 59.6354 52.5766 59.9219V60H51.6293ZM50.1303 59.3115C50.4135 59.3115 50.682 59.2383 50.9359 59.0918C51.1898 58.9453 51.3738 58.7549 51.4877 58.5205V57.4365H50.7797C49.6729 57.4365 49.1195 57.7604 49.1195 58.4082C49.1195 58.6914 49.2139 58.9128 49.4027 59.0723C49.5915 59.2318 49.8341 59.3115 50.1303 59.3115ZM54.4885 60H53.5852V52.5H54.4885V60Z" fill="#666666"/>
<defs>
<filter id="filter0_d_7838:60079" x="0" y="0" width="70" height="38" filterUnits="userSpaceOnUse" color-interpolation-filters="sRGB">
<feFlood flood-opacity="0" result="BackgroundImageFix"/>
<feColorMatrix in="SourceAlpha" type="matrix" values="0 0 0 0 0 0 0 0 0 0 0 0 0 0 0 0 0 0 127 0" result="hardAlpha"/>
<feOffset dy="1"/>
<feGaussianBlur stdDeviation="1"/>
<feColorMatrix type="matrix" values="0 0 0 0 0 0 0 0 0 0 0 0 0 0 0 0 0 0 0.2 0"/>
<feBlend mode="normal" in2="BackgroundImageFix" result="effect1_dropShadow_7838:60079"/>
<feBlend mode="normal" in="SourceGraphic" in2="effect1_dropShadow_7838:60079" result="shape"/>
</filter>
</defs>
</svg>
