<svg width="66" height="61" viewBox="0 0 66 61" fill="none" xmlns="http://www.w3.org/2000/svg">
<g filter="url(#filter0_d_7838:59959)">
<rect x="2" y="1" width="62" height="30" rx="8" fill="#E7F3F9"/>
<path d="M32.5488 20.8125H29.9238C28.9573 20.8125 28.1738 20.029 28.1738 19.0625V14.6875C28.1738 13.721 28.9573 12.9375 29.9238 12.9375H33.4238C34.3903 12.9375 35.1738 13.721 35.1738 14.6875V15.125" stroke="#007DC5" stroke-linecap="round" stroke-linejoin="round"/>
<path d="M28.1738 10.3125L28.5367 9.95025C28.8648 9.62204 29.3098 9.4376 29.7739 9.4375H33.8613" stroke="#007DC5" stroke-linecap="round" stroke-linejoin="round"/>
<path fill-rule="evenodd" clip-rule="evenodd" d="M33.4238 12.9375H29.9238V12.0625C29.9238 11.5793 30.3156 11.1875 30.7988 11.1875H32.5488C33.0321 11.1875 33.4238 11.5793 33.4238 12.0625V12.9375Z" stroke="#007DC5" stroke-linecap="round" stroke-linejoin="round"/>
<path d="M31.6738 11.1875V9.4375" stroke="#007DC5" stroke-linecap="round" stroke-linejoin="round"/>
<path fill-rule="evenodd" clip-rule="evenodd" d="M38.6738 20.4007C38.6738 21.6088 37.6945 22.5882 36.4863 22.5882C35.2782 22.5882 34.2988 21.6088 34.2988 20.4007C34.2988 18.9598 36.1217 16.4375 36.4863 16.4375C36.8509 16.4375 38.6738 18.9598 38.6738 20.4007Z" stroke="#007DC5" stroke-linecap="round" stroke-linejoin="round"/>
</g>
<path d="M7.49531 41.7441C7.40742 42.4961 7.1291 43.0771 6.66035 43.4873C6.19486 43.8942 5.57474 44.0977 4.8 44.0977C3.96016 44.0977 3.28633 43.7965 2.77851 43.1943C2.27396 42.5921 2.02168 41.7865 2.02168 40.7773V40.0938C2.02168 39.4329 2.13887 38.8519 2.37324 38.3506C2.61087 37.8493 2.94616 37.4652 3.3791 37.1982C3.81204 36.9281 4.31335 36.793 4.88301 36.793C5.63822 36.793 6.24368 37.0046 6.69941 37.4277C7.15514 37.8477 7.42044 38.4303 7.49531 39.1758H6.55293C6.47155 38.6094 6.29414 38.1992 6.0207 37.9453C5.75052 37.6914 5.37129 37.5645 4.88301 37.5645C4.28405 37.5645 3.81367 37.7858 3.47187 38.2285C3.13333 38.6712 2.96406 39.3011 2.96406 40.1182V40.8066C2.96406 41.5781 3.12519 42.1917 3.44746 42.6475C3.76973 43.1032 4.22057 43.3311 4.8 43.3311C5.32083 43.3311 5.7196 43.2139 5.99629 42.9795C6.27624 42.7419 6.46178 42.3301 6.55293 41.7441H7.49531ZM11.5996 43.4775C11.248 43.891 10.7321 44.0977 10.0518 44.0977C9.48861 44.0977 9.05892 43.9349 8.76269 43.6094C8.46973 43.2806 8.32161 42.7956 8.31836 42.1543V38.7168H9.22168V42.1299C9.22168 42.9307 9.5472 43.3311 10.1982 43.3311C10.8883 43.3311 11.3473 43.0739 11.5752 42.5596V38.7168H12.4785V44H11.6191L11.5996 43.4775ZM14.5369 44H13.6336V38.7168H14.5369V44ZM13.5604 37.3154C13.5604 37.1689 13.6043 37.0452 13.6922 36.9443C13.7833 36.8434 13.9168 36.793 14.0926 36.793C14.2684 36.793 14.4018 36.8434 14.493 36.9443C14.5841 37.0452 14.6297 37.1689 14.6297 37.3154C14.6297 37.4619 14.5841 37.584 14.493 37.6816C14.4018 37.7793 14.2684 37.8281 14.0926 37.8281C13.9168 37.8281 13.7833 37.7793 13.6922 37.6816C13.6043 37.584 13.5604 37.4619 13.5604 37.3154ZM15.4674 41.3145C15.4674 40.5039 15.6594 39.8529 16.0436 39.3613C16.4277 38.8665 16.9306 38.6191 17.5523 38.6191C18.1708 38.6191 18.6607 38.8307 19.0221 39.2539V36.5H19.9254V44H19.0953L19.0514 43.4336C18.69 43.8763 18.1871 44.0977 17.5426 44.0977C16.9306 44.0977 16.4309 43.847 16.0436 43.3457C15.6594 42.8444 15.4674 42.1901 15.4674 41.3828V41.3145ZM16.3707 41.417C16.3707 42.016 16.4944 42.4847 16.7418 42.8232C16.9892 43.1618 17.331 43.3311 17.7672 43.3311C18.3401 43.3311 18.7584 43.0739 19.0221 42.5596V40.1328C18.7519 39.6348 18.3368 39.3857 17.777 39.3857C17.3342 39.3857 16.9892 39.5566 16.7418 39.8984C16.4944 40.2402 16.3707 40.7464 16.3707 41.417ZM24.2934 44C24.2413 43.8958 24.199 43.7103 24.1664 43.4434C23.7465 43.8796 23.2452 44.0977 22.6625 44.0977C22.1417 44.0977 21.7136 43.9512 21.3783 43.6582C21.0463 43.362 20.8803 42.9876 20.8803 42.5352C20.8803 41.985 21.0886 41.5586 21.5053 41.2559C21.9252 40.9499 22.5144 40.7969 23.2729 40.7969H24.1518V40.3818C24.1518 40.0661 24.0574 39.8154 23.8686 39.6299C23.6798 39.4411 23.4014 39.3467 23.0336 39.3467C22.7113 39.3467 22.4411 39.4281 22.223 39.5908C22.0049 39.7536 21.8959 39.9505 21.8959 40.1816H20.9877C20.9877 39.918 21.0805 39.6641 21.266 39.4199C21.4548 39.1725 21.7087 38.9772 22.0277 38.834C22.35 38.6908 22.7032 38.6191 23.0873 38.6191C23.696 38.6191 24.1729 38.7721 24.518 39.0781C24.863 39.3809 25.0421 39.7992 25.0551 40.333V42.7646C25.0551 43.2497 25.1169 43.6354 25.2406 43.9219V44H24.2934ZM22.7943 43.3115C23.0775 43.3115 23.3461 43.2383 23.6 43.0918C23.8539 42.9453 24.0378 42.7549 24.1518 42.5205V41.4365H23.4437C22.337 41.4365 21.7836 41.7604 21.7836 42.4082C21.7836 42.6914 21.878 42.9128 22.0668 43.0723C22.2556 43.2318 22.4981 43.3115 22.7943 43.3115ZM25.9514 41.3145C25.9514 40.5039 26.1434 39.8529 26.5275 39.3613C26.9117 38.8665 27.4146 38.6191 28.0363 38.6191C28.6548 38.6191 29.1447 38.8307 29.5061 39.2539V36.5H30.4094V44H29.5793L29.5354 43.4336C29.174 43.8763 28.6711 44.0977 28.0266 44.0977C27.4146 44.0977 26.9149 43.847 26.5275 43.3457C26.1434 42.8444 25.9514 42.1901 25.9514 41.3828V41.3145ZM26.8547 41.417C26.8547 42.016 26.9784 42.4847 27.2258 42.8232C27.4732 43.1618 27.815 43.3311 28.2512 43.3311C28.8241 43.3311 29.2424 43.0739 29.5061 42.5596V40.1328C29.2359 39.6348 28.8208 39.3857 28.2609 39.3857C27.8182 39.3857 27.4732 39.5566 27.2258 39.8984C26.9784 40.2402 26.8547 40.7464 26.8547 41.417ZM31.2764 41.3096C31.2764 40.792 31.3773 40.3265 31.5791 39.9131C31.7842 39.4997 32.0674 39.1807 32.4287 38.9561C32.7933 38.7314 33.2083 38.6191 33.6738 38.6191C34.3932 38.6191 34.9743 38.8682 35.417 39.3662C35.863 39.8643 36.0859 40.5267 36.0859 41.3535V41.417C36.0859 41.9313 35.9867 42.3936 35.7881 42.8037C35.5928 43.2106 35.3112 43.528 34.9434 43.7559C34.5788 43.9837 34.1589 44.0977 33.6836 44.0977C32.9674 44.0977 32.3864 43.8486 31.9404 43.3506C31.4977 42.8525 31.2764 42.1934 31.2764 41.373V41.3096ZM32.1846 41.417C32.1846 42.0029 32.3197 42.4733 32.5898 42.8281C32.8633 43.1829 33.2279 43.3604 33.6836 43.3604C34.1426 43.3604 34.5072 43.1813 34.7773 42.8232C35.0475 42.4619 35.1826 41.9574 35.1826 41.3096C35.1826 40.7301 35.0443 40.2614 34.7676 39.9033C34.4941 39.542 34.1296 39.3613 33.6738 39.3613C33.2279 39.3613 32.8682 39.5387 32.5947 39.8936C32.3213 40.2484 32.1846 40.7562 32.1846 41.417ZM39.9949 42.5986C39.9949 42.3545 39.9021 42.1657 39.7166 42.0322C39.5343 41.8955 39.2137 41.7783 38.7547 41.6807C38.299 41.583 37.936 41.4658 37.6658 41.3291C37.3989 41.1924 37.2003 41.0296 37.0701 40.8408C36.9432 40.652 36.8797 40.4274 36.8797 40.167C36.8797 39.734 37.062 39.3678 37.4266 39.0684C37.7944 38.7689 38.2632 38.6191 38.8328 38.6191C39.4318 38.6191 39.9168 38.7738 40.2879 39.083C40.6622 39.3923 40.8494 39.7878 40.8494 40.2695H39.9412C39.9412 40.0221 39.8354 39.8089 39.6238 39.6299C39.4155 39.4508 39.1518 39.3613 38.8328 39.3613C38.504 39.3613 38.2469 39.4329 38.0613 39.5762C37.8758 39.7194 37.783 39.9066 37.783 40.1377C37.783 40.3558 37.8693 40.5202 38.0418 40.6309C38.2143 40.7415 38.5252 40.8473 38.9744 40.9482C39.4269 41.0492 39.7931 41.1696 40.073 41.3096C40.353 41.4495 40.5597 41.6188 40.6932 41.8174C40.8299 42.0127 40.8982 42.252 40.8982 42.5352C40.8982 43.0072 40.7094 43.3864 40.3318 43.6729C39.9542 43.9561 39.4643 44.0977 38.8621 44.0977C38.4389 44.0977 38.0646 44.0228 37.7391 43.873C37.4135 43.7233 37.158 43.515 36.9725 43.248C36.7902 42.9779 36.699 42.6865 36.699 42.374H37.6023C37.6186 42.6768 37.7391 42.9176 37.9637 43.0967C38.1915 43.2725 38.491 43.3604 38.8621 43.3604C39.2039 43.3604 39.4773 43.292 39.6824 43.1553C39.8908 43.0153 39.9949 42.8298 39.9949 42.5986ZM46.0746 43.3604C46.3969 43.3604 46.6784 43.2627 46.9193 43.0674C47.1602 42.8721 47.2937 42.6279 47.3197 42.335H48.1742C48.1579 42.6377 48.0538 42.9258 47.8617 43.1992C47.6697 43.4727 47.4125 43.6908 47.0902 43.8535C46.7712 44.0163 46.4327 44.0977 46.0746 44.0977C45.3552 44.0977 44.7823 43.8584 44.3559 43.3799C43.9327 42.8981 43.7211 42.2406 43.7211 41.4072V41.2559C43.7211 40.7415 43.8155 40.2842 44.0043 39.8838C44.1931 39.4834 44.4633 39.1725 44.8148 38.9512C45.1697 38.7298 45.588 38.6191 46.0697 38.6191C46.6622 38.6191 47.1537 38.7965 47.5443 39.1514C47.9382 39.5062 48.1482 39.9668 48.1742 40.5332H47.3197C47.2937 40.1914 47.1635 39.9115 46.9291 39.6934C46.698 39.472 46.4115 39.3613 46.0697 39.3613C45.6107 39.3613 45.2543 39.5273 45.0004 39.8594C44.7497 40.1882 44.6244 40.665 44.6244 41.29V41.4609C44.6244 42.0697 44.7497 42.5384 45.0004 42.8672C45.251 43.196 45.6091 43.3604 46.0746 43.3604ZM48.6506 41.3096C48.6506 40.792 48.7515 40.3265 48.9533 39.9131C49.1584 39.4997 49.4416 39.1807 49.8029 38.9561C50.1675 38.7314 50.5826 38.6191 51.048 38.6191C51.7674 38.6191 52.3485 38.8682 52.7912 39.3662C53.2372 39.8643 53.4602 40.5267 53.4602 41.3535V41.417C53.4602 41.9313 53.3609 42.3936 53.1623 42.8037C52.967 43.2106 52.6854 43.528 52.3176 43.7559C51.953 43.9837 51.5331 44.0977 51.0578 44.0977C50.3417 44.0977 49.7606 43.8486 49.3146 43.3506C48.8719 42.8525 48.6506 42.1934 48.6506 41.373V41.3096ZM49.5588 41.417C49.5588 42.0029 49.6939 42.4733 49.9641 42.8281C50.2375 43.1829 50.6021 43.3604 51.0578 43.3604C51.5168 43.3604 51.8814 43.1813 52.1516 42.8232C52.4217 42.4619 52.5568 41.9574 52.5568 41.3096C52.5568 40.7301 52.4185 40.2614 52.1418 39.9033C51.8684 39.542 51.5038 39.3613 51.048 39.3613C50.6021 39.3613 50.2424 39.5387 49.9689 39.8936C49.6955 40.2484 49.5588 40.7562 49.5588 41.417ZM55.1426 38.7168L55.167 39.3027C55.5544 38.847 56.0768 38.6191 56.7344 38.6191C57.4733 38.6191 57.9762 38.9023 58.2432 39.4688C58.4189 39.2148 58.6468 39.0098 58.9268 38.8535C59.21 38.6973 59.5436 38.6191 59.9277 38.6191C61.0866 38.6191 61.6758 39.2327 61.6953 40.46V44H60.792V40.5137C60.792 40.1361 60.7057 39.8545 60.5332 39.6689C60.3607 39.4801 60.071 39.3857 59.6641 39.3857C59.3288 39.3857 59.0505 39.4867 58.8291 39.6885C58.6077 39.887 58.4792 40.1556 58.4434 40.4941V44H57.5352V40.5381C57.5352 39.7699 57.1592 39.3857 56.4072 39.3857C55.8148 39.3857 55.4095 39.638 55.1914 40.1426V44H54.2881V38.7168H55.1426ZM17.4303 53.3096C17.4303 52.792 17.5312 52.3265 17.733 51.9131C17.9381 51.4997 18.2213 51.1807 18.5826 50.9561C18.9472 50.7314 19.3622 50.6191 19.8277 50.6191C20.5471 50.6191 21.1282 50.8682 21.5709 51.3662C22.0169 51.8643 22.2398 52.5267 22.2398 53.3535V53.417C22.2398 53.9313 22.1406 54.3936 21.942 54.8037C21.7467 55.2106 21.4651 55.528 21.0973 55.7559C20.7327 55.9837 20.3128 56.0977 19.8375 56.0977C19.1214 56.0977 18.5403 55.8486 18.0943 55.3506C17.6516 54.8525 17.4303 54.1934 17.4303 53.373V53.3096ZM18.3385 53.417C18.3385 54.0029 18.4736 54.4733 18.7437 54.8281C19.0172 55.1829 19.3818 55.3604 19.8375 55.3604C20.2965 55.3604 20.6611 55.1813 20.9312 54.8232C21.2014 54.4619 21.3365 53.9574 21.3365 53.3096C21.3365 52.7301 21.1982 52.2614 20.9215 51.9033C20.648 51.542 20.2835 51.3613 19.8277 51.3613C19.3818 51.3613 19.0221 51.5387 18.7486 51.8936C18.4752 52.2484 18.3385 52.7562 18.3385 53.417ZM27.3723 55.3604C27.6945 55.3604 27.9761 55.2627 28.217 55.0674C28.4579 54.8721 28.5913 54.6279 28.6174 54.335H29.4719C29.4556 54.6377 29.3514 54.9258 29.1594 55.1992C28.9673 55.4727 28.7102 55.6908 28.3879 55.8535C28.0689 56.0163 27.7303 56.0977 27.3723 56.0977C26.6529 56.0977 26.0799 55.8584 25.6535 55.3799C25.2303 54.8981 25.0187 54.2406 25.0187 53.4072V53.2559C25.0187 52.7415 25.1132 52.2842 25.302 51.8838C25.4908 51.4834 25.7609 51.1725 26.1125 50.9512C26.4673 50.7298 26.8856 50.6191 27.3674 50.6191C27.9598 50.6191 28.4514 50.7965 28.842 51.1514C29.2359 51.5062 29.4458 51.9668 29.4719 52.5332H28.6174C28.5913 52.1914 28.4611 51.9115 28.2268 51.6934C27.9956 51.472 27.7092 51.3613 27.3674 51.3613C26.9084 51.3613 26.552 51.5273 26.298 51.8594C26.0474 52.1882 25.9221 52.665 25.9221 53.29V53.4609C25.9221 54.0697 26.0474 54.5384 26.298 54.8672C26.5487 55.196 26.9068 55.3604 27.3723 55.3604ZM29.9482 53.3096C29.9482 52.792 30.0492 52.3265 30.251 51.9131C30.4561 51.4997 30.7393 51.1807 31.1006 50.9561C31.4652 50.7314 31.8802 50.6191 32.3457 50.6191C33.0651 50.6191 33.6462 50.8682 34.0889 51.3662C34.5348 51.8643 34.7578 52.5267 34.7578 53.3535V53.417C34.7578 53.9313 34.6585 54.3936 34.46 54.8037C34.2646 55.2106 33.9831 55.528 33.6152 55.7559C33.2507 55.9837 32.8307 56.0977 32.3555 56.0977C31.6393 56.0977 31.0583 55.8486 30.6123 55.3506C30.1696 54.8525 29.9482 54.1934 29.9482 53.373V53.3096ZM30.8564 53.417C30.8564 54.0029 30.9915 54.4733 31.2617 54.8281C31.5352 55.1829 31.8997 55.3604 32.3555 55.3604C32.8145 55.3604 33.179 55.1813 33.4492 54.8232C33.7194 54.4619 33.8545 53.9574 33.8545 53.3096C33.8545 52.7301 33.7161 52.2614 33.4395 51.9033C33.166 51.542 32.8014 51.3613 32.3457 51.3613C31.8997 51.3613 31.54 51.5387 31.2666 51.8936C30.9932 52.2484 30.8564 52.7562 30.8564 53.417ZM38.1443 51.5273C38.0076 51.5046 37.8595 51.4932 37.7 51.4932C37.1075 51.4932 36.7055 51.7454 36.4939 52.25V56H35.5906V50.7168H36.4695L36.4842 51.3271C36.7804 50.8551 37.2003 50.6191 37.7439 50.6191C37.9197 50.6191 38.0532 50.6419 38.1443 50.6875V51.5273ZM43.1422 53.417C43.1422 54.221 42.9583 54.8688 42.5904 55.3604C42.2226 55.8519 41.7245 56.0977 41.0963 56.0977C40.455 56.0977 39.9505 55.8942 39.5826 55.4873V58.0312H38.6793V50.7168H39.5045L39.5484 51.3027C39.9163 50.847 40.4273 50.6191 41.0816 50.6191C41.7164 50.6191 42.2177 50.8584 42.5855 51.3369C42.9566 51.8154 43.1422 52.4811 43.1422 53.334V53.417ZM42.2389 53.3145C42.2389 52.7188 42.1119 52.2484 41.858 51.9033C41.6041 51.5583 41.2558 51.3857 40.8131 51.3857C40.2662 51.3857 39.8561 51.6283 39.5826 52.1133V54.6377C39.8528 55.1195 40.2662 55.3604 40.8229 55.3604C41.2558 55.3604 41.5992 55.1895 41.8531 54.8477C42.1103 54.5026 42.2389 53.9915 42.2389 53.3145ZM43.7553 53.3096C43.7553 52.792 43.8562 52.3265 44.058 51.9131C44.2631 51.4997 44.5463 51.1807 44.9076 50.9561C45.2722 50.7314 45.6872 50.6191 46.1527 50.6191C46.8721 50.6191 47.4532 50.8682 47.8959 51.3662C48.3419 51.8643 48.5648 52.5267 48.5648 53.3535V53.417C48.5648 53.9313 48.4656 54.3936 48.267 54.8037C48.0717 55.2106 47.7901 55.528 47.4223 55.7559C47.0577 55.9837 46.6378 56.0977 46.1625 56.0977C45.4464 56.0977 44.8653 55.8486 44.4193 55.3506C43.9766 54.8525 43.7553 54.1934 43.7553 53.373V53.3096ZM44.6635 53.417C44.6635 54.0029 44.7986 54.4733 45.0687 54.8281C45.3422 55.1829 45.7068 55.3604 46.1625 55.3604C46.6215 55.3604 46.9861 55.1813 47.2562 54.8232C47.5264 54.4619 47.6615 53.9574 47.6615 53.3096C47.6615 52.7301 47.5232 52.2614 47.2465 51.9033C46.973 51.542 46.6085 51.3613 46.1527 51.3613C45.7068 51.3613 45.3471 51.5387 45.0736 51.8936C44.8002 52.2484 44.6635 52.7562 44.6635 53.417Z" fill="#666666"/>
<defs>
<filter id="filter0_d_7838:59959" x="0" y="0" width="66" height="34" filterUnits="userSpaceOnUse" color-interpolation-filters="sRGB">
<feFlood flood-opacity="0" result="BackgroundImageFix"/>
<feColorMatrix in="SourceAlpha" type="matrix" values="0 0 0 0 0 0 0 0 0 0 0 0 0 0 0 0 0 0 127 0" result="hardAlpha"/>
<feOffset dy="1"/>
<feGaussianBlur stdDeviation="1"/>
<feColorMatrix type="matrix" values="0 0 0 0 0 0 0 0 0 0 0 0 0 0 0 0 0 0 0.2 0"/>
<feBlend mode="normal" in2="BackgroundImageFix" result="effect1_dropShadow_7838:59959"/>
<feBlend mode="normal" in="SourceGraphic" in2="effect1_dropShadow_7838:59959" result="shape"/>
</filter>
</defs>
</svg>
