<svg width="66" height="61" viewBox="0 0 66 61" fill="none" xmlns="http://www.w3.org/2000/svg">
<g filter="url(#filter0_d_7838:59967)">
<rect x="2" y="1" width="62" height="30" rx="8" fill="#E7F3F9"/>
<path d="M27.502 17.0195V22.2695" stroke="#007DC5" stroke-linecap="round" stroke-linejoin="round"/>
<path fill-rule="evenodd" clip-rule="evenodd" d="M36.252 21.3945C36.252 20.428 35.4685 19.6445 34.502 19.6445H32.3145C32.3145 18.678 31.531 17.8945 30.5645 17.8945H27.502V21.3945H36.252Z" stroke="#007DC5" stroke-linecap="round" stroke-linejoin="round"/>
<path d="M30.5645 19.6445H32.3145" stroke="#007DC5" stroke-linecap="round" stroke-linejoin="round"/>
<path fill-rule="evenodd" clip-rule="evenodd" d="M38.4395 14.3945C38.4395 15.8443 37.2642 17.0195 35.8145 17.0195C34.3647 17.0195 33.1895 15.8443 33.1895 14.3945C33.1895 12.6445 35.377 9.58203 35.8145 9.58203C36.252 9.58203 38.4395 12.6445 38.4395 14.3945Z" stroke="#007DC5" stroke-linecap="round" stroke-linejoin="round"/>
<path d="M35.8145 15.2695C35.3312 15.2695 34.9395 14.8778 34.9395 14.3945" stroke="#007DC5" stroke-linecap="round" stroke-linejoin="round"/>
</g>
<path d="M8.73555 41.7441C8.64766 42.4961 8.36934 43.0771 7.90059 43.4873C7.43509 43.8942 6.81497 44.0977 6.04023 44.0977C5.20039 44.0977 4.52656 43.7965 4.01875 43.1943C3.51419 42.5921 3.26191 41.7865 3.26191 40.7773V40.0938C3.26191 39.4329 3.3791 38.8519 3.61348 38.3506C3.85111 37.8493 4.18639 37.4652 4.61934 37.1982C5.05228 36.9281 5.55358 36.793 6.12324 36.793C6.87845 36.793 7.48392 37.0046 7.93965 37.4277C8.39538 37.8477 8.66068 38.4303 8.73555 39.1758H7.79316C7.71178 38.6094 7.53437 38.1992 7.26094 37.9453C6.99075 37.6914 6.61152 37.5645 6.12324 37.5645C5.52428 37.5645 5.05391 37.7858 4.71211 38.2285C4.37357 38.6712 4.2043 39.3011 4.2043 40.1182V40.8066C4.2043 41.5781 4.36543 42.1917 4.68769 42.6475C5.00996 43.1032 5.46081 43.3311 6.04023 43.3311C6.56107 43.3311 6.95983 43.2139 7.23652 42.9795C7.51647 42.7419 7.70202 42.3301 7.79316 41.7441H8.73555ZM12.8398 43.4775C12.4883 43.891 11.9723 44.0977 11.292 44.0977C10.7288 44.0977 10.2992 43.9349 10.0029 43.6094C9.70996 43.2806 9.56185 42.7956 9.55859 42.1543V38.7168H10.4619V42.1299C10.4619 42.9307 10.7874 43.3311 11.4385 43.3311C12.1286 43.3311 12.5876 43.0739 12.8154 42.5596V38.7168H13.7187V44H12.8594L12.8398 43.4775ZM15.7771 44H14.8738V38.7168H15.7771V44ZM14.8006 37.3154C14.8006 37.1689 14.8445 37.0452 14.9324 36.9443C15.0236 36.8434 15.157 36.793 15.3328 36.793C15.5086 36.793 15.6421 36.8434 15.7332 36.9443C15.8243 37.0452 15.8699 37.1689 15.8699 37.3154C15.8699 37.4619 15.8243 37.584 15.7332 37.6816C15.6421 37.7793 15.5086 37.8281 15.3328 37.8281C15.157 37.8281 15.0236 37.7793 14.9324 37.6816C14.8445 37.584 14.8006 37.4619 14.8006 37.3154ZM16.7076 41.3145C16.7076 40.5039 16.8997 39.8529 17.2838 39.3613C17.6679 38.8665 18.1708 38.6191 18.7926 38.6191C19.4111 38.6191 19.901 38.8307 20.2623 39.2539V36.5H21.1656V44H20.3355L20.2916 43.4336C19.9303 43.8763 19.4273 44.0977 18.7828 44.0977C18.1708 44.0977 17.6712 43.847 17.2838 43.3457C16.8997 42.8444 16.7076 42.1901 16.7076 41.3828V41.3145ZM17.6109 41.417C17.6109 42.016 17.7346 42.4847 17.982 42.8232C18.2294 43.1618 18.5712 43.3311 19.0074 43.3311C19.5803 43.3311 19.9986 43.0739 20.2623 42.5596V40.1328C19.9921 39.6348 19.5771 39.3857 19.0172 39.3857C18.5745 39.3857 18.2294 39.5566 17.982 39.8984C17.7346 40.2402 17.6109 40.7464 17.6109 41.417ZM25.5336 44C25.4815 43.8958 25.4392 43.7103 25.4066 43.4434C24.9867 43.8796 24.4854 44.0977 23.9027 44.0977C23.3819 44.0977 22.9538 43.9512 22.6186 43.6582C22.2865 43.362 22.1205 42.9876 22.1205 42.5352C22.1205 41.985 22.3288 41.5586 22.7455 41.2559C23.1654 40.9499 23.7546 40.7969 24.5131 40.7969H25.392V40.3818C25.392 40.0661 25.2976 39.8154 25.1088 39.6299C24.92 39.4411 24.6417 39.3467 24.2738 39.3467C23.9516 39.3467 23.6814 39.4281 23.4633 39.5908C23.2452 39.7536 23.1361 39.9505 23.1361 40.1816H22.2279C22.2279 39.918 22.3207 39.6641 22.5062 39.4199C22.6951 39.1725 22.949 38.9772 23.268 38.834C23.5902 38.6908 23.9434 38.6191 24.3275 38.6191C24.9363 38.6191 25.4131 38.7721 25.7582 39.0781C26.1033 39.3809 26.2823 39.7992 26.2953 40.333V42.7646C26.2953 43.2497 26.3572 43.6354 26.4809 43.9219V44H25.5336ZM24.0346 43.3115C24.3178 43.3115 24.5863 43.2383 24.8402 43.0918C25.0941 42.9453 25.2781 42.7549 25.392 42.5205V41.4365H24.684C23.5772 41.4365 23.0238 41.7604 23.0238 42.4082C23.0238 42.6914 23.1182 42.9128 23.307 43.0723C23.4958 43.2318 23.7383 43.3115 24.0346 43.3115ZM27.1916 41.3145C27.1916 40.5039 27.3837 39.8529 27.7678 39.3613C28.1519 38.8665 28.6548 38.6191 29.2766 38.6191C29.8951 38.6191 30.385 38.8307 30.7463 39.2539V36.5H31.6496V44H30.8195L30.7756 43.4336C30.4143 43.8763 29.9113 44.0977 29.2668 44.0977C28.6548 44.0977 28.1551 43.847 27.7678 43.3457C27.3837 42.8444 27.1916 42.1901 27.1916 41.3828V41.3145ZM28.0949 41.417C28.0949 42.016 28.2186 42.4847 28.466 42.8232C28.7134 43.1618 29.0552 43.3311 29.4914 43.3311C30.0643 43.3311 30.4826 43.0739 30.7463 42.5596V40.1328C30.4761 39.6348 30.0611 39.3857 29.5012 39.3857C29.0585 39.3857 28.7134 39.5566 28.466 39.8984C28.2186 40.2402 28.0949 40.7464 28.0949 41.417ZM32.5166 41.3096C32.5166 40.792 32.6175 40.3265 32.8193 39.9131C33.0244 39.4997 33.3076 39.1807 33.6689 38.9561C34.0335 38.7314 34.4486 38.6191 34.9141 38.6191C35.6335 38.6191 36.2145 38.8682 36.6572 39.3662C37.1032 39.8643 37.3262 40.5267 37.3262 41.3535V41.417C37.3262 41.9313 37.2269 42.3936 37.0283 42.8037C36.833 43.2106 36.5514 43.528 36.1836 43.7559C35.819 43.9837 35.3991 44.0977 34.9238 44.0977C34.2077 44.0977 33.6266 43.8486 33.1807 43.3506C32.738 42.8525 32.5166 42.1934 32.5166 41.373V41.3096ZM33.4248 41.417C33.4248 42.0029 33.5599 42.4733 33.8301 42.8281C34.1035 43.1829 34.4681 43.3604 34.9238 43.3604C35.3828 43.3604 35.7474 43.1813 36.0176 42.8232C36.2878 42.4619 36.4229 41.9574 36.4229 41.3096C36.4229 40.7301 36.2845 40.2614 36.0078 39.9033C35.7344 39.542 35.3698 39.3613 34.9141 39.3613C34.4681 39.3613 34.1084 39.5387 33.835 39.8936C33.5615 40.2484 33.4248 40.7562 33.4248 41.417ZM41.2352 42.5986C41.2352 42.3545 41.1424 42.1657 40.9568 42.0322C40.7745 41.8955 40.4539 41.7783 39.9949 41.6807C39.5392 41.583 39.1762 41.4658 38.9061 41.3291C38.6391 41.1924 38.4406 41.0296 38.3104 40.8408C38.1834 40.652 38.1199 40.4274 38.1199 40.167C38.1199 39.734 38.3022 39.3678 38.6668 39.0684C39.0346 38.7689 39.5034 38.6191 40.073 38.6191C40.672 38.6191 41.157 38.7738 41.5281 39.083C41.9025 39.3923 42.0896 39.7878 42.0896 40.2695H41.1814C41.1814 40.0221 41.0757 39.8089 40.8641 39.6299C40.6557 39.4508 40.3921 39.3613 40.073 39.3613C39.7443 39.3613 39.4871 39.4329 39.3016 39.5762C39.116 39.7194 39.0232 39.9066 39.0232 40.1377C39.0232 40.3558 39.1095 40.5202 39.282 40.6309C39.4546 40.7415 39.7654 40.8473 40.2146 40.9482C40.6671 41.0492 41.0333 41.1696 41.3133 41.3096C41.5932 41.4495 41.7999 41.6188 41.9334 41.8174C42.0701 42.0127 42.1385 42.252 42.1385 42.5352C42.1385 43.0072 41.9497 43.3864 41.5721 43.6729C41.1945 43.9561 40.7046 44.0977 40.1023 44.0977C39.6792 44.0977 39.3048 44.0228 38.9793 43.873C38.6538 43.7233 38.3982 43.515 38.2127 43.248C38.0304 42.9779 37.9393 42.6865 37.9393 42.374H38.8426C38.8589 42.6768 38.9793 42.9176 39.2039 43.0967C39.4318 43.2725 39.7313 43.3604 40.1023 43.3604C40.4441 43.3604 40.7176 43.292 40.9227 43.1553C41.131 43.0153 41.2352 42.8298 41.2352 42.5986ZM47.3148 43.3604C47.6371 43.3604 47.9187 43.2627 48.1596 43.0674C48.4005 42.8721 48.5339 42.6279 48.56 42.335H49.4145C49.3982 42.6377 49.294 42.9258 49.102 43.1992C48.9099 43.4727 48.6527 43.6908 48.3305 43.8535C48.0115 44.0163 47.6729 44.0977 47.3148 44.0977C46.5954 44.0977 46.0225 43.8584 45.5961 43.3799C45.1729 42.8981 44.9613 42.2406 44.9613 41.4072V41.2559C44.9613 40.7415 45.0557 40.2842 45.2445 39.8838C45.4333 39.4834 45.7035 39.1725 46.0551 38.9512C46.4099 38.7298 46.8282 38.6191 47.31 38.6191C47.9024 38.6191 48.3939 38.7965 48.7846 39.1514C49.1784 39.5062 49.3884 39.9668 49.4145 40.5332H48.56C48.5339 40.1914 48.4037 39.9115 48.1693 39.6934C47.9382 39.472 47.6518 39.3613 47.31 39.3613C46.851 39.3613 46.4945 39.5273 46.2406 39.8594C45.99 40.1882 45.8646 40.665 45.8646 41.29V41.4609C45.8646 42.0697 45.99 42.5384 46.2406 42.8672C46.4913 43.196 46.8493 43.3604 47.3148 43.3604ZM49.8908 41.3096C49.8908 40.792 49.9917 40.3265 50.1936 39.9131C50.3986 39.4997 50.6818 39.1807 51.0432 38.9561C51.4077 38.7314 51.8228 38.6191 52.2883 38.6191C53.0077 38.6191 53.5887 38.8682 54.0314 39.3662C54.4774 39.8643 54.7004 40.5267 54.7004 41.3535V41.417C54.7004 41.9313 54.6011 42.3936 54.4025 42.8037C54.2072 43.2106 53.9257 43.528 53.5578 43.7559C53.1932 43.9837 52.7733 44.0977 52.298 44.0977C51.5819 44.0977 51.0008 43.8486 50.5549 43.3506C50.1122 42.8525 49.8908 42.1934 49.8908 41.373V41.3096ZM50.799 41.417C50.799 42.0029 50.9341 42.4733 51.2043 42.8281C51.4777 43.1829 51.8423 43.3604 52.298 43.3604C52.757 43.3604 53.1216 43.1813 53.3918 42.8232C53.662 42.4619 53.7971 41.9574 53.7971 41.3096C53.7971 40.7301 53.6587 40.2614 53.382 39.9033C53.1086 39.542 52.744 39.3613 52.2883 39.3613C51.8423 39.3613 51.4826 39.5387 51.2092 39.8936C50.9357 40.2484 50.799 40.7562 50.799 41.417ZM56.3828 38.7168L56.4072 39.3027C56.7946 38.847 57.3171 38.6191 57.9746 38.6191C58.7135 38.6191 59.2165 38.9023 59.4834 39.4688C59.6592 39.2148 59.887 39.0098 60.167 38.8535C60.4502 38.6973 60.7839 38.6191 61.168 38.6191C62.3268 38.6191 62.916 39.2327 62.9355 40.46V44H62.0322V40.5137C62.0322 40.1361 61.946 39.8545 61.7734 39.6689C61.6009 39.4801 61.3112 39.3857 60.9043 39.3857C60.569 39.3857 60.2907 39.4867 60.0693 39.6885C59.848 39.887 59.7194 40.1556 59.6836 40.4941V44H58.7754V40.5381C58.7754 39.7699 58.3994 39.3857 57.6475 39.3857C57.055 39.3857 56.6497 39.638 56.4316 40.1426V44H55.5283V38.7168H56.3828ZM5.29941 53.3096C5.29941 52.792 5.40033 52.3265 5.60215 51.9131C5.80723 51.4997 6.09043 51.1807 6.45176 50.9561C6.81634 50.7314 7.23138 50.6191 7.69687 50.6191C8.41628 50.6191 8.99733 50.8682 9.44004 51.3662C9.886 51.8643 10.109 52.5267 10.109 53.3535V53.417C10.109 53.9313 10.0097 54.3936 9.81113 54.8037C9.61582 55.2106 9.33424 55.528 8.96641 55.7559C8.60182 55.9837 8.1819 56.0977 7.70664 56.0977C6.99049 56.0977 6.40944 55.8486 5.96348 55.3506C5.52077 54.8525 5.29941 54.1934 5.29941 53.373V53.3096ZM6.20762 53.417C6.20762 54.0029 6.34271 54.4733 6.61289 54.8281C6.88633 55.1829 7.25091 55.3604 7.70664 55.3604C8.16562 55.3604 8.53021 55.1813 8.80039 54.8232C9.07057 54.4619 9.20566 53.9574 9.20566 53.3096C9.20566 52.7301 9.06732 52.2614 8.79062 51.9033C8.51719 51.542 8.1526 51.3613 7.69687 51.3613C7.25091 51.3613 6.89121 51.5387 6.61777 51.8936C6.34434 52.2484 6.20762 52.7562 6.20762 53.417ZM14.018 54.5986C14.018 54.3545 13.9252 54.1657 13.7396 54.0322C13.5574 53.8955 13.2367 53.7783 12.7777 53.6807C12.322 53.583 11.959 53.4658 11.6889 53.3291C11.4219 53.1924 11.2234 53.0296 11.0932 52.8408C10.9662 52.652 10.9027 52.4274 10.9027 52.167C10.9027 51.734 11.085 51.3678 11.4496 51.0684C11.8174 50.7689 12.2862 50.6191 12.8559 50.6191C13.4548 50.6191 13.9398 50.7738 14.3109 51.083C14.6853 51.3923 14.8725 51.7878 14.8725 52.2695H13.9643C13.9643 52.0221 13.8585 51.8089 13.6469 51.6299C13.4385 51.4508 13.1749 51.3613 12.8559 51.3613C12.5271 51.3613 12.2699 51.4329 12.0844 51.5762C11.8988 51.7194 11.8061 51.9066 11.8061 52.1377C11.8061 52.3558 11.8923 52.5202 12.0648 52.6309C12.2374 52.7415 12.5482 52.8473 12.9975 52.9482C13.4499 53.0492 13.8161 53.1696 14.0961 53.3096C14.376 53.4495 14.5827 53.6188 14.7162 53.8174C14.8529 54.0127 14.9213 54.252 14.9213 54.5352C14.9213 55.0072 14.7325 55.3864 14.3549 55.6729C13.9773 55.9561 13.4874 56.0977 12.8852 56.0977C12.462 56.0977 12.0876 56.0228 11.7621 55.873C11.4366 55.7233 11.1811 55.515 10.9955 55.248C10.8132 54.9779 10.7221 54.6865 10.7221 54.374H11.6254C11.6417 54.6768 11.7621 54.9176 11.9867 55.0967C12.2146 55.2725 12.5141 55.3604 12.8852 55.3604C13.227 55.3604 13.5004 55.292 13.7055 55.1553C13.9138 55.0153 14.018 54.8298 14.018 54.5986ZM22.4414 53.417C22.4414 54.221 22.2575 54.8688 21.8896 55.3604C21.5218 55.8519 21.0238 56.0977 20.3955 56.0977C19.7542 56.0977 19.2497 55.8942 18.8818 55.4873V58.0312H17.9785V50.7168H18.8037L18.8477 51.3027C19.2155 50.847 19.7266 50.6191 20.3809 50.6191C21.0156 50.6191 21.5169 50.8584 21.8848 51.3369C22.2559 51.8154 22.4414 52.4811 22.4414 53.334V53.417ZM21.5381 53.3145C21.5381 52.7188 21.4111 52.2484 21.1572 51.9033C20.9033 51.5583 20.555 51.3857 20.1123 51.3857C19.5654 51.3857 19.1553 51.6283 18.8818 52.1133V54.6377C19.152 55.1195 19.5654 55.3604 20.1221 55.3604C20.555 55.3604 20.8984 55.1895 21.1523 54.8477C21.4095 54.5026 21.5381 53.9915 21.5381 53.3145ZM25.4861 56.0977C24.77 56.0977 24.1873 55.8633 23.7381 55.3945C23.2889 54.9225 23.0643 54.2926 23.0643 53.5049V53.3389C23.0643 52.8148 23.1635 52.3477 23.3621 51.9375C23.5639 51.5241 23.8439 51.2018 24.202 50.9707C24.5633 50.7363 24.9539 50.6191 25.3738 50.6191C26.0607 50.6191 26.5945 50.8454 26.9754 51.2979C27.3562 51.7503 27.5467 52.3981 27.5467 53.2412V53.6172H23.9676C23.9806 54.138 24.132 54.5596 24.4217 54.8818C24.7146 55.2008 25.0857 55.3604 25.535 55.3604C25.854 55.3604 26.1242 55.2952 26.3455 55.165C26.5669 55.0348 26.7605 54.8623 26.9266 54.6475L27.4783 55.0771C27.0356 55.7575 26.3715 56.0977 25.4861 56.0977ZM25.3738 51.3613C25.0092 51.3613 24.7033 51.4948 24.4559 51.7617C24.2085 52.0254 24.0555 52.3965 23.9969 52.875H26.6434V52.8066C26.6173 52.3477 26.4936 51.9928 26.2723 51.7422C26.0509 51.4883 25.7514 51.3613 25.3738 51.3613ZM25.8133 48.5H26.907L25.5984 49.9355H24.8709L25.8133 48.5ZM31.3727 54.5986C31.3727 54.3545 31.2799 54.1657 31.0943 54.0322C30.912 53.8955 30.5914 53.7783 30.1324 53.6807C29.6767 53.583 29.3137 53.4658 29.0436 53.3291C28.7766 53.1924 28.5781 53.0296 28.4479 52.8408C28.3209 52.652 28.2574 52.4274 28.2574 52.167C28.2574 51.734 28.4397 51.3678 28.8043 51.0684C29.1721 50.7689 29.6409 50.6191 30.2105 50.6191C30.8095 50.6191 31.2945 50.7738 31.6656 51.083C32.04 51.3923 32.2271 51.7878 32.2271 52.2695H31.3189C31.3189 52.0221 31.2132 51.8089 31.0016 51.6299C30.7932 51.4508 30.5296 51.3613 30.2105 51.3613C29.8818 51.3613 29.6246 51.4329 29.4391 51.5762C29.2535 51.7194 29.1607 51.9066 29.1607 52.1377C29.1607 52.3558 29.247 52.5202 29.4195 52.6309C29.5921 52.7415 29.9029 52.8473 30.3521 52.9482C30.8046 53.0492 31.1708 53.1696 31.4508 53.3096C31.7307 53.4495 31.9374 53.6188 32.0709 53.8174C32.2076 54.0127 32.276 54.252 32.276 54.5352C32.276 55.0072 32.0872 55.3864 31.7096 55.6729C31.332 55.9561 30.8421 56.0977 30.2398 56.0977C29.8167 56.0977 29.4423 56.0228 29.1168 55.873C28.7913 55.7233 28.5357 55.515 28.3502 55.248C28.1679 54.9779 28.0768 54.6865 28.0768 54.374H28.9801C28.9964 54.6768 29.1168 54.9176 29.3414 55.0967C29.5693 55.2725 29.8687 55.3604 30.2398 55.3604C30.5816 55.3604 30.8551 55.292 31.0602 55.1553C31.2685 55.0153 31.3727 54.8298 31.3727 54.5986ZM37.5256 56.0977C36.8094 56.0977 36.2268 55.8633 35.7775 55.3945C35.3283 54.9225 35.1037 54.2926 35.1037 53.5049V53.3389C35.1037 52.8148 35.203 52.3477 35.4016 51.9375C35.6034 51.5241 35.8833 51.2018 36.2414 50.9707C36.6027 50.7363 36.9934 50.6191 37.4133 50.6191C38.1001 50.6191 38.634 50.8454 39.0148 51.2979C39.3957 51.7503 39.5861 52.3981 39.5861 53.2412V53.6172H36.007C36.0201 54.138 36.1714 54.5596 36.4611 54.8818C36.7541 55.2008 37.1252 55.3604 37.5744 55.3604C37.8934 55.3604 38.1636 55.2952 38.385 55.165C38.6063 55.0348 38.8 54.8623 38.966 54.6475L39.5178 55.0771C39.0751 55.7575 38.411 56.0977 37.5256 56.0977ZM37.4133 51.3613C37.0487 51.3613 36.7427 51.4948 36.4953 51.7617C36.2479 52.0254 36.0949 52.3965 36.0363 52.875H38.6828V52.8066C38.6568 52.3477 38.5331 51.9928 38.3117 51.7422C38.0904 51.4883 37.7909 51.3613 37.4133 51.3613ZM43.366 50.7168L43.3904 51.3027C43.7778 50.847 44.3003 50.6191 44.9578 50.6191C45.6967 50.6191 46.1997 50.9023 46.4666 51.4688C46.6424 51.2148 46.8702 51.0098 47.1502 50.8535C47.4334 50.6973 47.7671 50.6191 48.1512 50.6191C49.31 50.6191 49.8992 51.2327 49.9187 52.46V56H49.0154V52.5137C49.0154 52.1361 48.9292 51.8545 48.7566 51.6689C48.5841 51.4801 48.2944 51.3857 47.8875 51.3857C47.5522 51.3857 47.2739 51.4867 47.0525 51.6885C46.8312 51.887 46.7026 52.1556 46.6668 52.4941V56H45.7586V52.5381C45.7586 51.7699 45.3826 51.3857 44.6307 51.3857C44.0382 51.3857 43.6329 51.638 43.4148 52.1426V56H42.5115V50.7168H43.366ZM54.2477 56C54.1956 55.8958 54.1533 55.7103 54.1207 55.4434C53.7008 55.8796 53.1995 56.0977 52.6168 56.0977C52.096 56.0977 51.6679 55.9512 51.3326 55.6582C51.0006 55.362 50.8346 54.9876 50.8346 54.5352C50.8346 53.985 51.0429 53.5586 51.4596 53.2559C51.8795 52.9499 52.4687 52.7969 53.2271 52.7969H54.1061V52.3818C54.1061 52.0661 54.0117 51.8154 53.8229 51.6299C53.6341 51.4411 53.3557 51.3467 52.9879 51.3467C52.6656 51.3467 52.3954 51.4281 52.1773 51.5908C51.9592 51.7536 51.8502 51.9505 51.8502 52.1816H50.942C50.942 51.918 51.0348 51.6641 51.2203 51.4199C51.4091 51.1725 51.663 50.9772 51.982 50.834C52.3043 50.6908 52.6575 50.6191 53.0416 50.6191C53.6503 50.6191 54.1272 50.7721 54.4723 51.0781C54.8173 51.3809 54.9964 51.7992 55.0094 52.333V54.7646C55.0094 55.2497 55.0712 55.6354 55.1949 55.9219V56H54.2477ZM52.7486 55.3115C53.0318 55.3115 53.3004 55.2383 53.5543 55.0918C53.8082 54.9453 53.9921 54.7549 54.1061 54.5205V53.4365H53.398C52.2913 53.4365 51.7379 53.7604 51.7379 54.4082C51.7379 54.6914 51.8323 54.9128 52.0211 55.0723C52.2099 55.2318 52.4524 55.3115 52.7486 55.3115ZM54.8727 48.6562C54.8727 49.0078 54.7717 49.2926 54.5699 49.5107C54.3714 49.7288 54.1223 49.8379 53.8229 49.8379C53.6894 49.8379 53.5738 49.8216 53.4762 49.7891C53.3785 49.7565 53.2499 49.6898 53.0904 49.5889C52.9342 49.488 52.8202 49.4277 52.7486 49.4082C52.6803 49.3854 52.6005 49.374 52.5094 49.374C52.3759 49.374 52.262 49.4261 52.1676 49.5303C52.0732 49.6312 52.026 49.7614 52.026 49.9209L51.4205 49.8867C51.4205 49.5384 51.5182 49.2503 51.7135 49.0225C51.912 48.7946 52.1627 48.6807 52.4654 48.6807C52.5794 48.6807 52.6819 48.6969 52.773 48.7295C52.8642 48.762 52.9879 48.8255 53.1441 48.9199C53.3004 49.0143 53.4192 49.0762 53.5006 49.1055C53.5852 49.1348 53.678 49.1494 53.7789 49.1494C53.9189 49.1494 54.0344 49.0941 54.1256 48.9834C54.22 48.8727 54.2672 48.7441 54.2672 48.5977L54.8727 48.6562ZM55.8861 53.3096C55.8861 52.792 55.987 52.3265 56.1889 51.9131C56.3939 51.4997 56.6771 51.1807 57.0385 50.9561C57.4031 50.7314 57.8181 50.6191 58.2836 50.6191C59.003 50.6191 59.584 50.8682 60.0268 51.3662C60.4727 51.8643 60.6957 52.5267 60.6957 53.3535V53.417C60.6957 53.9313 60.5964 54.3936 60.3979 54.8037C60.2025 55.2106 59.921 55.528 59.5531 55.7559C59.1885 55.9837 58.7686 56.0977 58.2934 56.0977C57.5772 56.0977 56.9962 55.8486 56.5502 55.3506C56.1075 54.8525 55.8861 54.1934 55.8861 53.373V53.3096ZM56.7943 53.417C56.7943 54.0029 56.9294 54.4733 57.1996 54.8281C57.473 55.1829 57.8376 55.3604 58.2934 55.3604C58.7523 55.3604 59.1169 55.1813 59.3871 54.8232C59.6573 54.4619 59.7924 53.9574 59.7924 53.3096C59.7924 52.7301 59.654 52.2614 59.3773 51.9033C59.1039 51.542 58.7393 51.3613 58.2836 51.3613C57.8376 51.3613 57.4779 51.5387 57.2045 51.8936C56.9311 52.2484 56.7943 52.7562 56.7943 53.417Z" fill="#666666"/>
<defs>
<filter id="filter0_d_7838:59967" x="0" y="0" width="66" height="34" filterUnits="userSpaceOnUse" color-interpolation-filters="sRGB">
<feFlood flood-opacity="0" result="BackgroundImageFix"/>
<feColorMatrix in="SourceAlpha" type="matrix" values="0 0 0 0 0 0 0 0 0 0 0 0 0 0 0 0 0 0 127 0" result="hardAlpha"/>
<feOffset dy="1"/>
<feGaussianBlur stdDeviation="1"/>
<feColorMatrix type="matrix" values="0 0 0 0 0 0 0 0 0 0 0 0 0 0 0 0 0 0 0.2 0"/>
<feBlend mode="normal" in2="BackgroundImageFix" result="effect1_dropShadow_7838:59967"/>
<feBlend mode="normal" in="SourceGraphic" in2="effect1_dropShadow_7838:59967" result="shape"/>
</filter>
</defs>
</svg>
