<svg width="66" height="61" viewBox="0 0 66 61" fill="none" xmlns="http://www.w3.org/2000/svg">
<g filter="url(#filter0_d_7838:59979)">
<rect x="2" y="1" width="62" height="30" rx="8" fill="#E7F3F9"/>
<path d="M30.084 15.1252C30.084 14.8102 30.5816 14.5547 31.1958 14.5547C31.8101 14.5547 32.2715 14.8102 32.2715 15.1252" stroke="#007DC5" stroke-linecap="round" stroke-linejoin="round"/>
<path d="M34.0215 15.1252C34.0215 14.8102 34.5191 14.5547 35.1333 14.5547C35.7476 14.5547 36.2452 14.8102 36.2452 15.1252" stroke="#007DC5" stroke-linecap="round" stroke-linejoin="round"/>
<ellipse cx="33.1465" cy="16" rx="6.125" ry="6.5625" stroke="#007DC5" stroke-linecap="round" stroke-linejoin="round"/>
<path d="M39.2715 16H37.5215" stroke="#007DC5" stroke-linecap="round" stroke-linejoin="round"/>
<path d="M27.0215 16H28.7715" stroke="#007DC5" stroke-linecap="round" stroke-linejoin="round"/>
<path d="M37.2423 11.1211L35.959 12.6494" stroke="#007DC5" stroke-linecap="round" stroke-linejoin="round"/>
<path d="M29.0508 11.1211L30.3341 12.6494" stroke="#007DC5" stroke-linecap="round" stroke-linejoin="round"/>
<path d="M37.2423 20.8799L35.959 19.3516" stroke="#007DC5" stroke-linecap="round" stroke-linejoin="round"/>
<path d="M29.0508 20.8799L30.3341 19.3516" stroke="#007DC5" stroke-linecap="round" stroke-linejoin="round"/>
<path d="M32.2715 18.625H34.0215" stroke="#007DC5" stroke-linecap="round" stroke-linejoin="round"/>
</g>
<path d="M8.58555 41.7441C8.49766 42.4961 8.21934 43.0771 7.75059 43.4873C7.28509 43.8942 6.66497 44.0977 5.89023 44.0977C5.05039 44.0977 4.37656 43.7965 3.86875 43.1943C3.36419 42.5921 3.11191 41.7865 3.11191 40.7773V40.0938C3.11191 39.4329 3.2291 38.8519 3.46348 38.3506C3.70111 37.8493 4.03639 37.4652 4.46934 37.1982C4.90228 36.9281 5.40358 36.793 5.97324 36.793C6.72845 36.793 7.33392 37.0046 7.78965 37.4277C8.24538 37.8477 8.51068 38.4303 8.58555 39.1758H7.64316C7.56178 38.6094 7.38437 38.1992 7.11094 37.9453C6.84075 37.6914 6.46152 37.5645 5.97324 37.5645C5.37428 37.5645 4.90391 37.7858 4.56211 38.2285C4.22357 38.6712 4.0543 39.3011 4.0543 40.1182V40.8066C4.0543 41.5781 4.21543 42.1917 4.53769 42.6475C4.85996 43.1032 5.31081 43.3311 5.89023 43.3311C6.41107 43.3311 6.80983 43.2139 7.08652 42.9795C7.36647 42.7419 7.55202 42.3301 7.64316 41.7441H8.58555ZM12.6898 43.4775C12.3383 43.891 11.8223 44.0977 11.142 44.0977C10.5788 44.0977 10.1492 43.9349 9.85293 43.6094C9.55996 43.2806 9.41185 42.7956 9.40859 42.1543V38.7168H10.3119V42.1299C10.3119 42.9307 10.6374 43.3311 11.2885 43.3311C11.9786 43.3311 12.4376 43.0739 12.6654 42.5596V38.7168H13.5687V44H12.7094L12.6898 43.4775ZM15.6271 44H14.7238V38.7168H15.6271V44ZM14.6506 37.3154C14.6506 37.1689 14.6945 37.0452 14.7824 36.9443C14.8736 36.8434 15.007 36.793 15.1828 36.793C15.3586 36.793 15.4921 36.8434 15.5832 36.9443C15.6743 37.0452 15.7199 37.1689 15.7199 37.3154C15.7199 37.4619 15.6743 37.584 15.5832 37.6816C15.4921 37.7793 15.3586 37.8281 15.1828 37.8281C15.007 37.8281 14.8736 37.7793 14.7824 37.6816C14.6945 37.584 14.6506 37.4619 14.6506 37.3154ZM16.5576 41.3145C16.5576 40.5039 16.7497 39.8529 17.1338 39.3613C17.5179 38.8665 18.0208 38.6191 18.6426 38.6191C19.2611 38.6191 19.751 38.8307 20.1123 39.2539V36.5H21.0156V44H20.1855L20.1416 43.4336C19.7803 43.8763 19.2773 44.0977 18.6328 44.0977C18.0208 44.0977 17.5212 43.847 17.1338 43.3457C16.7497 42.8444 16.5576 42.1901 16.5576 41.3828V41.3145ZM17.4609 41.417C17.4609 42.016 17.5846 42.4847 17.832 42.8232C18.0794 43.1618 18.4212 43.3311 18.8574 43.3311C19.4303 43.3311 19.8486 43.0739 20.1123 42.5596V40.1328C19.8421 39.6348 19.4271 39.3857 18.8672 39.3857C18.4245 39.3857 18.0794 39.5566 17.832 39.8984C17.5846 40.2402 17.4609 40.7464 17.4609 41.417ZM25.3836 44C25.3315 43.8958 25.2892 43.7103 25.2566 43.4434C24.8367 43.8796 24.3354 44.0977 23.7527 44.0977C23.2319 44.0977 22.8038 43.9512 22.4686 43.6582C22.1365 43.362 21.9705 42.9876 21.9705 42.5352C21.9705 41.985 22.1788 41.5586 22.5955 41.2559C23.0154 40.9499 23.6046 40.7969 24.3631 40.7969H25.242V40.3818C25.242 40.0661 25.1476 39.8154 24.9588 39.6299C24.77 39.4411 24.4917 39.3467 24.1238 39.3467C23.8016 39.3467 23.5314 39.4281 23.3133 39.5908C23.0952 39.7536 22.9861 39.9505 22.9861 40.1816H22.0779C22.0779 39.918 22.1707 39.6641 22.3562 39.4199C22.5451 39.1725 22.799 38.9772 23.118 38.834C23.4402 38.6908 23.7934 38.6191 24.1775 38.6191C24.7863 38.6191 25.2631 38.7721 25.6082 39.0781C25.9533 39.3809 26.1323 39.7992 26.1453 40.333V42.7646C26.1453 43.2497 26.2072 43.6354 26.3309 43.9219V44H25.3836ZM23.8846 43.3115C24.1678 43.3115 24.4363 43.2383 24.6902 43.0918C24.9441 42.9453 25.1281 42.7549 25.242 42.5205V41.4365H24.534C23.4272 41.4365 22.8738 41.7604 22.8738 42.4082C22.8738 42.6914 22.9682 42.9128 23.157 43.0723C23.3458 43.2318 23.5883 43.3115 23.8846 43.3115ZM27.0416 41.3145C27.0416 40.5039 27.2337 39.8529 27.6178 39.3613C28.0019 38.8665 28.5048 38.6191 29.1266 38.6191C29.7451 38.6191 30.235 38.8307 30.5963 39.2539V36.5H31.4996V44H30.6695L30.6256 43.4336C30.2643 43.8763 29.7613 44.0977 29.1168 44.0977C28.5048 44.0977 28.0051 43.847 27.6178 43.3457C27.2337 42.8444 27.0416 42.1901 27.0416 41.3828V41.3145ZM27.9449 41.417C27.9449 42.016 28.0686 42.4847 28.316 42.8232C28.5634 43.1618 28.9052 43.3311 29.3414 43.3311C29.9143 43.3311 30.3326 43.0739 30.5963 42.5596V40.1328C30.3261 39.6348 29.9111 39.3857 29.3512 39.3857C28.9085 39.3857 28.5634 39.5566 28.316 39.8984C28.0686 40.2402 27.9449 40.7464 27.9449 41.417ZM32.3666 41.3096C32.3666 40.792 32.4675 40.3265 32.6693 39.9131C32.8744 39.4997 33.1576 39.1807 33.5189 38.9561C33.8835 38.7314 34.2986 38.6191 34.7641 38.6191C35.4835 38.6191 36.0645 38.8682 36.5072 39.3662C36.9532 39.8643 37.1762 40.5267 37.1762 41.3535V41.417C37.1762 41.9313 37.0769 42.3936 36.8783 42.8037C36.683 43.2106 36.4014 43.528 36.0336 43.7559C35.669 43.9837 35.2491 44.0977 34.7738 44.0977C34.0577 44.0977 33.4766 43.8486 33.0307 43.3506C32.588 42.8525 32.3666 42.1934 32.3666 41.373V41.3096ZM33.2748 41.417C33.2748 42.0029 33.4099 42.4733 33.6801 42.8281C33.9535 43.1829 34.3181 43.3604 34.7738 43.3604C35.2328 43.3604 35.5974 43.1813 35.8676 42.8232C36.1378 42.4619 36.2729 41.9574 36.2729 41.3096C36.2729 40.7301 36.1345 40.2614 35.8578 39.9033C35.5844 39.542 35.2198 39.3613 34.7641 39.3613C34.3181 39.3613 33.9584 39.5387 33.685 39.8936C33.4115 40.2484 33.2748 40.7562 33.2748 41.417ZM41.0852 42.5986C41.0852 42.3545 40.9924 42.1657 40.8068 42.0322C40.6245 41.8955 40.3039 41.7783 39.8449 41.6807C39.3892 41.583 39.0262 41.4658 38.7561 41.3291C38.4891 41.1924 38.2906 41.0296 38.1604 40.8408C38.0334 40.652 37.9699 40.4274 37.9699 40.167C37.9699 39.734 38.1522 39.3678 38.5168 39.0684C38.8846 38.7689 39.3534 38.6191 39.923 38.6191C40.522 38.6191 41.007 38.7738 41.3781 39.083C41.7525 39.3923 41.9397 39.7878 41.9397 40.2695H41.0314C41.0314 40.0221 40.9257 39.8089 40.7141 39.6299C40.5057 39.4508 40.2421 39.3613 39.923 39.3613C39.5943 39.3613 39.3371 39.4329 39.1516 39.5762C38.966 39.7194 38.8732 39.9066 38.8732 40.1377C38.8732 40.3558 38.9595 40.5202 39.132 40.6309C39.3046 40.7415 39.6154 40.8473 40.0647 40.9482C40.5171 41.0492 40.8833 41.1696 41.1633 41.3096C41.4432 41.4495 41.6499 41.6188 41.7834 41.8174C41.9201 42.0127 41.9885 42.252 41.9885 42.5352C41.9885 43.0072 41.7997 43.3864 41.4221 43.6729C41.0445 43.9561 40.5546 44.0977 39.9523 44.0977C39.5292 44.0977 39.1548 44.0228 38.8293 43.873C38.5038 43.7233 38.2482 43.515 38.0627 43.248C37.8804 42.9779 37.7893 42.6865 37.7893 42.374H38.6926C38.7089 42.6768 38.8293 42.9176 39.0539 43.0967C39.2818 43.2725 39.5813 43.3604 39.9523 43.3604C40.2941 43.3604 40.5676 43.292 40.7727 43.1553C40.981 43.0153 41.0852 42.8298 41.0852 42.5986ZM47.1648 43.3604C47.4871 43.3604 47.7687 43.2627 48.0096 43.0674C48.2505 42.8721 48.3839 42.6279 48.41 42.335H49.2645C49.2482 42.6377 49.144 42.9258 48.952 43.1992C48.7599 43.4727 48.5027 43.6908 48.1805 43.8535C47.8615 44.0163 47.5229 44.0977 47.1648 44.0977C46.4454 44.0977 45.8725 43.8584 45.4461 43.3799C45.0229 42.8981 44.8113 42.2406 44.8113 41.4072V41.2559C44.8113 40.7415 44.9057 40.2842 45.0945 39.8838C45.2833 39.4834 45.5535 39.1725 45.9051 38.9512C46.2599 38.7298 46.6782 38.6191 47.16 38.6191C47.7524 38.6191 48.2439 38.7965 48.6346 39.1514C49.0284 39.5062 49.2384 39.9668 49.2645 40.5332H48.41C48.3839 40.1914 48.2537 39.9115 48.0193 39.6934C47.7882 39.472 47.5018 39.3613 47.16 39.3613C46.701 39.3613 46.3445 39.5273 46.0906 39.8594C45.84 40.1882 45.7146 40.665 45.7146 41.29V41.4609C45.7146 42.0697 45.84 42.5384 46.0906 42.8672C46.3413 43.196 46.6993 43.3604 47.1648 43.3604ZM49.7408 41.3096C49.7408 40.792 49.8417 40.3265 50.0436 39.9131C50.2486 39.4997 50.5318 39.1807 50.8932 38.9561C51.2577 38.7314 51.6728 38.6191 52.1383 38.6191C52.8577 38.6191 53.4387 38.8682 53.8814 39.3662C54.3274 39.8643 54.5504 40.5267 54.5504 41.3535V41.417C54.5504 41.9313 54.4511 42.3936 54.2525 42.8037C54.0572 43.2106 53.7757 43.528 53.4078 43.7559C53.0432 43.9837 52.6233 44.0977 52.148 44.0977C51.4319 44.0977 50.8508 43.8486 50.4049 43.3506C49.9622 42.8525 49.7408 42.1934 49.7408 41.373V41.3096ZM50.649 41.417C50.649 42.0029 50.7841 42.4733 51.0543 42.8281C51.3277 43.1829 51.6923 43.3604 52.148 43.3604C52.607 43.3604 52.9716 43.1813 53.2418 42.8232C53.512 42.4619 53.6471 41.9574 53.6471 41.3096C53.6471 40.7301 53.5087 40.2614 53.232 39.9033C52.9586 39.542 52.594 39.3613 52.1383 39.3613C51.6923 39.3613 51.3326 39.5387 51.0592 39.8936C50.7857 40.2484 50.649 40.7562 50.649 41.417ZM56.2328 38.7168L56.2572 39.3027C56.6446 38.847 57.1671 38.6191 57.8246 38.6191C58.5635 38.6191 59.0665 38.9023 59.3334 39.4688C59.5092 39.2148 59.737 39.0098 60.017 38.8535C60.3002 38.6973 60.6339 38.6191 61.018 38.6191C62.1768 38.6191 62.766 39.2327 62.7855 40.46V44H61.8822V40.5137C61.8822 40.1361 61.796 39.8545 61.6234 39.6689C61.4509 39.4801 61.1612 39.3857 60.7543 39.3857C60.419 39.3857 60.1407 39.4867 59.9193 39.6885C59.698 39.887 59.5694 40.1556 59.5336 40.4941V44H58.6254V40.5381C58.6254 39.7699 58.2494 39.3857 57.4975 39.3857C56.905 39.3857 56.4997 39.638 56.2816 40.1426V44H55.3783V38.7168H56.2328ZM18.7389 53.3096C18.7389 52.792 18.8398 52.3265 19.0416 51.9131C19.2467 51.4997 19.5299 51.1807 19.8912 50.9561C20.2558 50.7314 20.6708 50.6191 21.1363 50.6191C21.8557 50.6191 22.4368 50.8682 22.8795 51.3662C23.3255 51.8643 23.5484 52.5267 23.5484 53.3535V53.417C23.5484 53.9313 23.4492 54.3936 23.2506 54.8037C23.0553 55.2106 22.7737 55.528 22.4059 55.7559C22.0413 55.9837 21.6214 56.0977 21.1461 56.0977C20.4299 56.0977 19.8489 55.8486 19.4029 55.3506C18.9602 54.8525 18.7389 54.1934 18.7389 53.373V53.3096ZM19.6471 53.417C19.6471 54.0029 19.7822 54.4733 20.0523 54.8281C20.3258 55.1829 20.6904 55.3604 21.1461 55.3604C21.6051 55.3604 21.9697 55.1813 22.2398 54.8232C22.51 54.4619 22.6451 53.9574 22.6451 53.3096C22.6451 52.7301 22.5068 52.2614 22.2301 51.9033C21.9566 51.542 21.5921 51.3613 21.1363 51.3613C20.6904 51.3613 20.3307 51.5387 20.0572 51.8936C19.7838 52.2484 19.6471 52.7562 19.6471 53.417ZM29.1154 51.5273C28.9787 51.5046 28.8306 51.4932 28.6711 51.4932C28.0786 51.4932 27.6766 51.7454 27.465 52.25V56H26.5617V50.7168H27.4406L27.4553 51.3271C27.7515 50.8551 28.1714 50.6191 28.715 50.6191C28.8908 50.6191 29.0243 50.6419 29.1154 50.6875V51.5273ZM29.3135 53.3096C29.3135 52.792 29.4144 52.3265 29.6162 51.9131C29.8213 51.4997 30.1045 51.1807 30.4658 50.9561C30.8304 50.7314 31.2454 50.6191 31.7109 50.6191C32.4303 50.6191 33.0114 50.8682 33.4541 51.3662C33.9001 51.8643 34.123 52.5267 34.123 53.3535V53.417C34.123 53.9313 34.0238 54.3936 33.8252 54.8037C33.6299 55.2106 33.3483 55.528 32.9805 55.7559C32.6159 55.9837 32.196 56.0977 31.7207 56.0977C31.0046 56.0977 30.4235 55.8486 29.9775 55.3506C29.5348 54.8525 29.3135 54.1934 29.3135 53.373V53.3096ZM30.2217 53.417C30.2217 54.0029 30.3568 54.4733 30.627 54.8281C30.9004 55.1829 31.265 55.3604 31.7207 55.3604C32.1797 55.3604 32.5443 55.1813 32.8145 54.8232C33.0846 54.4619 33.2197 53.9574 33.2197 53.3096C33.2197 52.7301 33.0814 52.2614 32.8047 51.9033C32.5312 51.542 32.1667 51.3613 31.7109 51.3613C31.265 51.3613 30.9053 51.5387 30.6318 51.8936C30.3584 52.2484 30.2217 52.7562 30.2217 53.417ZM38.032 54.5986C38.032 54.3545 37.9393 54.1657 37.7537 54.0322C37.5714 53.8955 37.2508 53.7783 36.7918 53.6807C36.3361 53.583 35.9731 53.4658 35.7029 53.3291C35.436 53.1924 35.2374 53.0296 35.1072 52.8408C34.9803 52.652 34.9168 52.4274 34.9168 52.167C34.9168 51.734 35.0991 51.3678 35.4637 51.0684C35.8315 50.7689 36.3003 50.6191 36.8699 50.6191C37.4689 50.6191 37.9539 50.7738 38.325 51.083C38.6993 51.3923 38.8865 51.7878 38.8865 52.2695H37.9783C37.9783 52.0221 37.8725 51.8089 37.6609 51.6299C37.4526 51.4508 37.1889 51.3613 36.8699 51.3613C36.5411 51.3613 36.284 51.4329 36.0984 51.5762C35.9129 51.7194 35.8201 51.9066 35.8201 52.1377C35.8201 52.3558 35.9064 52.5202 36.0789 52.6309C36.2514 52.7415 36.5623 52.8473 37.0115 52.9482C37.464 53.0492 37.8302 53.1696 38.1102 53.3096C38.3901 53.4495 38.5968 53.6188 38.7303 53.8174C38.867 54.0127 38.9354 54.252 38.9354 54.5352C38.9354 55.0072 38.7466 55.3864 38.3689 55.6729C37.9913 55.9561 37.5014 56.0977 36.8992 56.0977C36.476 56.0977 36.1017 56.0228 35.7762 55.873C35.4507 55.7233 35.1951 55.515 35.0096 55.248C34.8273 54.9779 34.7361 54.6865 34.7361 54.374H35.6395C35.6557 54.6768 35.7762 54.9176 36.0008 55.0967C36.2286 55.2725 36.5281 55.3604 36.8992 55.3604C37.241 55.3604 37.5145 55.292 37.7195 55.1553C37.9279 55.0153 38.032 54.8298 38.032 54.5986ZM41.0377 49.4375V50.7168H42.024V51.415H41.0377V54.6914C41.0377 54.903 41.0816 55.0625 41.1695 55.1699C41.2574 55.2741 41.4072 55.3262 41.6188 55.3262C41.7229 55.3262 41.8661 55.3066 42.0484 55.2676V56C41.8108 56.0651 41.5797 56.0977 41.3551 56.0977C40.9514 56.0977 40.6471 55.9756 40.442 55.7314C40.2369 55.4873 40.1344 55.1406 40.1344 54.6914V51.415H39.1725V50.7168H40.1344V49.4375H41.0377ZM42.4467 53.3096C42.4467 52.792 42.5476 52.3265 42.7494 51.9131C42.9545 51.4997 43.2377 51.1807 43.599 50.9561C43.9636 50.7314 44.3786 50.6191 44.8441 50.6191C45.5635 50.6191 46.1446 50.8682 46.5873 51.3662C47.0333 51.8643 47.2562 52.5267 47.2562 53.3535V53.417C47.2562 53.9313 47.157 54.3936 46.9584 54.8037C46.7631 55.2106 46.4815 55.528 46.1137 55.7559C45.7491 55.9837 45.3292 56.0977 44.8539 56.0977C44.1378 56.0977 43.5567 55.8486 43.1107 55.3506C42.668 54.8525 42.4467 54.1934 42.4467 53.373V53.3096ZM43.3549 53.417C43.3549 54.0029 43.49 54.4733 43.7602 54.8281C44.0336 55.1829 44.3982 55.3604 44.8539 55.3604C45.3129 55.3604 45.6775 55.1813 45.9477 54.8232C46.2178 54.4619 46.3529 53.9574 46.3529 53.3096C46.3529 52.7301 46.2146 52.2614 45.9379 51.9033C45.6645 51.542 45.2999 51.3613 44.8441 51.3613C44.3982 51.3613 44.0385 51.5387 43.765 51.8936C43.4916 52.2484 43.3549 52.7562 43.3549 53.417Z" fill="#666666"/>
<defs>
<filter id="filter0_d_7838:59979" x="0" y="0" width="66" height="34" filterUnits="userSpaceOnUse" color-interpolation-filters="sRGB">
<feFlood flood-opacity="0" result="BackgroundImageFix"/>
<feColorMatrix in="SourceAlpha" type="matrix" values="0 0 0 0 0 0 0 0 0 0 0 0 0 0 0 0 0 0 127 0" result="hardAlpha"/>
<feOffset dy="1"/>
<feGaussianBlur stdDeviation="1"/>
<feColorMatrix type="matrix" values="0 0 0 0 0 0 0 0 0 0 0 0 0 0 0 0 0 0 0.2 0"/>
<feBlend mode="normal" in2="BackgroundImageFix" result="effect1_dropShadow_7838:59979"/>
<feBlend mode="normal" in="SourceGraphic" in2="effect1_dropShadow_7838:59979" result="shape"/>
</filter>
</defs>
</svg>
