<svg width="70" height="65" viewBox="0 0 70 65" fill="none" xmlns="http://www.w3.org/2000/svg">
<g filter="url(#filter0_d_7838:60131)">
<rect x="2" y="1" width="66" height="34" rx="8" fill="#E7F3F9"/>
<path d="M31.7398 24.7243C31.4111 24.5668 31.0941 24.3861 30.791 24.1836" stroke="#007DC5" stroke-linecap="round" stroke-linejoin="round"/>
<path d="M29.1943 22.6969C28.9665 22.4133 28.7612 22.1124 28.5801 21.7969" stroke="#007DC5" stroke-linecap="round" stroke-linejoin="round"/>
<path d="M27.7835 19.7675C27.7024 19.4122 27.6487 19.0511 27.623 18.6875" stroke="#007DC5" stroke-linecap="round" stroke-linejoin="round"/>
<path d="M31.7383 11.5588C32.0654 11.3999 32.4032 11.2641 32.7493 11.1523" stroke="#007DC5" stroke-linecap="round" stroke-linejoin="round"/>
<path d="M34.9082 10.8281C35.2728 10.834 35.6366 10.8641 35.9972 10.9181" stroke="#007DC5" stroke-linecap="round" stroke-linejoin="round"/>
<path d="M38.0742 11.5586C38.403 11.7163 38.7203 11.897 39.0237 12.0993" stroke="#007DC5" stroke-linecap="round" stroke-linejoin="round"/>
<path d="M40.625 13.582C40.8523 13.8674 41.0576 14.1695 41.2393 14.4858" stroke="#007DC5" stroke-linecap="round" stroke-linejoin="round"/>
<path fill-rule="evenodd" clip-rule="evenodd" d="M31.0625 14.2031C31.0625 15.4458 30.0551 16.4531 28.8125 16.4531C27.5699 16.4531 26.5625 15.4458 26.5625 14.2031C26.5625 12.9604 28.8125 9.70312 28.8125 9.70312C28.8125 9.70312 31.0625 12.9604 31.0625 14.2031Z" stroke="#007DC5" stroke-linecap="round" stroke-linejoin="round"/>
<rect x="37.1484" y="17.1484" width="6.75" height="7.875" rx="1" transform="rotate(16.524 37.1484 17.1484)" stroke="#007DC5" stroke-linecap="round" stroke-linejoin="round"/>
<path d="M40.3848 18.1099L40.8648 16.4922" stroke="#007DC5" stroke-linecap="round" stroke-linejoin="round"/>
<path d="M42.541 18.7506L43.021 17.1328" stroke="#007DC5" stroke-linecap="round" stroke-linejoin="round"/>
<path d="M38.2266 17.4693L38.7058 15.8516" stroke="#007DC5" stroke-linecap="round" stroke-linejoin="round"/>
<path d="M38.3457 21.0234L40.5027 21.6632" stroke="#007DC5" stroke-linecap="round" stroke-linejoin="round"/>
<path d="M37.7051 23.1836L39.8628 23.8241" stroke="#007DC5" stroke-linecap="round" stroke-linejoin="round"/>
</g>
<path d="M9.49531 45.7441C9.40742 46.4961 9.1291 47.0771 8.66035 47.4873C8.19486 47.8942 7.57474 48.0977 6.8 48.0977C5.96016 48.0977 5.28633 47.7965 4.77851 47.1943C4.27396 46.5921 4.02168 45.7865 4.02168 44.7773V44.0938C4.02168 43.4329 4.13887 42.8519 4.37324 42.3506C4.61087 41.8493 4.94616 41.4652 5.3791 41.1982C5.81204 40.9281 6.31335 40.793 6.88301 40.793C7.63822 40.793 8.24368 41.0046 8.69941 41.4277C9.15514 41.8477 9.42044 42.4303 9.49531 43.1758H8.55293C8.47155 42.6094 8.29414 42.1992 8.0207 41.9453C7.75052 41.6914 7.37129 41.5645 6.88301 41.5645C6.28405 41.5645 5.81367 41.7858 5.47187 42.2285C5.13333 42.6712 4.96406 43.3011 4.96406 44.1182V44.8066C4.96406 45.5781 5.12519 46.1917 5.44746 46.6475C5.76973 47.1032 6.22057 47.3311 6.8 47.3311C7.32083 47.3311 7.7196 47.2139 7.99629 46.9795C8.27624 46.7419 8.46178 46.3301 8.55293 45.7441H9.49531ZM13.5996 47.4775C13.248 47.891 12.7321 48.0977 12.0518 48.0977C11.4886 48.0977 11.0589 47.9349 10.7627 47.6094C10.4697 47.2806 10.3216 46.7956 10.3184 46.1543V42.7168H11.2217V46.1299C11.2217 46.9307 11.5472 47.3311 12.1982 47.3311C12.8883 47.3311 13.3473 47.0739 13.5752 46.5596V42.7168H14.4785V48H13.6191L13.5996 47.4775ZM16.5369 48H15.6336V42.7168H16.5369V48ZM15.5604 41.3154C15.5604 41.1689 15.6043 41.0452 15.6922 40.9443C15.7833 40.8434 15.9168 40.793 16.0926 40.793C16.2684 40.793 16.4018 40.8434 16.493 40.9443C16.5841 41.0452 16.6297 41.1689 16.6297 41.3154C16.6297 41.4619 16.5841 41.584 16.493 41.6816C16.4018 41.7793 16.2684 41.8281 16.0926 41.8281C15.9168 41.8281 15.7833 41.7793 15.6922 41.6816C15.6043 41.584 15.5604 41.4619 15.5604 41.3154ZM17.4674 45.3145C17.4674 44.5039 17.6594 43.8529 18.0436 43.3613C18.4277 42.8665 18.9306 42.6191 19.5523 42.6191C20.1708 42.6191 20.6607 42.8307 21.0221 43.2539V40.5H21.9254V48H21.0953L21.0514 47.4336C20.69 47.8763 20.1871 48.0977 19.5426 48.0977C18.9306 48.0977 18.4309 47.847 18.0436 47.3457C17.6594 46.8444 17.4674 46.1901 17.4674 45.3828V45.3145ZM18.3707 45.417C18.3707 46.016 18.4944 46.4847 18.7418 46.8232C18.9892 47.1618 19.331 47.3311 19.7672 47.3311C20.3401 47.3311 20.7584 47.0739 21.0221 46.5596V44.1328C20.7519 43.6348 20.3368 43.3857 19.777 43.3857C19.3342 43.3857 18.9892 43.5566 18.7418 43.8984C18.4944 44.2402 18.3707 44.7464 18.3707 45.417ZM26.2934 48C26.2413 47.8958 26.199 47.7103 26.1664 47.4434C25.7465 47.8796 25.2452 48.0977 24.6625 48.0977C24.1417 48.0977 23.7136 47.9512 23.3783 47.6582C23.0463 47.362 22.8803 46.9876 22.8803 46.5352C22.8803 45.985 23.0886 45.5586 23.5053 45.2559C23.9252 44.9499 24.5144 44.7969 25.2729 44.7969H26.1518V44.3818C26.1518 44.0661 26.0574 43.8154 25.8686 43.6299C25.6798 43.4411 25.4014 43.3467 25.0336 43.3467C24.7113 43.3467 24.4411 43.4281 24.223 43.5908C24.0049 43.7536 23.8959 43.9505 23.8959 44.1816H22.9877C22.9877 43.918 23.0805 43.6641 23.266 43.4199C23.4548 43.1725 23.7087 42.9772 24.0277 42.834C24.35 42.6908 24.7032 42.6191 25.0873 42.6191C25.696 42.6191 26.1729 42.7721 26.518 43.0781C26.863 43.3809 27.0421 43.7992 27.0551 44.333V46.7646C27.0551 47.2497 27.1169 47.6354 27.2406 47.9219V48H26.2934ZM24.7943 47.3115C25.0775 47.3115 25.3461 47.2383 25.6 47.0918C25.8539 46.9453 26.0378 46.7549 26.1518 46.5205V45.4365H25.4437C24.337 45.4365 23.7836 45.7604 23.7836 46.4082C23.7836 46.6914 23.878 46.9128 24.0668 47.0723C24.2556 47.2318 24.4981 47.3115 24.7943 47.3115ZM27.9514 45.3145C27.9514 44.5039 28.1434 43.8529 28.5275 43.3613C28.9117 42.8665 29.4146 42.6191 30.0363 42.6191C30.6548 42.6191 31.1447 42.8307 31.5061 43.2539V40.5H32.4094V48H31.5793L31.5354 47.4336C31.174 47.8763 30.6711 48.0977 30.0266 48.0977C29.4146 48.0977 28.9149 47.847 28.5275 47.3457C28.1434 46.8444 27.9514 46.1901 27.9514 45.3828V45.3145ZM28.8547 45.417C28.8547 46.016 28.9784 46.4847 29.2258 46.8232C29.4732 47.1618 29.815 47.3311 30.2512 47.3311C30.8241 47.3311 31.2424 47.0739 31.5061 46.5596V44.1328C31.2359 43.6348 30.8208 43.3857 30.2609 43.3857C29.8182 43.3857 29.4732 43.5566 29.2258 43.8984C28.9784 44.2402 28.8547 44.7464 28.8547 45.417ZM33.2764 45.3096C33.2764 44.792 33.3773 44.3265 33.5791 43.9131C33.7842 43.4997 34.0674 43.1807 34.4287 42.9561C34.7933 42.7314 35.2083 42.6191 35.6738 42.6191C36.3932 42.6191 36.9743 42.8682 37.417 43.3662C37.863 43.8643 38.0859 44.5267 38.0859 45.3535V45.417C38.0859 45.9313 37.9867 46.3936 37.7881 46.8037C37.5928 47.2106 37.3112 47.528 36.9434 47.7559C36.5788 47.9837 36.1589 48.0977 35.6836 48.0977C34.9674 48.0977 34.3864 47.8486 33.9404 47.3506C33.4977 46.8525 33.2764 46.1934 33.2764 45.373V45.3096ZM34.1846 45.417C34.1846 46.0029 34.3197 46.4733 34.5898 46.8281C34.8633 47.1829 35.2279 47.3604 35.6836 47.3604C36.1426 47.3604 36.5072 47.1813 36.7773 46.8232C37.0475 46.4619 37.1826 45.9574 37.1826 45.3096C37.1826 44.7301 37.0443 44.2614 36.7676 43.9033C36.4941 43.542 36.1296 43.3613 35.6738 43.3613C35.2279 43.3613 34.8682 43.5387 34.5947 43.8936C34.3213 44.2484 34.1846 44.7562 34.1846 45.417ZM41.9949 46.5986C41.9949 46.3545 41.9021 46.1657 41.7166 46.0322C41.5343 45.8955 41.2137 45.7783 40.7547 45.6807C40.299 45.583 39.936 45.4658 39.6658 45.3291C39.3989 45.1924 39.2003 45.0296 39.0701 44.8408C38.9432 44.652 38.8797 44.4274 38.8797 44.167C38.8797 43.734 39.062 43.3678 39.4266 43.0684C39.7944 42.7689 40.2632 42.6191 40.8328 42.6191C41.4318 42.6191 41.9168 42.7738 42.2879 43.083C42.6622 43.3923 42.8494 43.7878 42.8494 44.2695H41.9412C41.9412 44.0221 41.8354 43.8089 41.6238 43.6299C41.4155 43.4508 41.1518 43.3613 40.8328 43.3613C40.504 43.3613 40.2469 43.4329 40.0613 43.5762C39.8758 43.7194 39.783 43.9066 39.783 44.1377C39.783 44.3558 39.8693 44.5202 40.0418 44.6309C40.2143 44.7415 40.5252 44.8473 40.9744 44.9482C41.4269 45.0492 41.7931 45.1696 42.073 45.3096C42.353 45.4495 42.5597 45.6188 42.6932 45.8174C42.8299 46.0127 42.8982 46.252 42.8982 46.5352C42.8982 47.0072 42.7094 47.3864 42.3318 47.6729C41.9542 47.9561 41.4643 48.0977 40.8621 48.0977C40.4389 48.0977 40.0646 48.0228 39.7391 47.873C39.4135 47.7233 39.158 47.515 38.9725 47.248C38.7902 46.9779 38.699 46.6865 38.699 46.374H39.6023C39.6186 46.6768 39.7391 46.9176 39.9637 47.0967C40.1915 47.2725 40.491 47.3604 40.8621 47.3604C41.2039 47.3604 41.4773 47.292 41.6824 47.1553C41.8908 47.0153 41.9949 46.8298 41.9949 46.5986ZM48.0746 47.3604C48.3969 47.3604 48.6784 47.2627 48.9193 47.0674C49.1602 46.8721 49.2937 46.6279 49.3197 46.335H50.1742C50.1579 46.6377 50.0538 46.9258 49.8617 47.1992C49.6697 47.4727 49.4125 47.6908 49.0902 47.8535C48.7712 48.0163 48.4327 48.0977 48.0746 48.0977C47.3552 48.0977 46.7823 47.8584 46.3559 47.3799C45.9327 46.8981 45.7211 46.2406 45.7211 45.4072V45.2559C45.7211 44.7415 45.8155 44.2842 46.0043 43.8838C46.1931 43.4834 46.4633 43.1725 46.8148 42.9512C47.1697 42.7298 47.588 42.6191 48.0697 42.6191C48.6622 42.6191 49.1537 42.7965 49.5443 43.1514C49.9382 43.5062 50.1482 43.9668 50.1742 44.5332H49.3197C49.2937 44.1914 49.1635 43.9115 48.9291 43.6934C48.698 43.472 48.4115 43.3613 48.0697 43.3613C47.6107 43.3613 47.2543 43.5273 47.0004 43.8594C46.7497 44.1882 46.6244 44.665 46.6244 45.29V45.4609C46.6244 46.0697 46.7497 46.5384 47.0004 46.8672C47.251 47.196 47.6091 47.3604 48.0746 47.3604ZM50.6506 45.3096C50.6506 44.792 50.7515 44.3265 50.9533 43.9131C51.1584 43.4997 51.4416 43.1807 51.8029 42.9561C52.1675 42.7314 52.5826 42.6191 53.048 42.6191C53.7674 42.6191 54.3485 42.8682 54.7912 43.3662C55.2372 43.8643 55.4602 44.5267 55.4602 45.3535V45.417C55.4602 45.9313 55.3609 46.3936 55.1623 46.8037C54.967 47.2106 54.6854 47.528 54.3176 47.7559C53.953 47.9837 53.5331 48.0977 53.0578 48.0977C52.3417 48.0977 51.7606 47.8486 51.3146 47.3506C50.8719 46.8525 50.6506 46.1934 50.6506 45.373V45.3096ZM51.5588 45.417C51.5588 46.0029 51.6939 46.4733 51.9641 46.8281C52.2375 47.1829 52.6021 47.3604 53.0578 47.3604C53.5168 47.3604 53.8814 47.1813 54.1516 46.8232C54.4217 46.4619 54.5568 45.9574 54.5568 45.3096C54.5568 44.7301 54.4185 44.2614 54.1418 43.9033C53.8684 43.542 53.5038 43.3613 53.048 43.3613C52.6021 43.3613 52.2424 43.5387 51.9689 43.8936C51.6955 44.2484 51.5588 44.7562 51.5588 45.417ZM57.1426 42.7168L57.167 43.3027C57.5544 42.847 58.0768 42.6191 58.7344 42.6191C59.4733 42.6191 59.9762 42.9023 60.2432 43.4688C60.4189 43.2148 60.6468 43.0098 60.9268 42.8535C61.21 42.6973 61.5436 42.6191 61.9277 42.6191C63.0866 42.6191 63.6758 43.2327 63.6953 44.46V48H62.792V44.5137C62.792 44.1361 62.7057 43.8545 62.5332 43.6689C62.3607 43.4801 62.071 43.3857 61.6641 43.3857C61.3288 43.3857 61.0505 43.4867 60.8291 43.6885C60.6077 43.887 60.4792 44.1556 60.4434 44.4941V48H59.5352V44.5381C59.5352 43.7699 59.1592 43.3857 58.4072 43.3857C57.8148 43.3857 57.4095 43.638 57.1914 44.1426V48H56.2881V42.7168H57.1426ZM13.6568 60C13.6048 59.8958 13.5624 59.7103 13.5299 59.4434C13.11 59.8796 12.6087 60.0977 12.026 60.0977C11.5051 60.0977 11.0771 59.9512 10.7418 59.6582C10.4098 59.362 10.2437 58.9876 10.2437 58.5352C10.2437 57.985 10.4521 57.5586 10.8687 57.2559C11.2887 56.9499 11.8779 56.7969 12.6363 56.7969H13.5152V56.3818C13.5152 56.0661 13.4208 55.8154 13.232 55.6299C13.0432 55.4411 12.7649 55.3467 12.3971 55.3467C12.0748 55.3467 11.8046 55.4281 11.5865 55.5908C11.3684 55.7536 11.2594 55.9505 11.2594 56.1816H10.3512C10.3512 55.918 10.4439 55.6641 10.6295 55.4199C10.8183 55.1725 11.0722 54.9772 11.3912 54.834C11.7135 54.6908 12.0667 54.6191 12.4508 54.6191C13.0595 54.6191 13.5364 54.7721 13.8814 55.0781C14.2265 55.3809 14.4055 55.7992 14.4186 56.333V58.7646C14.4186 59.2497 14.4804 59.6354 14.6041 59.9219V60H13.6568ZM12.1578 59.3115C12.441 59.3115 12.7096 59.2383 12.9635 59.0918C13.2174 58.9453 13.4013 58.7549 13.5152 58.5205V57.4365H12.8072C11.7005 57.4365 11.1471 57.7604 11.1471 58.4082C11.1471 58.6914 11.2415 58.9128 11.4303 59.0723C11.6191 59.2318 11.8616 59.3115 12.1578 59.3115ZM19.8342 59.3604C20.1564 59.3604 20.438 59.2627 20.6789 59.0674C20.9198 58.8721 21.0533 58.6279 21.0793 58.335H21.9338C21.9175 58.6377 21.8133 58.9258 21.6213 59.1992C21.4292 59.4727 21.1721 59.6908 20.8498 59.8535C20.5308 60.0163 20.1923 60.0977 19.8342 60.0977C19.1148 60.0977 18.5419 59.8584 18.1154 59.3799C17.6923 58.8981 17.4807 58.2406 17.4807 57.4072V57.2559C17.4807 56.7415 17.5751 56.2842 17.7639 55.8838C17.9527 55.4834 18.2229 55.1725 18.5744 54.9512C18.9292 54.7298 19.3475 54.6191 19.8293 54.6191C20.4217 54.6191 20.9133 54.7965 21.3039 55.1514C21.6978 55.5062 21.9077 55.9668 21.9338 56.5332H21.0793C21.0533 56.1914 20.923 55.9115 20.6887 55.6934C20.4576 55.472 20.1711 55.3613 19.8293 55.3613C19.3703 55.3613 19.0139 55.5273 18.76 55.8594C18.5093 56.1882 18.384 56.665 18.384 57.29V57.4609C18.384 58.0697 18.5093 58.5384 18.76 58.8672C19.0106 59.196 19.3687 59.3604 19.8342 59.3604ZM23.6309 60H22.7275V54.7168H23.6309V60ZM22.6543 53.3154C22.6543 53.1689 22.6982 53.0452 22.7861 52.9443C22.8773 52.8434 23.0107 52.793 23.1865 52.793C23.3623 52.793 23.4958 52.8434 23.5869 52.9443C23.6781 53.0452 23.7236 53.1689 23.7236 53.3154C23.7236 53.4619 23.6781 53.584 23.5869 53.6816C23.4958 53.7793 23.3623 53.8281 23.1865 53.8281C23.0107 53.8281 22.8773 53.7793 22.7861 53.6816C22.6982 53.584 22.6543 53.4619 22.6543 53.3154ZM27.3348 55.5273C27.198 55.5046 27.0499 55.4932 26.8904 55.4932C26.298 55.4932 25.896 55.7454 25.6844 56.25V60H24.7811V54.7168H25.66L25.6746 55.3271C25.9708 54.8551 26.3908 54.6191 26.9344 54.6191C27.1102 54.6191 27.2436 54.6419 27.3348 54.6875V55.5273ZM29.8912 59.3604C30.2135 59.3604 30.4951 59.2627 30.7359 59.0674C30.9768 58.8721 31.1103 58.6279 31.1363 58.335H31.9908C31.9745 58.6377 31.8704 58.9258 31.6783 59.1992C31.4863 59.4727 31.2291 59.6908 30.9068 59.8535C30.5878 60.0163 30.2493 60.0977 29.8912 60.0977C29.1718 60.0977 28.5989 59.8584 28.1725 59.3799C27.7493 58.8981 27.5377 58.2406 27.5377 57.4072V57.2559C27.5377 56.7415 27.6321 56.2842 27.8209 55.8838C28.0097 55.4834 28.2799 55.1725 28.6314 54.9512C28.9863 54.7298 29.4046 54.6191 29.8863 54.6191C30.4788 54.6191 30.9703 54.7965 31.3609 55.1514C31.7548 55.5062 31.9648 55.9668 31.9908 56.5332H31.1363C31.1103 56.1914 30.9801 55.9115 30.7457 55.6934C30.5146 55.472 30.2281 55.3613 29.8863 55.3613C29.4273 55.3613 29.0709 55.5273 28.817 55.8594C28.5663 56.1882 28.441 56.665 28.441 57.29V57.4609C28.441 58.0697 28.5663 58.5384 28.817 58.8672C29.0676 59.196 29.4257 59.3604 29.8912 59.3604ZM35.9682 59.4775C35.6166 59.891 35.1006 60.0977 34.4203 60.0977C33.8572 60.0977 33.4275 59.9349 33.1312 59.6094C32.8383 59.2806 32.6902 58.7956 32.6869 58.1543V54.7168H33.5902V58.1299C33.5902 58.9307 33.9158 59.3311 34.5668 59.3311C35.2569 59.3311 35.7159 59.0739 35.9437 58.5596V54.7168H36.8471V60H35.9877L35.9682 59.4775ZM38.9055 60H38.0021V52.5H38.9055V60ZM43.3174 60C43.2653 59.8958 43.223 59.7103 43.1904 59.4434C42.7705 59.8796 42.2692 60.0977 41.6865 60.0977C41.1657 60.0977 40.7376 59.9512 40.4023 59.6582C40.0703 59.362 39.9043 58.9876 39.9043 58.5352C39.9043 57.985 40.1126 57.5586 40.5293 57.2559C40.9492 56.9499 41.5384 56.7969 42.2969 56.7969H43.1758V56.3818C43.1758 56.0661 43.0814 55.8154 42.8926 55.6299C42.7038 55.4411 42.4255 55.3467 42.0576 55.3467C41.7354 55.3467 41.4652 55.4281 41.2471 55.5908C41.029 55.7536 40.9199 55.9505 40.9199 56.1816H40.0117C40.0117 55.918 40.1045 55.6641 40.29 55.4199C40.4788 55.1725 40.7327 54.9772 41.0518 54.834C41.374 54.6908 41.7272 54.6191 42.1113 54.6191C42.7201 54.6191 43.1969 54.7721 43.542 55.0781C43.887 55.3809 44.0661 55.7992 44.0791 56.333V58.7646C44.0791 59.2497 44.141 59.6354 44.2646 59.9219V60H43.3174ZM41.8184 59.3115C42.1016 59.3115 42.3701 59.2383 42.624 59.0918C42.8779 58.9453 43.0618 58.7549 43.1758 58.5205V57.4365H42.4678C41.361 57.4365 40.8076 57.7604 40.8076 58.4082C40.8076 58.6914 40.902 58.9128 41.0908 59.0723C41.2796 59.2318 41.5221 59.3115 41.8184 59.3115ZM47.3143 59.3604C47.6365 59.3604 47.9181 59.2627 48.159 59.0674C48.3999 58.8721 48.5333 58.6279 48.5594 58.335H49.4139C49.3976 58.6377 49.2934 58.9258 49.1014 59.1992C48.9093 59.4727 48.6521 59.6908 48.3299 59.8535C48.0109 60.0163 47.6723 60.0977 47.3143 60.0977C46.5949 60.0977 46.0219 59.8584 45.5955 59.3799C45.1723 58.8981 44.9607 58.2406 44.9607 57.4072V57.2559C44.9607 56.7415 45.0551 56.2842 45.2439 55.8838C45.4327 55.4834 45.7029 55.1725 46.0545 54.9512C46.4093 54.7298 46.8276 54.6191 47.3094 54.6191C47.9018 54.6191 48.3934 54.7965 48.784 55.1514C49.1779 55.5062 49.3878 55.9668 49.4139 56.5332H48.5594C48.5333 56.1914 48.4031 55.9115 48.1687 55.6934C47.9376 55.472 47.6512 55.3613 47.3094 55.3613C46.8504 55.3613 46.4939 55.5273 46.24 55.8594C45.9894 56.1882 45.8641 56.665 45.8641 57.29V57.4609C45.8641 58.0697 45.9894 58.5384 46.24 58.8672C46.4907 59.196 46.8488 59.3604 47.3143 59.3604ZM47.4607 60.0439L47.4021 60.2979C47.9002 60.3857 48.1492 60.6673 48.1492 61.1426C48.1492 61.4583 48.019 61.7074 47.7586 61.8896C47.4982 62.0752 47.1352 62.168 46.6697 62.168L46.6355 61.6455C46.8927 61.6455 47.0913 61.6032 47.2312 61.5186C47.3745 61.4339 47.4461 61.3151 47.4461 61.1621C47.4461 61.0189 47.394 60.9131 47.2898 60.8447C47.1857 60.7764 46.9741 60.7275 46.6551 60.6982L46.8113 60.0439H47.4607ZM53.3912 60C53.3391 59.8958 53.2968 59.7103 53.2643 59.4434C52.8443 59.8796 52.343 60.0977 51.7604 60.0977C51.2395 60.0977 50.8115 59.9512 50.4762 59.6582C50.1441 59.362 49.9781 58.9876 49.9781 58.5352C49.9781 57.985 50.1865 57.5586 50.6031 57.2559C51.023 56.9499 51.6122 56.7969 52.3707 56.7969H53.2496V56.3818C53.2496 56.0661 53.1552 55.8154 52.9664 55.6299C52.7776 55.4411 52.4993 55.3467 52.1314 55.3467C51.8092 55.3467 51.539 55.4281 51.3209 55.5908C51.1028 55.7536 50.9938 55.9505 50.9938 56.1816H50.0855C50.0855 55.918 50.1783 55.6641 50.3639 55.4199C50.5527 55.1725 50.8066 54.9772 51.1256 54.834C51.4479 54.6908 51.801 54.6191 52.1852 54.6191C52.7939 54.6191 53.2708 54.7721 53.6158 55.0781C53.9609 55.3809 54.1399 55.7992 54.1529 56.333V58.7646C54.1529 59.2497 54.2148 59.6354 54.3385 59.9219V60H53.3912ZM51.8922 59.3115C52.1754 59.3115 52.4439 59.2383 52.6979 59.0918C52.9518 58.9453 53.1357 58.7549 53.2496 58.5205V57.4365H52.5416C51.4348 57.4365 50.8814 57.7604 50.8814 58.4082C50.8814 58.6914 50.9758 58.9128 51.1646 59.0723C51.3535 59.2318 51.596 59.3115 51.8922 59.3115ZM54.0162 52.6562C54.0162 53.0078 53.9153 53.2926 53.7135 53.5107C53.5149 53.7288 53.2659 53.8379 52.9664 53.8379C52.8329 53.8379 52.7174 53.8216 52.6197 53.7891C52.5221 53.7565 52.3935 53.6898 52.234 53.5889C52.0777 53.488 51.9638 53.4277 51.8922 53.4082C51.8238 53.3854 51.7441 53.374 51.6529 53.374C51.5195 53.374 51.4055 53.4261 51.3111 53.5303C51.2167 53.6312 51.1695 53.7614 51.1695 53.9209L50.5641 53.8867C50.5641 53.5384 50.6617 53.2503 50.857 53.0225C51.0556 52.7946 51.3063 52.6807 51.609 52.6807C51.7229 52.6807 51.8255 52.6969 51.9166 52.7295C52.0077 52.762 52.1314 52.8255 52.2877 52.9199C52.4439 53.0143 52.5628 53.0762 52.6441 53.1055C52.7288 53.1348 52.8216 53.1494 52.9225 53.1494C53.0624 53.1494 53.178 53.0941 53.2691 52.9834C53.3635 52.8727 53.4107 52.7441 53.4107 52.5977L54.0162 52.6562ZM55.0297 57.3096C55.0297 56.792 55.1306 56.3265 55.3324 55.9131C55.5375 55.4997 55.8207 55.1807 56.182 54.9561C56.5466 54.7314 56.9617 54.6191 57.4271 54.6191C58.1465 54.6191 58.7276 54.8682 59.1703 55.3662C59.6163 55.8643 59.8393 56.5267 59.8393 57.3535V57.417C59.8393 57.9313 59.74 58.3936 59.5414 58.8037C59.3461 59.2106 59.0645 59.528 58.6967 59.7559C58.3321 59.9837 57.9122 60.0977 57.4369 60.0977C56.7208 60.0977 56.1397 59.8486 55.6937 59.3506C55.251 58.8525 55.0297 58.1934 55.0297 57.373V57.3096ZM55.9379 57.417C55.9379 58.0029 56.073 58.4733 56.3432 58.8281C56.6166 59.1829 56.9812 59.3604 57.4369 59.3604C57.8959 59.3604 58.2605 59.1813 58.5307 58.8232C58.8008 58.4619 58.9359 57.9574 58.9359 57.3096C58.9359 56.7301 58.7976 56.2614 58.5209 55.9033C58.2475 55.542 57.8829 55.3613 57.4271 55.3613C56.9812 55.3613 56.6215 55.5387 56.348 55.8936C56.0746 56.2484 55.9379 56.7562 55.9379 57.417Z" fill="#666666"/>
<defs>
<filter id="filter0_d_7838:60131" x="0" y="0" width="70" height="38" filterUnits="userSpaceOnUse" color-interpolation-filters="sRGB">
<feFlood flood-opacity="0" result="BackgroundImageFix"/>
<feColorMatrix in="SourceAlpha" type="matrix" values="0 0 0 0 0 0 0 0 0 0 0 0 0 0 0 0 0 0 127 0" result="hardAlpha"/>
<feOffset dy="1"/>
<feGaussianBlur stdDeviation="1"/>
<feColorMatrix type="matrix" values="0 0 0 0 0 0 0 0 0 0 0 0 0 0 0 0 0 0 0.2 0"/>
<feBlend mode="normal" in2="BackgroundImageFix" result="effect1_dropShadow_7838:60131"/>
<feBlend mode="normal" in="SourceGraphic" in2="effect1_dropShadow_7838:60131" result="shape"/>
</filter>
</defs>
</svg>
