<svg width="66" height="61" viewBox="0 0 66 61" fill="none" xmlns="http://www.w3.org/2000/svg">
<g filter="url(#filter0_d_7838:59971)">
<rect x="2" y="1" width="62" height="30" rx="8" fill="#E7F3F9"/>
<path d="M26.8887 21.457C26.9467 21.4569 27.0025 21.4799 27.0435 21.5209C27.0846 21.562 27.1076 21.6177 27.1074 21.6758" stroke="#007DC5" stroke-linecap="round" stroke-linejoin="round"/>
<path d="M26.6699 21.6758C26.6698 21.6177 26.6928 21.562 26.7338 21.5209C26.7749 21.4799 26.8306 21.4569 26.8887 21.457" stroke="#007DC5" stroke-linecap="round" stroke-linejoin="round"/>
<path d="M26.8887 21.8945C26.7679 21.8945 26.6699 21.7966 26.6699 21.6758" stroke="#007DC5" stroke-linecap="round" stroke-linejoin="round"/>
<path d="M27.1074 21.6758C27.1074 21.7966 27.0095 21.8945 26.8887 21.8945" stroke="#007DC5" stroke-linecap="round" stroke-linejoin="round"/>
<path d="M28.6387 19.2695C28.6967 19.2694 28.7525 19.2924 28.7935 19.3334C28.8346 19.3745 28.8576 19.4302 28.8574 19.4883" stroke="#007DC5" stroke-linecap="round" stroke-linejoin="round"/>
<path d="M28.4199 19.4883C28.4198 19.4302 28.4428 19.3745 28.4838 19.3334C28.5249 19.2924 28.5806 19.2694 28.6387 19.2695" stroke="#007DC5" stroke-linecap="round" stroke-linejoin="round"/>
<path d="M28.6387 19.707C28.5179 19.707 28.4199 19.6091 28.4199 19.4883" stroke="#007DC5" stroke-linecap="round" stroke-linejoin="round"/>
<path d="M28.8574 19.4883C28.8574 19.6091 28.7595 19.707 28.6387 19.707" stroke="#007DC5" stroke-linecap="round" stroke-linejoin="round"/>
<path d="M30.8262 21.457C30.8842 21.4569 30.94 21.4799 30.981 21.5209C31.0221 21.562 31.0451 21.6177 31.0449 21.6758" stroke="#007DC5" stroke-linecap="round" stroke-linejoin="round"/>
<path d="M30.6074 21.6758C30.6073 21.6177 30.6303 21.562 30.6713 21.5209C30.7124 21.4799 30.7681 21.4569 30.8262 21.457" stroke="#007DC5" stroke-linecap="round" stroke-linejoin="round"/>
<path d="M30.8262 21.8945C30.7054 21.8945 30.6074 21.7966 30.6074 21.6758" stroke="#007DC5" stroke-linecap="round" stroke-linejoin="round"/>
<path d="M31.0449 21.6758C31.0449 21.7966 30.947 21.8945 30.8262 21.8945" stroke="#007DC5" stroke-linecap="round" stroke-linejoin="round"/>
<path d="M39.1387 21.457C39.0806 21.4569 39.0249 21.4799 38.9838 21.5209C38.9428 21.562 38.9198 21.6177 38.9199 21.6758" stroke="#007DC5" stroke-linecap="round" stroke-linejoin="round"/>
<path d="M39.3574 21.6758C39.3576 21.6177 39.3346 21.562 39.2935 21.5209C39.2525 21.4799 39.1967 21.4569 39.1387 21.457" stroke="#007DC5" stroke-linecap="round" stroke-linejoin="round"/>
<path d="M39.1387 21.8945C39.2595 21.8945 39.3574 21.7966 39.3574 21.6758" stroke="#007DC5" stroke-linecap="round" stroke-linejoin="round"/>
<path d="M38.9199 21.6758C38.9199 21.7966 39.0179 21.8945 39.1387 21.8945" stroke="#007DC5" stroke-linecap="round" stroke-linejoin="round"/>
<path d="M37.3887 19.2695C37.3306 19.2694 37.2749 19.2924 37.2338 19.3334C37.1928 19.3745 37.1698 19.4302 37.1699 19.4883" stroke="#007DC5" stroke-linecap="round" stroke-linejoin="round"/>
<path d="M37.6074 19.4883C37.6076 19.4302 37.5846 19.3745 37.5435 19.3334C37.5025 19.2924 37.4467 19.2694 37.3887 19.2695" stroke="#007DC5" stroke-linecap="round" stroke-linejoin="round"/>
<path d="M37.3887 19.707C37.5095 19.707 37.6074 19.6091 37.6074 19.4883" stroke="#007DC5" stroke-linecap="round" stroke-linejoin="round"/>
<path d="M37.1699 19.4883C37.1699 19.6091 37.2679 19.707 37.3887 19.707" stroke="#007DC5" stroke-linecap="round" stroke-linejoin="round"/>
<path d="M35.2012 21.457C35.1431 21.4569 35.0874 21.4799 35.0463 21.5209C35.0053 21.562 34.9823 21.6177 34.9824 21.6758" stroke="#007DC5" stroke-linecap="round" stroke-linejoin="round"/>
<path d="M35.4199 21.6758C35.4201 21.6177 35.3971 21.562 35.356 21.5209C35.315 21.4799 35.2592 21.4569 35.2012 21.457" stroke="#007DC5" stroke-linecap="round" stroke-linejoin="round"/>
<path d="M35.2012 21.8945C35.322 21.8945 35.4199 21.7966 35.4199 21.6758" stroke="#007DC5" stroke-linecap="round" stroke-linejoin="round"/>
<path d="M34.9824 21.6758C34.9824 21.7966 35.0804 21.8945 35.2012 21.8945" stroke="#007DC5" stroke-linecap="round" stroke-linejoin="round"/>
<path d="M39.547 15.1133H38.7012C38.7012 16.3214 37.7218 17.3008 36.5137 17.3008C35.3055 17.3008 34.3262 16.3214 34.3262 15.1133H31.7012C31.7012 16.3214 30.7218 17.3008 29.5137 17.3008C28.3055 17.3008 27.3262 16.3214 27.3262 15.1133H26.4512" stroke="#007DC5" stroke-linecap="round" stroke-linejoin="round"/>
<path d="M33.0137 19.2695C33.0717 19.2694 33.1275 19.2924 33.1685 19.3334C33.2096 19.3745 33.2326 19.4302 33.2324 19.4883" stroke="#007DC5" stroke-linecap="round" stroke-linejoin="round"/>
<path d="M32.7949 19.4883C32.7948 19.4302 32.8178 19.3745 32.8588 19.3334C32.8999 19.2924 32.9556 19.2694 33.0137 19.2695" stroke="#007DC5" stroke-linecap="round" stroke-linejoin="round"/>
<path d="M33.0137 19.707C32.8929 19.707 32.7949 19.6091 32.7949 19.4883" stroke="#007DC5" stroke-linecap="round" stroke-linejoin="round"/>
<path d="M33.2324 19.4883C33.2324 19.6091 33.1345 19.707 33.0137 19.707" stroke="#007DC5" stroke-linecap="round" stroke-linejoin="round"/>
<path d="M29.5134 15.5508C29.5134 15.5508 29.0759 11.6133 30.3884 9.86328" stroke="#007DC5" stroke-linecap="round" stroke-linejoin="round"/>
<path d="M36.5134 15.5508C36.5134 15.5508 36.0759 11.6133 37.3884 9.86328" stroke="#007DC5" stroke-linecap="round" stroke-linejoin="round"/>
</g>
<path d="M8.73555 41.7441C8.64766 42.4961 8.36934 43.0771 7.90059 43.4873C7.43509 43.8942 6.81497 44.0977 6.04023 44.0977C5.20039 44.0977 4.52656 43.7965 4.01875 43.1943C3.51419 42.5921 3.26191 41.7865 3.26191 40.7773V40.0938C3.26191 39.4329 3.3791 38.8519 3.61348 38.3506C3.85111 37.8493 4.18639 37.4652 4.61934 37.1982C5.05228 36.9281 5.55358 36.793 6.12324 36.793C6.87845 36.793 7.48392 37.0046 7.93965 37.4277C8.39538 37.8477 8.66068 38.4303 8.73555 39.1758H7.79316C7.71178 38.6094 7.53437 38.1992 7.26094 37.9453C6.99075 37.6914 6.61152 37.5645 6.12324 37.5645C5.52428 37.5645 5.05391 37.7858 4.71211 38.2285C4.37357 38.6712 4.2043 39.3011 4.2043 40.1182V40.8066C4.2043 41.5781 4.36543 42.1917 4.68769 42.6475C5.00996 43.1032 5.46081 43.3311 6.04023 43.3311C6.56107 43.3311 6.95983 43.2139 7.23652 42.9795C7.51647 42.7419 7.70202 42.3301 7.79316 41.7441H8.73555ZM12.8398 43.4775C12.4883 43.891 11.9723 44.0977 11.292 44.0977C10.7288 44.0977 10.2992 43.9349 10.0029 43.6094C9.70996 43.2806 9.56185 42.7956 9.55859 42.1543V38.7168H10.4619V42.1299C10.4619 42.9307 10.7874 43.3311 11.4385 43.3311C12.1286 43.3311 12.5876 43.0739 12.8154 42.5596V38.7168H13.7187V44H12.8594L12.8398 43.4775ZM15.7771 44H14.8738V38.7168H15.7771V44ZM14.8006 37.3154C14.8006 37.1689 14.8445 37.0452 14.9324 36.9443C15.0236 36.8434 15.157 36.793 15.3328 36.793C15.5086 36.793 15.6421 36.8434 15.7332 36.9443C15.8243 37.0452 15.8699 37.1689 15.8699 37.3154C15.8699 37.4619 15.8243 37.584 15.7332 37.6816C15.6421 37.7793 15.5086 37.8281 15.3328 37.8281C15.157 37.8281 15.0236 37.7793 14.9324 37.6816C14.8445 37.584 14.8006 37.4619 14.8006 37.3154ZM16.7076 41.3145C16.7076 40.5039 16.8997 39.8529 17.2838 39.3613C17.6679 38.8665 18.1708 38.6191 18.7926 38.6191C19.4111 38.6191 19.901 38.8307 20.2623 39.2539V36.5H21.1656V44H20.3355L20.2916 43.4336C19.9303 43.8763 19.4273 44.0977 18.7828 44.0977C18.1708 44.0977 17.6712 43.847 17.2838 43.3457C16.8997 42.8444 16.7076 42.1901 16.7076 41.3828V41.3145ZM17.6109 41.417C17.6109 42.016 17.7346 42.4847 17.982 42.8232C18.2294 43.1618 18.5712 43.3311 19.0074 43.3311C19.5803 43.3311 19.9986 43.0739 20.2623 42.5596V40.1328C19.9921 39.6348 19.5771 39.3857 19.0172 39.3857C18.5745 39.3857 18.2294 39.5566 17.982 39.8984C17.7346 40.2402 17.6109 40.7464 17.6109 41.417ZM25.5336 44C25.4815 43.8958 25.4392 43.7103 25.4066 43.4434C24.9867 43.8796 24.4854 44.0977 23.9027 44.0977C23.3819 44.0977 22.9538 43.9512 22.6186 43.6582C22.2865 43.362 22.1205 42.9876 22.1205 42.5352C22.1205 41.985 22.3288 41.5586 22.7455 41.2559C23.1654 40.9499 23.7546 40.7969 24.5131 40.7969H25.392V40.3818C25.392 40.0661 25.2976 39.8154 25.1088 39.6299C24.92 39.4411 24.6417 39.3467 24.2738 39.3467C23.9516 39.3467 23.6814 39.4281 23.4633 39.5908C23.2452 39.7536 23.1361 39.9505 23.1361 40.1816H22.2279C22.2279 39.918 22.3207 39.6641 22.5062 39.4199C22.6951 39.1725 22.949 38.9772 23.268 38.834C23.5902 38.6908 23.9434 38.6191 24.3275 38.6191C24.9363 38.6191 25.4131 38.7721 25.7582 39.0781C26.1033 39.3809 26.2823 39.7992 26.2953 40.333V42.7646C26.2953 43.2497 26.3572 43.6354 26.4809 43.9219V44H25.5336ZM24.0346 43.3115C24.3178 43.3115 24.5863 43.2383 24.8402 43.0918C25.0941 42.9453 25.2781 42.7549 25.392 42.5205V41.4365H24.684C23.5772 41.4365 23.0238 41.7604 23.0238 42.4082C23.0238 42.6914 23.1182 42.9128 23.307 43.0723C23.4958 43.2318 23.7383 43.3115 24.0346 43.3115ZM27.1916 41.3145C27.1916 40.5039 27.3837 39.8529 27.7678 39.3613C28.1519 38.8665 28.6548 38.6191 29.2766 38.6191C29.8951 38.6191 30.385 38.8307 30.7463 39.2539V36.5H31.6496V44H30.8195L30.7756 43.4336C30.4143 43.8763 29.9113 44.0977 29.2668 44.0977C28.6548 44.0977 28.1551 43.847 27.7678 43.3457C27.3837 42.8444 27.1916 42.1901 27.1916 41.3828V41.3145ZM28.0949 41.417C28.0949 42.016 28.2186 42.4847 28.466 42.8232C28.7134 43.1618 29.0552 43.3311 29.4914 43.3311C30.0643 43.3311 30.4826 43.0739 30.7463 42.5596V40.1328C30.4761 39.6348 30.0611 39.3857 29.5012 39.3857C29.0585 39.3857 28.7134 39.5566 28.466 39.8984C28.2186 40.2402 28.0949 40.7464 28.0949 41.417ZM32.5166 41.3096C32.5166 40.792 32.6175 40.3265 32.8193 39.9131C33.0244 39.4997 33.3076 39.1807 33.6689 38.9561C34.0335 38.7314 34.4486 38.6191 34.9141 38.6191C35.6335 38.6191 36.2145 38.8682 36.6572 39.3662C37.1032 39.8643 37.3262 40.5267 37.3262 41.3535V41.417C37.3262 41.9313 37.2269 42.3936 37.0283 42.8037C36.833 43.2106 36.5514 43.528 36.1836 43.7559C35.819 43.9837 35.3991 44.0977 34.9238 44.0977C34.2077 44.0977 33.6266 43.8486 33.1807 43.3506C32.738 42.8525 32.5166 42.1934 32.5166 41.373V41.3096ZM33.4248 41.417C33.4248 42.0029 33.5599 42.4733 33.8301 42.8281C34.1035 43.1829 34.4681 43.3604 34.9238 43.3604C35.3828 43.3604 35.7474 43.1813 36.0176 42.8232C36.2878 42.4619 36.4229 41.9574 36.4229 41.3096C36.4229 40.7301 36.2845 40.2614 36.0078 39.9033C35.7344 39.542 35.3698 39.3613 34.9141 39.3613C34.4681 39.3613 34.1084 39.5387 33.835 39.8936C33.5615 40.2484 33.4248 40.7562 33.4248 41.417ZM41.2352 42.5986C41.2352 42.3545 41.1424 42.1657 40.9568 42.0322C40.7745 41.8955 40.4539 41.7783 39.9949 41.6807C39.5392 41.583 39.1762 41.4658 38.9061 41.3291C38.6391 41.1924 38.4406 41.0296 38.3104 40.8408C38.1834 40.652 38.1199 40.4274 38.1199 40.167C38.1199 39.734 38.3022 39.3678 38.6668 39.0684C39.0346 38.7689 39.5034 38.6191 40.073 38.6191C40.672 38.6191 41.157 38.7738 41.5281 39.083C41.9025 39.3923 42.0896 39.7878 42.0896 40.2695H41.1814C41.1814 40.0221 41.0757 39.8089 40.8641 39.6299C40.6557 39.4508 40.3921 39.3613 40.073 39.3613C39.7443 39.3613 39.4871 39.4329 39.3016 39.5762C39.116 39.7194 39.0232 39.9066 39.0232 40.1377C39.0232 40.3558 39.1095 40.5202 39.282 40.6309C39.4546 40.7415 39.7654 40.8473 40.2146 40.9482C40.6671 41.0492 41.0333 41.1696 41.3133 41.3096C41.5932 41.4495 41.7999 41.6188 41.9334 41.8174C42.0701 42.0127 42.1385 42.252 42.1385 42.5352C42.1385 43.0072 41.9497 43.3864 41.5721 43.6729C41.1945 43.9561 40.7046 44.0977 40.1023 44.0977C39.6792 44.0977 39.3048 44.0228 38.9793 43.873C38.6538 43.7233 38.3982 43.515 38.2127 43.248C38.0304 42.9779 37.9393 42.6865 37.9393 42.374H38.8426C38.8589 42.6768 38.9793 42.9176 39.2039 43.0967C39.4318 43.2725 39.7313 43.3604 40.1023 43.3604C40.4441 43.3604 40.7176 43.292 40.9227 43.1553C41.131 43.0153 41.2352 42.8298 41.2352 42.5986ZM47.3148 43.3604C47.6371 43.3604 47.9187 43.2627 48.1596 43.0674C48.4005 42.8721 48.5339 42.6279 48.56 42.335H49.4145C49.3982 42.6377 49.294 42.9258 49.102 43.1992C48.9099 43.4727 48.6527 43.6908 48.3305 43.8535C48.0115 44.0163 47.6729 44.0977 47.3148 44.0977C46.5954 44.0977 46.0225 43.8584 45.5961 43.3799C45.1729 42.8981 44.9613 42.2406 44.9613 41.4072V41.2559C44.9613 40.7415 45.0557 40.2842 45.2445 39.8838C45.4333 39.4834 45.7035 39.1725 46.0551 38.9512C46.4099 38.7298 46.8282 38.6191 47.31 38.6191C47.9024 38.6191 48.3939 38.7965 48.7846 39.1514C49.1784 39.5062 49.3884 39.9668 49.4145 40.5332H48.56C48.5339 40.1914 48.4037 39.9115 48.1693 39.6934C47.9382 39.472 47.6518 39.3613 47.31 39.3613C46.851 39.3613 46.4945 39.5273 46.2406 39.8594C45.99 40.1882 45.8646 40.665 45.8646 41.29V41.4609C45.8646 42.0697 45.99 42.5384 46.2406 42.8672C46.4913 43.196 46.8493 43.3604 47.3148 43.3604ZM49.8908 41.3096C49.8908 40.792 49.9917 40.3265 50.1936 39.9131C50.3986 39.4997 50.6818 39.1807 51.0432 38.9561C51.4077 38.7314 51.8228 38.6191 52.2883 38.6191C53.0077 38.6191 53.5887 38.8682 54.0314 39.3662C54.4774 39.8643 54.7004 40.5267 54.7004 41.3535V41.417C54.7004 41.9313 54.6011 42.3936 54.4025 42.8037C54.2072 43.2106 53.9257 43.528 53.5578 43.7559C53.1932 43.9837 52.7733 44.0977 52.298 44.0977C51.5819 44.0977 51.0008 43.8486 50.5549 43.3506C50.1122 42.8525 49.8908 42.1934 49.8908 41.373V41.3096ZM50.799 41.417C50.799 42.0029 50.9341 42.4733 51.2043 42.8281C51.4777 43.1829 51.8423 43.3604 52.298 43.3604C52.757 43.3604 53.1216 43.1813 53.3918 42.8232C53.662 42.4619 53.7971 41.9574 53.7971 41.3096C53.7971 40.7301 53.6587 40.2614 53.382 39.9033C53.1086 39.542 52.744 39.3613 52.2883 39.3613C51.8423 39.3613 51.4826 39.5387 51.2092 39.8936C50.9357 40.2484 50.799 40.7562 50.799 41.417ZM56.3828 38.7168L56.4072 39.3027C56.7946 38.847 57.3171 38.6191 57.9746 38.6191C58.7135 38.6191 59.2165 38.9023 59.4834 39.4688C59.6592 39.2148 59.887 39.0098 60.167 38.8535C60.4502 38.6973 60.7839 38.6191 61.168 38.6191C62.3268 38.6191 62.916 39.2327 62.9355 40.46V44H62.0322V40.5137C62.0322 40.1361 61.946 39.8545 61.7734 39.6689C61.6009 39.4801 61.3112 39.3857 60.9043 39.3857C60.569 39.3857 60.2907 39.4867 60.0693 39.6885C59.848 39.887 59.7194 40.1556 59.6836 40.4941V44H58.7754V40.5381C58.7754 39.7699 58.3994 39.3857 57.6475 39.3857C57.055 39.3857 56.6497 39.638 56.4316 40.1426V44H55.5283V38.7168H56.3828ZM10.683 53.3096C10.683 52.792 10.7839 52.3265 10.9857 51.9131C11.1908 51.4997 11.474 51.1807 11.8354 50.9561C12.1999 50.7314 12.615 50.6191 13.0805 50.6191C13.7999 50.6191 14.3809 50.8682 14.8236 51.3662C15.2696 51.8643 15.4926 52.5267 15.4926 53.3535V53.417C15.4926 53.9313 15.3933 54.3936 15.1947 54.8037C14.9994 55.2106 14.7178 55.528 14.35 55.7559C13.9854 55.9837 13.5655 56.0977 13.0902 56.0977C12.3741 56.0977 11.793 55.8486 11.3471 55.3506C10.9044 54.8525 10.683 54.1934 10.683 53.373V53.3096ZM11.5912 53.417C11.5912 54.0029 11.7263 54.4733 11.9965 54.8281C12.2699 55.1829 12.6345 55.3604 13.0902 55.3604C13.5492 55.3604 13.9138 55.1813 14.184 54.8232C14.4542 54.4619 14.5893 53.9574 14.5893 53.3096C14.5893 52.7301 14.4509 52.2614 14.1742 51.9033C13.9008 51.542 13.5362 51.3613 13.0805 51.3613C12.6345 51.3613 12.2748 51.5387 12.0014 51.8936C11.7279 52.2484 11.5912 52.7562 11.5912 53.417ZM19.4016 54.5986C19.4016 54.3545 19.3088 54.1657 19.1232 54.0322C18.9409 53.8955 18.6203 53.7783 18.1613 53.6807C17.7056 53.583 17.3426 53.4658 17.0725 53.3291C16.8055 53.1924 16.607 53.0296 16.4768 52.8408C16.3498 52.652 16.2863 52.4274 16.2863 52.167C16.2863 51.734 16.4686 51.3678 16.8332 51.0684C17.201 50.7689 17.6698 50.6191 18.2395 50.6191C18.8384 50.6191 19.3234 50.7738 19.6945 51.083C20.0689 51.3923 20.2561 51.7878 20.2561 52.2695H19.3479C19.3479 52.0221 19.2421 51.8089 19.0305 51.6299C18.8221 51.4508 18.5585 51.3613 18.2395 51.3613C17.9107 51.3613 17.6535 51.4329 17.468 51.5762C17.2824 51.7194 17.1896 51.9066 17.1896 52.1377C17.1896 52.3558 17.2759 52.5202 17.4484 52.6309C17.621 52.7415 17.9318 52.8473 18.3811 52.9482C18.8335 53.0492 19.1997 53.1696 19.4797 53.3096C19.7596 53.4495 19.9663 53.6188 20.0998 53.8174C20.2365 54.0127 20.3049 54.252 20.3049 54.5352C20.3049 55.0072 20.1161 55.3864 19.7385 55.6729C19.3609 55.9561 18.871 56.0977 18.2687 56.0977C17.8456 56.0977 17.4712 56.0228 17.1457 55.873C16.8202 55.7233 16.5646 55.515 16.3791 55.248C16.1968 54.9779 16.1057 54.6865 16.1057 54.374H17.009C17.0253 54.6768 17.1457 54.9176 17.3703 55.0967C17.5982 55.2725 17.8977 55.3604 18.2687 55.3604C18.6105 55.3604 18.884 55.292 19.0891 55.1553C19.2974 55.0153 19.4016 54.8298 19.4016 54.5986ZM25.4813 55.3604C25.8035 55.3604 26.0851 55.2627 26.326 55.0674C26.5669 54.8721 26.7003 54.6279 26.7264 54.335H27.5809C27.5646 54.6377 27.4604 54.9258 27.2684 55.1992C27.0763 55.4727 26.8191 55.6908 26.4969 55.8535C26.1779 56.0163 25.8393 56.0977 25.4813 56.0977C24.7618 56.0977 24.1889 55.8584 23.7625 55.3799C23.3393 54.8981 23.1277 54.2406 23.1277 53.4072V53.2559C23.1277 52.7415 23.2221 52.2842 23.4109 51.8838C23.5997 51.4834 23.8699 51.1725 24.2215 50.9512C24.5763 50.7298 24.9946 50.6191 25.4764 50.6191C26.0688 50.6191 26.5604 50.7965 26.951 51.1514C27.3449 51.5062 27.5548 51.9668 27.5809 52.5332H26.7264C26.7003 52.1914 26.5701 51.9115 26.3357 51.6934C26.1046 51.472 25.8182 51.3613 25.4764 51.3613C25.0174 51.3613 24.6609 51.5273 24.407 51.8594C24.1564 52.1882 24.0311 52.665 24.0311 53.29V53.4609C24.0311 54.0697 24.1564 54.5384 24.407 54.8672C24.6577 55.196 25.0158 55.3604 25.4813 55.3604ZM31.5582 56C31.5061 55.8958 31.4638 55.7103 31.4312 55.4434C31.0113 55.8796 30.51 56.0977 29.9273 56.0977C29.4065 56.0977 28.9785 55.9512 28.6432 55.6582C28.3111 55.362 28.1451 54.9876 28.1451 54.5352C28.1451 53.985 28.3535 53.5586 28.7701 53.2559C29.19 52.9499 29.7792 52.7969 30.5377 52.7969H31.4166V52.3818C31.4166 52.0661 31.3222 51.8154 31.1334 51.6299C30.9446 51.4411 30.6663 51.3467 30.2984 51.3467C29.9762 51.3467 29.706 51.4281 29.4879 51.5908C29.2698 51.7536 29.1607 51.9505 29.1607 52.1816H28.2525C28.2525 51.918 28.3453 51.6641 28.5309 51.4199C28.7197 51.1725 28.9736 50.9772 29.2926 50.834C29.6148 50.6908 29.968 50.6191 30.3521 50.6191C30.9609 50.6191 31.4378 50.7721 31.7828 51.0781C32.1279 51.3809 32.3069 51.7992 32.3199 52.333V54.7646C32.3199 55.2497 32.3818 55.6354 32.5055 55.9219V56H31.5582ZM30.0592 55.3115C30.3424 55.3115 30.6109 55.2383 30.8648 55.0918C31.1187 54.9453 31.3027 54.7549 31.4166 54.5205V53.4365H30.7086C29.6018 53.4365 29.0484 53.7604 29.0484 54.4082C29.0484 54.6914 29.1428 54.9128 29.3316 55.0723C29.5204 55.2318 29.763 55.3115 30.0592 55.3115ZM37.9086 53.417C37.9086 54.2243 37.723 54.8737 37.352 55.3652C36.9809 55.8535 36.4828 56.0977 35.8578 56.0977C35.1905 56.0977 34.6745 55.8617 34.31 55.3896L34.266 56H33.4359V48.5H34.3393V51.2979C34.7038 50.8454 35.2068 50.6191 35.848 50.6191C36.4893 50.6191 36.9923 50.8617 37.3568 51.3467C37.7247 51.8317 37.9086 52.4958 37.9086 53.3389V53.417ZM37.0053 53.3145C37.0053 52.6992 36.8865 52.224 36.6488 51.8887C36.4112 51.5534 36.0694 51.3857 35.6234 51.3857C35.0277 51.3857 34.5997 51.6624 34.3393 52.2158V54.501C34.6159 55.0544 35.0473 55.3311 35.6332 55.3311C36.0661 55.3311 36.4031 55.1634 36.6439 54.8281C36.8848 54.4928 37.0053 53.9883 37.0053 53.3145ZM40.9436 56.0977C40.2274 56.0977 39.6447 55.8633 39.1955 55.3945C38.7463 54.9225 38.5217 54.2926 38.5217 53.5049V53.3389C38.5217 52.8148 38.621 52.3477 38.8195 51.9375C39.0214 51.5241 39.3013 51.2018 39.6594 50.9707C40.0207 50.7363 40.4113 50.6191 40.8313 50.6191C41.5181 50.6191 42.052 50.8454 42.4328 51.2979C42.8137 51.7503 43.0041 52.3981 43.0041 53.2412V53.6172H39.425C39.438 54.138 39.5894 54.5596 39.8791 54.8818C40.1721 55.2008 40.5432 55.3604 40.9924 55.3604C41.3114 55.3604 41.5816 55.2952 41.8029 55.165C42.0243 55.0348 42.218 54.8623 42.384 54.6475L42.9357 55.0771C42.493 55.7575 41.829 56.0977 40.9436 56.0977ZM40.8313 51.3613C40.4667 51.3613 40.1607 51.4948 39.9133 51.7617C39.6659 52.0254 39.5129 52.3965 39.4543 52.875H42.1008V52.8066C42.0747 52.3477 41.951 51.9928 41.7297 51.7422C41.5083 51.4883 41.2089 51.3613 40.8313 51.3613ZM44.7354 56H43.832V48.5H44.7354V56ZM45.6463 53.3096C45.6463 52.792 45.7472 52.3265 45.949 51.9131C46.1541 51.4997 46.4373 51.1807 46.7986 50.9561C47.1632 50.7314 47.5783 50.6191 48.0437 50.6191C48.7631 50.6191 49.3442 50.8682 49.7869 51.3662C50.2329 51.8643 50.4559 52.5267 50.4559 53.3535V53.417C50.4559 53.9313 50.3566 54.3936 50.158 54.8037C49.9627 55.2106 49.6811 55.528 49.3133 55.7559C48.9487 55.9837 48.5288 56.0977 48.0535 56.0977C47.3374 56.0977 46.7563 55.8486 46.3103 55.3506C45.8676 54.8525 45.6463 54.1934 45.6463 53.373V53.3096ZM46.5545 53.417C46.5545 54.0029 46.6896 54.4733 46.9598 54.8281C47.2332 55.1829 47.5978 55.3604 48.0535 55.3604C48.5125 55.3604 48.8771 55.1813 49.1473 54.8232C49.4174 54.4619 49.5525 53.9574 49.5525 53.3096C49.5525 52.7301 49.4142 52.2614 49.1375 51.9033C48.8641 51.542 48.4995 51.3613 48.0437 51.3613C47.5978 51.3613 47.2381 51.5387 46.9646 51.8936C46.6912 52.2484 46.5545 52.7562 46.5545 53.417ZM54.3648 54.5986C54.3648 54.3545 54.2721 54.1657 54.0865 54.0322C53.9042 53.8955 53.5836 53.7783 53.1246 53.6807C52.6689 53.583 52.3059 53.4658 52.0357 53.3291C51.7688 53.1924 51.5702 53.0296 51.44 52.8408C51.3131 52.652 51.2496 52.4274 51.2496 52.167C51.2496 51.734 51.4319 51.3678 51.7965 51.0684C52.1643 50.7689 52.6331 50.6191 53.2027 50.6191C53.8017 50.6191 54.2867 50.7738 54.6578 51.083C55.0322 51.3923 55.2193 51.7878 55.2193 52.2695H54.3111C54.3111 52.0221 54.2053 51.8089 53.9938 51.6299C53.7854 51.4508 53.5217 51.3613 53.2027 51.3613C52.874 51.3613 52.6168 51.4329 52.4313 51.5762C52.2457 51.7194 52.1529 51.9066 52.1529 52.1377C52.1529 52.3558 52.2392 52.5202 52.4117 52.6309C52.5842 52.7415 52.8951 52.8473 53.3443 52.9482C53.7968 53.0492 54.163 53.1696 54.443 53.3096C54.7229 53.4495 54.9296 53.6188 55.0631 53.8174C55.1998 54.0127 55.2682 54.252 55.2682 54.5352C55.2682 55.0072 55.0794 55.3864 54.7018 55.6729C54.3242 55.9561 53.8342 56.0977 53.232 56.0977C52.8089 56.0977 52.4345 56.0228 52.109 55.873C51.7835 55.7233 51.5279 55.515 51.3424 55.248C51.1601 54.9779 51.0689 54.6865 51.0689 54.374H51.9723C51.9885 54.6768 52.109 54.9176 52.3336 55.0967C52.5615 55.2725 52.8609 55.3604 53.232 55.3604C53.5738 55.3604 53.8473 55.292 54.0523 55.1553C54.2607 55.0153 54.3648 54.8298 54.3648 54.5986Z" fill="#666666"/>
<defs>
<filter id="filter0_d_7838:59971" x="0" y="0" width="66" height="34" filterUnits="userSpaceOnUse" color-interpolation-filters="sRGB">
<feFlood flood-opacity="0" result="BackgroundImageFix"/>
<feColorMatrix in="SourceAlpha" type="matrix" values="0 0 0 0 0 0 0 0 0 0 0 0 0 0 0 0 0 0 127 0" result="hardAlpha"/>
<feOffset dy="1"/>
<feGaussianBlur stdDeviation="1"/>
<feColorMatrix type="matrix" values="0 0 0 0 0 0 0 0 0 0 0 0 0 0 0 0 0 0 0.2 0"/>
<feBlend mode="normal" in2="BackgroundImageFix" result="effect1_dropShadow_7838:59971"/>
<feBlend mode="normal" in="SourceGraphic" in2="effect1_dropShadow_7838:59971" result="shape"/>
</filter>
</defs>
</svg>
