<svg width="66" height="61" viewBox="0 0 66 61" fill="none" xmlns="http://www.w3.org/2000/svg">
<g filter="url(#filter0_d_7838:59943)">
<rect x="2" y="1" width="62" height="30" rx="8" fill="#E7F3F9"/>
<path d="M38.7071 16.4504C38.2133 16.5609 37.7322 16.649 37.2632 16.7795C36.8422 16.8966 36.4336 17.0578 36.0209 17.2036C35.8259 17.2727 35.6624 17.1799 35.6981 16.999C35.7118 16.929 35.7882 16.8472 35.8567 16.8158C36.5264 16.5085 37.2341 16.3209 37.9543 16.1744C38.1716 16.13 38.3883 16.0826 38.6236 16.0326C38.6153 15.9655 38.6133 15.9064 38.6003 15.8497C38.3909 14.9513 38.0124 14.128 37.4996 13.3631C37.4254 13.2523 37.359 13.2934 37.2755 13.3291C36.2506 13.7676 35.1819 14.0419 34.0739 14.1537C32.238 14.3386 30.4703 14.0556 28.7716 13.3434C28.6194 13.2797 28.5496 13.293 28.4555 13.4365C27.9724 14.1741 27.6145 14.9637 27.4108 15.8223C27.3958 15.8854 27.3885 15.9502 27.3748 16.0302C27.7517 16.1117 28.1199 16.1701 28.4752 16.2729C29.0394 16.4361 29.5966 16.6243 30.1534 16.8122C30.3097 16.8649 30.3591 16.9954 30.301 17.1135C30.2419 17.2337 30.1231 17.2634 29.9718 17.1976C29.1208 16.8265 28.2208 16.6366 27.2846 16.4587C27.2633 16.666 27.2352 16.8619 27.2235 17.0588C27.1401 18.4394 27.4138 19.7449 28.0512 20.974C28.2021 21.265 28.346 21.5597 28.4908 21.854C28.5703 22.0152 28.5429 22.1407 28.4211 22.1988C28.2985 22.2572 28.1867 22.2041 28.1062 22.0426C27.7163 21.2567 27.2843 20.4891 27.0616 19.6305C26.4814 17.3922 26.7835 15.2874 28.0221 13.3284C28.2114 13.0291 28.4277 12.7434 28.6588 12.4748C29.1459 11.9094 29.2327 11.2684 28.8815 10.5709C28.8093 10.4277 28.7172 10.2942 28.6287 10.1597C28.5373 10.0202 28.5419 9.89875 28.6498 9.82233C28.7553 9.74757 28.8805 9.77728 28.9786 9.90943C29.6353 10.7918 29.7992 11.9291 28.9068 12.8345C28.8918 12.8499 28.8808 12.8692 28.8507 12.9106C29.8593 13.3541 30.9026 13.6114 31.9836 13.7282C33.91 13.9368 35.9044 13.4893 37.149 12.9003C37.1109 12.8562 37.0779 12.8152 37.0422 12.7764C36.1585 11.825 36.4316 10.6747 37.0535 9.87305C37.1373 9.76493 37.2532 9.7449 37.3623 9.831C37.4735 9.91911 37.4525 10.0249 37.3894 10.143C37.2411 10.4204 37.0692 10.693 36.9737 10.989C36.8061 11.509 36.936 11.9929 37.2912 12.4047C38.7098 14.0486 39.3367 15.9575 39.2045 18.1167C39.1465 19.0638 38.9047 19.9695 38.5004 20.8285C38.3065 21.2407 38.0965 21.6455 37.8918 22.0526C37.815 22.2051 37.7075 22.2542 37.5874 22.1998C37.4638 22.1437 37.4351 22.0179 37.5109 21.8574C37.7813 21.2847 38.0808 20.7241 38.3168 20.1377C38.7699 19.0114 38.8777 17.8334 38.7415 16.6309C38.7351 16.5819 38.7228 16.5332 38.7071 16.4504Z" fill="#007DC5"/>
<path d="M33.6592 19.3084C33.51 19.5687 33.3795 19.825 33.2219 20.0633C33.0793 20.2785 32.9228 20.2772 32.7782 20.0593C32.623 19.8253 32.4948 19.5731 32.3438 19.3094C32.2994 19.3284 32.228 19.3678 32.1512 19.3898C31.9382 19.4509 31.7252 19.5177 31.5079 19.5574C31.2942 19.5964 31.1904 19.4826 31.2248 19.269C31.2485 19.1212 31.2762 18.973 31.3189 18.8298C31.3613 18.688 31.4244 18.5525 31.4705 18.4344C31.2168 18.2912 30.964 18.1651 30.7297 18.0112C30.4946 17.8567 30.4956 17.6995 30.7307 17.547C30.9664 17.3942 31.2191 17.267 31.4535 17.1349C31.3827 16.8822 31.2912 16.6096 31.2321 16.3306C31.176 16.0653 31.2832 15.9565 31.5519 16.0099C31.8264 16.0646 32.0938 16.1551 32.3819 16.2348C32.4266 16.1317 32.4764 15.9912 32.5458 15.8614C32.6189 15.7246 32.7031 15.5924 32.7962 15.4683C32.9261 15.2947 33.0843 15.289 33.2039 15.4673C33.3391 15.6692 33.4479 15.8887 33.5651 16.1023C33.5911 16.1494 33.6038 16.2038 33.6192 16.2455C33.8712 16.1684 34.1119 16.0896 34.356 16.0232C34.4341 16.0019 34.5239 15.9972 34.603 16.0119C34.7219 16.0339 34.8117 16.1037 34.779 16.2442C34.7085 16.5495 34.6321 16.8532 34.561 17.1449C34.7776 17.265 35.022 17.3835 35.2484 17.5303C35.5181 17.7055 35.5171 17.8564 35.2444 18.0339C35.0224 18.1784 34.782 18.2939 34.5283 18.4341C34.5406 18.4621 34.5703 18.5135 34.586 18.5685C34.6521 18.7971 34.7259 19.0244 34.774 19.257C34.8217 19.4896 34.7092 19.6038 34.4745 19.5547C34.2315 19.5036 33.9948 19.4202 33.7561 19.3495C33.7153 19.3368 33.6769 19.3158 33.6592 19.3084ZM31.7072 16.4915C31.7743 16.8919 31.9669 17.1682 32.3645 17.2677C32.3996 17.2764 32.4503 17.2797 32.4744 17.2607C32.4964 17.2433 32.5061 17.1893 32.4981 17.1569C32.4043 16.7831 32.1041 16.5272 31.7072 16.4915ZM33.0019 17.0551C33.2897 16.7791 33.2816 16.2435 32.9942 15.9712C32.7141 16.3326 32.7138 16.7885 33.0019 17.0551ZM31.7169 19.0695C32.1208 19.0077 32.3873 18.8032 32.4901 18.4114C32.4991 18.3773 32.5021 18.3256 32.4831 18.3046C32.464 18.2835 32.4113 18.2799 32.3779 18.2879C32 18.3787 31.7626 18.657 31.7169 19.0695ZM34.2909 19.0645C34.2328 18.6586 34.0241 18.396 33.6345 18.2906C33.6005 18.2812 33.5494 18.2792 33.5267 18.2982C33.506 18.3159 33.5007 18.3693 33.509 18.4017C33.6072 18.7858 33.8762 19.0154 34.2909 19.0645ZM32.9838 19.6101C33.2576 19.2987 33.2887 18.8722 33.0773 18.5665C33.0242 18.4898 32.9688 18.4901 32.9261 18.5699C32.8927 18.6326 32.884 18.709 32.8486 18.7704C32.6664 19.0888 32.8613 19.3331 32.9838 19.6101ZM34.2829 16.4988C33.9096 16.5185 33.5731 16.8065 33.5037 17.1662C33.486 17.258 33.529 17.2907 33.6155 17.2747C33.9894 17.206 34.2505 16.9023 34.2829 16.4988ZM31.1784 17.7803C31.5206 18.0346 31.8731 18.061 32.205 17.8621C32.2901 17.811 32.2934 17.7549 32.2066 17.6999C31.8835 17.4956 31.5142 17.5217 31.1784 17.7803ZM34.8644 17.813C34.4955 17.5227 34.121 17.4936 33.7998 17.7032C33.7717 17.7216 33.7644 17.833 33.7724 17.836C33.935 17.8981 34.1029 17.9979 34.2662 17.9925C34.4548 17.9865 34.6401 17.8851 34.8644 17.813ZM33.0149 17.557C32.881 17.5504 32.7752 17.6448 32.7712 17.775C32.7675 17.8904 32.8707 18.0012 32.9879 18.0086C33.111 18.0162 33.2296 17.9081 33.2319 17.7853C33.2342 17.6625 33.1401 17.5634 33.0149 17.557Z" fill="#007DC5"/>
<path d="M33.2132 21.3561C33.2132 21.5617 33.2162 21.7673 33.2122 21.9725C33.2092 22.1304 33.1297 22.2205 33.0009 22.2168C32.8563 22.2125 32.7882 22.1197 32.7865 21.9892C32.7812 21.556 32.7812 21.1229 32.7865 20.6897C32.7882 20.5592 32.8563 20.4664 33.0012 20.4621C33.1297 20.4584 33.2095 20.5485 33.2122 20.7064C33.2159 20.923 33.2132 21.1395 33.2132 21.3561Z" fill="#007DC5"/>
<path d="M33.2122 12.0856C33.2092 12.2435 33.1297 12.3336 33.0009 12.3299C32.8563 12.3256 32.7882 12.2328 32.7865 12.1023C32.7812 11.6692 32.7812 12.2371 32.7865 11.804C32.7882 11.6735 32.8563 11.5807 33.0012 11.5764C33.1297 11.5727 33.2095 11.6628 33.2122 11.8207C33.2159 12.0372 33.2159 11.8804 33.2122 12.0856Z" fill="#007DC5"/>
<path d="M38.7071 16.4504C38.2133 16.5609 37.7322 16.649 37.2632 16.7795C36.8422 16.8966 36.4336 17.0578 36.0209 17.2036C35.8259 17.2727 35.6624 17.1799 35.6981 16.999C35.7118 16.929 35.7882 16.8472 35.8567 16.8158C36.5264 16.5085 37.2341 16.3209 37.9543 16.1744C38.1716 16.13 38.3883 16.0826 38.6236 16.0326C38.6153 15.9655 38.6133 15.9064 38.6003 15.8497C38.3909 14.9513 38.0124 14.128 37.4996 13.3631C37.4254 13.2523 37.359 13.2934 37.2755 13.3291C36.2506 13.7676 35.1819 14.0419 34.0739 14.1537C32.238 14.3386 30.4703 14.0556 28.7716 13.3434C28.6194 13.2797 28.5496 13.293 28.4555 13.4365C27.9724 14.1741 27.6145 14.9637 27.4108 15.8223C27.3958 15.8854 27.3885 15.9502 27.3748 16.0302C27.7517 16.1117 28.1199 16.1701 28.4752 16.2729C29.0394 16.4361 29.5966 16.6243 30.1534 16.8122C30.3097 16.8649 30.3591 16.9954 30.301 17.1135C30.2419 17.2337 30.1231 17.2634 29.9718 17.1976C29.1208 16.8265 28.2208 16.6366 27.2846 16.4587C27.2633 16.666 27.2352 16.8619 27.2235 17.0588C27.1401 18.4394 27.4138 19.7449 28.0512 20.974C28.2021 21.265 28.346 21.5597 28.4908 21.854C28.5703 22.0152 28.5429 22.1407 28.4211 22.1988C28.2985 22.2572 28.1867 22.2041 28.1062 22.0426C27.7163 21.2567 27.2843 20.4891 27.0616 19.6305C26.4814 17.3922 26.7835 15.2874 28.0221 13.3284C28.2114 13.0291 28.4277 12.7434 28.6588 12.4748C29.1459 11.9094 29.2327 11.2684 28.8815 10.5709C28.8093 10.4277 28.7172 10.2942 28.6287 10.1597C28.5373 10.0202 28.5419 9.89875 28.6498 9.82233C28.7553 9.74757 28.8805 9.77728 28.9786 9.90943C29.6353 10.7918 29.7992 11.9291 28.9068 12.8345C28.8918 12.8499 28.8808 12.8692 28.8507 12.9106C29.8593 13.3541 30.9026 13.6114 31.9836 13.7282C33.91 13.9368 35.9044 13.4893 37.149 12.9003C37.1109 12.8562 37.0779 12.8152 37.0422 12.7764C36.1585 11.825 36.4316 10.6747 37.0535 9.87305C37.1373 9.76493 37.2532 9.7449 37.3623 9.831C37.4735 9.91911 37.4525 10.0249 37.3894 10.143C37.2411 10.4204 37.0692 10.693 36.9737 10.989C36.8061 11.509 36.936 11.9929 37.2912 12.4047C38.7098 14.0486 39.3367 15.9575 39.2045 18.1167C39.1465 19.0638 38.9047 19.9695 38.5004 20.8285C38.3065 21.2407 38.0965 21.6455 37.8918 22.0526C37.815 22.2051 37.7075 22.2542 37.5874 22.1998C37.4638 22.1437 37.4351 22.0179 37.5109 21.8574C37.7813 21.2847 38.0808 20.7241 38.3168 20.1377C38.7699 19.0114 38.8777 17.8334 38.7415 16.6309C38.7351 16.5819 38.7228 16.5332 38.7071 16.4504Z" stroke="#007DC5" stroke-width="0.2"/>
<path d="M33.6592 19.3084C33.51 19.5687 33.3795 19.825 33.2219 20.0633C33.0793 20.2785 32.9228 20.2772 32.7782 20.0593C32.623 19.8253 32.4948 19.5731 32.3438 19.3094C32.2994 19.3284 32.228 19.3678 32.1512 19.3898C31.9382 19.4509 31.7252 19.5177 31.5079 19.5574C31.2942 19.5964 31.1904 19.4826 31.2248 19.269C31.2485 19.1212 31.2762 18.973 31.3189 18.8298C31.3613 18.688 31.4244 18.5525 31.4705 18.4344C31.2168 18.2912 30.964 18.1651 30.7297 18.0112C30.4946 17.8567 30.4956 17.6995 30.7307 17.547C30.9664 17.3942 31.2191 17.267 31.4535 17.1349C31.3827 16.8822 31.2912 16.6096 31.2321 16.3306C31.176 16.0653 31.2832 15.9565 31.5519 16.0099C31.8264 16.0646 32.0938 16.1551 32.3819 16.2348C32.4266 16.1317 32.4764 15.9912 32.5458 15.8614C32.6189 15.7246 32.7031 15.5924 32.7962 15.4683C32.9261 15.2947 33.0843 15.289 33.2039 15.4673C33.3391 15.6692 33.4479 15.8887 33.5651 16.1023C33.5911 16.1494 33.6038 16.2038 33.6192 16.2455C33.8712 16.1684 34.1119 16.0896 34.356 16.0232C34.4341 16.0019 34.5239 15.9972 34.603 16.0119C34.7219 16.0339 34.8117 16.1037 34.779 16.2442C34.7085 16.5495 34.6321 16.8532 34.561 17.1449C34.7776 17.265 35.022 17.3835 35.2484 17.5303C35.5181 17.7055 35.5171 17.8564 35.2444 18.0339C35.0224 18.1784 34.782 18.2939 34.5283 18.4341C34.5406 18.4621 34.5703 18.5135 34.586 18.5685C34.6521 18.7971 34.7259 19.0244 34.774 19.257C34.8217 19.4896 34.7092 19.6038 34.4745 19.5547C34.2315 19.5036 33.9948 19.4202 33.7561 19.3495C33.7153 19.3368 33.6769 19.3158 33.6592 19.3084ZM31.7072 16.4915C31.7743 16.8919 31.9669 17.1682 32.3645 17.2677C32.3996 17.2764 32.4503 17.2797 32.4744 17.2607C32.4964 17.2433 32.5061 17.1893 32.4981 17.1569C32.4043 16.7831 32.1041 16.5272 31.7072 16.4915ZM33.0019 17.0551C33.2897 16.7791 33.2816 16.2435 32.9942 15.9712C32.7141 16.3326 32.7138 16.7885 33.0019 17.0551ZM31.7169 19.0695C32.1208 19.0077 32.3873 18.8032 32.4901 18.4114C32.4991 18.3773 32.5021 18.3256 32.4831 18.3046C32.464 18.2835 32.4113 18.2799 32.3779 18.2879C32 18.3787 31.7626 18.657 31.7169 19.0695ZM34.2909 19.0645C34.2328 18.6586 34.0241 18.396 33.6345 18.2906C33.6005 18.2812 33.5494 18.2792 33.5267 18.2982C33.506 18.3159 33.5007 18.3693 33.509 18.4017C33.6072 18.7858 33.8762 19.0154 34.2909 19.0645ZM32.9838 19.6101C33.2576 19.2987 33.2887 18.8722 33.0773 18.5665C33.0242 18.4898 32.9688 18.4901 32.9261 18.5699C32.8927 18.6326 32.884 18.709 32.8486 18.7704C32.6664 19.0888 32.8613 19.3331 32.9838 19.6101ZM34.2829 16.4988C33.9096 16.5185 33.5731 16.8065 33.5037 17.1662C33.486 17.258 33.529 17.2907 33.6155 17.2747C33.9894 17.206 34.2505 16.9023 34.2829 16.4988ZM31.1784 17.7803C31.5206 18.0346 31.8731 18.061 32.205 17.8621C32.2901 17.811 32.2934 17.7549 32.2066 17.6999C31.8835 17.4956 31.5142 17.5217 31.1784 17.7803ZM34.8644 17.813C34.4955 17.5227 34.121 17.4936 33.7998 17.7032C33.7717 17.7216 33.7644 17.833 33.7724 17.836C33.935 17.8981 34.1029 17.9979 34.2662 17.9925C34.4548 17.9865 34.6401 17.8851 34.8644 17.813ZM33.0149 17.557C32.881 17.5504 32.7752 17.6448 32.7712 17.775C32.7675 17.8904 32.8707 18.0012 32.9879 18.0086C33.111 18.0162 33.2296 17.9081 33.2319 17.7853C33.2342 17.6625 33.1401 17.5634 33.0149 17.557Z" stroke="#007DC5" stroke-width="0.2"/>
<path d="M33.2132 21.3561C33.2132 21.5617 33.2162 21.7673 33.2122 21.9725C33.2092 22.1304 33.1297 22.2205 33.0009 22.2168C32.8563 22.2125 32.7882 22.1197 32.7865 21.9892C32.7812 21.556 32.7812 21.1229 32.7865 20.6897C32.7882 20.5592 32.8563 20.4664 33.0012 20.4621C33.1297 20.4584 33.2095 20.5485 33.2122 20.7064C33.2159 20.923 33.2132 21.1395 33.2132 21.3561Z" stroke="#007DC5" stroke-width="0.2"/>
<path d="M33.2122 12.0856C33.2092 12.2435 33.1297 12.3336 33.0009 12.3299C32.8563 12.3256 32.7882 12.2328 32.7865 12.1023C32.7812 11.6692 32.7812 12.2371 32.7865 11.804C32.7882 11.6735 32.8563 11.5807 33.0012 11.5764C33.1297 11.5727 33.2095 11.6628 33.2122 11.8207C33.2159 12.0372 33.2159 11.8804 33.2122 12.0856Z" stroke="#007DC5" stroke-width="0.2"/>
</g>
<path d="M19.2293 41.7441C19.1414 42.4961 18.8631 43.0771 18.3943 43.4873C17.9288 43.8942 17.3087 44.0977 16.534 44.0977C15.6941 44.0977 15.0203 43.7965 14.5125 43.1943C14.0079 42.5921 13.7557 41.7865 13.7557 40.7773V40.0938C13.7557 39.4329 13.8729 38.8519 14.1072 38.3506C14.3449 37.8493 14.6801 37.4652 15.1131 37.1982C15.546 36.9281 16.0473 36.793 16.617 36.793C17.3722 36.793 17.9777 37.0046 18.4334 37.4277C18.8891 37.8477 19.1544 38.4303 19.2293 39.1758H18.2869C18.2055 38.6094 18.0281 38.1992 17.7547 37.9453C17.4845 37.6914 17.1053 37.5645 16.617 37.5645C16.018 37.5645 15.5477 37.7858 15.2059 38.2285C14.8673 38.6712 14.698 39.3011 14.698 40.1182V40.8066C14.698 41.5781 14.8592 42.1917 15.1814 42.6475C15.5037 43.1032 15.9546 43.3311 16.534 43.3311C17.0548 43.3311 17.4536 43.2139 17.7303 42.9795C18.0102 42.7419 18.1958 42.3301 18.2869 41.7441H19.2293ZM23.3336 43.4775C22.982 43.891 22.4661 44.0977 21.7857 44.0977C21.2226 44.0977 20.7929 43.9349 20.4967 43.6094C20.2037 43.2806 20.0556 42.7956 20.0523 42.1543V38.7168H20.9557V42.1299C20.9557 42.9307 21.2812 43.3311 21.9322 43.3311C22.6223 43.3311 23.0813 43.0739 23.3092 42.5596V38.7168H24.2125V44H23.3531L23.3336 43.4775ZM26.2709 44H25.3676V38.7168H26.2709V44ZM25.2943 37.3154C25.2943 37.1689 25.3383 37.0452 25.4262 36.9443C25.5173 36.8434 25.6508 36.793 25.8266 36.793C26.0023 36.793 26.1358 36.8434 26.227 36.9443C26.3181 37.0452 26.3637 37.1689 26.3637 37.3154C26.3637 37.4619 26.3181 37.584 26.227 37.6816C26.1358 37.7793 26.0023 37.8281 25.8266 37.8281C25.6508 37.8281 25.5173 37.7793 25.4262 37.6816C25.3383 37.584 25.2943 37.4619 25.2943 37.3154ZM27.2014 41.3145C27.2014 40.5039 27.3934 39.8529 27.7775 39.3613C28.1617 38.8665 28.6646 38.6191 29.2863 38.6191C29.9048 38.6191 30.3947 38.8307 30.7561 39.2539V36.5H31.6594V44H30.8293L30.7854 43.4336C30.424 43.8763 29.9211 44.0977 29.2766 44.0977C28.6646 44.0977 28.1649 43.847 27.7775 43.3457C27.3934 42.8444 27.2014 42.1901 27.2014 41.3828V41.3145ZM28.1047 41.417C28.1047 42.016 28.2284 42.4847 28.4758 42.8232C28.7232 43.1618 29.065 43.3311 29.5012 43.3311C30.0741 43.3311 30.4924 43.0739 30.7561 42.5596V40.1328C30.4859 39.6348 30.0708 39.3857 29.5109 39.3857C29.0682 39.3857 28.7232 39.5566 28.4758 39.8984C28.2284 40.2402 28.1047 40.7464 28.1047 41.417ZM36.0273 44C35.9753 43.8958 35.9329 43.7103 35.9004 43.4434C35.4805 43.8796 34.9792 44.0977 34.3965 44.0977C33.8757 44.0977 33.4476 43.9512 33.1123 43.6582C32.7803 43.362 32.6143 42.9876 32.6143 42.5352C32.6143 41.985 32.8226 41.5586 33.2393 41.2559C33.6592 40.9499 34.2484 40.7969 35.0068 40.7969H35.8857V40.3818C35.8857 40.0661 35.7913 39.8154 35.6025 39.6299C35.4137 39.4411 35.1354 39.3467 34.7676 39.3467C34.4453 39.3467 34.1751 39.4281 33.957 39.5908C33.7389 39.7536 33.6299 39.9505 33.6299 40.1816H32.7217C32.7217 39.918 32.8145 39.6641 33 39.4199C33.1888 39.1725 33.4427 38.9772 33.7617 38.834C34.084 38.6908 34.4372 38.6191 34.8213 38.6191C35.43 38.6191 35.9069 38.7721 36.252 39.0781C36.597 39.3809 36.776 39.7992 36.7891 40.333V42.7646C36.7891 43.2497 36.8509 43.6354 36.9746 43.9219V44H36.0273ZM34.5283 43.3115C34.8115 43.3115 35.0801 43.2383 35.334 43.0918C35.5879 42.9453 35.7718 42.7549 35.8857 42.5205V41.4365H35.1777C34.071 41.4365 33.5176 41.7604 33.5176 42.4082C33.5176 42.6914 33.612 42.9128 33.8008 43.0723C33.9896 43.2318 34.2321 43.3115 34.5283 43.3115ZM37.6854 41.3145C37.6854 40.5039 37.8774 39.8529 38.2615 39.3613C38.6456 38.8665 39.1486 38.6191 39.7703 38.6191C40.3888 38.6191 40.8787 38.8307 41.24 39.2539V36.5H42.1434V44H41.3133L41.2693 43.4336C40.908 43.8763 40.4051 44.0977 39.7605 44.0977C39.1486 44.0977 38.6489 43.847 38.2615 43.3457C37.8774 42.8444 37.6854 42.1901 37.6854 41.3828V41.3145ZM38.5887 41.417C38.5887 42.016 38.7124 42.4847 38.9598 42.8232C39.2072 43.1618 39.549 43.3311 39.9852 43.3311C40.5581 43.3311 40.9764 43.0739 41.24 42.5596V40.1328C40.9699 39.6348 40.5548 39.3857 39.9949 39.3857C39.5522 39.3857 39.2072 39.5566 38.9598 39.8984C38.7124 40.2402 38.5887 40.7464 38.5887 41.417ZM43.0104 41.3096C43.0104 40.792 43.1113 40.3265 43.3131 39.9131C43.5182 39.4997 43.8014 39.1807 44.1627 38.9561C44.5273 38.7314 44.9423 38.6191 45.4078 38.6191C46.1272 38.6191 46.7083 38.8682 47.151 39.3662C47.5969 39.8643 47.8199 40.5267 47.8199 41.3535V41.417C47.8199 41.9313 47.7206 42.3936 47.5221 42.8037C47.3268 43.2106 47.0452 43.528 46.6773 43.7559C46.3128 43.9837 45.8928 44.0977 45.4176 44.0977C44.7014 44.0977 44.1204 43.8486 43.6744 43.3506C43.2317 42.8525 43.0104 42.1934 43.0104 41.373V41.3096ZM43.9186 41.417C43.9186 42.0029 44.0536 42.4733 44.3238 42.8281C44.5973 43.1829 44.9619 43.3604 45.4176 43.3604C45.8766 43.3604 46.2411 43.1813 46.5113 42.8232C46.7815 42.4619 46.9166 41.9574 46.9166 41.3096C46.9166 40.7301 46.7783 40.2614 46.5016 39.9033C46.2281 39.542 45.8635 39.3613 45.4078 39.3613C44.9619 39.3613 44.6021 39.5387 44.3287 39.8936C44.0553 40.2484 43.9186 40.7562 43.9186 41.417ZM51.7289 42.5986C51.7289 42.3545 51.6361 42.1657 51.4506 42.0322C51.2683 41.8955 50.9477 41.7783 50.4887 41.6807C50.0329 41.583 49.67 41.4658 49.3998 41.3291C49.1329 41.1924 48.9343 41.0296 48.8041 40.8408C48.6772 40.652 48.6137 40.4274 48.6137 40.167C48.6137 39.734 48.796 39.3678 49.1605 39.0684C49.5284 38.7689 49.9971 38.6191 50.5668 38.6191C51.1658 38.6191 51.6508 38.7738 52.0219 39.083C52.3962 39.3923 52.5834 39.7878 52.5834 40.2695H51.6752C51.6752 40.0221 51.5694 39.8089 51.3578 39.6299C51.1495 39.4508 50.8858 39.3613 50.5668 39.3613C50.238 39.3613 49.9809 39.4329 49.7953 39.5762C49.6098 39.7194 49.517 39.9066 49.517 40.1377C49.517 40.3558 49.6033 40.5202 49.7758 40.6309C49.9483 40.7415 50.2592 40.8473 50.7084 40.9482C51.1609 41.0492 51.5271 41.1696 51.807 41.3096C52.087 41.4495 52.2937 41.6188 52.4272 41.8174C52.5639 42.0127 52.6322 42.252 52.6322 42.5352C52.6322 43.0072 52.4434 43.3864 52.0658 43.6729C51.6882 43.9561 51.1983 44.0977 50.5961 44.0977C50.1729 44.0977 49.7986 44.0228 49.473 43.873C49.1475 43.7233 48.892 43.515 48.7064 43.248C48.5242 42.9779 48.433 42.6865 48.433 42.374H49.3363C49.3526 42.6768 49.473 42.9176 49.6977 43.0967C49.9255 43.2725 50.225 43.3604 50.5961 43.3604C50.9379 43.3604 51.2113 43.292 51.4164 43.1553C51.6247 43.0153 51.7289 42.8298 51.7289 42.5986ZM18.9049 56H17.9967V50.7168H18.9049V56ZM18.9146 48.5049H20.0084L18.6998 49.9404H17.9723L18.9146 48.5049ZM20.9486 50.7168L20.9779 51.3809C21.3816 50.873 21.9089 50.6191 22.56 50.6191C23.6765 50.6191 24.2396 51.249 24.2494 52.5088V56H23.3461V52.5039C23.3428 52.123 23.2549 51.8415 23.0824 51.6592C22.9132 51.4769 22.6479 51.3857 22.2865 51.3857C21.9936 51.3857 21.7364 51.4639 21.515 51.6201C21.2937 51.7764 21.1212 51.9814 20.9975 52.2354V56H20.0941V50.7168H20.9486ZM26.5373 49.4375V50.7168H27.5236V51.415H26.5373V54.6914C26.5373 54.903 26.5812 55.0625 26.6691 55.1699C26.757 55.2741 26.9068 55.3262 27.1184 55.3262C27.2225 55.3262 27.3658 55.3066 27.548 55.2676V56C27.3104 56.0651 27.0793 56.0977 26.8547 56.0977C26.451 56.0977 26.1467 55.9756 25.9416 55.7314C25.7365 55.4873 25.634 55.1406 25.634 54.6914V51.415H24.6721V50.7168H25.634V49.4375H26.5373ZM29.2646 56H28.3613V50.7168H29.2646V56ZM28.2881 49.3154C28.2881 49.1689 28.332 49.0452 28.4199 48.9443C28.5111 48.8434 28.6445 48.793 28.8203 48.793C28.9961 48.793 29.1296 48.8434 29.2207 48.9443C29.3118 49.0452 29.3574 49.1689 29.3574 49.3154C29.3574 49.4619 29.3118 49.584 29.2207 49.6816C29.1296 49.7793 28.9961 49.8281 28.8203 49.8281C28.6445 49.8281 28.5111 49.7793 28.4199 49.6816C28.332 49.584 28.2881 49.4619 28.2881 49.3154ZM31.2645 50.7168L31.2889 51.3027C31.6762 50.847 32.1987 50.6191 32.8563 50.6191C33.5952 50.6191 34.0981 50.9023 34.365 51.4688C34.5408 51.2148 34.7687 51.0098 35.0486 50.8535C35.3318 50.6973 35.6655 50.6191 36.0496 50.6191C37.2085 50.6191 37.7977 51.2327 37.8172 52.46V56H36.9139V52.5137C36.9139 52.1361 36.8276 51.8545 36.6551 51.6689C36.4826 51.4801 36.1928 51.3857 35.7859 51.3857C35.4507 51.3857 35.1723 51.4867 34.951 51.6885C34.7296 51.887 34.601 52.1556 34.5652 52.4941V56H33.657V52.5381C33.657 51.7699 33.2811 51.3857 32.5291 51.3857C31.9367 51.3857 31.5314 51.638 31.3133 52.1426V56H30.41V50.7168H31.2645ZM38.6451 53.3096C38.6451 52.792 38.746 52.3265 38.9479 51.9131C39.1529 51.4997 39.4361 51.1807 39.7975 50.9561C40.162 50.7314 40.5771 50.6191 41.0426 50.6191C41.762 50.6191 42.343 50.8682 42.7857 51.3662C43.2317 51.8643 43.4547 52.5267 43.4547 53.3535V53.417C43.4547 53.9313 43.3554 54.3936 43.1568 54.8037C42.9615 55.2106 42.6799 55.528 42.3121 55.7559C41.9475 55.9837 41.5276 56.0977 41.0523 56.0977C40.3362 56.0977 39.7551 55.8486 39.3092 55.3506C38.8665 54.8525 38.6451 54.1934 38.6451 53.373V53.3096ZM39.5533 53.417C39.5533 54.0029 39.6884 54.4733 39.9586 54.8281C40.232 55.1829 40.5966 55.3604 41.0523 55.3604C41.5113 55.3604 41.8759 55.1813 42.1461 54.8232C42.4163 54.4619 42.5514 53.9574 42.5514 53.3096C42.5514 52.7301 42.413 52.2614 42.1363 51.9033C41.8629 51.542 41.4983 51.3613 41.0426 51.3613C40.5966 51.3613 40.2369 51.5387 39.9635 51.8936C39.69 52.2484 39.5533 52.7562 39.5533 53.417ZM47.3637 54.5986C47.3637 54.3545 47.2709 54.1657 47.0854 54.0322C46.9031 53.8955 46.5824 53.7783 46.1234 53.6807C45.6677 53.583 45.3048 53.4658 45.0346 53.3291C44.7676 53.1924 44.5691 53.0296 44.4389 52.8408C44.3119 52.652 44.2484 52.4274 44.2484 52.167C44.2484 51.734 44.4307 51.3678 44.7953 51.0684C45.1631 50.7689 45.6319 50.6191 46.2016 50.6191C46.8005 50.6191 47.2855 50.7738 47.6566 51.083C48.031 51.3923 48.2182 51.7878 48.2182 52.2695H47.31C47.31 52.0221 47.2042 51.8089 46.9926 51.6299C46.7842 51.4508 46.5206 51.3613 46.2016 51.3613C45.8728 51.3613 45.6156 51.4329 45.4301 51.5762C45.2445 51.7194 45.1518 51.9066 45.1518 52.1377C45.1518 52.3558 45.238 52.5202 45.4105 52.6309C45.5831 52.7415 45.8939 52.8473 46.3432 52.9482C46.7956 53.0492 47.1618 53.1696 47.4418 53.3096C47.7217 53.4495 47.9284 53.6188 48.0619 53.8174C48.1986 54.0127 48.267 54.252 48.267 54.5352C48.267 55.0072 48.0782 55.3864 47.7006 55.6729C47.323 55.9561 46.8331 56.0977 46.2309 56.0977C45.8077 56.0977 45.4333 56.0228 45.1078 55.873C44.7823 55.7233 44.5268 55.515 44.3412 55.248C44.1589 54.9779 44.0678 54.6865 44.0678 54.374H44.9711C44.9874 54.6768 45.1078 54.9176 45.3324 55.0967C45.5603 55.2725 45.8598 55.3604 46.2309 55.3604C46.5727 55.3604 46.8461 55.292 47.0512 55.1553C47.2595 55.0153 47.3637 54.8298 47.3637 54.5986Z" fill="#666666"/>
<defs>
<filter id="filter0_d_7838:59943" x="0" y="0" width="66" height="34" filterUnits="userSpaceOnUse" color-interpolation-filters="sRGB">
<feFlood flood-opacity="0" result="BackgroundImageFix"/>
<feColorMatrix in="SourceAlpha" type="matrix" values="0 0 0 0 0 0 0 0 0 0 0 0 0 0 0 0 0 0 127 0" result="hardAlpha"/>
<feOffset dy="1"/>
<feGaussianBlur stdDeviation="1"/>
<feColorMatrix type="matrix" values="0 0 0 0 0 0 0 0 0 0 0 0 0 0 0 0 0 0 0.2 0"/>
<feBlend mode="normal" in2="BackgroundImageFix" result="effect1_dropShadow_7838:59943"/>
<feBlend mode="normal" in="SourceGraphic" in2="effect1_dropShadow_7838:59943" result="shape"/>
</filter>
</defs>
</svg>
