<svg width="70" height="65" viewBox="0 0 70 65" fill="none" xmlns="http://www.w3.org/2000/svg">
<g filter="url(#filter0_d_7838:60139)">
<rect x="2" y="1" width="66" height="34" rx="8" fill="#E7F3F9"/>
<path fill-rule="evenodd" clip-rule="evenodd" d="M37.8438 15.75C37.8438 15.4393 37.5919 15.1875 37.2812 15.1875H36.1562V14.0625C36.1562 13.7518 35.9044 13.5 35.5938 13.5H34.4688C34.1581 13.5 33.9062 13.7518 33.9062 14.0625V15.1875H32.7812C32.4706 15.1875 32.2188 15.4393 32.2188 15.75V16.875C32.2188 17.1857 32.4706 17.4375 32.7812 17.4375H33.9062V18.5625C33.9062 18.8732 34.1581 19.125 34.4688 19.125H35.5938C35.9044 19.125 36.1562 18.8732 36.1562 18.5625V17.4375H37.2812C37.5919 17.4375 37.8438 17.1857 37.8438 16.875V15.75Z" stroke="#007DC5" stroke-linecap="round" stroke-linejoin="round"/>
<path fill-rule="evenodd" clip-rule="evenodd" d="M38.9691 23.0625H31.0941L29.2806 12.1823C29.1719 11.5298 29.3558 10.8625 29.7835 10.3579C30.2111 9.85323 30.8391 9.56233 31.5006 9.5625H38.5634C39.2247 9.56255 39.8525 9.85355 40.28 10.3582C40.7075 10.8628 40.8913 11.5299 40.7826 12.1823L38.9691 23.0625Z" stroke="#007DC5" stroke-linecap="round" stroke-linejoin="round"/>
<path fill-rule="evenodd" clip-rule="evenodd" d="M38.9688 25.3125C38.9688 25.9338 38.4651 26.4375 37.8438 26.4375H32.2188C31.5974 26.4375 31.0938 25.9338 31.0938 25.3125V23.0625H38.9688V25.3125Z" stroke="#007DC5" stroke-linecap="round" stroke-linejoin="round"/>
</g>
<path d="M2.46758 48V40.8906H4.47441C5.0929 40.8906 5.63978 41.0273 6.11504 41.3008C6.5903 41.5742 6.95651 41.9632 7.21367 42.4678C7.47409 42.9723 7.60593 43.5518 7.60918 44.2061V44.6602C7.60918 45.3307 7.47897 45.9183 7.21856 46.4229C6.96139 46.9274 6.59193 47.3148 6.11016 47.585C5.63164 47.8551 5.07337 47.9935 4.43535 48H2.46758ZM3.40508 41.6621V47.2334H4.39141C5.11406 47.2334 5.67559 47.0088 6.07598 46.5596C6.47962 46.1104 6.68145 45.4707 6.68145 44.6406V44.2256C6.68145 43.4183 6.49102 42.7917 6.11016 42.3457C5.73255 41.8965 5.19544 41.6686 4.49883 41.6621H3.40508ZM10.7809 48.0977C10.0647 48.0977 9.48203 47.8633 9.03281 47.3945C8.58359 46.9225 8.35898 46.2926 8.35898 45.5049V45.3389C8.35898 44.8148 8.45827 44.3477 8.65684 43.9375C8.85866 43.5241 9.13861 43.2018 9.49668 42.9707C9.85801 42.7363 10.2486 42.6191 10.6686 42.6191C11.3554 42.6191 11.8893 42.8454 12.2701 43.2979C12.651 43.7503 12.8414 44.3981 12.8414 45.2412V45.6172H9.26231C9.27533 46.138 9.42669 46.5596 9.71641 46.8818C10.0094 47.2008 10.3805 47.3604 10.8297 47.3604C11.1487 47.3604 11.4189 47.2952 11.6402 47.165C11.8616 47.0348 12.0553 46.8623 12.2213 46.6475L12.773 47.0771C12.3303 47.7575 11.6663 48.0977 10.7809 48.0977ZM10.6686 43.3613C10.304 43.3613 9.99798 43.4948 9.75059 43.7617C9.50319 44.0254 9.3502 44.3965 9.2916 44.875H11.9381V44.8066C11.912 44.3477 11.7883 43.9928 11.567 43.7422C11.3456 43.4883 11.0462 43.3613 10.6686 43.3613ZM16.1449 43.5273C16.0082 43.5046 15.8601 43.4932 15.7006 43.4932C15.1081 43.4932 14.7061 43.7454 14.4945 44.25V48H13.5912V42.7168H14.4701L14.4848 43.3271C14.781 42.8551 15.2009 42.6191 15.7445 42.6191C15.9203 42.6191 16.0538 42.6419 16.1449 42.6875V43.5273ZM17.5295 42.7168L17.5539 43.3027C17.9413 42.847 18.4637 42.6191 19.1213 42.6191C19.8602 42.6191 20.3632 42.9023 20.6301 43.4688C20.8059 43.2148 21.0337 43.0098 21.3137 42.8535C21.5969 42.6973 21.9305 42.6191 22.3146 42.6191C23.4735 42.6191 24.0627 43.2327 24.0822 44.46V48H23.1789V44.5137C23.1789 44.1361 23.0926 43.8545 22.9201 43.6689C22.7476 43.4801 22.4579 43.3857 22.051 43.3857C21.7157 43.3857 21.4374 43.4867 21.216 43.6885C20.9947 43.887 20.8661 44.1556 20.8303 44.4941V48H19.9221V44.5381C19.9221 43.7699 19.5461 43.3857 18.7941 43.3857C18.2017 43.3857 17.7964 43.638 17.5783 44.1426V48H16.675V42.7168H17.5295ZM28.4111 48C28.359 47.8958 28.3167 47.7103 28.2842 47.4434C27.8643 47.8796 27.363 48.0977 26.7803 48.0977C26.2594 48.0977 25.8314 47.9512 25.4961 47.6582C25.1641 47.362 24.998 46.9876 24.998 46.5352C24.998 45.985 25.2064 45.5586 25.623 45.2559C26.043 44.9499 26.6322 44.7969 27.3906 44.7969H28.2695V44.3818C28.2695 44.0661 28.1751 43.8154 27.9863 43.6299C27.7975 43.4411 27.5192 43.3467 27.1514 43.3467C26.8291 43.3467 26.5589 43.4281 26.3408 43.5908C26.1227 43.7536 26.0137 43.9505 26.0137 44.1816H25.1055C25.1055 43.918 25.1982 43.6641 25.3838 43.4199C25.5726 43.1725 25.8265 42.9772 26.1455 42.834C26.4678 42.6908 26.821 42.6191 27.2051 42.6191C27.8138 42.6191 28.2907 42.7721 28.6357 43.0781C28.9808 43.3809 29.1598 43.7992 29.1729 44.333V46.7646C29.1729 47.2497 29.2347 47.6354 29.3584 47.9219V48H28.4111ZM26.9121 47.3115C27.1953 47.3115 27.4639 47.2383 27.7178 47.0918C27.9717 46.9453 28.1556 46.7549 28.2695 46.5205V45.4365H27.5615C26.4548 45.4365 25.9014 45.7604 25.9014 46.4082C25.9014 46.6914 25.9958 46.9128 26.1846 47.0723C26.3734 47.2318 26.6159 47.3115 26.9121 47.3115ZM31.5145 41.4375V42.7168H32.5008V43.415H31.5145V46.6914C31.5145 46.903 31.5584 47.0625 31.6463 47.1699C31.7342 47.2741 31.8839 47.3262 32.0955 47.3262C32.1997 47.3262 32.3429 47.3066 32.5252 47.2676V48C32.2876 48.0651 32.0564 48.0977 31.8318 48.0977C31.4282 48.0977 31.1238 47.9756 30.9188 47.7314C30.7137 47.4873 30.6111 47.1406 30.6111 46.6914V43.415H29.6492V42.7168H30.6111V41.4375H31.5145ZM32.9234 45.3096C32.9234 44.792 33.0244 44.3265 33.2262 43.9131C33.4313 43.4997 33.7145 43.1807 34.0758 42.9561C34.4404 42.7314 34.8554 42.6191 35.3209 42.6191C36.0403 42.6191 36.6214 42.8682 37.0641 43.3662C37.51 43.8643 37.733 44.5267 37.733 45.3535V45.417C37.733 45.9313 37.6337 46.3936 37.4352 46.8037C37.2398 47.2106 36.9583 47.528 36.5904 47.7559C36.2258 47.9837 35.8059 48.0977 35.3307 48.0977C34.6145 48.0977 34.0335 47.8486 33.5875 47.3506C33.1448 46.8525 32.9234 46.1934 32.9234 45.373V45.3096ZM33.8316 45.417C33.8316 46.0029 33.9667 46.4733 34.2369 46.8281C34.5104 47.1829 34.8749 47.3604 35.3307 47.3604C35.7896 47.3604 36.1542 47.1813 36.4244 46.8232C36.6946 46.4619 36.8297 45.9574 36.8297 45.3096C36.8297 44.7301 36.6913 44.2614 36.4146 43.9033C36.1412 43.542 35.7766 43.3613 35.3209 43.3613C34.8749 43.3613 34.5152 43.5387 34.2418 43.8936C33.9684 44.2484 33.8316 44.7562 33.8316 45.417ZM39.5473 48H38.6439V40.5H39.5473V48ZM40.4582 45.3096C40.4582 44.792 40.5591 44.3265 40.7609 43.9131C40.966 43.4997 41.2492 43.1807 41.6105 42.9561C41.9751 42.7314 42.3902 42.6191 42.8557 42.6191C43.5751 42.6191 44.1561 42.8682 44.5988 43.3662C45.0448 43.8643 45.2678 44.5267 45.2678 45.3535V45.417C45.2678 45.9313 45.1685 46.3936 44.9699 46.8037C44.7746 47.2106 44.493 47.528 44.1252 47.7559C43.7606 47.9837 43.3407 48.0977 42.8654 48.0977C42.1493 48.0977 41.5682 47.8486 41.1223 47.3506C40.6796 46.8525 40.4582 46.1934 40.4582 45.373V45.3096ZM41.3664 45.417C41.3664 46.0029 41.5015 46.4733 41.7717 46.8281C42.0451 47.1829 42.4097 47.3604 42.8654 47.3604C43.3244 47.3604 43.689 47.1813 43.9592 46.8232C44.2294 46.4619 44.3645 45.9574 44.3645 45.3096C44.3645 44.7301 44.2261 44.2614 43.9494 43.9033C43.676 43.542 43.3114 43.3613 42.8557 43.3613C42.4097 43.3613 42.05 43.5387 41.7766 43.8936C41.5031 44.2484 41.3664 44.7562 41.3664 45.417ZM43.2658 40.5H44.3596L43.051 41.9355H42.3234L43.2658 40.5ZM45.8857 45.3145C45.8857 44.4909 46.0762 43.8366 46.457 43.3516C46.8379 42.8633 47.3424 42.6191 47.9707 42.6191C48.6152 42.6191 49.1182 42.847 49.4795 43.3027L49.5234 42.7168H50.3486V47.873C50.3486 48.5566 50.1452 49.0954 49.7383 49.4893C49.3346 49.8831 48.791 50.0801 48.1074 50.0801C47.7266 50.0801 47.3538 49.9987 46.9893 49.8359C46.6247 49.6732 46.3464 49.4502 46.1543 49.167L46.623 48.625C47.0104 49.1035 47.484 49.3428 48.0439 49.3428C48.4834 49.3428 48.8252 49.2191 49.0693 48.9717C49.3167 48.7243 49.4404 48.376 49.4404 47.9268V47.4727C49.0791 47.8893 48.5859 48.0977 47.9609 48.0977C47.3424 48.0977 46.8411 47.8486 46.457 47.3506C46.0762 46.8525 45.8857 46.1738 45.8857 45.3145ZM46.7939 45.417C46.7939 46.0127 46.916 46.4814 47.1602 46.8232C47.4043 47.1618 47.7461 47.3311 48.1855 47.3311C48.7552 47.3311 49.1735 47.0723 49.4404 46.5547V44.1426C49.1637 43.638 48.7487 43.3857 48.1953 43.3857C47.7559 43.3857 47.4124 43.5566 47.165 43.8984C46.9176 44.2402 46.7939 44.7464 46.7939 45.417ZM52.3973 48H51.4939V42.7168H52.3973V48ZM51.4207 41.3154C51.4207 41.1689 51.4646 41.0452 51.5525 40.9443C51.6437 40.8434 51.7771 40.793 51.9529 40.793C52.1287 40.793 52.2622 40.8434 52.3533 40.9443C52.4445 41.0452 52.49 41.1689 52.49 41.3154C52.49 41.4619 52.4445 41.584 52.3533 41.6816C52.2622 41.7793 52.1287 41.8281 51.9529 41.8281C51.7771 41.8281 51.6437 41.7793 51.5525 41.6816C51.4646 41.584 51.4207 41.4619 51.4207 41.3154ZM55.6666 47.3604C55.9889 47.3604 56.2704 47.2627 56.5113 47.0674C56.7522 46.8721 56.8857 46.6279 56.9117 46.335H57.7662C57.7499 46.6377 57.6458 46.9258 57.4537 47.1992C57.2617 47.4727 57.0045 47.6908 56.6822 47.8535C56.3632 48.0163 56.0247 48.0977 55.6666 48.0977C54.9472 48.0977 54.3743 47.8584 53.9479 47.3799C53.5247 46.8981 53.3131 46.2406 53.3131 45.4072V45.2559C53.3131 44.7415 53.4075 44.2842 53.5963 43.8838C53.7851 43.4834 54.0553 43.1725 54.4068 42.9512C54.7617 42.7298 55.1799 42.6191 55.6617 42.6191C56.2542 42.6191 56.7457 42.7965 57.1363 43.1514C57.5302 43.5062 57.7402 43.9668 57.7662 44.5332H56.9117C56.8857 44.1914 56.7555 43.9115 56.5211 43.6934C56.29 43.472 56.0035 43.3613 55.6617 43.3613C55.2027 43.3613 54.8463 43.5273 54.5924 43.8594C54.3417 44.1882 54.2164 44.665 54.2164 45.29V45.4609C54.2164 46.0697 54.3417 46.5384 54.5924 46.8672C54.843 47.196 55.2011 47.3604 55.6666 47.3604ZM58.2426 45.3096C58.2426 44.792 58.3435 44.3265 58.5453 43.9131C58.7504 43.4997 59.0336 43.1807 59.3949 42.9561C59.7595 42.7314 60.1745 42.6191 60.64 42.6191C61.3594 42.6191 61.9405 42.8682 62.3832 43.3662C62.8292 43.8643 63.0522 44.5267 63.0522 45.3535V45.417C63.0522 45.9313 62.9529 46.3936 62.7543 46.8037C62.559 47.2106 62.2774 47.528 61.9096 47.7559C61.545 47.9837 61.1251 48.0977 60.6498 48.0977C59.9337 48.0977 59.3526 47.8486 58.9066 47.3506C58.4639 46.8525 58.2426 46.1934 58.2426 45.373V45.3096ZM59.1508 45.417C59.1508 46.0029 59.2859 46.4733 59.5561 46.8281C59.8295 47.1829 60.1941 47.3604 60.6498 47.3604C61.1088 47.3604 61.4734 47.1813 61.7436 46.8232C62.0137 46.4619 62.1488 45.9574 62.1488 45.3096C62.1488 44.7301 62.0105 44.2614 61.7338 43.9033C61.4604 43.542 61.0958 43.3613 60.64 43.3613C60.1941 43.3613 59.8344 43.5387 59.5609 43.8936C59.2875 44.2484 59.1508 44.7562 59.1508 45.417ZM66.9611 46.5986C66.9611 46.3545 66.8684 46.1657 66.6828 46.0322C66.5005 45.8955 66.1799 45.7783 65.7209 45.6807C65.2652 45.583 64.9022 45.4658 64.632 45.3291C64.3651 45.1924 64.1665 45.0296 64.0363 44.8408C63.9094 44.652 63.8459 44.4274 63.8459 44.167C63.8459 43.734 64.0282 43.3678 64.3928 43.0684C64.7606 42.7689 65.2294 42.6191 65.799 42.6191C66.398 42.6191 66.883 42.7738 67.2541 43.083C67.6285 43.3923 67.8156 43.7878 67.8156 44.2695H66.9074C66.9074 44.0221 66.8016 43.8089 66.59 43.6299C66.3817 43.4508 66.118 43.3613 65.799 43.3613C65.4703 43.3613 65.2131 43.4329 65.0275 43.5762C64.842 43.7194 64.7492 43.9066 64.7492 44.1377C64.7492 44.3558 64.8355 44.5202 65.008 44.6309C65.1805 44.7415 65.4914 44.8473 65.9406 44.9482C66.3931 45.0492 66.7593 45.1696 67.0393 45.3096C67.3192 45.4495 67.5259 45.6188 67.6594 45.8174C67.7961 46.0127 67.8645 46.252 67.8645 46.5352C67.8645 47.0072 67.6757 47.3864 67.298 47.6729C66.9204 47.9561 66.4305 48.0977 65.8283 48.0977C65.4051 48.0977 65.0308 48.0228 64.7053 47.873C64.3798 47.7233 64.1242 47.515 63.9387 47.248C63.7564 46.9779 63.6652 46.6865 63.6652 46.374H64.5686C64.5848 46.6768 64.7053 46.9176 64.9299 47.0967C65.1578 47.2725 65.4572 47.3604 65.8283 47.3604C66.1701 47.3604 66.4436 47.292 66.6486 47.1553C66.857 47.0153 66.9611 46.8298 66.9611 46.5986Z" fill="#666666"/>
<defs>
<filter id="filter0_d_7838:60139" x="0" y="0" width="70" height="38" filterUnits="userSpaceOnUse" color-interpolation-filters="sRGB">
<feFlood flood-opacity="0" result="BackgroundImageFix"/>
<feColorMatrix in="SourceAlpha" type="matrix" values="0 0 0 0 0 0 0 0 0 0 0 0 0 0 0 0 0 0 127 0" result="hardAlpha"/>
<feOffset dy="1"/>
<feGaussianBlur stdDeviation="1"/>
<feColorMatrix type="matrix" values="0 0 0 0 0 0 0 0 0 0 0 0 0 0 0 0 0 0 0.2 0"/>
<feBlend mode="normal" in2="BackgroundImageFix" result="effect1_dropShadow_7838:60139"/>
<feBlend mode="normal" in="SourceGraphic" in2="effect1_dropShadow_7838:60139" result="shape"/>
</filter>
</defs>
</svg>
