<svg width="66" height="61" viewBox="0 0 66 61" fill="none" xmlns="http://www.w3.org/2000/svg">
<g filter="url(#filter0_d_7838:59951)">
<rect x="2" y="1" width="62" height="30" rx="8" fill="#E7F3F9"/>
<path d="M32.5625 19.8516H37.8125C38.779 19.8516 39.5625 19.0681 39.5625 18.1016V15.9141C39.5625 15.6724 39.3666 15.4766 39.125 15.4766H31.25" stroke="#007DC5" stroke-linecap="round" stroke-linejoin="round"/>
<path d="M38.25 15.4766V14.6016C38.25 14.1183 37.8582 13.7266 37.375 13.7266H30.375C29.8918 13.7266 29.5 14.1183 29.5 14.6016V15.0391" stroke="#007DC5" stroke-linecap="round" stroke-linejoin="round"/>
<path d="M37.375 13.7259C37.375 12.4134 36.5 11.1009 35.1875 11.1009H33.4375C32.532 11.1212 31.7128 10.5662 31.3958 9.7178C31.34 9.57074 31.209 9.46534 31.0534 9.44222C30.8978 9.41911 30.7418 9.4819 30.6457 9.60639C28.9243 11.9135 30.375 13.7259 30.375 13.7259" stroke="#007DC5" stroke-linecap="round" stroke-linejoin="round"/>
<path fill-rule="evenodd" clip-rule="evenodd" d="M26.4375 20.3186C26.4375 21.5268 27.4169 22.5061 28.625 22.5061C29.8331 22.5061 30.8125 21.5268 30.8125 20.3186C30.8125 18.8772 28.9896 16.3555 28.625 16.3555C28.2604 16.3555 26.4375 18.8749 26.4375 20.3186Z" stroke="#007DC5" stroke-linecap="round" stroke-linejoin="round"/>
</g>
<path d="M3.63789 44V36.8906H5.64473C6.26322 36.8906 6.81009 37.0273 7.28535 37.3008C7.76061 37.5742 8.12682 37.9632 8.38398 38.4678C8.6444 38.9723 8.77624 39.5518 8.77949 40.2061V40.6602C8.77949 41.3307 8.64928 41.9183 8.38887 42.4229C8.1317 42.9274 7.76224 43.3148 7.28047 43.585C6.80195 43.8551 6.24368 43.9935 5.60566 44H3.63789ZM4.57539 37.6621V43.2334H5.56172C6.28437 43.2334 6.8459 43.0088 7.24629 42.5596C7.64993 42.1104 7.85176 41.4707 7.85176 40.6406V40.2256C7.85176 39.4183 7.66133 38.7917 7.28047 38.3457C6.90286 37.8965 6.36575 37.6686 5.66914 37.6621H4.57539ZM11.9512 44.0977C11.235 44.0977 10.6523 43.8633 10.2031 43.3945C9.75391 42.9225 9.5293 42.2926 9.5293 41.5049V41.3389C9.5293 40.8148 9.62858 40.3477 9.82715 39.9375C10.029 39.5241 10.3089 39.2018 10.667 38.9707C11.0283 38.7363 11.4189 38.6191 11.8389 38.6191C12.5257 38.6191 13.0596 38.8454 13.4404 39.2979C13.8213 39.7503 14.0117 40.3981 14.0117 41.2412V41.6172H10.4326C10.4456 42.138 10.597 42.5596 10.8867 42.8818C11.1797 43.2008 11.5508 43.3604 12 43.3604C12.319 43.3604 12.5892 43.2952 12.8105 43.165C13.0319 43.0348 13.2256 42.8623 13.3916 42.6475L13.9434 43.0771C13.5007 43.7575 12.8366 44.0977 11.9512 44.0977ZM11.8389 39.3613C11.4743 39.3613 11.1683 39.4948 10.9209 39.7617C10.6735 40.0254 10.5205 40.3965 10.4619 40.875H13.1084V40.8066C13.0824 40.3477 12.9587 39.9928 12.7373 39.7422C12.5159 39.4883 12.2165 39.3613 11.8389 39.3613ZM17.8377 42.5986C17.8377 42.3545 17.7449 42.1657 17.5594 42.0322C17.3771 41.8955 17.0564 41.7783 16.5975 41.6807C16.1417 41.583 15.7788 41.4658 15.5086 41.3291C15.2417 41.1924 15.0431 41.0296 14.9129 40.8408C14.7859 40.652 14.7225 40.4274 14.7225 40.167C14.7225 39.734 14.9048 39.3678 15.2693 39.0684C15.6372 38.7689 16.1059 38.6191 16.6756 38.6191C17.2745 38.6191 17.7596 38.7738 18.1307 39.083C18.505 39.3923 18.6922 39.7878 18.6922 40.2695H17.784C17.784 40.0221 17.6782 39.8089 17.4666 39.6299C17.2583 39.4508 16.9946 39.3613 16.6756 39.3613C16.3468 39.3613 16.0896 39.4329 15.9041 39.5762C15.7186 39.7194 15.6258 39.9066 15.6258 40.1377C15.6258 40.3558 15.712 40.5202 15.8846 40.6309C16.0571 40.7415 16.368 40.8473 16.8172 40.9482C17.2697 41.0492 17.6359 41.1696 17.9158 41.3096C18.1958 41.4495 18.4025 41.6188 18.5359 41.8174C18.6727 42.0127 18.741 42.252 18.741 42.5352C18.741 43.0072 18.5522 43.3864 18.1746 43.6729C17.797 43.9561 17.3071 44.0977 16.7049 44.0977C16.2817 44.0977 15.9074 44.0228 15.5818 43.873C15.2563 43.7233 15.0008 43.515 14.8152 43.248C14.6329 42.9779 14.5418 42.6865 14.5418 42.374H15.4451C15.4614 42.6768 15.5818 42.9176 15.8064 43.0967C16.0343 43.2725 16.3338 43.3604 16.7049 43.3604C17.0467 43.3604 17.3201 43.292 17.5252 43.1553C17.7335 43.0153 17.8377 42.8298 17.8377 42.5986ZM21.7369 43.3604C22.0592 43.3604 22.3408 43.2627 22.5816 43.0674C22.8225 42.8721 22.956 42.6279 22.982 42.335H23.8365C23.8202 42.6377 23.7161 42.9258 23.524 43.1992C23.332 43.4727 23.0748 43.6908 22.7525 43.8535C22.4335 44.0163 22.095 44.0977 21.7369 44.0977C21.0175 44.0977 20.4446 43.8584 20.0182 43.3799C19.595 42.8981 19.3834 42.2406 19.3834 41.4072V41.2559C19.3834 40.7415 19.4778 40.2842 19.6666 39.8838C19.8554 39.4834 20.1256 39.1725 20.4771 38.9512C20.832 38.7298 21.2503 38.6191 21.732 38.6191C22.3245 38.6191 22.816 38.7965 23.2066 39.1514C23.6005 39.5062 23.8105 39.9668 23.8365 40.5332H22.982C22.956 40.1914 22.8258 39.9115 22.5914 39.6934C22.3603 39.472 22.0738 39.3613 21.732 39.3613C21.273 39.3613 20.9166 39.5273 20.6627 39.8594C20.412 40.1882 20.2867 40.665 20.2867 41.29V41.4609C20.2867 42.0697 20.412 42.5384 20.6627 42.8672C20.9133 43.196 21.2714 43.3604 21.7369 43.3604ZM24.3129 41.3096C24.3129 40.792 24.4138 40.3265 24.6156 39.9131C24.8207 39.4997 25.1039 39.1807 25.4652 38.9561C25.8298 38.7314 26.2449 38.6191 26.7104 38.6191C27.4298 38.6191 28.0108 38.8682 28.4535 39.3662C28.8995 39.8643 29.1225 40.5267 29.1225 41.3535V41.417C29.1225 41.9313 29.0232 42.3936 28.8246 42.8037C28.6293 43.2106 28.3477 43.528 27.9799 43.7559C27.6153 43.9837 27.1954 44.0977 26.7201 44.0977C26.004 44.0977 25.4229 43.8486 24.977 43.3506C24.5342 42.8525 24.3129 42.1934 24.3129 41.373V41.3096ZM25.2211 41.417C25.2211 42.0029 25.3562 42.4733 25.6264 42.8281C25.8998 43.1829 26.2644 43.3604 26.7201 43.3604C27.1791 43.3604 27.5437 43.1813 27.8139 42.8232C28.084 42.4619 28.2191 41.9574 28.2191 41.3096C28.2191 40.7301 28.0808 40.2614 27.8041 39.9033C27.5307 39.542 27.1661 39.3613 26.7104 39.3613C26.2644 39.3613 25.9047 39.5387 25.6312 39.8936C25.3578 40.2484 25.2211 40.7562 25.2211 41.417ZM30.9367 44H30.0334V36.5H30.9367V44ZM31.8477 41.3096C31.8477 40.792 31.9486 40.3265 32.1504 39.9131C32.3555 39.4997 32.6387 39.1807 33 38.9561C33.3646 38.7314 33.7796 38.6191 34.2451 38.6191C34.9645 38.6191 35.5456 38.8682 35.9883 39.3662C36.4342 39.8643 36.6572 40.5267 36.6572 41.3535V41.417C36.6572 41.9313 36.5579 42.3936 36.3594 42.8037C36.1641 43.2106 35.8825 43.528 35.5146 43.7559C35.1501 43.9837 34.7301 44.0977 34.2549 44.0977C33.5387 44.0977 32.9577 43.8486 32.5117 43.3506C32.069 42.8525 31.8477 42.1934 31.8477 41.373V41.3096ZM32.7559 41.417C32.7559 42.0029 32.891 42.4733 33.1611 42.8281C33.4346 43.1829 33.7992 43.3604 34.2549 43.3604C34.7139 43.3604 35.0785 43.1813 35.3486 42.8232C35.6188 42.4619 35.7539 41.9574 35.7539 41.3096C35.7539 40.7301 35.6156 40.2614 35.3389 39.9033C35.0654 39.542 34.7008 39.3613 34.2451 39.3613C33.7992 39.3613 33.4395 39.5387 33.166 39.8936C32.8926 40.2484 32.7559 40.7562 32.7559 41.417ZM40.0438 39.5273C39.907 39.5046 39.7589 39.4932 39.5994 39.4932C39.007 39.4932 38.6049 39.7454 38.3934 40.25V44H37.49V38.7168H38.3689L38.3836 39.3271C38.6798 38.8551 39.0997 38.6191 39.6434 38.6191C39.8191 38.6191 39.9526 38.6419 40.0438 38.6875V39.5273ZM43.6451 44C43.593 43.8958 43.5507 43.7103 43.5182 43.4434C43.0982 43.8796 42.5969 44.0977 42.0143 44.0977C41.4934 44.0977 41.0654 43.9512 40.7301 43.6582C40.398 43.362 40.232 42.9876 40.232 42.5352C40.232 41.985 40.4404 41.5586 40.857 41.2559C41.277 40.9499 41.8661 40.7969 42.6246 40.7969H43.5035V40.3818C43.5035 40.0661 43.4091 39.8154 43.2203 39.6299C43.0315 39.4411 42.7532 39.3467 42.3853 39.3467C42.0631 39.3467 41.7929 39.4281 41.5748 39.5908C41.3567 39.7536 41.2477 39.9505 41.2477 40.1816H40.3395C40.3395 39.918 40.4322 39.6641 40.6178 39.4199C40.8066 39.1725 41.0605 38.9772 41.3795 38.834C41.7018 38.6908 42.0549 38.6191 42.4391 38.6191C43.0478 38.6191 43.5247 38.7721 43.8697 39.0781C44.2148 39.3809 44.3938 39.7992 44.4068 40.333V42.7646C44.4068 43.2497 44.4687 43.6354 44.5924 43.9219V44H43.6451ZM42.1461 43.3115C42.4293 43.3115 42.6978 43.2383 42.9518 43.0918C43.2057 42.9453 43.3896 42.7549 43.5035 42.5205V41.4365H42.7955C41.6887 41.4365 41.1353 41.7604 41.1353 42.4082C41.1353 42.6914 41.2298 42.9128 41.4186 43.0723C41.6074 43.2318 41.8499 43.3115 42.1461 43.3115ZM46.3773 38.7168L46.4066 39.3809C46.8103 38.873 47.3376 38.6191 47.9887 38.6191C49.1052 38.6191 49.6684 39.249 49.6781 40.5088V44H48.7748V40.5039C48.7715 40.123 48.6837 39.8415 48.5111 39.6592C48.3419 39.4769 48.0766 39.3857 47.7152 39.3857C47.4223 39.3857 47.1651 39.4639 46.9437 39.6201C46.7224 39.7764 46.5499 39.9814 46.4262 40.2354V44H45.5229V38.7168H46.3773ZM51.966 37.4375V38.7168H52.9523V39.415H51.966V42.6914C51.966 42.903 52.01 43.0625 52.0979 43.1699C52.1857 43.2741 52.3355 43.3262 52.5471 43.3262C52.6512 43.3262 52.7945 43.3066 52.9768 43.2676V44C52.7391 44.0651 52.508 44.0977 52.2834 44.0977C51.8798 44.0977 51.5754 43.9756 51.3703 43.7314C51.1652 43.4873 51.0627 43.1406 51.0627 42.6914V39.415H50.1008V38.7168H51.0627V37.4375H51.966ZM55.9043 44.0977C55.1882 44.0977 54.6055 43.8633 54.1562 43.3945C53.707 42.9225 53.4824 42.2926 53.4824 41.5049V41.3389C53.4824 40.8148 53.5817 40.3477 53.7803 39.9375C53.9821 39.5241 54.262 39.2018 54.6201 38.9707C54.9814 38.7363 55.3721 38.6191 55.792 38.6191C56.4788 38.6191 57.0127 38.8454 57.3936 39.2979C57.7744 39.7503 57.9648 40.3981 57.9648 41.2412V41.6172H54.3857C54.3988 42.138 54.5501 42.5596 54.8398 42.8818C55.1328 43.2008 55.5039 43.3604 55.9531 43.3604C56.2721 43.3604 56.5423 43.2952 56.7637 43.165C56.985 43.0348 57.1787 42.8623 57.3447 42.6475L57.8965 43.0771C57.4538 43.7575 56.7897 44.0977 55.9043 44.0977ZM55.792 39.3613C55.4274 39.3613 55.1214 39.4948 54.874 39.7617C54.6266 40.0254 54.4736 40.3965 54.415 40.875H57.0615V40.8066C57.0355 40.3477 56.9118 39.9928 56.6904 39.7422C56.4691 39.4883 56.1696 39.3613 55.792 39.3613ZM61.7908 42.5986C61.7908 42.3545 61.698 42.1657 61.5125 42.0322C61.3302 41.8955 61.0096 41.7783 60.5506 41.6807C60.0949 41.583 59.7319 41.4658 59.4617 41.3291C59.1948 41.1924 58.9962 41.0296 58.866 40.8408C58.7391 40.652 58.6756 40.4274 58.6756 40.167C58.6756 39.734 58.8579 39.3678 59.2225 39.0684C59.5903 38.7689 60.0591 38.6191 60.6287 38.6191C61.2277 38.6191 61.7127 38.7738 62.0838 39.083C62.4581 39.3923 62.6453 39.7878 62.6453 40.2695H61.7371C61.7371 40.0221 61.6313 39.8089 61.4197 39.6299C61.2114 39.4508 60.9477 39.3613 60.6287 39.3613C60.2999 39.3613 60.0428 39.4329 59.8572 39.5762C59.6717 39.7194 59.5789 39.9066 59.5789 40.1377C59.5789 40.3558 59.6652 40.5202 59.8377 40.6309C60.0102 40.7415 60.3211 40.8473 60.7703 40.9482C61.2228 41.0492 61.589 41.1696 61.8689 41.3096C62.1489 41.4495 62.3556 41.6188 62.4891 41.8174C62.6258 42.0127 62.6941 42.252 62.6941 42.5352C62.6941 43.0072 62.5053 43.3864 62.1277 43.6729C61.7501 43.9561 61.2602 44.0977 60.658 44.0977C60.2348 44.0977 59.8605 44.0228 59.535 43.873C59.2094 43.7233 58.9539 43.515 58.7684 43.248C58.5861 42.9779 58.4949 42.6865 58.4949 42.374H59.3982C59.4145 42.6768 59.535 42.9176 59.7596 43.0967C59.9874 43.2725 60.2869 43.3604 60.658 43.3604C60.9998 43.3604 61.2732 43.292 61.4783 43.1553C61.6867 43.0153 61.7908 42.8298 61.7908 42.5986Z" fill="#666666"/>
<defs>
<filter id="filter0_d_7838:59951" x="0" y="0" width="66" height="34" filterUnits="userSpaceOnUse" color-interpolation-filters="sRGB">
<feFlood flood-opacity="0" result="BackgroundImageFix"/>
<feColorMatrix in="SourceAlpha" type="matrix" values="0 0 0 0 0 0 0 0 0 0 0 0 0 0 0 0 0 0 127 0" result="hardAlpha"/>
<feOffset dy="1"/>
<feGaussianBlur stdDeviation="1"/>
<feColorMatrix type="matrix" values="0 0 0 0 0 0 0 0 0 0 0 0 0 0 0 0 0 0 0.2 0"/>
<feBlend mode="normal" in2="BackgroundImageFix" result="effect1_dropShadow_7838:59951"/>
<feBlend mode="normal" in="SourceGraphic" in2="effect1_dropShadow_7838:59951" result="shape"/>
</filter>
</defs>
</svg>
