<svg width="66" height="61" viewBox="0 0 66 61" fill="none" xmlns="http://www.w3.org/2000/svg">
<g filter="url(#filter0_d_7838:59935)">
<rect x="2" y="1" width="62" height="30" rx="8" fill="#E7F3F9"/>
<path d="M38.0628 9.09947C37.8623 9.13831 37.7592 9.26069 37.7872 9.42665C37.8121 9.57502 37.9663 9.66722 38.1545 9.64515C38.3573 9.62168 38.5666 9.58983 38.7766 9.55043C38.904 9.5264 38.9815 9.46158 39.014 9.35149C39.0455 9.24448 39.0213 9.15926 38.9399 9.09081C38.9097 9.06566 38.8661 9.04275 38.8201 9.01872C38.8081 9.01257 38.7965 9.00643 38.7845 9H38.594C38.5427 9.0095 38.4913 9.019 38.4399 9.0285C38.316 9.05141 38.188 9.07516 38.0628 9.09947Z" fill="#007DC5"/>
<path d="M26.7777 19.1444C26.7777 20.055 26.7777 20.9656 26.778 21.8762C26.7783 22.4512 27.1923 22.8832 27.8332 22.9773C27.9269 22.991 28.0032 22.9974 28.0732 22.9977L28.7671 22.9986C29.7871 23 30.8414 23.0014 31.8784 22.9974C32.5995 22.9947 33.1648 22.537 33.1657 21.9558C33.1705 18.884 33.1701 16.3909 33.1641 14.1092C33.1629 13.6736 32.933 13.3523 32.4809 13.1548C32.3091 13.0796 32.288 12.962 32.2886 12.8681C32.2914 12.5049 32.2905 12.1375 32.2895 11.7823C32.2889 11.544 32.1902 11.4185 31.9484 11.349C31.7349 11.2878 31.7094 11.1548 31.711 11.0461C31.7154 10.746 31.7182 10.4244 31.711 10.1031C31.7028 9.74462 31.4818 9.52026 31.134 9.51746C30.3871 9.51104 29.6266 9.51383 28.8917 9.51634L28.8084 9.51662C28.5575 9.51746 28.3904 9.62392 28.2977 9.84213C28.2617 9.92679 28.2422 10.0321 28.2381 10.1643C28.2277 10.4744 28.2324 10.8011 28.2362 11.0634C28.2384 11.209 28.1662 11.2984 28.0098 11.3445C27.756 11.4194 27.657 11.5432 27.6567 11.786C27.6567 11.8885 27.6567 11.9911 27.6567 12.0939C27.657 12.3543 27.6573 12.6236 27.6529 12.8891C27.6513 12.9762 27.5892 13.0936 27.488 13.1386C27.0094 13.3515 26.7767 13.6974 26.7773 14.1964C26.7783 15.1129 26.778 16.0296 26.778 16.9463L26.7777 19.1444ZM28.8724 10.0821H31.076V11.2925H28.8724V10.0821ZM28.292 11.8701H31.6495V13.057H28.292V11.8701ZM27.4067 17.0506C27.4067 16.0905 27.4067 15.1305 27.407 14.1704C27.407 13.8131 27.6204 13.6242 28.0243 13.6239C29.3249 13.6236 30.6251 13.6236 31.9257 13.6239C32.3217 13.6239 32.5336 13.8086 32.538 14.1579C32.5396 14.276 32.5392 14.3931 32.5389 14.5169C32.5386 14.5733 32.5386 14.6312 32.5386 14.691V14.8307H31.7375C31.384 14.8307 31.0306 14.8304 30.6772 14.8309C30.2868 14.8315 29.9968 15.0634 29.9551 15.4074C29.9463 15.48 29.9457 15.5568 29.9457 15.6292V15.8242C29.9451 17.3367 29.9447 18.9005 29.9469 20.4386C29.9469 20.5317 29.9514 20.6527 29.9832 20.7622C30.0712 21.0637 30.3143 21.231 30.6677 21.2338C31.0224 21.2366 31.3837 21.2361 31.7327 21.2355C31.886 21.2352 32.0386 21.2347 32.1921 21.235H32.537V21.3747C32.537 21.4403 32.5377 21.5037 32.5383 21.5655C32.5396 21.706 32.5408 21.839 32.5351 21.9731C32.5292 22.1106 32.4563 22.2956 32.1423 22.3964C32.0509 22.4258 31.9456 22.4398 31.8112 22.44C31.1485 22.4411 30.5542 22.4417 30.0034 22.4417C29.3283 22.4417 28.7189 22.4409 28.1293 22.4392C28.0013 22.4389 27.867 22.4157 27.7513 22.3744C27.5274 22.2942 27.4045 22.1285 27.4045 21.9075C27.4063 20.2886 27.4063 18.6694 27.4067 17.0506ZM32.5282 15.3934V20.6686H30.586V15.3934H32.5282Z" fill="#007DC5"/>
<path d="M33.6519 11.5719C33.8209 11.6113 33.9981 11.6376 34.1548 11.6608C34.2153 11.6697 34.2733 11.6784 34.3272 11.6873C34.524 11.6831 34.6627 11.5923 34.6819 11.454C34.7034 11.3009 34.6113 11.1769 34.4527 11.145C34.226 11.0995 34.0019 11.0637 33.7868 11.0388C33.7742 11.0374 33.7616 11.0366 33.749 11.0366C33.6071 11.0366 33.4766 11.128 33.4482 11.2534C33.4154 11.4004 33.5028 11.5373 33.6519 11.5719Z" fill="#007DC5"/>
<path d="M33.4444 10.0556C33.4441 10.1358 33.4839 10.2123 33.5532 10.2657C33.6213 10.3182 33.7071 10.3409 33.7941 10.3294C33.9943 10.3034 34.203 10.2705 34.4322 10.2286C34.6097 10.1961 34.7157 10.052 34.6794 9.89326C34.647 9.75216 34.4871 9.6608 34.3153 9.68539C34.0892 9.71752 33.889 9.74853 33.703 9.7801C33.5488 9.80609 33.4451 9.91701 33.4444 10.0556Z" fill="#007DC5"/>
<path d="M35.9611 11.3772C35.9469 11.3755 35.9327 11.3744 35.9185 11.3744C35.8466 11.3744 35.7779 11.3976 35.7215 11.4415C35.6521 11.4957 35.613 11.5733 35.6139 11.6549C35.6158 11.7927 35.7148 11.8991 35.8659 11.9262C36.0919 11.9667 36.3016 11.9986 36.5068 12.024C36.6664 12.0439 36.8234 11.9441 36.8499 11.8064C36.8798 11.6496 36.7808 11.5127 36.6147 11.4809C36.399 11.4395 36.1789 11.4046 35.9611 11.3772Z" fill="#007DC5"/>
<path d="M37.7882 11.9335C37.7557 12.0925 37.8588 12.2313 38.0328 12.2635C38.2472 12.3031 38.4626 12.3372 38.6732 12.3646C38.7615 12.3761 38.8475 12.3534 38.9156 12.3006C38.9847 12.2473 39.0241 12.1704 39.0235 12.09C39.0222 11.9486 38.9216 11.843 38.7605 11.8147C38.5818 11.7835 38.3869 11.7533 38.1476 11.7197C38.1309 11.7175 38.1145 11.7164 38.0981 11.7164C37.9496 11.7164 37.8137 11.8083 37.7882 11.9335Z" fill="#007DC5"/>
<path d="M36.5541 9.33892C36.5418 9.33892 36.5292 9.33976 36.5169 9.34116C36.3044 9.36574 36.0862 9.40011 35.8498 9.44649C35.6887 9.47807 35.5868 9.62168 35.6184 9.7734C35.6464 9.91003 35.8056 10.0084 35.9661 9.98798C36.1846 9.96032 36.4003 9.92735 36.6071 9.88991C36.7543 9.86309 36.854 9.75328 36.8549 9.61609C36.8555 9.53618 36.8165 9.45935 36.7477 9.4057C36.6916 9.36211 36.6241 9.33892 36.5541 9.33892Z" fill="#007DC5"/>
</g>
<path d="M4.49863 44V36.8906H6.50547C7.12396 36.8906 7.67083 37.0273 8.14609 37.3008C8.62135 37.5742 8.98756 37.9632 9.24473 38.4678C9.50514 38.9723 9.63698 39.5518 9.64023 40.2061V40.6602C9.64023 41.3307 9.51003 41.9183 9.24961 42.4229C8.99245 42.9274 8.62298 43.3148 8.14121 43.585C7.66269 43.8551 7.10443 43.9935 6.46641 44H4.49863ZM5.43613 37.6621V43.2334H6.42246C7.14512 43.2334 7.70664 43.0088 8.10703 42.5596C8.51068 42.1104 8.7125 41.4707 8.7125 40.6406V40.2256C8.7125 39.4183 8.52207 38.7917 8.14121 38.3457C7.76361 37.8965 7.2265 37.6686 6.52988 37.6621H5.43613ZM12.8119 44.0977C12.0958 44.0977 11.5131 43.8633 11.0639 43.3945C10.6146 42.9225 10.39 42.2926 10.39 41.5049V41.3389C10.39 40.8148 10.4893 40.3477 10.6879 39.9375C10.8897 39.5241 11.1697 39.2018 11.5277 38.9707C11.8891 38.7363 12.2797 38.6191 12.6996 38.6191C13.3865 38.6191 13.9203 38.8454 14.3012 39.2979C14.682 39.7503 14.8725 40.3981 14.8725 41.2412V41.6172H11.2934C11.3064 42.138 11.4577 42.5596 11.7475 42.8818C12.0404 43.2008 12.4115 43.3604 12.8607 43.3604C13.1798 43.3604 13.4499 43.2952 13.6713 43.165C13.8926 43.0348 14.0863 42.8623 14.2523 42.6475L14.8041 43.0771C14.3614 43.7575 13.6973 44.0977 12.8119 44.0977ZM12.6996 39.3613C12.335 39.3613 12.029 39.4948 11.7816 39.7617C11.5342 40.0254 11.3812 40.3965 11.3227 40.875H13.9691V40.8066C13.9431 40.3477 13.8194 39.9928 13.598 39.7422C13.3767 39.4883 13.0772 39.3613 12.6996 39.3613ZM18.6984 42.5986C18.6984 42.3545 18.6057 42.1657 18.4201 42.0322C18.2378 41.8955 17.9172 41.7783 17.4582 41.6807C17.0025 41.583 16.6395 41.4658 16.3693 41.3291C16.1024 41.1924 15.9038 41.0296 15.7736 40.8408C15.6467 40.652 15.5832 40.4274 15.5832 40.167C15.5832 39.734 15.7655 39.3678 16.1301 39.0684C16.4979 38.7689 16.9667 38.6191 17.5363 38.6191C18.1353 38.6191 18.6203 38.7738 18.9914 39.083C19.3658 39.3923 19.5529 39.7878 19.5529 40.2695H18.6447C18.6447 40.0221 18.5389 39.8089 18.3273 39.6299C18.119 39.4508 17.8553 39.3613 17.5363 39.3613C17.2076 39.3613 16.9504 39.4329 16.7648 39.5762C16.5793 39.7194 16.4865 39.9066 16.4865 40.1377C16.4865 40.3558 16.5728 40.5202 16.7453 40.6309C16.9178 40.7415 17.2287 40.8473 17.6779 40.9482C18.1304 41.0492 18.4966 41.1696 18.7766 41.3096C19.0565 41.4495 19.2632 41.6188 19.3967 41.8174C19.5334 42.0127 19.6018 42.252 19.6018 42.5352C19.6018 43.0072 19.413 43.3864 19.0354 43.6729C18.6577 43.9561 18.1678 44.0977 17.5656 44.0977C17.1424 44.0977 16.7681 44.0228 16.4426 43.873C16.1171 43.7233 15.8615 43.515 15.676 43.248C15.4937 42.9779 15.4025 42.6865 15.4025 42.374H16.3059C16.3221 42.6768 16.4426 42.9176 16.6672 43.0967C16.8951 43.2725 17.1945 43.3604 17.5656 43.3604C17.9074 43.3604 18.1809 43.292 18.3859 43.1553C18.5943 43.0153 18.6984 42.8298 18.6984 42.5986ZM20.2393 41.3096C20.2393 40.792 20.3402 40.3265 20.542 39.9131C20.7471 39.4997 21.0303 39.1807 21.3916 38.9561C21.7562 38.7314 22.1712 38.6191 22.6367 38.6191C23.3561 38.6191 23.9372 38.8682 24.3799 39.3662C24.8258 39.8643 25.0488 40.5267 25.0488 41.3535V41.417C25.0488 41.9313 24.9495 42.3936 24.751 42.8037C24.5557 43.2106 24.2741 43.528 23.9062 43.7559C23.5417 43.9837 23.1217 44.0977 22.6465 44.0977C21.9303 44.0977 21.3493 43.8486 20.9033 43.3506C20.4606 42.8525 20.2393 42.1934 20.2393 41.373V41.3096ZM21.1475 41.417C21.1475 42.0029 21.2826 42.4733 21.5527 42.8281C21.8262 43.1829 22.1908 43.3604 22.6465 43.3604C23.1055 43.3604 23.4701 43.1813 23.7402 42.8232C24.0104 42.4619 24.1455 41.9574 24.1455 41.3096C24.1455 40.7301 24.0072 40.2614 23.7305 39.9033C23.457 39.542 23.0924 39.3613 22.6367 39.3613C22.1908 39.3613 21.8311 39.5387 21.5576 39.8936C21.2842 40.2484 21.1475 40.7562 21.1475 41.417ZM25.6619 41.3145C25.6619 40.5039 25.854 39.8529 26.2381 39.3613C26.6222 38.8665 27.1251 38.6191 27.7469 38.6191C28.3654 38.6191 28.8553 38.8307 29.2166 39.2539V36.5H30.1199V44H29.2898L29.2459 43.4336C28.8846 43.8763 28.3816 44.0977 27.7371 44.0977C27.1251 44.0977 26.6255 43.847 26.2381 43.3457C25.854 42.8444 25.6619 42.1901 25.6619 41.3828V41.3145ZM26.5652 41.417C26.5652 42.016 26.6889 42.4847 26.9363 42.8232C27.1837 43.1618 27.5255 43.3311 27.9617 43.3311C28.5346 43.3311 28.9529 43.0739 29.2166 42.5596V40.1328C28.9464 39.6348 28.5314 39.3857 27.9715 39.3857C27.5288 39.3857 27.1837 39.5566 26.9363 39.8984C26.6889 40.2402 26.5652 40.7464 26.5652 41.417ZM30.9869 41.3096C30.9869 40.792 31.0878 40.3265 31.2896 39.9131C31.4947 39.4997 31.7779 39.1807 32.1393 38.9561C32.5038 38.7314 32.9189 38.6191 33.3844 38.6191C34.1038 38.6191 34.6848 38.8682 35.1275 39.3662C35.5735 39.8643 35.7965 40.5267 35.7965 41.3535V41.417C35.7965 41.9313 35.6972 42.3936 35.4986 42.8037C35.3033 43.2106 35.0217 43.528 34.6539 43.7559C34.2893 43.9837 33.8694 44.0977 33.3941 44.0977C32.678 44.0977 32.0969 43.8486 31.651 43.3506C31.2083 42.8525 30.9869 42.1934 30.9869 41.373V41.3096ZM31.8951 41.417C31.8951 42.0029 32.0302 42.4733 32.3004 42.8281C32.5738 43.1829 32.9384 43.3604 33.3941 43.3604C33.8531 43.3604 34.2177 43.1813 34.4879 42.8232C34.7581 42.4619 34.8932 41.9574 34.8932 41.3096C34.8932 40.7301 34.7548 40.2614 34.4781 39.9033C34.2047 39.542 33.8401 39.3613 33.3844 39.3613C32.9384 39.3613 32.5787 39.5387 32.3053 39.8936C32.0318 40.2484 31.8951 40.7562 31.8951 41.417ZM39.183 39.5273C39.0463 39.5046 38.8982 39.4932 38.7387 39.4932C38.1462 39.4932 37.7442 39.7454 37.5326 40.25V44H36.6293V38.7168H37.5082L37.5229 39.3271C37.8191 38.8551 38.239 38.6191 38.7826 38.6191C38.9584 38.6191 39.0919 38.6419 39.183 38.6875V39.5273ZM42.7844 44C42.7323 43.8958 42.69 43.7103 42.6574 43.4434C42.2375 43.8796 41.7362 44.0977 41.1535 44.0977C40.6327 44.0977 40.2046 43.9512 39.8693 43.6582C39.5373 43.362 39.3713 42.9876 39.3713 42.5352C39.3713 41.985 39.5796 41.5586 39.9963 41.2559C40.4162 40.9499 41.0054 40.7969 41.7639 40.7969H42.6428V40.3818C42.6428 40.0661 42.5484 39.8154 42.3596 39.6299C42.1708 39.4411 41.8925 39.3467 41.5246 39.3467C41.2023 39.3467 40.9322 39.4281 40.7141 39.5908C40.496 39.7536 40.3869 39.9505 40.3869 40.1816H39.4787C39.4787 39.918 39.5715 39.6641 39.757 39.4199C39.9458 39.1725 40.1997 38.9772 40.5188 38.834C40.841 38.6908 41.1942 38.6191 41.5783 38.6191C42.187 38.6191 42.6639 38.7721 43.009 39.0781C43.354 39.3809 43.5331 39.7992 43.5461 40.333V42.7646C43.5461 43.2497 43.6079 43.6354 43.7316 43.9219V44H42.7844ZM41.2854 43.3115C41.5686 43.3115 41.8371 43.2383 42.091 43.0918C42.3449 42.9453 42.5288 42.7549 42.6428 42.5205V41.4365H41.9348C40.828 41.4365 40.2746 41.7604 40.2746 42.4082C40.2746 42.6914 40.369 42.9128 40.5578 43.0723C40.7466 43.2318 40.9891 43.3115 41.2854 43.3115ZM45.5166 38.7168L45.5459 39.3809C45.9495 38.873 46.4769 38.6191 47.1279 38.6191C48.2445 38.6191 48.8076 39.249 48.8174 40.5088V44H47.9141V40.5039C47.9108 40.123 47.8229 39.8415 47.6504 39.6592C47.4811 39.4769 47.2158 39.3857 46.8545 39.3857C46.5615 39.3857 46.3044 39.4639 46.083 39.6201C45.8617 39.7764 45.6891 39.9814 45.5654 40.2354V44H44.6621V38.7168H45.5166ZM51.1053 37.4375V38.7168H52.0916V39.415H51.1053V42.6914C51.1053 42.903 51.1492 43.0625 51.2371 43.1699C51.325 43.2741 51.4747 43.3262 51.6863 43.3262C51.7905 43.3262 51.9337 43.3066 52.116 43.2676V44C51.8784 44.0651 51.6473 44.0977 51.4227 44.0977C51.019 44.0977 50.7146 43.9756 50.5096 43.7314C50.3045 43.4873 50.202 43.1406 50.202 42.6914V39.415H49.24V38.7168H50.202V37.4375H51.1053ZM55.0436 44.0977C54.3274 44.0977 53.7447 43.8633 53.2955 43.3945C52.8463 42.9225 52.6217 42.2926 52.6217 41.5049V41.3389C52.6217 40.8148 52.721 40.3477 52.9195 39.9375C53.1214 39.5241 53.4013 39.2018 53.7594 38.9707C54.1207 38.7363 54.5113 38.6191 54.9313 38.6191C55.6181 38.6191 56.152 38.8454 56.5328 39.2979C56.9137 39.7503 57.1041 40.3981 57.1041 41.2412V41.6172H53.525C53.538 42.138 53.6894 42.5596 53.9791 42.8818C54.2721 43.2008 54.6432 43.3604 55.0924 43.3604C55.4114 43.3604 55.6816 43.2952 55.9029 43.165C56.1243 43.0348 56.318 42.8623 56.484 42.6475L57.0357 43.0771C56.593 43.7575 55.929 44.0977 55.0436 44.0977ZM54.9313 39.3613C54.5667 39.3613 54.2607 39.4948 54.0133 39.7617C53.7659 40.0254 53.6129 40.3965 53.5543 40.875H56.2008V40.8066C56.1747 40.3477 56.051 39.9928 55.8297 39.7422C55.6083 39.4883 55.3089 39.3613 54.9313 39.3613ZM60.9301 42.5986C60.9301 42.3545 60.8373 42.1657 60.6518 42.0322C60.4695 41.8955 60.1488 41.7783 59.6898 41.6807C59.2341 41.583 58.8712 41.4658 58.601 41.3291C58.334 41.1924 58.1355 41.0296 58.0053 40.8408C57.8783 40.652 57.8148 40.4274 57.8148 40.167C57.8148 39.734 57.9971 39.3678 58.3617 39.0684C58.7296 38.7689 59.1983 38.6191 59.768 38.6191C60.3669 38.6191 60.852 38.7738 61.223 39.083C61.5974 39.3923 61.7846 39.7878 61.7846 40.2695H60.8764C60.8764 40.0221 60.7706 39.8089 60.559 39.6299C60.3506 39.4508 60.087 39.3613 59.768 39.3613C59.4392 39.3613 59.182 39.4329 58.9965 39.5762C58.8109 39.7194 58.7182 39.9066 58.7182 40.1377C58.7182 40.3558 58.8044 40.5202 58.977 40.6309C59.1495 40.7415 59.4604 40.8473 59.9096 40.9482C60.362 41.0492 60.7283 41.1696 61.0082 41.3096C61.2881 41.4495 61.4949 41.6188 61.6283 41.8174C61.765 42.0127 61.8334 42.252 61.8334 42.5352C61.8334 43.0072 61.6446 43.3864 61.267 43.6729C60.8894 43.9561 60.3995 44.0977 59.7973 44.0977C59.3741 44.0977 58.9997 44.0228 58.6742 43.873C58.3487 43.7233 58.0932 43.515 57.9076 43.248C57.7253 42.9779 57.6342 42.6865 57.6342 42.374H58.5375C58.5538 42.6768 58.6742 42.9176 58.8988 43.0967C59.1267 43.2725 59.4262 43.3604 59.7973 43.3604C60.1391 43.3604 60.4125 43.292 60.6176 43.1553C60.8259 43.0153 60.9301 42.8298 60.9301 42.5986Z" fill="#666666"/>
<defs>
<filter id="filter0_d_7838:59935" x="0" y="0" width="66" height="34" filterUnits="userSpaceOnUse" color-interpolation-filters="sRGB">
<feFlood flood-opacity="0" result="BackgroundImageFix"/>
<feColorMatrix in="SourceAlpha" type="matrix" values="0 0 0 0 0 0 0 0 0 0 0 0 0 0 0 0 0 0 127 0" result="hardAlpha"/>
<feOffset dy="1"/>
<feGaussianBlur stdDeviation="1"/>
<feColorMatrix type="matrix" values="0 0 0 0 0 0 0 0 0 0 0 0 0 0 0 0 0 0 0.2 0"/>
<feBlend mode="normal" in2="BackgroundImageFix" result="effect1_dropShadow_7838:59935"/>
<feBlend mode="normal" in="SourceGraphic" in2="effect1_dropShadow_7838:59935" result="shape"/>
</filter>
</defs>
</svg>
