<svg width="70" height="65" viewBox="0 0 70 65" fill="none" xmlns="http://www.w3.org/2000/svg">
<g filter="url(#filter0_d_7838:60143)">
<rect x="2" y="1" width="66" height="34" rx="8" fill="#E7F3F9"/>
<path d="M32.7499 18.5625V23.625L31.4681 22.9875C30.6283 22.5666 29.6062 22.8479 29.1 23.6392C28.5937 24.4306 28.7667 25.4764 29.5009 26.0625L29.9711 26.4375" stroke="#007DC5" stroke-linecap="round" stroke-linejoin="round"/>
<path d="M41.1877 26.4375V24.8123C41.1877 23.1691 39.9997 21.7667 38.3789 21.4965L36.1289 21.1215V18.5625" stroke="#007DC5" stroke-linecap="round" stroke-linejoin="round"/>
<path d="M37.9197 11.6602C37.0739 10.0605 35.2468 9.24314 33.4904 9.67863C31.7341 10.1141 30.5005 11.6904 30.5 13.5V17.4375C30.5 18.0588 31.0037 18.5625 31.625 18.5625H37.25C37.8713 18.5625 38.375 18.0588 38.375 17.4375V16.0455" stroke="#007DC5" stroke-linecap="round" stroke-linejoin="round"/>
<path d="M30.5 14.6269H32.0135C32.1201 14.6269 32.2176 14.5669 32.2655 14.4716L33.0778 12.8471C33.124 12.7543 33.2177 12.6945 33.3214 12.6915C33.425 12.6885 33.522 12.7429 33.5735 12.8329L35.2985 15.8584C35.35 15.9484 35.447 16.0027 35.5506 15.9998C35.6543 15.9968 35.748 15.937 35.7943 15.8441L36.6065 14.2196C36.6544 14.1244 36.7519 14.0644 36.8585 14.0644H38.375" stroke="#007DC5" stroke-linecap="round" stroke-linejoin="round"/>
</g>
<path d="M17.3342 48V40.8906H19.341C19.9595 40.8906 20.5064 41.0273 20.9816 41.3008C21.4569 41.5742 21.8231 41.9632 22.0803 42.4678C22.3407 42.9723 22.4725 43.5518 22.4758 44.2061V44.6602C22.4758 45.3307 22.3456 45.9183 22.0852 46.4229C21.828 46.9274 21.4585 47.3148 20.9768 47.585C20.4982 47.8551 19.94 47.9935 19.302 48H17.3342ZM18.2717 41.6621V47.2334H19.258C19.9807 47.2334 20.5422 47.0088 20.9426 46.5596C21.3462 46.1104 21.548 45.4707 21.548 44.6406V44.2256C21.548 43.4183 21.3576 42.7917 20.9768 42.3457C20.5992 41.8965 20.062 41.6686 19.3654 41.6621H18.2717ZM24.4365 48H23.5332V42.7168H24.4365V48ZM23.46 41.3154C23.46 41.1689 23.5039 41.0452 23.5918 40.9443C23.6829 40.8434 23.8164 40.793 23.9922 40.793C24.168 40.793 24.3014 40.8434 24.3926 40.9443C24.4837 41.0452 24.5293 41.1689 24.5293 41.3154C24.5293 41.4619 24.4837 41.584 24.3926 41.6816C24.3014 41.7793 24.168 41.8281 23.9922 41.8281C23.8164 41.8281 23.6829 41.7793 23.5918 41.6816C23.5039 41.584 23.46 41.4619 23.46 41.3154ZM28.8484 48C28.7964 47.8958 28.754 47.7103 28.7215 47.4434C28.3016 47.8796 27.8003 48.0977 27.2176 48.0977C26.6967 48.0977 26.2687 47.9512 25.9334 47.6582C25.6014 47.362 25.4354 46.9876 25.4354 46.5352C25.4354 45.985 25.6437 45.5586 26.0604 45.2559C26.4803 44.9499 27.0695 44.7969 27.8279 44.7969H28.7068V44.3818C28.7068 44.0661 28.6124 43.8154 28.4236 43.6299C28.2348 43.4411 27.9565 43.3467 27.5887 43.3467C27.2664 43.3467 26.9962 43.4281 26.7781 43.5908C26.56 43.7536 26.451 43.9505 26.451 44.1816H25.5428C25.5428 43.918 25.6355 43.6641 25.8211 43.4199C26.0099 43.1725 26.2638 42.9772 26.5828 42.834C26.9051 42.6908 27.2583 42.6191 27.6424 42.6191C28.2511 42.6191 28.728 42.7721 29.073 43.0781C29.4181 43.3809 29.5971 43.7992 29.6102 44.333V46.7646C29.6102 47.2497 29.672 47.6354 29.7957 47.9219V48H28.8484ZM27.3494 47.3115C27.6326 47.3115 27.9012 47.2383 28.1551 47.0918C28.409 46.9453 28.5929 46.7549 28.7068 46.5205V45.4365H27.9988C26.8921 45.4365 26.3387 45.7604 26.3387 46.4082C26.3387 46.6914 26.4331 46.9128 26.6219 47.0723C26.8107 47.2318 27.0532 47.3115 27.3494 47.3115ZM35.1988 45.417C35.1988 46.2243 35.0133 46.8737 34.6422 47.3652C34.2711 47.8535 33.773 48.0977 33.148 48.0977C32.4807 48.0977 31.9648 47.8617 31.6002 47.3896L31.5562 48H30.7262V40.5H31.6295V43.2979C31.9941 42.8454 32.497 42.6191 33.1383 42.6191C33.7796 42.6191 34.2825 42.8617 34.6471 43.3467C35.0149 43.8317 35.1988 44.4958 35.1988 45.3389V45.417ZM34.2955 45.3145C34.2955 44.6992 34.1767 44.224 33.9391 43.8887C33.7014 43.5534 33.3596 43.3857 32.9137 43.3857C32.318 43.3857 31.8899 43.6624 31.6295 44.2158V46.501C31.9062 47.0544 32.3375 47.3311 32.9234 47.3311C33.3564 47.3311 33.6933 47.1634 33.9342 46.8281C34.1751 46.4928 34.2955 45.9883 34.2955 45.3145ZM38.2338 48.0977C37.5176 48.0977 36.935 47.8633 36.4857 47.3945C36.0365 46.9225 35.8119 46.2926 35.8119 45.5049V45.3389C35.8119 44.8148 35.9112 44.3477 36.1098 43.9375C36.3116 43.5241 36.5915 43.2018 36.9496 42.9707C37.3109 42.7363 37.7016 42.6191 38.1215 42.6191C38.8083 42.6191 39.3422 42.8454 39.723 43.2979C40.1039 43.7503 40.2943 44.3981 40.2943 45.2412V45.6172H36.7152C36.7283 46.138 36.8796 46.5596 37.1693 46.8818C37.4623 47.2008 37.8334 47.3604 38.2826 47.3604C38.6016 47.3604 38.8718 47.2952 39.0932 47.165C39.3145 47.0348 39.5082 46.8623 39.6742 46.6475L40.226 47.0771C39.7833 47.7575 39.1192 48.0977 38.2338 48.0977ZM38.1215 43.3613C37.7569 43.3613 37.4509 43.4948 37.2035 43.7617C36.9561 44.0254 36.8031 44.3965 36.7445 44.875H39.391V44.8066C39.365 44.3477 39.2413 43.9928 39.0199 43.7422C38.7986 43.4883 38.4991 43.3613 38.1215 43.3613ZM42.2697 41.4375V42.7168H43.2561V43.415H42.2697V46.6914C42.2697 46.903 42.3137 47.0625 42.4016 47.1699C42.4895 47.2741 42.6392 47.3262 42.8508 47.3262C42.9549 47.3262 43.0982 47.3066 43.2805 47.2676V48C43.0428 48.0651 42.8117 48.0977 42.5871 48.0977C42.1835 48.0977 41.8791 47.9756 41.674 47.7314C41.4689 47.4873 41.3664 47.1406 41.3664 46.6914V43.415H40.4045V42.7168H41.3664V41.4375H42.2697ZM46.208 48.0977C45.4919 48.0977 44.9092 47.8633 44.46 47.3945C44.0107 46.9225 43.7861 46.2926 43.7861 45.5049V45.3389C43.7861 44.8148 43.8854 44.3477 44.084 43.9375C44.2858 43.5241 44.5658 43.2018 44.9238 42.9707C45.2852 42.7363 45.6758 42.6191 46.0957 42.6191C46.7826 42.6191 47.3164 42.8454 47.6973 43.2979C48.0781 43.7503 48.2686 44.3981 48.2686 45.2412V45.6172H44.6895C44.7025 46.138 44.8538 46.5596 45.1436 46.8818C45.4365 47.2008 45.8076 47.3604 46.2568 47.3604C46.5758 47.3604 46.846 47.2952 47.0674 47.165C47.2887 47.0348 47.4824 46.8623 47.6484 46.6475L48.2002 47.0771C47.7575 47.7575 47.0934 48.0977 46.208 48.0977ZM46.0957 43.3613C45.7311 43.3613 45.4251 43.4948 45.1777 43.7617C44.9303 44.0254 44.7773 44.3965 44.7188 44.875H47.3652V44.8066C47.3392 44.3477 47.2155 43.9928 46.9941 43.7422C46.7728 43.4883 46.4733 43.3613 46.0957 43.3613ZM52.0945 46.5986C52.0945 46.3545 52.0018 46.1657 51.8162 46.0322C51.6339 45.8955 51.3133 45.7783 50.8543 45.6807C50.3986 45.583 50.0356 45.4658 49.7654 45.3291C49.4985 45.1924 49.2999 45.0296 49.1697 44.8408C49.0428 44.652 48.9793 44.4274 48.9793 44.167C48.9793 43.734 49.1616 43.3678 49.5262 43.0684C49.894 42.7689 50.3628 42.6191 50.9324 42.6191C51.5314 42.6191 52.0164 42.7738 52.3875 43.083C52.7618 43.3923 52.949 43.7878 52.949 44.2695H52.0408C52.0408 44.0221 51.935 43.8089 51.7234 43.6299C51.5151 43.4508 51.2514 43.3613 50.9324 43.3613C50.6036 43.3613 50.3465 43.4329 50.1609 43.5762C49.9754 43.7194 49.8826 43.9066 49.8826 44.1377C49.8826 44.3558 49.9689 44.5202 50.1414 44.6309C50.3139 44.7415 50.6248 44.8473 51.074 44.9482C51.5265 45.0492 51.8927 45.1696 52.1727 45.3096C52.4526 45.4495 52.6593 45.6188 52.7928 45.8174C52.9295 46.0127 52.9978 46.252 52.9978 46.5352C52.9978 47.0072 52.809 47.3864 52.4314 47.6729C52.0538 47.9561 51.5639 48.0977 50.9617 48.0977C50.5385 48.0977 50.1642 48.0228 49.8387 47.873C49.5131 47.7233 49.2576 47.515 49.0721 47.248C48.8898 46.9779 48.7986 46.6865 48.7986 46.374H49.702C49.7182 46.6768 49.8387 46.9176 50.0633 47.0967C50.2911 47.2725 50.5906 47.3604 50.9617 47.3604C51.3035 47.3604 51.577 47.292 51.782 47.1553C51.9904 47.0153 52.0945 46.8298 52.0945 46.5986Z" fill="#666666"/>
<defs>
<filter id="filter0_d_7838:60143" x="0" y="0" width="70" height="38" filterUnits="userSpaceOnUse" color-interpolation-filters="sRGB">
<feFlood flood-opacity="0" result="BackgroundImageFix"/>
<feColorMatrix in="SourceAlpha" type="matrix" values="0 0 0 0 0 0 0 0 0 0 0 0 0 0 0 0 0 0 127 0" result="hardAlpha"/>
<feOffset dy="1"/>
<feGaussianBlur stdDeviation="1"/>
<feColorMatrix type="matrix" values="0 0 0 0 0 0 0 0 0 0 0 0 0 0 0 0 0 0 0.2 0"/>
<feBlend mode="normal" in2="BackgroundImageFix" result="effect1_dropShadow_7838:60143"/>
<feBlend mode="normal" in="SourceGraphic" in2="effect1_dropShadow_7838:60143" result="shape"/>
</filter>
</defs>
</svg>
