<svg width="70" height="65" viewBox="0 0 70 65" fill="none" xmlns="http://www.w3.org/2000/svg">
<g filter="url(#filter0_d_7838:60000)">
<rect x="2" y="1" width="66" height="34" rx="8" fill="#E7F3F9"/>
<path fill-rule="evenodd" clip-rule="evenodd" d="M37.25 15.1875V11.8125H32.75V15.1875V15.1875C30.7347 15.8595 29.3753 17.7454 29.375 19.8698V25.3125C29.375 25.9338 29.8787 26.4375 30.5 26.4375H39.5C40.1213 26.4375 40.625 25.9338 40.625 25.3125V19.8698C40.6247 17.7454 39.2653 15.8595 37.25 15.1875Z" stroke="#007DC5" stroke-linecap="round" stroke-linejoin="round"/>
<path fill-rule="evenodd" clip-rule="evenodd" d="M38.375 10.6875C38.375 11.3088 37.8713 11.8125 37.25 11.8125H32.75C32.1287 11.8125 31.625 11.3088 31.625 10.6875C31.625 10.0662 32.1287 9.5625 32.75 9.5625H37.25C37.8713 9.5625 38.375 10.0662 38.375 10.6875Z" stroke="#007DC5" stroke-linecap="round" stroke-linejoin="round"/>
<path fill-rule="evenodd" clip-rule="evenodd" d="M37.9475 19.1998C37.6786 18.9175 37.3057 18.7578 36.9159 18.7578C36.526 18.7578 36.1532 18.9175 35.8843 19.1998L35 20.1103L34.1158 19.1998C33.8468 18.9175 33.474 18.7578 33.0841 18.7578C32.6943 18.7578 32.3214 18.9175 32.0525 19.1998C31.4825 19.7968 31.4825 20.7365 32.0525 21.3335L34.6858 24.0568C34.7677 24.1427 34.8813 24.1913 35 24.1913C35.1187 24.1913 35.2323 24.1427 35.3143 24.0568L37.9475 21.3298C38.5151 20.7332 38.5151 19.7963 37.9475 19.1998Z" stroke="#007DC5" stroke-linecap="round" stroke-linejoin="round"/>
</g>
<path d="M27.491 48V40.8906H29.4979C30.1163 40.8906 30.6632 41.0273 31.1385 41.3008C31.6137 41.5742 31.9799 41.9632 32.2371 42.4678C32.4975 42.9723 32.6294 43.5518 32.6326 44.2061V44.6602C32.6326 45.3307 32.5024 45.9183 32.242 46.4229C31.9848 46.9274 31.6154 47.3148 31.1336 47.585C30.6551 47.8551 30.0968 47.9935 29.4588 48H27.491ZM28.4285 41.6621V47.2334H29.4148C30.1375 47.2334 30.699 47.0088 31.0994 46.5596C31.5031 46.1104 31.7049 45.4707 31.7049 44.6406V44.2256C31.7049 43.4183 31.5145 42.7917 31.1336 42.3457C30.756 41.8965 30.2189 41.6686 29.5223 41.6621H28.4285ZM34.5934 48H33.69V42.7168H34.5934V48ZM33.6168 41.3154C33.6168 41.1689 33.6607 41.0452 33.7486 40.9443C33.8398 40.8434 33.9732 40.793 34.149 40.793C34.3248 40.793 34.4583 40.8434 34.5494 40.9443C34.6406 41.0452 34.6861 41.1689 34.6861 41.3154C34.6861 41.4619 34.6406 41.584 34.5494 41.6816C34.4583 41.7793 34.3248 41.8281 34.149 41.8281C33.9732 41.8281 33.8398 41.7793 33.7486 41.6816C33.6607 41.584 33.6168 41.4619 33.6168 41.3154ZM37.9359 48.0977C37.2198 48.0977 36.6371 47.8633 36.1879 47.3945C35.7387 46.9225 35.5141 46.2926 35.5141 45.5049V45.3389C35.5141 44.8148 35.6133 44.3477 35.8119 43.9375C36.0137 43.5241 36.2937 43.2018 36.6518 42.9707C37.0131 42.7363 37.4037 42.6191 37.8236 42.6191C38.5105 42.6191 39.0443 42.8454 39.4252 43.2979C39.8061 43.7503 39.9965 44.3981 39.9965 45.2412V45.6172H36.4174C36.4304 46.138 36.5818 46.5596 36.8715 46.8818C37.1645 47.2008 37.5355 47.3604 37.9848 47.3604C38.3038 47.3604 38.574 47.2952 38.7953 47.165C39.0167 47.0348 39.2104 46.8623 39.3764 46.6475L39.9281 47.0771C39.4854 47.7575 38.8214 48.0977 37.9359 48.0977ZM37.8236 43.3613C37.459 43.3613 37.1531 43.4948 36.9057 43.7617C36.6583 44.0254 36.5053 44.3965 36.4467 44.875H39.0932V44.8066C39.0671 44.3477 38.9434 43.9928 38.7221 43.7422C38.5007 43.4883 38.2012 43.3613 37.8236 43.3613ZM41.9719 41.4375V42.7168H42.9582V43.415H41.9719V46.6914C41.9719 46.903 42.0158 47.0625 42.1037 47.1699C42.1916 47.2741 42.3413 47.3262 42.5529 47.3262C42.6571 47.3262 42.8003 47.3066 42.9826 47.2676V48C42.745 48.0651 42.5139 48.0977 42.2893 48.0977C41.8856 48.0977 41.5813 47.9756 41.3762 47.7314C41.1711 47.4873 41.0686 47.1406 41.0686 46.6914V43.415H40.1066V42.7168H41.0686V41.4375H41.9719Z" fill="#666666"/>
<defs>
<filter id="filter0_d_7838:60000" x="0" y="0" width="70" height="38" filterUnits="userSpaceOnUse" color-interpolation-filters="sRGB">
<feFlood flood-opacity="0" result="BackgroundImageFix"/>
<feColorMatrix in="SourceAlpha" type="matrix" values="0 0 0 0 0 0 0 0 0 0 0 0 0 0 0 0 0 0 127 0" result="hardAlpha"/>
<feOffset dy="1"/>
<feGaussianBlur stdDeviation="1"/>
<feColorMatrix type="matrix" values="0 0 0 0 0 0 0 0 0 0 0 0 0 0 0 0 0 0 0.2 0"/>
<feBlend mode="normal" in2="BackgroundImageFix" result="effect1_dropShadow_7838:60000"/>
<feBlend mode="normal" in="SourceGraphic" in2="effect1_dropShadow_7838:60000" result="shape"/>
</filter>
</defs>
</svg>
