<svg width="70" height="65" viewBox="0 0 70 65" fill="none" xmlns="http://www.w3.org/2000/svg">
<g filter="url(#filter0_d_7838:60095)">
<rect x="2" y="1" width="66" height="34" rx="8" fill="#E7F3F9"/>
<path d="M42.484 17.1201L41.7522 17.9514V17.3891C41.7628 16.2714 41.3275 15.2197 40.529 14.4301C39.0548 12.9722 36.7453 12.8386 35.1132 14.0205C34.262 13.3801 33.2038 13 32.056 13C29.2674 13 27 15.2423 27 18C27 20.7577 29.2674 23 32.056 23C34.8447 23 37.1121 20.7577 37.1121 18C37.1121 16.6324 36.554 15.3933 35.652 14.4891C37.0015 13.6022 38.8442 13.7463 40.0324 14.9212C40.6975 15.579 41.059 16.4537 41.0502 17.3874V18.1388L40.0025 17.1617L39.5357 17.639L41.3977 19.3867L43 17.5488L42.484 17.1201ZM32.056 22.3058C29.6553 22.3058 27.702 20.3742 27.702 18C27.702 15.6258 29.6553 13.6942 32.056 13.6942C34.4568 13.6942 36.4101 15.6258 36.4101 18C36.4101 20.3742 34.4568 22.3058 32.056 22.3058Z" fill="#007DC5" stroke="#007DC5" stroke-width="0.5"/>
</g>
<path d="M10.8066 48V40.8906H12.8135C13.432 40.8906 13.9788 41.0273 14.4541 41.3008C14.9294 41.5742 15.2956 41.9632 15.5527 42.4678C15.8132 42.9723 15.945 43.5518 15.9482 44.2061V44.6602C15.9482 45.3307 15.818 45.9183 15.5576 46.4229C15.3005 46.9274 14.931 47.3148 14.4492 47.585C13.9707 47.8551 13.4124 47.9935 12.7744 48H10.8066ZM11.7441 41.6621V47.2334H12.7305C13.4531 47.2334 14.0146 47.0088 14.415 46.5596C14.8187 46.1104 15.0205 45.4707 15.0205 44.6406V44.2256C15.0205 43.4183 14.8301 42.7917 14.4492 42.3457C14.0716 41.8965 13.5345 41.6686 12.8379 41.6621H11.7441ZM17.909 48H17.0057V42.7168H17.909V48ZM16.9324 41.3154C16.9324 41.1689 16.9764 41.0452 17.0643 40.9443C17.1554 40.8434 17.2889 40.793 17.4646 40.793C17.6404 40.793 17.7739 40.8434 17.865 40.9443C17.9562 41.0452 18.0018 41.1689 18.0018 41.3154C18.0018 41.4619 17.9562 41.584 17.865 41.6816C17.7739 41.7793 17.6404 41.8281 17.4646 41.8281C17.2889 41.8281 17.1554 41.7793 17.0643 41.6816C16.9764 41.584 16.9324 41.4619 16.9324 41.3154ZM19.9137 42.7168L19.943 43.3809C20.3466 42.873 20.874 42.6191 21.525 42.6191C22.6415 42.6191 23.2047 43.249 23.2145 44.5088V48H22.3111V44.5039C22.3079 44.123 22.22 43.8415 22.0475 43.6592C21.8782 43.4769 21.6129 43.3857 21.2516 43.3857C20.9586 43.3857 20.7014 43.4639 20.4801 43.6201C20.2587 43.7764 20.0862 43.9814 19.9625 44.2354V48H19.0592V42.7168H19.9137ZM27.3529 46.5986C27.3529 46.3545 27.2602 46.1657 27.0746 46.0322C26.8923 45.8955 26.5717 45.7783 26.1127 45.6807C25.657 45.583 25.294 45.4658 25.0238 45.3291C24.7569 45.1924 24.5583 45.0296 24.4281 44.8408C24.3012 44.652 24.2377 44.4274 24.2377 44.167C24.2377 43.734 24.42 43.3678 24.7846 43.0684C25.1524 42.7689 25.6212 42.6191 26.1908 42.6191C26.7898 42.6191 27.2748 42.7738 27.6459 43.083C28.0202 43.3923 28.2074 43.7878 28.2074 44.2695H27.2992C27.2992 44.0221 27.1934 43.8089 26.9818 43.6299C26.7735 43.4508 26.5098 43.3613 26.1908 43.3613C25.862 43.3613 25.6049 43.4329 25.4193 43.5762C25.2338 43.7194 25.141 43.9066 25.141 44.1377C25.141 44.3558 25.2273 44.5202 25.3998 44.6309C25.5723 44.7415 25.8832 44.8473 26.3324 44.9482C26.7849 45.0492 27.1511 45.1696 27.4311 45.3096C27.711 45.4495 27.9177 45.6188 28.0512 45.8174C28.1879 46.0127 28.2563 46.252 28.2563 46.5352C28.2563 47.0072 28.0674 47.3864 27.6898 47.6729C27.3122 47.9561 26.8223 48.0977 26.2201 48.0977C25.7969 48.0977 25.4226 48.0228 25.0971 47.873C24.7715 47.7233 24.516 47.515 24.3305 47.248C24.1482 46.9779 24.057 46.6865 24.057 46.374H24.9604C24.9766 46.6768 25.0971 46.9176 25.3217 47.0967C25.5495 47.2725 25.849 47.3604 26.2201 47.3604C26.5619 47.3604 26.8354 47.292 27.0404 47.1553C27.2488 47.0153 27.3529 46.8298 27.3529 46.5986ZM29.5773 48V43.415H28.7424V42.7168H29.5773V42.1748C29.5773 41.6084 29.7287 41.1706 30.0314 40.8613C30.3342 40.5521 30.7622 40.3975 31.3156 40.3975C31.524 40.3975 31.7307 40.4251 31.9357 40.4805L31.8869 41.2129C31.7339 41.1836 31.5712 41.1689 31.3986 41.1689C31.1057 41.1689 30.8794 41.2552 30.7199 41.4277C30.5604 41.597 30.4807 41.8411 30.4807 42.1602V42.7168H31.6086V43.415H30.4807V48H29.5773ZM35.5713 47.4775C35.2197 47.891 34.7038 48.0977 34.0234 48.0977C33.4603 48.0977 33.0306 47.9349 32.7344 47.6094C32.4414 47.2806 32.2933 46.7956 32.29 46.1543V42.7168H33.1934V46.1299C33.1934 46.9307 33.5189 47.3311 34.1699 47.3311C34.86 47.3311 35.319 47.0739 35.5469 46.5596V42.7168H36.4502V48H35.5908L35.5713 47.4775ZM38.3816 42.7168L38.4109 43.3809C38.8146 42.873 39.3419 42.6191 39.993 42.6191C41.1095 42.6191 41.6727 43.249 41.6824 44.5088V48H40.7791V44.5039C40.7758 44.123 40.688 43.8415 40.5154 43.6592C40.3462 43.4769 40.0809 43.3857 39.7195 43.3857C39.4266 43.3857 39.1694 43.4639 38.948 43.6201C38.7267 43.7764 38.5542 43.9814 38.4305 44.2354V48H37.5271V42.7168H38.3816ZM44.8639 47.3604C45.1861 47.3604 45.4677 47.2627 45.7086 47.0674C45.9495 46.8721 46.0829 46.6279 46.109 46.335H46.9635C46.9472 46.6377 46.843 46.9258 46.651 47.1992C46.4589 47.4727 46.2018 47.6908 45.8795 47.8535C45.5605 48.0163 45.2219 48.0977 44.8639 48.0977C44.1445 48.0977 43.5716 47.8584 43.1451 47.3799C42.7219 46.8981 42.5104 46.2406 42.5104 45.4072V45.2559C42.5104 44.7415 42.6048 44.2842 42.7936 43.8838C42.9824 43.4834 43.2525 43.1725 43.6041 42.9512C43.9589 42.7298 44.3772 42.6191 44.859 42.6191C45.4514 42.6191 45.943 42.7965 46.3336 43.1514C46.7275 43.5062 46.9374 43.9668 46.9635 44.5332H46.109C46.0829 44.1914 45.9527 43.9115 45.7184 43.6934C45.4872 43.472 45.2008 43.3613 44.859 43.3613C44.4 43.3613 44.0436 43.5273 43.7896 43.8594C43.539 44.1882 43.4137 44.665 43.4137 45.29V45.4609C43.4137 46.0697 43.539 46.5384 43.7896 46.8672C44.0403 47.196 44.3984 47.3604 44.8639 47.3604ZM45.0104 48.0439L44.9518 48.2979C45.4498 48.3857 45.6988 48.6673 45.6988 49.1426C45.6988 49.4583 45.5686 49.7074 45.3082 49.8896C45.0478 50.0752 44.6848 50.168 44.2193 50.168L44.1852 49.6455C44.4423 49.6455 44.6409 49.6032 44.7809 49.5186C44.9241 49.4339 44.9957 49.3151 44.9957 49.1621C44.9957 49.0189 44.9436 48.9131 44.8395 48.8447C44.7353 48.7764 44.5237 48.7275 44.2047 48.6982L44.3609 48.0439H45.0104ZM50.9408 48C50.8887 47.8958 50.8464 47.7103 50.8139 47.4434C50.3939 47.8796 49.8926 48.0977 49.31 48.0977C48.7891 48.0977 48.3611 47.9512 48.0258 47.6582C47.6937 47.362 47.5277 46.9876 47.5277 46.5352C47.5277 45.985 47.7361 45.5586 48.1527 45.2559C48.5727 44.9499 49.1618 44.7969 49.9203 44.7969H50.7992V44.3818C50.7992 44.0661 50.7048 43.8154 50.516 43.6299C50.3272 43.4411 50.0489 43.3467 49.6811 43.3467C49.3588 43.3467 49.0886 43.4281 48.8705 43.5908C48.6524 43.7536 48.5434 43.9505 48.5434 44.1816H47.6352C47.6352 43.918 47.7279 43.6641 47.9135 43.4199C48.1023 43.1725 48.3562 42.9772 48.6752 42.834C48.9975 42.6908 49.3506 42.6191 49.7348 42.6191C50.3435 42.6191 50.8204 42.7721 51.1654 43.0781C51.5105 43.3809 51.6895 43.7992 51.7025 44.333V46.7646C51.7025 47.2497 51.7644 47.6354 51.8881 47.9219V48H50.9408ZM49.4418 47.3115C49.725 47.3115 49.9936 47.2383 50.2475 47.0918C50.5014 46.9453 50.6853 46.7549 50.7992 46.5205V45.4365H50.0912C48.9844 45.4365 48.4311 45.7604 48.4311 46.4082C48.4311 46.6914 48.5255 46.9128 48.7143 47.0723C48.9031 47.2318 49.1456 47.3115 49.4418 47.3115ZM51.5658 40.6562C51.5658 41.0078 51.4649 41.2926 51.2631 41.5107C51.0645 41.7288 50.8155 41.8379 50.516 41.8379C50.3826 41.8379 50.267 41.8216 50.1693 41.7891C50.0717 41.7565 49.9431 41.6898 49.7836 41.5889C49.6273 41.488 49.5134 41.4277 49.4418 41.4082C49.3734 41.3854 49.2937 41.374 49.2025 41.374C49.0691 41.374 48.9551 41.4261 48.8607 41.5303C48.7663 41.6312 48.7191 41.7614 48.7191 41.9209L48.1137 41.8867C48.1137 41.5384 48.2113 41.2503 48.4066 41.0225C48.6052 40.7946 48.8559 40.6807 49.1586 40.6807C49.2725 40.6807 49.3751 40.6969 49.4662 40.7295C49.5574 40.762 49.6811 40.8255 49.8373 40.9199C49.9936 41.0143 50.1124 41.0762 50.1937 41.1055C50.2784 41.1348 50.3712 41.1494 50.4721 41.1494C50.612 41.1494 50.7276 41.0941 50.8187 40.9834C50.9131 40.8727 50.9604 40.7441 50.9604 40.5977L51.5658 40.6562ZM52.5793 45.3096C52.5793 44.792 52.6802 44.3265 52.882 43.9131C53.0871 43.4997 53.3703 43.1807 53.7316 42.9561C54.0962 42.7314 54.5113 42.6191 54.9768 42.6191C55.6962 42.6191 56.2772 42.8682 56.7199 43.3662C57.1659 43.8643 57.3889 44.5267 57.3889 45.3535V45.417C57.3889 45.9313 57.2896 46.3936 57.091 46.8037C56.8957 47.2106 56.6141 47.528 56.2463 47.7559C55.8817 47.9837 55.4618 48.0977 54.9865 48.0977C54.2704 48.0977 53.6893 47.8486 53.2434 47.3506C52.8007 46.8525 52.5793 46.1934 52.5793 45.373V45.3096ZM53.4875 45.417C53.4875 46.0029 53.6226 46.4733 53.8928 46.8281C54.1662 47.1829 54.5308 47.3604 54.9865 47.3604C55.4455 47.3604 55.8101 47.1813 56.0803 46.8232C56.3505 46.4619 56.4855 45.9574 56.4855 45.3096C56.4855 44.7301 56.3472 44.2614 56.0705 43.9033C55.7971 43.542 55.4325 43.3613 54.9768 43.3613C54.5308 43.3613 54.1711 43.5387 53.8977 43.8936C53.6242 44.2484 53.4875 44.7562 53.4875 45.417ZM27.6104 60.0977C26.8942 60.0977 26.3115 59.8633 25.8623 59.3945C25.4131 58.9225 25.1885 58.2926 25.1885 57.5049V57.3389C25.1885 56.8148 25.2878 56.3477 25.4863 55.9375C25.6882 55.5241 25.9681 55.2018 26.3262 54.9707C26.6875 54.7363 27.0781 54.6191 27.498 54.6191C28.1849 54.6191 28.7188 54.8454 29.0996 55.2979C29.4805 55.7503 29.6709 56.3981 29.6709 57.2412V57.6172H26.0918C26.1048 58.138 26.2562 58.5596 26.5459 58.8818C26.8389 59.2008 27.21 59.3604 27.6592 59.3604C27.9782 59.3604 28.2484 59.2952 28.4697 59.165C28.6911 59.0348 28.8848 58.8623 29.0508 58.6475L29.6025 59.0771C29.1598 59.7575 28.4958 60.0977 27.6104 60.0977ZM27.498 55.3613C27.1335 55.3613 26.8275 55.4948 26.5801 55.7617C26.3327 56.0254 26.1797 56.3965 26.1211 56.875H28.7676V56.8066C28.7415 56.3477 28.6178 55.9928 28.3965 55.7422C28.1751 55.4883 27.8757 55.3613 27.498 55.3613ZM32.9744 55.5273C32.8377 55.5046 32.6896 55.4932 32.5301 55.4932C31.9376 55.4932 31.5356 55.7454 31.324 56.25V60H30.4207V54.7168H31.2996L31.3143 55.3271C31.6105 54.8551 32.0304 54.6191 32.574 54.6191C32.7498 54.6191 32.8833 54.6419 32.9744 54.6875V55.5273ZM35.6041 60.0977C34.888 60.0977 34.3053 59.8633 33.8561 59.3945C33.4068 58.9225 33.1822 58.2926 33.1822 57.5049V57.3389C33.1822 56.8148 33.2815 56.3477 33.4801 55.9375C33.6819 55.5241 33.9619 55.2018 34.3199 54.9707C34.6813 54.7363 35.0719 54.6191 35.4918 54.6191C36.1786 54.6191 36.7125 54.8454 37.0934 55.2979C37.4742 55.7503 37.6646 56.3981 37.6646 57.2412V57.6172H34.0855C34.0986 58.138 34.2499 58.5596 34.5396 58.8818C34.8326 59.2008 35.2037 59.3604 35.6529 59.3604C35.9719 59.3604 36.2421 59.2952 36.4635 59.165C36.6848 59.0348 36.8785 58.8623 37.0445 58.6475L37.5963 59.0771C37.1536 59.7575 36.4895 60.0977 35.6041 60.0977ZM35.4918 55.3613C35.1272 55.3613 34.8212 55.4948 34.5738 55.7617C34.3264 56.0254 34.1734 56.3965 34.1148 56.875H36.7613V56.8066C36.7353 56.3477 36.6116 55.9928 36.3902 55.7422C36.1689 55.4883 35.8694 55.3613 35.4918 55.3613ZM35.9313 52.5H37.025L35.7164 53.9355H34.9889L35.9313 52.5ZM39.64 53.4375V54.7168H40.6264V55.415H39.64V58.6914C39.64 58.903 39.684 59.0625 39.7719 59.1699C39.8598 59.2741 40.0095 59.3262 40.2211 59.3262C40.3253 59.3262 40.4685 59.3066 40.6508 59.2676V60C40.4131 60.0651 40.182 60.0977 39.9574 60.0977C39.5538 60.0977 39.2494 59.9756 39.0443 59.7314C38.8393 59.4873 38.7367 59.1406 38.7367 58.6914V55.415H37.7748V54.7168H38.7367V53.4375H39.64ZM42.3674 60H41.4641V54.7168H42.3674V60ZM41.3908 53.3154C41.3908 53.1689 41.4348 53.0452 41.5227 52.9443C41.6138 52.8434 41.7473 52.793 41.923 52.793C42.0988 52.793 42.2323 52.8434 42.3234 52.9443C42.4146 53.0452 42.4602 53.1689 42.4602 53.3154C42.4602 53.4619 42.4146 53.584 42.3234 53.6816C42.2323 53.7793 42.0988 53.8281 41.923 53.8281C41.7473 53.8281 41.6138 53.7793 41.5227 53.6816C41.4348 53.584 41.3908 53.4619 41.3908 53.3154ZM44.499 60H43.5957V52.5H44.499V60Z" fill="#666666"/>
<defs>
<filter id="filter0_d_7838:60095" x="0" y="0" width="70" height="38" filterUnits="userSpaceOnUse" color-interpolation-filters="sRGB">
<feFlood flood-opacity="0" result="BackgroundImageFix"/>
<feColorMatrix in="SourceAlpha" type="matrix" values="0 0 0 0 0 0 0 0 0 0 0 0 0 0 0 0 0 0 127 0" result="hardAlpha"/>
<feOffset dy="1"/>
<feGaussianBlur stdDeviation="1"/>
<feColorMatrix type="matrix" values="0 0 0 0 0 0 0 0 0 0 0 0 0 0 0 0 0 0 0.2 0"/>
<feBlend mode="normal" in2="BackgroundImageFix" result="effect1_dropShadow_7838:60095"/>
<feBlend mode="normal" in="SourceGraphic" in2="effect1_dropShadow_7838:60095" result="shape"/>
</filter>
</defs>
</svg>
