<svg width="70" height="65" viewBox="0 0 70 65" fill="none" xmlns="http://www.w3.org/2000/svg">
<g filter="url(#filter0_d_7838:60111)">
<rect x="2" y="1" width="66" height="34" rx="8" fill="#E7F3F9"/>
<path d="M30.5149 11.8125C29.0584 13.5652 28.2274 16.1625 27.1624 18.9225C27.096 19.0955 27.119 19.2902 27.2238 19.443C27.3287 19.5958 27.502 19.6872 27.6874 19.6875H29.1124V21.9375C29.1124 23.1801 30.1197 24.1875 31.3624 24.1875H32.4874V26.4375" stroke="#007DC5" stroke-linecap="round" stroke-linejoin="round"/>
<path d="M40.3633 26.4375V21.7387C41.7308 20.473 42.5388 18.7154 42.6091 16.8534C42.6795 14.9914 42.0064 13.1778 40.7383 11.8125" stroke="#007DC5" stroke-linecap="round" stroke-linejoin="round"/>
<path d="M33.6129 9.5625C32.4879 11.8125 35.3004 11.8125 34.1754 14.0625" stroke="#007DC5" stroke-linecap="round" stroke-linejoin="round"/>
<path d="M37.2789 9.5625C36.1539 11.8125 38.9664 11.8125 37.8414 14.0625" stroke="#007DC5" stroke-linecap="round" stroke-linejoin="round"/>
</g>
<path d="M11.3117 48V40.8906H13.3186C13.937 40.8906 14.4839 41.0273 14.9592 41.3008C15.4344 41.5742 15.8007 41.9632 16.0578 42.4678C16.3182 42.9723 16.4501 43.5518 16.4533 44.2061V44.6602C16.4533 45.3307 16.3231 45.9183 16.0627 46.4229C15.8055 46.9274 15.4361 47.3148 14.9543 47.585C14.4758 47.8551 13.9175 47.9935 13.2795 48H11.3117ZM12.2492 41.6621V47.2334H13.2355C13.9582 47.2334 14.5197 47.0088 14.9201 46.5596C15.3238 46.1104 15.5256 45.4707 15.5256 44.6406V44.2256C15.5256 43.4183 15.3352 42.7917 14.9543 42.3457C14.5767 41.8965 14.0396 41.6686 13.343 41.6621H12.2492ZM17.1934 45.3096C17.1934 44.792 17.2943 44.3265 17.4961 43.9131C17.7012 43.4997 17.9844 43.1807 18.3457 42.9561C18.7103 42.7314 19.1253 42.6191 19.5908 42.6191C20.3102 42.6191 20.8913 42.8682 21.334 43.3662C21.7799 43.8643 22.0029 44.5267 22.0029 45.3535V45.417C22.0029 45.9313 21.9036 46.3936 21.7051 46.8037C21.5098 47.2106 21.2282 47.528 20.8604 47.7559C20.4958 47.9837 20.0758 48.0977 19.6006 48.0977C18.8844 48.0977 18.3034 47.8486 17.8574 47.3506C17.4147 46.8525 17.1934 46.1934 17.1934 45.373V45.3096ZM18.1016 45.417C18.1016 46.0029 18.2367 46.4733 18.5068 46.8281C18.7803 47.1829 19.1449 47.3604 19.6006 47.3604C20.0596 47.3604 20.4242 47.1813 20.6943 46.8232C20.9645 46.4619 21.0996 45.9574 21.0996 45.3096C21.0996 44.7301 20.9613 44.2614 20.6846 43.9033C20.4111 43.542 20.0465 43.3613 19.5908 43.3613C19.1449 43.3613 18.7852 43.5387 18.5117 43.8936C18.2383 44.2484 18.1016 44.7562 18.1016 45.417ZM25.3895 43.5273C25.2527 43.5046 25.1046 43.4932 24.9451 43.4932C24.3527 43.4932 23.9506 43.7454 23.7391 44.25V48H22.8357V42.7168H23.7146L23.7293 43.3271C24.0255 42.8551 24.4454 42.6191 24.9891 42.6191C25.1648 42.6191 25.2983 42.6419 25.3895 42.6875V43.5273ZM25.2896 49.416L24.777 49.0645C25.0829 48.638 25.2424 48.1986 25.2555 47.7461V46.9307H26.1393V47.6387C26.1393 47.9674 26.0579 48.2962 25.8951 48.625C25.7356 48.9538 25.5338 49.2174 25.2896 49.416ZM29.6066 48V43.415H28.7717V42.7168H29.6066V42.1748C29.6066 41.6084 29.758 41.1706 30.0607 40.8613C30.3635 40.5521 30.7915 40.3975 31.3449 40.3975C31.5533 40.3975 31.76 40.4251 31.965 40.4805L31.9162 41.2129C31.7632 41.1836 31.6005 41.1689 31.4279 41.1689C31.135 41.1689 30.9087 41.2552 30.7492 41.4277C30.5897 41.597 30.51 41.8411 30.51 42.1602V42.7168H31.6379V43.415H30.51V48H29.6066ZM34.4141 48.0977C33.6979 48.0977 33.1152 47.8633 32.666 47.3945C32.2168 46.9225 31.9922 46.2926 31.9922 45.5049V45.3389C31.9922 44.8148 32.0915 44.3477 32.29 43.9375C32.4919 43.5241 32.7718 43.2018 33.1299 42.9707C33.4912 42.7363 33.8818 42.6191 34.3018 42.6191C34.9886 42.6191 35.5225 42.8454 35.9033 43.2979C36.2842 43.7503 36.4746 44.3981 36.4746 45.2412V45.6172H32.8955C32.9085 46.138 33.0599 46.5596 33.3496 46.8818C33.6426 47.2008 34.0137 47.3604 34.4629 47.3604C34.7819 47.3604 35.0521 47.2952 35.2734 47.165C35.4948 47.0348 35.6885 46.8623 35.8545 46.6475L36.4062 47.0771C35.9635 47.7575 35.2995 48.0977 34.4141 48.0977ZM34.3018 43.3613C33.9372 43.3613 33.6312 43.4948 33.3838 43.7617C33.1364 44.0254 32.9834 44.3965 32.9248 44.875H35.5713V44.8066C35.5452 44.3477 35.4215 43.9928 35.2002 43.7422C34.9788 43.4883 34.6794 43.3613 34.3018 43.3613ZM41.6971 45.417C41.6971 46.2243 41.5115 46.8737 41.1404 47.3652C40.7693 47.8535 40.2713 48.0977 39.6463 48.0977C38.979 48.0977 38.463 47.8617 38.0984 47.3896L38.0545 48H37.2244V40.5H38.1277V43.2979C38.4923 42.8454 38.9952 42.6191 39.6365 42.6191C40.2778 42.6191 40.7807 42.8617 41.1453 43.3467C41.5131 43.8317 41.6971 44.4958 41.6971 45.3389V45.417ZM40.7937 45.3145C40.7937 44.6992 40.6749 44.224 40.4373 43.8887C40.1997 43.5534 39.8579 43.3857 39.4119 43.3857C38.8162 43.3857 38.3881 43.6624 38.1277 44.2158V46.501C38.4044 47.0544 38.8357 47.3311 39.4217 47.3311C39.8546 47.3311 40.1915 47.1634 40.4324 46.8281C40.6733 46.4928 40.7937 45.9883 40.7937 45.3145ZM45.0934 43.5273C44.9566 43.5046 44.8085 43.4932 44.649 43.4932C44.0566 43.4932 43.6546 43.7454 43.443 44.25V48H42.5396V42.7168H43.4186L43.4332 43.3271C43.7294 42.8551 44.1494 42.6191 44.693 42.6191C44.8688 42.6191 45.0022 42.6419 45.0934 42.6875V43.5273ZM47.723 48.0977C47.0069 48.0977 46.4242 47.8633 45.975 47.3945C45.5258 46.9225 45.3012 46.2926 45.3012 45.5049V45.3389C45.3012 44.8148 45.4005 44.3477 45.599 43.9375C45.8008 43.5241 46.0808 43.2018 46.4389 42.9707C46.8002 42.7363 47.1908 42.6191 47.6107 42.6191C48.2976 42.6191 48.8314 42.8454 49.2123 43.2979C49.5932 43.7503 49.7836 44.3981 49.7836 45.2412V45.6172H46.2045C46.2175 46.138 46.3689 46.5596 46.6586 46.8818C46.9516 47.2008 47.3227 47.3604 47.7719 47.3604C48.0909 47.3604 48.3611 47.2952 48.5824 47.165C48.8038 47.0348 48.9975 46.8623 49.1635 46.6475L49.7152 47.0771C49.2725 47.7575 48.6085 48.0977 47.723 48.0977ZM47.6107 43.3613C47.2462 43.3613 46.9402 43.4948 46.6928 43.7617C46.4454 44.0254 46.2924 44.3965 46.2338 44.875H48.8803V44.8066C48.8542 44.3477 48.7305 43.9928 48.5092 43.7422C48.2878 43.4883 47.9883 43.3613 47.6107 43.3613ZM54.9062 48.0977C54.1901 48.0977 53.6074 47.8633 53.1582 47.3945C52.709 46.9225 52.4844 46.2926 52.4844 45.5049V45.3389C52.4844 44.8148 52.5837 44.3477 52.7822 43.9375C52.984 43.5241 53.264 43.2018 53.6221 42.9707C53.9834 42.7363 54.374 42.6191 54.7939 42.6191C55.4808 42.6191 56.0146 42.8454 56.3955 43.2979C56.7764 43.7503 56.9668 44.3981 56.9668 45.2412V45.6172H53.3877C53.4007 46.138 53.5521 46.5596 53.8418 46.8818C54.1348 47.2008 54.5059 47.3604 54.9551 47.3604C55.2741 47.3604 55.5443 47.2952 55.7656 47.165C55.987 47.0348 56.1807 46.8623 56.3467 46.6475L56.8984 47.0771C56.4557 47.7575 55.7917 48.0977 54.9062 48.0977ZM54.7939 43.3613C54.4294 43.3613 54.1234 43.4948 53.876 43.7617C53.6286 44.0254 53.4756 44.3965 53.417 44.875H56.0635V44.8066C56.0374 44.3477 55.9137 43.9928 55.6924 43.7422C55.471 43.4883 55.1715 43.3613 54.7939 43.3613ZM13.0359 60H12.1326V54.7168H13.0359V60ZM12.0594 53.3154C12.0594 53.1689 12.1033 53.0452 12.1912 52.9443C12.2824 52.8434 12.4158 52.793 12.5916 52.793C12.7674 52.793 12.9008 52.8434 12.992 52.9443C13.0831 53.0452 13.1287 53.1689 13.1287 53.3154C13.1287 53.4619 13.0831 53.584 12.992 53.6816C12.9008 53.7793 12.7674 53.8281 12.5916 53.8281C12.4158 53.8281 12.2824 53.7793 12.1912 53.6816C12.1033 53.584 12.0594 53.4619 12.0594 53.3154ZM15.0406 54.7168L15.0699 55.3809C15.4736 54.873 16.0009 54.6191 16.652 54.6191C17.7685 54.6191 18.3316 55.249 18.3414 56.5088V60H17.4381V56.5039C17.4348 56.123 17.3469 55.8415 17.1744 55.6592C17.0051 55.4769 16.7398 55.3857 16.3785 55.3857C16.0855 55.3857 15.8284 55.4639 15.607 55.6201C15.3857 55.7764 15.2132 55.9814 15.0895 56.2354V60H14.1861V54.7168H15.0406ZM22.7045 53.2666C22.3008 53.2015 21.9753 53.1689 21.7279 53.1689C21.0769 53.1689 20.7514 53.5107 20.7514 54.1943V54.7168H21.8793V55.415H20.7514V60H19.848V55.415H19.0131V54.7168H19.848V54.1406C19.8513 53.5775 20.0092 53.1462 20.3217 52.8467C20.6342 52.5472 21.0785 52.3975 21.6547 52.3975C21.9835 52.3975 22.6345 52.4967 23.6078 52.6953V60H22.7045V53.2666ZM28.049 60C27.9969 59.8958 27.9546 59.7103 27.9221 59.4434C27.5021 59.8796 27.0008 60.0977 26.4182 60.0977C25.8973 60.0977 25.4693 59.9512 25.134 59.6582C24.802 59.362 24.6359 58.9876 24.6359 58.5352C24.6359 57.985 24.8443 57.5586 25.2609 57.2559C25.6809 56.9499 26.2701 56.7969 27.0285 56.7969H27.9074V56.3818C27.9074 56.0661 27.813 55.8154 27.6242 55.6299C27.4354 55.4411 27.1571 55.3467 26.7893 55.3467C26.467 55.3467 26.1968 55.4281 25.9787 55.5908C25.7606 55.7536 25.6516 55.9505 25.6516 56.1816H24.7434C24.7434 55.918 24.8361 55.6641 25.0217 55.4199C25.2105 55.1725 25.4644 54.9772 25.7834 54.834C26.1057 54.6908 26.4589 54.6191 26.843 54.6191C27.4517 54.6191 27.9286 54.7721 28.2736 55.0781C28.6187 55.3809 28.7977 55.7992 28.8107 56.333V58.7646C28.8107 59.2497 28.8726 59.6354 28.9963 59.9219V60H28.049ZM26.55 59.3115C26.8332 59.3115 27.1018 59.2383 27.3557 59.0918C27.6096 58.9453 27.7935 58.7549 27.9074 58.5205V57.4365H27.1994C26.0926 57.4365 25.5393 57.7604 25.5393 58.4082C25.5393 58.6914 25.6337 58.9128 25.8225 59.0723C26.0113 59.2318 26.2538 59.3115 26.55 59.3115ZM30.7764 54.7168L30.8008 55.3027C31.1882 54.847 31.7106 54.6191 32.3682 54.6191C33.1071 54.6191 33.61 54.9023 33.877 55.4688C34.0527 55.2148 34.2806 55.0098 34.5605 54.8535C34.8438 54.6973 35.1774 54.6191 35.5615 54.6191C36.7204 54.6191 37.3096 55.2327 37.3291 56.46V60H36.4258V56.5137C36.4258 56.1361 36.3395 55.8545 36.167 55.6689C35.9945 55.4801 35.7048 55.3857 35.2979 55.3857C34.9626 55.3857 34.6842 55.4867 34.4629 55.6885C34.2415 55.887 34.113 56.1556 34.0771 56.4941V60H33.1689V56.5381C33.1689 55.7699 32.793 55.3857 32.041 55.3857C31.4486 55.3857 31.0433 55.638 30.8252 56.1426V60H29.9219V54.7168H30.7764ZM41.658 60C41.6059 59.8958 41.5636 59.7103 41.5311 59.4434C41.1111 59.8796 40.6098 60.0977 40.0271 60.0977C39.5063 60.0977 39.0783 59.9512 38.743 59.6582C38.4109 59.362 38.2449 58.9876 38.2449 58.5352C38.2449 57.985 38.4533 57.5586 38.8699 57.2559C39.2898 56.9499 39.879 56.7969 40.6375 56.7969H41.5164V56.3818C41.5164 56.0661 41.422 55.8154 41.2332 55.6299C41.0444 55.4411 40.7661 55.3467 40.3982 55.3467C40.076 55.3467 39.8058 55.4281 39.5877 55.5908C39.3696 55.7536 39.2605 55.9505 39.2605 56.1816H38.3523C38.3523 55.918 38.4451 55.6641 38.6307 55.4199C38.8195 55.1725 39.0734 54.9772 39.3924 54.834C39.7146 54.6908 40.0678 54.6191 40.452 54.6191C41.0607 54.6191 41.5376 54.7721 41.8826 55.0781C42.2277 55.3809 42.4067 55.7992 42.4197 56.333V58.7646C42.4197 59.2497 42.4816 59.6354 42.6053 59.9219V60H41.658ZM40.159 59.3115C40.4422 59.3115 40.7107 59.2383 40.9646 59.0918C41.2186 58.9453 41.4025 58.7549 41.5164 58.5205V57.4365H40.8084C39.7016 57.4365 39.1482 57.7604 39.1482 58.4082C39.1482 58.6914 39.2426 58.9128 39.4314 59.0723C39.6202 59.2318 39.8628 59.3115 40.159 59.3115ZM45.6549 59.3604C45.9771 59.3604 46.2587 59.2627 46.4996 59.0674C46.7405 58.8721 46.874 58.6279 46.9 58.335H47.7545C47.7382 58.6377 47.6341 58.9258 47.442 59.1992C47.2499 59.4727 46.9928 59.6908 46.6705 59.8535C46.3515 60.0163 46.013 60.0977 45.6549 60.0977C44.9355 60.0977 44.3626 59.8584 43.9361 59.3799C43.513 58.8981 43.3014 58.2406 43.3014 57.4072V57.2559C43.3014 56.7415 43.3958 56.2842 43.5846 55.8838C43.7734 55.4834 44.0436 55.1725 44.3951 54.9512C44.7499 54.7298 45.1682 54.6191 45.65 54.6191C46.2424 54.6191 46.734 54.7965 47.1246 55.1514C47.5185 55.5062 47.7285 55.9668 47.7545 56.5332H46.9C46.874 56.1914 46.7438 55.9115 46.5094 55.6934C46.2783 55.472 45.9918 55.3613 45.65 55.3613C45.191 55.3613 44.8346 55.5273 44.5807 55.8594C44.33 56.1882 44.2047 56.665 44.2047 57.29V57.4609C44.2047 58.0697 44.33 58.5384 44.5807 58.8672C44.8313 59.196 45.1894 59.3604 45.6549 59.3604ZM45.8014 60.0439L45.7428 60.2979C46.2408 60.3857 46.4898 60.6673 46.4898 61.1426C46.4898 61.4583 46.3596 61.7074 46.0992 61.8896C45.8388 62.0752 45.4758 62.168 45.0104 62.168L44.9762 61.6455C45.2333 61.6455 45.4319 61.6032 45.5719 61.5186C45.7151 61.4339 45.7867 61.3151 45.7867 61.1621C45.7867 61.0189 45.7346 60.9131 45.6305 60.8447C45.5263 60.7764 45.3147 60.7275 44.9957 60.6982L45.152 60.0439H45.8014ZM51.7318 60C51.6798 59.8958 51.6374 59.7103 51.6049 59.4434C51.185 59.8796 50.6837 60.0977 50.101 60.0977C49.5801 60.0977 49.1521 59.9512 48.8168 59.6582C48.4848 59.362 48.3188 58.9876 48.3188 58.5352C48.3188 57.985 48.5271 57.5586 48.9438 57.2559C49.3637 56.9499 49.9529 56.7969 50.7113 56.7969H51.5902V56.3818C51.5902 56.0661 51.4958 55.8154 51.307 55.6299C51.1182 55.4411 50.8399 55.3467 50.4721 55.3467C50.1498 55.3467 49.8796 55.4281 49.6615 55.5908C49.4434 55.7536 49.3344 55.9505 49.3344 56.1816H48.4262C48.4262 55.918 48.5189 55.6641 48.7045 55.4199C48.8933 55.1725 49.1472 54.9772 49.4662 54.834C49.7885 54.6908 50.1417 54.6191 50.5258 54.6191C51.1345 54.6191 51.6114 54.7721 51.9564 55.0781C52.3015 55.3809 52.4805 55.7992 52.4936 56.333V58.7646C52.4936 59.2497 52.5554 59.6354 52.6791 59.9219V60H51.7318ZM50.2328 59.3115C50.516 59.3115 50.7846 59.2383 51.0385 59.0918C51.2924 58.9453 51.4763 58.7549 51.5902 58.5205V57.4365H50.8822C49.7755 57.4365 49.2221 57.7604 49.2221 58.4082C49.2221 58.6914 49.3165 58.9128 49.5053 59.0723C49.6941 59.2318 49.9366 59.3115 50.2328 59.3115ZM52.3568 52.6562C52.3568 53.0078 52.2559 53.2926 52.0541 53.5107C51.8555 53.7288 51.6065 53.8379 51.307 53.8379C51.1736 53.8379 51.058 53.8216 50.9604 53.7891C50.8627 53.7565 50.7341 53.6898 50.5746 53.5889C50.4184 53.488 50.3044 53.4277 50.2328 53.4082C50.1645 53.3854 50.0847 53.374 49.9936 53.374C49.8601 53.374 49.7462 53.4261 49.6518 53.5303C49.5574 53.6312 49.5102 53.7614 49.5102 53.9209L48.9047 53.8867C48.9047 53.5384 49.0023 53.2503 49.1977 53.0225C49.3962 52.7946 49.6469 52.6807 49.9496 52.6807C50.0635 52.6807 50.1661 52.6969 50.2572 52.7295C50.3484 52.762 50.4721 52.8255 50.6283 52.9199C50.7846 53.0143 50.9034 53.0762 50.9848 53.1055C51.0694 53.1348 51.1622 53.1494 51.2631 53.1494C51.4031 53.1494 51.5186 53.0941 51.6098 52.9834C51.7042 52.8727 51.7514 52.7441 51.7514 52.5977L52.3568 52.6562ZM53.3703 57.3096C53.3703 56.792 53.4712 56.3265 53.673 55.9131C53.8781 55.4997 54.1613 55.1807 54.5227 54.9561C54.8872 54.7314 55.3023 54.6191 55.7678 54.6191C56.4872 54.6191 57.0682 54.8682 57.5109 55.3662C57.9569 55.8643 58.1799 56.5267 58.1799 57.3535V57.417C58.1799 57.9313 58.0806 58.3936 57.882 58.8037C57.6867 59.2106 57.4051 59.528 57.0373 59.7559C56.6727 59.9837 56.2528 60.0977 55.7775 60.0977C55.0614 60.0977 54.4803 59.8486 54.0344 59.3506C53.5917 58.8525 53.3703 58.1934 53.3703 57.373V57.3096ZM54.2785 57.417C54.2785 58.0029 54.4136 58.4733 54.6838 58.8281C54.9572 59.1829 55.3218 59.3604 55.7775 59.3604C56.2365 59.3604 56.6011 59.1813 56.8713 58.8232C57.1415 58.4619 57.2766 57.9574 57.2766 57.3096C57.2766 56.7301 57.1382 56.2614 56.8615 55.9033C56.5881 55.542 56.2235 55.3613 55.7678 55.3613C55.3218 55.3613 54.9621 55.5387 54.6887 55.8936C54.4152 56.2484 54.2785 56.7562 54.2785 57.417Z" fill="#666666"/>
<defs>
<filter id="filter0_d_7838:60111" x="0" y="0" width="70" height="38" filterUnits="userSpaceOnUse" color-interpolation-filters="sRGB">
<feFlood flood-opacity="0" result="BackgroundImageFix"/>
<feColorMatrix in="SourceAlpha" type="matrix" values="0 0 0 0 0 0 0 0 0 0 0 0 0 0 0 0 0 0 127 0" result="hardAlpha"/>
<feOffset dy="1"/>
<feGaussianBlur stdDeviation="1"/>
<feColorMatrix type="matrix" values="0 0 0 0 0 0 0 0 0 0 0 0 0 0 0 0 0 0 0.2 0"/>
<feBlend mode="normal" in2="BackgroundImageFix" result="effect1_dropShadow_7838:60111"/>
<feBlend mode="normal" in="SourceGraphic" in2="effect1_dropShadow_7838:60111" result="shape"/>
</filter>
</defs>
</svg>
