<svg width="70" height="65" viewBox="0 0 70 65" fill="none" xmlns="http://www.w3.org/2000/svg">
<g filter="url(#filter0_d_7838:59992)">
<rect x="2" y="1" width="66" height="34" rx="8" fill="#E7F3F9"/>
<path d="M29.9372 9.5625C29.9372 9.5625 31.0622 10.6875 31.0622 14.0625C31.0622 18 27.6872 18.5625 27.6872 23.0625C27.6289 24.2883 28.03 25.4918 28.8122 26.4375" stroke="#007DC5" stroke-linecap="round" stroke-linejoin="round"/>
<path d="M40.0625 9.5625C40.0625 9.5625 38.9375 10.6875 38.9375 14.0625C38.9375 18 42.3125 18.5625 42.3125 23.0625C42.3709 24.2883 41.9697 25.4918 41.1875 26.4375" stroke="#007DC5" stroke-linecap="round" stroke-linejoin="round"/>
<path d="M26.5625 11.8125L28.415 13.665C28.5205 13.7704 28.5798 13.9134 28.5798 14.0625C28.5798 14.2116 28.5205 14.3546 28.415 14.46L26.5625 16.3125" stroke="#007DC5" stroke-linecap="round" stroke-linejoin="round"/>
<path d="M43.4372 11.8125L41.5847 13.665C41.4792 13.7704 41.4199 13.9134 41.4199 14.0625C41.4199 14.2116 41.4792 14.3546 41.5847 14.46L43.4372 16.3125" stroke="#007DC5" stroke-linecap="round" stroke-linejoin="round"/>
<path d="M35 26.4375V24.1875" stroke="#007DC5" stroke-linecap="round" stroke-linejoin="round"/>
<path fill-rule="evenodd" clip-rule="evenodd" d="M41.8207 20.3945C38.9594 21.107 35.0002 24.1865 35.0002 24.1865C35.0002 24.1865 31.0409 21.107 28.1797 20.3945H41.8207Z" stroke="#007DC5" stroke-linecap="round" stroke-linejoin="round"/>
<path d="M35 16.5938C35.1553 16.5938 35.2812 16.7197 35.2812 16.875" stroke="#007DC5" stroke-linecap="round" stroke-linejoin="round"/>
<path d="M34.7188 16.875C34.7188 16.7197 34.8447 16.5938 35 16.5938" stroke="#007DC5" stroke-linecap="round" stroke-linejoin="round"/>
<path d="M35 17.1562C34.8447 17.1562 34.7188 17.0303 34.7188 16.875" stroke="#007DC5" stroke-linecap="round" stroke-linejoin="round"/>
<path d="M35.2812 16.875C35.2812 17.0303 35.1553 17.1562 35 17.1562" stroke="#007DC5" stroke-linecap="round" stroke-linejoin="round"/>
</g>
<path d="M6.77559 44.7139H3.69453V47.2334H7.27363V48H2.75703V40.8906H7.2248V41.6621H3.69453V43.9473H6.77559V44.7139ZM8.84863 42.7168L8.87305 43.3027C9.26042 42.847 9.78288 42.6191 10.4404 42.6191C11.1794 42.6191 11.6823 42.9023 11.9492 43.4688C12.125 43.2148 12.3529 43.0098 12.6328 42.8535C12.916 42.6973 13.2497 42.6191 13.6338 42.6191C14.7926 42.6191 15.3818 43.2327 15.4014 44.46V48H14.498V44.5137C14.498 44.1361 14.4118 43.8545 14.2393 43.6689C14.0667 43.4801 13.777 43.3857 13.3701 43.3857C13.0348 43.3857 12.7565 43.4867 12.5352 43.6885C12.3138 43.887 12.1852 44.1556 12.1494 44.4941V48H11.2412V44.5381C11.2412 43.7699 10.8652 43.3857 10.1133 43.3857C9.52083 43.3857 9.11556 43.638 8.89746 44.1426V48H7.99414V42.7168H8.84863ZM19.7303 48C19.6782 47.8958 19.6359 47.7103 19.6033 47.4434C19.1834 47.8796 18.6821 48.0977 18.0994 48.0977C17.5786 48.0977 17.1505 47.9512 16.8152 47.6582C16.4832 47.362 16.3172 46.9876 16.3172 46.5352C16.3172 45.985 16.5255 45.5586 16.9422 45.2559C17.3621 44.9499 17.9513 44.7969 18.7098 44.7969H19.5887V44.3818C19.5887 44.0661 19.4943 43.8154 19.3055 43.6299C19.1167 43.4411 18.8383 43.3467 18.4705 43.3467C18.1482 43.3467 17.8781 43.4281 17.66 43.5908C17.4419 43.7536 17.3328 43.9505 17.3328 44.1816H16.4246C16.4246 43.918 16.5174 43.6641 16.7029 43.4199C16.8917 43.1725 17.1456 42.9772 17.4646 42.834C17.7869 42.6908 18.1401 42.6191 18.5242 42.6191C19.1329 42.6191 19.6098 42.7721 19.9549 43.0781C20.2999 43.3809 20.479 43.7992 20.492 44.333V46.7646C20.492 47.2497 20.5538 47.6354 20.6775 47.9219V48H19.7303ZM18.2312 47.3115C18.5145 47.3115 18.783 47.2383 19.0369 47.0918C19.2908 46.9453 19.4747 46.7549 19.5887 46.5205V45.4365H18.8807C17.7739 45.4365 17.2205 45.7604 17.2205 46.4082C17.2205 46.6914 17.3149 46.9128 17.5037 47.0723C17.6925 47.2318 17.935 47.3115 18.2312 47.3115ZM21.3932 45.3145C21.3932 44.4909 21.5836 43.8366 21.9645 43.3516C22.3453 42.8633 22.8499 42.6191 23.4781 42.6191C24.1227 42.6191 24.6256 42.847 24.9869 43.3027L25.0309 42.7168H25.8561V47.873C25.8561 48.5566 25.6526 49.0954 25.2457 49.4893C24.8421 49.8831 24.2984 50.0801 23.6148 50.0801C23.234 50.0801 22.8613 49.9987 22.4967 49.8359C22.1321 49.6732 21.8538 49.4502 21.6617 49.167L22.1305 48.625C22.5178 49.1035 22.9915 49.3428 23.5514 49.3428C23.9908 49.3428 24.3326 49.2191 24.5768 48.9717C24.8242 48.7243 24.9479 48.376 24.9479 47.9268V47.4727C24.5865 47.8893 24.0934 48.0977 23.4684 48.0977C22.8499 48.0977 22.3486 47.8486 21.9645 47.3506C21.5836 46.8525 21.3932 46.1738 21.3932 45.3145ZM22.3014 45.417C22.3014 46.0127 22.4234 46.4814 22.6676 46.8232C22.9117 47.1618 23.2535 47.3311 23.693 47.3311C24.2626 47.3311 24.6809 47.0723 24.9479 46.5547V44.1426C24.6712 43.638 24.2561 43.3857 23.7027 43.3857C23.2633 43.3857 22.9199 43.5566 22.6725 43.8984C22.4251 44.2402 22.3014 44.7464 22.3014 45.417ZM29.477 43.5273C29.3402 43.5046 29.1921 43.4932 29.0326 43.4932C28.4402 43.4932 28.0381 43.7454 27.8266 44.25V48H26.9232V42.7168H27.8021L27.8168 43.3271C28.113 42.8551 28.5329 42.6191 29.0766 42.6191C29.2523 42.6191 29.3858 42.6419 29.477 42.6875V43.5273ZM32.1066 48.0977C31.3905 48.0977 30.8078 47.8633 30.3586 47.3945C29.9094 46.9225 29.6848 46.2926 29.6848 45.5049V45.3389C29.6848 44.8148 29.784 44.3477 29.9826 43.9375C30.1844 43.5241 30.4644 43.2018 30.8225 42.9707C31.1838 42.7363 31.5744 42.6191 31.9943 42.6191C32.6812 42.6191 33.215 42.8454 33.5959 43.2979C33.9768 43.7503 34.1672 44.3981 34.1672 45.2412V45.6172H30.5881C30.6011 46.138 30.7525 46.5596 31.0422 46.8818C31.3352 47.2008 31.7062 47.3604 32.1555 47.3604C32.4745 47.3604 32.7447 47.2952 32.966 47.165C33.1874 47.0348 33.3811 46.8623 33.5471 46.6475L34.0988 47.0771C33.6561 47.7575 32.9921 48.0977 32.1066 48.0977ZM31.9943 43.3613C31.6298 43.3613 31.3238 43.4948 31.0764 43.7617C30.829 44.0254 30.676 44.3965 30.6174 44.875H33.2639V44.8066C33.2378 44.3477 33.1141 43.9928 32.8928 43.7422C32.6714 43.4883 32.3719 43.3613 31.9943 43.3613ZM37.0361 47.3604C37.3584 47.3604 37.64 47.2627 37.8809 47.0674C38.1217 46.8721 38.2552 46.6279 38.2812 46.335H39.1357C39.1195 46.6377 39.0153 46.9258 38.8232 47.1992C38.6312 47.4727 38.374 47.6908 38.0518 47.8535C37.7327 48.0163 37.3942 48.0977 37.0361 48.0977C36.3167 48.0977 35.7438 47.8584 35.3174 47.3799C34.8942 46.8981 34.6826 46.2406 34.6826 45.4072V45.2559C34.6826 44.7415 34.777 44.2842 34.9658 43.8838C35.1546 43.4834 35.4248 43.1725 35.7764 42.9512C36.1312 42.7298 36.5495 42.6191 37.0312 42.6191C37.6237 42.6191 38.1152 42.7965 38.5059 43.1514C38.8997 43.5062 39.1097 43.9668 39.1357 44.5332H38.2812C38.2552 44.1914 38.125 43.9115 37.8906 43.6934C37.6595 43.472 37.373 43.3613 37.0312 43.3613C36.5723 43.3613 36.2158 43.5273 35.9619 43.8594C35.7113 44.1882 35.5859 44.665 35.5859 45.29V45.4609C35.5859 46.0697 35.7113 46.5384 35.9619 46.8672C36.2126 47.196 36.5706 47.3604 37.0361 47.3604ZM42.0438 48.0977C41.3276 48.0977 40.7449 47.8633 40.2957 47.3945C39.8465 46.9225 39.6219 46.2926 39.6219 45.5049V45.3389C39.6219 44.8148 39.7212 44.3477 39.9197 43.9375C40.1216 43.5241 40.4015 43.2018 40.7596 42.9707C41.1209 42.7363 41.5115 42.6191 41.9314 42.6191C42.6183 42.6191 43.1521 42.8454 43.533 43.2979C43.9139 43.7503 44.1043 44.3981 44.1043 45.2412V45.6172H40.5252C40.5382 46.138 40.6896 46.5596 40.9793 46.8818C41.2723 47.2008 41.6434 47.3604 42.0926 47.3604C42.4116 47.3604 42.6818 47.2952 42.9031 47.165C43.1245 47.0348 43.3182 46.8623 43.4842 46.6475L44.0359 47.0771C43.5932 47.7575 42.9292 48.0977 42.0438 48.0977ZM41.9314 43.3613C41.5669 43.3613 41.2609 43.4948 41.0135 43.7617C40.7661 44.0254 40.6131 44.3965 40.5545 44.875H43.201V44.8066C43.1749 44.3477 43.0512 43.9928 42.8299 43.7422C42.6085 43.4883 42.3091 43.3613 41.9314 43.3613ZM44.6344 45.3145C44.6344 44.5039 44.8264 43.8529 45.2105 43.3613C45.5947 42.8665 46.0976 42.6191 46.7193 42.6191C47.3378 42.6191 47.8277 42.8307 48.1891 43.2539V40.5H49.0924V48H48.2623L48.2184 47.4336C47.857 47.8763 47.3541 48.0977 46.7096 48.0977C46.0976 48.0977 45.5979 47.847 45.2105 47.3457C44.8264 46.8444 44.6344 46.1901 44.6344 45.3828V45.3145ZM45.5377 45.417C45.5377 46.016 45.6614 46.4847 45.9088 46.8232C46.1562 47.1618 46.498 47.3311 46.9342 47.3311C47.5071 47.3311 47.9254 47.0739 48.1891 46.5596V44.1328C47.9189 43.6348 47.5038 43.3857 46.9439 43.3857C46.5012 43.3857 46.1562 43.5566 45.9088 43.8984C45.6614 44.2402 45.5377 44.7464 45.5377 45.417ZM49.9594 45.3096C49.9594 44.792 50.0603 44.3265 50.2621 43.9131C50.4672 43.4997 50.7504 43.1807 51.1117 42.9561C51.4763 42.7314 51.8913 42.6191 52.3568 42.6191C53.0762 42.6191 53.6573 42.8682 54.1 43.3662C54.546 43.8643 54.7689 44.5267 54.7689 45.3535V45.417C54.7689 45.9313 54.6697 46.3936 54.4711 46.8037C54.2758 47.2106 53.9942 47.528 53.6264 47.7559C53.2618 47.9837 52.8419 48.0977 52.3666 48.0977C51.6505 48.0977 51.0694 47.8486 50.6234 47.3506C50.1807 46.8525 49.9594 46.1934 49.9594 45.373V45.3096ZM50.8676 45.417C50.8676 46.0029 51.0027 46.4733 51.2729 46.8281C51.5463 47.1829 51.9109 47.3604 52.3666 47.3604C52.8256 47.3604 53.1902 47.1813 53.4604 46.8232C53.7305 46.4619 53.8656 45.9574 53.8656 45.3096C53.8656 44.7301 53.7273 44.2614 53.4506 43.9033C53.1771 43.542 52.8126 43.3613 52.3568 43.3613C51.9109 43.3613 51.5512 43.5387 51.2777 43.8936C51.0043 44.2484 50.8676 44.7562 50.8676 45.417ZM58.1555 43.5273C58.0187 43.5046 57.8706 43.4932 57.7111 43.4932C57.1187 43.4932 56.7167 43.7454 56.5051 44.25V48H55.6018V42.7168H56.4807L56.4953 43.3271C56.7915 42.8551 57.2115 42.6191 57.7551 42.6191C57.9309 42.6191 58.0643 42.6419 58.1555 42.6875V43.5273ZM60.7852 48.0977C60.069 48.0977 59.4863 47.8633 59.0371 47.3945C58.5879 46.9225 58.3633 46.2926 58.3633 45.5049V45.3389C58.3633 44.8148 58.4626 44.3477 58.6611 43.9375C58.863 43.5241 59.1429 43.2018 59.501 42.9707C59.8623 42.7363 60.2529 42.6191 60.6729 42.6191C61.3597 42.6191 61.8936 42.8454 62.2744 43.2979C62.6553 43.7503 62.8457 44.3981 62.8457 45.2412V45.6172H59.2666C59.2796 46.138 59.431 46.5596 59.7207 46.8818C60.0137 47.2008 60.3848 47.3604 60.834 47.3604C61.153 47.3604 61.4232 47.2952 61.6445 47.165C61.8659 47.0348 62.0596 46.8623 62.2256 46.6475L62.7773 47.0771C62.3346 47.7575 61.6706 48.0977 60.7852 48.0977ZM60.6729 43.3613C60.3083 43.3613 60.0023 43.4948 59.7549 43.7617C59.5075 44.0254 59.3545 44.3965 59.2959 44.875H61.9424V44.8066C61.9163 44.3477 61.7926 43.9928 61.5713 43.7422C61.3499 43.4883 61.0505 43.3613 60.6729 43.3613ZM66.6717 46.5986C66.6717 46.3545 66.5789 46.1657 66.3934 46.0322C66.2111 45.8955 65.8904 45.7783 65.4314 45.6807C64.9757 45.583 64.6128 45.4658 64.3426 45.3291C64.0757 45.1924 63.8771 45.0296 63.7469 44.8408C63.6199 44.652 63.5564 44.4274 63.5564 44.167C63.5564 43.734 63.7387 43.3678 64.1033 43.0684C64.4712 42.7689 64.9399 42.6191 65.5096 42.6191C66.1085 42.6191 66.5936 42.7738 66.9646 43.083C67.339 43.3923 67.5262 43.7878 67.5262 44.2695H66.618C66.618 44.0221 66.5122 43.8089 66.3006 43.6299C66.0923 43.4508 65.8286 43.3613 65.5096 43.3613C65.1808 43.3613 64.9236 43.4329 64.7381 43.5762C64.5525 43.7194 64.4598 43.9066 64.4598 44.1377C64.4598 44.3558 64.546 44.5202 64.7186 44.6309C64.8911 44.7415 65.202 44.8473 65.6512 44.9482C66.1036 45.0492 66.4699 45.1696 66.7498 45.3096C67.0298 45.4495 67.2365 45.6188 67.3699 45.8174C67.5066 46.0127 67.575 46.252 67.575 46.5352C67.575 47.0072 67.3862 47.3864 67.0086 47.6729C66.631 47.9561 66.1411 48.0977 65.5389 48.0977C65.1157 48.0977 64.7413 48.0228 64.4158 47.873C64.0903 47.7233 63.8348 47.515 63.6492 47.248C63.4669 46.9779 63.3758 46.6865 63.3758 46.374H64.2791C64.2954 46.6768 64.4158 46.9176 64.6404 47.0967C64.8683 47.2725 65.1678 47.3604 65.5389 47.3604C65.8807 47.3604 66.1541 47.292 66.3592 47.1553C66.5675 47.0153 66.6717 46.8298 66.6717 46.5986Z" fill="#666666"/>
<defs>
<filter id="filter0_d_7838:59992" x="0" y="0" width="70" height="38" filterUnits="userSpaceOnUse" color-interpolation-filters="sRGB">
<feFlood flood-opacity="0" result="BackgroundImageFix"/>
<feColorMatrix in="SourceAlpha" type="matrix" values="0 0 0 0 0 0 0 0 0 0 0 0 0 0 0 0 0 0 127 0" result="hardAlpha"/>
<feOffset dy="1"/>
<feGaussianBlur stdDeviation="1"/>
<feColorMatrix type="matrix" values="0 0 0 0 0 0 0 0 0 0 0 0 0 0 0 0 0 0 0.2 0"/>
<feBlend mode="normal" in2="BackgroundImageFix" result="effect1_dropShadow_7838:59992"/>
<feBlend mode="normal" in="SourceGraphic" in2="effect1_dropShadow_7838:59992" result="shape"/>
</filter>
</defs>
</svg>
