<svg width="70" height="65" viewBox="0 0 70 65" fill="none" xmlns="http://www.w3.org/2000/svg">
<g filter="url(#filter0_d_7838:60008)">
<rect x="2" y="1" width="66" height="34" rx="8" fill="#E7F3F9"/>
<path fill-rule="evenodd" clip-rule="evenodd" d="M39.5 14.0625C39.5 12.8199 38.4926 11.8125 37.25 11.8125H32.75C31.5074 11.8125 30.5 12.8199 30.5 14.0625V15.75C30.6182 16.6031 31.0135 17.3936 31.625 18C31.0135 18.6064 30.6182 19.3969 30.5 20.25V24.1875C30.5 25.4301 31.5074 26.4375 32.75 26.4375H37.25C38.4926 26.4375 39.5 25.4301 39.5 24.1875V20.25C39.3818 19.3969 38.9865 18.6064 38.375 18C38.9865 17.3936 39.3818 16.6031 39.5 15.75V14.0625Z" stroke="#007DC5" stroke-linecap="round" stroke-linejoin="round"/>
<path d="M35 11.8125V9.5625" stroke="#007DC5" stroke-linecap="round" stroke-linejoin="round"/>
<path d="M30.5 14.0625H39.5" stroke="#007DC5" stroke-linecap="round" stroke-linejoin="round"/>
<path d="M36.125 18L33.3125 20.8125H36.6875L33.875 23.625" stroke="#007DC5" stroke-linecap="round" stroke-linejoin="round"/>
</g>
<path d="M13.9986 44.7139H10.9176V47.2334H14.4967V48H9.98008V40.8906H14.4479V41.6621H10.9176V43.9473H13.9986V44.7139ZM16.0766 42.7168L16.1059 43.3809C16.5095 42.873 17.0368 42.6191 17.6879 42.6191C18.8044 42.6191 19.3676 43.249 19.3773 44.5088V48H18.474V44.5039C18.4708 44.123 18.3829 43.8415 18.2104 43.6592C18.0411 43.4769 17.7758 43.3857 17.4145 43.3857C17.1215 43.3857 16.8643 43.4639 16.643 43.6201C16.4216 43.7764 16.2491 43.9814 16.1254 44.2354V48H15.2221V42.7168H16.0766ZM22.632 48.0977C21.9159 48.0977 21.3332 47.8633 20.884 47.3945C20.4348 46.9225 20.2102 46.2926 20.2102 45.5049V45.3389C20.2102 44.8148 20.3094 44.3477 20.508 43.9375C20.7098 43.5241 20.9898 43.2018 21.3479 42.9707C21.7092 42.7363 22.0998 42.6191 22.5197 42.6191C23.2066 42.6191 23.7404 42.8454 24.1213 43.2979C24.5021 43.7503 24.6926 44.3981 24.6926 45.2412V45.6172H21.1135C21.1265 46.138 21.2779 46.5596 21.5676 46.8818C21.8605 47.2008 22.2316 47.3604 22.6809 47.3604C22.9999 47.3604 23.2701 47.2952 23.4914 47.165C23.7128 47.0348 23.9064 46.8623 24.0725 46.6475L24.6242 47.0771C24.1815 47.7575 23.5174 48.0977 22.632 48.0977ZM22.5197 43.3613C22.1551 43.3613 21.8492 43.4948 21.6018 43.7617C21.3544 44.0254 21.2014 44.3965 21.1428 44.875H23.7893V44.8066C23.7632 44.3477 23.6395 43.9928 23.4182 43.7422C23.1968 43.4883 22.8973 43.3613 22.5197 43.3613ZM27.9961 43.5273C27.8594 43.5046 27.7113 43.4932 27.5518 43.4932C26.9593 43.4932 26.5573 43.7454 26.3457 44.25V48H25.4424V42.7168H26.3213L26.3359 43.3271C26.6322 42.8551 27.0521 42.6191 27.5957 42.6191C27.7715 42.6191 27.9049 42.6419 27.9961 42.6875V43.5273ZM28.2186 45.3145C28.2186 44.4909 28.409 43.8366 28.7898 43.3516C29.1707 42.8633 29.6753 42.6191 30.3035 42.6191C30.948 42.6191 31.451 42.847 31.8123 43.3027L31.8562 42.7168H32.6814V47.873C32.6814 48.5566 32.478 49.0954 32.0711 49.4893C31.6674 49.8831 31.1238 50.0801 30.4402 50.0801C30.0594 50.0801 29.6867 49.9987 29.3221 49.8359C28.9575 49.6732 28.6792 49.4502 28.4871 49.167L28.9559 48.625C29.3432 49.1035 29.8169 49.3428 30.3768 49.3428C30.8162 49.3428 31.158 49.2191 31.4021 48.9717C31.6495 48.7243 31.7732 48.376 31.7732 47.9268V47.4727C31.4119 47.8893 30.9187 48.0977 30.2937 48.0977C29.6753 48.0977 29.174 47.8486 28.7898 47.3506C28.409 46.8525 28.2186 46.1738 28.2186 45.3145ZM29.1268 45.417C29.1268 46.0127 29.2488 46.4814 29.493 46.8232C29.7371 47.1618 30.0789 47.3311 30.5184 47.3311C31.088 47.3311 31.5063 47.0723 31.7732 46.5547V44.1426C31.4965 43.638 31.0815 43.3857 30.5281 43.3857C30.0887 43.3857 29.7452 43.5566 29.4979 43.8984C29.2505 44.2402 29.1268 44.7464 29.1268 45.417ZM35.941 48.0977C35.2249 48.0977 34.6422 47.8633 34.193 47.3945C33.7438 46.9225 33.5191 46.2926 33.5191 45.5049V45.3389C33.5191 44.8148 33.6184 44.3477 33.817 43.9375C34.0188 43.5241 34.2988 43.2018 34.6568 42.9707C35.0182 42.7363 35.4088 42.6191 35.8287 42.6191C36.5156 42.6191 37.0494 42.8454 37.4303 43.2979C37.8111 43.7503 38.0016 44.3981 38.0016 45.2412V45.6172H34.4225C34.4355 46.138 34.5869 46.5596 34.8766 46.8818C35.1695 47.2008 35.5406 47.3604 35.9898 47.3604C36.3089 47.3604 36.579 47.2952 36.8004 47.165C37.0217 47.0348 37.2154 46.8623 37.3814 46.6475L37.9332 47.0771C37.4905 47.7575 36.8264 48.0977 35.941 48.0977ZM35.8287 43.3613C35.4641 43.3613 35.1581 43.4948 34.9107 43.7617C34.6633 44.0254 34.5104 44.3965 34.4518 44.875H37.0982V44.8066C37.0722 44.3477 36.9485 43.9928 36.7271 43.7422C36.5058 43.4883 36.2063 43.3613 35.8287 43.3613ZM36.2682 40.5H37.3619L36.0533 41.9355H35.3258L36.2682 40.5ZM39.977 41.4375V42.7168H40.9633V43.415H39.977V46.6914C39.977 46.903 40.0209 47.0625 40.1088 47.1699C40.1967 47.2741 40.3464 47.3262 40.558 47.3262C40.6622 47.3262 40.8054 47.3066 40.9877 47.2676V48C40.7501 48.0651 40.5189 48.0977 40.2943 48.0977C39.8907 48.0977 39.5863 47.9756 39.3812 47.7314C39.1762 47.4873 39.0736 47.1406 39.0736 46.6914V43.415H38.1117V42.7168H39.0736V41.4375H39.977ZM42.7043 48H41.801V42.7168H42.7043V48ZM41.7277 41.3154C41.7277 41.1689 41.7717 41.0452 41.8596 40.9443C41.9507 40.8434 42.0842 40.793 42.26 40.793C42.4357 40.793 42.5692 40.8434 42.6604 40.9443C42.7515 41.0452 42.7971 41.1689 42.7971 41.3154C42.7971 41.4619 42.7515 41.584 42.6604 41.6816C42.5692 41.7793 42.4357 41.8281 42.26 41.8281C42.0842 41.8281 41.9507 41.7793 41.8596 41.6816C41.7717 41.584 41.7277 41.4619 41.7277 41.3154ZM45.9736 47.3604C46.2959 47.3604 46.5775 47.2627 46.8184 47.0674C47.0592 46.8721 47.1927 46.6279 47.2188 46.335H48.0732C48.057 46.6377 47.9528 46.9258 47.7607 47.1992C47.5687 47.4727 47.3115 47.6908 46.9893 47.8535C46.6702 48.0163 46.3317 48.0977 45.9736 48.0977C45.2542 48.0977 44.6813 47.8584 44.2549 47.3799C43.8317 46.8981 43.6201 46.2406 43.6201 45.4072V45.2559C43.6201 44.7415 43.7145 44.2842 43.9033 43.8838C44.0921 43.4834 44.3623 43.1725 44.7139 42.9512C45.0687 42.7298 45.487 42.6191 45.9688 42.6191C46.5612 42.6191 47.0527 42.7965 47.4434 43.1514C47.8372 43.5062 48.0472 43.9668 48.0732 44.5332H47.2188C47.1927 44.1914 47.0625 43.9115 46.8281 43.6934C46.597 43.472 46.3105 43.3613 45.9688 43.3613C45.5098 43.3613 45.1533 43.5273 44.8994 43.8594C44.6488 44.1882 44.5234 44.665 44.5234 45.29V45.4609C44.5234 46.0697 44.6488 46.5384 44.8994 46.8672C45.1501 47.196 45.5081 47.3604 45.9736 47.3604ZM48.5496 45.3096C48.5496 44.792 48.6505 44.3265 48.8523 43.9131C49.0574 43.4997 49.3406 43.1807 49.702 42.9561C50.0665 42.7314 50.4816 42.6191 50.9471 42.6191C51.6665 42.6191 52.2475 42.8682 52.6902 43.3662C53.1362 43.8643 53.3592 44.5267 53.3592 45.3535V45.417C53.3592 45.9313 53.2599 46.3936 53.0613 46.8037C52.866 47.2106 52.5844 47.528 52.2166 47.7559C51.852 47.9837 51.4321 48.0977 50.9568 48.0977C50.2407 48.0977 49.6596 47.8486 49.2137 47.3506C48.771 46.8525 48.5496 46.1934 48.5496 45.373V45.3096ZM49.4578 45.417C49.4578 46.0029 49.5929 46.4733 49.8631 46.8281C50.1365 47.1829 50.5011 47.3604 50.9568 47.3604C51.4158 47.3604 51.7804 47.1813 52.0506 46.8232C52.3208 46.4619 52.4559 45.9574 52.4559 45.3096C52.4559 44.7301 52.3175 44.2614 52.0408 43.9033C51.7674 43.542 51.4028 43.3613 50.9471 43.3613C50.5011 43.3613 50.1414 43.5387 49.868 43.8936C49.5945 44.2484 49.4578 44.7562 49.4578 45.417ZM57.2682 46.5986C57.2682 46.3545 57.1754 46.1657 56.9898 46.0322C56.8076 45.8955 56.4869 45.7783 56.0279 45.6807C55.5722 45.583 55.2092 45.4658 54.9391 45.3291C54.6721 45.1924 54.4736 45.0296 54.3434 44.8408C54.2164 44.652 54.1529 44.4274 54.1529 44.167C54.1529 43.734 54.3352 43.3678 54.6998 43.0684C55.0676 42.7689 55.5364 42.6191 56.1061 42.6191C56.705 42.6191 57.19 42.7738 57.5611 43.083C57.9355 43.3923 58.1227 43.7878 58.1227 44.2695H57.2145C57.2145 44.0221 57.1087 43.8089 56.8971 43.6299C56.6887 43.4508 56.4251 43.3613 56.1061 43.3613C55.7773 43.3613 55.5201 43.4329 55.3346 43.5762C55.149 43.7194 55.0563 43.9066 55.0563 44.1377C55.0563 44.3558 55.1425 44.5202 55.315 44.6309C55.4876 44.7415 55.7984 44.8473 56.2477 44.9482C56.7001 45.0492 57.0663 45.1696 57.3463 45.3096C57.6262 45.4495 57.8329 45.6188 57.9664 45.8174C58.1031 46.0127 58.1715 46.252 58.1715 46.5352C58.1715 47.0072 57.9827 47.3864 57.6051 47.6729C57.2275 47.9561 56.7376 48.0977 56.1354 48.0977C55.7122 48.0977 55.3378 48.0228 55.0123 47.873C54.6868 47.7233 54.4313 47.515 54.2457 47.248C54.0634 46.9779 53.9723 46.6865 53.9723 46.374H54.8756C54.8919 46.6768 55.0123 46.9176 55.2369 47.0967C55.4648 47.2725 55.7643 47.3604 56.1354 47.3604C56.4771 47.3604 56.7506 47.292 56.9557 47.1553C57.164 47.0153 57.2682 46.8298 57.2682 46.5986ZM12.5289 60.0977C11.8128 60.0977 11.2301 59.8633 10.7809 59.3945C10.3316 58.9225 10.107 58.2926 10.107 57.5049V57.3389C10.107 56.8148 10.2063 56.3477 10.4049 55.9375C10.6067 55.5241 10.8867 55.2018 11.2447 54.9707C11.6061 54.7363 11.9967 54.6191 12.4166 54.6191C13.1035 54.6191 13.6373 54.8454 14.0182 55.2979C14.399 55.7503 14.5895 56.3981 14.5895 57.2412V57.6172H11.0104C11.0234 58.138 11.1747 58.5596 11.4645 58.8818C11.7574 59.2008 12.1285 59.3604 12.5777 59.3604C12.8967 59.3604 13.1669 59.2952 13.3883 59.165C13.6096 59.0348 13.8033 58.8623 13.9693 58.6475L14.5211 59.0771C14.0784 59.7575 13.4143 60.0977 12.5289 60.0977ZM12.4166 55.3613C12.052 55.3613 11.746 55.4948 11.4986 55.7617C11.2512 56.0254 11.0982 56.3965 11.0396 56.875H13.6861V56.8066C13.6601 56.3477 13.5364 55.9928 13.315 55.7422C13.0937 55.4883 12.7942 55.3613 12.4166 55.3613ZM18.5012 60H17.5979V54.7168H18.5012V60ZM17.5246 53.3154C17.5246 53.1689 17.5686 53.0452 17.6564 52.9443C17.7476 52.8434 17.8811 52.793 18.0568 52.793C18.2326 52.793 18.3661 52.8434 18.4572 52.9443C18.5484 53.0452 18.5939 53.1689 18.5939 53.3154C18.5939 53.4619 18.5484 53.584 18.4572 53.6816C18.3661 53.7793 18.2326 53.8281 18.0568 53.8281C17.8811 53.8281 17.7476 53.7793 17.6564 53.6816C17.5686 53.584 17.5246 53.4619 17.5246 53.3154ZM22.7275 58.5986C22.7275 58.3545 22.6348 58.1657 22.4492 58.0322C22.2669 57.8955 21.9463 57.7783 21.4873 57.6807C21.0316 57.583 20.6686 57.4658 20.3984 57.3291C20.1315 57.1924 19.9329 57.0296 19.8027 56.8408C19.6758 56.652 19.6123 56.4274 19.6123 56.167C19.6123 55.734 19.7946 55.3678 20.1592 55.0684C20.527 54.7689 20.9958 54.6191 21.5654 54.6191C22.1644 54.6191 22.6494 54.7738 23.0205 55.083C23.3949 55.3923 23.582 55.7878 23.582 56.2695H22.6738C22.6738 56.0221 22.568 55.8089 22.3564 55.6299C22.1481 55.4508 21.8844 55.3613 21.5654 55.3613C21.2367 55.3613 20.9795 55.4329 20.7939 55.5762C20.6084 55.7194 20.5156 55.9066 20.5156 56.1377C20.5156 56.3558 20.6019 56.5202 20.7744 56.6309C20.9469 56.7415 21.2578 56.8473 21.707 56.9482C22.1595 57.0492 22.5257 57.1696 22.8057 57.3096C23.0856 57.4495 23.2923 57.6188 23.4258 57.8174C23.5625 58.0127 23.6309 58.252 23.6309 58.5352C23.6309 59.0072 23.4421 59.3864 23.0645 59.6729C22.6868 59.9561 22.1969 60.0977 21.5947 60.0977C21.1715 60.0977 20.7972 60.0228 20.4717 59.873C20.1462 59.7233 19.8906 59.515 19.7051 59.248C19.5228 58.9779 19.4316 58.6865 19.4316 58.374H20.335C20.3512 58.6768 20.4717 58.9176 20.6963 59.0967C20.9242 59.2725 21.2236 59.3604 21.5947 59.3604C21.9365 59.3604 22.21 59.292 22.415 59.1553C22.6234 59.0153 22.7275 58.8298 22.7275 58.5986ZM24.2684 57.3096C24.2684 56.792 24.3693 56.3265 24.5711 55.9131C24.7762 55.4997 25.0594 55.1807 25.4207 54.9561C25.7853 54.7314 26.2003 54.6191 26.6658 54.6191C27.3852 54.6191 27.9663 54.8682 28.409 55.3662C28.8549 55.8643 29.0779 56.5267 29.0779 57.3535V57.417C29.0779 57.9313 28.9786 58.3936 28.7801 58.8037C28.5848 59.2106 28.3032 59.528 27.9354 59.7559C27.5708 59.9837 27.1508 60.0977 26.6756 60.0977C25.9594 60.0977 25.3784 59.8486 24.9324 59.3506C24.4897 58.8525 24.2684 58.1934 24.2684 57.373V57.3096ZM25.1766 57.417C25.1766 58.0029 25.3117 58.4733 25.5818 58.8281C25.8553 59.1829 26.2199 59.3604 26.6756 59.3604C27.1346 59.3604 27.4992 59.1813 27.7693 58.8232C28.0395 58.4619 28.1746 57.9574 28.1746 57.3096C28.1746 56.7301 28.0363 56.2614 27.7596 55.9033C27.4861 55.542 27.1216 55.3613 26.6658 55.3613C26.2199 55.3613 25.8602 55.5387 25.5867 55.8936C25.3133 56.2484 25.1766 56.7562 25.1766 57.417ZM31.1363 53.4375V54.7168H32.1227V55.415H31.1363V58.6914C31.1363 58.903 31.1803 59.0625 31.2682 59.1699C31.3561 59.2741 31.5058 59.3262 31.7174 59.3262C31.8215 59.3262 31.9648 59.3066 32.1471 59.2676V60C31.9094 60.0651 31.6783 60.0977 31.4537 60.0977C31.0501 60.0977 30.7457 59.9756 30.5406 59.7314C30.3355 59.4873 30.233 59.1406 30.233 58.6914V55.415H29.2711V54.7168H30.233V53.4375H31.1363ZM32.5453 57.3096C32.5453 56.792 32.6462 56.3265 32.848 55.9131C33.0531 55.4997 33.3363 55.1807 33.6977 54.9561C34.0622 54.7314 34.4773 54.6191 34.9428 54.6191C35.6622 54.6191 36.2432 54.8682 36.6859 55.3662C37.1319 55.8643 37.3549 56.5267 37.3549 57.3535V57.417C37.3549 57.9313 37.2556 58.3936 37.057 58.8037C36.8617 59.2106 36.5801 59.528 36.2123 59.7559C35.8477 59.9837 35.4278 60.0977 34.9525 60.0977C34.2364 60.0977 33.6553 59.8486 33.2094 59.3506C32.7667 58.8525 32.5453 58.1934 32.5453 57.373V57.3096ZM33.4535 57.417C33.4535 58.0029 33.5886 58.4733 33.8588 58.8281C34.1322 59.1829 34.4968 59.3604 34.9525 59.3604C35.4115 59.3604 35.7761 59.1813 36.0463 58.8232C36.3165 58.4619 36.4516 57.9574 36.4516 57.3096C36.4516 56.7301 36.3132 56.2614 36.0365 55.9033C35.7631 55.542 35.3985 55.3613 34.9428 55.3613C34.4968 55.3613 34.1371 55.5387 33.8637 55.8936C33.5902 56.2484 33.4535 56.7562 33.4535 57.417ZM36.3881 53.8379V53.8867H35.641L34.9086 53.0566L34.1811 53.8867H33.434V53.8281L34.6352 52.5H35.182L36.3881 53.8379ZM39.0422 54.7168L39.0715 55.3809C39.4751 54.873 40.0025 54.6191 40.6535 54.6191C41.7701 54.6191 42.3332 55.249 42.343 56.5088V60H41.4396V56.5039C41.4364 56.123 41.3485 55.8415 41.176 55.6592C41.0067 55.4769 40.7414 55.3857 40.3801 55.3857C40.0871 55.3857 39.8299 55.4639 39.6086 55.6201C39.3872 55.7764 39.2147 55.9814 39.091 56.2354V60H38.1877V54.7168H39.0422ZM44.3867 60H43.4834V54.7168H44.3867V60ZM43.4102 53.3154C43.4102 53.1689 43.4541 53.0452 43.542 52.9443C43.6331 52.8434 43.7666 52.793 43.9424 52.793C44.1182 52.793 44.2516 52.8434 44.3428 52.9443C44.4339 53.0452 44.4795 53.1689 44.4795 53.3154C44.4795 53.4619 44.4339 53.584 44.3428 53.6816C44.2516 53.7793 44.1182 53.8281 43.9424 53.8281C43.7666 53.8281 43.6331 53.7793 43.542 53.6816C43.4541 53.584 43.4102 53.4619 43.4102 53.3154ZM47.6561 59.3604C47.9783 59.3604 48.2599 59.2627 48.5008 59.0674C48.7417 58.8721 48.8751 58.6279 48.9012 58.335H49.7557C49.7394 58.6377 49.6352 58.9258 49.4432 59.1992C49.2511 59.4727 48.9939 59.6908 48.6717 59.8535C48.3527 60.0163 48.0141 60.0977 47.6561 60.0977C46.9367 60.0977 46.3637 59.8584 45.9373 59.3799C45.5141 58.8981 45.3025 58.2406 45.3025 57.4072V57.2559C45.3025 56.7415 45.3969 56.2842 45.5857 55.8838C45.7745 55.4834 46.0447 55.1725 46.3963 54.9512C46.7511 54.7298 47.1694 54.6191 47.6512 54.6191C48.2436 54.6191 48.7352 54.7965 49.1258 55.1514C49.5197 55.5062 49.7296 55.9668 49.7557 56.5332H48.9012C48.8751 56.1914 48.7449 55.9115 48.5105 55.6934C48.2794 55.472 47.993 55.3613 47.6512 55.3613C47.1922 55.3613 46.8357 55.5273 46.5818 55.8594C46.3312 56.1882 46.2059 56.665 46.2059 57.29V57.4609C46.2059 58.0697 46.3312 58.5384 46.5818 58.8672C46.8325 59.196 47.1906 59.3604 47.6561 59.3604ZM50.232 57.3096C50.232 56.792 50.3329 56.3265 50.5348 55.9131C50.7398 55.4997 51.023 55.1807 51.3844 54.9561C51.749 54.7314 52.164 54.6191 52.6295 54.6191C53.3489 54.6191 53.9299 54.8682 54.3727 55.3662C54.8186 55.8643 55.0416 56.5267 55.0416 57.3535V57.417C55.0416 57.9313 54.9423 58.3936 54.7438 58.8037C54.5484 59.2106 54.2669 59.528 53.899 59.7559C53.5344 59.9837 53.1145 60.0977 52.6393 60.0977C51.9231 60.0977 51.3421 59.8486 50.8961 59.3506C50.4534 58.8525 50.232 58.1934 50.232 57.373V57.3096ZM51.1402 57.417C51.1402 58.0029 51.2753 58.4733 51.5455 58.8281C51.8189 59.1829 52.1835 59.3604 52.6393 59.3604C53.0982 59.3604 53.4628 59.1813 53.733 58.8232C54.0032 58.4619 54.1383 57.9574 54.1383 57.3096C54.1383 56.7301 53.9999 56.2614 53.7232 55.9033C53.4498 55.542 53.0852 55.3613 52.6295 55.3613C52.1835 55.3613 51.8238 55.5387 51.5504 55.8936C51.277 56.2484 51.1402 56.7562 51.1402 57.417ZM58.9506 58.5986C58.9506 58.3545 58.8578 58.1657 58.6723 58.0322C58.49 57.8955 58.1693 57.7783 57.7104 57.6807C57.2546 57.583 56.8917 57.4658 56.6215 57.3291C56.3546 57.1924 56.156 57.0296 56.0258 56.8408C55.8988 56.652 55.8354 56.4274 55.8354 56.167C55.8354 55.734 56.0176 55.3678 56.3822 55.0684C56.7501 54.7689 57.2188 54.6191 57.7885 54.6191C58.3874 54.6191 58.8725 54.7738 59.2436 55.083C59.6179 55.3923 59.8051 55.7878 59.8051 56.2695H58.8969C58.8969 56.0221 58.7911 55.8089 58.5795 55.6299C58.3712 55.4508 58.1075 55.3613 57.7885 55.3613C57.4597 55.3613 57.2025 55.4329 57.017 55.5762C56.8314 55.7194 56.7387 55.9066 56.7387 56.1377C56.7387 56.3558 56.8249 56.5202 56.9975 56.6309C57.17 56.7415 57.4809 56.8473 57.9301 56.9482C58.3826 57.0492 58.7488 57.1696 59.0287 57.3096C59.3087 57.4495 59.5154 57.6188 59.6488 57.8174C59.7855 58.0127 59.8539 58.252 59.8539 58.5352C59.8539 59.0072 59.6651 59.3864 59.2875 59.6729C58.9099 59.9561 58.42 60.0977 57.8178 60.0977C57.3946 60.0977 57.0202 60.0228 56.6947 59.873C56.3692 59.7233 56.1137 59.515 55.9281 59.248C55.7458 58.9779 55.6547 58.6865 55.6547 58.374H56.558C56.5743 58.6768 56.6947 58.9176 56.9193 59.0967C57.1472 59.2725 57.4467 59.3604 57.8178 59.3604C58.1596 59.3604 58.433 59.292 58.6381 59.1553C58.8464 59.0153 58.9506 58.8298 58.9506 58.5986Z" fill="#666666"/>
<defs>
<filter id="filter0_d_7838:60008" x="0" y="0" width="70" height="38" filterUnits="userSpaceOnUse" color-interpolation-filters="sRGB">
<feFlood flood-opacity="0" result="BackgroundImageFix"/>
<feColorMatrix in="SourceAlpha" type="matrix" values="0 0 0 0 0 0 0 0 0 0 0 0 0 0 0 0 0 0 127 0" result="hardAlpha"/>
<feOffset dy="1"/>
<feGaussianBlur stdDeviation="1"/>
<feColorMatrix type="matrix" values="0 0 0 0 0 0 0 0 0 0 0 0 0 0 0 0 0 0 0.2 0"/>
<feBlend mode="normal" in2="BackgroundImageFix" result="effect1_dropShadow_7838:60008"/>
<feBlend mode="normal" in="SourceGraphic" in2="effect1_dropShadow_7838:60008" result="shape"/>
</filter>
</defs>
</svg>
