<svg width="70" height="65" viewBox="0 0 70 65" fill="none" xmlns="http://www.w3.org/2000/svg">
<g filter="url(#filter0_d_7838:60135)">
<rect x="2" y="1" width="66" height="34" rx="8" fill="#E7F3F9"/>
<path fill-rule="evenodd" clip-rule="evenodd" d="M36.1837 24.5636C36.1837 24.5636 37.098 26.4348 38.6362 26.2938C41.7547 26.0088 41.5462 21.8636 42.6862 20.3996C40.73 19.4255 38.4257 19.4464 36.4875 20.4558C34.872 21.3686 34.7572 22.9091 36.1837 24.5636Z" stroke="#007DC5" stroke-linecap="round" stroke-linejoin="round"/>
<path d="M38.3891 22.6641C38.3891 22.6641 36.3641 22.9146 34.9219 26.4366" stroke="#007DC5" stroke-linecap="round" stroke-linejoin="round"/>
<path d="M32.5625 26.4375H28.625C28.0037 26.4375 27.5 25.9338 27.5 25.3125V12.9375C27.5 12.3162 28.0037 11.8125 28.625 11.8125H36.5C37.1213 11.8125 37.625 12.3162 37.625 12.9375V18" stroke="#007DC5" stroke-linecap="round" stroke-linejoin="round"/>
<path fill-rule="evenodd" clip-rule="evenodd" d="M31.0625 9.5625H34.0625C34.4767 9.5625 34.8125 9.89829 34.8125 10.3125V11.8125H30.3125V10.3125C30.3125 9.89829 30.6483 9.5625 31.0625 9.5625Z" stroke="#007DC5" stroke-linecap="round" stroke-linejoin="round"/>
</g>
<path d="M8.8627 44.8604H5.8793V48H4.9418V40.8906H9.34609V41.6621H5.8793V44.0938H8.8627V44.8604ZM11.009 48H10.1057V42.7168H11.009V48ZM10.0324 41.3154C10.0324 41.1689 10.0764 41.0452 10.1643 40.9443C10.2554 40.8434 10.3889 40.793 10.5646 40.793C10.7404 40.793 10.8739 40.8434 10.965 40.9443C11.0562 41.0452 11.1018 41.1689 11.1018 41.3154C11.1018 41.4619 11.0562 41.584 10.965 41.6816C10.8739 41.7793 10.7404 41.8281 10.5646 41.8281C10.3889 41.8281 10.2554 41.7793 10.1643 41.6816C10.0764 41.584 10.0324 41.4619 10.0324 41.3154ZM13.3848 41.4375V42.7168H14.3711V43.415H13.3848V46.6914C13.3848 46.903 13.4287 47.0625 13.5166 47.1699C13.6045 47.2741 13.7542 47.3262 13.9658 47.3262C14.07 47.3262 14.2132 47.3066 14.3955 47.2676V48C14.1579 48.0651 13.9268 48.0977 13.7021 48.0977C13.2985 48.0977 12.9941 47.9756 12.7891 47.7314C12.584 47.4873 12.4814 47.1406 12.4814 46.6914V43.415H11.5195V42.7168H12.4814V41.4375H13.3848ZM14.7938 45.3096C14.7938 44.792 14.8947 44.3265 15.0965 43.9131C15.3016 43.4997 15.5848 43.1807 15.9461 42.9561C16.3107 42.7314 16.7257 42.6191 17.1912 42.6191C17.9106 42.6191 18.4917 42.8682 18.9344 43.3662C19.3803 43.8643 19.6033 44.5267 19.6033 45.3535V45.417C19.6033 45.9313 19.504 46.3936 19.3055 46.8037C19.1102 47.2106 18.8286 47.528 18.4607 47.7559C18.0962 47.9837 17.6762 48.0977 17.201 48.0977C16.4848 48.0977 15.9038 47.8486 15.4578 47.3506C15.0151 46.8525 14.7938 46.1934 14.7938 45.373V45.3096ZM15.702 45.417C15.702 46.0029 15.837 46.4733 16.1072 46.8281C16.3807 47.1829 16.7452 47.3604 17.201 47.3604C17.66 47.3604 18.0245 47.1813 18.2947 46.8232C18.5649 46.4619 18.7 45.9574 18.7 45.3096C18.7 44.7301 18.5617 44.2614 18.285 43.9033C18.0115 43.542 17.6469 43.3613 17.1912 43.3613C16.7452 43.3613 16.3855 43.5387 16.1121 43.8936C15.8387 44.2484 15.702 44.7562 15.702 45.417ZM21.6617 41.4375V42.7168H22.648V43.415H21.6617V46.6914C21.6617 46.903 21.7057 47.0625 21.7936 47.1699C21.8814 47.2741 22.0312 47.3262 22.2428 47.3262C22.3469 47.3262 22.4902 47.3066 22.6725 47.2676V48C22.4348 48.0651 22.2037 48.0977 21.9791 48.0977C21.5755 48.0977 21.2711 47.9756 21.066 47.7314C20.8609 47.4873 20.7584 47.1406 20.7584 46.6914V43.415H19.7965V42.7168H20.7584V41.4375H21.6617ZM25.6 48.0977C24.8839 48.0977 24.3012 47.8633 23.852 47.3945C23.4027 46.9225 23.1781 46.2926 23.1781 45.5049V45.3389C23.1781 44.8148 23.2774 44.3477 23.476 43.9375C23.6778 43.5241 23.9577 43.2018 24.3158 42.9707C24.6771 42.7363 25.0678 42.6191 25.4877 42.6191C26.1745 42.6191 26.7084 42.8454 27.0893 43.2979C27.4701 43.7503 27.6605 44.3981 27.6605 45.2412V45.6172H24.0814C24.0945 46.138 24.2458 46.5596 24.5355 46.8818C24.8285 47.2008 25.1996 47.3604 25.6488 47.3604C25.9678 47.3604 26.238 47.2952 26.4594 47.165C26.6807 47.0348 26.8744 46.8623 27.0404 46.6475L27.5922 47.0771C27.1495 47.7575 26.4854 48.0977 25.6 48.0977ZM25.4877 43.3613C25.1231 43.3613 24.8171 43.4948 24.5697 43.7617C24.3223 44.0254 24.1693 44.3965 24.1107 44.875H26.7572V44.8066C26.7312 44.3477 26.6075 43.9928 26.3861 43.7422C26.1648 43.4883 25.8653 43.3613 25.4877 43.3613ZM30.9641 43.5273C30.8273 43.5046 30.6792 43.4932 30.5197 43.4932C29.9273 43.4932 29.5253 43.7454 29.3137 44.25V48H28.4104V42.7168H29.2893L29.3039 43.3271C29.6001 42.8551 30.0201 42.6191 30.5637 42.6191C30.7395 42.6191 30.8729 42.6419 30.9641 42.6875V43.5273ZM34.5654 48C34.5133 47.8958 34.471 47.7103 34.4385 47.4434C34.0186 47.8796 33.5173 48.0977 32.9346 48.0977C32.4137 48.0977 31.9857 47.9512 31.6504 47.6582C31.3184 47.362 31.1523 46.9876 31.1523 46.5352C31.1523 45.985 31.3607 45.5586 31.7773 45.2559C32.1973 44.9499 32.7865 44.7969 33.5449 44.7969H34.4238V44.3818C34.4238 44.0661 34.3294 43.8154 34.1406 43.6299C33.9518 43.4411 33.6735 43.3467 33.3057 43.3467C32.9834 43.3467 32.7132 43.4281 32.4951 43.5908C32.277 43.7536 32.168 43.9505 32.168 44.1816H31.2598C31.2598 43.918 31.3525 43.6641 31.5381 43.4199C31.7269 43.1725 31.9808 42.9772 32.2998 42.834C32.6221 42.6908 32.9753 42.6191 33.3594 42.6191C33.9681 42.6191 34.445 42.7721 34.79 43.0781C35.1351 43.3809 35.3141 43.7992 35.3271 44.333V46.7646C35.3271 47.2497 35.389 47.6354 35.5127 47.9219V48H34.5654ZM33.0664 47.3115C33.3496 47.3115 33.6182 47.2383 33.8721 47.0918C34.126 46.9453 34.3099 46.7549 34.4238 46.5205V45.4365H33.7158C32.609 45.4365 32.0557 45.7604 32.0557 46.4082C32.0557 46.6914 32.1501 46.9128 32.3389 47.0723C32.5277 47.2318 32.7702 47.3115 33.0664 47.3115ZM33.9014 40.5H34.9951L33.6865 41.9355H32.959L33.9014 40.5ZM40.9061 45.417C40.9061 46.221 40.7221 46.8688 40.3543 47.3604C39.9865 47.8519 39.4884 48.0977 38.8602 48.0977C38.2189 48.0977 37.7143 47.8942 37.3465 47.4873V50.0312H36.4432V42.7168H37.2684L37.3123 43.3027C37.6801 42.847 38.1912 42.6191 38.8455 42.6191C39.4803 42.6191 39.9816 42.8584 40.3494 43.3369C40.7205 43.8154 40.9061 44.4811 40.9061 45.334V45.417ZM40.0027 45.3145C40.0027 44.7188 39.8758 44.2484 39.6219 43.9033C39.368 43.5583 39.0197 43.3857 38.577 43.3857C38.0301 43.3857 37.6199 43.6283 37.3465 44.1133V46.6377C37.6167 47.1195 38.0301 47.3604 38.5867 47.3604C39.0197 47.3604 39.3631 47.1895 39.617 46.8477C39.8742 46.5026 40.0027 45.9915 40.0027 45.3145ZM42.7398 48H41.8365V42.7168H42.7398V48ZM41.7633 41.3154C41.7633 41.1689 41.8072 41.0452 41.8951 40.9443C41.9863 40.8434 42.1197 40.793 42.2955 40.793C42.4713 40.793 42.6048 40.8434 42.6959 40.9443C42.787 41.0452 42.8326 41.1689 42.8326 41.3154C42.8326 41.4619 42.787 41.584 42.6959 41.6816C42.6048 41.7793 42.4713 41.8281 42.2955 41.8281C42.1197 41.8281 41.9863 41.7793 41.8951 41.6816C41.8072 41.584 41.7633 41.4619 41.7633 41.3154ZM46.0092 47.3604C46.3314 47.3604 46.613 47.2627 46.8539 47.0674C47.0948 46.8721 47.2283 46.6279 47.2543 46.335H48.1088C48.0925 46.6377 47.9883 46.9258 47.7963 47.1992C47.6042 47.4727 47.3471 47.6908 47.0248 47.8535C46.7058 48.0163 46.3673 48.0977 46.0092 48.0977C45.2898 48.0977 44.7169 47.8584 44.2904 47.3799C43.8673 46.8981 43.6557 46.2406 43.6557 45.4072V45.2559C43.6557 44.7415 43.7501 44.2842 43.9389 43.8838C44.1277 43.4834 44.3979 43.1725 44.7494 42.9512C45.1042 42.7298 45.5225 42.6191 46.0043 42.6191C46.5967 42.6191 47.0883 42.7965 47.4789 43.1514C47.8728 43.5062 48.0827 43.9668 48.1088 44.5332H47.2543C47.2283 44.1914 47.098 43.9115 46.8637 43.6934C46.6326 43.472 46.3461 43.3613 46.0043 43.3613C45.5453 43.3613 45.1889 43.5273 44.935 43.8594C44.6843 44.1882 44.559 44.665 44.559 45.29V45.4609C44.559 46.0697 44.6843 46.5384 44.935 46.8672C45.1856 47.196 45.5437 47.3604 46.0092 47.3604ZM48.5852 45.3096C48.5852 44.792 48.6861 44.3265 48.8879 43.9131C49.093 43.4997 49.3762 43.1807 49.7375 42.9561C50.1021 42.7314 50.5171 42.6191 50.9826 42.6191C51.702 42.6191 52.2831 42.8682 52.7258 43.3662C53.1717 43.8643 53.3947 44.5267 53.3947 45.3535V45.417C53.3947 45.9313 53.2954 46.3936 53.0969 46.8037C52.9016 47.2106 52.62 47.528 52.2522 47.7559C51.8876 47.9837 51.4676 48.0977 50.9924 48.0977C50.2762 48.0977 49.6952 47.8486 49.2492 47.3506C48.8065 46.8525 48.5852 46.1934 48.5852 45.373V45.3096ZM49.4934 45.417C49.4934 46.0029 49.6285 46.4733 49.8986 46.8281C50.1721 47.1829 50.5367 47.3604 50.9924 47.3604C51.4514 47.3604 51.816 47.1813 52.0861 46.8232C52.3563 46.4619 52.4914 45.9574 52.4914 45.3096C52.4914 44.7301 52.3531 44.2614 52.0764 43.9033C51.8029 43.542 51.4383 43.3613 50.9826 43.3613C50.5367 43.3613 50.177 43.5387 49.9035 43.8936C49.6301 44.2484 49.4934 44.7562 49.4934 45.417ZM57.3037 46.5986C57.3037 46.3545 57.2109 46.1657 57.0254 46.0322C56.8431 45.8955 56.5225 45.7783 56.0635 45.6807C55.6077 45.583 55.2448 45.4658 54.9746 45.3291C54.7077 45.1924 54.5091 45.0296 54.3789 44.8408C54.252 44.652 54.1885 44.4274 54.1885 44.167C54.1885 43.734 54.3708 43.3678 54.7354 43.0684C55.1032 42.7689 55.5719 42.6191 56.1416 42.6191C56.7406 42.6191 57.2256 42.7738 57.5967 43.083C57.971 43.3923 58.1582 43.7878 58.1582 44.2695H57.25C57.25 44.0221 57.1442 43.8089 56.9326 43.6299C56.7243 43.4508 56.4606 43.3613 56.1416 43.3613C55.8128 43.3613 55.5557 43.4329 55.3701 43.5762C55.1846 43.7194 55.0918 43.9066 55.0918 44.1377C55.0918 44.3558 55.1781 44.5202 55.3506 44.6309C55.5231 44.7415 55.834 44.8473 56.2832 44.9482C56.7357 45.0492 57.1019 45.1696 57.3818 45.3096C57.6618 45.4495 57.8685 45.6188 58.002 45.8174C58.1387 46.0127 58.207 46.252 58.207 46.5352C58.207 47.0072 58.0182 47.3864 57.6406 47.6729C57.263 47.9561 56.7731 48.0977 56.1709 48.0977C55.7477 48.0977 55.3734 48.0228 55.0479 47.873C54.7223 47.7233 54.4668 47.515 54.2812 47.248C54.099 46.9779 54.0078 46.6865 54.0078 46.374H54.9111C54.9274 46.6768 55.0479 46.9176 55.2725 47.0967C55.5003 47.2725 55.7998 47.3604 56.1709 47.3604C56.5127 47.3604 56.7861 47.292 56.9912 47.1553C57.1995 47.0153 57.3037 46.8298 57.3037 46.5986ZM63.4566 48.0977C62.7405 48.0977 62.1578 47.8633 61.7086 47.3945C61.2594 46.9225 61.0348 46.2926 61.0348 45.5049V45.3389C61.0348 44.8148 61.1341 44.3477 61.3326 43.9375C61.5344 43.5241 61.8144 43.2018 62.1725 42.9707C62.5338 42.7363 62.9244 42.6191 63.3443 42.6191C64.0312 42.6191 64.565 42.8454 64.9459 43.2979C65.3268 43.7503 65.5172 44.3981 65.5172 45.2412V45.6172H61.9381C61.9511 46.138 62.1025 46.5596 62.3922 46.8818C62.6852 47.2008 63.0563 47.3604 63.5055 47.3604C63.8245 47.3604 64.0947 47.2952 64.316 47.165C64.5374 47.0348 64.7311 46.8623 64.8971 46.6475L65.4488 47.0771C65.0061 47.7575 64.3421 48.0977 63.4566 48.0977ZM63.3443 43.3613C62.9798 43.3613 62.6738 43.4948 62.4264 43.7617C62.179 44.0254 62.026 44.3965 61.9674 44.875H64.6139V44.8066C64.5878 44.3477 64.4641 43.9928 64.2428 43.7422C64.0214 43.4883 63.7219 43.3613 63.3443 43.3613ZM19.6047 54.7168L19.634 55.3809C20.0376 54.873 20.565 54.6191 21.216 54.6191C22.3326 54.6191 22.8957 55.249 22.9055 56.5088V60H22.0021V56.5039C21.9989 56.123 21.911 55.8415 21.7385 55.6592C21.5692 55.4769 21.3039 55.3857 20.9426 55.3857C20.6496 55.3857 20.3924 55.4639 20.1711 55.6201C19.9497 55.7764 19.7772 55.9814 19.6535 56.2354V60H18.7502V54.7168H19.6047ZM27.2295 60C27.1774 59.8958 27.1351 59.7103 27.1025 59.4434C26.6826 59.8796 26.1813 60.0977 25.5986 60.0977C25.0778 60.0977 24.6497 59.9512 24.3145 59.6582C23.9824 59.362 23.8164 58.9876 23.8164 58.5352C23.8164 57.985 24.0247 57.5586 24.4414 57.2559C24.8613 56.9499 25.4505 56.7969 26.209 56.7969H27.0879V56.3818C27.0879 56.0661 26.9935 55.8154 26.8047 55.6299C26.6159 55.4411 26.3376 55.3467 25.9697 55.3467C25.6475 55.3467 25.3773 55.4281 25.1592 55.5908C24.9411 55.7536 24.832 55.9505 24.832 56.1816H23.9238C23.9238 55.918 24.0166 55.6641 24.2021 55.4199C24.391 55.1725 24.6449 54.9772 24.9639 54.834C25.2861 54.6908 25.6393 54.6191 26.0234 54.6191C26.6322 54.6191 27.109 54.7721 27.4541 55.0781C27.7992 55.3809 27.9782 55.7992 27.9912 56.333V58.7646C27.9912 59.2497 28.0531 59.6354 28.1768 59.9219V60H27.2295ZM25.7305 59.3115C26.0137 59.3115 26.2822 59.2383 26.5361 59.0918C26.79 58.9453 26.974 58.7549 27.0879 58.5205V57.4365H26.3799C25.2731 57.4365 24.7197 57.7604 24.7197 58.4082C24.7197 58.6914 24.8141 58.9128 25.0029 59.0723C25.1917 59.2318 25.4342 59.3115 25.7305 59.3115ZM30.3328 53.4375V54.7168H31.3191V55.415H30.3328V58.6914C30.3328 58.903 30.3768 59.0625 30.4646 59.1699C30.5525 59.2741 30.7023 59.3262 30.9139 59.3262C31.018 59.3262 31.1613 59.3066 31.3436 59.2676V60C31.1059 60.0651 30.8748 60.0977 30.6502 60.0977C30.2465 60.0977 29.9422 59.9756 29.7371 59.7314C29.532 59.4873 29.4295 59.1406 29.4295 58.6914V55.415H28.4676V54.7168H29.4295V53.4375H30.3328ZM35.3404 59.4775C34.9889 59.891 34.4729 60.0977 33.7926 60.0977C33.2294 60.0977 32.7997 59.9349 32.5035 59.6094C32.2105 59.2806 32.0624 58.7956 32.0592 58.1543V54.7168H32.9625V58.1299C32.9625 58.9307 33.288 59.3311 33.9391 59.3311C34.6292 59.3311 35.0882 59.0739 35.316 58.5596V54.7168H36.2193V60H35.36L35.3404 59.4775ZM39.85 55.5273C39.7133 55.5046 39.5652 55.4932 39.4057 55.4932C38.8132 55.4932 38.4112 55.7454 38.1996 56.25V60H37.2963V54.7168H38.1752L38.1898 55.3271C38.4861 54.8551 38.906 54.6191 39.4496 54.6191C39.6254 54.6191 39.7589 54.6419 39.85 54.6875V55.5273ZM43.4514 60C43.3993 59.8958 43.357 59.7103 43.3244 59.4434C42.9045 59.8796 42.4032 60.0977 41.8205 60.0977C41.2997 60.0977 40.8716 59.9512 40.5363 59.6582C40.2043 59.362 40.0383 58.9876 40.0383 58.5352C40.0383 57.985 40.2466 57.5586 40.6633 57.2559C41.0832 56.9499 41.6724 56.7969 42.4309 56.7969H43.3098V56.3818C43.3098 56.0661 43.2154 55.8154 43.0266 55.6299C42.8378 55.4411 42.5594 55.3467 42.1916 55.3467C41.8693 55.3467 41.5992 55.4281 41.3811 55.5908C41.163 55.7536 41.0539 55.9505 41.0539 56.1816H40.1457C40.1457 55.918 40.2385 55.6641 40.424 55.4199C40.6128 55.1725 40.8667 54.9772 41.1857 54.834C41.508 54.6908 41.8612 54.6191 42.2453 54.6191C42.854 54.6191 43.3309 54.7721 43.676 55.0781C44.021 55.3809 44.2001 55.7992 44.2131 56.333V58.7646C44.2131 59.2497 44.2749 59.6354 44.3986 59.9219V60H43.4514ZM41.9523 59.3115C42.2355 59.3115 42.5041 59.2383 42.758 59.0918C43.0119 58.9453 43.1958 58.7549 43.3098 58.5205V57.4365H42.6018C41.495 57.4365 40.9416 57.7604 40.9416 58.4082C40.9416 58.6914 41.036 58.9128 41.2248 59.0723C41.4136 59.2318 41.6561 59.3115 41.9523 59.3115ZM46.3105 60H45.4072V54.7168H46.3105V60ZM45.334 53.3154C45.334 53.1689 45.3779 53.0452 45.4658 52.9443C45.557 52.8434 45.6904 52.793 45.8662 52.793C46.042 52.793 46.1755 52.8434 46.2666 52.9443C46.3577 53.0452 46.4033 53.1689 46.4033 53.3154C46.4033 53.4619 46.3577 53.584 46.2666 53.6816C46.1755 53.7793 46.042 53.8281 45.8662 53.8281C45.6904 53.8281 45.557 53.7793 45.4658 53.6816C45.3779 53.584 45.334 53.4619 45.334 53.3154ZM50.5369 58.5986C50.5369 58.3545 50.4441 58.1657 50.2586 58.0322C50.0763 57.8955 49.7557 57.7783 49.2967 57.6807C48.8409 57.583 48.478 57.4658 48.2078 57.3291C47.9409 57.1924 47.7423 57.0296 47.6121 56.8408C47.4852 56.652 47.4217 56.4274 47.4217 56.167C47.4217 55.734 47.604 55.3678 47.9686 55.0684C48.3364 54.7689 48.8051 54.6191 49.3748 54.6191C49.9738 54.6191 50.4588 54.7738 50.8299 55.083C51.2042 55.3923 51.3914 55.7878 51.3914 56.2695H50.4832C50.4832 56.0221 50.3774 55.8089 50.1658 55.6299C49.9575 55.4508 49.6938 55.3613 49.3748 55.3613C49.046 55.3613 48.7889 55.4329 48.6033 55.5762C48.4178 55.7194 48.325 55.9066 48.325 56.1377C48.325 56.3558 48.4113 56.5202 48.5838 56.6309C48.7563 56.7415 49.0672 56.8473 49.5164 56.9482C49.9689 57.0492 50.3351 57.1696 50.615 57.3096C50.895 57.4495 51.1017 57.6188 51.2352 57.8174C51.3719 58.0127 51.4402 58.252 51.4402 58.5352C51.4402 59.0072 51.2514 59.3864 50.8738 59.6729C50.4962 59.9561 50.0063 60.0977 49.4041 60.0977C48.9809 60.0977 48.6066 60.0228 48.2811 59.873C47.9555 59.7233 47.7 59.515 47.5145 59.248C47.3322 58.9779 47.241 58.6865 47.241 58.374H48.1443C48.1606 58.6768 48.2811 58.9176 48.5057 59.0967C48.7335 59.2725 49.033 59.3604 49.4041 59.3604C49.7459 59.3604 50.0193 59.292 50.2244 59.1553C50.4327 59.0153 50.5369 58.8298 50.5369 58.5986Z" fill="#666666"/>
<defs>
<filter id="filter0_d_7838:60135" x="0" y="0" width="70" height="38" filterUnits="userSpaceOnUse" color-interpolation-filters="sRGB">
<feFlood flood-opacity="0" result="BackgroundImageFix"/>
<feColorMatrix in="SourceAlpha" type="matrix" values="0 0 0 0 0 0 0 0 0 0 0 0 0 0 0 0 0 0 127 0" result="hardAlpha"/>
<feOffset dy="1"/>
<feGaussianBlur stdDeviation="1"/>
<feColorMatrix type="matrix" values="0 0 0 0 0 0 0 0 0 0 0 0 0 0 0 0 0 0 0.2 0"/>
<feBlend mode="normal" in2="BackgroundImageFix" result="effect1_dropShadow_7838:60135"/>
<feBlend mode="normal" in="SourceGraphic" in2="effect1_dropShadow_7838:60135" result="shape"/>
</filter>
</defs>
</svg>
