<svg width="66" height="61" viewBox="0 0 66 61" fill="none" xmlns="http://www.w3.org/2000/svg">
<g filter="url(#filter0_d_7838:60046)">
<rect x="2" y="1" width="62" height="30" rx="8" fill="#E7F3F9"/>
<path fill-rule="evenodd" clip-rule="evenodd" d="M39.5625 15.418C39.5625 19.0423 36.6244 21.9805 33 21.9805C29.3756 21.9805 26.4375 19.0423 26.4375 15.418V10.6055C26.4375 10.3638 26.6334 10.168 26.875 10.168H39.125C39.3666 10.168 39.5625 10.3638 39.5625 10.6055V15.418Z" stroke="#007DC5" stroke-linecap="round" stroke-linejoin="round"/>
<path d="M35.6547 21.4212C34.9516 20.2984 35.0496 18.851 35.8976 17.8333C36.7456 16.8156 38.1516 16.4581 39.3828 16.947" stroke="#007DC5" stroke-linecap="round" stroke-linejoin="round"/>
<path d="M30.3453 21.4212C31.0483 20.2984 30.9503 18.851 30.1023 17.8333C29.2543 16.8156 27.8484 16.4581 26.6172 16.947" stroke="#007DC5" stroke-linecap="round" stroke-linejoin="round"/>
<path fill-rule="evenodd" clip-rule="evenodd" d="M35.2925 13.1367C35.0833 12.9172 34.7933 12.793 34.4901 12.793C34.1869 12.793 33.8969 12.9172 33.6878 13.1367L33 13.8478L32.3123 13.1367C32.1031 12.9172 31.8131 12.793 31.5099 12.793C31.2067 12.793 30.9167 12.9172 30.7075 13.1367C30.2642 13.6011 30.2642 14.3319 30.7075 14.7963L32.7556 16.6262C32.8193 16.693 32.9076 16.7309 33 16.7309C33.0924 16.7309 33.1807 16.693 33.2444 16.6262L35.2925 14.7963C35.7358 14.3319 35.7358 13.6011 35.2925 13.1367Z" stroke="#007DC5" stroke-linecap="round" stroke-linejoin="round"/>
<path d="M26.4375 14.543H28.625" stroke="#007DC5" stroke-linecap="round" stroke-linejoin="round"/>
<path d="M29.0625 12.3555H26.4375" stroke="#007DC5" stroke-linecap="round" stroke-linejoin="round"/>
<path d="M39.5625 14.543H37.375" stroke="#007DC5" stroke-linecap="round" stroke-linejoin="round"/>
<path d="M36.9375 12.3555H39.5625" stroke="#007DC5" stroke-linecap="round" stroke-linejoin="round"/>
</g>
<path d="M22.2936 40.8604H19.3102V44H18.3727V36.8906H22.777V37.6621H19.3102V40.0938H22.2936V40.8604ZM25.8852 39.5273C25.7484 39.5046 25.6003 39.4932 25.4408 39.4932C24.8484 39.4932 24.4464 39.7454 24.2348 40.25V44H23.3314V38.7168H24.2104L24.225 39.3271C24.5212 38.8551 24.9411 38.6191 25.4848 38.6191C25.6605 38.6191 25.794 38.6419 25.8852 38.6875V39.5273ZM29.4865 44C29.4344 43.8958 29.3921 43.7103 29.3596 43.4434C28.9396 43.8796 28.4383 44.0977 27.8557 44.0977C27.3348 44.0977 26.9068 43.9512 26.5715 43.6582C26.2395 43.362 26.0734 42.9876 26.0734 42.5352C26.0734 41.985 26.2818 41.5586 26.6984 41.2559C27.1184 40.9499 27.7076 40.7969 28.466 40.7969H29.3449V40.3818C29.3449 40.0661 29.2505 39.8154 29.0617 39.6299C28.8729 39.4411 28.5946 39.3467 28.2268 39.3467C27.9045 39.3467 27.6343 39.4281 27.4162 39.5908C27.1981 39.7536 27.0891 39.9505 27.0891 40.1816H26.1809C26.1809 39.918 26.2736 39.6641 26.4592 39.4199C26.648 39.1725 26.9019 38.9772 27.2209 38.834C27.5432 38.6908 27.8964 38.6191 28.2805 38.6191C28.8892 38.6191 29.3661 38.7721 29.7111 39.0781C30.0562 39.3809 30.2352 39.7992 30.2482 40.333V42.7646C30.2482 43.2497 30.3101 43.6354 30.4338 43.9219V44H29.4865ZM27.9875 43.3115C28.2707 43.3115 28.5393 43.2383 28.7932 43.0918C29.0471 42.9453 29.231 42.7549 29.3449 42.5205V41.4365H28.6369C27.5301 41.4365 26.9768 41.7604 26.9768 42.4082C26.9768 42.6914 27.0712 42.9128 27.26 43.0723C27.4488 43.2318 27.6913 43.3115 27.9875 43.3115ZM32.3457 44H31.4424V36.5H32.3457V44ZM33.2762 41.3145C33.2762 40.5039 33.4682 39.8529 33.8523 39.3613C34.2365 38.8665 34.7394 38.6191 35.3611 38.6191C35.9796 38.6191 36.4695 38.8307 36.8309 39.2539V36.5H37.7342V44H36.9041L36.8602 43.4336C36.4988 43.8763 35.9959 44.0977 35.3514 44.0977C34.7394 44.0977 34.2397 43.847 33.8523 43.3457C33.4682 42.8444 33.2762 42.1901 33.2762 41.3828V41.3145ZM34.1795 41.417C34.1795 42.016 34.3032 42.4847 34.5506 42.8232C34.798 43.1618 35.1398 43.3311 35.576 43.3311C36.1489 43.3311 36.5672 43.0739 36.8309 42.5596V40.1328C36.5607 39.6348 36.1456 39.3857 35.5857 39.3857C35.143 39.3857 34.798 39.5566 34.5506 39.8984C34.3032 40.2402 34.1795 40.7464 34.1795 41.417ZM42.1021 44C42.0501 43.8958 42.0077 43.7103 41.9752 43.4434C41.5553 43.8796 41.054 44.0977 40.4713 44.0977C39.9505 44.0977 39.5224 43.9512 39.1871 43.6582C38.8551 43.362 38.6891 42.9876 38.6891 42.5352C38.6891 41.985 38.8974 41.5586 39.3141 41.2559C39.734 40.9499 40.3232 40.7969 41.0816 40.7969H41.9605V40.3818C41.9605 40.0661 41.8661 39.8154 41.6773 39.6299C41.4885 39.4411 41.2102 39.3467 40.8424 39.3467C40.5201 39.3467 40.2499 39.4281 40.0318 39.5908C39.8137 39.7536 39.7047 39.9505 39.7047 40.1816H38.7965C38.7965 39.918 38.8893 39.6641 39.0748 39.4199C39.2636 39.1725 39.5175 38.9772 39.8365 38.834C40.1588 38.6908 40.512 38.6191 40.8961 38.6191C41.5048 38.6191 41.9817 38.7721 42.3268 39.0781C42.6718 39.3809 42.8508 39.7992 42.8639 40.333V42.7646C42.8639 43.2497 42.9257 43.6354 43.0494 43.9219V44H42.1021ZM40.6031 43.3115C40.8863 43.3115 41.1549 43.2383 41.4088 43.0918C41.6627 42.9453 41.8466 42.7549 41.9605 42.5205V41.4365H41.2525C40.1458 41.4365 39.5924 41.7604 39.5924 42.4082C39.5924 42.6914 39.6868 42.9128 39.8756 43.0723C40.0644 43.2318 40.3069 43.3115 40.6031 43.3115ZM47.0561 42.5986C47.0561 42.3545 46.9633 42.1657 46.7777 42.0322C46.5954 41.8955 46.2748 41.7783 45.8158 41.6807C45.3601 41.583 44.9971 41.4658 44.727 41.3291C44.46 41.1924 44.2615 41.0296 44.1312 40.8408C44.0043 40.652 43.9408 40.4274 43.9408 40.167C43.9408 39.734 44.1231 39.3678 44.4877 39.0684C44.8555 38.7689 45.3243 38.6191 45.8939 38.6191C46.4929 38.6191 46.9779 38.7738 47.349 39.083C47.7234 39.3923 47.9105 39.7878 47.9105 40.2695H47.0023C47.0023 40.0221 46.8965 39.8089 46.685 39.6299C46.4766 39.4508 46.213 39.3613 45.8939 39.3613C45.5652 39.3613 45.308 39.4329 45.1225 39.5762C44.9369 39.7194 44.8441 39.9066 44.8441 40.1377C44.8441 40.3558 44.9304 40.5202 45.1029 40.6309C45.2755 40.7415 45.5863 40.8473 46.0355 40.9482C46.488 41.0492 46.8542 41.1696 47.1342 41.3096C47.4141 41.4495 47.6208 41.6188 47.7543 41.8174C47.891 42.0127 47.9594 42.252 47.9594 42.5352C47.9594 43.0072 47.7706 43.3864 47.393 43.6729C47.0154 43.9561 46.5255 44.0977 45.9232 44.0977C45.5001 44.0977 45.1257 44.0228 44.8002 43.873C44.4747 43.7233 44.2191 43.515 44.0336 43.248C43.8513 42.9779 43.7602 42.6865 43.7602 42.374H44.6635C44.6798 42.6768 44.8002 42.9176 45.0248 43.0967C45.2527 43.2725 45.5521 43.3604 45.9232 43.3604C46.265 43.3604 46.5385 43.292 46.7436 43.1553C46.9519 43.0153 47.0561 42.8298 47.0561 42.5986Z" fill="#666666"/>
<defs>
<filter id="filter0_d_7838:60046" x="0" y="0" width="66" height="34" filterUnits="userSpaceOnUse" color-interpolation-filters="sRGB">
<feFlood flood-opacity="0" result="BackgroundImageFix"/>
<feColorMatrix in="SourceAlpha" type="matrix" values="0 0 0 0 0 0 0 0 0 0 0 0 0 0 0 0 0 0 127 0" result="hardAlpha"/>
<feOffset dy="1"/>
<feGaussianBlur stdDeviation="1"/>
<feColorMatrix type="matrix" values="0 0 0 0 0 0 0 0 0 0 0 0 0 0 0 0 0 0 0.2 0"/>
<feBlend mode="normal" in2="BackgroundImageFix" result="effect1_dropShadow_7838:60046"/>
<feBlend mode="normal" in="SourceGraphic" in2="effect1_dropShadow_7838:60046" result="shape"/>
</filter>
</defs>
</svg>
