<svg width="71" height="65" viewBox="0 0 71 65" fill="none" xmlns="http://www.w3.org/2000/svg">
<g filter="url(#filter0_d_7838:60083)">
<rect x="2" y="1" width="66" height="34" rx="8" fill="#E7F3F9"/>
<path d="M37.25 26.4345L34.811 22.776C34.2274 21.8961 33.2418 21.3672 32.186 21.3672C31.1302 21.3672 30.1446 21.8961 29.561 22.776L27.125 26.4345" stroke="#007DC5" stroke-linecap="round" stroke-linejoin="round"/>
<path d="M31.625 18.2812C31.7803 18.2812 31.9062 18.4072 31.9062 18.5625" stroke="#007DC5" stroke-linecap="round" stroke-linejoin="round"/>
<path d="M31.3438 18.5625C31.3438 18.4072 31.4697 18.2812 31.625 18.2812" stroke="#007DC5" stroke-linecap="round" stroke-linejoin="round"/>
<path d="M31.625 18.8438C31.4697 18.8438 31.3438 18.7178 31.3438 18.5625" stroke="#007DC5" stroke-linecap="round" stroke-linejoin="round"/>
<path d="M31.9062 18.5625C31.9062 18.7178 31.7803 18.8438 31.625 18.8438" stroke="#007DC5" stroke-linecap="round" stroke-linejoin="round"/>
<path d="M35 18.8438C35.1553 18.8438 35.2812 18.9697 35.2812 19.125" stroke="#007DC5" stroke-linecap="round" stroke-linejoin="round"/>
<path d="M34.7188 19.125C34.7188 18.9697 34.8447 18.8438 35 18.8438" stroke="#007DC5" stroke-linecap="round" stroke-linejoin="round"/>
<path d="M35 19.4062C34.8447 19.4062 34.7188 19.2803 34.7188 19.125" stroke="#007DC5" stroke-linecap="round" stroke-linejoin="round"/>
<path d="M35.2812 19.125C35.2812 19.2803 35.1553 19.4062 35 19.4062" stroke="#007DC5" stroke-linecap="round" stroke-linejoin="round"/>
<path d="M33.3125 16.0312C33.4678 16.0312 33.5938 16.1572 33.5938 16.3125" stroke="#007DC5" stroke-linecap="round" stroke-linejoin="round"/>
<path d="M33.0312 16.3125C33.0312 16.1572 33.1572 16.0312 33.3125 16.0312" stroke="#007DC5" stroke-linecap="round" stroke-linejoin="round"/>
<path d="M33.3125 16.5938C33.1572 16.5938 33.0312 16.4678 33.0312 16.3125" stroke="#007DC5" stroke-linecap="round" stroke-linejoin="round"/>
<path d="M33.5938 16.3125C33.5938 16.4678 33.4678 16.5938 33.3125 16.5938" stroke="#007DC5" stroke-linecap="round" stroke-linejoin="round"/>
<path fill-rule="evenodd" clip-rule="evenodd" d="M42.0494 14.3624C42.8019 13.6613 43.1116 12.6053 42.8571 11.6088C42.6026 10.6123 41.8245 9.83421 40.828 9.57972C39.8315 9.32523 38.7756 9.63497 38.0744 10.3874L34.8914 13.5667C34.7859 13.6722 34.7266 13.8153 34.7266 13.9645C34.7266 14.1138 34.7859 14.2569 34.8914 14.3624L38.0744 17.5439C38.1799 17.6495 38.3231 17.7088 38.4723 17.7088C38.6216 17.7088 38.7647 17.6495 38.8702 17.5439L42.0494 14.3624Z" stroke="#007DC5" stroke-linecap="round" stroke-linejoin="round"/>
</g>
<path d="M5.82148 47.0674C5.5806 47.4124 5.24368 47.6712 4.81074 47.8438C4.38105 48.013 3.87975 48.0977 3.30684 48.0977C2.72741 48.0977 2.21309 47.9626 1.76387 47.6924C1.31465 47.4189 0.96634 47.0316 0.718945 46.5303C0.474804 46.029 0.349478 45.4479 0.342968 44.7871V44.167C0.342968 43.096 0.591991 42.266 1.09004 41.6768C1.59134 41.0876 2.29447 40.793 3.19941 40.793C3.9416 40.793 4.53893 40.9834 4.99141 41.3643C5.44388 41.7419 5.72057 42.279 5.82148 42.9756H4.88398C4.7082 42.0348 4.14831 41.5645 3.2043 41.5645C2.57604 41.5645 2.09915 41.7858 1.77363 42.2285C1.45137 42.668 1.28861 43.306 1.28535 44.1426V44.7236C1.28535 45.5212 1.46764 46.1559 1.83223 46.6279C2.19681 47.0967 2.68997 47.3311 3.31172 47.3311C3.66328 47.3311 3.9709 47.292 4.23457 47.2139C4.49824 47.1357 4.71634 47.0039 4.88887 46.8184V45.2217H3.24336V44.46H5.82148V47.0674ZM10.209 48C10.1569 47.8958 10.1146 47.7103 10.082 47.4434C9.66211 47.8796 9.16081 48.0977 8.57812 48.0977C8.05729 48.0977 7.62923 47.9512 7.29394 47.6582C6.96191 47.362 6.7959 46.9876 6.7959 46.5352C6.7959 45.985 7.00423 45.5586 7.4209 45.2559C7.84082 44.9499 8.43001 44.7969 9.18848 44.7969H10.0674V44.3818C10.0674 44.0661 9.97298 43.8154 9.78418 43.6299C9.59538 43.4411 9.31706 43.3467 8.94922 43.3467C8.62695 43.3467 8.35677 43.4281 8.13867 43.5908C7.92057 43.7536 7.81152 43.9505 7.81152 44.1816H6.90332C6.90332 43.918 6.99609 43.6641 7.18164 43.4199C7.37044 43.1725 7.62435 42.9772 7.94336 42.834C8.26562 42.6908 8.61881 42.6191 9.00293 42.6191C9.61165 42.6191 10.0885 42.7721 10.4336 43.0781C10.7786 43.3809 10.9577 43.7992 10.9707 44.333V46.7646C10.9707 47.2497 11.0326 47.6354 11.1562 47.9219V48H10.209ZM8.70996 47.3115C8.99316 47.3115 9.26172 47.2383 9.51562 47.0918C9.76953 46.9453 9.95345 46.7549 10.0674 46.5205V45.4365H9.35937C8.2526 45.4365 7.69922 45.7604 7.69922 46.4082C7.69922 46.6914 7.79362 46.9128 7.98242 47.0723C8.17122 47.2318 8.41374 47.3115 8.70996 47.3115ZM15.1629 46.5986C15.1629 46.3545 15.0701 46.1657 14.8846 46.0322C14.7023 45.8955 14.3816 45.7783 13.9227 45.6807C13.4669 45.583 13.104 45.4658 12.8338 45.3291C12.5669 45.1924 12.3683 45.0296 12.2381 44.8408C12.1111 44.652 12.0477 44.4274 12.0477 44.167C12.0477 43.734 12.2299 43.3678 12.5945 43.0684C12.9624 42.7689 13.4311 42.6191 14.0008 42.6191C14.5997 42.6191 15.0848 42.7738 15.4559 43.083C15.8302 43.3923 16.0174 43.7878 16.0174 44.2695H15.1092C15.1092 44.0221 15.0034 43.8089 14.7918 43.6299C14.5835 43.4508 14.3198 43.3613 14.0008 43.3613C13.672 43.3613 13.4148 43.4329 13.2293 43.5762C13.0437 43.7194 12.951 43.9066 12.951 44.1377C12.951 44.3558 13.0372 44.5202 13.2098 44.6309C13.3823 44.7415 13.6932 44.8473 14.1424 44.9482C14.5949 45.0492 14.9611 45.1696 15.241 45.3096C15.521 45.4495 15.7277 45.6188 15.8611 45.8174C15.9979 46.0127 16.0662 46.252 16.0662 46.5352C16.0662 47.0072 15.8774 47.3864 15.4998 47.6729C15.1222 47.9561 14.6323 48.0977 14.0301 48.0977C13.6069 48.0977 13.2326 48.0228 12.907 47.873C12.5815 47.7233 12.326 47.515 12.1404 47.248C11.9581 46.9779 11.867 46.6865 11.867 46.374H12.7703C12.7866 46.6768 12.907 46.9176 13.1316 47.0967C13.3595 47.2725 13.659 47.3604 14.0301 47.3604C14.3719 47.3604 14.6453 47.292 14.8504 47.1553C15.0587 47.0153 15.1629 46.8298 15.1629 46.5986ZM18.1686 41.4375V42.7168H19.1549V43.415H18.1686V46.6914C18.1686 46.903 18.2125 47.0625 18.3004 47.1699C18.3883 47.2741 18.538 47.3262 18.7496 47.3262C18.8538 47.3262 18.997 47.3066 19.1793 47.2676V48C18.9417 48.0651 18.7105 48.0977 18.4859 48.0977C18.0823 48.0977 17.7779 47.9756 17.5729 47.7314C17.3678 47.4873 17.2652 47.1406 17.2652 46.6914V43.415H16.3033V42.7168H17.2652V41.4375H18.1686ZM22.4682 43.5273C22.3314 43.5046 22.1833 43.4932 22.0238 43.4932C21.4314 43.4932 21.0294 43.7454 20.8178 44.25V48H19.9145V42.7168H20.7934L20.808 43.3271C21.1042 42.8551 21.5242 42.6191 22.0678 42.6191C22.2436 42.6191 22.377 42.6419 22.4682 42.6875V43.5273ZM22.6662 45.3096C22.6662 44.792 22.7671 44.3265 22.9689 43.9131C23.174 43.4997 23.4572 43.1807 23.8186 42.9561C24.1831 42.7314 24.5982 42.6191 25.0637 42.6191C25.7831 42.6191 26.3641 42.8682 26.8068 43.3662C27.2528 43.8643 27.4758 44.5267 27.4758 45.3535V45.417C27.4758 45.9313 27.3765 46.3936 27.1779 46.8037C26.9826 47.2106 26.701 47.528 26.3332 47.7559C25.9686 47.9837 25.5487 48.0977 25.0734 48.0977C24.3573 48.0977 23.7762 47.8486 23.3303 47.3506C22.8876 46.8525 22.6662 46.1934 22.6662 45.373V45.3096ZM23.5744 45.417C23.5744 46.0029 23.7095 46.4733 23.9797 46.8281C24.2531 47.1829 24.6177 47.3604 25.0734 47.3604C25.5324 47.3604 25.897 47.1813 26.1672 46.8232C26.4374 46.4619 26.5725 45.9574 26.5725 45.3096C26.5725 44.7301 26.4341 44.2614 26.1574 43.9033C25.884 43.542 25.5194 43.3613 25.0637 43.3613C24.6177 43.3613 24.258 43.5387 23.9846 43.8936C23.7111 44.2484 23.5744 44.7562 23.5744 45.417ZM29.29 48H28.3867V42.7168H29.29V48ZM28.3135 41.3154C28.3135 41.1689 28.3574 41.0452 28.4453 40.9443C28.5365 40.8434 28.6699 40.793 28.8457 40.793C29.0215 40.793 29.1549 40.8434 29.2461 40.9443C29.3372 41.0452 29.3828 41.1689 29.3828 41.3154C29.3828 41.4619 29.3372 41.584 29.2461 41.6816C29.1549 41.7793 29.0215 41.8281 28.8457 41.8281C28.6699 41.8281 28.5365 41.7793 28.4453 41.6816C28.3574 41.584 28.3135 41.4619 28.3135 41.3154ZM31.2947 42.7168L31.324 43.3809C31.7277 42.873 32.255 42.6191 32.9061 42.6191C34.0226 42.6191 34.5857 43.249 34.5955 44.5088V48H33.6922V44.5039C33.6889 44.123 33.601 43.8415 33.4285 43.6592C33.2592 43.4769 32.9939 43.3857 32.6326 43.3857C32.3396 43.3857 32.0825 43.4639 31.8611 43.6201C31.6398 43.7764 31.4673 43.9814 31.3436 44.2354V48H30.4402V42.7168H31.2947ZM36.8834 41.4375V42.7168H37.8697V43.415H36.8834V46.6914C36.8834 46.903 36.9273 47.0625 37.0152 47.1699C37.1031 47.2741 37.2529 47.3262 37.4645 47.3262C37.5686 47.3262 37.7118 47.3066 37.8941 47.2676V48C37.6565 48.0651 37.4254 48.0977 37.2008 48.0977C36.7971 48.0977 36.4928 47.9756 36.2877 47.7314C36.0826 47.4873 35.9801 47.1406 35.9801 46.6914V43.415H35.0182V42.7168H35.9801V41.4375H36.8834ZM40.8217 48.0977C40.1055 48.0977 39.5229 47.8633 39.0736 47.3945C38.6244 46.9225 38.3998 46.2926 38.3998 45.5049V45.3389C38.3998 44.8148 38.4991 44.3477 38.6977 43.9375C38.8995 43.5241 39.1794 43.2018 39.5375 42.9707C39.8988 42.7363 40.2895 42.6191 40.7094 42.6191C41.3962 42.6191 41.9301 42.8454 42.3109 43.2979C42.6918 43.7503 42.8822 44.3981 42.8822 45.2412V45.6172H39.3031C39.3161 46.138 39.4675 46.5596 39.7572 46.8818C40.0502 47.2008 40.4213 47.3604 40.8705 47.3604C41.1895 47.3604 41.4597 47.2952 41.6811 47.165C41.9024 47.0348 42.0961 46.8623 42.2621 46.6475L42.8139 47.0771C42.3712 47.7575 41.7071 48.0977 40.8217 48.0977ZM40.7094 43.3613C40.3448 43.3613 40.0388 43.4948 39.7914 43.7617C39.544 44.0254 39.391 44.3965 39.3324 44.875H41.9789V44.8066C41.9529 44.3477 41.8292 43.9928 41.6078 43.7422C41.3865 43.4883 41.087 43.3613 40.7094 43.3613ZM46.7082 46.5986C46.7082 46.3545 46.6154 46.1657 46.4299 46.0322C46.2476 45.8955 45.927 45.7783 45.468 45.6807C45.0122 45.583 44.6493 45.4658 44.3791 45.3291C44.1122 45.1924 43.9136 45.0296 43.7834 44.8408C43.6564 44.652 43.593 44.4274 43.593 44.167C43.593 43.734 43.7753 43.3678 44.1398 43.0684C44.5077 42.7689 44.9764 42.6191 45.5461 42.6191C46.1451 42.6191 46.6301 42.7738 47.0012 43.083C47.3755 43.3923 47.5627 43.7878 47.5627 44.2695H46.6545C46.6545 44.0221 46.5487 43.8089 46.3371 43.6299C46.1288 43.4508 45.8651 43.3613 45.5461 43.3613C45.2173 43.3613 44.9602 43.4329 44.7746 43.5762C44.5891 43.7194 44.4963 43.9066 44.4963 44.1377C44.4963 44.3558 44.5826 44.5202 44.7551 44.6309C44.9276 44.7415 45.2385 44.8473 45.6877 44.9482C46.1402 45.0492 46.5064 45.1696 46.7863 45.3096C47.0663 45.4495 47.273 45.6188 47.4064 45.8174C47.5432 46.0127 47.6115 46.252 47.6115 46.5352C47.6115 47.0072 47.4227 47.3864 47.0451 47.6729C46.6675 47.9561 46.1776 48.0977 45.5754 48.0977C45.1522 48.0977 44.7779 48.0228 44.4523 47.873C44.1268 47.7233 43.8713 47.515 43.6857 47.248C43.5034 46.9779 43.4123 46.6865 43.4123 46.374H44.3156C44.3319 46.6768 44.4523 46.9176 44.677 47.0967C44.9048 47.2725 45.2043 47.3604 45.5754 47.3604C45.9172 47.3604 46.1906 47.292 46.3957 47.1553C46.604 47.0153 46.7082 46.8298 46.7082 46.5986ZM49.7139 41.4375V42.7168H50.7002V43.415H49.7139V46.6914C49.7139 46.903 49.7578 47.0625 49.8457 47.1699C49.9336 47.2741 50.0833 47.3262 50.2949 47.3262C50.3991 47.3262 50.5423 47.3066 50.7246 47.2676V48C50.487 48.0651 50.2559 48.0977 50.0312 48.0977C49.6276 48.0977 49.3232 47.9756 49.1182 47.7314C48.9131 47.4873 48.8105 47.1406 48.8105 46.6914V43.415H47.8486V42.7168H48.8105V41.4375H49.7139ZM52.4412 48H51.5379V42.7168H52.4412V48ZM51.4646 41.3154C51.4646 41.1689 51.5086 41.0452 51.5965 40.9443C51.6876 40.8434 51.8211 40.793 51.9969 40.793C52.1727 40.793 52.3061 40.8434 52.3973 40.9443C52.4884 41.0452 52.534 41.1689 52.534 41.3154C52.534 41.4619 52.4884 41.584 52.3973 41.6816C52.3061 41.7793 52.1727 41.8281 51.9969 41.8281C51.8211 41.8281 51.6876 41.7793 51.5965 41.6816C51.5086 41.584 51.4646 41.4619 51.4646 41.3154ZM54.4459 42.7168L54.4752 43.3809C54.8788 42.873 55.4062 42.6191 56.0572 42.6191C57.1738 42.6191 57.7369 43.249 57.7467 44.5088V48H56.8434V44.5039C56.8401 44.123 56.7522 43.8415 56.5797 43.6592C56.4104 43.4769 56.1451 43.3857 55.7838 43.3857C55.4908 43.3857 55.2337 43.4639 55.0123 43.6201C54.7909 43.7764 54.6184 43.9814 54.4947 44.2354V48H53.5914V42.7168H54.4459ZM62.0707 48C62.0186 47.8958 61.9763 47.7103 61.9437 47.4434C61.5238 47.8796 61.0225 48.0977 60.4398 48.0977C59.919 48.0977 59.4909 47.9512 59.1557 47.6582C58.8236 47.362 58.6576 46.9876 58.6576 46.5352C58.6576 45.985 58.8659 45.5586 59.2826 45.2559C59.7025 44.9499 60.2917 44.7969 61.0502 44.7969H61.9291V44.3818C61.9291 44.0661 61.8347 43.8154 61.6459 43.6299C61.4571 43.4411 61.1788 43.3467 60.8109 43.3467C60.4887 43.3467 60.2185 43.4281 60.0004 43.5908C59.7823 43.7536 59.6732 43.9505 59.6732 44.1816H58.765C58.765 43.918 58.8578 43.6641 59.0434 43.4199C59.2322 43.1725 59.4861 42.9772 59.8051 42.834C60.1273 42.6908 60.4805 42.6191 60.8646 42.6191C61.4734 42.6191 61.9503 42.7721 62.2953 43.0781C62.6404 43.3809 62.8194 43.7992 62.8324 44.333V46.7646C62.8324 47.2497 62.8943 47.6354 63.018 47.9219V48H62.0707ZM60.5717 47.3115C60.8549 47.3115 61.1234 47.2383 61.3773 47.0918C61.6312 46.9453 61.8152 46.7549 61.9291 46.5205V45.4365H61.2211C60.1143 45.4365 59.5609 45.7604 59.5609 46.4082C59.5609 46.6914 59.6553 46.9128 59.8441 47.0723C60.0329 47.2318 60.2755 47.3115 60.5717 47.3115ZM64.9299 48H64.0266V42.7168H64.9299V48ZM63.9533 41.3154C63.9533 41.1689 63.9973 41.0452 64.0852 40.9443C64.1763 40.8434 64.3098 40.793 64.4855 40.793C64.6613 40.793 64.7948 40.8434 64.8859 40.9443C64.9771 41.0452 65.0227 41.1689 65.0227 41.3154C65.0227 41.4619 64.9771 41.584 64.8859 41.6816C64.7948 41.7793 64.6613 41.8281 64.4855 41.8281C64.3098 41.8281 64.1763 41.7793 64.0852 41.6816C63.9973 41.584 63.9533 41.4619 63.9533 41.3154ZM69.1562 46.5986C69.1562 46.3545 69.0635 46.1657 68.8779 46.0322C68.6956 45.8955 68.375 45.7783 67.916 45.6807C67.4603 45.583 67.0973 45.4658 66.8271 45.3291C66.5602 45.1924 66.3617 45.0296 66.2314 44.8408C66.1045 44.652 66.041 44.4274 66.041 44.167C66.041 43.734 66.2233 43.3678 66.5879 43.0684C66.9557 42.7689 67.4245 42.6191 67.9941 42.6191C68.5931 42.6191 69.0781 42.7738 69.4492 43.083C69.8236 43.3923 70.0107 43.7878 70.0107 44.2695H69.1025C69.1025 44.0221 68.9967 43.8089 68.7852 43.6299C68.5768 43.4508 68.3132 43.3613 67.9941 43.3613C67.6654 43.3613 67.4082 43.4329 67.2227 43.5762C67.0371 43.7194 66.9443 43.9066 66.9443 44.1377C66.9443 44.3558 67.0306 44.5202 67.2031 44.6309C67.3757 44.7415 67.6865 44.8473 68.1357 44.9482C68.5882 45.0492 68.9544 45.1696 69.2344 45.3096C69.5143 45.4495 69.721 45.6188 69.8545 45.8174C69.9912 46.0127 70.0596 46.252 70.0596 46.5352C70.0596 47.0072 69.8708 47.3864 69.4932 47.6729C69.1156 47.9561 68.6257 48.0977 68.0234 48.0977C67.6003 48.0977 67.2259 48.0228 66.9004 47.873C66.5749 47.7233 66.3193 47.515 66.1338 47.248C65.9515 46.9779 65.8604 46.6865 65.8604 46.374H66.7637C66.7799 46.6768 66.9004 46.9176 67.125 47.0967C67.3529 47.2725 67.6523 47.3604 68.0234 47.3604C68.3652 47.3604 68.6387 47.292 68.8438 47.1553C69.0521 47.0153 69.1562 46.8298 69.1562 46.5986ZM13.6533 60.0977C12.9372 60.0977 12.3545 59.8633 11.9053 59.3945C11.4561 58.9225 11.2314 58.2926 11.2314 57.5049V57.3389C11.2314 56.8148 11.3307 56.3477 11.5293 55.9375C11.7311 55.5241 12.0111 55.2018 12.3691 54.9707C12.7305 54.7363 13.1211 54.6191 13.541 54.6191C14.2279 54.6191 14.7617 54.8454 15.1426 55.2979C15.5234 55.7503 15.7139 56.3981 15.7139 57.2412V57.6172H12.1348C12.1478 58.138 12.2992 58.5596 12.5889 58.8818C12.8818 59.2008 13.2529 59.3604 13.7021 59.3604C14.0212 59.3604 14.2913 59.2952 14.5127 59.165C14.734 59.0348 14.9277 58.8623 15.0938 58.6475L15.6455 59.0771C15.2028 59.7575 14.5387 60.0977 13.6533 60.0977ZM13.541 55.3613C13.1764 55.3613 12.8704 55.4948 12.623 55.7617C12.3757 56.0254 12.2227 56.3965 12.1641 56.875H14.8105V56.8066C14.7845 56.3477 14.6608 55.9928 14.4395 55.7422C14.2181 55.4883 13.9186 55.3613 13.541 55.3613ZM19.5475 55.3564C19.9479 54.8649 20.4687 54.6191 21.11 54.6191C22.2265 54.6191 22.7896 55.249 22.7994 56.5088V60H21.8961V56.5039C21.8928 56.123 21.8049 55.8415 21.6324 55.6592C21.4632 55.4769 21.1979 55.3857 20.8365 55.3857C20.5436 55.3857 20.2864 55.4639 20.065 55.6201C19.8437 55.7764 19.6712 55.9814 19.5475 56.2354V60H18.6441V52.5H19.5475V55.3564ZM26.0443 60.0977C25.3282 60.0977 24.7455 59.8633 24.2963 59.3945C23.8471 58.9225 23.6225 58.2926 23.6225 57.5049V57.3389C23.6225 56.8148 23.7217 56.3477 23.9203 55.9375C24.1221 55.5241 24.4021 55.2018 24.7602 54.9707C25.1215 54.7363 25.5121 54.6191 25.932 54.6191C26.6189 54.6191 27.1527 54.8454 27.5336 55.2979C27.9145 55.7503 28.1049 56.3981 28.1049 57.2412V57.6172H24.5258C24.5388 58.138 24.6902 58.5596 24.9799 58.8818C25.2729 59.2008 25.6439 59.3604 26.0932 59.3604C26.4122 59.3604 26.6824 59.2952 26.9037 59.165C27.1251 59.0348 27.3188 58.8623 27.4848 58.6475L28.0365 59.0771C27.5938 59.7575 26.9298 60.0977 26.0443 60.0977ZM25.932 55.3613C25.5674 55.3613 25.2615 55.4948 25.0141 55.7617C24.7667 56.0254 24.6137 56.3965 24.5551 56.875H27.2016V56.8066C27.1755 56.3477 27.0518 55.9928 26.8305 55.7422C26.6091 55.4883 26.3096 55.3613 25.932 55.3613ZM33.3176 57.417C33.3176 58.221 33.1337 58.8688 32.7658 59.3604C32.398 59.8519 31.8999 60.0977 31.2717 60.0977C30.6304 60.0977 30.1258 59.8942 29.758 59.4873V62.0312H28.8547V54.7168H29.6799L29.7238 55.3027C30.0917 54.847 30.6027 54.6191 31.257 54.6191C31.8918 54.6191 32.3931 54.8584 32.7609 55.3369C33.132 55.8154 33.3176 56.4811 33.3176 57.334V57.417ZM32.4143 57.3145C32.4143 56.7188 32.2873 56.2484 32.0334 55.9033C31.7795 55.5583 31.4312 55.3857 30.9885 55.3857C30.4416 55.3857 30.0314 55.6283 29.758 56.1133V58.6377C30.0282 59.1195 30.4416 59.3604 30.9982 59.3604C31.4312 59.3604 31.7746 59.1895 32.0285 58.8477C32.2857 58.5026 32.4143 57.9915 32.4143 57.3145ZM37.4316 60C37.3796 59.8958 37.3372 59.7103 37.3047 59.4434C36.8848 59.8796 36.3835 60.0977 35.8008 60.0977C35.2799 60.0977 34.8519 59.9512 34.5166 59.6582C34.1846 59.362 34.0186 58.9876 34.0186 58.5352C34.0186 57.985 34.2269 57.5586 34.6436 57.2559C35.0635 56.9499 35.6527 56.7969 36.4111 56.7969H37.29V56.3818C37.29 56.0661 37.1956 55.8154 37.0068 55.6299C36.818 55.4411 36.5397 55.3467 36.1719 55.3467C35.8496 55.3467 35.5794 55.4281 35.3613 55.5908C35.1432 55.7536 35.0342 55.9505 35.0342 56.1816H34.126C34.126 55.918 34.2188 55.6641 34.4043 55.4199C34.5931 55.1725 34.847 54.9772 35.166 54.834C35.4883 54.6908 35.8415 54.6191 36.2256 54.6191C36.8343 54.6191 37.3112 54.7721 37.6562 55.0781C38.0013 55.3809 38.1803 55.7992 38.1934 56.333V58.7646C38.1934 59.2497 38.2552 59.6354 38.3789 59.9219V60H37.4316ZM35.9326 59.3115C36.2158 59.3115 36.4844 59.2383 36.7383 59.0918C36.9922 58.9453 37.1761 58.7549 37.29 58.5205V57.4365H36.582C35.4753 57.4365 34.9219 57.7604 34.9219 58.4082C34.9219 58.6914 35.0163 58.9128 35.2051 59.0723C35.3939 59.2318 35.6364 59.3115 35.9326 59.3115ZM36.7676 52.5H37.8613L36.5527 53.9355H35.8252L36.7676 52.5ZM40.535 53.4375V54.7168H41.5213V55.415H40.535V58.6914C40.535 58.903 40.5789 59.0625 40.6668 59.1699C40.7547 59.2741 40.9044 59.3262 41.116 59.3262C41.2202 59.3262 41.3634 59.3066 41.5457 59.2676V60C41.3081 60.0651 41.077 60.0977 40.8523 60.0977C40.4487 60.0977 40.1443 59.9756 39.9393 59.7314C39.7342 59.4873 39.6316 59.1406 39.6316 58.6914V55.415H38.6697V54.7168H39.6316V53.4375H40.535ZM43.2623 60H42.359V54.7168H43.2623V60ZM42.2857 53.3154C42.2857 53.1689 42.3297 53.0452 42.4176 52.9443C42.5087 52.8434 42.6422 52.793 42.818 52.793C42.9938 52.793 43.1272 52.8434 43.2184 52.9443C43.3095 53.0452 43.3551 53.1689 43.3551 53.3154C43.3551 53.4619 43.3095 53.584 43.2184 53.6816C43.1272 53.7793 42.9938 53.8281 42.818 53.8281C42.6422 53.8281 42.5087 53.7793 42.4176 53.6816C42.3297 53.584 42.2857 53.4619 42.2857 53.3154ZM46.5316 59.3604C46.8539 59.3604 47.1355 59.2627 47.3764 59.0674C47.6173 58.8721 47.7507 58.6279 47.7768 58.335H48.6312C48.615 58.6377 48.5108 58.9258 48.3187 59.1992C48.1267 59.4727 47.8695 59.6908 47.5473 59.8535C47.2283 60.0163 46.8897 60.0977 46.5316 60.0977C45.8122 60.0977 45.2393 59.8584 44.8129 59.3799C44.3897 58.8981 44.1781 58.2406 44.1781 57.4072V57.2559C44.1781 56.7415 44.2725 56.2842 44.4613 55.8838C44.6501 55.4834 44.9203 55.1725 45.2719 54.9512C45.6267 54.7298 46.045 54.6191 46.5268 54.6191C47.1192 54.6191 47.6107 54.7965 48.0014 55.1514C48.3952 55.5062 48.6052 55.9668 48.6312 56.5332H47.7768C47.7507 56.1914 47.6205 55.9115 47.3861 55.6934C47.155 55.472 46.8686 55.3613 46.5268 55.3613C46.0678 55.3613 45.7113 55.5273 45.4574 55.8594C45.2068 56.1882 45.0814 56.665 45.0814 57.29V57.4609C45.0814 58.0697 45.2068 58.5384 45.4574 58.8672C45.7081 59.196 46.0661 59.3604 46.5316 59.3604ZM49.1076 57.3096C49.1076 56.792 49.2085 56.3265 49.4104 55.9131C49.6154 55.4997 49.8986 55.1807 50.26 54.9561C50.6245 54.7314 51.0396 54.6191 51.5051 54.6191C52.2245 54.6191 52.8055 54.8682 53.2482 55.3662C53.6942 55.8643 53.9172 56.5267 53.9172 57.3535V57.417C53.9172 57.9313 53.8179 58.3936 53.6193 58.8037C53.424 59.2106 53.1424 59.528 52.7746 59.7559C52.41 59.9837 51.9901 60.0977 51.5148 60.0977C50.7987 60.0977 50.2176 59.8486 49.7717 59.3506C49.329 58.8525 49.1076 58.1934 49.1076 57.373V57.3096ZM50.0158 57.417C50.0158 58.0029 50.1509 58.4733 50.4211 58.8281C50.6945 59.1829 51.0591 59.3604 51.5148 59.3604C51.9738 59.3604 52.3384 59.1813 52.6086 58.8232C52.8788 58.4619 53.0139 57.9574 53.0139 57.3096C53.0139 56.7301 52.8755 56.2614 52.5988 55.9033C52.3254 55.542 51.9608 55.3613 51.5051 55.3613C51.0591 55.3613 50.6994 55.5387 50.426 55.8936C50.1525 56.2484 50.0158 56.7562 50.0158 57.417ZM57.8262 58.5986C57.8262 58.3545 57.7334 58.1657 57.5479 58.0322C57.3656 57.8955 57.0449 57.7783 56.5859 57.6807C56.1302 57.583 55.7673 57.4658 55.4971 57.3291C55.2301 57.1924 55.0316 57.0296 54.9014 56.8408C54.7744 56.652 54.7109 56.4274 54.7109 56.167C54.7109 55.734 54.8932 55.3678 55.2578 55.0684C55.6257 54.7689 56.0944 54.6191 56.6641 54.6191C57.263 54.6191 57.748 54.7738 58.1191 55.083C58.4935 55.3923 58.6807 55.7878 58.6807 56.2695H57.7725C57.7725 56.0221 57.6667 55.8089 57.4551 55.6299C57.2467 55.4508 56.9831 55.3613 56.6641 55.3613C56.3353 55.3613 56.0781 55.4329 55.8926 55.5762C55.707 55.7194 55.6143 55.9066 55.6143 56.1377C55.6143 56.3558 55.7005 56.5202 55.873 56.6309C56.0456 56.7415 56.3564 56.8473 56.8057 56.9482C57.2581 57.0492 57.6243 57.1696 57.9043 57.3096C58.1842 57.4495 58.391 57.6188 58.5244 57.8174C58.6611 58.0127 58.7295 58.252 58.7295 58.5352C58.7295 59.0072 58.5407 59.3864 58.1631 59.6729C57.7855 59.9561 57.2956 60.0977 56.6934 60.0977C56.2702 60.0977 55.8958 60.0228 55.5703 59.873C55.2448 59.7233 54.9893 59.515 54.8037 59.248C54.6214 58.9779 54.5303 58.6865 54.5303 58.374H55.4336C55.4499 58.6768 55.5703 58.9176 55.7949 59.0967C56.0228 59.2725 56.3223 59.3604 56.6934 59.3604C57.0352 59.3604 57.3086 59.292 57.5137 59.1553C57.722 59.0153 57.8262 58.8298 57.8262 58.5986Z" fill="#666666"/>
<defs>
<filter id="filter0_d_7838:60083" x="0" y="0" width="70" height="38" filterUnits="userSpaceOnUse" color-interpolation-filters="sRGB">
<feFlood flood-opacity="0" result="BackgroundImageFix"/>
<feColorMatrix in="SourceAlpha" type="matrix" values="0 0 0 0 0 0 0 0 0 0 0 0 0 0 0 0 0 0 127 0" result="hardAlpha"/>
<feOffset dy="1"/>
<feGaussianBlur stdDeviation="1"/>
<feColorMatrix type="matrix" values="0 0 0 0 0 0 0 0 0 0 0 0 0 0 0 0 0 0 0.2 0"/>
<feBlend mode="normal" in2="BackgroundImageFix" result="effect1_dropShadow_7838:60083"/>
<feBlend mode="normal" in="SourceGraphic" in2="effect1_dropShadow_7838:60083" result="shape"/>
</filter>
</defs>
</svg>
