<svg width="70" height="65" viewBox="0 0 70 65" fill="none" xmlns="http://www.w3.org/2000/svg">
<g filter="url(#filter0_d_7838:60167)">
<rect x="2" y="1" width="66" height="34" rx="8" fill="#E7F3F9"/>
<path d="M33.125 25.3125C33.125 25.9338 33.6287 26.4375 34.25 26.4375H41C41.6213 26.4375 42.125 25.9338 42.125 25.3125V12.9375H33.125V17.4375" stroke="#007DC5" stroke-linecap="round" stroke-linejoin="round"/>
<path fill-rule="evenodd" clip-rule="evenodd" d="M42.6875 12.9375H32.5625C32.2518 12.9375 32 12.6857 32 12.375V10.6875C32 10.0662 32.5037 9.5625 33.125 9.5625H42.125C42.7463 9.5625 43.25 10.0662 43.25 10.6875V12.375C43.25 12.6857 42.9982 12.9375 42.6875 12.9375Z" stroke="#007DC5" stroke-linecap="round" stroke-linejoin="round"/>
<path fill-rule="evenodd" clip-rule="evenodd" d="M29.8662 25.935C29.1963 26.605 28.11 26.605 27.44 25.935C26.77 25.265 26.77 24.1788 27.44 23.5088L31.325 19.6275C31.7584 19.1941 32.3901 19.0249 32.9822 19.1835C33.5742 19.3421 34.0366 19.8046 34.1953 20.3966C34.3539 20.9887 34.1847 21.6204 33.7512 22.0538L29.8662 25.935Z" stroke="#007DC5" stroke-linecap="round" stroke-linejoin="round"/>
<path d="M29.3809 21.5703L31.8064 23.9958" stroke="#007DC5" stroke-linecap="round" stroke-linejoin="round"/>
<rect x="36.5" y="17.4375" width="5.625" height="5.625" stroke="#007DC5" stroke-linecap="round" stroke-linejoin="round"/>
</g>
<path d="M19.8475 47.0674C19.6066 47.4124 19.2697 47.6712 18.8367 47.8438C18.407 48.013 17.9057 48.0977 17.3328 48.0977C16.7534 48.0977 16.2391 47.9626 15.7898 47.6924C15.3406 47.4189 14.9923 47.0316 14.7449 46.5303C14.5008 46.029 14.3755 45.4479 14.3689 44.7871V44.167C14.3689 43.096 14.618 42.266 15.116 41.6768C15.6173 41.0876 16.3204 40.793 17.2254 40.793C17.9676 40.793 18.5649 40.9834 19.0174 41.3643C19.4699 41.7419 19.7466 42.279 19.8475 42.9756H18.91C18.7342 42.0348 18.1743 41.5645 17.2303 41.5645C16.602 41.5645 16.1251 41.7858 15.7996 42.2285C15.4773 42.668 15.3146 43.306 15.3113 44.1426V44.7236C15.3113 45.5212 15.4936 46.1559 15.8582 46.6279C16.2228 47.0967 16.716 47.3311 17.3377 47.3311C17.6893 47.3311 17.9969 47.292 18.2605 47.2139C18.5242 47.1357 18.7423 47.0039 18.9148 46.8184V45.2217H17.2693V44.46H19.8475V47.0674ZM23.1656 48.0977C22.4495 48.0977 21.8668 47.8633 21.4176 47.3945C20.9684 46.9225 20.7438 46.2926 20.7438 45.5049V45.3389C20.7438 44.8148 20.843 44.3477 21.0416 43.9375C21.2434 43.5241 21.5234 43.2018 21.8814 42.9707C22.2428 42.7363 22.6334 42.6191 23.0533 42.6191C23.7402 42.6191 24.274 42.8454 24.6549 43.2979C25.0357 43.7503 25.2262 44.3981 25.2262 45.2412V45.6172H21.6471C21.6601 46.138 21.8115 46.5596 22.1012 46.8818C22.3941 47.2008 22.7652 47.3604 23.2145 47.3604C23.5335 47.3604 23.8036 47.2952 24.025 47.165C24.2464 47.0348 24.44 46.8623 24.6061 46.6475L25.1578 47.0771C24.7151 47.7575 24.051 48.0977 23.1656 48.0977ZM23.0533 43.3613C22.6887 43.3613 22.3827 43.4948 22.1354 43.7617C21.888 44.0254 21.735 44.3965 21.6764 44.875H24.3229V44.8066C24.2968 44.3477 24.1731 43.9928 23.9518 43.7422C23.7304 43.4883 23.4309 43.3613 23.0533 43.3613ZM26.8305 42.7168L26.8598 43.3809C27.2634 42.873 27.7908 42.6191 28.4418 42.6191C29.5583 42.6191 30.1215 43.249 30.1313 44.5088V48H29.2279V44.5039C29.2247 44.123 29.1368 43.8415 28.9643 43.6592C28.795 43.4769 28.5297 43.3857 28.1684 43.3857C27.8754 43.3857 27.6182 43.4639 27.3969 43.6201C27.1755 43.7764 27.003 43.9814 26.8793 44.2354V48H25.976V42.7168H26.8305ZM33.3859 48.0977C32.6698 48.0977 32.0871 47.8633 31.6379 47.3945C31.1887 46.9225 30.9641 46.2926 30.9641 45.5049V45.3389C30.9641 44.8148 31.0633 44.3477 31.2619 43.9375C31.4637 43.5241 31.7437 43.2018 32.1018 42.9707C32.4631 42.7363 32.8537 42.6191 33.2736 42.6191C33.9605 42.6191 34.4943 42.8454 34.8752 43.2979C35.2561 43.7503 35.4465 44.3981 35.4465 45.2412V45.6172H31.8674C31.8804 46.138 32.0318 46.5596 32.3215 46.8818C32.6145 47.2008 32.9855 47.3604 33.4348 47.3604C33.7538 47.3604 34.024 47.2952 34.2453 47.165C34.4667 47.0348 34.6604 46.8623 34.8264 46.6475L35.3781 47.0771C34.9354 47.7575 34.2714 48.0977 33.3859 48.0977ZM33.2736 43.3613C32.9091 43.3613 32.6031 43.4948 32.3557 43.7617C32.1083 44.0254 31.9553 44.3965 31.8967 44.875H34.5432V44.8066C34.5171 44.3477 34.3934 43.9928 34.1721 43.7422C33.9507 43.4883 33.6512 43.3613 33.2736 43.3613ZM33.7131 40.5H34.8068L33.4982 41.9355H32.7707L33.7131 40.5ZM38.75 43.5273C38.6133 43.5046 38.4652 43.4932 38.3057 43.4932C37.7132 43.4932 37.3112 43.7454 37.0996 44.25V48H36.1963V42.7168H37.0752L37.0898 43.3271C37.3861 42.8551 37.806 42.6191 38.3496 42.6191C38.5254 42.6191 38.6589 42.6419 38.75 42.6875V43.5273ZM40.2664 48H39.3631V42.7168H40.2664V48ZM39.2898 41.3154C39.2898 41.1689 39.3338 41.0452 39.4217 40.9443C39.5128 40.8434 39.6463 40.793 39.8221 40.793C39.9979 40.793 40.1313 40.8434 40.2225 40.9443C40.3136 41.0452 40.3592 41.1689 40.3592 41.3154C40.3592 41.4619 40.3136 41.584 40.2225 41.6816C40.1313 41.7793 39.9979 41.8281 39.8221 41.8281C39.6463 41.8281 39.5128 41.7793 39.4217 41.6816C39.3338 41.584 39.2898 41.4619 39.2898 41.3154ZM43.5357 47.3604C43.858 47.3604 44.1396 47.2627 44.3805 47.0674C44.6214 46.8721 44.7548 46.6279 44.7809 46.335H45.6354C45.6191 46.6377 45.5149 46.9258 45.3229 47.1992C45.1308 47.4727 44.8736 47.6908 44.5514 47.8535C44.2324 48.0163 43.8938 48.0977 43.5357 48.0977C42.8163 48.0977 42.2434 47.8584 41.817 47.3799C41.3938 46.8981 41.1822 46.2406 41.1822 45.4072V45.2559C41.1822 44.7415 41.2766 44.2842 41.4654 43.8838C41.6542 43.4834 41.9244 43.1725 42.276 42.9512C42.6308 42.7298 43.0491 42.6191 43.5309 42.6191C44.1233 42.6191 44.6148 42.7965 45.0055 43.1514C45.3994 43.5062 45.6093 43.9668 45.6354 44.5332H44.7809C44.7548 44.1914 44.6246 43.9115 44.3902 43.6934C44.1591 43.472 43.8727 43.3613 43.5309 43.3613C43.0719 43.3613 42.7154 43.5273 42.4615 43.8594C42.2109 44.1882 42.0855 44.665 42.0855 45.29V45.4609C42.0855 46.0697 42.2109 46.5384 42.4615 46.8672C42.7122 47.196 43.0702 47.3604 43.5357 47.3604ZM46.1117 45.3096C46.1117 44.792 46.2126 44.3265 46.4145 43.9131C46.6195 43.4997 46.9027 43.1807 47.2641 42.9561C47.6286 42.7314 48.0437 42.6191 48.5092 42.6191C49.2286 42.6191 49.8096 42.8682 50.2523 43.3662C50.6983 43.8643 50.9213 44.5267 50.9213 45.3535V45.417C50.9213 45.9313 50.822 46.3936 50.6234 46.8037C50.4281 47.2106 50.1465 47.528 49.7787 47.7559C49.4141 47.9837 48.9942 48.0977 48.5189 48.0977C47.8028 48.0977 47.2217 47.8486 46.7758 47.3506C46.3331 46.8525 46.1117 46.1934 46.1117 45.373V45.3096ZM47.0199 45.417C47.0199 46.0029 47.155 46.4733 47.4252 46.8281C47.6986 47.1829 48.0632 47.3604 48.5189 47.3604C48.9779 47.3604 49.3425 47.1813 49.6127 46.8232C49.8829 46.4619 50.018 45.9574 50.018 45.3096C50.018 44.7301 49.8796 44.2614 49.6029 43.9033C49.3295 43.542 48.9649 43.3613 48.5092 43.3613C48.0632 43.3613 47.7035 43.5387 47.4301 43.8936C47.1566 44.2484 47.0199 44.7562 47.0199 45.417ZM54.8303 46.5986C54.8303 46.3545 54.7375 46.1657 54.552 46.0322C54.3697 45.8955 54.049 45.7783 53.59 45.6807C53.1343 45.583 52.7714 45.4658 52.5012 45.3291C52.2342 45.1924 52.0357 45.0296 51.9055 44.8408C51.7785 44.652 51.715 44.4274 51.715 44.167C51.715 43.734 51.8973 43.3678 52.2619 43.0684C52.6298 42.7689 53.0985 42.6191 53.6682 42.6191C54.2671 42.6191 54.7521 42.7738 55.1232 43.083C55.4976 43.3923 55.6848 43.7878 55.6848 44.2695H54.7766C54.7766 44.0221 54.6708 43.8089 54.4592 43.6299C54.2508 43.4508 53.9872 43.3613 53.6682 43.3613C53.3394 43.3613 53.0822 43.4329 52.8967 43.5762C52.7111 43.7194 52.6184 43.9066 52.6184 44.1377C52.6184 44.3558 52.7046 44.5202 52.8771 44.6309C53.0497 44.7415 53.3605 44.8473 53.8098 44.9482C54.2622 45.0492 54.6284 45.1696 54.9084 45.3096C55.1883 45.4495 55.3951 45.6188 55.5285 45.8174C55.6652 46.0127 55.7336 46.252 55.7336 46.5352C55.7336 47.0072 55.5448 47.3864 55.1672 47.6729C54.7896 47.9561 54.2997 48.0977 53.6975 48.0977C53.2743 48.0977 52.8999 48.0228 52.5744 47.873C52.2489 47.7233 51.9934 47.515 51.8078 47.248C51.6255 46.9779 51.5344 46.6865 51.5344 46.374H52.4377C52.454 46.6768 52.5744 46.9176 52.799 47.0967C53.0269 47.2725 53.3264 47.3604 53.6975 47.3604C54.0393 47.3604 54.3127 47.292 54.5178 47.1553C54.7261 47.0153 54.8303 46.8298 54.8303 46.5986Z" fill="#666666"/>
<defs>
<filter id="filter0_d_7838:60167" x="0" y="0" width="70" height="38" filterUnits="userSpaceOnUse" color-interpolation-filters="sRGB">
<feFlood flood-opacity="0" result="BackgroundImageFix"/>
<feColorMatrix in="SourceAlpha" type="matrix" values="0 0 0 0 0 0 0 0 0 0 0 0 0 0 0 0 0 0 127 0" result="hardAlpha"/>
<feOffset dy="1"/>
<feGaussianBlur stdDeviation="1"/>
<feColorMatrix type="matrix" values="0 0 0 0 0 0 0 0 0 0 0 0 0 0 0 0 0 0 0.2 0"/>
<feBlend mode="normal" in2="BackgroundImageFix" result="effect1_dropShadow_7838:60167"/>
<feBlend mode="normal" in="SourceGraphic" in2="effect1_dropShadow_7838:60167" result="shape"/>
</filter>
</defs>
</svg>
