<svg width="66" height="61" viewBox="0 0 66 61" fill="none" xmlns="http://www.w3.org/2000/svg">
<g filter="url(#filter0_d_7838:59939)">
<rect x="2" y="1" width="62" height="30" rx="8" fill="#E7F3F9"/>
<g clip-path="url(#clip0_7838:59939)">
<path d="M37.1536 16.0001C37.2188 15.8833 37.3645 15.8385 37.4841 15.8987C37.502 15.9076 37.5175 15.9154 37.5323 15.9226C37.6016 15.9558 37.6517 16.0191 37.6683 16.0942C37.6794 16.1448 37.6926 16.1995 37.7064 16.2569C37.7402 16.397 37.7778 16.5529 37.7983 16.7023L37.7983 16.7025C37.8205 16.8649 37.8359 17.0278 37.8507 17.1847C37.8518 17.1967 37.8529 17.2087 37.8541 17.2207C37.8701 17.3906 37.8862 17.5538 37.9103 17.7145L37.9103 17.7146C37.9549 18.013 38.0536 18.244 38.2623 18.3966L38.2625 18.3967C38.3272 18.4441 38.3858 18.5047 38.4241 18.5869C38.4614 18.6669 38.4693 18.7463 38.4691 18.8131V18.8132C38.4672 19.4175 38.4673 20.0213 38.4674 20.6256C38.4674 20.9101 38.4675 21.1946 38.4673 21.4793C38.4673 21.6003 38.4916 21.6902 38.531 21.7572C38.5693 21.8224 38.631 21.8819 38.734 21.9292L38.7341 21.9293C39.0268 22.0639 39.3592 21.8566 39.3607 21.5192V21.5191C39.3652 20.5969 39.3631 19.6743 39.3605 18.751L37.1536 16.0001ZM37.1536 16.0001C37.0996 16.0967 37.0394 16.1291 36.9619 16.1463C36.8867 16.1629 36.8132 16.1629 36.7132 16.163C36.6718 16.163 36.6258 16.163 36.5732 16.1642L36.573 16.1642C36.4727 16.1666 36.3728 16.1691 36.2732 16.1717C35.9074 16.1811 35.5464 16.1904 35.1845 16.188L35.1841 16.188C35.16 16.1879 35.1 16.1665 35.0597 16.1309M37.1536 16.0001L35.0597 16.1309M35.0597 16.1309C35.0293 16.1041 34.991 16.0753 34.9452 16.0534C34.9872 16.0155 35.0159 15.977 35.0308 15.9569L34.83 15.8082L35.0305 15.9572C35.0686 15.906 35.1031 15.886 35.1673 15.8806L35.1675 15.8806C35.6462 15.8398 36.1245 15.7935 36.6024 15.7412L36.6024 15.7412C36.6915 15.7315 36.7609 15.6882 36.8016 15.6574C36.8464 15.6235 36.8851 15.5829 36.9144 15.5433L36.9147 15.543C36.9956 15.4333 37.0673 15.3292 37.1364 15.2291C37.2547 15.0574 37.365 14.8974 37.4996 14.7411C37.6539 14.5618 37.8329 14.3995 38.0231 14.285L38.0232 14.285C38.2133 14.1704 38.3751 14.1482 38.5094 14.1783C38.646 14.2088 38.7899 14.3016 38.9256 14.4837C39.5453 15.3151 39.781 16.2599 39.7462 17.2982C39.7393 17.5051 39.7255 17.7117 39.7114 17.9231L35.0597 16.1309ZM34.7788 16.0175C34.7735 16.0177 34.7682 16.018 34.7628 16.0184C34.6417 16.0281 34.5578 16.0998 34.518 16.1359C34.5179 16.1359 34.5179 16.136 34.5179 16.136L34.6177 16.246M34.7788 16.0175L34.3317 21.968C34.3528 21.9713 34.3707 21.9793 34.3844 21.9888C34.4104 22.0068 34.4173 22.0263 34.4187 22.0318C34.416 22.0214 34.4145 22.009 34.4135 21.9902C34.4135 21.9899 34.4135 21.9896 34.4135 21.9893C34.4131 21.98 34.4128 21.969 34.4126 21.9559C34.4125 21.9443 34.4124 21.9309 34.4124 21.9155V21.9154C34.4118 20.6086 34.4117 19.3017 34.4118 17.9948C34.4118 17.9948 34.4118 17.9948 34.4118 17.9947C34.4118 17.5757 34.4118 17.1567 34.4119 16.7377V16.7376C34.4119 16.7295 34.412 16.7214 34.4121 16.7135C34.4121 16.7135 34.4121 16.7135 34.4121 16.7135C34.4153 16.551 34.4507 16.4425 34.505 16.3627C34.5325 16.3223 34.5689 16.2834 34.6177 16.246M34.7788 16.0175L34.73 15.8996L34.7791 16.0175M34.7788 16.0175L34.7791 16.0175M34.6177 16.246L34.6857 16.321L34.6177 16.246M34.6177 16.246C34.6177 16.246 34.6177 16.246 34.6177 16.246M34.6177 16.246C34.6709 16.2054 34.7387 16.1668 34.8258 16.1305C34.8259 16.1304 34.826 16.1304 34.8261 16.1303L34.7791 16.0175M34.6177 16.246L34.7791 16.0175M29.2933 15.8987C29.4129 15.8385 29.5586 15.8833 29.6239 16.0001C29.6778 16.0967 29.7381 16.1291 29.8155 16.1463C29.8907 16.1629 29.9642 16.1629 30.0642 16.163C30.1057 16.163 30.1517 16.163 30.2043 16.1642L30.2044 16.1642C30.3048 16.1666 30.4047 16.1691 30.5042 16.1717C30.87 16.1811 31.2311 16.1904 31.5929 16.188L31.5933 16.188C31.6175 16.1879 31.6775 16.1665 31.7178 16.1309C31.7482 16.1041 31.7865 16.0753 31.8322 16.0534C31.7902 16.0155 31.7615 15.977 31.7467 15.9569L31.9476 15.8081M29.2933 15.8987L29.2779 14.7411C29.4124 14.8974 29.5227 15.0574 29.6411 15.2291C29.7101 15.3292 29.7818 15.4333 29.8627 15.543L29.863 15.5433C29.8923 15.5829 29.931 15.6235 29.9758 15.6574C30.0166 15.6882 30.086 15.7315 30.175 15.7412L30.175 15.7412C30.6529 15.7935 31.1312 15.8398 31.61 15.8806L31.6101 15.8806C31.6743 15.886 31.7088 15.906 31.7469 15.9572L31.9476 15.8081M29.2933 15.8987C29.2753 15.9077 29.261 15.9149 29.2472 15.9213C29.1766 15.9542 29.1254 16.0181 29.1086 16.0942C29.0975 16.1448 29.0843 16.1995 29.0705 16.2569C29.0367 16.397 28.9991 16.5529 28.9786 16.7023L28.9786 16.7025C28.9564 16.8649 28.941 17.0278 28.9262 17.1846C28.9251 17.1967 28.924 17.2087 28.9228 17.2207C28.9068 17.3906 28.8907 17.5538 28.8666 17.7145L28.8666 17.7146C28.822 18.013 28.7233 18.244 28.5146 18.3966L28.5145 18.3967C28.4497 18.4441 28.3911 18.5047 28.3528 18.5869C28.3155 18.6669 28.3076 18.7463 28.3078 18.8131L28.3078 18.8132C28.3097 19.4173 28.3096 20.0211 28.3095 20.6253C28.3095 20.9098 28.3094 21.1944 28.3096 21.4793C28.3096 21.6003 28.2853 21.6902 28.2459 21.7572C28.2076 21.8224 28.1459 21.8819 28.0429 21.9292L28.0429 21.9293C27.7501 22.0639 27.4177 21.8566 27.4162 21.5192L27.4162 21.5191M29.2933 15.8987L27.4162 21.5191M31.9476 15.8081C31.8681 15.7012 31.769 15.6432 31.6312 15.6315M31.9476 15.8081C31.9742 15.8441 32.0079 15.8832 32.0474 15.8996M31.6312 15.6315L31.9983 16.0175L32.0474 15.8996M31.6312 15.6315C31.1544 15.5908 30.678 15.5447 30.2022 15.4927C30.1525 15.4872 30.0963 15.4383 30.0639 15.3945C29.9934 15.299 29.9258 15.2011 29.8582 15.1032L29.8582 15.1032C29.7338 14.9231 29.6094 14.7431 29.4673 14.5779C29.3005 14.3842 29.1018 14.2024 28.8833 14.0709L31.6312 15.6315ZM32.0474 15.8996L31.9987 16.0175L32.6155 16.7376C32.6155 16.3163 32.4411 16.0635 32.0474 15.8996ZM28.7543 14.285L28.7542 14.285C28.5642 14.1704 28.4023 14.1482 28.268 14.1783C28.1314 14.2088 27.9875 14.3016 27.8518 14.4837L27.8518 14.4837C27.2316 15.3151 26.9959 16.2599 27.0307 17.2982M28.7543 14.285L27.0716 18.0136C27.0696 17.9833 27.0675 17.9531 27.0655 17.923C27.0514 17.7116 27.0376 17.505 27.0307 17.2982M28.7543 14.285C28.9445 14.3995 29.1235 14.5618 29.2778 14.741L28.7543 14.285ZM27.0307 17.2982L26.7808 17.3066L27.0307 17.2982ZM27.2444 18.3711L27.2445 18.3711C27.2996 18.4176 27.3476 18.475 27.3789 18.5487C27.4094 18.6205 27.4166 18.6907 27.4164 18.7509L27.2444 18.3711ZM27.2444 18.3711C27.1381 18.2814 27.0817 18.1645 27.0716 18.0137L27.2444 18.3711ZM27.4162 21.5191C27.4117 20.5969 27.4138 19.6743 27.4164 18.751L27.4162 21.5191ZM36.3716 12.3999V12.4C36.3708 12.9152 36.807 13.3526 37.3391 13.3547C37.8673 13.3567 38.3011 12.9279 38.3051 12.4014C38.309 11.88 37.8801 11.4468 37.3467 11.4446L36.3716 12.3999ZM36.3716 12.3999C36.3722 11.8737 36.8067 11.4423 37.3467 11.4446L36.3716 12.3999ZM39.7053 18.0137C39.6953 18.1645 39.6388 18.2814 39.5325 18.3711L39.5324 18.3711C39.4773 18.4176 39.4293 18.475 39.398 18.5487C39.3675 18.6205 39.3603 18.6907 39.3605 18.7509L39.7053 18.0137ZM32.4249 22.21C32.5073 22.2362 32.5784 22.1805 32.6006 22.0947L32.4249 22.21ZM32.2596 16.136C32.2595 16.136 32.2595 16.1359 32.2594 16.1359L32.1597 16.246C32.1597 16.246 32.1597 16.246 32.1598 16.246L32.2596 16.136ZM30.4956 16.4216C30.8619 16.431 31.2283 16.4404 31.5946 16.438L30.1986 16.4142C30.2976 16.4165 30.3966 16.419 30.4956 16.4216ZM28.7985 11.323C28.8138 11.39 28.856 11.4477 28.9151 11.4826C28.9742 11.5175 29.0451 11.5266 29.1112 11.5076C29.492 11.3984 29.8104 11.4544 30.0904 11.6979C30.2716 11.8554 30.3716 12.053 30.3984 12.3002L30.3984 12.3002C30.4572 12.8416 30.0488 13.3306 29.4548 13.3454L29.4548 13.3454C28.9915 13.357 28.412 12.9709 28.5003 12.1862C28.5078 12.1197 28.4883 12.053 28.4463 12.001C28.4042 11.949 28.3431 11.916 28.2765 11.9095C28.0488 11.8869 27.8945 11.823 27.7903 11.6818L27.7901 11.6817C27.7054 11.5672 27.6686 11.4505 27.677 11.3269L27.677 11.3267C27.6964 11.0409 27.9056 10.833 28.1519 10.8083L28.1521 10.8083C28.2973 10.7936 28.4334 10.824 28.5418 10.8985C28.6477 10.9714 28.7477 11.1006 28.7985 11.323Z" stroke="#007DC5" stroke-width="0.5" stroke-linejoin="round"/>
<path d="M37.3718 16.122C37.1859 16.4548 36.873 16.4074 36.5789 16.4142C36.1135 16.425 35.6482 16.4411 35.1828 16.438C35.0848 16.4375 34.9687 16.3841 34.8942 16.3183C34.8069 16.2412 34.7541 16.2593 34.6858 16.3212C34.5698 16.4263 34.5175 16.5584 34.5177 16.7133C34.5188 17.1404 34.5193 17.5674 34.5193 17.9947C34.5196 19.3151 34.5196 20.6356 34.5196 21.9559C34.5196 21.9948 34.5331 22.0455 34.5135 22.0699C34.4694 22.1253 34.4158 22.1901 34.3525 22.21C34.2701 22.2362 34.199 22.1805 34.1768 22.0947C34.1619 22.0375 34.1624 21.9754 34.1624 21.9155C34.1617 20.1896 34.1616 18.4635 34.1619 16.7376C34.1619 16.3163 34.3363 16.0635 34.73 15.8996C34.7695 15.8832 34.8032 15.8441 34.8299 15.8081C34.9094 15.7012 35.0084 15.6432 35.1462 15.6315C35.6231 15.5908 36.0994 15.5447 36.5752 15.4927C36.6249 15.4872 36.6811 15.4383 36.7135 15.3945C36.9138 15.1231 37.0908 14.8328 37.3101 14.5779C37.4769 14.3842 37.6756 14.2024 37.8942 14.0709C38.3613 13.7893 38.8026 13.9004 39.126 14.3342C39.7856 15.2192 40.0324 16.2225 39.9961 17.3066C39.988 17.548 39.9707 17.7891 39.9548 18.0302C39.9407 18.2418 39.857 18.4244 39.6936 18.5622C39.6301 18.6158 39.6102 18.6704 39.6105 18.7502C39.6131 19.6735 39.6152 20.597 39.6107 21.5203C39.6084 22.0354 39.0913 22.3688 38.6296 22.1564C38.3417 22.024 38.2173 21.7878 38.2173 21.4791C38.2178 20.5903 38.2163 19.7015 38.2191 18.8124C38.2194 18.7184 38.1959 18.6577 38.1148 18.5984C37.8296 18.39 37.7125 18.082 37.6631 17.7516C37.6126 17.4151 37.5966 17.0735 37.5506 16.7363C37.5234 16.5382 37.4672 16.344 37.4241 16.1479C37.4068 16.1396 37.3893 16.1308 37.3718 16.122Z" stroke="#007DC5" stroke-width="0.5"/>
<path d="M29.4056 16.122C29.5915 16.4548 29.9044 16.4074 30.1986 16.4142C30.6639 16.425 31.1293 16.4411 31.5946 16.438C31.6927 16.4375 31.8087 16.3841 31.8832 16.3183C31.9706 16.2412 32.0234 16.2593 32.0916 16.3212C32.2077 16.4263 32.26 16.5584 32.2597 16.7133C32.2587 17.1404 32.2581 17.5674 32.2581 17.9947C32.2579 19.3151 32.2579 20.6356 32.2579 21.9559C32.2579 21.9948 32.2443 22.0455 32.2639 22.0699C32.3081 22.1253 32.3617 22.1901 32.4249 22.21C32.5073 22.2362 32.5784 22.1805 32.6006 22.0947C32.6155 22.0375 32.615 21.9754 32.615 21.9155C32.6158 20.1896 32.6158 18.4635 32.6155 16.7376C32.6155 16.3163 32.4411 16.0635 32.0474 15.8996C32.0079 15.8832 31.9742 15.8441 31.9476 15.8081C31.8681 15.7012 31.769 15.6432 31.6312 15.6315C31.1544 15.5908 30.678 15.5447 30.2022 15.4927C30.1525 15.4872 30.0963 15.4383 30.0639 15.3945C29.8637 15.1231 29.6867 14.8328 29.4673 14.5779C29.3005 14.3842 29.1018 14.2024 28.8833 14.0709C28.4161 13.7893 27.9748 13.9004 27.6514 14.3342C26.9913 15.2192 26.7445 16.2225 26.7808 17.3066C26.7889 17.548 26.8062 17.7891 26.8221 18.0302C26.8362 18.2418 26.9199 18.4244 27.0833 18.5622C27.1468 18.6158 27.1667 18.6704 27.1664 18.7502C27.1638 19.6735 27.1617 20.597 27.1662 21.5203C27.1685 22.0354 27.6856 22.3688 28.1473 22.1564C28.4352 22.024 28.5596 21.7878 28.5596 21.4791C28.5591 20.5903 28.5607 19.7015 28.5578 18.8124C28.5575 18.7184 28.5811 18.6577 28.6621 18.5984C28.9473 18.39 29.0644 18.082 29.1139 17.7516C29.1643 17.4151 29.1803 17.0735 29.2263 16.7363C29.2535 16.5382 29.3097 16.344 29.3528 16.1479C29.3706 16.1396 29.3881 16.1308 29.4056 16.122Z" stroke="#007DC5" stroke-width="0.5"/>
<path d="M29.0422 11.2673C29.4927 11.1381 29.9018 11.2026 30.2545 11.5092C30.4859 11.7105 30.6137 11.9671 30.6469 12.2732C30.7217 12.9619 30.1993 13.577 29.461 13.5954C28.8689 13.6101 28.1442 13.1155 28.2519 12.1582C27.9902 12.1323 27.7531 12.0523 27.5892 11.8304C27.4744 11.6752 27.4145 11.5009 27.4276 11.3098C27.4548 10.9092 27.7526 10.5971 28.1269 10.5595C28.5162 10.5202 28.9167 10.7178 29.0422 11.2673Z" stroke="#007DC5" stroke-width="0.5"/>
<path d="M37.3478 11.1946C38.017 11.1974 38.56 11.741 38.5551 12.4032C38.5501 13.0678 38.0037 13.6073 37.3381 13.6047C36.6717 13.6021 36.1206 13.0561 36.1216 12.3996C36.1224 11.7322 36.6722 11.1917 37.3478 11.1946Z" stroke="#007DC5" stroke-width="0.5"/>
</g>
</g>
<path d="M18.7201 43.0674C18.4792 43.4124 18.1423 43.6712 17.7094 43.8438C17.2797 44.013 16.7784 44.0977 16.2055 44.0977C15.626 44.0977 15.1117 43.9626 14.6625 43.6924C14.2133 43.4189 13.865 43.0316 13.6176 42.5303C13.3734 42.029 13.2481 41.4479 13.2416 40.7871V40.167C13.2416 39.096 13.4906 38.266 13.9887 37.6768C14.49 37.0876 15.1931 36.793 16.098 36.793C16.8402 36.793 17.4376 36.9834 17.89 37.3643C18.3425 37.7419 18.6192 38.279 18.7201 38.9756H17.7826C17.6068 38.0348 17.0469 37.5645 16.1029 37.5645C15.4747 37.5645 14.9978 37.7858 14.6723 38.2285C14.35 38.668 14.1872 39.306 14.184 40.1426V40.7236C14.184 41.5212 14.3663 42.1559 14.7309 42.6279C15.0954 43.0967 15.5886 43.3311 16.2104 43.3311C16.5619 43.3311 16.8695 43.292 17.1332 43.2139C17.3969 43.1357 17.615 43.0039 17.7875 42.8184V41.2217H16.142V40.46H18.7201V43.0674ZM22.0383 44.0977C21.3221 44.0977 20.7395 43.8633 20.2902 43.3945C19.841 42.9225 19.6164 42.2926 19.6164 41.5049V41.3389C19.6164 40.8148 19.7157 40.3477 19.9143 39.9375C20.1161 39.5241 20.396 39.2018 20.7541 38.9707C21.1154 38.7363 21.5061 38.6191 21.926 38.6191C22.6128 38.6191 23.1467 38.8454 23.5275 39.2979C23.9084 39.7503 24.0988 40.3981 24.0988 41.2412V41.6172H20.5197C20.5327 42.138 20.6841 42.5596 20.9738 42.8818C21.2668 43.2008 21.6379 43.3604 22.0871 43.3604C22.4061 43.3604 22.6763 43.2952 22.8977 43.165C23.119 43.0348 23.3127 42.8623 23.4787 42.6475L24.0305 43.0771C23.5878 43.7575 22.9237 44.0977 22.0383 44.0977ZM21.926 39.3613C21.5614 39.3613 21.2554 39.4948 21.008 39.7617C20.7606 40.0254 20.6076 40.3965 20.549 40.875H23.1955V40.8066C23.1695 40.3477 23.0458 39.9928 22.8244 39.7422C22.6031 39.4883 22.3036 39.3613 21.926 39.3613ZM27.4023 39.5273C27.2656 39.5046 27.1175 39.4932 26.958 39.4932C26.3656 39.4932 25.9635 39.7454 25.752 40.25V44H24.8486V38.7168H25.7275L25.7422 39.3271C26.0384 38.8551 26.4583 38.6191 27.002 38.6191C27.1777 38.6191 27.3112 38.6419 27.4023 38.6875V39.5273ZM28.9188 44H28.0154V38.7168H28.9188V44ZM27.9422 37.3154C27.9422 37.1689 27.9861 37.0452 28.074 36.9443C28.1652 36.8434 28.2986 36.793 28.4744 36.793C28.6502 36.793 28.7837 36.8434 28.8748 36.9443C28.966 37.0452 29.0115 37.1689 29.0115 37.3154C29.0115 37.4619 28.966 37.584 28.8748 37.6816C28.7837 37.7793 28.6502 37.8281 28.4744 37.8281C28.2986 37.8281 28.1652 37.7793 28.074 37.6816C27.9861 37.584 27.9422 37.4619 27.9422 37.3154ZM33.3307 44C33.2786 43.8958 33.2363 43.7103 33.2037 43.4434C32.7838 43.8796 32.2825 44.0977 31.6998 44.0977C31.179 44.0977 30.7509 43.9512 30.4156 43.6582C30.0836 43.362 29.9176 42.9876 29.9176 42.5352C29.9176 41.985 30.1259 41.5586 30.5426 41.2559C30.9625 40.9499 31.5517 40.7969 32.3102 40.7969H33.1891V40.3818C33.1891 40.0661 33.0947 39.8154 32.9059 39.6299C32.7171 39.4411 32.4387 39.3467 32.0709 39.3467C31.7486 39.3467 31.4785 39.4281 31.2604 39.5908C31.0423 39.7536 30.9332 39.9505 30.9332 40.1816H30.025C30.025 39.918 30.1178 39.6641 30.3033 39.4199C30.4921 39.1725 30.746 38.9772 31.065 38.834C31.3873 38.6908 31.7405 38.6191 32.1246 38.6191C32.7333 38.6191 33.2102 38.7721 33.5553 39.0781C33.9003 39.3809 34.0794 39.7992 34.0924 40.333V42.7646C34.0924 43.2497 34.1542 43.6354 34.2779 43.9219V44H33.3307ZM31.8316 43.3115C32.1148 43.3115 32.3834 43.2383 32.6373 43.0918C32.8912 42.9453 33.0751 42.7549 33.1891 42.5205V41.4365H32.4811C31.3743 41.4365 30.8209 41.7604 30.8209 42.4082C30.8209 42.6914 30.9153 42.9128 31.1041 43.0723C31.2929 43.2318 31.5354 43.3115 31.8316 43.3115ZM32.6666 36.5H33.7604L32.4518 37.9355H31.7242L32.6666 36.5ZM36.434 37.4375V38.7168H37.4203V39.415H36.434V42.6914C36.434 42.903 36.4779 43.0625 36.5658 43.1699C36.6537 43.2741 36.8034 43.3262 37.015 43.3262C37.1192 43.3262 37.2624 43.3066 37.4447 43.2676V44C37.2071 44.0651 36.976 44.0977 36.7514 44.0977C36.3477 44.0977 36.0434 43.9756 35.8383 43.7314C35.6332 43.4873 35.5307 43.1406 35.5307 42.6914V39.415H34.5687V38.7168H35.5307V37.4375H36.434ZM40.7336 39.5273C40.5969 39.5046 40.4488 39.4932 40.2893 39.4932C39.6968 39.4932 39.2948 39.7454 39.0832 40.25V44H38.1799V38.7168H39.0588L39.0734 39.3271C39.3697 38.8551 39.7896 38.6191 40.3332 38.6191C40.509 38.6191 40.6425 38.6419 40.7336 38.6875V39.5273ZM42.25 44H41.3467V38.7168H42.25V44ZM41.2734 37.3154C41.2734 37.1689 41.3174 37.0452 41.4053 36.9443C41.4964 36.8434 41.6299 36.793 41.8057 36.793C41.9814 36.793 42.1149 36.8434 42.2061 36.9443C42.2972 37.0452 42.3428 37.1689 42.3428 37.3154C42.3428 37.4619 42.2972 37.584 42.2061 37.6816C42.1149 37.7793 41.9814 37.8281 41.8057 37.8281C41.6299 37.8281 41.4964 37.7793 41.4053 37.6816C41.3174 37.584 41.2734 37.4619 41.2734 37.3154ZM45.5193 43.3604C45.8416 43.3604 46.1232 43.2627 46.3641 43.0674C46.6049 42.8721 46.7384 42.6279 46.7645 42.335H47.6189C47.6027 42.6377 47.4985 42.9258 47.3064 43.1992C47.1144 43.4727 46.8572 43.6908 46.535 43.8535C46.216 44.0163 45.8774 44.0977 45.5193 44.0977C44.7999 44.0977 44.227 43.8584 43.8006 43.3799C43.3774 42.8981 43.1658 42.2406 43.1658 41.4072V41.2559C43.1658 40.7415 43.2602 40.2842 43.449 39.8838C43.6378 39.4834 43.908 39.1725 44.2596 38.9512C44.6144 38.7298 45.0327 38.6191 45.5145 38.6191C46.1069 38.6191 46.5984 38.7965 46.9891 39.1514C47.3829 39.5062 47.5929 39.9668 47.6189 40.5332H46.7645C46.7384 40.1914 46.6082 39.9115 46.3738 39.6934C46.1427 39.472 45.8563 39.3613 45.5145 39.3613C45.0555 39.3613 44.699 39.5273 44.4451 39.8594C44.1945 40.1882 44.0691 40.665 44.0691 41.29V41.4609C44.0691 42.0697 44.1945 42.5384 44.4451 42.8672C44.6958 43.196 45.0538 43.3604 45.5193 43.3604ZM48.0953 41.3096C48.0953 40.792 48.1962 40.3265 48.398 39.9131C48.6031 39.4997 48.8863 39.1807 49.2477 38.9561C49.6122 38.7314 50.0273 38.6191 50.4928 38.6191C51.2122 38.6191 51.7932 38.8682 52.2359 39.3662C52.6819 39.8643 52.9049 40.5267 52.9049 41.3535V41.417C52.9049 41.9313 52.8056 42.3936 52.607 42.8037C52.4117 43.2106 52.1301 43.528 51.7623 43.7559C51.3977 43.9837 50.9778 44.0977 50.5025 44.0977C49.7864 44.0977 49.2053 43.8486 48.7594 43.3506C48.3167 42.8525 48.0953 42.1934 48.0953 41.373V41.3096ZM49.0035 41.417C49.0035 42.0029 49.1386 42.4733 49.4088 42.8281C49.6822 43.1829 50.0468 43.3604 50.5025 43.3604C50.9615 43.3604 51.3261 43.1813 51.5963 42.8232C51.8665 42.4619 52.0016 41.9574 52.0016 41.3096C52.0016 40.7301 51.8632 40.2614 51.5865 39.9033C51.3131 39.542 50.9485 39.3613 50.4928 39.3613C50.0468 39.3613 49.6871 39.5387 49.4137 39.8936C49.1402 40.2484 49.0035 40.7562 49.0035 41.417Z" fill="#666666"/>
<defs>
<filter id="filter0_d_7838:59939" x="0" y="0" width="66" height="34" filterUnits="userSpaceOnUse" color-interpolation-filters="sRGB">
<feFlood flood-opacity="0" result="BackgroundImageFix"/>
<feColorMatrix in="SourceAlpha" type="matrix" values="0 0 0 0 0 0 0 0 0 0 0 0 0 0 0 0 0 0 127 0" result="hardAlpha"/>
<feOffset dy="1"/>
<feGaussianBlur stdDeviation="1"/>
<feColorMatrix type="matrix" values="0 0 0 0 0 0 0 0 0 0 0 0 0 0 0 0 0 0 0.2 0"/>
<feBlend mode="normal" in2="BackgroundImageFix" result="effect1_dropShadow_7838:59939"/>
<feBlend mode="normal" in="SourceGraphic" in2="effect1_dropShadow_7838:59939" result="shape"/>
</filter>
<clipPath id="clip0_7838:59939">
<rect width="14" height="14" fill="white" transform="translate(26 9)"/>
</clipPath>
</defs>
</svg>
