<svg width="70" height="65" viewBox="0 0 70 65" fill="none" xmlns="http://www.w3.org/2000/svg">
<g filter="url(#filter0_d_7838:60151)">
<rect x="2" y="1" width="66" height="34" rx="8" fill="#E7F3F9"/>
<path d="M41.4156 25.7846V21.5621C43.3213 19.7966 43.9505 17.0437 43.0011 14.6257C42.0516 12.2076 39.7174 10.6183 37.1196 10.6211C32.3091 10.6211 31.2696 14.5826 29.5551 19.0316C29.4954 19.1871 29.516 19.3621 29.6103 19.4995C29.7045 19.6368 29.8603 19.7191 30.0269 19.7193H31.3071V21.7443C31.3071 22.8627 32.2138 23.7693 33.3321 23.7693H34.3401V25.7943" stroke="#007DC5" stroke-linecap="round" stroke-linejoin="round"/>
<path d="M29.0527 24.9961C29.2081 24.9961 29.334 25.122 29.334 25.2773" stroke="#007DC5" stroke-linecap="round" stroke-linejoin="round"/>
<path d="M28.7754 25.2773C28.7754 25.122 28.9013 24.9961 29.0566 24.9961" stroke="#007DC5" stroke-linecap="round" stroke-linejoin="round"/>
<path d="M29.0537 25.5616C28.9791 25.5608 28.9078 25.5304 28.8557 25.4771C28.8035 25.4238 28.7746 25.3519 28.7754 25.2773" stroke="#007DC5" stroke-linecap="round" stroke-linejoin="round"/>
<path d="M29.334 25.2773C29.334 25.4327 29.2081 25.5586 29.0527 25.5586" stroke="#007DC5" stroke-linecap="round" stroke-linejoin="round"/>
<path d="M27.0312 22.4688C27.1866 22.4687 27.3125 22.5947 27.3125 22.75" stroke="#007DC5" stroke-linecap="round" stroke-linejoin="round"/>
<path d="M26.75 22.75C26.75 22.5947 26.8759 22.4688 27.0312 22.4688" stroke="#007DC5" stroke-linecap="round" stroke-linejoin="round"/>
<path d="M27.0312 23.0312C26.8759 23.0312 26.75 22.9053 26.75 22.75" stroke="#007DC5" stroke-linecap="round" stroke-linejoin="round"/>
<path d="M27.3125 22.75C27.3125 22.9053 27.1866 23.0312 27.0312 23.0312" stroke="#007DC5" stroke-linecap="round" stroke-linejoin="round"/>
<path d="M29.5586 21.9648C29.7139 21.9648 29.8398 22.0908 29.8398 22.2461" stroke="#007DC5" stroke-linecap="round" stroke-linejoin="round"/>
<path d="M29.2773 22.2461C29.2771 22.1714 29.3067 22.0998 29.3595 22.047C29.4123 21.9942 29.4839 21.9646 29.5586 21.9648" stroke="#007DC5" stroke-linecap="round" stroke-linejoin="round"/>
<path d="M29.5586 22.5273C29.4839 22.5275 29.4123 22.498 29.3595 22.4452C29.3067 22.3924 29.2771 22.3207 29.2773 22.2461" stroke="#007DC5" stroke-linecap="round" stroke-linejoin="round"/>
<path d="M29.8398 22.2461C29.8398 22.4014 29.7139 22.5273 29.5586 22.5273" stroke="#007DC5" stroke-linecap="round" stroke-linejoin="round"/>
</g>
<path d="M24.0271 47.0674C23.7863 47.4124 23.4493 47.6712 23.0164 47.8438C22.5867 48.013 22.0854 48.0977 21.5125 48.0977C20.9331 48.0977 20.4188 47.9626 19.9695 47.6924C19.5203 47.4189 19.172 47.0316 18.9246 46.5303C18.6805 46.029 18.5551 45.4479 18.5486 44.7871V44.167C18.5486 43.096 18.7977 42.266 19.2957 41.6768C19.797 41.0876 20.5001 40.793 21.4051 40.793C22.1473 40.793 22.7446 40.9834 23.1971 41.3643C23.6495 41.7419 23.9262 42.279 24.0271 42.9756H23.0896C22.9139 42.0348 22.354 41.5645 21.41 41.5645C20.7817 41.5645 20.3048 41.7858 19.9793 42.2285C19.657 42.668 19.4943 43.306 19.491 44.1426V44.7236C19.491 45.5212 19.6733 46.1559 20.0379 46.6279C20.4025 47.0967 20.8956 47.3311 21.5174 47.3311C21.8689 47.3311 22.1766 47.292 22.4402 47.2139C22.7039 47.1357 22.922 47.0039 23.0945 46.8184V45.2217H21.449V44.46H24.0271V47.0674ZM27.7066 43.5273C27.5699 43.5046 27.4218 43.4932 27.2623 43.4932C26.6699 43.4932 26.2678 43.7454 26.0563 44.25V48H25.1529V42.7168H26.0318L26.0465 43.3271C26.3427 42.8551 26.7626 42.6191 27.3063 42.6191C27.482 42.6191 27.6155 42.6419 27.7066 42.6875V43.5273ZM29.223 48H28.3197V42.7168H29.223V48ZM28.2465 41.3154C28.2465 41.1689 28.2904 41.0452 28.3783 40.9443C28.4695 40.8434 28.6029 40.793 28.7787 40.793C28.9545 40.793 29.088 40.8434 29.1791 40.9443C29.2702 41.0452 29.3158 41.1689 29.3158 41.3154C29.3158 41.4619 29.2702 41.584 29.1791 41.6816C29.088 41.7793 28.9545 41.8281 28.7787 41.8281C28.6029 41.8281 28.4695 41.7793 28.3783 41.6816C28.2904 41.584 28.2465 41.4619 28.2465 41.3154ZM34.8361 45.417C34.8361 46.221 34.6522 46.8688 34.2844 47.3604C33.9165 47.8519 33.4185 48.0977 32.7902 48.0977C32.149 48.0977 31.6444 47.8942 31.2766 47.4873V50.0312H30.3732V42.7168H31.1984L31.2424 43.3027C31.6102 42.847 32.1213 42.6191 32.7756 42.6191C33.4104 42.6191 33.9117 42.8584 34.2795 43.3369C34.6506 43.8154 34.8361 44.4811 34.8361 45.334V45.417ZM33.9328 45.3145C33.9328 44.7188 33.8059 44.2484 33.552 43.9033C33.298 43.5583 32.9497 43.3857 32.507 43.3857C31.9602 43.3857 31.55 43.6283 31.2766 44.1133V46.6377C31.5467 47.1195 31.9602 47.3604 32.5168 47.3604C32.9497 47.3604 33.2932 47.1895 33.5471 46.8477C33.8042 46.5026 33.9328 45.9915 33.9328 45.3145ZM37.8809 48.0977C37.1647 48.0977 36.582 47.8633 36.1328 47.3945C35.6836 46.9225 35.459 46.2926 35.459 45.5049V45.3389C35.459 44.8148 35.5583 44.3477 35.7568 43.9375C35.9587 43.5241 36.2386 43.2018 36.5967 42.9707C36.958 42.7363 37.3486 42.6191 37.7686 42.6191C38.4554 42.6191 38.9893 42.8454 39.3701 43.2979C39.751 43.7503 39.9414 44.3981 39.9414 45.2412V45.6172H36.3623C36.3753 46.138 36.5267 46.5596 36.8164 46.8818C37.1094 47.2008 37.4805 47.3604 37.9297 47.3604C38.2487 47.3604 38.5189 47.2952 38.7402 47.165C38.9616 47.0348 39.1553 46.8623 39.3213 46.6475L39.873 47.0771C39.4303 47.7575 38.7663 48.0977 37.8809 48.0977ZM37.7686 43.3613C37.404 43.3613 37.098 43.4948 36.8506 43.7617C36.6032 44.0254 36.4502 44.3965 36.3916 44.875H39.0381V44.8066C39.012 44.3477 38.8883 43.9928 38.667 43.7422C38.4456 43.4883 38.1462 43.3613 37.7686 43.3613ZM43.7674 46.5986C43.7674 46.3545 43.6746 46.1657 43.4891 46.0322C43.3068 45.8955 42.9861 45.7783 42.5271 45.6807C42.0714 45.583 41.7085 45.4658 41.4383 45.3291C41.1714 45.1924 40.9728 45.0296 40.8426 44.8408C40.7156 44.652 40.6521 44.4274 40.6521 44.167C40.6521 43.734 40.8344 43.3678 41.199 43.0684C41.5669 42.7689 42.0356 42.6191 42.6053 42.6191C43.2042 42.6191 43.6893 42.7738 44.0604 43.083C44.4347 43.3923 44.6219 43.7878 44.6219 44.2695H43.7137C43.7137 44.0221 43.6079 43.8089 43.3963 43.6299C43.188 43.4508 42.9243 43.3613 42.6053 43.3613C42.2765 43.3613 42.0193 43.4329 41.8338 43.5762C41.6482 43.7194 41.5555 43.9066 41.5555 44.1377C41.5555 44.3558 41.6417 44.5202 41.8143 44.6309C41.9868 44.7415 42.2977 44.8473 42.7469 44.9482C43.1993 45.0492 43.5656 45.1696 43.8455 45.3096C44.1255 45.4495 44.3322 45.6188 44.4656 45.8174C44.6023 46.0127 44.6707 46.252 44.6707 46.5352C44.6707 47.0072 44.4819 47.3864 44.1043 47.6729C43.7267 47.9561 43.2368 48.0977 42.6346 48.0977C42.2114 48.0977 41.837 48.0228 41.5115 47.873C41.186 47.7233 40.9305 47.515 40.7449 47.248C40.5626 46.9779 40.4715 46.6865 40.4715 46.374H41.3748C41.3911 46.6768 41.5115 46.9176 41.7361 47.0967C41.964 47.2725 42.2635 47.3604 42.6346 47.3604C42.9764 47.3604 43.2498 47.292 43.4549 47.1553C43.6632 47.0153 43.7674 46.8298 43.7674 46.5986ZM49.9203 48.0977C49.2042 48.0977 48.6215 47.8633 48.1723 47.3945C47.723 46.9225 47.4984 46.2926 47.4984 45.5049V45.3389C47.4984 44.8148 47.5977 44.3477 47.7963 43.9375C47.9981 43.5241 48.2781 43.2018 48.6361 42.9707C48.9975 42.7363 49.3881 42.6191 49.808 42.6191C50.4949 42.6191 51.0287 42.8454 51.4096 43.2979C51.7904 43.7503 51.9809 44.3981 51.9809 45.2412V45.6172H48.4018C48.4148 46.138 48.5661 46.5596 48.8559 46.8818C49.1488 47.2008 49.5199 47.3604 49.9691 47.3604C50.2881 47.3604 50.5583 47.2952 50.7797 47.165C51.001 47.0348 51.1947 46.8623 51.3607 46.6475L51.9125 47.0771C51.4698 47.7575 50.8057 48.0977 49.9203 48.0977ZM49.808 43.3613C49.4434 43.3613 49.1374 43.4948 48.89 43.7617C48.6426 44.0254 48.4896 44.3965 48.4311 44.875H51.0775V44.8066C51.0515 44.3477 50.9278 43.9928 50.7064 43.7422C50.4851 43.4883 50.1856 43.3613 49.808 43.3613ZM17.0922 55.5273C16.9555 55.5046 16.8074 55.4932 16.6479 55.4932C16.0554 55.4932 15.6534 55.7454 15.4418 56.25V60H14.5385V54.7168H15.4174L15.432 55.3271C15.7283 54.8551 16.1482 54.6191 16.6918 54.6191C16.8676 54.6191 17.001 54.6419 17.0922 54.6875V55.5273ZM19.7219 60.0977C19.0057 60.0977 18.423 59.8633 17.9738 59.3945C17.5246 58.9225 17.3 58.2926 17.3 57.5049V57.3389C17.3 56.8148 17.3993 56.3477 17.5979 55.9375C17.7997 55.5241 18.0796 55.2018 18.4377 54.9707C18.799 54.7363 19.1896 54.6191 19.6096 54.6191C20.2964 54.6191 20.8303 54.8454 21.2111 55.2979C21.592 55.7503 21.7824 56.3981 21.7824 57.2412V57.6172H18.2033C18.2163 58.138 18.3677 58.5596 18.6574 58.8818C18.9504 59.2008 19.3215 59.3604 19.7707 59.3604C20.0897 59.3604 20.3599 59.2952 20.5813 59.165C20.8026 59.0348 20.9963 58.8623 21.1623 58.6475L21.7141 59.0771C21.2714 59.7575 20.6073 60.0977 19.7219 60.0977ZM19.6096 55.3613C19.245 55.3613 18.939 55.4948 18.6916 55.7617C18.4442 56.0254 18.2912 56.3965 18.2326 56.875H20.8791V56.8066C20.8531 56.3477 20.7294 55.9928 20.508 55.7422C20.2867 55.4883 19.9872 55.3613 19.6096 55.3613ZM25.6084 58.5986C25.6084 58.3545 25.5156 58.1657 25.3301 58.0322C25.1478 57.8955 24.8271 57.7783 24.3682 57.6807C23.9124 57.583 23.5495 57.4658 23.2793 57.3291C23.0124 57.1924 22.8138 57.0296 22.6836 56.8408C22.5566 56.652 22.4932 56.4274 22.4932 56.167C22.4932 55.734 22.6755 55.3678 23.04 55.0684C23.4079 54.7689 23.8766 54.6191 24.4463 54.6191C25.0452 54.6191 25.5303 54.7738 25.9014 55.083C26.2757 55.3923 26.4629 55.7878 26.4629 56.2695H25.5547C25.5547 56.0221 25.4489 55.8089 25.2373 55.6299C25.029 55.4508 24.7653 55.3613 24.4463 55.3613C24.1175 55.3613 23.8604 55.4329 23.6748 55.5762C23.4893 55.7194 23.3965 55.9066 23.3965 56.1377C23.3965 56.3558 23.4827 56.5202 23.6553 56.6309C23.8278 56.7415 24.1387 56.8473 24.5879 56.9482C25.0404 57.0492 25.4066 57.1696 25.6865 57.3096C25.9665 57.4495 26.1732 57.6188 26.3066 57.8174C26.4434 58.0127 26.5117 58.252 26.5117 58.5352C26.5117 59.0072 26.3229 59.3864 25.9453 59.6729C25.5677 59.9561 25.0778 60.0977 24.4756 60.0977C24.0524 60.0977 23.6781 60.0228 23.3525 59.873C23.027 59.7233 22.7715 59.515 22.5859 59.248C22.4036 58.9779 22.3125 58.6865 22.3125 58.374H23.2158C23.2321 58.6768 23.3525 58.9176 23.5771 59.0967C23.805 59.2725 24.1045 59.3604 24.4756 59.3604C24.8174 59.3604 25.0908 59.292 25.2959 59.1553C25.5042 59.0153 25.6084 58.8298 25.6084 58.5986ZM27.8328 60V55.415H26.9979V54.7168H27.8328V54.1748C27.8328 53.6084 27.9842 53.1706 28.2869 52.8613C28.5896 52.5521 29.0177 52.3975 29.5711 52.3975C29.7794 52.3975 29.9861 52.4251 30.1912 52.4805L30.1424 53.2129C29.9894 53.1836 29.8266 53.1689 29.6541 53.1689C29.3611 53.1689 29.1349 53.2552 28.9754 53.4277C28.8159 53.597 28.7361 53.8411 28.7361 54.1602V54.7168H29.8641V55.415H28.7361V60H27.8328ZM33.1187 55.5273C32.982 55.5046 32.8339 55.4932 32.6744 55.4932C32.082 55.4932 31.6799 55.7454 31.4684 56.25V60H30.565V54.7168H31.4439L31.4586 55.3271C31.7548 54.8551 32.1747 54.6191 32.7184 54.6191C32.8941 54.6191 33.0276 54.6419 33.1187 54.6875V55.5273ZM34.6352 60H33.7318V54.7168H34.6352V60ZM33.6586 53.3154C33.6586 53.1689 33.7025 53.0452 33.7904 52.9443C33.8816 52.8434 34.015 52.793 34.1908 52.793C34.3666 52.793 34.5001 52.8434 34.5912 52.9443C34.6824 53.0452 34.7279 53.1689 34.7279 53.3154C34.7279 53.4619 34.6824 53.584 34.5912 53.6816C34.5001 53.7793 34.3666 53.8281 34.1908 53.8281C34.015 53.8281 33.8816 53.7793 33.7904 53.6816C33.7025 53.584 33.6586 53.4619 33.6586 53.3154ZM39.0471 60C38.995 59.8958 38.9527 59.7103 38.9201 59.4434C38.5002 59.8796 37.9989 60.0977 37.4162 60.0977C36.8954 60.0977 36.4673 59.9512 36.132 59.6582C35.8 59.362 35.634 58.9876 35.634 58.5352C35.634 57.985 35.8423 57.5586 36.259 57.2559C36.6789 56.9499 37.2681 56.7969 38.0266 56.7969H38.9055V56.3818C38.9055 56.0661 38.8111 55.8154 38.6223 55.6299C38.4335 55.4411 38.1551 55.3467 37.7873 55.3467C37.465 55.3467 37.1949 55.4281 36.9768 55.5908C36.7587 55.7536 36.6496 55.9505 36.6496 56.1816H35.7414C35.7414 55.918 35.8342 55.6641 36.0197 55.4199C36.2085 55.1725 36.4624 54.9772 36.7814 54.834C37.1037 54.6908 37.4569 54.6191 37.841 54.6191C38.4497 54.6191 38.9266 54.7721 39.2717 55.0781C39.6167 55.3809 39.7958 55.7992 39.8088 56.333V58.7646C39.8088 59.2497 39.8706 59.6354 39.9943 59.9219V60H39.0471ZM37.548 59.3115C37.8313 59.3115 38.0998 59.2383 38.3537 59.0918C38.6076 58.9453 38.7915 58.7549 38.9055 58.5205V57.4365H38.1975C37.0907 57.4365 36.5373 57.7604 36.5373 58.4082C36.5373 58.6914 36.6317 58.9128 36.8205 59.0723C37.0093 59.2318 37.2518 59.3115 37.548 59.3115ZM40.7051 57.3145C40.7051 56.5039 40.8971 55.8529 41.2812 55.3613C41.6654 54.8665 42.1683 54.6191 42.79 54.6191C43.4085 54.6191 43.8984 54.8307 44.2598 55.2539V52.5H45.1631V60H44.333L44.2891 59.4336C43.9277 59.8763 43.4248 60.0977 42.7803 60.0977C42.1683 60.0977 41.6686 59.847 41.2812 59.3457C40.8971 58.8444 40.7051 58.1901 40.7051 57.3828V57.3145ZM41.6084 57.417C41.6084 58.016 41.7321 58.4847 41.9795 58.8232C42.2269 59.1618 42.5687 59.3311 43.0049 59.3311C43.5778 59.3311 43.9961 59.0739 44.2598 58.5596V56.1328C43.9896 55.6348 43.5745 55.3857 43.0146 55.3857C42.5719 55.3857 42.2269 55.5566 41.9795 55.8984C41.7321 56.2402 41.6084 56.7464 41.6084 57.417ZM46.0301 57.3096C46.0301 56.792 46.131 56.3265 46.3328 55.9131C46.5379 55.4997 46.8211 55.1807 47.1824 54.9561C47.547 54.7314 47.962 54.6191 48.4275 54.6191C49.1469 54.6191 49.728 54.8682 50.1707 55.3662C50.6167 55.8643 50.8396 56.5267 50.8396 57.3535V57.417C50.8396 57.9313 50.7404 58.3936 50.5418 58.8037C50.3465 59.2106 50.0649 59.528 49.6971 59.7559C49.3325 59.9837 48.9126 60.0977 48.4373 60.0977C47.7212 60.0977 47.1401 59.8486 46.6941 59.3506C46.2514 58.8525 46.0301 58.1934 46.0301 57.373V57.3096ZM46.9383 57.417C46.9383 58.0029 47.0734 58.4733 47.3436 58.8281C47.617 59.1829 47.9816 59.3604 48.4373 59.3604C48.8963 59.3604 49.2609 59.1813 49.5311 58.8232C49.8012 58.4619 49.9363 57.9574 49.9363 57.3096C49.9363 56.7301 49.798 56.2614 49.5213 55.9033C49.2479 55.542 48.8833 55.3613 48.4275 55.3613C47.9816 55.3613 47.6219 55.5387 47.3484 55.8936C47.075 56.2484 46.9383 56.7562 46.9383 57.417ZM54.7486 58.5986C54.7486 58.3545 54.6559 58.1657 54.4703 58.0322C54.288 57.8955 53.9674 57.7783 53.5084 57.6807C53.0527 57.583 52.6897 57.4658 52.4195 57.3291C52.1526 57.1924 51.954 57.0296 51.8238 56.8408C51.6969 56.652 51.6334 56.4274 51.6334 56.167C51.6334 55.734 51.8157 55.3678 52.1803 55.0684C52.5481 54.7689 53.0169 54.6191 53.5865 54.6191C54.1855 54.6191 54.6705 54.7738 55.0416 55.083C55.416 55.3923 55.6031 55.7878 55.6031 56.2695H54.6949C54.6949 56.0221 54.5891 55.8089 54.3775 55.6299C54.1692 55.4508 53.9055 55.3613 53.5865 55.3613C53.2577 55.3613 53.0006 55.4329 52.815 55.5762C52.6295 55.7194 52.5367 55.9066 52.5367 56.1377C52.5367 56.3558 52.623 56.5202 52.7955 56.6309C52.968 56.7415 53.2789 56.8473 53.7281 56.9482C54.1806 57.0492 54.5468 57.1696 54.8268 57.3096C55.1067 57.4495 55.3134 57.6188 55.4469 57.8174C55.5836 58.0127 55.652 58.252 55.652 58.5352C55.652 59.0072 55.4632 59.3864 55.0855 59.6729C54.7079 59.9561 54.218 60.0977 53.6158 60.0977C53.1926 60.0977 52.8183 60.0228 52.4928 59.873C52.1673 59.7233 51.9117 59.515 51.7262 59.248C51.5439 58.9779 51.4527 58.6865 51.4527 58.374H52.3561C52.3723 58.6768 52.4928 58.9176 52.7174 59.0967C52.9452 59.2725 53.2447 59.3604 53.6158 59.3604C53.9576 59.3604 54.2311 59.292 54.4361 59.1553C54.6445 59.0153 54.7486 58.8298 54.7486 58.5986Z" fill="#666666"/>
<defs>
<filter id="filter0_d_7838:60151" x="0" y="0" width="70" height="38" filterUnits="userSpaceOnUse" color-interpolation-filters="sRGB">
<feFlood flood-opacity="0" result="BackgroundImageFix"/>
<feColorMatrix in="SourceAlpha" type="matrix" values="0 0 0 0 0 0 0 0 0 0 0 0 0 0 0 0 0 0 127 0" result="hardAlpha"/>
<feOffset dy="1"/>
<feGaussianBlur stdDeviation="1"/>
<feColorMatrix type="matrix" values="0 0 0 0 0 0 0 0 0 0 0 0 0 0 0 0 0 0 0.2 0"/>
<feBlend mode="normal" in2="BackgroundImageFix" result="effect1_dropShadow_7838:60151"/>
<feBlend mode="normal" in="SourceGraphic" in2="effect1_dropShadow_7838:60151" result="shape"/>
</filter>
</defs>
</svg>
