<svg width="66" height="61" viewBox="0 0 66 61" fill="none" xmlns="http://www.w3.org/2000/svg">
<g filter="url(#filter0_d_7838:59983)">
<rect x="2" y="1" width="62" height="30" rx="8" fill="#E7F3F9"/>
<path fill-rule="evenodd" clip-rule="evenodd" d="M39.575 17.3979C39.6061 16.3936 38.8187 15.5535 37.8145 15.5195C37.3156 15.524 36.8436 15.7467 36.523 16.1291C36.2027 15.7467 35.7309 15.5239 35.2321 15.5195C34.2278 15.5531 33.4402 16.3934 33.4716 17.3979C33.5183 18.1198 33.7646 18.8145 34.1833 19.4045C34.2798 19.5392 34.2997 19.7142 34.2358 19.8671C34.0391 20.3501 33.939 20.867 33.9412 21.3884V21.9753C33.9412 22.2994 34.2039 22.5621 34.528 22.5621C34.8521 22.5621 35.1149 22.2994 35.1149 21.9753C35.0769 21.1915 35.6659 20.5182 36.4478 20.4516C36.8546 20.4302 37.2509 20.5852 37.5351 20.8771C37.8194 21.1689 37.9639 21.5692 37.9318 21.9753C37.9318 22.2994 38.1945 22.5621 38.5186 22.5621C38.8427 22.5621 39.1054 22.2994 39.1054 21.9753V21.3867C39.108 20.8325 38.9948 20.2839 38.7729 19.7761C38.696 19.6195 38.71 19.4335 38.8097 19.2902C39.2441 18.7477 39.5102 18.0898 39.575 17.3979Z" stroke="#007DC5" stroke-linecap="round" stroke-linejoin="round"/>
<path fill-rule="evenodd" clip-rule="evenodd" d="M27.4336 9.48047L33.3273 11.2377L32.3558 14.4962C32.3097 14.6506 32.1473 14.7384 31.9929 14.6924L26.6582 13.1018C26.5039 13.0558 26.416 12.8933 26.4621 12.739L27.4336 9.48047Z" stroke="#007DC5" stroke-linecap="round" stroke-linejoin="round"/>
<path d="M27.4336 9.48047L39.5751 13.1001" stroke="#007DC5" stroke-linecap="round" stroke-linejoin="round"/>
<path d="M29.0875 12.543L28.7363 13.7213" stroke="#007DC5" stroke-linecap="round" stroke-linejoin="round"/>
</g>
<path d="M10.8645 44H9.92207V40.7139H6.33809V44H5.40059V36.8906H6.33809V39.9473H9.92207V36.8906H10.8645V44ZM13.0693 44H12.166V38.7168H13.0693V44ZM12.0928 37.3154C12.0928 37.1689 12.1367 37.0452 12.2246 36.9443C12.3158 36.8434 12.4492 36.793 12.625 36.793C12.8008 36.793 12.9342 36.8434 13.0254 36.9443C13.1165 37.0452 13.1621 37.1689 13.1621 37.3154C13.1621 37.4619 13.1165 37.584 13.0254 37.6816C12.9342 37.7793 12.8008 37.8281 12.625 37.8281C12.4492 37.8281 12.3158 37.7793 12.2246 37.6816C12.1367 37.584 12.0928 37.4619 12.0928 37.3154ZM14.0047 41.3145C14.0047 40.4909 14.1951 39.8366 14.576 39.3516C14.9568 38.8633 15.4614 38.6191 16.0896 38.6191C16.7342 38.6191 17.2371 38.847 17.5984 39.3027L17.6424 38.7168H18.4676V43.873C18.4676 44.5566 18.2641 45.0954 17.8572 45.4893C17.4536 45.8831 16.91 46.0801 16.2264 46.0801C15.8455 46.0801 15.4728 45.9987 15.1082 45.8359C14.7436 45.6732 14.4653 45.4502 14.2732 45.167L14.742 44.625C15.1294 45.1035 15.603 45.3428 16.1629 45.3428C16.6023 45.3428 16.9441 45.2191 17.1883 44.9717C17.4357 44.7243 17.5594 44.376 17.5594 43.9268V43.4727C17.198 43.8893 16.7049 44.0977 16.0799 44.0977C15.4614 44.0977 14.9601 43.8486 14.576 43.3506C14.1951 42.8525 14.0047 42.1738 14.0047 41.3145ZM14.9129 41.417C14.9129 42.0127 15.035 42.4814 15.2791 42.8232C15.5232 43.1618 15.865 43.3311 16.3045 43.3311C16.8742 43.3311 17.2924 43.0723 17.5594 42.5547V40.1426C17.2827 39.638 16.8676 39.3857 16.3143 39.3857C15.8748 39.3857 15.5314 39.5566 15.284 39.8984C15.0366 40.2402 14.9129 40.7464 14.9129 41.417ZM20.5162 44H19.6129V38.7168H20.5162V44ZM19.5396 37.3154C19.5396 37.1689 19.5836 37.0452 19.6715 36.9443C19.7626 36.8434 19.8961 36.793 20.0719 36.793C20.2477 36.793 20.3811 36.8434 20.4723 36.9443C20.5634 37.0452 20.609 37.1689 20.609 37.3154C20.609 37.4619 20.5634 37.584 20.4723 37.6816C20.3811 37.7793 20.2477 37.8281 20.0719 37.8281C19.8961 37.8281 19.7626 37.7793 19.6715 37.6816C19.5836 37.584 19.5396 37.4619 19.5396 37.3154ZM23.8588 44.0977C23.1426 44.0977 22.56 43.8633 22.1107 43.3945C21.6615 42.9225 21.4369 42.2926 21.4369 41.5049V41.3389C21.4369 40.8148 21.5362 40.3477 21.7348 39.9375C21.9366 39.5241 22.2165 39.2018 22.5746 38.9707C22.9359 38.7363 23.3266 38.6191 23.7465 38.6191C24.4333 38.6191 24.9672 38.8454 25.348 39.2979C25.7289 39.7503 25.9193 40.3981 25.9193 41.2412V41.6172H22.3402C22.3533 42.138 22.5046 42.5596 22.7943 42.8818C23.0873 43.2008 23.4584 43.3604 23.9076 43.3604C24.2266 43.3604 24.4968 43.2952 24.7182 43.165C24.9395 43.0348 25.1332 42.8623 25.2992 42.6475L25.851 43.0771C25.4083 43.7575 24.7442 44.0977 23.8588 44.0977ZM23.7465 39.3613C23.3819 39.3613 23.0759 39.4948 22.8285 39.7617C22.5811 40.0254 22.4281 40.3965 22.3695 40.875H25.016V40.8066C24.99 40.3477 24.8663 39.9928 24.6449 39.7422C24.4236 39.4883 24.1241 39.3613 23.7465 39.3613ZM27.5236 38.7168L27.5529 39.3809C27.9566 38.873 28.4839 38.6191 29.135 38.6191C30.2515 38.6191 30.8146 39.249 30.8244 40.5088V44H29.9211V40.5039C29.9178 40.123 29.8299 39.8415 29.6574 39.6592C29.4882 39.4769 29.2229 39.3857 28.8615 39.3857C28.5686 39.3857 28.3114 39.4639 28.09 39.6201C27.8687 39.7764 27.6962 39.9814 27.5725 40.2354V44H26.6691V38.7168H27.5236ZM34.0791 44.0977C33.363 44.0977 32.7803 43.8633 32.3311 43.3945C31.8818 42.9225 31.6572 42.2926 31.6572 41.5049V41.3389C31.6572 40.8148 31.7565 40.3477 31.9551 39.9375C32.1569 39.5241 32.4368 39.2018 32.7949 38.9707C33.1562 38.7363 33.5469 38.6191 33.9668 38.6191C34.6536 38.6191 35.1875 38.8454 35.5684 39.2979C35.9492 39.7503 36.1396 40.3981 36.1396 41.2412V41.6172H32.5605C32.5736 42.138 32.7249 42.5596 33.0146 42.8818C33.3076 43.2008 33.6787 43.3604 34.1279 43.3604C34.4469 43.3604 34.7171 43.2952 34.9385 43.165C35.1598 43.0348 35.3535 42.8623 35.5195 42.6475L36.0713 43.0771C35.6286 43.7575 34.9645 44.0977 34.0791 44.0977ZM33.9668 39.3613C33.6022 39.3613 33.2962 39.4948 33.0488 39.7617C32.8014 40.0254 32.6484 40.3965 32.5898 40.875H35.2363V40.8066C35.2103 40.3477 35.0866 39.9928 34.8652 39.7422C34.6439 39.4883 34.3444 39.3613 33.9668 39.3613ZM43.5426 41.417C43.5426 42.2243 43.357 42.8737 42.9859 43.3652C42.6148 43.8535 42.1168 44.0977 41.4918 44.0977C40.8245 44.0977 40.3085 43.8617 39.9439 43.3896L39.9 44H39.0699V36.5H39.9732V39.2979C40.3378 38.8454 40.8408 38.6191 41.482 38.6191C42.1233 38.6191 42.6262 38.8617 42.9908 39.3467C43.3587 39.8317 43.5426 40.4958 43.5426 41.3389V41.417ZM42.6393 41.3145C42.6393 40.6992 42.5204 40.224 42.2828 39.8887C42.0452 39.5534 41.7034 39.3857 41.2574 39.3857C40.6617 39.3857 40.2337 39.6624 39.9732 40.2158V42.501C40.2499 43.0544 40.6812 43.3311 41.2672 43.3311C41.7001 43.3311 42.037 43.1634 42.2779 42.8281C42.5188 42.4928 42.6393 41.9883 42.6393 41.3145ZM47.6469 43.4775C47.2953 43.891 46.7794 44.0977 46.099 44.0977C45.5359 44.0977 45.1062 43.9349 44.81 43.6094C44.517 43.2806 44.3689 42.7956 44.3656 42.1543V38.7168H45.2689V42.1299C45.2689 42.9307 45.5945 43.3311 46.2455 43.3311C46.9356 43.3311 47.3946 43.0739 47.6225 42.5596V38.7168H48.5258V44H47.6664L47.6469 43.4775ZM51.7219 43.3604C52.0441 43.3604 52.3257 43.2627 52.5666 43.0674C52.8075 42.8721 52.9409 42.6279 52.967 42.335H53.8215C53.8052 42.6377 53.701 42.9258 53.509 43.1992C53.3169 43.4727 53.0598 43.6908 52.7375 43.8535C52.4185 44.0163 52.0799 44.0977 51.7219 44.0977C51.0025 44.0977 50.4296 43.8584 50.0031 43.3799C49.5799 42.8981 49.3684 42.2406 49.3684 41.4072V41.2559C49.3684 40.7415 49.4628 40.2842 49.6516 39.8838C49.8404 39.4834 50.1105 39.1725 50.4621 38.9512C50.8169 38.7298 51.2352 38.6191 51.717 38.6191C52.3094 38.6191 52.801 38.7965 53.1916 39.1514C53.5855 39.5062 53.7954 39.9668 53.8215 40.5332H52.967C52.9409 40.1914 52.8107 39.9115 52.5764 39.6934C52.3452 39.472 52.0588 39.3613 51.717 39.3613C51.258 39.3613 50.9016 39.5273 50.6477 39.8594C50.397 40.1882 50.2717 40.665 50.2717 41.29V41.4609C50.2717 42.0697 50.397 42.5384 50.6477 42.8672C50.8983 43.196 51.2564 43.3604 51.7219 43.3604ZM57.7988 44C57.7467 43.8958 57.7044 43.7103 57.6719 43.4434C57.252 43.8796 56.7507 44.0977 56.168 44.0977C55.6471 44.0977 55.2191 43.9512 54.8838 43.6582C54.5518 43.362 54.3857 42.9876 54.3857 42.5352C54.3857 41.985 54.5941 41.5586 55.0107 41.2559C55.4307 40.9499 56.0199 40.7969 56.7783 40.7969H57.6572V40.3818C57.6572 40.0661 57.5628 39.8154 57.374 39.6299C57.1852 39.4411 56.9069 39.3467 56.5391 39.3467C56.2168 39.3467 55.9466 39.4281 55.7285 39.5908C55.5104 39.7536 55.4014 39.9505 55.4014 40.1816H54.4932C54.4932 39.918 54.5859 39.6641 54.7715 39.4199C54.9603 39.1725 55.2142 38.9772 55.5332 38.834C55.8555 38.6908 56.2087 38.6191 56.5928 38.6191C57.2015 38.6191 57.6784 38.7721 58.0234 39.0781C58.3685 39.3809 58.5475 39.7992 58.5605 40.333V42.7646C58.5605 43.2497 58.6224 43.6354 58.7461 43.9219V44H57.7988ZM56.2998 43.3115C56.583 43.3115 56.8516 43.2383 57.1055 43.0918C57.3594 42.9453 57.5433 42.7549 57.6572 42.5205V41.4365H56.9492C55.8424 41.4365 55.2891 41.7604 55.2891 42.4082C55.2891 42.6914 55.3835 42.9128 55.5723 43.0723C55.7611 43.2318 56.0036 43.3115 56.2998 43.3115ZM60.658 44H59.7547V36.5H60.658V44Z" fill="#666666"/>
<defs>
<filter id="filter0_d_7838:59983" x="0" y="0" width="66" height="34" filterUnits="userSpaceOnUse" color-interpolation-filters="sRGB">
<feFlood flood-opacity="0" result="BackgroundImageFix"/>
<feColorMatrix in="SourceAlpha" type="matrix" values="0 0 0 0 0 0 0 0 0 0 0 0 0 0 0 0 0 0 127 0" result="hardAlpha"/>
<feOffset dy="1"/>
<feGaussianBlur stdDeviation="1"/>
<feColorMatrix type="matrix" values="0 0 0 0 0 0 0 0 0 0 0 0 0 0 0 0 0 0 0.2 0"/>
<feBlend mode="normal" in2="BackgroundImageFix" result="effect1_dropShadow_7838:59983"/>
<feBlend mode="normal" in="SourceGraphic" in2="effect1_dropShadow_7838:59983" result="shape"/>
</filter>
</defs>
</svg>
