<svg width="66" height="61" viewBox="0 0 66 61" fill="none" xmlns="http://www.w3.org/2000/svg">
<g filter="url(#filter0_d_7838:59955)">
<rect x="2" y="1" width="62" height="30" rx="8" fill="#E7F3F9"/>
<path fill-rule="evenodd" clip-rule="evenodd" d="M37.2996 14.6876C36.5103 13.5956 36.2373 12.9376 34.9271 12.9376C34.1772 12.9306 33.466 13.27 32.9998 13.8575C32.5341 13.2707 31.8239 12.9313 31.0748 12.9376C29.7646 12.9376 29.4916 13.5956 28.7024 14.6876C28.3267 15.2627 27.6268 15.5352 26.9611 15.3654C26.8055 15.336 26.6459 15.3922 26.5431 15.5128C26.4403 15.6333 26.4099 15.7997 26.4636 15.9488C26.9191 17.3056 28.4749 18.1876 30.1257 18.1876C31.2418 18.2736 32.3248 17.7856 32.9998 16.8926C33.6753 17.7863 34.7594 18.2744 35.8762 18.1876C37.5271 18.1876 39.0846 17.3056 39.5384 15.9488C39.592 15.7997 39.5617 15.6333 39.4588 15.5128C39.356 15.3922 39.1965 15.336 39.0408 15.3654C38.3752 15.5352 37.6753 15.2627 37.2996 14.6876Z" stroke="#007DC5" stroke-linecap="round" stroke-linejoin="round"/>
</g>
<path d="M22.0521 44H21.1098V40.7139H17.5258V44H16.5883V36.8906H17.5258V39.9473H21.1098V36.8906H22.0521V44ZM23.0363 41.3096C23.0363 40.792 23.1372 40.3265 23.3391 39.9131C23.5441 39.4997 23.8273 39.1807 24.1887 38.9561C24.5533 38.7314 24.9683 38.6191 25.4338 38.6191C26.1532 38.6191 26.7342 38.8682 27.177 39.3662C27.6229 39.8643 27.8459 40.5267 27.8459 41.3535V41.417C27.8459 41.9313 27.7466 42.3936 27.548 42.8037C27.3527 43.2106 27.0712 43.528 26.7033 43.7559C26.3387 43.9837 25.9188 44.0977 25.4436 44.0977C24.7274 44.0977 24.1464 43.8486 23.7004 43.3506C23.2577 42.8525 23.0363 42.1934 23.0363 41.373V41.3096ZM23.9445 41.417C23.9445 42.0029 24.0796 42.4733 24.3498 42.8281C24.6232 43.1829 24.9878 43.3604 25.4436 43.3604C25.9025 43.3604 26.2671 43.1813 26.5373 42.8232C26.8075 42.4619 26.9426 41.9574 26.9426 41.3096C26.9426 40.7301 26.8042 40.2614 26.5275 39.9033C26.2541 39.542 25.8895 39.3613 25.4338 39.3613C24.9878 39.3613 24.6281 39.5387 24.3547 39.8936C24.0812 40.2484 23.9445 40.7562 23.9445 41.417ZM29.5283 38.7168L29.5527 39.3027C29.9401 38.847 30.4626 38.6191 31.1201 38.6191C31.859 38.6191 32.362 38.9023 32.6289 39.4688C32.8047 39.2148 33.0326 39.0098 33.3125 38.8535C33.5957 38.6973 33.9294 38.6191 34.3135 38.6191C35.4723 38.6191 36.0615 39.2327 36.0811 40.46V44H35.1777V40.5137C35.1777 40.1361 35.0915 39.8545 34.9189 39.6689C34.7464 39.4801 34.4567 39.3857 34.0498 39.3857C33.7145 39.3857 33.4362 39.4867 33.2148 39.6885C32.9935 39.887 32.8649 40.1556 32.8291 40.4941V44H31.9209V40.5381C31.9209 39.7699 31.5449 39.3857 30.793 39.3857C30.2005 39.3857 29.7952 39.638 29.5771 40.1426V44H28.6738V38.7168H29.5283ZM39.3406 44.0977C38.6245 44.0977 38.0418 43.8633 37.5926 43.3945C37.1434 42.9225 36.9188 42.2926 36.9188 41.5049V41.3389C36.9188 40.8148 37.018 40.3477 37.2166 39.9375C37.4184 39.5241 37.6984 39.2018 38.0564 38.9707C38.4178 38.7363 38.8084 38.6191 39.2283 38.6191C39.9152 38.6191 40.449 38.8454 40.8299 39.2979C41.2107 39.7503 41.4012 40.3981 41.4012 41.2412V41.6172H37.8221C37.8351 42.138 37.9865 42.5596 38.2762 42.8818C38.5691 43.2008 38.9402 43.3604 39.3895 43.3604C39.7085 43.3604 39.9786 43.2952 40.2 43.165C40.4214 43.0348 40.615 42.8623 40.7811 42.6475L41.3328 43.0771C40.8901 43.7575 40.226 44.0977 39.3406 44.0977ZM39.2283 39.3613C38.8637 39.3613 38.5577 39.4948 38.3104 39.7617C38.063 40.0254 37.91 40.3965 37.8514 40.875H40.4979V40.8066C40.4718 40.3477 40.3481 39.9928 40.1268 39.7422C39.9054 39.4883 39.6059 39.3613 39.2283 39.3613ZM43.0006 38.7168L43.025 39.3027C43.4124 38.847 43.9348 38.6191 44.5924 38.6191C45.3313 38.6191 45.8342 38.9023 46.1012 39.4688C46.277 39.2148 46.5048 39.0098 46.7848 38.8535C47.068 38.6973 47.4016 38.6191 47.7857 38.6191C48.9446 38.6191 49.5338 39.2327 49.5533 40.46V44H48.65V40.5137C48.65 40.1361 48.5637 39.8545 48.3912 39.6689C48.2187 39.4801 47.929 39.3857 47.5221 39.3857C47.1868 39.3857 46.9085 39.4867 46.6871 39.6885C46.4658 39.887 46.3372 40.1556 46.3014 40.4941V44H45.3932V40.5381C45.3932 39.7699 45.0172 39.3857 44.2652 39.3857C43.6728 39.3857 43.2675 39.638 43.0494 40.1426V44H42.1461V38.7168H43.0006Z" fill="#666666"/>
<defs>
<filter id="filter0_d_7838:59955" x="0" y="0" width="66" height="34" filterUnits="userSpaceOnUse" color-interpolation-filters="sRGB">
<feFlood flood-opacity="0" result="BackgroundImageFix"/>
<feColorMatrix in="SourceAlpha" type="matrix" values="0 0 0 0 0 0 0 0 0 0 0 0 0 0 0 0 0 0 127 0" result="hardAlpha"/>
<feOffset dy="1"/>
<feGaussianBlur stdDeviation="1"/>
<feColorMatrix type="matrix" values="0 0 0 0 0 0 0 0 0 0 0 0 0 0 0 0 0 0 0.2 0"/>
<feBlend mode="normal" in2="BackgroundImageFix" result="effect1_dropShadow_7838:59955"/>
<feBlend mode="normal" in="SourceGraphic" in2="effect1_dropShadow_7838:59955" result="shape"/>
</filter>
</defs>
</svg>
