<svg width="66" height="61" viewBox="0 0 66 61" fill="none" xmlns="http://www.w3.org/2000/svg">
<g filter="url(#filter0_d_7838:59963)">
<rect x="2" y="1" width="62" height="30" rx="8" fill="#E7F3F9"/>
<rect x="26.4375" y="9.4375" width="13.125" height="13.125" rx="3" stroke="#007DC5" stroke-linecap="round" stroke-linejoin="round"/>
<path fill-rule="evenodd" clip-rule="evenodd" d="M29.0625 14.6875V19.9375C29.0625 20.4207 29.4543 20.8125 29.9375 20.8125C30.4207 20.8125 30.8125 20.4207 30.8125 19.9375V14.6875L29.0625 14.6875Z" stroke="#007DC5" stroke-linecap="round" stroke-linejoin="round"/>
<path fill-rule="evenodd" clip-rule="evenodd" d="M31.5814 11.9977L30.8126 14.6875H29.0626L28.2938 11.9977C28.2317 11.7762 28.3506 11.5441 28.5668 11.4652C29.0046 11.2952 29.4682 11.2013 29.9376 11.1875C30.407 11.2013 30.8706 11.2952 31.3084 11.4652C31.5246 11.5441 31.6436 11.7762 31.5814 11.9977Z" stroke="#007DC5" stroke-linecap="round" stroke-linejoin="round"/>
<path fill-rule="evenodd" clip-rule="evenodd" d="M33.4375 17.3125H36.9375V19.0625C36.9375 19.5457 36.5457 19.9375 36.0625 19.9375H34.3125C33.8293 19.9375 33.4375 19.5457 33.4375 19.0625V17.3125Z" stroke="#007DC5" stroke-linecap="round" stroke-linejoin="round"/>
<rect x="33.4375" y="14.6875" width="3.5" height="2.625" stroke="#007DC5" stroke-linecap="round" stroke-linejoin="round"/>
<path fill-rule="evenodd" clip-rule="evenodd" d="M34.3125 12.0625H36.0625C36.5457 12.0625 36.9375 12.4543 36.9375 12.9375V14.6875H33.4375V12.9375C33.4375 12.4543 33.8293 12.0625 34.3125 12.0625Z" stroke="#007DC5" stroke-linecap="round" stroke-linejoin="round"/>
</g>
<path d="M9.77129 36.8906L12.0955 42.6914L14.4197 36.8906H15.6355V44H14.698V41.2314L14.7859 38.2432L12.452 44H11.7342L9.40508 38.2578L9.49785 41.2314V44H8.56035V36.8906H9.77129ZM20.1109 44C20.0589 43.8958 20.0165 43.7103 19.984 43.4434C19.5641 43.8796 19.0628 44.0977 18.4801 44.0977C17.9592 44.0977 17.5312 43.9512 17.1959 43.6582C16.8639 43.362 16.6979 42.9876 16.6979 42.5352C16.6979 41.985 16.9062 41.5586 17.3229 41.2559C17.7428 40.9499 18.332 40.7969 19.0904 40.7969H19.9693V40.3818C19.9693 40.0661 19.8749 39.8154 19.6861 39.6299C19.4973 39.4411 19.219 39.3467 18.8512 39.3467C18.5289 39.3467 18.2587 39.4281 18.0406 39.5908C17.8225 39.7536 17.7135 39.9505 17.7135 40.1816H16.8053C16.8053 39.918 16.898 39.6641 17.0836 39.4199C17.2724 39.1725 17.5263 38.9772 17.8453 38.834C18.1676 38.6908 18.5208 38.6191 18.9049 38.6191C19.5136 38.6191 19.9905 38.7721 20.3355 39.0781C20.6806 39.3809 20.8596 39.7992 20.8727 40.333V42.7646C20.8727 43.2497 20.9345 43.6354 21.0582 43.9219V44H20.1109ZM18.6119 43.3115C18.8951 43.3115 19.1637 43.2383 19.4176 43.0918C19.6715 42.9453 19.8554 42.7549 19.9693 42.5205V41.4365H19.2613C18.1546 41.4365 17.6012 41.7604 17.6012 42.4082C17.6012 42.6914 17.6956 42.9128 17.8844 43.0723C18.0732 43.2318 18.3157 43.3115 18.6119 43.3115ZM21.7689 41.3145C21.7689 40.4844 21.9594 39.8285 22.3402 39.3467C22.7211 38.8617 23.2322 38.6191 23.8734 38.6191C24.4984 38.6191 24.9916 38.8291 25.3529 39.249L25.392 38.7168H26.2221V46.0312H25.3188V43.5117C24.9542 43.9023 24.4691 44.0977 23.8637 44.0977C23.2257 44.0977 22.7162 43.8503 22.3354 43.3555C21.9577 42.8574 21.7689 42.1982 21.7689 41.3779V41.3145ZM22.6723 41.417C22.6723 42.0225 22.7992 42.4977 23.0531 42.8428C23.3103 43.1878 23.6553 43.3604 24.0883 43.3604C24.6254 43.3604 25.0355 43.1227 25.3188 42.6475V40.0596C25.0323 39.5941 24.6254 39.3613 24.098 39.3613C23.6618 39.3613 23.3152 39.5355 23.058 39.8838C22.8008 40.2288 22.6723 40.7399 22.6723 41.417ZM30.634 43.4775C30.2824 43.891 29.7665 44.0977 29.0861 44.0977C28.523 44.0977 28.0933 43.9349 27.7971 43.6094C27.5041 43.2806 27.356 42.7956 27.3527 42.1543V38.7168H28.2561V42.1299C28.2561 42.9307 28.5816 43.3311 29.2326 43.3311C29.9227 43.3311 30.3817 43.0739 30.6096 42.5596V38.7168H31.5129V44H30.6535L30.634 43.4775ZM33.5713 44H32.668V38.7168H33.5713V44ZM32.5947 37.3154C32.5947 37.1689 32.6387 37.0452 32.7266 36.9443C32.8177 36.8434 32.9512 36.793 33.127 36.793C33.3027 36.793 33.4362 36.8434 33.5273 36.9443C33.6185 37.0452 33.6641 37.1689 33.6641 37.3154C33.6641 37.4619 33.6185 37.584 33.5273 37.6816C33.4362 37.7793 33.3027 37.8281 33.127 37.8281C32.9512 37.8281 32.8177 37.7793 32.7266 37.6816C32.6387 37.584 32.5947 37.4619 32.5947 37.3154ZM37.9832 44C37.9311 43.8958 37.8888 43.7103 37.8563 43.4434C37.4363 43.8796 36.935 44.0977 36.3523 44.0977C35.8315 44.0977 35.4035 43.9512 35.0682 43.6582C34.7361 43.362 34.5701 42.9876 34.5701 42.5352C34.5701 41.985 34.7785 41.5586 35.1951 41.2559C35.615 40.9499 36.2042 40.7969 36.9627 40.7969H37.8416V40.3818C37.8416 40.0661 37.7472 39.8154 37.5584 39.6299C37.3696 39.4411 37.0913 39.3467 36.7234 39.3467C36.4012 39.3467 36.131 39.4281 35.9129 39.5908C35.6948 39.7536 35.5857 39.9505 35.5857 40.1816H34.6775C34.6775 39.918 34.7703 39.6641 34.9559 39.4199C35.1447 39.1725 35.3986 38.9772 35.7176 38.834C36.0398 38.6908 36.393 38.6191 36.7771 38.6191C37.3859 38.6191 37.8628 38.7721 38.2078 39.0781C38.5529 39.3809 38.7319 39.7992 38.7449 40.333V42.7646C38.7449 43.2497 38.8068 43.6354 38.9305 43.9219V44H37.9832ZM36.4842 43.3115C36.7674 43.3115 37.0359 43.2383 37.2898 43.0918C37.5438 42.9453 37.7277 42.7549 37.8416 42.5205V41.4365H37.1336C36.0268 41.4365 35.4734 41.7604 35.4734 42.4082C35.4734 42.6914 35.5678 42.9128 35.7566 43.0723C35.9454 43.2318 36.188 43.3115 36.4842 43.3115ZM39.6461 41.3145C39.6461 40.4909 39.8365 39.8366 40.2174 39.3516C40.5982 38.8633 41.1028 38.6191 41.7311 38.6191C42.3756 38.6191 42.8785 38.847 43.2398 39.3027L43.2838 38.7168H44.109V43.873C44.109 44.5566 43.9055 45.0954 43.4986 45.4893C43.095 45.8831 42.5514 46.0801 41.8678 46.0801C41.4869 46.0801 41.1142 45.9987 40.7496 45.8359C40.385 45.6732 40.1067 45.4502 39.9146 45.167L40.3834 44.625C40.7708 45.1035 41.2444 45.3428 41.8043 45.3428C42.2438 45.3428 42.5855 45.2191 42.8297 44.9717C43.0771 44.7243 43.2008 44.376 43.2008 43.9268V43.4727C42.8395 43.8893 42.3463 44.0977 41.7213 44.0977C41.1028 44.0977 40.6015 43.8486 40.2174 43.3506C39.8365 42.8525 39.6461 42.1738 39.6461 41.3145ZM40.5543 41.417C40.5543 42.0127 40.6764 42.4814 40.9205 42.8232C41.1646 43.1618 41.5064 43.3311 41.9459 43.3311C42.5156 43.3311 42.9339 43.0723 43.2008 42.5547V40.1426C42.9241 39.638 42.5091 39.3857 41.9557 39.3857C41.5162 39.3857 41.1728 39.5566 40.9254 39.8984C40.678 40.2402 40.5543 40.7464 40.5543 41.417ZM47.3686 44.0977C46.6524 44.0977 46.0697 43.8633 45.6205 43.3945C45.1713 42.9225 44.9467 42.2926 44.9467 41.5049V41.3389C44.9467 40.8148 45.046 40.3477 45.2445 39.9375C45.4464 39.5241 45.7263 39.2018 46.0844 38.9707C46.4457 38.7363 46.8363 38.6191 47.2563 38.6191C47.9431 38.6191 48.477 38.8454 48.8578 39.2979C49.2387 39.7503 49.4291 40.3981 49.4291 41.2412V41.6172H45.85C45.863 42.138 46.0144 42.5596 46.3041 42.8818C46.5971 43.2008 46.9682 43.3604 47.4174 43.3604C47.7364 43.3604 48.0066 43.2952 48.2279 43.165C48.4493 43.0348 48.643 42.8623 48.809 42.6475L49.3607 43.0771C48.918 43.7575 48.254 44.0977 47.3686 44.0977ZM47.2563 39.3613C46.8917 39.3613 46.5857 39.4948 46.3383 39.7617C46.0909 40.0254 45.9379 40.3965 45.8793 40.875H48.5258V40.8066C48.4997 40.3477 48.376 39.9928 48.1547 39.7422C47.9333 39.4883 47.6339 39.3613 47.2563 39.3613ZM51.0285 38.7168L51.0529 39.3027C51.4403 38.847 51.9628 38.6191 52.6203 38.6191C53.3592 38.6191 53.8622 38.9023 54.1291 39.4688C54.3049 39.2148 54.5327 39.0098 54.8127 38.8535C55.0959 38.6973 55.4296 38.6191 55.8137 38.6191C56.9725 38.6191 57.5617 39.2327 57.5812 40.46V44H56.6779V40.5137C56.6779 40.1361 56.5917 39.8545 56.4191 39.6689C56.2466 39.4801 55.9569 39.3857 55.55 39.3857C55.2147 39.3857 54.9364 39.4867 54.715 39.6885C54.4937 39.887 54.3651 40.1556 54.3293 40.4941V44H53.4211V40.5381C53.4211 39.7699 53.0451 39.3857 52.2932 39.3857C51.7007 39.3857 51.2954 39.638 51.0773 40.1426V44H50.174V38.7168H51.0285Z" fill="#666666"/>
<defs>
<filter id="filter0_d_7838:59963" x="0" y="0" width="66" height="34" filterUnits="userSpaceOnUse" color-interpolation-filters="sRGB">
<feFlood flood-opacity="0" result="BackgroundImageFix"/>
<feColorMatrix in="SourceAlpha" type="matrix" values="0 0 0 0 0 0 0 0 0 0 0 0 0 0 0 0 0 0 127 0" result="hardAlpha"/>
<feOffset dy="1"/>
<feGaussianBlur stdDeviation="1"/>
<feColorMatrix type="matrix" values="0 0 0 0 0 0 0 0 0 0 0 0 0 0 0 0 0 0 0.2 0"/>
<feBlend mode="normal" in2="BackgroundImageFix" result="effect1_dropShadow_7838:59963"/>
<feBlend mode="normal" in="SourceGraphic" in2="effect1_dropShadow_7838:59963" result="shape"/>
</filter>
</defs>
</svg>
