<svg width="70" height="65" viewBox="0 0 70 65" fill="none" xmlns="http://www.w3.org/2000/svg">
<g filter="url(#filter0_d_7838:60091)">
<rect x="2" y="1" width="66" height="34" rx="8" fill="#E7F3F9"/>
<path fill-rule="evenodd" clip-rule="evenodd" d="M41.75 12.9375H28.25V10.6875C28.25 10.0662 28.7537 9.5625 29.375 9.5625H40.625C41.2463 9.5625 41.75 10.0662 41.75 10.6875V12.9375Z" stroke="#007DC5" stroke-linecap="round" stroke-linejoin="round"/>
<path fill-rule="evenodd" clip-rule="evenodd" d="M40.625 12.9375H29.375V24.1875C29.375 25.4301 30.3824 26.4375 31.625 26.4375H38.375C39.6176 26.4375 40.625 25.4301 40.625 24.1875V12.9375Z" stroke="#007DC5" stroke-linecap="round" stroke-linejoin="round"/>
<rect x="29.375" y="16.3125" width="11.25" height="6.75" stroke="#007DC5" stroke-linecap="round" stroke-linejoin="round"/>
<path d="M35 18V21.375" stroke="#007DC5" stroke-linecap="round" stroke-linejoin="round"/>
<path d="M33.3125 19.6875H36.6875" stroke="#007DC5" stroke-linecap="round" stroke-linejoin="round"/>
</g>
<path d="M5.48301 40.8906L7.80723 46.6914L10.1314 40.8906H11.3473V48H10.4098V45.2314L10.4977 42.2432L8.16367 48H7.4459L5.1168 42.2578L5.20957 45.2314V48H4.27207V40.8906H5.48301ZM14.7533 48.0977C14.0372 48.0977 13.4545 47.8633 13.0053 47.3945C12.5561 46.9225 12.3314 46.2926 12.3314 45.5049V45.3389C12.3314 44.8148 12.4307 44.3477 12.6293 43.9375C12.8311 43.5241 13.1111 43.2018 13.4691 42.9707C13.8305 42.7363 14.2211 42.6191 14.641 42.6191C15.3279 42.6191 15.8617 42.8454 16.2426 43.2979C16.6234 43.7503 16.8139 44.3981 16.8139 45.2412V45.6172H13.2348C13.2478 46.138 13.3992 46.5596 13.6889 46.8818C13.9818 47.2008 14.3529 47.3604 14.8021 47.3604C15.1212 47.3604 15.3913 47.2952 15.6127 47.165C15.834 47.0348 16.0277 46.8623 16.1937 46.6475L16.7455 47.0771C16.3028 47.7575 15.6387 48.0977 14.7533 48.0977ZM14.641 43.3613C14.2764 43.3613 13.9704 43.4948 13.723 43.7617C13.4757 44.0254 13.3227 44.3965 13.2641 44.875H15.9105V44.8066C15.8845 44.3477 15.7608 43.9928 15.5395 43.7422C15.3181 43.4883 15.0186 43.3613 14.641 43.3613ZM17.3439 45.3145C17.3439 44.5039 17.536 43.8529 17.9201 43.3613C18.3042 42.8665 18.8072 42.6191 19.4289 42.6191C20.0474 42.6191 20.5373 42.8307 20.8986 43.2539V40.5H21.802V48H20.9719L20.9279 47.4336C20.5666 47.8763 20.0637 48.0977 19.4191 48.0977C18.8072 48.0977 18.3075 47.847 17.9201 47.3457C17.536 46.8444 17.3439 46.1901 17.3439 45.3828V45.3145ZM18.2473 45.417C18.2473 46.016 18.371 46.4847 18.6184 46.8232C18.8658 47.1618 19.2076 47.3311 19.6437 47.3311C20.2167 47.3311 20.635 47.0739 20.8986 46.5596V44.1328C20.6284 43.6348 20.2134 43.3857 19.6535 43.3857C19.2108 43.3857 18.8658 43.5566 18.6184 43.8984C18.371 44.2402 18.2473 44.7464 18.2473 45.417ZM23.8896 48H22.9863V42.7168H23.8896V48ZM22.9131 41.3154C22.9131 41.1689 22.957 41.0452 23.0449 40.9443C23.1361 40.8434 23.2695 40.793 23.4453 40.793C23.6211 40.793 23.7546 40.8434 23.8457 40.9443C23.9368 41.0452 23.9824 41.1689 23.9824 41.3154C23.9824 41.4619 23.9368 41.584 23.8457 41.6816C23.7546 41.7793 23.6211 41.8281 23.4453 41.8281C23.2695 41.8281 23.1361 41.7793 23.0449 41.6816C22.957 41.584 22.9131 41.4619 22.9131 41.3154ZM27.159 47.3604C27.4812 47.3604 27.7628 47.2627 28.0037 47.0674C28.2446 46.8721 28.3781 46.6279 28.4041 46.335H29.2586C29.2423 46.6377 29.1381 46.9258 28.9461 47.1992C28.754 47.4727 28.4969 47.6908 28.1746 47.8535C27.8556 48.0163 27.5171 48.0977 27.159 48.0977C26.4396 48.0977 25.8667 47.8584 25.4402 47.3799C25.0171 46.8981 24.8055 46.2406 24.8055 45.4072V45.2559C24.8055 44.7415 24.8999 44.2842 25.0887 43.8838C25.2775 43.4834 25.5477 43.1725 25.8992 42.9512C26.254 42.7298 26.6723 42.6191 27.1541 42.6191C27.7465 42.6191 28.2381 42.7965 28.6287 43.1514C29.0226 43.5062 29.2326 43.9668 29.2586 44.5332H28.4041C28.3781 44.1914 28.2479 43.9115 28.0135 43.6934C27.7824 43.472 27.4959 43.3613 27.1541 43.3613C26.6951 43.3613 26.3387 43.5273 26.0848 43.8594C25.8341 44.1882 25.7088 44.665 25.7088 45.29V45.4609C25.7088 46.0697 25.8341 46.5384 26.0848 46.8672C26.3354 47.196 26.6935 47.3604 27.159 47.3604ZM33.2359 48C33.1839 47.8958 33.1415 47.7103 33.109 47.4434C32.6891 47.8796 32.1878 48.0977 31.6051 48.0977C31.0842 48.0977 30.6562 47.9512 30.3209 47.6582C29.9889 47.362 29.8229 46.9876 29.8229 46.5352C29.8229 45.985 30.0312 45.5586 30.4479 45.2559C30.8678 44.9499 31.457 44.7969 32.2154 44.7969H33.0943V44.3818C33.0943 44.0661 32.9999 43.8154 32.8111 43.6299C32.6223 43.4411 32.344 43.3467 31.9762 43.3467C31.6539 43.3467 31.3837 43.4281 31.1656 43.5908C30.9475 43.7536 30.8385 43.9505 30.8385 44.1816H29.9303C29.9303 43.918 30.023 43.6641 30.2086 43.4199C30.3974 43.1725 30.6513 42.9772 30.9703 42.834C31.2926 42.6908 31.6458 42.6191 32.0299 42.6191C32.6386 42.6191 33.1155 42.7721 33.4605 43.0781C33.8056 43.3809 33.9846 43.7992 33.9977 44.333V46.7646C33.9977 47.2497 34.0595 47.6354 34.1832 47.9219V48H33.2359ZM31.7369 47.3115C32.0201 47.3115 32.2887 47.2383 32.5426 47.0918C32.7965 46.9453 32.9804 46.7549 33.0943 46.5205V45.4365H32.3863C31.2796 45.4365 30.7262 45.7604 30.7262 46.4082C30.7262 46.6914 30.8206 46.9128 31.0094 47.0723C31.1982 47.2318 31.4407 47.3115 31.7369 47.3115ZM35.9633 42.7168L35.9877 43.3027C36.3751 42.847 36.8975 42.6191 37.5551 42.6191C38.294 42.6191 38.7969 42.9023 39.0639 43.4688C39.2396 43.2148 39.4675 43.0098 39.7475 42.8535C40.0307 42.6973 40.3643 42.6191 40.7484 42.6191C41.9073 42.6191 42.4965 43.2327 42.516 44.46V48H41.6127V44.5137C41.6127 44.1361 41.5264 43.8545 41.3539 43.6689C41.1814 43.4801 40.8917 43.3857 40.4848 43.3857C40.1495 43.3857 39.8712 43.4867 39.6498 43.6885C39.4284 43.887 39.2999 44.1556 39.2641 44.4941V48H38.3559V44.5381C38.3559 43.7699 37.9799 43.3857 37.2279 43.3857C36.6355 43.3857 36.2302 43.638 36.0121 44.1426V48H35.1088V42.7168H35.9633ZM45.7756 48.0977C45.0594 48.0977 44.4768 47.8633 44.0275 47.3945C43.5783 46.9225 43.3537 46.2926 43.3537 45.5049V45.3389C43.3537 44.8148 43.453 44.3477 43.6516 43.9375C43.8534 43.5241 44.1333 43.2018 44.4914 42.9707C44.8527 42.7363 45.2434 42.6191 45.6633 42.6191C46.3501 42.6191 46.884 42.8454 47.2648 43.2979C47.6457 43.7503 47.8361 44.3981 47.8361 45.2412V45.6172H44.257C44.2701 46.138 44.4214 46.5596 44.7111 46.8818C45.0041 47.2008 45.3752 47.3604 45.8244 47.3604C46.1434 47.3604 46.4136 47.2952 46.635 47.165C46.8563 47.0348 47.05 46.8623 47.216 46.6475L47.7678 47.0771C47.3251 47.7575 46.661 48.0977 45.7756 48.0977ZM45.6633 43.3613C45.2987 43.3613 44.9927 43.4948 44.7453 43.7617C44.4979 44.0254 44.3449 44.3965 44.2863 44.875H46.9328V44.8066C46.9068 44.3477 46.7831 43.9928 46.5617 43.7422C46.3404 43.4883 46.0409 43.3613 45.6633 43.3613ZM49.4404 42.7168L49.4697 43.3809C49.8734 42.873 50.4007 42.6191 51.0518 42.6191C52.1683 42.6191 52.7314 43.249 52.7412 44.5088V48H51.8379V44.5039C51.8346 44.123 51.7467 43.8415 51.5742 43.6592C51.4049 43.4769 51.1396 43.3857 50.7783 43.3857C50.4854 43.3857 50.2282 43.4639 50.0068 43.6201C49.7855 43.7764 49.613 43.9814 49.4893 44.2354V48H48.5859V42.7168H49.4404ZM55.0291 41.4375V42.7168H56.0154V43.415H55.0291V46.6914C55.0291 46.903 55.073 47.0625 55.1609 47.1699C55.2488 47.2741 55.3986 47.3262 55.6102 47.3262C55.7143 47.3262 55.8575 47.3066 56.0398 47.2676V48C55.8022 48.0651 55.5711 48.0977 55.3465 48.0977C54.9428 48.0977 54.6385 47.9756 54.4334 47.7314C54.2283 47.4873 54.1258 47.1406 54.1258 46.6914V43.415H53.1639V42.7168H54.1258V41.4375H55.0291ZM56.4381 45.3096C56.4381 44.792 56.539 44.3265 56.7408 43.9131C56.9459 43.4997 57.2291 43.1807 57.5904 42.9561C57.955 42.7314 58.3701 42.6191 58.8355 42.6191C59.5549 42.6191 60.136 42.8682 60.5787 43.3662C61.0247 43.8643 61.2477 44.5267 61.2477 45.3535V45.417C61.2477 45.9313 61.1484 46.3936 60.9498 46.8037C60.7545 47.2106 60.4729 47.528 60.1051 47.7559C59.7405 47.9837 59.3206 48.0977 58.8453 48.0977C58.1292 48.0977 57.5481 47.8486 57.1021 47.3506C56.6594 46.8525 56.4381 46.1934 56.4381 45.373V45.3096ZM57.3463 45.417C57.3463 46.0029 57.4814 46.4733 57.7516 46.8281C58.025 47.1829 58.3896 47.3604 58.8453 47.3604C59.3043 47.3604 59.6689 47.1813 59.9391 46.8232C60.2092 46.4619 60.3443 45.9574 60.3443 45.3096C60.3443 44.7301 60.206 44.2614 59.9293 43.9033C59.6559 43.542 59.2913 43.3613 58.8355 43.3613C58.3896 43.3613 58.0299 43.5387 57.7564 43.8936C57.483 44.2484 57.3463 44.7562 57.3463 45.417ZM65.1566 46.5986C65.1566 46.3545 65.0639 46.1657 64.8783 46.0322C64.696 45.8955 64.3754 45.7783 63.9164 45.6807C63.4607 45.583 63.0977 45.4658 62.8275 45.3291C62.5606 45.1924 62.362 45.0296 62.2318 44.8408C62.1049 44.652 62.0414 44.4274 62.0414 44.167C62.0414 43.734 62.2237 43.3678 62.5883 43.0684C62.9561 42.7689 63.4249 42.6191 63.9945 42.6191C64.5935 42.6191 65.0785 42.7738 65.4496 43.083C65.824 43.3923 66.0111 43.7878 66.0111 44.2695H65.1029C65.1029 44.0221 64.9971 43.8089 64.7855 43.6299C64.5772 43.4508 64.3135 43.3613 63.9945 43.3613C63.6658 43.3613 63.4086 43.4329 63.223 43.5762C63.0375 43.7194 62.9447 43.9066 62.9447 44.1377C62.9447 44.3558 63.031 44.5202 63.2035 44.6309C63.376 44.7415 63.6869 44.8473 64.1361 44.9482C64.5886 45.0492 64.9548 45.1696 65.2348 45.3096C65.5147 45.4495 65.7214 45.6188 65.8549 45.8174C65.9916 46.0127 66.06 46.252 66.06 46.5352C66.06 47.0072 65.8712 47.3864 65.4936 47.6729C65.1159 47.9561 64.626 48.0977 64.0238 48.0977C63.6006 48.0977 63.2263 48.0228 62.9008 47.873C62.5753 47.7233 62.3197 47.515 62.1342 47.248C61.9519 46.9779 61.8607 46.6865 61.8607 46.374H62.7641C62.7803 46.6768 62.9008 46.9176 63.1254 47.0967C63.3533 47.2725 63.6527 47.3604 64.0238 47.3604C64.3656 47.3604 64.6391 47.292 64.8441 47.1553C65.0525 47.0153 65.1566 46.8298 65.1566 46.5986ZM18.3449 57.3145C18.3449 56.5039 18.537 55.8529 18.9211 55.3613C19.3052 54.8665 19.8081 54.6191 20.4299 54.6191C21.0484 54.6191 21.5383 54.8307 21.8996 55.2539V52.5H22.8029V60H21.9729L21.9289 59.4336C21.5676 59.8763 21.0646 60.0977 20.4201 60.0977C19.8081 60.0977 19.3085 59.847 18.9211 59.3457C18.537 58.8444 18.3449 58.1901 18.3449 57.3828V57.3145ZM19.2482 57.417C19.2482 58.016 19.3719 58.4847 19.6193 58.8232C19.8667 59.1618 20.2085 59.3311 20.6447 59.3311C21.2176 59.3311 21.6359 59.0739 21.8996 58.5596V56.1328C21.6294 55.6348 21.2144 55.3857 20.6545 55.3857C20.2118 55.3857 19.8667 55.5566 19.6193 55.8984C19.3719 56.2402 19.2482 56.7464 19.2482 57.417ZM26.1016 60.0977C25.3854 60.0977 24.8027 59.8633 24.3535 59.3945C23.9043 58.9225 23.6797 58.2926 23.6797 57.5049V57.3389C23.6797 56.8148 23.779 56.3477 23.9775 55.9375C24.1794 55.5241 24.4593 55.2018 24.8174 54.9707C25.1787 54.7363 25.5693 54.6191 25.9893 54.6191C26.6761 54.6191 27.21 54.8454 27.5908 55.2979C27.9717 55.7503 28.1621 56.3981 28.1621 57.2412V57.6172H24.583C24.596 58.138 24.7474 58.5596 25.0371 58.8818C25.3301 59.2008 25.7012 59.3604 26.1504 59.3604C26.4694 59.3604 26.7396 59.2952 26.9609 59.165C27.1823 59.0348 27.376 58.8623 27.542 58.6475L28.0938 59.0771C27.651 59.7575 26.987 60.0977 26.1016 60.0977ZM25.9893 55.3613C25.6247 55.3613 25.3187 55.4948 25.0713 55.7617C24.8239 56.0254 24.6709 56.3965 24.6123 56.875H27.2588V56.8066C27.2327 56.3477 27.109 55.9928 26.8877 55.7422C26.6663 55.4883 26.3669 55.3613 25.9893 55.3613ZM35.1598 58.1445H32.1812L31.5123 60H30.5455L33.2604 52.8906H34.0807L36.8004 60H35.8385L35.1598 58.1445ZM32.4645 57.373H34.8814L33.6705 54.0479L32.4645 57.373ZM42.758 60C42.7059 59.8958 42.6636 59.7103 42.6311 59.4434C42.2111 59.8796 41.7098 60.0977 41.1271 60.0977C40.6063 60.0977 40.1783 59.9512 39.843 59.6582C39.5109 59.362 39.3449 58.9876 39.3449 58.5352C39.3449 57.985 39.5533 57.5586 39.9699 57.2559C40.3898 56.9499 40.979 56.7969 41.7375 56.7969H42.6164V56.3818C42.6164 56.0661 42.522 55.8154 42.3332 55.6299C42.1444 55.4411 41.8661 55.3467 41.4982 55.3467C41.176 55.3467 40.9058 55.4281 40.6877 55.5908C40.4696 55.7536 40.3605 55.9505 40.3605 56.1816H39.4523C39.4523 55.918 39.5451 55.6641 39.7307 55.4199C39.9195 55.1725 40.1734 54.9772 40.4924 54.834C40.8146 54.6908 41.1678 54.6191 41.552 54.6191C42.1607 54.6191 42.6376 54.7721 42.9826 55.0781C43.3277 55.3809 43.5067 55.7992 43.5197 56.333V58.7646C43.5197 59.2497 43.5816 59.6354 43.7053 59.9219V60H42.758ZM41.259 59.3115C41.5422 59.3115 41.8107 59.2383 42.0646 59.0918C42.3186 58.9453 42.5025 58.7549 42.6164 58.5205V57.4365H41.9084C40.8016 57.4365 40.2482 57.7604 40.2482 58.4082C40.2482 58.6914 40.3426 58.9128 40.5314 59.0723C40.7202 59.2318 40.9628 59.3115 41.259 59.3115ZM47.6609 59.2334H51.7283V60H46.5525V59.2969L50.449 53.6621H46.616V52.8906H51.5721V53.5791L47.6609 59.2334Z" fill="#666666"/>
<defs>
<filter id="filter0_d_7838:60091" x="0" y="0" width="70" height="38" filterUnits="userSpaceOnUse" color-interpolation-filters="sRGB">
<feFlood flood-opacity="0" result="BackgroundImageFix"/>
<feColorMatrix in="SourceAlpha" type="matrix" values="0 0 0 0 0 0 0 0 0 0 0 0 0 0 0 0 0 0 127 0" result="hardAlpha"/>
<feOffset dy="1"/>
<feGaussianBlur stdDeviation="1"/>
<feColorMatrix type="matrix" values="0 0 0 0 0 0 0 0 0 0 0 0 0 0 0 0 0 0 0.2 0"/>
<feBlend mode="normal" in2="BackgroundImageFix" result="effect1_dropShadow_7838:60091"/>
<feBlend mode="normal" in="SourceGraphic" in2="effect1_dropShadow_7838:60091" result="shape"/>
</filter>
</defs>
</svg>
