<svg width="70" height="65" viewBox="0 0 70 65" fill="none" xmlns="http://www.w3.org/2000/svg">
<g filter="url(#filter0_d_7838:60103)">
<rect x="2" y="1" width="66" height="34" rx="8" fill="#E7F3F9"/>
<path fill-rule="evenodd" clip-rule="evenodd" d="M41.7545 18.4052C41.8463 18.5376 41.8463 18.713 41.7545 18.8454C40.1294 21.0188 37.5339 22.2469 34.823 22.1252C32.112 22.2467 29.5166 21.0187 27.8915 18.8454C27.7992 18.7132 27.7992 18.5374 27.8915 18.4052C29.5166 16.2319 32.112 15.0039 34.823 15.1254C37.5339 15.0041 40.1291 16.2321 41.7545 18.4052Z" stroke="#007DC5" stroke-linecap="round" stroke-linejoin="round"/>
<ellipse cx="34.8245" cy="18.6252" rx="3.50025" ry="3.50025" stroke="#007DC5" stroke-linecap="round" stroke-linejoin="round"/>
<path d="M34.8242 18.3438C34.9795 18.3438 35.1055 18.4697 35.1055 18.625" stroke="#007DC5" stroke-linecap="round" stroke-linejoin="round"/>
<path d="M34.543 18.625C34.543 18.4697 34.6689 18.3438 34.8242 18.3438" stroke="#007DC5" stroke-linecap="round" stroke-linejoin="round"/>
<path d="M34.8242 18.9062C34.6689 18.9062 34.543 18.7803 34.543 18.625" stroke="#007DC5" stroke-linecap="round" stroke-linejoin="round"/>
<path d="M35.1055 18.625C35.1055 18.7803 34.9795 18.9062 34.8242 18.9062" stroke="#007DC5" stroke-linecap="round" stroke-linejoin="round"/>
<path d="M41.6133 18.2107C42.7707 17.8462 43.5256 16.7336 43.4365 15.5234" stroke="#007DC5" stroke-linecap="round" stroke-linejoin="round"/>
<path d="M39.1426 16.142C40.0222 15.3856 40.3009 14.1414 39.8281 13.082" stroke="#007DC5" stroke-linecap="round" stroke-linejoin="round"/>
<path d="M35.3922 15.1386C36.0051 14.0996 35.8766 12.7836 35.0742 11.8828" stroke="#007DC5" stroke-linecap="round" stroke-linejoin="round"/>
<path d="M32.1495 15.4805C32.0977 14.2863 31.2709 13.2665 30.1133 12.9688" stroke="#007DC5" stroke-linecap="round" stroke-linejoin="round"/>
<path d="M29.0629 17.1259C28.6943 16.0801 27.6965 15.3887 26.5879 15.4107" stroke="#007DC5" stroke-linecap="round" stroke-linejoin="round"/>
</g>
<path d="M19.4775 44.6748C19.4775 45.3714 19.3604 45.9801 19.126 46.501C18.8916 47.0186 18.5596 47.4141 18.1299 47.6875C17.7002 47.9609 17.1989 48.0977 16.626 48.0977C16.0661 48.0977 15.5697 47.9609 15.1367 47.6875C14.7038 47.4108 14.3669 47.0186 14.126 46.5107C13.8883 45.9997 13.7663 45.4089 13.7598 44.7383V44.2256C13.7598 43.542 13.8786 42.9382 14.1162 42.4141C14.3538 41.89 14.6891 41.4896 15.1221 41.2129C15.5583 40.9329 16.0563 40.793 16.6162 40.793C17.1859 40.793 17.6872 40.9313 18.1201 41.208C18.5563 41.4814 18.8916 41.8802 19.126 42.4043C19.3604 42.9251 19.4775 43.5322 19.4775 44.2256V44.6748ZM18.5449 44.2158C18.5449 43.3727 18.3757 42.7266 18.0371 42.2773C17.6986 41.8249 17.2249 41.5986 16.6162 41.5986C16.0238 41.5986 15.5566 41.8249 15.2148 42.2773C14.8763 42.7266 14.7021 43.3516 14.6924 44.1523V44.6748C14.6924 45.4919 14.8633 46.1348 15.2051 46.6035C15.5501 47.069 16.0238 47.3018 16.626 47.3018C17.2314 47.3018 17.7002 47.082 18.0322 46.6426C18.3643 46.1999 18.5352 45.5667 18.5449 44.7432V44.2158ZM21.1865 48V43.415H20.3516V42.7168H21.1865V42.1748C21.1865 41.6084 21.3379 41.1706 21.6406 40.8613C21.9434 40.5521 22.3714 40.3975 22.9248 40.3975C23.1331 40.3975 23.3398 40.4251 23.5449 40.4805L23.4961 41.2129C23.3431 41.1836 23.1803 41.1689 23.0078 41.1689C22.7148 41.1689 22.4886 41.2552 22.3291 41.4277C22.1696 41.597 22.0898 41.8411 22.0898 42.1602V42.7168H23.2178V43.415H22.0898V48H21.1865ZM25.4443 41.4375V42.7168H26.4307V43.415H25.4443V46.6914C25.4443 46.903 25.4883 47.0625 25.5762 47.1699C25.6641 47.2741 25.8138 47.3262 26.0254 47.3262C26.1296 47.3262 26.2728 47.3066 26.4551 47.2676V48C26.2174 48.0651 25.9863 48.0977 25.7617 48.0977C25.3581 48.0977 25.0537 47.9756 24.8486 47.7314C24.6436 47.4873 24.541 47.1406 24.541 46.6914V43.415H23.5791V42.7168H24.541V41.4375H25.4443ZM30.752 48C30.6999 47.8958 30.6576 47.7103 30.625 47.4434C30.2051 47.8796 29.7038 48.0977 29.1211 48.0977C28.6003 48.0977 28.1722 47.9512 27.8369 47.6582C27.5049 47.362 27.3389 46.9876 27.3389 46.5352C27.3389 45.985 27.5472 45.5586 27.9639 45.2559C28.3838 44.9499 28.973 44.7969 29.7314 44.7969H30.6104V44.3818C30.6104 44.0661 30.516 43.8154 30.3271 43.6299C30.1383 43.4411 29.86 43.3467 29.4922 43.3467C29.1699 43.3467 28.8997 43.4281 28.6816 43.5908C28.4635 43.7536 28.3545 43.9505 28.3545 44.1816H27.4463C27.4463 43.918 27.5391 43.6641 27.7246 43.4199C27.9134 43.1725 28.1673 42.9772 28.4863 42.834C28.8086 42.6908 29.1618 42.6191 29.5459 42.6191C30.1546 42.6191 30.6315 42.7721 30.9766 43.0781C31.3216 43.3809 31.5007 43.7992 31.5137 44.333V46.7646C31.5137 47.2497 31.5755 47.6354 31.6992 47.9219V48H30.752ZM29.2529 47.3115C29.5361 47.3115 29.8047 47.2383 30.0586 47.0918C30.3125 46.9453 30.4964 46.7549 30.6104 46.5205V45.4365H29.9023C28.7956 45.4365 28.2422 45.7604 28.2422 46.4082C28.2422 46.6914 28.3366 46.9128 28.5254 47.0723C28.7142 47.2318 28.9567 47.3115 29.2529 47.3115ZM30.0879 40.5H31.1816L29.873 41.9355H29.1455L30.0879 40.5ZM33.9111 48H33.0078V40.5H33.9111V48ZM36.2109 42.7168L36.2354 43.3027C36.6227 42.847 37.1452 42.6191 37.8027 42.6191C38.5417 42.6191 39.0446 42.9023 39.3115 43.4688C39.4873 43.2148 39.7152 43.0098 39.9951 42.8535C40.2783 42.6973 40.612 42.6191 40.9961 42.6191C42.1549 42.6191 42.7441 43.2327 42.7637 44.46V48H41.8604V44.5137C41.8604 44.1361 41.7741 43.8545 41.6016 43.6689C41.429 43.4801 41.1393 43.3857 40.7324 43.3857C40.3971 43.3857 40.1188 43.4867 39.8975 43.6885C39.6761 43.887 39.5475 44.1556 39.5117 44.4941V48H38.6035V44.5381C38.6035 43.7699 38.2275 43.3857 37.4756 43.3857C36.8831 43.3857 36.4779 43.638 36.2598 44.1426V48H35.3564V42.7168H36.2109ZM45.1123 48H44.209V42.7168H45.1123V48ZM44.1357 41.3154C44.1357 41.1689 44.1797 41.0452 44.2676 40.9443C44.3587 40.8434 44.4922 40.793 44.668 40.793C44.8438 40.793 44.9772 40.8434 45.0684 40.9443C45.1595 41.0452 45.2051 41.1689 45.2051 41.3154C45.2051 41.4619 45.1595 41.584 45.0684 41.6816C44.9772 41.7793 44.8438 41.8281 44.668 41.8281C44.4922 41.8281 44.3587 41.7793 44.2676 41.6816C44.1797 41.584 44.1357 41.4619 44.1357 41.3154ZM48.6816 47.3604C49.0039 47.3604 49.2855 47.2627 49.5264 47.0674C49.7673 46.8721 49.9007 46.6279 49.9268 46.335H50.7812C50.765 46.6377 50.6608 46.9258 50.4688 47.1992C50.2767 47.4727 50.0195 47.6908 49.6973 47.8535C49.3783 48.0163 49.0397 48.0977 48.6816 48.0977C47.9622 48.0977 47.3893 47.8584 46.9629 47.3799C46.5397 46.8981 46.3281 46.2406 46.3281 45.4072V45.2559C46.3281 44.7415 46.4225 44.2842 46.6113 43.8838C46.8001 43.4834 47.0703 43.1725 47.4219 42.9512C47.7767 42.7298 48.195 42.6191 48.6768 42.6191C49.2692 42.6191 49.7607 42.7965 50.1514 43.1514C50.5452 43.5062 50.7552 43.9668 50.7812 44.5332H49.9268C49.9007 44.1914 49.7705 43.9115 49.5361 43.6934C49.305 43.472 49.0186 43.3613 48.6768 43.3613C48.2178 43.3613 47.8613 43.5273 47.6074 43.8594C47.3568 44.1882 47.2314 44.665 47.2314 45.29V45.4609C47.2314 46.0697 47.3568 46.5384 47.6074 46.8672C47.8581 47.196 48.2161 47.3604 48.6816 47.3604ZM51.5576 45.3096C51.5576 44.792 51.6585 44.3265 51.8604 43.9131C52.0654 43.4997 52.3486 43.1807 52.71 42.9561C53.0745 42.7314 53.4896 42.6191 53.9551 42.6191C54.6745 42.6191 55.2555 42.8682 55.6982 43.3662C56.1442 43.8643 56.3672 44.5267 56.3672 45.3535V45.417C56.3672 45.9313 56.2679 46.3936 56.0693 46.8037C55.874 47.2106 55.5924 47.528 55.2246 47.7559C54.86 47.9837 54.4401 48.0977 53.9648 48.0977C53.2487 48.0977 52.6676 47.8486 52.2217 47.3506C51.779 46.8525 51.5576 46.1934 51.5576 45.373V45.3096ZM52.4658 45.417C52.4658 46.0029 52.6009 46.4733 52.8711 46.8281C53.1445 47.1829 53.5091 47.3604 53.9648 47.3604C54.4238 47.3604 54.7884 47.1813 55.0586 46.8232C55.3288 46.4619 55.4639 45.9574 55.4639 45.3096C55.4639 44.7301 55.3255 44.2614 55.0488 43.9033C54.7754 43.542 54.4108 43.3613 53.9551 43.3613C53.5091 43.3613 53.1494 43.5387 52.876 43.8936C52.6025 44.2484 52.4658 44.7562 52.4658 45.417Z" fill="#666666"/>
<defs>
<filter id="filter0_d_7838:60103" x="0" y="0" width="70" height="38" filterUnits="userSpaceOnUse" color-interpolation-filters="sRGB">
<feFlood flood-opacity="0" result="BackgroundImageFix"/>
<feColorMatrix in="SourceAlpha" type="matrix" values="0 0 0 0 0 0 0 0 0 0 0 0 0 0 0 0 0 0 127 0" result="hardAlpha"/>
<feOffset dy="1"/>
<feGaussianBlur stdDeviation="1"/>
<feColorMatrix type="matrix" values="0 0 0 0 0 0 0 0 0 0 0 0 0 0 0 0 0 0 0.2 0"/>
<feBlend mode="normal" in2="BackgroundImageFix" result="effect1_dropShadow_7838:60103"/>
<feBlend mode="normal" in="SourceGraphic" in2="effect1_dropShadow_7838:60103" result="shape"/>
</filter>
</defs>
</svg>
