<svg width="70" height="65" viewBox="0 0 70 65" fill="none" xmlns="http://www.w3.org/2000/svg">
<g filter="url(#filter0_d_7838:60163)">
<rect x="2" y="1" width="66" height="34" rx="8" fill="#E7F3F9"/>
<path d="M26.5625 9.5625L36.4828 11.877C40.556 12.8275 43.4375 16.4589 43.4375 20.6415V26.4375" stroke="#007DC5" stroke-linecap="round" stroke-linejoin="round"/>
<path d="M26.5625 19.6875L33.074 22.4782C33.9011 22.8328 34.4374 23.6461 34.4375 24.546V26.4375" stroke="#007DC5" stroke-linecap="round" stroke-linejoin="round"/>
<path d="M26.5625 15.75L35.0113 18.792C35.1165 19.8221 35.9111 20.6473 36.9365 20.7914C37.9618 20.9355 38.9532 20.3613 39.3382 19.4001C39.7233 18.4389 39.4027 17.339 38.5614 16.7353C37.7202 16.1316 36.5756 16.18 35.7882 16.8525L26.5625 12.9375" stroke="#007DC5" stroke-linecap="round" stroke-linejoin="round"/>
<path d="M40.0625 26.4381L40.625 21.5391C39.7718 22.5091 38.5419 23.0645 37.25 23.0631L37.8125 26.4381" stroke="#007DC5" stroke-linecap="round" stroke-linejoin="round"/>
</g>
<path d="M15.5576 44.6748C15.5576 45.3714 15.4404 45.9801 15.2061 46.501C14.9717 47.0186 14.6396 47.4141 14.21 47.6875C13.7803 47.9609 13.279 48.0977 12.7061 48.0977C12.1462 48.0977 11.6497 47.9609 11.2168 47.6875C10.7839 47.4108 10.4469 47.0186 10.2061 46.5107C9.96842 45.9997 9.84635 45.4089 9.83984 44.7383V44.2256C9.83984 43.542 9.95866 42.9382 10.1963 42.4141C10.4339 41.89 10.7692 41.4896 11.2021 41.2129C11.6383 40.9329 12.1364 40.793 12.6963 40.793C13.266 40.793 13.7673 40.9313 14.2002 41.208C14.6364 41.4814 14.9717 41.8802 15.2061 42.4043C15.4404 42.9251 15.5576 43.5322 15.5576 44.2256V44.6748ZM14.625 44.2158C14.625 43.3727 14.4557 42.7266 14.1172 42.2773C13.7786 41.8249 13.305 41.5986 12.6963 41.5986C12.1038 41.5986 11.6367 41.8249 11.2949 42.2773C10.9564 42.7266 10.7822 43.3516 10.7725 44.1523V44.6748C10.7725 45.4919 10.9434 46.1348 11.2852 46.6035C11.6302 47.069 12.1038 47.3018 12.7061 47.3018C13.3115 47.3018 13.7803 47.082 14.1123 46.6426C14.4443 46.1999 14.6152 45.5667 14.625 44.7432V44.2158ZM19.076 43.5273C18.9393 43.5046 18.7911 43.4932 18.6316 43.4932C18.0392 43.4932 17.6372 43.7454 17.4256 44.25V48H16.5223V42.7168H17.4012L17.4158 43.3271C17.712 42.8551 18.132 42.6191 18.6756 42.6191C18.8514 42.6191 18.9848 42.6419 19.076 42.6875V43.5273ZM21.0807 41.4375V42.7168H22.067V43.415H21.0807V46.6914C21.0807 46.903 21.1246 47.0625 21.2125 47.1699C21.3004 47.2741 21.4501 47.3262 21.6617 47.3262C21.7659 47.3262 21.9091 47.3066 22.0914 47.2676V48C21.8538 48.0651 21.6227 48.0977 21.398 48.0977C20.9944 48.0977 20.69 47.9756 20.485 47.7314C20.2799 47.4873 20.1773 47.1406 20.1773 46.6914V43.415H19.2154V42.7168H20.1773V41.4375H21.0807ZM22.4896 45.3096C22.4896 44.792 22.5906 44.3265 22.7924 43.9131C22.9975 43.4997 23.2807 43.1807 23.642 42.9561C24.0066 42.7314 24.4216 42.6191 24.8871 42.6191C25.6065 42.6191 26.1876 42.8682 26.6303 43.3662C27.0762 43.8643 27.2992 44.5267 27.2992 45.3535V45.417C27.2992 45.9313 27.1999 46.3936 27.0014 46.8037C26.8061 47.2106 26.5245 47.528 26.1566 47.7559C25.7921 47.9837 25.3721 48.0977 24.8969 48.0977C24.1807 48.0977 23.5997 47.8486 23.1537 47.3506C22.711 46.8525 22.4896 46.1934 22.4896 45.373V45.3096ZM23.3979 45.417C23.3979 46.0029 23.5329 46.4733 23.8031 46.8281C24.0766 47.1829 24.4411 47.3604 24.8969 47.3604C25.3559 47.3604 25.7204 47.1813 25.9906 46.8232C26.2608 46.4619 26.3959 45.9574 26.3959 45.3096C26.3959 44.7301 26.2576 44.2614 25.9809 43.9033C25.7074 43.542 25.3428 43.3613 24.8871 43.3613C24.4411 43.3613 24.0814 43.5387 23.808 43.8936C23.5346 44.2484 23.3979 44.7562 23.3979 45.417ZM32.5949 45.417C32.5949 46.221 32.411 46.8688 32.0432 47.3604C31.6753 47.8519 31.1773 48.0977 30.549 48.0977C29.9077 48.0977 29.4032 47.8942 29.0354 47.4873V50.0312H28.132V42.7168H28.9572L29.0012 43.3027C29.369 42.847 29.8801 42.6191 30.5344 42.6191C31.1691 42.6191 31.6704 42.8584 32.0383 43.3369C32.4094 43.8154 32.5949 44.4811 32.5949 45.334V45.417ZM31.6916 45.3145C31.6916 44.7188 31.5646 44.2484 31.3107 43.9033C31.0568 43.5583 30.7085 43.3857 30.2658 43.3857C29.7189 43.3857 29.3088 43.6283 29.0354 44.1133V46.6377C29.3055 47.1195 29.7189 47.3604 30.2756 47.3604C30.7085 47.3604 31.052 47.1895 31.3059 46.8477C31.563 46.5026 31.6916 45.9915 31.6916 45.3145ZM35.6396 48.0977C34.9235 48.0977 34.3408 47.8633 33.8916 47.3945C33.4424 46.9225 33.2178 46.2926 33.2178 45.5049V45.3389C33.2178 44.8148 33.3171 44.3477 33.5156 43.9375C33.7174 43.5241 33.9974 43.2018 34.3555 42.9707C34.7168 42.7363 35.1074 42.6191 35.5273 42.6191C36.2142 42.6191 36.748 42.8454 37.1289 43.2979C37.5098 43.7503 37.7002 44.3981 37.7002 45.2412V45.6172H34.1211C34.1341 46.138 34.2855 46.5596 34.5752 46.8818C34.8682 47.2008 35.2393 47.3604 35.6885 47.3604C36.0075 47.3604 36.2777 47.2952 36.499 47.165C36.7204 47.0348 36.9141 46.8623 37.0801 46.6475L37.6318 47.0771C37.1891 47.7575 36.5251 48.0977 35.6396 48.0977ZM35.5273 43.3613C35.1628 43.3613 34.8568 43.4948 34.6094 43.7617C34.362 44.0254 34.209 44.3965 34.1504 44.875H36.7969V44.8066C36.7708 44.3477 36.6471 43.9928 36.4258 43.7422C36.2044 43.4883 35.9049 43.3613 35.5273 43.3613ZM35.9668 40.5H37.0605L35.752 41.9355H35.0244L35.9668 40.5ZM38.2303 45.3145C38.2303 44.5039 38.4223 43.8529 38.8064 43.3613C39.1906 42.8665 39.6935 42.6191 40.3152 42.6191C40.9337 42.6191 41.4236 42.8307 41.785 43.2539V40.5H42.6883V48H41.8582L41.8143 47.4336C41.4529 47.8763 40.95 48.0977 40.3055 48.0977C39.6935 48.0977 39.1938 47.847 38.8064 47.3457C38.4223 46.8444 38.2303 46.1901 38.2303 45.3828V45.3145ZM39.1336 45.417C39.1336 46.016 39.2573 46.4847 39.5047 46.8232C39.7521 47.1618 40.0939 47.3311 40.5301 47.3311C41.103 47.3311 41.5213 47.0739 41.785 46.5596V44.1328C41.5148 43.6348 41.0997 43.3857 40.5398 43.3857C40.0971 43.3857 39.7521 43.5566 39.5047 43.8984C39.2573 44.2402 39.1336 44.7464 39.1336 45.417ZM44.776 48H43.8727V42.7168H44.776V48ZM43.7994 41.3154C43.7994 41.1689 43.8434 41.0452 43.9313 40.9443C44.0224 40.8434 44.1559 40.793 44.3316 40.793C44.5074 40.793 44.6409 40.8434 44.732 40.9443C44.8232 41.0452 44.8688 41.1689 44.8688 41.3154C44.8688 41.4619 44.8232 41.584 44.732 41.6816C44.6409 41.7793 44.5074 41.8281 44.3316 41.8281C44.1559 41.8281 44.0224 41.7793 43.9313 41.6816C43.8434 41.584 43.7994 41.4619 43.7994 41.3154ZM48.0453 47.3604C48.3676 47.3604 48.6492 47.2627 48.89 47.0674C49.1309 46.8721 49.2644 46.6279 49.2904 46.335H50.1449C50.1286 46.6377 50.0245 46.9258 49.8324 47.1992C49.6404 47.4727 49.3832 47.6908 49.0609 47.8535C48.7419 48.0163 48.4034 48.0977 48.0453 48.0977C47.3259 48.0977 46.753 47.8584 46.3266 47.3799C45.9034 46.8981 45.6918 46.2406 45.6918 45.4072V45.2559C45.6918 44.7415 45.7862 44.2842 45.975 43.8838C46.1638 43.4834 46.434 43.1725 46.7855 42.9512C47.1404 42.7298 47.5587 42.6191 48.0404 42.6191C48.6329 42.6191 49.1244 42.7965 49.515 43.1514C49.9089 43.5062 50.1189 43.9668 50.1449 44.5332H49.2904C49.2644 44.1914 49.1342 43.9115 48.8998 43.6934C48.6687 43.472 48.3822 43.3613 48.0404 43.3613C47.5814 43.3613 47.225 43.5273 46.9711 43.8594C46.7204 44.1882 46.5951 44.665 46.5951 45.29V45.4609C46.5951 46.0697 46.7204 46.5384 46.9711 46.8672C47.2217 47.196 47.5798 47.3604 48.0453 47.3604ZM50.6213 45.3096C50.6213 44.792 50.7222 44.3265 50.924 43.9131C51.1291 43.4997 51.4123 43.1807 51.7736 42.9561C52.1382 42.7314 52.5533 42.6191 53.0187 42.6191C53.7382 42.6191 54.3192 42.8682 54.7619 43.3662C55.2079 43.8643 55.4309 44.5267 55.4309 45.3535V45.417C55.4309 45.9313 55.3316 46.3936 55.133 46.8037C54.9377 47.2106 54.6561 47.528 54.2883 47.7559C53.9237 47.9837 53.5038 48.0977 53.0285 48.0977C52.3124 48.0977 51.7313 47.8486 51.2854 47.3506C50.8426 46.8525 50.6213 46.1934 50.6213 45.373V45.3096ZM51.5295 45.417C51.5295 46.0029 51.6646 46.4733 51.9348 46.8281C52.2082 47.1829 52.5728 47.3604 53.0285 47.3604C53.4875 47.3604 53.8521 47.1813 54.1223 46.8232C54.3924 46.4619 54.5275 45.9574 54.5275 45.3096C54.5275 44.7301 54.3892 44.2614 54.1125 43.9033C53.8391 43.542 53.4745 43.3613 53.0187 43.3613C52.5728 43.3613 52.2131 43.5387 51.9396 43.8936C51.6662 44.2484 51.5295 44.7562 51.5295 45.417ZM59.3398 46.5986C59.3398 46.3545 59.2471 46.1657 59.0615 46.0322C58.8792 45.8955 58.5586 45.7783 58.0996 45.6807C57.6439 45.583 57.2809 45.4658 57.0107 45.3291C56.7438 45.1924 56.5452 45.0296 56.415 44.8408C56.2881 44.652 56.2246 44.4274 56.2246 44.167C56.2246 43.734 56.4069 43.3678 56.7715 43.0684C57.1393 42.7689 57.6081 42.6191 58.1777 42.6191C58.7767 42.6191 59.2617 42.7738 59.6328 43.083C60.0072 43.3923 60.1943 43.7878 60.1943 44.2695H59.2861C59.2861 44.0221 59.1803 43.8089 58.9688 43.6299C58.7604 43.4508 58.4967 43.3613 58.1777 43.3613C57.849 43.3613 57.5918 43.4329 57.4062 43.5762C57.2207 43.7194 57.1279 43.9066 57.1279 44.1377C57.1279 44.3558 57.2142 44.5202 57.3867 44.6309C57.5592 44.7415 57.8701 44.8473 58.3193 44.9482C58.7718 45.0492 59.138 45.1696 59.418 45.3096C59.6979 45.4495 59.9046 45.6188 60.0381 45.8174C60.1748 46.0127 60.2432 46.252 60.2432 46.5352C60.2432 47.0072 60.0544 47.3864 59.6768 47.6729C59.2992 47.9561 58.8092 48.0977 58.207 48.0977C57.7839 48.0977 57.4095 48.0228 57.084 47.873C56.7585 47.7233 56.5029 47.515 56.3174 47.248C56.1351 46.9779 56.0439 46.6865 56.0439 46.374H56.9473C56.9635 46.6768 57.084 46.9176 57.3086 47.0967C57.5365 47.2725 57.8359 47.3604 58.207 47.3604C58.5488 47.3604 58.8223 47.292 59.0273 47.1553C59.2357 47.0153 59.3398 46.8298 59.3398 46.5986Z" fill="#666666"/>
<defs>
<filter id="filter0_d_7838:60163" x="0" y="0" width="70" height="38" filterUnits="userSpaceOnUse" color-interpolation-filters="sRGB">
<feFlood flood-opacity="0" result="BackgroundImageFix"/>
<feColorMatrix in="SourceAlpha" type="matrix" values="0 0 0 0 0 0 0 0 0 0 0 0 0 0 0 0 0 0 127 0" result="hardAlpha"/>
<feOffset dy="1"/>
<feGaussianBlur stdDeviation="1"/>
<feColorMatrix type="matrix" values="0 0 0 0 0 0 0 0 0 0 0 0 0 0 0 0 0 0 0.2 0"/>
<feBlend mode="normal" in2="BackgroundImageFix" result="effect1_dropShadow_7838:60163"/>
<feBlend mode="normal" in="SourceGraphic" in2="effect1_dropShadow_7838:60163" result="shape"/>
</filter>
</defs>
</svg>
