<svg width="70" height="65" viewBox="0 0 70 65" fill="none" xmlns="http://www.w3.org/2000/svg">
<g filter="url(#filter0_d_7838:60147)">
<rect x="2" y="1" width="66" height="34" rx="8" fill="#E7F3F9"/>
<path fill-rule="evenodd" clip-rule="evenodd" d="M33.1297 22.2907C33.0451 22.2108 32.9549 22.1371 32.8597 22.0702L34.6739 20.2567C34.8114 20.1186 34.8677 19.9192 34.8228 19.7296C34.7779 19.54 34.6382 19.387 34.4534 19.3252L33.8459 19.1227L33.2624 18.5392C33.0426 18.3203 32.6872 18.3203 32.4674 18.5392L30.8984 20.1082C30.8311 20.0133 30.7574 19.9231 30.6779 19.8382C29.8991 19.0575 28.6919 18.8998 27.7386 19.4543C26.7854 20.0087 26.3256 21.1359 26.619 22.1989C26.9125 23.2619 27.8855 23.9936 28.9882 23.9804C28.9755 25.0826 29.7071 26.0548 30.7696 26.3479C31.8321 26.641 32.9587 26.1814 33.5129 25.2287C34.0671 24.2759 33.9097 23.0694 33.1297 22.2907V22.2907Z" stroke="#007DC5" stroke-linecap="round" stroke-linejoin="round"/>
<path fill-rule="evenodd" clip-rule="evenodd" d="M37.9995 12.4278C38.0237 12.5415 38.056 12.6533 38.0963 12.7623L35.1705 13.4996C34.9881 13.546 34.8409 13.6804 34.7782 13.8579C34.7156 14.0354 34.7457 14.2324 34.8585 14.3831L35.2823 14.9463L35.4225 15.7106C35.4515 15.8647 35.5433 15.9999 35.6758 16.0837C35.8084 16.1674 35.9699 16.1923 36.1215 16.1523L38.5965 15.4901C38.5975 15.6064 38.607 15.7225 38.625 15.8373C38.822 16.9228 39.726 17.7389 40.8258 17.8243C41.9256 17.9097 42.9448 17.2429 43.3069 16.2009C43.6691 15.1589 43.2832 14.0037 42.3675 13.3886C43.003 12.4888 42.9526 11.2738 42.2447 10.4298C41.5368 9.58575 40.3492 9.32452 39.3525 9.79363C38.3558 10.2627 37.8002 11.3444 37.9995 12.4278Z" stroke="#007DC5" stroke-linecap="round" stroke-linejoin="round"/>
<path d="M30.4707 12.9375L28.7832 11.25" stroke="#007DC5" stroke-linecap="round" stroke-linejoin="round"/>
<path d="M32.7207 11.8125L32.1582 10.125" stroke="#007DC5" stroke-linecap="round" stroke-linejoin="round"/>
<path d="M29.9082 15.1875H28.2207" stroke="#007DC5" stroke-linecap="round" stroke-linejoin="round"/>
<path d="M39.4707 23.0625L41.1582 24.75" stroke="#007DC5" stroke-linecap="round" stroke-linejoin="round"/>
<path d="M40.5957 20.8125H42.8457" stroke="#007DC5" stroke-linecap="round" stroke-linejoin="round"/>
<path d="M37.2207 24.1875L36.6582 25.875" stroke="#007DC5" stroke-linecap="round" stroke-linejoin="round"/>
</g>
<path d="M14.2539 44.6748C14.2539 45.3714 14.1367 45.9801 13.9023 46.501C13.668 47.0186 13.3359 47.4141 12.9062 47.6875C12.4766 47.9609 11.9753 48.0977 11.4023 48.0977C10.8424 48.0977 10.346 47.9609 9.91309 47.6875C9.48014 47.4108 9.14323 47.0186 8.90234 46.5107C8.66471 45.9997 8.54264 45.4089 8.53613 44.7383V44.2256C8.53613 43.542 8.65495 42.9382 8.89258 42.4141C9.13021 41.89 9.46549 41.4896 9.89844 41.2129C10.3346 40.9329 10.8327 40.793 11.3926 40.793C11.9622 40.793 12.4635 40.9313 12.8965 41.208C13.3327 41.4814 13.668 41.8802 13.9023 42.4043C14.1367 42.9251 14.2539 43.5322 14.2539 44.2256V44.6748ZM13.3213 44.2158C13.3213 43.3727 13.152 42.7266 12.8135 42.2773C12.4749 41.8249 12.0013 41.5986 11.3926 41.5986C10.8001 41.5986 10.333 41.8249 9.99121 42.2773C9.65267 42.7266 9.47852 43.3516 9.46875 44.1523V44.6748C9.46875 45.4919 9.63965 46.1348 9.98145 46.6035C10.3265 47.069 10.8001 47.3018 11.4023 47.3018C12.0078 47.3018 12.4766 47.082 12.8086 46.6426C13.1406 46.1999 13.3115 45.5667 13.3213 44.7432V44.2158ZM18.2947 46.5986C18.2947 46.3545 18.202 46.1657 18.0164 46.0322C17.8341 45.8955 17.5135 45.7783 17.0545 45.6807C16.5988 45.583 16.2358 45.4658 15.9656 45.3291C15.6987 45.1924 15.5001 45.0296 15.3699 44.8408C15.243 44.652 15.1795 44.4274 15.1795 44.167C15.1795 43.734 15.3618 43.3678 15.7264 43.0684C16.0942 42.7689 16.563 42.6191 17.1326 42.6191C17.7316 42.6191 18.2166 42.7738 18.5877 43.083C18.962 43.3923 19.1492 43.7878 19.1492 44.2695H18.241C18.241 44.0221 18.1352 43.8089 17.9236 43.6299C17.7153 43.4508 17.4516 43.3613 17.1326 43.3613C16.8038 43.3613 16.5467 43.4329 16.3611 43.5762C16.1756 43.7194 16.0828 43.9066 16.0828 44.1377C16.0828 44.3558 16.1691 44.5202 16.3416 44.6309C16.5141 44.7415 16.825 44.8473 17.2742 44.9482C17.7267 45.0492 18.0929 45.1696 18.3729 45.3096C18.6528 45.4495 18.8595 45.6188 18.993 45.8174C19.1297 46.0127 19.198 46.252 19.198 46.5352C19.198 47.0072 19.0092 47.3864 18.6316 47.6729C18.254 47.9561 17.7641 48.0977 17.1619 48.0977C16.7387 48.0977 16.3644 48.0228 16.0389 47.873C15.7133 47.7233 15.4578 47.515 15.2723 47.248C15.09 46.9779 14.9988 46.6865 14.9988 46.374H15.9021C15.9184 46.6768 16.0389 46.9176 16.2635 47.0967C16.4913 47.2725 16.7908 47.3604 17.1619 47.3604C17.5037 47.3604 17.7771 47.292 17.9822 47.1553C18.1906 47.0153 18.2947 46.8298 18.2947 46.5986ZM21.3004 41.4375V42.7168H22.2867V43.415H21.3004V46.6914C21.3004 46.903 21.3443 47.0625 21.4322 47.1699C21.5201 47.2741 21.6699 47.3262 21.8814 47.3262C21.9856 47.3262 22.1288 47.3066 22.3111 47.2676V48C22.0735 48.0651 21.8424 48.0977 21.6178 48.0977C21.2141 48.0977 20.9098 47.9756 20.7047 47.7314C20.4996 47.4873 20.3971 47.1406 20.3971 46.6914V43.415H19.4352V42.7168H20.3971V41.4375H21.3004ZM25.2387 48.0977C24.5225 48.0977 23.9398 47.8633 23.4906 47.3945C23.0414 46.9225 22.8168 46.2926 22.8168 45.5049V45.3389C22.8168 44.8148 22.9161 44.3477 23.1146 43.9375C23.3165 43.5241 23.5964 43.2018 23.9545 42.9707C24.3158 42.7363 24.7064 42.6191 25.1264 42.6191C25.8132 42.6191 26.3471 42.8454 26.7279 43.2979C27.1088 43.7503 27.2992 44.3981 27.2992 45.2412V45.6172H23.7201C23.7331 46.138 23.8845 46.5596 24.1742 46.8818C24.4672 47.2008 24.8383 47.3604 25.2875 47.3604C25.6065 47.3604 25.8767 47.2952 26.098 47.165C26.3194 47.0348 26.5131 46.8623 26.6791 46.6475L27.2309 47.0771C26.7882 47.7575 26.1241 48.0977 25.2387 48.0977ZM25.1264 43.3613C24.7618 43.3613 24.4558 43.4948 24.2084 43.7617C23.961 44.0254 23.808 44.3965 23.7494 44.875H26.3959V44.8066C26.3699 44.3477 26.2462 43.9928 26.0248 43.7422C25.8035 43.4883 25.504 43.3613 25.1264 43.3613ZM27.8098 45.3096C27.8098 44.792 27.9107 44.3265 28.1125 43.9131C28.3176 43.4997 28.6008 43.1807 28.9621 42.9561C29.3267 42.7314 29.7417 42.6191 30.2072 42.6191C30.9266 42.6191 31.5077 42.8682 31.9504 43.3662C32.3964 43.8643 32.6193 44.5267 32.6193 45.3535V45.417C32.6193 45.9313 32.5201 46.3936 32.3215 46.8037C32.1262 47.2106 31.8446 47.528 31.4768 47.7559C31.1122 47.9837 30.6923 48.0977 30.217 48.0977C29.5008 48.0977 28.9198 47.8486 28.4738 47.3506C28.0311 46.8525 27.8098 46.1934 27.8098 45.373V45.3096ZM28.718 45.417C28.718 46.0029 28.8531 46.4733 29.1232 46.8281C29.3967 47.1829 29.7613 47.3604 30.217 47.3604C30.676 47.3604 31.0406 47.1813 31.3107 46.8232C31.5809 46.4619 31.716 45.9574 31.716 45.3096C31.716 44.7301 31.5777 44.2614 31.301 43.9033C31.0275 43.542 30.663 43.3613 30.2072 43.3613C29.7613 43.3613 29.4016 43.5387 29.1281 43.8936C28.8547 44.2484 28.718 44.7562 28.718 45.417ZM37.915 45.417C37.915 46.221 37.7311 46.8688 37.3633 47.3604C36.9954 47.8519 36.4974 48.0977 35.8691 48.0977C35.2279 48.0977 34.7233 47.8942 34.3555 47.4873V50.0312H33.4521V42.7168H34.2773L34.3213 43.3027C34.6891 42.847 35.2002 42.6191 35.8545 42.6191C36.4893 42.6191 36.9906 42.8584 37.3584 43.3369C37.7295 43.8154 37.915 44.4811 37.915 45.334V45.417ZM37.0117 45.3145C37.0117 44.7188 36.8848 44.2484 36.6309 43.9033C36.377 43.5583 36.0286 43.3857 35.5859 43.3857C35.0391 43.3857 34.6289 43.6283 34.3555 44.1133V46.6377C34.6257 47.1195 35.0391 47.3604 35.5957 47.3604C36.0286 47.3604 36.3721 47.1895 36.626 46.8477C36.8831 46.5026 37.0117 45.9915 37.0117 45.3145ZM38.5281 45.3096C38.5281 44.792 38.629 44.3265 38.8309 43.9131C39.0359 43.4997 39.3191 43.1807 39.6805 42.9561C40.0451 42.7314 40.4601 42.6191 40.9256 42.6191C41.645 42.6191 42.226 42.8682 42.6688 43.3662C43.1147 43.8643 43.3377 44.5267 43.3377 45.3535V45.417C43.3377 45.9313 43.2384 46.3936 43.0398 46.8037C42.8445 47.2106 42.563 47.528 42.1951 47.7559C41.8305 47.9837 41.4106 48.0977 40.9354 48.0977C40.2192 48.0977 39.6382 47.8486 39.1922 47.3506C38.7495 46.8525 38.5281 46.1934 38.5281 45.373V45.3096ZM39.4363 45.417C39.4363 46.0029 39.5714 46.4733 39.8416 46.8281C40.115 47.1829 40.4796 47.3604 40.9354 47.3604C41.3943 47.3604 41.7589 47.1813 42.0291 46.8232C42.2993 46.4619 42.4344 45.9574 42.4344 45.3096C42.4344 44.7301 42.296 44.2614 42.0193 43.9033C41.7459 43.542 41.3813 43.3613 40.9256 43.3613C40.4796 43.3613 40.1199 43.5387 39.8465 43.8936C39.573 44.2484 39.4363 44.7562 39.4363 45.417ZM46.7242 43.5273C46.5875 43.5046 46.4394 43.4932 46.2799 43.4932C45.6874 43.4932 45.2854 43.7454 45.0738 44.25V48H44.1705V42.7168H45.0494L45.0641 43.3271C45.3603 42.8551 45.7802 42.6191 46.3238 42.6191C46.4996 42.6191 46.6331 42.6419 46.7242 42.6875V43.5273ZM46.9223 45.3096C46.9223 44.792 47.0232 44.3265 47.225 43.9131C47.4301 43.4997 47.7133 43.1807 48.0746 42.9561C48.4392 42.7314 48.8542 42.6191 49.3197 42.6191C50.0391 42.6191 50.6202 42.8682 51.0629 43.3662C51.5089 43.8643 51.7318 44.5267 51.7318 45.3535V45.417C51.7318 45.9313 51.6326 46.3936 51.434 46.8037C51.2387 47.2106 50.9571 47.528 50.5893 47.7559C50.2247 47.9837 49.8048 48.0977 49.3295 48.0977C48.6133 48.0977 48.0323 47.8486 47.5863 47.3506C47.1436 46.8525 46.9223 46.1934 46.9223 45.373V45.3096ZM47.8305 45.417C47.8305 46.0029 47.9656 46.4733 48.2357 46.8281C48.5092 47.1829 48.8738 47.3604 49.3295 47.3604C49.7885 47.3604 50.1531 47.1813 50.4232 46.8232C50.6934 46.4619 50.8285 45.9574 50.8285 45.3096C50.8285 44.7301 50.6902 44.2614 50.4135 43.9033C50.14 43.542 49.7755 43.3613 49.3197 43.3613C48.8738 43.3613 48.5141 43.5387 48.2406 43.8936C47.9672 44.2484 47.8305 44.7562 47.8305 45.417ZM55.6408 46.5986C55.6408 46.3545 55.548 46.1657 55.3625 46.0322C55.1802 45.8955 54.8596 45.7783 54.4006 45.6807C53.9449 45.583 53.5819 45.4658 53.3117 45.3291C53.0448 45.1924 52.8462 45.0296 52.716 44.8408C52.5891 44.652 52.5256 44.4274 52.5256 44.167C52.5256 43.734 52.7079 43.3678 53.0725 43.0684C53.4403 42.7689 53.909 42.6191 54.4787 42.6191C55.0777 42.6191 55.5627 42.7738 55.9338 43.083C56.3081 43.3923 56.4953 43.7878 56.4953 44.2695H55.5871C55.5871 44.0221 55.4813 43.8089 55.2697 43.6299C55.0614 43.4508 54.7977 43.3613 54.4787 43.3613C54.1499 43.3613 53.8928 43.4329 53.7072 43.5762C53.5217 43.7194 53.4289 43.9066 53.4289 44.1377C53.4289 44.3558 53.5152 44.5202 53.6877 44.6309C53.8602 44.7415 54.1711 44.8473 54.6203 44.9482C55.0728 45.0492 55.439 45.1696 55.7189 45.3096C55.9989 45.4495 56.2056 45.6188 56.3391 45.8174C56.4758 46.0127 56.5441 46.252 56.5441 46.5352C56.5441 47.0072 56.3553 47.3864 55.9777 47.6729C55.6001 47.9561 55.1102 48.0977 54.508 48.0977C54.0848 48.0977 53.7105 48.0228 53.385 47.873C53.0594 47.7233 52.8039 47.515 52.6184 47.248C52.4361 46.9779 52.3449 46.6865 52.3449 46.374H53.2482C53.2645 46.6768 53.385 46.9176 53.6096 47.0967C53.8374 47.2725 54.1369 47.3604 54.508 47.3604C54.8498 47.3604 55.1232 47.292 55.3283 47.1553C55.5367 47.0153 55.6408 46.8298 55.6408 46.5986ZM59.6133 48.0977C58.8971 48.0977 58.3145 47.8633 57.8652 47.3945C57.416 46.9225 57.1914 46.2926 57.1914 45.5049V45.3389C57.1914 44.8148 57.2907 44.3477 57.4893 43.9375C57.6911 43.5241 57.971 43.2018 58.3291 42.9707C58.6904 42.7363 59.0811 42.6191 59.501 42.6191C60.1878 42.6191 60.7217 42.8454 61.1025 43.2979C61.4834 43.7503 61.6738 44.3981 61.6738 45.2412V45.6172H58.0947C58.1077 46.138 58.2591 46.5596 58.5488 46.8818C58.8418 47.2008 59.2129 47.3604 59.6621 47.3604C59.9811 47.3604 60.2513 47.2952 60.4727 47.165C60.694 47.0348 60.8877 46.8623 61.0537 46.6475L61.6055 47.0771C61.1628 47.7575 60.4987 48.0977 59.6133 48.0977ZM59.501 43.3613C59.1364 43.3613 58.8304 43.4948 58.583 43.7617C58.3356 44.0254 58.1826 44.3965 58.124 44.875H60.7705V44.8066C60.7445 44.3477 60.6208 43.9928 60.3994 43.7422C60.1781 43.4883 59.8786 43.3613 59.501 43.3613Z" fill="#666666"/>
<defs>
<filter id="filter0_d_7838:60147" x="0" y="0" width="70" height="38" filterUnits="userSpaceOnUse" color-interpolation-filters="sRGB">
<feFlood flood-opacity="0" result="BackgroundImageFix"/>
<feColorMatrix in="SourceAlpha" type="matrix" values="0 0 0 0 0 0 0 0 0 0 0 0 0 0 0 0 0 0 127 0" result="hardAlpha"/>
<feOffset dy="1"/>
<feGaussianBlur stdDeviation="1"/>
<feColorMatrix type="matrix" values="0 0 0 0 0 0 0 0 0 0 0 0 0 0 0 0 0 0 0.2 0"/>
<feBlend mode="normal" in2="BackgroundImageFix" result="effect1_dropShadow_7838:60147"/>
<feBlend mode="normal" in="SourceGraphic" in2="effect1_dropShadow_7838:60147" result="shape"/>
</filter>
</defs>
</svg>
