<svg width="66" height="61" viewBox="0 0 66 61" fill="none" xmlns="http://www.w3.org/2000/svg">
<g filter="url(#filter0_d_7838:60033)">
<rect x="2" y="1" width="62" height="30" rx="8" fill="#E7F3F9"/>
<path fill-rule="evenodd" clip-rule="evenodd" d="M29.0625 22.5608V22.5608C28.096 22.5608 27.3125 21.7773 27.3125 20.8108V13.3488C27.3123 13.0772 27.3756 12.8093 27.4974 12.5665L28.6711 10.2186C28.7452 10.0703 28.8967 9.97656 29.0625 9.97656C29.2283 9.97656 29.3798 10.0703 29.4539 10.2186L30.6276 12.5665C30.7494 12.8093 30.8127 13.0772 30.8125 13.3488V20.8108C30.8125 21.7773 30.029 22.5608 29.0625 22.5608Z" stroke="#007DC5" stroke-linecap="round" stroke-linejoin="round"/>
<path d="M27.3613 12.9375H30.7622" stroke="#007DC5" stroke-linecap="round" stroke-linejoin="round"/>
<path d="M27.3125 20.375H30.8125" stroke="#007DC5" stroke-linecap="round" stroke-linejoin="round"/>
<rect x="33.4375" y="9.4375" width="5.25" height="13.125" rx="1.5" stroke="#007DC5" stroke-linecap="round" stroke-linejoin="round"/>
<path d="M33.4375 12.0625H35.1875" stroke="#007DC5" stroke-linecap="round" stroke-linejoin="round"/>
<path d="M33.4375 14.6875H35.1875" stroke="#007DC5" stroke-linecap="round" stroke-linejoin="round"/>
<path d="M33.4375 17.3125H35.1875" stroke="#007DC5" stroke-linecap="round" stroke-linejoin="round"/>
<path d="M33.4375 19.9375H35.1875" stroke="#007DC5" stroke-linecap="round" stroke-linejoin="round"/>
</g>
<path d="M15.0936 41.2168V44H14.1561V36.8906H16.7781C17.5561 36.8906 18.1648 37.0892 18.6043 37.4863C19.047 37.8835 19.2684 38.4092 19.2684 39.0635C19.2684 39.7536 19.0519 40.2858 18.6189 40.6602C18.1893 41.0312 17.5724 41.2168 16.7684 41.2168H15.0936ZM15.0936 40.4502H16.7781C17.2794 40.4502 17.6635 40.333 17.9305 40.0986C18.1974 39.861 18.3309 39.5192 18.3309 39.0732C18.3309 38.6501 18.1974 38.3115 17.9305 38.0576C17.6635 37.8037 17.2973 37.6719 16.8318 37.6621H15.0936V40.4502ZM23.2262 44C23.1741 43.8958 23.1318 43.7103 23.0992 43.4434C22.6793 43.8796 22.178 44.0977 21.5953 44.0977C21.0745 44.0977 20.6464 43.9512 20.3111 43.6582C19.9791 43.362 19.8131 42.9876 19.8131 42.5352C19.8131 41.985 20.0214 41.5586 20.4381 41.2559C20.858 40.9499 21.4472 40.7969 22.2057 40.7969H23.0846V40.3818C23.0846 40.0661 22.9902 39.8154 22.8014 39.6299C22.6126 39.4411 22.3342 39.3467 21.9664 39.3467C21.6441 39.3467 21.374 39.4281 21.1559 39.5908C20.9378 39.7536 20.8287 39.9505 20.8287 40.1816H19.9205C19.9205 39.918 20.0133 39.6641 20.1988 39.4199C20.3876 39.1725 20.6415 38.9772 20.9605 38.834C21.2828 38.6908 21.636 38.6191 22.0201 38.6191C22.6288 38.6191 23.1057 38.7721 23.4508 39.0781C23.7958 39.3809 23.9749 39.7992 23.9879 40.333V42.7646C23.9879 43.2497 24.0497 43.6354 24.1734 43.9219V44H23.2262ZM21.7271 43.3115C22.0104 43.3115 22.2789 43.2383 22.5328 43.0918C22.7867 42.9453 22.9706 42.7549 23.0846 42.5205V41.4365H22.3766C21.2698 41.4365 20.7164 41.7604 20.7164 42.4082C20.7164 42.6914 20.8108 42.9128 20.9996 43.0723C21.1884 43.2318 21.4309 43.3115 21.7271 43.3115ZM29.5668 41.417C29.5668 42.221 29.3829 42.8688 29.015 43.3604C28.6472 43.8519 28.1492 44.0977 27.5209 44.0977C26.8796 44.0977 26.3751 43.8942 26.0072 43.4873V46.0312H25.1039V38.7168H25.9291L25.973 39.3027C26.3409 38.847 26.852 38.6191 27.5063 38.6191C28.141 38.6191 28.6423 38.8584 29.0102 39.3369C29.3813 39.8154 29.5668 40.4811 29.5668 41.334V41.417ZM28.6635 41.3145C28.6635 40.7188 28.5365 40.2484 28.2826 39.9033C28.0287 39.5583 27.6804 39.3857 27.2377 39.3857C26.6908 39.3857 26.2807 39.6283 26.0072 40.1133V42.6377C26.2774 43.1195 26.6908 43.3604 27.2475 43.3604C27.6804 43.3604 28.0238 43.1895 28.2777 42.8477C28.5349 42.5026 28.6635 41.9915 28.6635 41.3145ZM32.6115 44.0977C31.8954 44.0977 31.3127 43.8633 30.8635 43.3945C30.4143 42.9225 30.1897 42.2926 30.1897 41.5049V41.3389C30.1897 40.8148 30.2889 40.3477 30.4875 39.9375C30.6893 39.5241 30.9693 39.2018 31.3273 38.9707C31.6887 38.7363 32.0793 38.6191 32.4992 38.6191C33.1861 38.6191 33.7199 38.8454 34.1008 39.2979C34.4816 39.7503 34.6721 40.3981 34.6721 41.2412V41.6172H31.093C31.106 42.138 31.2574 42.5596 31.5471 42.8818C31.84 43.2008 32.2111 43.3604 32.6604 43.3604C32.9794 43.3604 33.2495 43.2952 33.4709 43.165C33.6923 43.0348 33.8859 42.8623 34.052 42.6475L34.6037 43.0771C34.161 43.7575 33.4969 44.0977 32.6115 44.0977ZM32.4992 39.3613C32.1346 39.3613 31.8286 39.4948 31.5813 39.7617C31.3339 40.0254 31.1809 40.3965 31.1223 40.875H33.7688V40.8066C33.7427 40.3477 33.619 39.9928 33.3977 39.7422C33.1763 39.4883 32.8768 39.3613 32.4992 39.3613ZM36.4033 44H35.5V36.5H36.4033V44ZM40.8152 44C40.7632 43.8958 40.7208 43.7103 40.6883 43.4434C40.2684 43.8796 39.7671 44.0977 39.1844 44.0977C38.6635 44.0977 38.2355 43.9512 37.9002 43.6582C37.5682 43.362 37.4021 42.9876 37.4021 42.5352C37.4021 41.985 37.6105 41.5586 38.0271 41.2559C38.4471 40.9499 39.0363 40.7969 39.7947 40.7969H40.6736V40.3818C40.6736 40.0661 40.5792 39.8154 40.3904 39.6299C40.2016 39.4411 39.9233 39.3467 39.5555 39.3467C39.2332 39.3467 38.963 39.4281 38.7449 39.5908C38.5268 39.7536 38.4178 39.9505 38.4178 40.1816H37.5096C37.5096 39.918 37.6023 39.6641 37.7879 39.4199C37.9767 39.1725 38.2306 38.9772 38.5496 38.834C38.8719 38.6908 39.2251 38.6191 39.6092 38.6191C40.2179 38.6191 40.6948 38.7721 41.0398 39.0781C41.3849 39.3809 41.5639 39.7992 41.577 40.333V42.7646C41.577 43.2497 41.6388 43.6354 41.7625 43.9219V44H40.8152ZM39.3162 43.3115C39.5994 43.3115 39.868 43.2383 40.1219 43.0918C40.3758 42.9453 40.5597 42.7549 40.6736 42.5205V41.4365H39.9656C38.8589 41.4365 38.3055 41.7604 38.3055 42.4082C38.3055 42.6914 38.3999 42.9128 38.5887 43.0723C38.7775 43.2318 39.02 43.3115 39.3162 43.3115ZM45.2467 39.5273C45.11 39.5046 44.9619 39.4932 44.8023 39.4932C44.2099 39.4932 43.8079 39.7454 43.5963 40.25V44H42.693V38.7168H43.5719L43.5865 39.3271C43.8827 38.8551 44.3027 38.6191 44.8463 38.6191C45.0221 38.6191 45.1555 38.6419 45.2467 38.6875V39.5273ZM46.7631 44H45.8598V38.7168H46.7631V44ZM45.7865 37.3154C45.7865 37.1689 45.8305 37.0452 45.9184 36.9443C46.0095 36.8434 46.143 36.793 46.3187 36.793C46.4945 36.793 46.628 36.8434 46.7191 36.9443C46.8103 37.0452 46.8559 37.1689 46.8559 37.3154C46.8559 37.4619 46.8103 37.584 46.7191 37.6816C46.628 37.7793 46.4945 37.8281 46.3187 37.8281C46.143 37.8281 46.0095 37.7793 45.9184 37.6816C45.8305 37.584 45.7865 37.4619 45.7865 37.3154ZM51.175 44C51.1229 43.8958 51.0806 43.7103 51.048 43.4434C50.6281 43.8796 50.1268 44.0977 49.5441 44.0977C49.0233 44.0977 48.5952 43.9512 48.26 43.6582C47.9279 43.362 47.7619 42.9876 47.7619 42.5352C47.7619 41.985 47.9702 41.5586 48.3869 41.2559C48.8068 40.9499 49.396 40.7969 50.1545 40.7969H51.0334V40.3818C51.0334 40.0661 50.939 39.8154 50.7502 39.6299C50.5614 39.4411 50.2831 39.3467 49.9152 39.3467C49.593 39.3467 49.3228 39.4281 49.1047 39.5908C48.8866 39.7536 48.7775 39.9505 48.7775 40.1816H47.8693C47.8693 39.918 47.9621 39.6641 48.1477 39.4199C48.3365 39.1725 48.5904 38.9772 48.9094 38.834C49.2316 38.6908 49.5848 38.6191 49.9689 38.6191C50.5777 38.6191 51.0546 38.7721 51.3996 39.0781C51.7447 39.3809 51.9237 39.7992 51.9367 40.333V42.7646C51.9367 43.2497 51.9986 43.6354 52.1223 43.9219V44H51.175ZM49.676 43.3115C49.9592 43.3115 50.2277 43.2383 50.4816 43.0918C50.7355 42.9453 50.9195 42.7549 51.0334 42.5205V41.4365H50.3254C49.2186 41.4365 48.6652 41.7604 48.6652 42.4082C48.6652 42.6914 48.7596 42.9128 48.9484 43.0723C49.1372 43.2318 49.3798 43.3115 49.676 43.3115Z" fill="#666666"/>
<defs>
<filter id="filter0_d_7838:60033" x="0" y="0" width="66" height="34" filterUnits="userSpaceOnUse" color-interpolation-filters="sRGB">
<feFlood flood-opacity="0" result="BackgroundImageFix"/>
<feColorMatrix in="SourceAlpha" type="matrix" values="0 0 0 0 0 0 0 0 0 0 0 0 0 0 0 0 0 0 127 0" result="hardAlpha"/>
<feOffset dy="1"/>
<feGaussianBlur stdDeviation="1"/>
<feColorMatrix type="matrix" values="0 0 0 0 0 0 0 0 0 0 0 0 0 0 0 0 0 0 0.2 0"/>
<feBlend mode="normal" in2="BackgroundImageFix" result="effect1_dropShadow_7838:60033"/>
<feBlend mode="normal" in="SourceGraphic" in2="effect1_dropShadow_7838:60033" result="shape"/>
</filter>
</defs>
</svg>
