<svg width="66" height="61" viewBox="0 0 66 61" fill="none" xmlns="http://www.w3.org/2000/svg">
<g filter="url(#filter0_d_7838:60066)">
<rect x="2" y="1" width="62" height="30" rx="8" fill="#E7F3F9"/>
<circle cx="29.9434" cy="11.1875" r="1.75" stroke="#007DC5" stroke-linecap="round" stroke-linejoin="round"/>
<path fill-rule="evenodd" clip-rule="evenodd" d="M32.1309 16.0012C31.9764 15.4743 31.7338 14.9772 31.4134 14.5313L29.9434 16.0012L28.4734 14.5312C28.1534 14.9775 27.9108 15.4744 27.7559 16.0012L26.4434 19.9388H28.1934L28.6309 22.5637H31.2559L31.6934 19.9388H33.4434L32.1309 16.0012Z" stroke="#007DC5" stroke-linecap="round" stroke-linejoin="round"/>
<ellipse cx="34.7559" cy="15.125" rx="1.3125" ry="1.3125" stroke="#007DC5" stroke-linecap="round" stroke-linejoin="round"/>
<path d="M34.7552 17.3125C35.9633 17.3125 36.9427 18.2919 36.9427 19.5V19.9375H36.0677L35.6302 22.5625H33.8802L33.7344 21.6875" stroke="#007DC5" stroke-linecap="round" stroke-linejoin="round"/>
<path fill-rule="evenodd" clip-rule="evenodd" d="M39.2364 9.78155C39.0272 9.56185 38.7371 9.4375 38.4338 9.4375C38.1304 9.4375 37.8403 9.56185 37.6311 9.78155L36.9434 10.4926L36.2562 9.78155C36.047 9.56185 35.7569 9.4375 35.4535 9.4375C35.1502 9.4375 34.8601 9.56185 34.6509 9.78155C34.2075 10.2459 34.2075 10.9768 34.6509 11.4411L36.6995 13.5592C36.7632 13.626 36.8514 13.6638 36.9437 13.6638C37.0359 13.6638 37.1241 13.626 37.1878 13.5592L39.2364 11.4411C39.6792 10.9765 39.6792 10.2462 39.2364 9.78155V9.78155Z" stroke="#007DC5" stroke-linecap="round" stroke-linejoin="round"/>
</g>
<path d="M4.19102 41.2168V44H3.25352V36.8906H5.87559C6.65358 36.8906 7.2623 37.0892 7.70176 37.4863C8.14447 37.8835 8.36582 38.4092 8.36582 39.0635C8.36582 39.7536 8.14935 40.2858 7.71641 40.6602C7.28672 41.0312 6.66986 41.2168 5.86582 41.2168H4.19102ZM4.19102 40.4502H5.87559C6.37689 40.4502 6.761 40.333 7.02793 40.0986C7.29486 39.861 7.42832 39.5192 7.42832 39.0732C7.42832 38.6501 7.29486 38.3115 7.02793 38.0576C6.761 37.8037 6.39479 37.6719 5.9293 37.6621H4.19102V40.4502ZM12.3236 44C12.2715 43.8958 12.2292 43.7103 12.1967 43.4434C11.7768 43.8796 11.2755 44.0977 10.6928 44.0977C10.1719 44.0977 9.74388 43.9512 9.40859 43.6582C9.07656 43.362 8.91055 42.9876 8.91055 42.5352C8.91055 41.985 9.11888 41.5586 9.53555 41.2559C9.95547 40.9499 10.5447 40.7969 11.3031 40.7969H12.182V40.3818C12.182 40.0661 12.0876 39.8154 11.8988 39.6299C11.71 39.4411 11.4317 39.3467 11.0639 39.3467C10.7416 39.3467 10.4714 39.4281 10.2533 39.5908C10.0352 39.7536 9.92617 39.9505 9.92617 40.1816H9.01797C9.01797 39.918 9.11074 39.6641 9.29629 39.4199C9.48509 39.1725 9.739 38.9772 10.058 38.834C10.3803 38.6908 10.7335 38.6191 11.1176 38.6191C11.7263 38.6191 12.2032 38.7721 12.5482 39.0781C12.8933 39.3809 13.0723 39.7992 13.0854 40.333V42.7646C13.0854 43.2497 13.1472 43.6354 13.2709 43.9219V44H12.3236ZM10.8246 43.3115C11.1078 43.3115 11.3764 43.2383 11.6303 43.0918C11.8842 42.9453 12.0681 42.7549 12.182 42.5205V41.4365H11.474C10.3673 41.4365 9.81387 41.7604 9.81387 42.4082C9.81387 42.6914 9.90827 42.9128 10.0971 43.0723C10.2859 43.2318 10.5284 43.3115 10.8246 43.3115ZM16.7551 39.5273C16.6184 39.5046 16.4702 39.4932 16.3107 39.4932C15.7183 39.4932 15.3163 39.7454 15.1047 40.25V44H14.2014V38.7168H15.0803L15.0949 39.3271C15.3911 38.8551 15.8111 38.6191 16.3547 38.6191C16.5305 38.6191 16.6639 38.6419 16.7551 38.6875V39.5273ZM20.3564 44C20.3044 43.8958 20.262 43.7103 20.2295 43.4434C19.8096 43.8796 19.3083 44.0977 18.7256 44.0977C18.2048 44.0977 17.7767 43.9512 17.4414 43.6582C17.1094 43.362 16.9434 42.9876 16.9434 42.5352C16.9434 41.985 17.1517 41.5586 17.5684 41.2559C17.9883 40.9499 18.5775 40.7969 19.3359 40.7969H20.2148V40.3818C20.2148 40.0661 20.1204 39.8154 19.9316 39.6299C19.7428 39.4411 19.4645 39.3467 19.0967 39.3467C18.7744 39.3467 18.5042 39.4281 18.2861 39.5908C18.068 39.7536 17.959 39.9505 17.959 40.1816H17.0508C17.0508 39.918 17.1436 39.6641 17.3291 39.4199C17.5179 39.1725 17.7718 38.9772 18.0908 38.834C18.4131 38.6908 18.7663 38.6191 19.1504 38.6191C19.7591 38.6191 20.236 38.7721 20.5811 39.0781C20.9261 39.3809 21.1051 39.7992 21.1182 40.333V42.7646C21.1182 43.2497 21.18 43.6354 21.3037 43.9219V44H20.3564ZM18.8574 43.3115C19.1406 43.3115 19.4092 43.2383 19.6631 43.0918C19.917 42.9453 20.1009 42.7549 20.2148 42.5205V41.4365H19.5068C18.4001 41.4365 17.8467 41.7604 17.8467 42.4082C17.8467 42.6914 17.9411 42.9128 18.1299 43.0723C18.3187 43.2318 18.5612 43.3115 18.8574 43.3115ZM27.6764 44C27.6243 43.8958 27.582 43.7103 27.5494 43.4434C27.1295 43.8796 26.6282 44.0977 26.0455 44.0977C25.5247 44.0977 25.0966 43.9512 24.7613 43.6582C24.4293 43.362 24.2633 42.9876 24.2633 42.5352C24.2633 41.985 24.4716 41.5586 24.8883 41.2559C25.3082 40.9499 25.8974 40.7969 26.6559 40.7969H27.5348V40.3818C27.5348 40.0661 27.4404 39.8154 27.2516 39.6299C27.0628 39.4411 26.7844 39.3467 26.4166 39.3467C26.0943 39.3467 25.8242 39.4281 25.6061 39.5908C25.388 39.7536 25.2789 39.9505 25.2789 40.1816H24.3707C24.3707 39.918 24.4635 39.6641 24.649 39.4199C24.8378 39.1725 25.0917 38.9772 25.4107 38.834C25.733 38.6908 26.0862 38.6191 26.4703 38.6191C27.079 38.6191 27.5559 38.7721 27.901 39.0781C28.246 39.3809 28.4251 39.7992 28.4381 40.333V42.7646C28.4381 43.2497 28.4999 43.6354 28.6236 43.9219V44H27.6764ZM26.1773 43.3115C26.4605 43.3115 26.7291 43.2383 26.983 43.0918C27.2369 42.9453 27.4208 42.7549 27.5348 42.5205V41.4365H26.8268C25.72 41.4365 25.1666 41.7604 25.1666 42.4082C25.1666 42.6914 25.261 42.9128 25.4498 43.0723C25.6386 43.2318 25.8811 43.3115 26.1773 43.3115ZM32.5842 38.7168L32.6086 39.3027C32.996 38.847 33.5184 38.6191 34.176 38.6191C34.9149 38.6191 35.4178 38.9023 35.6848 39.4688C35.8605 39.2148 36.0884 39.0098 36.3684 38.8535C36.6516 38.6973 36.9852 38.6191 37.3693 38.6191C38.5282 38.6191 39.1174 39.2327 39.1369 40.46V44H38.2336V40.5137C38.2336 40.1361 38.1473 39.8545 37.9748 39.6689C37.8023 39.4801 37.5126 39.3857 37.1057 39.3857C36.7704 39.3857 36.4921 39.4867 36.2707 39.6885C36.0493 39.887 35.9208 40.1556 35.885 40.4941V44H34.9768V40.5381C34.9768 39.7699 34.6008 39.3857 33.8488 39.3857C33.2564 39.3857 32.8511 39.638 32.633 40.1426V44H31.7297V38.7168H32.5842ZM43.4658 44C43.4137 43.8958 43.3714 43.7103 43.3389 43.4434C42.9189 43.8796 42.4176 44.0977 41.835 44.0977C41.3141 44.0977 40.8861 43.9512 40.5508 43.6582C40.2188 43.362 40.0527 42.9876 40.0527 42.5352C40.0527 41.985 40.2611 41.5586 40.6777 41.2559C41.0977 40.9499 41.6868 40.7969 42.4453 40.7969H43.3242V40.3818C43.3242 40.0661 43.2298 39.8154 43.041 39.6299C42.8522 39.4411 42.5739 39.3467 42.2061 39.3467C41.8838 39.3467 41.6136 39.4281 41.3955 39.5908C41.1774 39.7536 41.0684 39.9505 41.0684 40.1816H40.1602C40.1602 39.918 40.2529 39.6641 40.4385 39.4199C40.6273 39.1725 40.8812 38.9772 41.2002 38.834C41.5225 38.6908 41.8757 38.6191 42.2598 38.6191C42.8685 38.6191 43.3454 38.7721 43.6904 39.0781C44.0355 39.3809 44.2145 39.7992 44.2275 40.333V42.7646C44.2275 43.2497 44.2894 43.6354 44.4131 43.9219V44H43.4658ZM41.9668 43.3115C42.25 43.3115 42.5186 43.2383 42.7725 43.0918C43.0264 42.9453 43.2103 42.7549 43.3242 42.5205V41.4365H42.6162C41.5094 41.4365 40.9561 41.7604 40.9561 42.4082C40.9561 42.6914 41.0505 42.9128 41.2393 43.0723C41.4281 43.2318 41.6706 43.3115 41.9668 43.3115ZM46.1932 38.7168L46.2176 39.3027C46.6049 38.847 47.1274 38.6191 47.785 38.6191C48.5239 38.6191 49.0268 38.9023 49.2937 39.4688C49.4695 39.2148 49.6974 39.0098 49.9773 38.8535C50.2605 38.6973 50.5942 38.6191 50.9783 38.6191C52.1372 38.6191 52.7264 39.2327 52.7459 40.46V44H51.8426V40.5137C51.8426 40.1361 51.7563 39.8545 51.5838 39.6689C51.4113 39.4801 51.1215 39.3857 50.7146 39.3857C50.3794 39.3857 50.101 39.4867 49.8797 39.6885C49.6583 39.887 49.5297 40.1556 49.4939 40.4941V44H48.5857V40.5381C48.5857 39.7699 48.2098 39.3857 47.4578 39.3857C46.8654 39.3857 46.4601 39.638 46.242 40.1426V44H45.3387V38.7168H46.1932ZM57.0748 44C57.0227 43.8958 56.9804 43.7103 56.9479 43.4434C56.5279 43.8796 56.0266 44.0977 55.4439 44.0977C54.9231 44.0977 54.4951 43.9512 54.1598 43.6582C53.8277 43.362 53.6617 42.9876 53.6617 42.5352C53.6617 41.985 53.8701 41.5586 54.2867 41.2559C54.7066 40.9499 55.2958 40.7969 56.0543 40.7969H56.9332V40.3818C56.9332 40.0661 56.8388 39.8154 56.65 39.6299C56.4612 39.4411 56.1829 39.3467 55.815 39.3467C55.4928 39.3467 55.2226 39.4281 55.0045 39.5908C54.7864 39.7536 54.6773 39.9505 54.6773 40.1816H53.7691C53.7691 39.918 53.8619 39.6641 54.0475 39.4199C54.2363 39.1725 54.4902 38.9772 54.8092 38.834C55.1314 38.6908 55.4846 38.6191 55.8688 38.6191C56.4775 38.6191 56.9544 38.7721 57.2994 39.0781C57.6445 39.3809 57.8235 39.7992 57.8365 40.333V42.7646C57.8365 43.2497 57.8984 43.6354 58.0221 43.9219V44H57.0748ZM55.5758 43.3115C55.859 43.3115 56.1275 43.2383 56.3814 43.0918C56.6354 42.9453 56.8193 42.7549 56.9332 42.5205V41.4365H56.2252C55.1184 41.4365 54.565 41.7604 54.565 42.4082C54.565 42.6914 54.6594 42.9128 54.8482 43.0723C55.037 43.2318 55.2796 43.3115 55.5758 43.3115ZM57.6998 36.6562C57.6998 37.0078 57.5989 37.2926 57.3971 37.5107C57.1985 37.7288 56.9495 37.8379 56.65 37.8379C56.5165 37.8379 56.401 37.8216 56.3033 37.7891C56.2057 37.7565 56.0771 37.6898 55.9176 37.5889C55.7613 37.488 55.6474 37.4277 55.5758 37.4082C55.5074 37.3854 55.4277 37.374 55.3365 37.374C55.2031 37.374 55.0891 37.4261 54.9947 37.5303C54.9003 37.6312 54.8531 37.7614 54.8531 37.9209L54.2477 37.8867C54.2477 37.5384 54.3453 37.2503 54.5406 37.0225C54.7392 36.7946 54.9898 36.6807 55.2926 36.6807C55.4065 36.6807 55.5091 36.6969 55.6002 36.7295C55.6913 36.762 55.815 36.8255 55.9713 36.9199C56.1275 37.0143 56.2464 37.0762 56.3277 37.1055C56.4124 37.1348 56.5051 37.1494 56.6061 37.1494C56.746 37.1494 56.8616 37.0941 56.9527 36.9834C57.0471 36.8727 57.0943 36.7441 57.0943 36.5977L57.6998 36.6562ZM61.1449 44.0977C60.4288 44.0977 59.8461 43.8633 59.3969 43.3945C58.9477 42.9225 58.723 42.2926 58.723 41.5049V41.3389C58.723 40.8148 58.8223 40.3477 59.0209 39.9375C59.2227 39.5241 59.5027 39.2018 59.8607 38.9707C60.2221 38.7363 60.6127 38.6191 61.0326 38.6191C61.7195 38.6191 62.2533 38.8454 62.6342 39.2979C63.015 39.7503 63.2055 40.3981 63.2055 41.2412V41.6172H59.6264C59.6394 42.138 59.7908 42.5596 60.0805 42.8818C60.3734 43.2008 60.7445 43.3604 61.1937 43.3604C61.5128 43.3604 61.7829 43.2952 62.0043 43.165C62.2256 43.0348 62.4193 42.8623 62.5854 42.6475L63.1371 43.0771C62.6944 43.7575 62.0303 44.0977 61.1449 44.0977ZM61.0326 39.3613C60.668 39.3613 60.362 39.4948 60.1146 39.7617C59.8673 40.0254 59.7143 40.3965 59.6557 40.875H62.3021V40.8066C62.2761 40.3477 62.1524 39.9928 61.9311 39.7422C61.7097 39.4883 61.4102 39.3613 61.0326 39.3613Z" fill="#666666"/>
<defs>
<filter id="filter0_d_7838:60066" x="0" y="0" width="66" height="34" filterUnits="userSpaceOnUse" color-interpolation-filters="sRGB">
<feFlood flood-opacity="0" result="BackgroundImageFix"/>
<feColorMatrix in="SourceAlpha" type="matrix" values="0 0 0 0 0 0 0 0 0 0 0 0 0 0 0 0 0 0 127 0" result="hardAlpha"/>
<feOffset dy="1"/>
<feGaussianBlur stdDeviation="1"/>
<feColorMatrix type="matrix" values="0 0 0 0 0 0 0 0 0 0 0 0 0 0 0 0 0 0 0.2 0"/>
<feBlend mode="normal" in2="BackgroundImageFix" result="effect1_dropShadow_7838:60066"/>
<feBlend mode="normal" in="SourceGraphic" in2="effect1_dropShadow_7838:60066" result="shape"/>
</filter>
</defs>
</svg>
