<svg width="66" height="61" viewBox="0 0 66 61" fill="none" xmlns="http://www.w3.org/2000/svg">
<g filter="url(#filter0_d_7838:59975)">
<rect x="2" y="1" width="62" height="30" rx="8" fill="#E7F3F9"/>
<circle cx="33" cy="17.5312" r="5.03125" stroke="#007DC5" stroke-linecap="round" stroke-linejoin="round"/>
<path d="M31.6875 12.6727V9.875H34.3125V12.6727" stroke="#007DC5" stroke-linecap="round" stroke-linejoin="round"/>
<path d="M31.6875 11.1875H30.8125" stroke="#007DC5" stroke-linecap="round" stroke-linejoin="round"/>
<ellipse cx="37.8125" cy="10.75" rx="1.75" ry="1.3125" stroke="#007DC5" stroke-linecap="round" stroke-linejoin="round"/>
<path d="M34.3125 10.75H36.0625" stroke="#007DC5" stroke-linecap="round" stroke-linejoin="round"/>
<path d="M28.625 10.3125L26.4375 9.875" stroke="#007DC5" stroke-linecap="round" stroke-linejoin="round"/>
<path d="M28.625 12.0625L26.4375 12.5" stroke="#007DC5" stroke-linecap="round" stroke-linejoin="round"/>
</g>
<path d="M10.6049 41.2168V44H9.66738V36.8906H12.2895C13.0674 36.8906 13.6762 37.0892 14.1156 37.4863C14.5583 37.8835 14.7797 38.4092 14.7797 39.0635C14.7797 39.7536 14.5632 40.2858 14.1303 40.6602C13.7006 41.0312 13.0837 41.2168 12.2797 41.2168H10.6049ZM10.6049 40.4502H12.2895C12.7908 40.4502 13.1749 40.333 13.4418 40.0986C13.7087 39.861 13.8422 39.5192 13.8422 39.0732C13.8422 38.6501 13.7087 38.3115 13.4418 38.0576C13.1749 37.8037 12.8087 37.6719 12.3432 37.6621H10.6049V40.4502ZM17.6584 44.0977C16.9423 44.0977 16.3596 43.8633 15.9104 43.3945C15.4611 42.9225 15.2365 42.2926 15.2365 41.5049V41.3389C15.2365 40.8148 15.3358 40.3477 15.5344 39.9375C15.7362 39.5241 16.0161 39.2018 16.3742 38.9707C16.7355 38.7363 17.1262 38.6191 17.5461 38.6191C18.2329 38.6191 18.7668 38.8454 19.1477 39.2979C19.5285 39.7503 19.7189 40.3981 19.7189 41.2412V41.6172H16.1398C16.1529 42.138 16.3042 42.5596 16.5939 42.8818C16.8869 43.2008 17.258 43.3604 17.7072 43.3604C18.0262 43.3604 18.2964 43.2952 18.5178 43.165C18.7391 43.0348 18.9328 42.8623 19.0988 42.6475L19.6506 43.0771C19.2079 43.7575 18.5438 44.0977 17.6584 44.0977ZM17.5461 39.3613C17.1815 39.3613 16.8755 39.4948 16.6281 39.7617C16.3807 40.0254 16.2277 40.3965 16.1691 40.875H18.8156V40.8066C18.7896 40.3477 18.6659 39.9928 18.4445 39.7422C18.2232 39.4883 17.9237 39.3613 17.5461 39.3613ZM23.0225 39.5273C22.8857 39.5046 22.7376 39.4932 22.5781 39.4932C21.9857 39.4932 21.5837 39.7454 21.3721 40.25V44H20.4688V38.7168H21.3477L21.3623 39.3271C21.6585 38.8551 22.0785 38.6191 22.6221 38.6191C22.7979 38.6191 22.9313 38.6419 23.0225 38.6875V39.5273ZM24.0799 44V39.415H23.2449V38.7168H24.0799V38.1748C24.0799 37.6084 24.2313 37.1706 24.534 36.8613C24.8367 36.5521 25.2648 36.3975 25.8182 36.3975C26.0265 36.3975 26.2332 36.4251 26.4383 36.4805L26.3895 37.2129C26.2365 37.1836 26.0737 37.1689 25.9012 37.1689C25.6082 37.1689 25.382 37.2552 25.2225 37.4277C25.063 37.597 24.9832 37.8411 24.9832 38.1602V38.7168H26.1111V39.415H24.9832V44H24.0799ZM30.0738 43.4775C29.7223 43.891 29.2063 44.0977 28.526 44.0977C27.9628 44.0977 27.5331 43.9349 27.2369 43.6094C26.9439 43.2806 26.7958 42.7956 26.7926 42.1543V38.7168H27.6959V42.1299C27.6959 42.9307 28.0214 43.3311 28.6725 43.3311C29.3626 43.3311 29.8215 43.0739 30.0494 42.5596V38.7168H30.9527V44H30.0934L30.0738 43.4775ZM32.8793 38.7168L32.9037 39.3027C33.2911 38.847 33.8135 38.6191 34.4711 38.6191C35.21 38.6191 35.713 38.9023 35.9799 39.4688C36.1557 39.2148 36.3835 39.0098 36.6635 38.8535C36.9467 38.6973 37.2803 38.6191 37.6645 38.6191C38.8233 38.6191 39.4125 39.2327 39.432 40.46V44H38.5287V40.5137C38.5287 40.1361 38.4424 39.8545 38.2699 39.6689C38.0974 39.4801 37.8077 39.3857 37.4008 39.3857C37.0655 39.3857 36.7872 39.4867 36.5658 39.6885C36.3445 39.887 36.2159 40.1556 36.1801 40.4941V44H35.2719V40.5381C35.2719 39.7699 34.8959 39.3857 34.1439 39.3857C33.5515 39.3857 33.1462 39.638 32.9281 40.1426V44H32.0248V38.7168H32.8793ZM42.6916 44.0977C41.9755 44.0977 41.3928 43.8633 40.9436 43.3945C40.4943 42.9225 40.2697 42.2926 40.2697 41.5049V41.3389C40.2697 40.8148 40.369 40.3477 40.5676 39.9375C40.7694 39.5241 41.0494 39.2018 41.4074 38.9707C41.7688 38.7363 42.1594 38.6191 42.5793 38.6191C43.2661 38.6191 43.8 38.8454 44.1809 39.2979C44.5617 39.7503 44.7522 40.3981 44.7522 41.2412V41.6172H41.173C41.1861 42.138 41.3374 42.5596 41.6272 42.8818C41.9201 43.2008 42.2912 43.3604 42.7404 43.3604C43.0594 43.3604 43.3296 43.2952 43.551 43.165C43.7723 43.0348 43.966 42.8623 44.132 42.6475L44.6838 43.0771C44.2411 43.7575 43.577 44.0977 42.6916 44.0977ZM42.5793 39.3613C42.2147 39.3613 41.9087 39.4948 41.6613 39.7617C41.4139 40.0254 41.2609 40.3965 41.2023 40.875H43.8488V40.8066C43.8228 40.3477 43.6991 39.9928 43.4777 39.7422C43.2564 39.4883 42.9569 39.3613 42.5793 39.3613ZM48.5781 42.5986C48.5781 42.3545 48.4854 42.1657 48.2998 42.0322C48.1175 41.8955 47.7969 41.7783 47.3379 41.6807C46.8822 41.583 46.5192 41.4658 46.249 41.3291C45.9821 41.1924 45.7835 41.0296 45.6533 40.8408C45.5264 40.652 45.4629 40.4274 45.4629 40.167C45.4629 39.734 45.6452 39.3678 46.0098 39.0684C46.3776 38.7689 46.8464 38.6191 47.416 38.6191C48.015 38.6191 48.5 38.7738 48.8711 39.083C49.2454 39.3923 49.4326 39.7878 49.4326 40.2695H48.5244C48.5244 40.0221 48.4186 39.8089 48.207 39.6299C47.9987 39.4508 47.735 39.3613 47.416 39.3613C47.0872 39.3613 46.8301 39.4329 46.6445 39.5762C46.459 39.7194 46.3662 39.9066 46.3662 40.1377C46.3662 40.3558 46.4525 40.5202 46.625 40.6309C46.7975 40.7415 47.1084 40.8473 47.5576 40.9482C48.0101 41.0492 48.3763 41.1696 48.6562 41.3096C48.9362 41.4495 49.1429 41.6188 49.2764 41.8174C49.4131 42.0127 49.4814 42.252 49.4814 42.5352C49.4814 43.0072 49.2926 43.3864 48.915 43.6729C48.5374 43.9561 48.0475 44.0977 47.4453 44.0977C47.0221 44.0977 46.6478 44.0228 46.3223 43.873C45.9967 43.7233 45.7412 43.515 45.5557 43.248C45.3734 42.9779 45.2822 42.6865 45.2822 42.374H46.1855C46.2018 42.6768 46.3223 42.9176 46.5469 43.0967C46.7747 43.2725 47.0742 43.3604 47.4453 43.3604C47.7871 43.3604 48.0605 43.292 48.2656 43.1553C48.474 43.0153 48.5781 42.8298 48.5781 42.5986ZM54.7311 44.0977C54.0149 44.0977 53.4322 43.8633 52.983 43.3945C52.5338 42.9225 52.3092 42.2926 52.3092 41.5049V41.3389C52.3092 40.8148 52.4085 40.3477 52.607 39.9375C52.8089 39.5241 53.0888 39.2018 53.4469 38.9707C53.8082 38.7363 54.1988 38.6191 54.6188 38.6191C55.3056 38.6191 55.8395 38.8454 56.2203 39.2979C56.6012 39.7503 56.7916 40.3981 56.7916 41.2412V41.6172H53.2125C53.2255 42.138 53.3769 42.5596 53.6666 42.8818C53.9596 43.2008 54.3307 43.3604 54.7799 43.3604C55.0989 43.3604 55.3691 43.2952 55.5904 43.165C55.8118 43.0348 56.0055 42.8623 56.1715 42.6475L56.7232 43.0771C56.2805 43.7575 55.6165 44.0977 54.7311 44.0977ZM54.6188 39.3613C54.2542 39.3613 53.9482 39.4948 53.7008 39.7617C53.4534 40.0254 53.3004 40.3965 53.2418 40.875H55.8883V40.8066C55.8622 40.3477 55.7385 39.9928 55.5172 39.7422C55.2958 39.4883 54.9964 39.3613 54.6188 39.3613ZM18.0441 55.3604C18.3664 55.3604 18.648 55.2627 18.8889 55.0674C19.1298 54.8721 19.2632 54.6279 19.2893 54.335H20.1437C20.1275 54.6377 20.0233 54.9258 19.8312 55.1992C19.6392 55.4727 19.382 55.6908 19.0598 55.8535C18.7408 56.0163 18.4022 56.0977 18.0441 56.0977C17.3247 56.0977 16.7518 55.8584 16.3254 55.3799C15.9022 54.8981 15.6906 54.2406 15.6906 53.4072V53.2559C15.6906 52.7415 15.785 52.2842 15.9738 51.8838C16.1626 51.4834 16.4328 51.1725 16.7844 50.9512C17.1392 50.7298 17.5575 50.6191 18.0393 50.6191C18.6317 50.6191 19.1232 50.7965 19.5139 51.1514C19.9077 51.5062 20.1177 51.9668 20.1437 52.5332H19.2893C19.2632 52.1914 19.133 51.9115 18.8986 51.6934C18.6675 51.472 18.3811 51.3613 18.0393 51.3613C17.5803 51.3613 17.2238 51.5273 16.9699 51.8594C16.7193 52.1882 16.5939 52.665 16.5939 53.29V53.4609C16.5939 54.0697 16.7193 54.5384 16.9699 54.8672C17.2206 55.196 17.5786 55.3604 18.0441 55.3604ZM20.6201 53.3096C20.6201 52.792 20.721 52.3265 20.9229 51.9131C21.1279 51.4997 21.4111 51.1807 21.7725 50.9561C22.137 50.7314 22.5521 50.6191 23.0176 50.6191C23.737 50.6191 24.318 50.8682 24.7607 51.3662C25.2067 51.8643 25.4297 52.5267 25.4297 53.3535V53.417C25.4297 53.9313 25.3304 54.3936 25.1318 54.8037C24.9365 55.2106 24.6549 55.528 24.2871 55.7559C23.9225 55.9837 23.5026 56.0977 23.0273 56.0977C22.3112 56.0977 21.7301 55.8486 21.2842 55.3506C20.8415 54.8525 20.6201 54.1934 20.6201 53.373V53.3096ZM21.5283 53.417C21.5283 54.0029 21.6634 54.4733 21.9336 54.8281C22.207 55.1829 22.5716 55.3604 23.0273 55.3604C23.4863 55.3604 23.8509 55.1813 24.1211 54.8232C24.3913 54.4619 24.5264 53.9574 24.5264 53.3096C24.5264 52.7301 24.388 52.2614 24.1113 51.9033C23.8379 51.542 23.4733 51.3613 23.0176 51.3613C22.5716 51.3613 22.2119 51.5387 21.9385 51.8936C21.665 52.2484 21.5283 52.7562 21.5283 53.417ZM27.2439 56H26.3406V48.5H27.2439V56ZM28.1549 53.3096C28.1549 52.792 28.2558 52.3265 28.4576 51.9131C28.6627 51.4997 28.9459 51.1807 29.3072 50.9561C29.6718 50.7314 30.0868 50.6191 30.5523 50.6191C31.2717 50.6191 31.8528 50.8682 32.2955 51.3662C32.7415 51.8643 32.9645 52.5267 32.9645 53.3535V53.417C32.9645 53.9313 32.8652 54.3936 32.6666 54.8037C32.4713 55.2106 32.1897 55.528 31.8219 55.7559C31.4573 55.9837 31.0374 56.0977 30.5621 56.0977C29.846 56.0977 29.2649 55.8486 28.8189 55.3506C28.3762 54.8525 28.1549 54.1934 28.1549 53.373V53.3096ZM29.0631 53.417C29.0631 54.0029 29.1982 54.4733 29.4684 54.8281C29.7418 55.1829 30.1064 55.3604 30.5621 55.3604C31.0211 55.3604 31.3857 55.1813 31.6559 54.8232C31.926 54.4619 32.0611 53.9574 32.0611 53.3096C32.0611 52.7301 31.9228 52.2614 31.6461 51.9033C31.3727 51.542 31.0081 51.3613 30.5523 51.3613C30.1064 51.3613 29.7467 51.5387 29.4732 51.8936C29.1998 52.2484 29.0631 52.7562 29.0631 53.417ZM31.9977 49.8379V49.8867H31.2506L30.5182 49.0566L29.7906 49.8867H29.0436V49.8281L30.2447 48.5H30.7916L31.9977 49.8379ZM34.6518 50.7168L34.6811 51.3809C35.0847 50.873 35.612 50.6191 36.2631 50.6191C37.3796 50.6191 37.9428 51.249 37.9525 52.5088V56H37.0492V52.5039C37.046 52.123 36.9581 51.8415 36.7855 51.6592C36.6163 51.4769 36.351 51.3857 35.9896 51.3857C35.6967 51.3857 35.4395 51.4639 35.2182 51.6201C34.9968 51.7764 34.8243 51.9814 34.7006 52.2354V56H33.7973V50.7168H34.6518ZM39.9963 56H39.093V50.7168H39.9963V56ZM39.0197 49.3154C39.0197 49.1689 39.0637 49.0452 39.1516 48.9443C39.2427 48.8434 39.3762 48.793 39.552 48.793C39.7277 48.793 39.8612 48.8434 39.9523 48.9443C40.0435 49.0452 40.0891 49.1689 40.0891 49.3154C40.0891 49.4619 40.0435 49.584 39.9523 49.6816C39.8612 49.7793 39.7277 49.8281 39.552 49.8281C39.3762 49.8281 39.2427 49.7793 39.1516 49.6816C39.0637 49.584 39.0197 49.4619 39.0197 49.3154ZM44.4082 56C44.3561 55.8958 44.3138 55.7103 44.2812 55.4434C43.8613 55.8796 43.36 56.0977 42.7773 56.0977C42.2565 56.0977 41.8285 55.9512 41.4932 55.6582C41.1611 55.362 40.9951 54.9876 40.9951 54.5352C40.9951 53.985 41.2035 53.5586 41.6201 53.2559C42.04 52.9499 42.6292 52.7969 43.3877 52.7969H44.2666V52.3818C44.2666 52.0661 44.1722 51.8154 43.9834 51.6299C43.7946 51.4411 43.5163 51.3467 43.1484 51.3467C42.8262 51.3467 42.556 51.4281 42.3379 51.5908C42.1198 51.7536 42.0107 51.9505 42.0107 52.1816H41.1025C41.1025 51.918 41.1953 51.6641 41.3809 51.4199C41.5697 51.1725 41.8236 50.9772 42.1426 50.834C42.4648 50.6908 42.818 50.6191 43.2021 50.6191C43.8109 50.6191 44.2878 50.7721 44.6328 51.0781C44.9779 51.3809 45.1569 51.7992 45.1699 52.333V54.7646C45.1699 55.2497 45.2318 55.6354 45.3555 55.9219V56H44.4082ZM42.9092 55.3115C43.1924 55.3115 43.4609 55.2383 43.7148 55.0918C43.9688 54.9453 44.1527 54.7549 44.2666 54.5205V53.4365H43.5586C42.4518 53.4365 41.8984 53.7604 41.8984 54.4082C41.8984 54.6914 41.9928 54.9128 42.1816 55.0723C42.3704 55.2318 42.613 55.3115 42.9092 55.3115ZM49.3621 54.5986C49.3621 54.3545 49.2693 54.1657 49.0838 54.0322C48.9015 53.8955 48.5809 53.7783 48.1219 53.6807C47.6661 53.583 47.3032 53.4658 47.033 53.3291C46.7661 53.1924 46.5675 53.0296 46.4373 52.8408C46.3103 52.652 46.2469 52.4274 46.2469 52.167C46.2469 51.734 46.4292 51.3678 46.7937 51.0684C47.1616 50.7689 47.6303 50.6191 48.2 50.6191C48.799 50.6191 49.284 50.7738 49.6551 51.083C50.0294 51.3923 50.2166 51.7878 50.2166 52.2695H49.3084C49.3084 52.0221 49.2026 51.8089 48.991 51.6299C48.7827 51.4508 48.519 51.3613 48.2 51.3613C47.8712 51.3613 47.6141 51.4329 47.4285 51.5762C47.243 51.7194 47.1502 51.9066 47.1502 52.1377C47.1502 52.3558 47.2365 52.5202 47.409 52.6309C47.5815 52.7415 47.8924 52.8473 48.3416 52.9482C48.7941 53.0492 49.1603 53.1696 49.4402 53.3096C49.7202 53.4495 49.9269 53.6188 50.0603 53.8174C50.1971 54.0127 50.2654 54.252 50.2654 54.5352C50.2654 55.0072 50.0766 55.3864 49.699 55.6729C49.3214 55.9561 48.8315 56.0977 48.2293 56.0977C47.8061 56.0977 47.4318 56.0228 47.1062 55.873C46.7807 55.7233 46.5252 55.515 46.3396 55.248C46.1574 54.9779 46.0662 54.6865 46.0662 54.374H46.9695C46.9858 54.6768 47.1062 54.9176 47.3309 55.0967C47.5587 55.2725 47.8582 55.3604 48.2293 55.3604C48.5711 55.3604 48.8445 55.292 49.0496 55.1553C49.2579 55.0153 49.3621 54.8298 49.3621 54.5986Z" fill="#666666"/>
<defs>
<filter id="filter0_d_7838:59975" x="0" y="0" width="66" height="34" filterUnits="userSpaceOnUse" color-interpolation-filters="sRGB">
<feFlood flood-opacity="0" result="BackgroundImageFix"/>
<feColorMatrix in="SourceAlpha" type="matrix" values="0 0 0 0 0 0 0 0 0 0 0 0 0 0 0 0 0 0 127 0" result="hardAlpha"/>
<feOffset dy="1"/>
<feGaussianBlur stdDeviation="1"/>
<feColorMatrix type="matrix" values="0 0 0 0 0 0 0 0 0 0 0 0 0 0 0 0 0 0 0.2 0"/>
<feBlend mode="normal" in2="BackgroundImageFix" result="effect1_dropShadow_7838:59975"/>
<feBlend mode="normal" in="SourceGraphic" in2="effect1_dropShadow_7838:59975" result="shape"/>
</filter>
</defs>
</svg>
