<svg width="70" height="65" viewBox="0 0 70 65" fill="none" xmlns="http://www.w3.org/2000/svg">
<g filter="url(#filter0_d_7838:60159)">
<rect x="2" y="1" width="66" height="34" rx="8" fill="#E7F3F9"/>
<path fill-rule="evenodd" clip-rule="evenodd" d="M32.7451 10.7786L42.2948 20.3291C43.1971 21.2131 43.5551 22.5135 43.2324 23.7347C42.9096 24.9559 41.9559 25.9096 40.7347 26.2324C39.5135 26.5551 38.2131 26.1971 37.3291 25.2948L27.7786 15.7451C26.4071 14.3736 26.4071 12.1501 27.7786 10.7786C29.1501 9.40713 31.3736 9.40713 32.7451 10.7786Z" stroke="#007DC5" stroke-linecap="round" stroke-linejoin="round"/>
<rect x="31.2168" y="19.1836" width="7.023" height="3.7815" transform="rotate(-45 31.2168 19.1836)" stroke="#007DC5" stroke-linecap="round" stroke-linejoin="round"/>
<path d="M37.8768 22.0084C37.824 21.9555 37.7524 21.9258 37.6776 21.9258C37.6029 21.9258 37.5313 21.9555 37.4785 22.0084" stroke="#007DC5" stroke-linecap="round" stroke-linejoin="round"/>
<path d="M37.877 22.4053C37.9866 22.2955 37.9866 22.1176 37.877 22.0078" stroke="#007DC5" stroke-linecap="round" stroke-linejoin="round"/>
<path d="M37.4746 22.4062C37.5848 22.5156 37.7626 22.5156 37.8729 22.4062" stroke="#007DC5" stroke-linecap="round" stroke-linejoin="round"/>
<path d="M37.4748 22.0078C37.3652 22.1176 37.3652 22.2955 37.4748 22.4053" stroke="#007DC5" stroke-linecap="round" stroke-linejoin="round"/>
<path d="M40.9327 22.0083C40.88 21.9555 40.8085 21.9258 40.7339 21.9258C40.6593 21.9258 40.5878 21.9555 40.5352 22.0083" stroke="#007DC5" stroke-linecap="round" stroke-linejoin="round"/>
<path d="M40.9316 22.4053C40.9845 22.3527 41.0142 22.2812 41.0142 22.2066C41.0142 22.132 40.9845 22.0604 40.9316 22.0078" stroke="#007DC5" stroke-linecap="round" stroke-linejoin="round"/>
<path d="M40.5352 22.4062C40.645 22.5159 40.8228 22.5159 40.9327 22.4062" stroke="#007DC5" stroke-linecap="round" stroke-linejoin="round"/>
<path d="M40.5337 22.0078C40.4809 22.0604 40.4512 22.132 40.4512 22.2066C40.4512 22.2812 40.4809 22.3527 40.5337 22.4053" stroke="#007DC5" stroke-linecap="round" stroke-linejoin="round"/>
<path d="M29.4717 13.6018C29.3619 13.4921 29.184 13.4921 29.0742 13.6018" stroke="#007DC5" stroke-linecap="round" stroke-linejoin="round"/>
<path d="M29.4727 13.9998C29.5256 13.947 29.5553 13.8754 29.5553 13.8007C29.5553 13.726 29.5256 13.6543 29.4727 13.6016" stroke="#007DC5" stroke-linecap="round" stroke-linejoin="round"/>
<path d="M29.0762 14C29.186 14.1097 29.3639 14.1097 29.4737 14" stroke="#007DC5" stroke-linecap="round" stroke-linejoin="round"/>
<path d="M29.0748 13.6016C29.0219 13.6543 28.9922 13.726 28.9922 13.8007C28.9922 13.8754 29.0219 13.947 29.0748 13.9998" stroke="#007DC5" stroke-linecap="round" stroke-linejoin="round"/>
<path d="M32.5245 13.6018C32.4146 13.4921 32.2368 13.4921 32.127 13.6018" stroke="#007DC5" stroke-linecap="round" stroke-linejoin="round"/>
<path d="M32.5254 13.9998C32.6347 13.8896 32.6347 13.7118 32.5254 13.6016" stroke="#007DC5" stroke-linecap="round" stroke-linejoin="round"/>
<path d="M32.1309 14C32.2407 14.1097 32.4186 14.1097 32.5284 14" stroke="#007DC5" stroke-linecap="round" stroke-linejoin="round"/>
<path d="M32.1315 13.6016C32.0786 13.6543 32.0488 13.726 32.0488 13.8007C32.0488 13.8754 32.0786 13.947 32.1315 13.9998" stroke="#007DC5" stroke-linecap="round" stroke-linejoin="round"/>
</g>
<path d="M16.7211 45.2168V48H15.7836V40.8906H18.4057C19.1837 40.8906 19.7924 41.0892 20.2318 41.4863C20.6745 41.8835 20.8959 42.4092 20.8959 43.0635C20.8959 43.7536 20.6794 44.2858 20.2465 44.6602C19.8168 45.0312 19.1999 45.2168 18.3959 45.2168H16.7211ZM16.7211 44.4502H18.4057C18.907 44.4502 19.2911 44.333 19.558 44.0986C19.8249 43.861 19.9584 43.5192 19.9584 43.0732C19.9584 42.6501 19.8249 42.3115 19.558 42.0576C19.2911 41.8037 18.9249 41.6719 18.4594 41.6621H16.7211V44.4502ZM24.2043 43.5273C24.0676 43.5046 23.9195 43.4932 23.76 43.4932C23.1675 43.4932 22.7655 43.7454 22.5539 44.25V48H21.6506V42.7168H22.5295L22.5441 43.3271C22.8404 42.8551 23.2603 42.6191 23.8039 42.6191C23.9797 42.6191 24.1132 42.6419 24.2043 42.6875V43.5273ZM25.7207 48H24.8174V42.7168H25.7207V48ZM24.7441 41.3154C24.7441 41.1689 24.7881 41.0452 24.876 40.9443C24.9671 40.8434 25.1006 40.793 25.2764 40.793C25.4521 40.793 25.5856 40.8434 25.6768 40.9443C25.7679 41.0452 25.8135 41.1689 25.8135 41.3154C25.8135 41.4619 25.7679 41.584 25.6768 41.6816C25.5856 41.7793 25.4521 41.8281 25.2764 41.8281C25.1006 41.8281 24.9671 41.7793 24.876 41.6816C24.7881 41.584 24.7441 41.4619 24.7441 41.3154ZM27.7205 42.7168L27.7449 43.3027C28.1323 42.847 28.6548 42.6191 29.3123 42.6191C30.0512 42.6191 30.5542 42.9023 30.8211 43.4688C30.9969 43.2148 31.2247 43.0098 31.5047 42.8535C31.7879 42.6973 32.1216 42.6191 32.5057 42.6191C33.6645 42.6191 34.2537 43.2327 34.2732 44.46V48H33.3699V44.5137C33.3699 44.1361 33.2837 43.8545 33.1111 43.6689C32.9386 43.4801 32.6489 43.3857 32.242 43.3857C31.9067 43.3857 31.6284 43.4867 31.407 43.6885C31.1857 43.887 31.0571 44.1556 31.0213 44.4941V48H30.1131V44.5381C30.1131 43.7699 29.7371 43.3857 28.9852 43.3857C28.3927 43.3857 27.9874 43.638 27.7693 44.1426V48H26.866V42.7168H27.7205ZM37.5328 48.0977C36.8167 48.0977 36.234 47.8633 35.7848 47.3945C35.3355 46.9225 35.1109 46.2926 35.1109 45.5049V45.3389C35.1109 44.8148 35.2102 44.3477 35.4088 43.9375C35.6106 43.5241 35.8906 43.2018 36.2486 42.9707C36.61 42.7363 37.0006 42.6191 37.4205 42.6191C38.1074 42.6191 38.6412 42.8454 39.0221 43.2979C39.4029 43.7503 39.5934 44.3981 39.5934 45.2412V45.6172H36.0143C36.0273 46.138 36.1786 46.5596 36.4684 46.8818C36.7613 47.2008 37.1324 47.3604 37.5816 47.3604C37.9007 47.3604 38.1708 47.2952 38.3922 47.165C38.6135 47.0348 38.8072 46.8623 38.9732 46.6475L39.525 47.0771C39.0823 47.7575 38.4182 48.0977 37.5328 48.0977ZM37.4205 43.3613C37.0559 43.3613 36.7499 43.4948 36.5025 43.7617C36.2551 44.0254 36.1021 44.3965 36.0436 44.875H38.69V44.8066C38.664 44.3477 38.5403 43.9928 38.3189 43.7422C38.0976 43.4883 37.7981 43.3613 37.4205 43.3613ZM41.3246 48H40.4213V42.7168H41.3246V48ZM40.348 41.3154C40.348 41.1689 40.392 41.0452 40.4799 40.9443C40.571 40.8434 40.7045 40.793 40.8803 40.793C41.0561 40.793 41.1895 40.8434 41.2807 40.9443C41.3718 41.0452 41.4174 41.1689 41.4174 41.3154C41.4174 41.4619 41.3718 41.584 41.2807 41.6816C41.1895 41.7793 41.0561 41.8281 40.8803 41.8281C40.7045 41.8281 40.571 41.7793 40.4799 41.6816C40.392 41.584 40.348 41.4619 40.348 41.3154ZM45.0285 43.5273C44.8918 43.5046 44.7437 43.4932 44.5842 43.4932C43.9917 43.4932 43.5897 43.7454 43.3781 44.25V48H42.4748V42.7168H43.3537L43.3684 43.3271C43.6646 42.8551 44.0845 42.6191 44.6281 42.6191C44.8039 42.6191 44.9374 42.6419 45.0285 42.6875V43.5273ZM45.2266 45.3096C45.2266 44.792 45.3275 44.3265 45.5293 43.9131C45.7344 43.4997 46.0176 43.1807 46.3789 42.9561C46.7435 42.7314 47.1585 42.6191 47.624 42.6191C48.3434 42.6191 48.9245 42.8682 49.3672 43.3662C49.8132 43.8643 50.0361 44.5267 50.0361 45.3535V45.417C50.0361 45.9313 49.9368 46.3936 49.7383 46.8037C49.543 47.2106 49.2614 47.528 48.8936 47.7559C48.529 47.9837 48.109 48.0977 47.6338 48.0977C46.9176 48.0977 46.3366 47.8486 45.8906 47.3506C45.4479 46.8525 45.2266 46.1934 45.2266 45.373V45.3096ZM46.1348 45.417C46.1348 46.0029 46.2699 46.4733 46.54 46.8281C46.8135 47.1829 47.1781 47.3604 47.6338 47.3604C48.0928 47.3604 48.4574 47.1813 48.7275 46.8232C48.9977 46.4619 49.1328 45.9574 49.1328 45.3096C49.1328 44.7301 48.9945 44.2614 48.7178 43.9033C48.4443 43.542 48.0798 43.3613 47.624 43.3613C47.1781 43.3613 46.8184 43.5387 46.5449 43.8936C46.2715 44.2484 46.1348 44.7562 46.1348 45.417ZM53.9451 46.5986C53.9451 46.3545 53.8523 46.1657 53.6668 46.0322C53.4845 45.8955 53.1639 45.7783 52.7049 45.6807C52.2492 45.583 51.8862 45.4658 51.616 45.3291C51.3491 45.1924 51.1505 45.0296 51.0203 44.8408C50.8934 44.652 50.8299 44.4274 50.8299 44.167C50.8299 43.734 51.0122 43.3678 51.3768 43.0684C51.7446 42.7689 52.2133 42.6191 52.783 42.6191C53.382 42.6191 53.867 42.7738 54.2381 43.083C54.6124 43.3923 54.7996 43.7878 54.7996 44.2695H53.8914C53.8914 44.0221 53.7856 43.8089 53.574 43.6299C53.3657 43.4508 53.102 43.3613 52.783 43.3613C52.4542 43.3613 52.1971 43.4329 52.0115 43.5762C51.826 43.7194 51.7332 43.9066 51.7332 44.1377C51.7332 44.3558 51.8195 44.5202 51.992 44.6309C52.1645 44.7415 52.4754 44.8473 52.9246 44.9482C53.3771 45.0492 53.7433 45.1696 54.0232 45.3096C54.3032 45.4495 54.5099 45.6188 54.6434 45.8174C54.7801 46.0127 54.8484 46.252 54.8484 46.5352C54.8484 47.0072 54.6596 47.3864 54.282 47.6729C53.9044 47.9561 53.4145 48.0977 52.8123 48.0977C52.3891 48.0977 52.0148 48.0228 51.6893 47.873C51.3637 47.7233 51.1082 47.515 50.9227 47.248C50.7404 46.9779 50.6492 46.6865 50.6492 46.374H51.5525C51.5688 46.6768 51.6893 46.9176 51.9139 47.0967C52.1417 47.2725 52.4412 47.3604 52.8123 47.3604C53.1541 47.3604 53.4275 47.292 53.6326 47.1553C53.8409 47.0153 53.9451 46.8298 53.9451 46.5986ZM20.1418 58.5986C20.1418 58.3545 20.049 58.1657 19.8635 58.0322C19.6812 57.8955 19.3605 57.7783 18.9016 57.6807C18.4458 57.583 18.0829 57.4658 17.8127 57.3291C17.5458 57.1924 17.3472 57.0296 17.217 56.8408C17.09 56.652 17.0266 56.4274 17.0266 56.167C17.0266 55.734 17.2089 55.3678 17.5734 55.0684C17.9413 54.7689 18.41 54.6191 18.9797 54.6191C19.5786 54.6191 20.0637 54.7738 20.4348 55.083C20.8091 55.3923 20.9963 55.7878 20.9963 56.2695H20.0881C20.0881 56.0221 19.9823 55.8089 19.7707 55.6299C19.5624 55.4508 19.2987 55.3613 18.9797 55.3613C18.6509 55.3613 18.3937 55.4329 18.2082 55.5762C18.0227 55.7194 17.9299 55.9066 17.9299 56.1377C17.9299 56.3558 18.0161 56.5202 18.1887 56.6309C18.3612 56.7415 18.6721 56.8473 19.1213 56.9482C19.5738 57.0492 19.94 57.1696 20.2199 57.3096C20.4999 57.4495 20.7066 57.6188 20.84 57.8174C20.9768 58.0127 21.0451 58.252 21.0451 58.5352C21.0451 59.0072 20.8563 59.3864 20.4787 59.6729C20.1011 59.9561 19.6112 60.0977 19.009 60.0977C18.5858 60.0977 18.2115 60.0228 17.8859 59.873C17.5604 59.7233 17.3049 59.515 17.1193 59.248C16.937 58.9779 16.8459 58.6865 16.8459 58.374H17.7492C17.7655 58.6768 17.8859 58.9176 18.1105 59.0967C18.3384 59.2725 18.6379 59.3604 19.009 59.3604C19.3508 59.3604 19.6242 59.292 19.8293 59.1553C20.0376 59.0153 20.1418 58.8298 20.1418 58.5986ZM21.6826 57.3096C21.6826 56.792 21.7835 56.3265 21.9854 55.9131C22.1904 55.4997 22.4736 55.1807 22.835 54.9561C23.1995 54.7314 23.6146 54.6191 24.0801 54.6191C24.7995 54.6191 25.3805 54.8682 25.8232 55.3662C26.2692 55.8643 26.4922 56.5267 26.4922 57.3535V57.417C26.4922 57.9313 26.3929 58.3936 26.1943 58.8037C25.999 59.2106 25.7174 59.528 25.3496 59.7559C24.985 59.9837 24.5651 60.0977 24.0898 60.0977C23.3737 60.0977 22.7926 59.8486 22.3467 59.3506C21.904 58.8525 21.6826 58.1934 21.6826 57.373V57.3096ZM22.5908 57.417C22.5908 58.0029 22.7259 58.4733 22.9961 58.8281C23.2695 59.1829 23.6341 59.3604 24.0898 59.3604C24.5488 59.3604 24.9134 59.1813 25.1836 58.8232C25.4538 58.4619 25.5889 57.9574 25.5889 57.3096C25.5889 56.7301 25.4505 56.2614 25.1738 55.9033C24.9004 55.542 24.5358 55.3613 24.0801 55.3613C23.6341 55.3613 23.2744 55.5387 23.001 55.8936C22.7275 56.2484 22.5908 56.7562 22.5908 57.417ZM29.4441 59.3604C29.7664 59.3604 30.048 59.2627 30.2889 59.0674C30.5298 58.8721 30.6632 58.6279 30.6893 58.335H31.5437C31.5275 58.6377 31.4233 58.9258 31.2312 59.1992C31.0392 59.4727 30.782 59.6908 30.4598 59.8535C30.1408 60.0163 29.8022 60.0977 29.4441 60.0977C28.7247 60.0977 28.1518 59.8584 27.7254 59.3799C27.3022 58.8981 27.0906 58.2406 27.0906 57.4072V57.2559C27.0906 56.7415 27.185 56.2842 27.3738 55.8838C27.5626 55.4834 27.8328 55.1725 28.1844 54.9512C28.5392 54.7298 28.9575 54.6191 29.4393 54.6191C30.0317 54.6191 30.5232 54.7965 30.9139 55.1514C31.3077 55.5062 31.5177 55.9668 31.5437 56.5332H30.6893C30.6632 56.1914 30.533 55.9115 30.2986 55.6934C30.0675 55.472 29.7811 55.3613 29.4393 55.3613C28.9803 55.3613 28.6238 55.5273 28.3699 55.8594C28.1193 56.1882 27.9939 56.665 27.9939 57.29V57.4609C27.9939 58.0697 28.1193 58.5384 28.3699 58.8672C28.6206 59.196 28.9786 59.3604 29.4441 59.3604ZM32.0201 57.3096C32.0201 56.792 32.121 56.3265 32.3229 55.9131C32.5279 55.4997 32.8111 55.1807 33.1725 54.9561C33.537 54.7314 33.9521 54.6191 34.4176 54.6191C35.137 54.6191 35.718 54.8682 36.1607 55.3662C36.6067 55.8643 36.8297 56.5267 36.8297 57.3535V57.417C36.8297 57.9313 36.7304 58.3936 36.5318 58.8037C36.3365 59.2106 36.0549 59.528 35.6871 59.7559C35.3225 59.9837 34.9026 60.0977 34.4273 60.0977C33.7112 60.0977 33.1301 59.8486 32.6842 59.3506C32.2415 58.8525 32.0201 58.1934 32.0201 57.373V57.3096ZM32.9283 57.417C32.9283 58.0029 33.0634 58.4733 33.3336 58.8281C33.607 59.1829 33.9716 59.3604 34.4273 59.3604C34.8863 59.3604 35.2509 59.1813 35.5211 58.8232C35.7913 58.4619 35.9264 57.9574 35.9264 57.3096C35.9264 56.7301 35.788 56.2614 35.5113 55.9033C35.2379 55.542 34.8733 55.3613 34.4176 55.3613C33.9716 55.3613 33.6119 55.5387 33.3385 55.8936C33.065 56.2484 32.9283 56.7562 32.9283 57.417ZM40.2162 55.5273C40.0795 55.5046 39.9314 55.4932 39.7719 55.4932C39.1794 55.4932 38.7774 55.7454 38.5658 56.25V60H37.6625V54.7168H38.5414L38.5561 55.3271C38.8523 54.8551 39.2722 54.6191 39.8158 54.6191C39.9916 54.6191 40.1251 54.6419 40.2162 54.6875V55.5273ZM43.3049 55.5273C43.1682 55.5046 43.0201 55.4932 42.8605 55.4932C42.2681 55.4932 41.8661 55.7454 41.6545 56.25V60H40.7512V54.7168H41.6301L41.6447 55.3271C41.9409 54.8551 42.3609 54.6191 42.9045 54.6191C43.0803 54.6191 43.2137 54.6419 43.3049 54.6875V55.5273ZM43.5029 57.3096C43.5029 56.792 43.6038 56.3265 43.8057 55.9131C44.0107 55.4997 44.2939 55.1807 44.6553 54.9561C45.0199 54.7314 45.4349 54.6191 45.9004 54.6191C46.6198 54.6191 47.2008 54.8682 47.6436 55.3662C48.0895 55.8643 48.3125 56.5267 48.3125 57.3535V57.417C48.3125 57.9313 48.2132 58.3936 48.0146 58.8037C47.8193 59.2106 47.5378 59.528 47.1699 59.7559C46.8053 59.9837 46.3854 60.0977 45.9102 60.0977C45.194 60.0977 44.613 59.8486 44.167 59.3506C43.7243 58.8525 43.5029 58.1934 43.5029 57.373V57.3096ZM44.4111 57.417C44.4111 58.0029 44.5462 58.4733 44.8164 58.8281C45.0898 59.1829 45.4544 59.3604 45.9102 59.3604C46.3691 59.3604 46.7337 59.1813 47.0039 58.8232C47.2741 58.4619 47.4092 57.9574 47.4092 57.3096C47.4092 56.7301 47.2708 56.2614 46.9941 55.9033C46.7207 55.542 46.3561 55.3613 45.9004 55.3613C45.4544 55.3613 45.0947 55.5387 44.8213 55.8936C44.5479 56.2484 44.4111 56.7562 44.4111 57.417ZM52.2215 58.5986C52.2215 58.3545 52.1287 58.1657 51.9432 58.0322C51.7609 57.8955 51.4402 57.7783 50.9813 57.6807C50.5255 57.583 50.1626 57.4658 49.8924 57.3291C49.6255 57.1924 49.4269 57.0296 49.2967 56.8408C49.1697 56.652 49.1063 56.4274 49.1063 56.167C49.1063 55.734 49.2885 55.3678 49.6531 55.0684C50.021 54.7689 50.4897 54.6191 51.0594 54.6191C51.6583 54.6191 52.1434 54.7738 52.5145 55.083C52.8888 55.3923 53.076 55.7878 53.076 56.2695H52.1678C52.1678 56.0221 52.062 55.8089 51.8504 55.6299C51.6421 55.4508 51.3784 55.3613 51.0594 55.3613C50.7306 55.3613 50.4734 55.4329 50.2879 55.5762C50.1023 55.7194 50.0096 55.9066 50.0096 56.1377C50.0096 56.3558 50.0958 56.5202 50.2684 56.6309C50.4409 56.7415 50.7518 56.8473 51.201 56.9482C51.6535 57.0492 52.0197 57.1696 52.2996 57.3096C52.5796 57.4495 52.7863 57.6188 52.9197 57.8174C53.0564 58.0127 53.1248 58.252 53.1248 58.5352C53.1248 59.0072 52.936 59.3864 52.5584 59.6729C52.1808 59.9561 51.6909 60.0977 51.0887 60.0977C50.6655 60.0977 50.2911 60.0228 49.9656 59.873C49.6401 59.7233 49.3846 59.515 49.199 59.248C49.0167 58.9779 48.9256 58.6865 48.9256 58.374H49.8289C49.8452 58.6768 49.9656 58.9176 50.1902 59.0967C50.4181 59.2725 50.7176 59.3604 51.0887 59.3604C51.4305 59.3604 51.7039 59.292 51.909 59.1553C52.1173 59.0153 52.2215 58.8298 52.2215 58.5986Z" fill="#666666"/>
<defs>
<filter id="filter0_d_7838:60159" x="0" y="0" width="70" height="38" filterUnits="userSpaceOnUse" color-interpolation-filters="sRGB">
<feFlood flood-opacity="0" result="BackgroundImageFix"/>
<feColorMatrix in="SourceAlpha" type="matrix" values="0 0 0 0 0 0 0 0 0 0 0 0 0 0 0 0 0 0 127 0" result="hardAlpha"/>
<feOffset dy="1"/>
<feGaussianBlur stdDeviation="1"/>
<feColorMatrix type="matrix" values="0 0 0 0 0 0 0 0 0 0 0 0 0 0 0 0 0 0 0.2 0"/>
<feBlend mode="normal" in2="BackgroundImageFix" result="effect1_dropShadow_7838:60159"/>
<feBlend mode="normal" in="SourceGraphic" in2="effect1_dropShadow_7838:60159" result="shape"/>
</filter>
</defs>
</svg>
