<svg width="66" height="61" viewBox="0 0 66 61" fill="none" xmlns="http://www.w3.org/2000/svg">
<g filter="url(#filter0_d_7838:59926)">
<rect x="2" y="1" width="62" height="30" rx="8" fill="#E7F3F9"/>
<path fill-rule="evenodd" clip-rule="evenodd" d="M31.688 20.8125H28.188C27.287 17.2317 26.7014 13.579 26.438 9.896C26.4324 9.77642 26.476 9.65976 26.5586 9.57315C26.6413 9.48655 26.7558 9.43753 26.8755 9.4375H33.0005C33.12 9.43785 33.2343 9.48699 33.3167 9.57355C33.3992 9.6601 33.4428 9.77656 33.4374 9.896C33.1741 13.5789 32.5887 17.2317 31.688 20.8125V20.8125Z" stroke="#007DC5" stroke-linecap="round" stroke-linejoin="round"/>
<path d="M31.6875 20.8125V22.125C31.6875 22.3666 31.4916 22.5625 31.25 22.5625H28.625C28.3834 22.5625 28.1875 22.3666 28.1875 22.125V20.8125" stroke="#007DC5" stroke-linecap="round" stroke-linejoin="round"/>
<path d="M26.7109 12.9375H33.1644" stroke="#007DC5" stroke-linecap="round" stroke-linejoin="round"/>
<path d="M27.1777 16H32.6972" stroke="#007DC5" stroke-linecap="round" stroke-linejoin="round"/>
<path d="M35.1875 11.625C36.0762 11.6267 36.8756 12.1659 37.21 12.9892C37.5445 13.8126 37.3476 14.7565 36.7118 15.3774C36.076 15.9984 35.1277 16.173 34.3125 15.8192" stroke="#007DC5" stroke-linecap="round" stroke-linejoin="round"/>
<path d="M35.1875 9.4375V10.3125" stroke="#007DC5" stroke-linecap="round" stroke-linejoin="round"/>
<path d="M38.2804 10.7188L37.6621 11.3371" stroke="#007DC5" stroke-linecap="round" stroke-linejoin="round"/>
<path d="M39.5625 13.8125H38.6875" stroke="#007DC5" stroke-linecap="round" stroke-linejoin="round"/>
<path d="M38.2804 16.9074L37.6621 16.2891" stroke="#007DC5" stroke-linecap="round" stroke-linejoin="round"/>
<path d="M35.1875 18.1875V17.3125" stroke="#007DC5" stroke-linecap="round" stroke-linejoin="round"/>
</g>
<path d="M4.28594 41.2168V44H3.34844V36.8906H5.97051C6.7485 36.8906 7.35723 37.0892 7.79668 37.4863C8.23939 37.8835 8.46074 38.4092 8.46074 39.0635C8.46074 39.7536 8.24427 40.2858 7.81133 40.6602C7.38164 41.0312 6.76478 41.2168 5.96074 41.2168H4.28594ZM4.28594 40.4502H5.97051C6.47181 40.4502 6.85593 40.333 7.12285 40.0986C7.38978 39.861 7.52324 39.5192 7.52324 39.0732C7.52324 38.6501 7.38978 38.3115 7.12285 38.0576C6.85593 37.8037 6.48971 37.6719 6.02422 37.6621H4.28594V40.4502ZM11.7691 39.5273C11.6324 39.5046 11.4843 39.4932 11.3248 39.4932C10.7324 39.4932 10.3303 39.7454 10.1188 40.25V44H9.21543V38.7168H10.0943L10.109 39.3271C10.4052 38.8551 10.8251 38.6191 11.3688 38.6191C11.5445 38.6191 11.678 38.6419 11.7691 38.6875V39.5273ZM11.9672 41.3096C11.9672 40.792 12.0681 40.3265 12.2699 39.9131C12.475 39.4997 12.7582 39.1807 13.1195 38.9561C13.4841 38.7314 13.8992 38.6191 14.3646 38.6191C15.084 38.6191 15.6651 38.8682 16.1078 39.3662C16.5538 39.8643 16.7768 40.5267 16.7768 41.3535V41.417C16.7768 41.9313 16.6775 42.3936 16.4789 42.8037C16.2836 43.2106 16.002 43.528 15.6342 43.7559C15.2696 43.9837 14.8497 44.0977 14.3744 44.0977C13.6583 44.0977 13.0772 43.8486 12.6313 43.3506C12.1885 42.8525 11.9672 42.1934 11.9672 41.373V41.3096ZM12.8754 41.417C12.8754 42.0029 13.0105 42.4733 13.2807 42.8281C13.5541 43.1829 13.9187 43.3604 14.3744 43.3604C14.8334 43.3604 15.198 43.1813 15.4682 42.8232C15.7383 42.4619 15.8734 41.9574 15.8734 41.3096C15.8734 40.7301 15.7351 40.2614 15.4584 39.9033C15.185 39.542 14.8204 39.3613 14.3646 39.3613C13.9187 39.3613 13.559 39.5387 13.2855 39.8936C13.0121 40.2484 12.8754 40.7562 12.8754 41.417ZM18.8352 37.4375V38.7168H19.8215V39.415H18.8352V42.6914C18.8352 42.903 18.8791 43.0625 18.967 43.1699C19.0549 43.2741 19.2046 43.3262 19.4162 43.3262C19.5204 43.3262 19.6636 43.3066 19.8459 43.2676V44C19.6083 44.0651 19.3771 44.0977 19.1525 44.0977C18.7489 44.0977 18.4445 43.9756 18.2395 43.7314C18.0344 43.4873 17.9318 43.1406 17.9318 42.6914V39.415H16.9699V38.7168H17.9318V37.4375H18.8352ZM22.7734 44.0977C22.0573 44.0977 21.4746 43.8633 21.0254 43.3945C20.5762 42.9225 20.3516 42.2926 20.3516 41.5049V41.3389C20.3516 40.8148 20.4508 40.3477 20.6494 39.9375C20.8512 39.5241 21.1312 39.2018 21.4893 38.9707C21.8506 38.7363 22.2412 38.6191 22.6611 38.6191C23.348 38.6191 23.8818 38.8454 24.2627 39.2979C24.6436 39.7503 24.834 40.3981 24.834 41.2412V41.6172H21.2549C21.2679 42.138 21.4193 42.5596 21.709 42.8818C22.002 43.2008 22.373 43.3604 22.8223 43.3604C23.1413 43.3604 23.4115 43.2952 23.6328 43.165C23.8542 43.0348 24.0479 42.8623 24.2139 42.6475L24.7656 43.0771C24.3229 43.7575 23.6589 44.0977 22.7734 44.0977ZM22.6611 39.3613C22.2965 39.3613 21.9906 39.4948 21.7432 39.7617C21.4958 40.0254 21.3428 40.3965 21.2842 40.875H23.9307V40.8066C23.9046 40.3477 23.7809 39.9928 23.5596 39.7422C23.3382 39.4883 23.0387 39.3613 22.6611 39.3613ZM27.7029 43.3604C28.0252 43.3604 28.3068 43.2627 28.5477 43.0674C28.7885 42.8721 28.922 42.6279 28.948 42.335H29.8025C29.7863 42.6377 29.6821 42.9258 29.49 43.1992C29.298 43.4727 29.0408 43.6908 28.7186 43.8535C28.3995 44.0163 28.061 44.0977 27.7029 44.0977C26.9835 44.0977 26.4106 43.8584 25.9842 43.3799C25.561 42.8981 25.3494 42.2406 25.3494 41.4072V41.2559C25.3494 40.7415 25.4438 40.2842 25.6326 39.8838C25.8214 39.4834 26.0916 39.1725 26.4432 38.9512C26.798 38.7298 27.2163 38.6191 27.698 38.6191C28.2905 38.6191 28.782 38.7965 29.1727 39.1514C29.5665 39.5062 29.7765 39.9668 29.8025 40.5332H28.948C28.922 40.1914 28.7918 39.9115 28.5574 39.6934C28.3263 39.472 28.0398 39.3613 27.698 39.3613C27.2391 39.3613 26.8826 39.5273 26.6287 39.8594C26.3781 40.1882 26.2527 40.665 26.2527 41.29V41.4609C26.2527 42.0697 26.3781 42.5384 26.6287 42.8672C26.8794 43.196 27.2374 43.3604 27.7029 43.3604ZM27.8494 44.0439L27.7908 44.2979C28.2889 44.3857 28.5379 44.6673 28.5379 45.1426C28.5379 45.4583 28.4077 45.7074 28.1473 45.8896C27.8868 46.0752 27.5239 46.168 27.0584 46.168L27.0242 45.6455C27.2814 45.6455 27.4799 45.6032 27.6199 45.5186C27.7632 45.4339 27.8348 45.3151 27.8348 45.1621C27.8348 45.0189 27.7827 44.9131 27.6785 44.8447C27.5743 44.7764 27.3628 44.7275 27.0438 44.6982L27.2 44.0439H27.8494ZM33.7799 44C33.7278 43.8958 33.6855 43.7103 33.6529 43.4434C33.233 43.8796 32.7317 44.0977 32.149 44.0977C31.6282 44.0977 31.2001 43.9512 30.8648 43.6582C30.5328 43.362 30.3668 42.9876 30.3668 42.5352C30.3668 41.985 30.5751 41.5586 30.9918 41.2559C31.4117 40.9499 32.0009 40.7969 32.7594 40.7969H33.6383V40.3818C33.6383 40.0661 33.5439 39.8154 33.3551 39.6299C33.1663 39.4411 32.888 39.3467 32.5201 39.3467C32.1979 39.3467 31.9277 39.4281 31.7096 39.5908C31.4915 39.7536 31.3824 39.9505 31.3824 40.1816H30.4742C30.4742 39.918 30.567 39.6641 30.7525 39.4199C30.9413 39.1725 31.1952 38.9772 31.5143 38.834C31.8365 38.6908 32.1897 38.6191 32.5738 38.6191C33.1826 38.6191 33.6594 38.7721 34.0045 39.0781C34.3495 39.3809 34.5286 39.7992 34.5416 40.333V42.7646C34.5416 43.2497 34.6035 43.6354 34.7271 43.9219V44H33.7799ZM32.2809 43.3115C32.5641 43.3115 32.8326 43.2383 33.0865 43.0918C33.3404 42.9453 33.5244 42.7549 33.6383 42.5205V41.4365H32.9303C31.8235 41.4365 31.2701 41.7604 31.2701 42.4082C31.2701 42.6914 31.3645 42.9128 31.5533 43.0723C31.7421 43.2318 31.9846 43.3115 32.2809 43.3115ZM34.4049 36.6562C34.4049 37.0078 34.304 37.2926 34.1021 37.5107C33.9036 37.7288 33.6546 37.8379 33.3551 37.8379C33.2216 37.8379 33.1061 37.8216 33.0084 37.7891C32.9107 37.7565 32.7822 37.6898 32.6227 37.5889C32.4664 37.488 32.3525 37.4277 32.2809 37.4082C32.2125 37.3854 32.1327 37.374 32.0416 37.374C31.9081 37.374 31.7942 37.4261 31.6998 37.5303C31.6054 37.6312 31.5582 37.7614 31.5582 37.9209L30.9527 37.8867C30.9527 37.5384 31.0504 37.2503 31.2457 37.0225C31.4443 36.7946 31.6949 36.6807 31.9977 36.6807C32.1116 36.6807 32.2141 36.6969 32.3053 36.7295C32.3964 36.762 32.5201 36.8255 32.6764 36.9199C32.8326 37.0143 32.9514 37.0762 33.0328 37.1055C33.1174 37.1348 33.2102 37.1494 33.3111 37.1494C33.4511 37.1494 33.5667 37.0941 33.6578 36.9834C33.7522 36.8727 33.7994 36.7441 33.7994 36.5977L34.4049 36.6562ZM35.4184 41.3096C35.4184 40.792 35.5193 40.3265 35.7211 39.9131C35.9262 39.4997 36.2094 39.1807 36.5707 38.9561C36.9353 38.7314 37.3503 38.6191 37.8158 38.6191C38.5352 38.6191 39.1163 38.8682 39.559 39.3662C40.005 39.8643 40.2279 40.5267 40.2279 41.3535V41.417C40.2279 41.9313 40.1286 42.3936 39.9301 42.8037C39.7348 43.2106 39.4532 43.528 39.0854 43.7559C38.7208 43.9837 38.3008 44.0977 37.8256 44.0977C37.1094 44.0977 36.5284 43.8486 36.0824 43.3506C35.6397 42.8525 35.4184 42.1934 35.4184 41.373V41.3096ZM36.3266 41.417C36.3266 42.0029 36.4617 42.4733 36.7318 42.8281C37.0053 43.1829 37.3699 43.3604 37.8256 43.3604C38.2846 43.3604 38.6492 43.1813 38.9193 42.8232C39.1895 42.4619 39.3246 41.9574 39.3246 41.3096C39.3246 40.7301 39.1863 40.2614 38.9096 39.9033C38.6361 39.542 38.2716 39.3613 37.8158 39.3613C37.3699 39.3613 37.0102 39.5387 36.7367 39.8936C36.4633 40.2484 36.3266 40.7562 36.3266 41.417ZM46.3174 42.5986C46.3174 42.3545 46.2246 42.1657 46.0391 42.0322C45.8568 41.8955 45.5361 41.7783 45.0771 41.6807C44.6214 41.583 44.2585 41.4658 43.9883 41.3291C43.7214 41.1924 43.5228 41.0296 43.3926 40.8408C43.2656 40.652 43.2021 40.4274 43.2021 40.167C43.2021 39.734 43.3844 39.3678 43.749 39.0684C44.1169 38.7689 44.5856 38.6191 45.1553 38.6191C45.7542 38.6191 46.2393 38.7738 46.6104 39.083C46.9847 39.3923 47.1719 39.7878 47.1719 40.2695H46.2637C46.2637 40.0221 46.1579 39.8089 45.9463 39.6299C45.738 39.4508 45.4743 39.3613 45.1553 39.3613C44.8265 39.3613 44.5693 39.4329 44.3838 39.5762C44.1982 39.7194 44.1055 39.9066 44.1055 40.1377C44.1055 40.3558 44.1917 40.5202 44.3643 40.6309C44.5368 40.7415 44.8477 40.8473 45.2969 40.9482C45.7493 41.0492 46.1156 41.1696 46.3955 41.3096C46.6755 41.4495 46.8822 41.6188 47.0156 41.8174C47.1523 42.0127 47.2207 42.252 47.2207 42.5352C47.2207 43.0072 47.0319 43.3864 46.6543 43.6729C46.2767 43.9561 45.7868 44.0977 45.1846 44.0977C44.7614 44.0977 44.387 44.0228 44.0615 43.873C43.736 43.7233 43.4805 43.515 43.2949 43.248C43.1126 42.9779 43.0215 42.6865 43.0215 42.374H43.9248C43.9411 42.6768 44.0615 42.9176 44.2861 43.0967C44.514 43.2725 44.8135 43.3604 45.1846 43.3604C45.5264 43.3604 45.7998 43.292 46.0049 43.1553C46.2132 43.0153 46.3174 42.8298 46.3174 42.5986ZM47.8582 41.3096C47.8582 40.792 47.9591 40.3265 48.1609 39.9131C48.366 39.4997 48.6492 39.1807 49.0105 38.9561C49.3751 38.7314 49.7902 38.6191 50.2557 38.6191C50.9751 38.6191 51.5561 38.8682 51.9988 39.3662C52.4448 39.8643 52.6678 40.5267 52.6678 41.3535V41.417C52.6678 41.9313 52.5685 42.3936 52.3699 42.8037C52.1746 43.2106 51.893 43.528 51.5252 43.7559C51.1606 43.9837 50.7407 44.0977 50.2654 44.0977C49.5493 44.0977 48.9682 43.8486 48.5223 43.3506C48.0796 42.8525 47.8582 42.1934 47.8582 41.373V41.3096ZM48.7664 41.417C48.7664 42.0029 48.9015 42.4733 49.1717 42.8281C49.4451 43.1829 49.8097 43.3604 50.2654 43.3604C50.7244 43.3604 51.089 43.1813 51.3592 42.8232C51.6294 42.4619 51.7645 41.9574 51.7645 41.3096C51.7645 40.7301 51.6261 40.2614 51.3494 39.9033C51.076 39.542 50.7114 39.3613 50.2557 39.3613C49.8097 39.3613 49.45 39.5387 49.1766 39.8936C48.9031 40.2484 48.7664 40.7562 48.7664 41.417ZM54.482 44H53.5787V36.5H54.482V44ZM58.8939 44C58.8419 43.8958 58.7995 43.7103 58.767 43.4434C58.3471 43.8796 57.8458 44.0977 57.2631 44.0977C56.7423 44.0977 56.3142 43.9512 55.9789 43.6582C55.6469 43.362 55.4809 42.9876 55.4809 42.5352C55.4809 41.985 55.6892 41.5586 56.1059 41.2559C56.5258 40.9499 57.115 40.7969 57.8734 40.7969H58.7523V40.3818C58.7523 40.0661 58.6579 39.8154 58.4691 39.6299C58.2803 39.4411 58.002 39.3467 57.6342 39.3467C57.3119 39.3467 57.0417 39.4281 56.8236 39.5908C56.6055 39.7536 56.4965 39.9505 56.4965 40.1816H55.5883C55.5883 39.918 55.6811 39.6641 55.8666 39.4199C56.0554 39.1725 56.3093 38.9772 56.6283 38.834C56.9506 38.6908 57.3038 38.6191 57.6879 38.6191C58.2966 38.6191 58.7735 38.7721 59.1186 39.0781C59.4636 39.3809 59.6426 39.7992 59.6557 40.333V42.7646C59.6557 43.2497 59.7175 43.6354 59.8412 43.9219V44H58.8939ZM57.3949 43.3115C57.6781 43.3115 57.9467 43.2383 58.2006 43.0918C58.4545 42.9453 58.6384 42.7549 58.7523 42.5205V41.4365H58.0443C56.9376 41.4365 56.3842 41.7604 56.3842 42.4082C56.3842 42.6914 56.4786 42.9128 56.6674 43.0723C56.8562 43.2318 57.0987 43.3115 57.3949 43.3115ZM63.3254 39.5273C63.1887 39.5046 63.0406 39.4932 62.8811 39.4932C62.2886 39.4932 61.8866 39.7454 61.675 40.25V44H60.7717V38.7168H61.6506L61.6652 39.3271C61.9615 38.8551 62.3814 38.6191 62.925 38.6191C63.1008 38.6191 63.2342 38.6419 63.3254 38.6875V39.5273Z" fill="#666666"/>
<defs>
<filter id="filter0_d_7838:59926" x="0" y="0" width="66" height="34" filterUnits="userSpaceOnUse" color-interpolation-filters="sRGB">
<feFlood flood-opacity="0" result="BackgroundImageFix"/>
<feColorMatrix in="SourceAlpha" type="matrix" values="0 0 0 0 0 0 0 0 0 0 0 0 0 0 0 0 0 0 127 0" result="hardAlpha"/>
<feOffset dy="1"/>
<feGaussianBlur stdDeviation="1"/>
<feColorMatrix type="matrix" values="0 0 0 0 0 0 0 0 0 0 0 0 0 0 0 0 0 0 0.2 0"/>
<feBlend mode="normal" in2="BackgroundImageFix" result="effect1_dropShadow_7838:59926"/>
<feBlend mode="normal" in="SourceGraphic" in2="effect1_dropShadow_7838:59926" result="shape"/>
</filter>
</defs>
</svg>
