<svg width="70" height="65" viewBox="0 0 70 65" fill="none" xmlns="http://www.w3.org/2000/svg">
<g filter="url(#filter0_d_7838:60107)">
<rect x="2" y="1" width="66" height="34" rx="8" fill="#E7F3F9"/>
<path d="M29.375 26.4375V25.3125C29.375 24.6912 29.8787 24.1875 30.5 24.1875C31.0625 24.1875 31.0625 26.4375 36.125 26.4375C41.1875 26.4375 42.875 21.9375 42.875 19.6875C42.875 14.625 39.5 11.8125 35 11.8125C34.3787 11.8125 33.875 11.3088 33.875 10.6875V9.5625" stroke="#007DC5" stroke-linecap="round" stroke-linejoin="round"/>
<path d="M27.125 26.4373V25.3123C27.1271 23.4492 28.6369 21.9393 30.5 21.9373C31.625 21.9373 35.108 17.7125 34.0528 13.9258" stroke="#007DC5" stroke-linecap="round" stroke-linejoin="round"/>
<path d="M35 14.0625C33.1369 14.0604 31.6271 12.5506 31.625 10.6875V9.5625" stroke="#007DC5" stroke-linecap="round" stroke-linejoin="round"/>
<path fill-rule="evenodd" clip-rule="evenodd" d="M36.125 24.1875C37.25 24.1875 39.5 23.625 39.5 21.9375C39.5 20.25 37.8125 20.25 37.25 20.25C36.6875 20.25 33.875 21.9375 33.875 23.0625C33.875 24.1875 35 24.1875 36.125 24.1875Z" stroke="#007DC5" stroke-linecap="round" stroke-linejoin="round"/>
</g>
<path d="M8.23203 45.124H6.56211V48H5.61973V40.8906H7.97324C8.77402 40.8906 9.38926 41.0729 9.81894 41.4375C10.2519 41.8021 10.4684 42.3327 10.4684 43.0293C10.4684 43.472 10.3479 43.8577 10.107 44.1865C9.8694 44.5153 9.53737 44.7611 9.11094 44.9238L10.7809 47.9414V48H9.775L8.23203 45.124ZM6.56211 44.3574H8.00254C8.46803 44.3574 8.8375 44.237 9.11094 43.9961C9.38763 43.7552 9.52598 43.4329 9.52598 43.0293C9.52598 42.5898 9.39414 42.2529 9.13047 42.0186C8.87005 41.7842 8.49245 41.6654 7.99766 41.6621H6.56211V44.3574ZM13.5375 48.0977C12.8214 48.0977 12.2387 47.8633 11.7895 47.3945C11.3402 46.9225 11.1156 46.2926 11.1156 45.5049V45.3389C11.1156 44.8148 11.2149 44.3477 11.4135 43.9375C11.6153 43.5241 11.8952 43.2018 12.2533 42.9707C12.6146 42.7363 13.0053 42.6191 13.4252 42.6191C14.112 42.6191 14.6459 42.8454 15.0268 43.2979C15.4076 43.7503 15.598 44.3981 15.598 45.2412V45.6172H12.0189C12.032 46.138 12.1833 46.5596 12.473 46.8818C12.766 47.2008 13.1371 47.3604 13.5863 47.3604C13.9053 47.3604 14.1755 47.2952 14.3969 47.165C14.6182 47.0348 14.8119 46.8623 14.9779 46.6475L15.5297 47.0771C15.087 47.7575 14.4229 48.0977 13.5375 48.0977ZM13.4252 43.3613C13.0606 43.3613 12.7546 43.4948 12.5072 43.7617C12.2598 44.0254 12.1068 44.3965 12.0482 44.875H14.6947V44.8066C14.6687 44.3477 14.545 43.9928 14.3236 43.7422C14.1023 43.4883 13.8028 43.3613 13.4252 43.3613ZM18.5402 48.0977C17.8241 48.0977 17.2414 47.8633 16.7922 47.3945C16.343 46.9225 16.1184 46.2926 16.1184 45.5049V45.3389C16.1184 44.8148 16.2176 44.3477 16.4162 43.9375C16.618 43.5241 16.898 43.2018 17.2561 42.9707C17.6174 42.7363 18.008 42.6191 18.4279 42.6191C19.1148 42.6191 19.6486 42.8454 20.0295 43.2979C20.4104 43.7503 20.6008 44.3981 20.6008 45.2412V45.6172H17.0217C17.0347 46.138 17.1861 46.5596 17.4758 46.8818C17.7687 47.2008 18.1398 47.3604 18.5891 47.3604C18.9081 47.3604 19.1783 47.2952 19.3996 47.165C19.621 47.0348 19.8146 46.8623 19.9807 46.6475L20.5324 47.0771C20.0897 47.7575 19.4257 48.0977 18.5402 48.0977ZM18.4279 43.3613C18.0633 43.3613 17.7574 43.4948 17.51 43.7617C17.2626 44.0254 17.1096 44.3965 17.051 44.875H19.6975V44.8066C19.6714 44.3477 19.5477 43.9928 19.3264 43.7422C19.105 43.4883 18.8055 43.3613 18.4279 43.3613ZM21.1309 45.3145C21.1309 44.5039 21.3229 43.8529 21.707 43.3613C22.0911 42.8665 22.5941 42.6191 23.2158 42.6191C23.8343 42.6191 24.3242 42.8307 24.6855 43.2539V40.5H25.5889V48H24.7588L24.7148 47.4336C24.3535 47.8763 23.8506 48.0977 23.2061 48.0977C22.5941 48.0977 22.0944 47.847 21.707 47.3457C21.3229 46.8444 21.1309 46.1901 21.1309 45.3828V45.3145ZM22.0342 45.417C22.0342 46.016 22.1579 46.4847 22.4053 46.8232C22.6527 47.1618 22.9945 47.3311 23.4307 47.3311C24.0036 47.3311 24.4219 47.0739 24.6855 46.5596V44.1328C24.4154 43.6348 24.0003 43.3857 23.4404 43.3857C22.9977 43.3857 22.6527 43.5566 22.4053 43.8984C22.1579 44.2402 22.0342 44.7464 22.0342 45.417ZM29.9568 47.4775C29.6053 47.891 29.0893 48.0977 28.409 48.0977C27.8458 48.0977 27.4161 47.9349 27.1199 47.6094C26.827 47.2806 26.6788 46.7956 26.6756 46.1543V42.7168H27.5789V46.1299C27.5789 46.9307 27.9044 47.3311 28.5555 47.3311C29.2456 47.3311 29.7046 47.0739 29.9324 46.5596V42.7168H30.8357V48H29.9764L29.9568 47.4775ZM34.0318 47.3604C34.3541 47.3604 34.6357 47.2627 34.8766 47.0674C35.1174 46.8721 35.2509 46.6279 35.277 46.335H36.1314C36.1152 46.6377 36.011 46.9258 35.8189 47.1992C35.6269 47.4727 35.3697 47.6908 35.0475 47.8535C34.7285 48.0163 34.3899 48.0977 34.0318 48.0977C33.3124 48.0977 32.7395 47.8584 32.3131 47.3799C31.8899 46.8981 31.6783 46.2406 31.6783 45.4072V45.2559C31.6783 44.7415 31.7727 44.2842 31.9615 43.8838C32.1503 43.4834 32.4205 43.1725 32.7721 42.9512C33.1269 42.7298 33.5452 42.6191 34.027 42.6191C34.6194 42.6191 35.1109 42.7965 35.5016 43.1514C35.8954 43.5062 36.1054 43.9668 36.1314 44.5332H35.277C35.2509 44.1914 35.1207 43.9115 34.8863 43.6934C34.6552 43.472 34.3688 43.3613 34.027 43.3613C33.568 43.3613 33.2115 43.5273 32.9576 43.8594C32.707 44.1882 32.5816 44.665 32.5816 45.29V45.4609C32.5816 46.0697 32.707 46.5384 32.9576 46.8672C33.2083 47.196 33.5663 47.3604 34.0318 47.3604ZM40.1088 48C40.0567 47.8958 40.0144 47.7103 39.9818 47.4434C39.5619 47.8796 39.0606 48.0977 38.4779 48.0977C37.9571 48.0977 37.529 47.9512 37.1937 47.6582C36.8617 47.362 36.6957 46.9876 36.6957 46.5352C36.6957 45.985 36.904 45.5586 37.3207 45.2559C37.7406 44.9499 38.3298 44.7969 39.0883 44.7969H39.9672V44.3818C39.9672 44.0661 39.8728 43.8154 39.684 43.6299C39.4952 43.4411 39.2169 43.3467 38.849 43.3467C38.5268 43.3467 38.2566 43.4281 38.0385 43.5908C37.8204 43.7536 37.7113 43.9505 37.7113 44.1816H36.8031C36.8031 43.918 36.8959 43.6641 37.0814 43.4199C37.2702 43.1725 37.5242 42.9772 37.8432 42.834C38.1654 42.6908 38.5186 42.6191 38.9027 42.6191C39.5115 42.6191 39.9883 42.7721 40.3334 43.0781C40.6784 43.3809 40.8575 43.7992 40.8705 44.333V46.7646C40.8705 47.2497 40.9324 47.6354 41.0561 47.9219V48H40.1088ZM38.6098 47.3115C38.893 47.3115 39.1615 47.2383 39.4154 47.0918C39.6693 46.9453 39.8533 46.7549 39.9672 46.5205V45.4365H39.2592C38.1524 45.4365 37.599 45.7604 37.599 46.4082C37.599 46.6914 37.6934 46.9128 37.8822 47.0723C38.071 47.2318 38.3135 47.3115 38.6098 47.3115ZM41.7668 45.3145C41.7668 44.5039 41.9589 43.8529 42.343 43.3613C42.7271 42.8665 43.23 42.6191 43.8518 42.6191C44.4703 42.6191 44.9602 42.8307 45.3215 43.2539V40.5H46.2248V48H45.3947L45.3508 47.4336C44.9895 47.8763 44.4865 48.0977 43.842 48.0977C43.23 48.0977 42.7303 47.847 42.343 47.3457C41.9589 46.8444 41.7668 46.1901 41.7668 45.3828V45.3145ZM42.6701 45.417C42.6701 46.016 42.7938 46.4847 43.0412 46.8232C43.2886 47.1618 43.6304 47.3311 44.0666 47.3311C44.6395 47.3311 45.0578 47.0739 45.3215 46.5596V44.1328C45.0513 43.6348 44.6363 43.3857 44.0764 43.3857C43.6337 43.3857 43.2886 43.5566 43.0412 43.8984C42.7938 44.2402 42.6701 44.7464 42.6701 45.417ZM47.0918 45.3096C47.0918 44.792 47.1927 44.3265 47.3945 43.9131C47.5996 43.4997 47.8828 43.1807 48.2441 42.9561C48.6087 42.7314 49.0238 42.6191 49.4893 42.6191C50.2087 42.6191 50.7897 42.8682 51.2324 43.3662C51.6784 43.8643 51.9014 44.5267 51.9014 45.3535V45.417C51.9014 45.9313 51.8021 46.3936 51.6035 46.8037C51.4082 47.2106 51.1266 47.528 50.7588 47.7559C50.3942 47.9837 49.9743 48.0977 49.499 48.0977C48.7829 48.0977 48.2018 47.8486 47.7559 47.3506C47.3132 46.8525 47.0918 46.1934 47.0918 45.373V45.3096ZM48 45.417C48 46.0029 48.1351 46.4733 48.4053 46.8281C48.6787 47.1829 49.0433 47.3604 49.499 47.3604C49.958 47.3604 50.3226 47.1813 50.5928 46.8232C50.863 46.4619 50.998 45.9574 50.998 45.3096C50.998 44.7301 50.8597 44.2614 50.583 43.9033C50.3096 43.542 49.945 43.3613 49.4893 43.3613C49.0433 43.3613 48.6836 43.5387 48.4102 43.8936C48.1367 44.2484 48 44.7562 48 45.417ZM55.2879 43.5273C55.1512 43.5046 55.0031 43.4932 54.8436 43.4932C54.2511 43.4932 53.8491 43.7454 53.6375 44.25V48H52.7342V42.7168H53.6131L53.6277 43.3271C53.924 42.8551 54.3439 42.6191 54.8875 42.6191C55.0633 42.6191 55.1967 42.6419 55.2879 42.6875V43.5273ZM57.9176 48.0977C57.2014 48.0977 56.6188 47.8633 56.1695 47.3945C55.7203 46.9225 55.4957 46.2926 55.4957 45.5049V45.3389C55.4957 44.8148 55.595 44.3477 55.7936 43.9375C55.9954 43.5241 56.2753 43.2018 56.6334 42.9707C56.9947 42.7363 57.3854 42.6191 57.8053 42.6191C58.4921 42.6191 59.026 42.8454 59.4068 43.2979C59.7877 43.7503 59.9781 44.3981 59.9781 45.2412V45.6172H56.399C56.412 46.138 56.5634 46.5596 56.8531 46.8818C57.1461 47.2008 57.5172 47.3604 57.9664 47.3604C58.2854 47.3604 58.5556 47.2952 58.777 47.165C58.9983 47.0348 59.192 46.8623 59.358 46.6475L59.9098 47.0771C59.4671 47.7575 58.803 48.0977 57.9176 48.0977ZM57.8053 43.3613C57.4407 43.3613 57.1347 43.4948 56.8873 43.7617C56.6399 44.0254 56.4869 44.3965 56.4283 44.875H59.0748V44.8066C59.0488 44.3477 58.9251 43.9928 58.7037 43.7422C58.4824 43.4883 58.1829 43.3613 57.8053 43.3613ZM63.8041 46.5986C63.8041 46.3545 63.7113 46.1657 63.5258 46.0322C63.3435 45.8955 63.0229 45.7783 62.5639 45.6807C62.1081 45.583 61.7452 45.4658 61.475 45.3291C61.2081 45.1924 61.0095 45.0296 60.8793 44.8408C60.7523 44.652 60.6889 44.4274 60.6889 44.167C60.6889 43.734 60.8712 43.3678 61.2357 43.0684C61.6036 42.7689 62.0723 42.6191 62.642 42.6191C63.2409 42.6191 63.726 42.7738 64.0971 43.083C64.4714 43.3923 64.6586 43.7878 64.6586 44.2695H63.7504C63.7504 44.0221 63.6446 43.8089 63.433 43.6299C63.2247 43.4508 62.961 43.3613 62.642 43.3613C62.3132 43.3613 62.0561 43.4329 61.8705 43.5762C61.685 43.7194 61.5922 43.9066 61.5922 44.1377C61.5922 44.3558 61.6784 44.5202 61.851 44.6309C62.0235 44.7415 62.3344 44.8473 62.7836 44.9482C63.2361 45.0492 63.6023 45.1696 63.8822 45.3096C64.1622 45.4495 64.3689 45.6188 64.5023 45.8174C64.6391 46.0127 64.7074 46.252 64.7074 46.5352C64.7074 47.0072 64.5186 47.3864 64.141 47.6729C63.7634 47.9561 63.2735 48.0977 62.6713 48.0977C62.2481 48.0977 61.8738 48.0228 61.5482 47.873C61.2227 47.7233 60.9672 47.515 60.7816 47.248C60.5993 46.9779 60.5082 46.6865 60.5082 46.374H61.4115C61.4278 46.6768 61.5482 46.9176 61.7729 47.0967C62.0007 47.2725 62.3002 47.3604 62.6713 47.3604C63.0131 47.3604 63.2865 47.292 63.4916 47.1553C63.6999 47.0153 63.8041 46.8298 63.8041 46.5986ZM15.2012 60H14.2979V54.7168H15.2012V60ZM14.2246 53.3154C14.2246 53.1689 14.2686 53.0452 14.3564 52.9443C14.4476 52.8434 14.5811 52.793 14.7568 52.793C14.9326 52.793 15.0661 52.8434 15.1572 52.9443C15.2484 53.0452 15.2939 53.1689 15.2939 53.3154C15.2939 53.4619 15.2484 53.584 15.1572 53.6816C15.0661 53.7793 14.9326 53.8281 14.7568 53.8281C14.5811 53.8281 14.4476 53.7793 14.3564 53.6816C14.2686 53.584 14.2246 53.4619 14.2246 53.3154ZM17.2059 54.7168L17.2352 55.3809C17.6388 54.873 18.1661 54.6191 18.8172 54.6191C19.9337 54.6191 20.4969 55.249 20.5066 56.5088V60H19.6033V56.5039C19.6001 56.123 19.5122 55.8415 19.3396 55.6592C19.1704 55.4769 18.9051 55.3857 18.5438 55.3857C18.2508 55.3857 17.9936 55.4639 17.7723 55.6201C17.5509 55.7764 17.3784 55.9814 17.2547 56.2354V60H16.3514V54.7168H17.2059ZM22.7945 53.4375V54.7168H23.7809V55.415H22.7945V58.6914C22.7945 58.903 22.8385 59.0625 22.9264 59.1699C23.0143 59.2741 23.164 59.3262 23.3756 59.3262C23.4798 59.3262 23.623 59.3066 23.8053 59.2676V60C23.5676 60.0651 23.3365 60.0977 23.1119 60.0977C22.7083 60.0977 22.4039 59.9756 22.1988 59.7314C21.9937 59.4873 21.8912 59.1406 21.8912 58.6914V55.415H20.9293V54.7168H21.8912V53.4375H22.7945ZM26.7328 60.0977C26.0167 60.0977 25.434 59.8633 24.9848 59.3945C24.5355 58.9225 24.3109 58.2926 24.3109 57.5049V57.3389C24.3109 56.8148 24.4102 56.3477 24.6088 55.9375C24.8106 55.5241 25.0906 55.2018 25.4486 54.9707C25.81 54.7363 26.2006 54.6191 26.6205 54.6191C27.3074 54.6191 27.8412 54.8454 28.2221 55.2979C28.6029 55.7503 28.7934 56.3981 28.7934 57.2412V57.6172H25.2143C25.2273 58.138 25.3786 58.5596 25.6684 58.8818C25.9613 59.2008 26.3324 59.3604 26.7816 59.3604C27.1007 59.3604 27.3708 59.2952 27.5922 59.165C27.8135 59.0348 28.0072 58.8623 28.1732 58.6475L28.725 59.0771C28.2823 59.7575 27.6182 60.0977 26.7328 60.0977ZM26.6205 55.3613C26.2559 55.3613 25.9499 55.4948 25.7025 55.7617C25.4551 56.0254 25.3021 56.3965 25.2436 56.875H27.89V56.8066C27.864 56.3477 27.7403 55.9928 27.5189 55.7422C27.2976 55.4883 26.9981 55.3613 26.6205 55.3613ZM32.6193 58.5986C32.6193 58.3545 32.5266 58.1657 32.341 58.0322C32.1587 57.8955 31.8381 57.7783 31.3791 57.6807C30.9234 57.583 30.5604 57.4658 30.2902 57.3291C30.0233 57.1924 29.8247 57.0296 29.6945 56.8408C29.5676 56.652 29.5041 56.4274 29.5041 56.167C29.5041 55.734 29.6864 55.3678 30.051 55.0684C30.4188 54.7689 30.8876 54.6191 31.4572 54.6191C32.0562 54.6191 32.5412 54.7738 32.9123 55.083C33.2867 55.3923 33.4738 55.7878 33.4738 56.2695H32.5656C32.5656 56.0221 32.4598 55.8089 32.2482 55.6299C32.0399 55.4508 31.7762 55.3613 31.4572 55.3613C31.1284 55.3613 30.8713 55.4329 30.6857 55.5762C30.5002 55.7194 30.4074 55.9066 30.4074 56.1377C30.4074 56.3558 30.4937 56.5202 30.6662 56.6309C30.8387 56.7415 31.1496 56.8473 31.5988 56.9482C32.0513 57.0492 32.4175 57.1696 32.6975 57.3096C32.9774 57.4495 33.1841 57.6188 33.3176 57.8174C33.4543 58.0127 33.5227 58.252 33.5227 58.5352C33.5227 59.0072 33.3339 59.3864 32.9562 59.6729C32.5786 59.9561 32.0887 60.0977 31.4865 60.0977C31.0633 60.0977 30.689 60.0228 30.3635 59.873C30.038 59.7233 29.7824 59.515 29.5969 59.248C29.4146 58.9779 29.3234 58.6865 29.3234 58.374H30.2268C30.243 58.6768 30.3635 58.9176 30.5881 59.0967C30.8159 59.2725 31.1154 59.3604 31.4865 59.3604C31.8283 59.3604 32.1018 59.292 32.3068 59.1553C32.5152 59.0153 32.6193 58.8298 32.6193 58.5986ZM35.625 53.4375V54.7168H36.6113V55.415H35.625V58.6914C35.625 58.903 35.6689 59.0625 35.7568 59.1699C35.8447 59.2741 35.9945 59.3262 36.2061 59.3262C36.3102 59.3262 36.4535 59.3066 36.6357 59.2676V60C36.3981 60.0651 36.167 60.0977 35.9424 60.0977C35.5387 60.0977 35.2344 59.9756 35.0293 59.7314C34.8242 59.4873 34.7217 59.1406 34.7217 58.6914V55.415H33.7598V54.7168H34.7217V53.4375H35.625ZM38.3523 60H37.449V54.7168H38.3523V60ZM37.3758 53.3154C37.3758 53.1689 37.4197 53.0452 37.5076 52.9443C37.5988 52.8434 37.7322 52.793 37.908 52.793C38.0838 52.793 38.2173 52.8434 38.3084 52.9443C38.3995 53.0452 38.4451 53.1689 38.4451 53.3154C38.4451 53.4619 38.3995 53.584 38.3084 53.6816C38.2173 53.7793 38.0838 53.8281 37.908 53.8281C37.7322 53.8281 37.5988 53.7793 37.5076 53.6816C37.4197 53.584 37.3758 53.4619 37.3758 53.3154ZM40.357 54.7168L40.3863 55.3809C40.79 54.873 41.3173 54.6191 41.9684 54.6191C43.0849 54.6191 43.648 55.249 43.6578 56.5088V60H42.7545V56.5039C42.7512 56.123 42.6633 55.8415 42.4908 55.6592C42.3216 55.4769 42.0563 55.3857 41.6949 55.3857C41.402 55.3857 41.1448 55.4639 40.9234 55.6201C40.7021 55.7764 40.5296 55.9814 40.4059 56.2354V60H39.5025V54.7168H40.357ZM47.9818 60C47.9298 59.8958 47.8874 59.7103 47.8549 59.4434C47.435 59.8796 46.9337 60.0977 46.351 60.0977C45.8301 60.0977 45.4021 59.9512 45.0668 59.6582C44.7348 59.362 44.5687 58.9876 44.5687 58.5352C44.5687 57.985 44.7771 57.5586 45.1937 57.2559C45.6137 56.9499 46.2029 56.7969 46.9613 56.7969H47.8402V56.3818C47.8402 56.0661 47.7458 55.8154 47.557 55.6299C47.3682 55.4411 47.0899 55.3467 46.7221 55.3467C46.3998 55.3467 46.1296 55.4281 45.9115 55.5908C45.6934 55.7536 45.5844 55.9505 45.5844 56.1816H44.6762C44.6762 55.918 44.7689 55.6641 44.9545 55.4199C45.1433 55.1725 45.3972 54.9772 45.7162 54.834C46.0385 54.6908 46.3917 54.6191 46.7758 54.6191C47.3845 54.6191 47.8614 54.7721 48.2064 55.0781C48.5515 55.3809 48.7305 55.7992 48.7436 56.333V58.7646C48.7436 59.2497 48.8054 59.6354 48.9291 59.9219V60H47.9818ZM46.4828 59.3115C46.766 59.3115 47.0346 59.2383 47.2885 59.0918C47.5424 58.9453 47.7263 58.7549 47.8402 58.5205V57.4365H47.1322C46.0255 57.4365 45.4721 57.7604 45.4721 58.4082C45.4721 58.6914 45.5665 58.9128 45.7553 59.0723C45.9441 59.2318 46.1866 59.3115 46.4828 59.3115ZM50.841 60H49.9377V54.7168H50.841V60ZM49.8645 53.3154C49.8645 53.1689 49.9084 53.0452 49.9963 52.9443C50.0874 52.8434 50.2209 52.793 50.3967 52.793C50.5725 52.793 50.7059 52.8434 50.7971 52.9443C50.8882 53.0452 50.9338 53.1689 50.9338 53.3154C50.9338 53.4619 50.8882 53.584 50.7971 53.6816C50.7059 53.7793 50.5725 53.8281 50.3967 53.8281C50.2209 53.8281 50.0874 53.7793 49.9963 53.6816C49.9084 53.584 49.8645 53.4619 49.8645 53.3154ZM55.0674 58.5986C55.0674 58.3545 54.9746 58.1657 54.7891 58.0322C54.6068 57.8955 54.2861 57.7783 53.8271 57.6807C53.3714 57.583 53.0085 57.4658 52.7383 57.3291C52.4714 57.1924 52.2728 57.0296 52.1426 56.8408C52.0156 56.652 51.9521 56.4274 51.9521 56.167C51.9521 55.734 52.1344 55.3678 52.499 55.0684C52.8669 54.7689 53.3356 54.6191 53.9053 54.6191C54.5042 54.6191 54.9893 54.7738 55.3604 55.083C55.7347 55.3923 55.9219 55.7878 55.9219 56.2695H55.0137C55.0137 56.0221 54.9079 55.8089 54.6963 55.6299C54.488 55.4508 54.2243 55.3613 53.9053 55.3613C53.5765 55.3613 53.3193 55.4329 53.1338 55.5762C52.9482 55.7194 52.8555 55.9066 52.8555 56.1377C52.8555 56.3558 52.9417 56.5202 53.1143 56.6309C53.2868 56.7415 53.5977 56.8473 54.0469 56.9482C54.4993 57.0492 54.8656 57.1696 55.1455 57.3096C55.4255 57.4495 55.6322 57.6188 55.7656 57.8174C55.9023 58.0127 55.9707 58.252 55.9707 58.5352C55.9707 59.0072 55.7819 59.3864 55.4043 59.6729C55.0267 59.9561 54.5368 60.0977 53.9346 60.0977C53.5114 60.0977 53.137 60.0228 52.8115 59.873C52.486 59.7233 52.2305 59.515 52.0449 59.248C51.8626 58.9779 51.7715 58.6865 51.7715 58.374H52.6748C52.6911 58.6768 52.8115 58.9176 53.0361 59.0967C53.264 59.2725 53.5635 59.3604 53.9346 59.3604C54.2764 59.3604 54.5498 59.292 54.7549 59.1553C54.9632 59.0153 55.0674 58.8298 55.0674 58.5986Z" fill="#666666"/>
<defs>
<filter id="filter0_d_7838:60107" x="0" y="0" width="70" height="38" filterUnits="userSpaceOnUse" color-interpolation-filters="sRGB">
<feFlood flood-opacity="0" result="BackgroundImageFix"/>
<feColorMatrix in="SourceAlpha" type="matrix" values="0 0 0 0 0 0 0 0 0 0 0 0 0 0 0 0 0 0 127 0" result="hardAlpha"/>
<feOffset dy="1"/>
<feGaussianBlur stdDeviation="1"/>
<feColorMatrix type="matrix" values="0 0 0 0 0 0 0 0 0 0 0 0 0 0 0 0 0 0 0.2 0"/>
<feBlend mode="normal" in2="BackgroundImageFix" result="effect1_dropShadow_7838:60107"/>
<feBlend mode="normal" in="SourceGraphic" in2="effect1_dropShadow_7838:60107" result="shape"/>
</filter>
</defs>
</svg>
