<svg width="66" height="61" viewBox="0 0 66 61" fill="none" xmlns="http://www.w3.org/2000/svg">
<g filter="url(#filter0_d_7838:60042)">
<rect x="2" y="1" width="62" height="30" rx="8" fill="#E7F3F9"/>
<path fill-rule="evenodd" clip-rule="evenodd" d="M32.8652 11.1875H35.4902L36.8027 14.6875V21.25C36.8027 21.7332 36.411 22.125 35.9277 22.125H32.4277C31.9445 22.125 31.5527 21.7332 31.5527 21.25V14.6875L32.8652 11.1875Z" stroke="#007DC5" stroke-linecap="round" stroke-linejoin="round"/>
<path d="M35.4902 11.1875H35.9277C37.8607 11.1875 39.4277 12.7545 39.4277 14.6875V16" stroke="#007DC5" stroke-linecap="round" stroke-linejoin="round"/>
<path d="M30.6777 12.0625H32.5368" stroke="#007DC5" stroke-linecap="round" stroke-linejoin="round"/>
<path d="M34.1777 11.1875V9.4375" stroke="#007DC5" stroke-linecap="round" stroke-linejoin="round"/>
<path d="M31.5527 19.5H34.1777V16.875H31.5527" stroke="#007DC5" stroke-linecap="round" stroke-linejoin="round"/>
<path d="M28.9277 10.75L26.7402 9.875" stroke="#007DC5" stroke-linecap="round" stroke-linejoin="round"/>
<path d="M28.9277 13.375L26.7402 14.25" stroke="#007DC5" stroke-linecap="round" stroke-linejoin="round"/>
<path d="M28.0527 12.0625H26.4375" stroke="#007DC5" stroke-linecap="round" stroke-linejoin="round"/>
</g>
<path d="M13.1 41.124H11.4301V44H10.4877V36.8906H12.8412C13.642 36.8906 14.2572 37.0729 14.6869 37.4375C15.1199 37.8021 15.3363 38.3327 15.3363 39.0293C15.3363 39.472 15.2159 39.8577 14.975 40.1865C14.7374 40.5153 14.4053 40.7611 13.9789 40.9238L15.6488 43.9414V44H14.643L13.1 41.124ZM11.4301 40.3574H12.8705C13.336 40.3574 13.7055 40.237 13.9789 39.9961C14.2556 39.7552 14.3939 39.4329 14.3939 39.0293C14.3939 38.5898 14.2621 38.2529 13.9984 38.0186C13.738 37.7842 13.3604 37.6654 12.8656 37.6621H11.4301V40.3574ZM18.4055 44.0977C17.6893 44.0977 17.1066 43.8633 16.6574 43.3945C16.2082 42.9225 15.9836 42.2926 15.9836 41.5049V41.3389C15.9836 40.8148 16.0829 40.3477 16.2814 39.9375C16.4833 39.5241 16.7632 39.2018 17.1213 38.9707C17.4826 38.7363 17.8732 38.6191 18.2932 38.6191C18.98 38.6191 19.5139 38.8454 19.8947 39.2979C20.2756 39.7503 20.466 40.3981 20.466 41.2412V41.6172H16.8869C16.8999 42.138 17.0513 42.5596 17.341 42.8818C17.634 43.2008 18.0051 43.3604 18.4543 43.3604C18.7733 43.3604 19.0435 43.2952 19.2648 43.165C19.4862 43.0348 19.6799 42.8623 19.8459 42.6475L20.3977 43.0771C19.9549 43.7575 19.2909 44.0977 18.4055 44.0977ZM18.2932 39.3613C17.9286 39.3613 17.6226 39.4948 17.3752 39.7617C17.1278 40.0254 16.9748 40.3965 16.9162 40.875H19.5627V40.8066C19.5367 40.3477 19.413 39.9928 19.1916 39.7422C18.9702 39.4883 18.6708 39.3613 18.2932 39.3613ZM25.6787 41.417C25.6787 42.221 25.4948 42.8688 25.127 43.3604C24.7591 43.8519 24.2611 44.0977 23.6328 44.0977C22.9915 44.0977 22.487 43.8942 22.1191 43.4873V46.0312H21.2158V38.7168H22.041L22.085 39.3027C22.4528 38.847 22.9639 38.6191 23.6182 38.6191C24.2529 38.6191 24.7542 38.8584 25.1221 39.3369C25.4932 39.8154 25.6787 40.4811 25.6787 41.334V41.417ZM24.7754 41.3145C24.7754 40.7188 24.6484 40.2484 24.3945 39.9033C24.1406 39.5583 23.7923 39.3857 23.3496 39.3857C22.8027 39.3857 22.3926 39.6283 22.1191 40.1133V42.6377C22.3893 43.1195 22.8027 43.3604 23.3594 43.3604C23.7923 43.3604 24.1357 43.1895 24.3896 42.8477C24.6468 42.5026 24.7754 41.9915 24.7754 41.3145ZM28.7234 44.0977C28.0073 44.0977 27.4246 43.8633 26.9754 43.3945C26.5262 42.9225 26.3016 42.2926 26.3016 41.5049V41.3389C26.3016 40.8148 26.4008 40.3477 26.5994 39.9375C26.8012 39.5241 27.0812 39.2018 27.4393 38.9707C27.8006 38.7363 28.1912 38.6191 28.6111 38.6191C29.298 38.6191 29.8318 38.8454 30.2127 39.2979C30.5936 39.7503 30.784 40.3981 30.784 41.2412V41.6172H27.2049C27.2179 42.138 27.3693 42.5596 27.659 42.8818C27.952 43.2008 28.323 43.3604 28.7723 43.3604C29.0913 43.3604 29.3615 43.2952 29.5828 43.165C29.8042 43.0348 29.9979 42.8623 30.1639 42.6475L30.7156 43.0771C30.2729 43.7575 29.6089 44.0977 28.7234 44.0977ZM28.6111 39.3613C28.2466 39.3613 27.9406 39.4948 27.6932 39.7617C27.4458 40.0254 27.2928 40.3965 27.2342 40.875H29.8807V40.8066C29.8546 40.3477 29.7309 39.9928 29.5096 39.7422C29.2882 39.4883 28.9887 39.3613 28.6111 39.3613ZM32.5152 44H31.6119V36.5H32.5152V44ZM35.8578 44.0977C35.1417 44.0977 34.559 43.8633 34.1098 43.3945C33.6605 42.9225 33.4359 42.2926 33.4359 41.5049V41.3389C33.4359 40.8148 33.5352 40.3477 33.7338 39.9375C33.9356 39.5241 34.2156 39.2018 34.5736 38.9707C34.935 38.7363 35.3256 38.6191 35.7455 38.6191C36.4324 38.6191 36.9662 38.8454 37.3471 39.2979C37.7279 39.7503 37.9184 40.3981 37.9184 41.2412V41.6172H34.3393C34.3523 42.138 34.5036 42.5596 34.7934 42.8818C35.0863 43.2008 35.4574 43.3604 35.9066 43.3604C36.2256 43.3604 36.4958 43.2952 36.7172 43.165C36.9385 43.0348 37.1322 42.8623 37.2982 42.6475L37.85 43.0771C37.4073 43.7575 36.7432 44.0977 35.8578 44.0977ZM35.7455 39.3613C35.3809 39.3613 35.0749 39.4948 34.8275 39.7617C34.5801 40.0254 34.4271 40.3965 34.3686 40.875H37.015V40.8066C36.989 40.3477 36.8653 39.9928 36.6439 39.7422C36.4226 39.4883 36.1231 39.3613 35.7455 39.3613ZM39.5227 38.7168L39.552 39.3809C39.9556 38.873 40.4829 38.6191 41.134 38.6191C42.2505 38.6191 42.8137 39.249 42.8234 40.5088V44H41.9201V40.5039C41.9169 40.123 41.829 39.8415 41.6564 39.6592C41.4872 39.4769 41.2219 39.3857 40.8605 39.3857C40.5676 39.3857 40.3104 39.4639 40.0891 39.6201C39.8677 39.7764 39.6952 39.9814 39.5715 40.2354V44H38.6682V38.7168H39.5227ZM45.1113 37.4375V38.7168H46.0977V39.415H45.1113V42.6914C45.1113 42.903 45.1553 43.0625 45.2432 43.1699C45.3311 43.2741 45.4808 43.3262 45.6924 43.3262C45.7965 43.3262 45.9398 43.3066 46.1221 43.2676V44C45.8844 44.0651 45.6533 44.0977 45.4287 44.0977C45.0251 44.0977 44.7207 43.9756 44.5156 43.7314C44.3105 43.4873 44.208 43.1406 44.208 42.6914V39.415H43.2461V38.7168H44.208V37.4375H45.1113ZM49.0496 44.0977C48.3335 44.0977 47.7508 43.8633 47.3016 43.3945C46.8523 42.9225 46.6277 42.2926 46.6277 41.5049V41.3389C46.6277 40.8148 46.727 40.3477 46.9256 39.9375C47.1274 39.5241 47.4074 39.2018 47.7654 38.9707C48.1268 38.7363 48.5174 38.6191 48.9373 38.6191C49.6242 38.6191 50.158 38.8454 50.5389 39.2979C50.9197 39.7503 51.1102 40.3981 51.1102 41.2412V41.6172H47.5311C47.5441 42.138 47.6954 42.5596 47.9852 42.8818C48.2781 43.2008 48.6492 43.3604 49.0984 43.3604C49.4174 43.3604 49.6876 43.2952 49.909 43.165C50.1303 43.0348 50.324 42.8623 50.49 42.6475L51.0418 43.0771C50.5991 43.7575 49.935 44.0977 49.0496 44.0977ZM48.9373 39.3613C48.5727 39.3613 48.2667 39.4948 48.0193 39.7617C47.7719 40.0254 47.6189 40.3965 47.5603 40.875H50.2068V40.8066C50.1808 40.3477 50.0571 39.9928 49.8357 39.7422C49.6144 39.4883 49.3149 39.3613 48.9373 39.3613ZM54.9361 42.5986C54.9361 42.3545 54.8434 42.1657 54.6578 42.0322C54.4755 41.8955 54.1549 41.7783 53.6959 41.6807C53.2402 41.583 52.8772 41.4658 52.607 41.3291C52.3401 41.1924 52.1415 41.0296 52.0113 40.8408C51.8844 40.652 51.8209 40.4274 51.8209 40.167C51.8209 39.734 52.0032 39.3678 52.3678 39.0684C52.7356 38.7689 53.2044 38.6191 53.774 38.6191C54.373 38.6191 54.858 38.7738 55.2291 39.083C55.6035 39.3923 55.7906 39.7878 55.7906 40.2695H54.8824C54.8824 40.0221 54.7766 39.8089 54.565 39.6299C54.3567 39.4508 54.093 39.3613 53.774 39.3613C53.4452 39.3613 53.1881 39.4329 53.0025 39.5762C52.817 39.7194 52.7242 39.9066 52.7242 40.1377C52.7242 40.3558 52.8105 40.5202 52.983 40.6309C53.1555 40.7415 53.4664 40.8473 53.9156 40.9482C54.3681 41.0492 54.7343 41.1696 55.0143 41.3096C55.2942 41.4495 55.5009 41.6188 55.6344 41.8174C55.7711 42.0127 55.8395 42.252 55.8395 42.5352C55.8395 43.0072 55.6507 43.3864 55.273 43.6729C54.8954 43.9561 54.4055 44.0977 53.8033 44.0977C53.3801 44.0977 53.0058 44.0228 52.6803 43.873C52.3548 43.7233 52.0992 43.515 51.9137 43.248C51.7314 42.9779 51.6402 42.6865 51.6402 42.374H52.5436C52.5598 42.6768 52.6803 42.9176 52.9049 43.0967C53.1327 43.2725 53.4322 43.3604 53.8033 43.3604C54.1451 43.3604 54.4186 43.292 54.6236 43.1553C54.832 43.0153 54.9361 42.8298 54.9361 42.5986Z" fill="#666666"/>
<defs>
<filter id="filter0_d_7838:60042" x="0" y="0" width="66" height="34" filterUnits="userSpaceOnUse" color-interpolation-filters="sRGB">
<feFlood flood-opacity="0" result="BackgroundImageFix"/>
<feColorMatrix in="SourceAlpha" type="matrix" values="0 0 0 0 0 0 0 0 0 0 0 0 0 0 0 0 0 0 127 0" result="hardAlpha"/>
<feOffset dy="1"/>
<feGaussianBlur stdDeviation="1"/>
<feColorMatrix type="matrix" values="0 0 0 0 0 0 0 0 0 0 0 0 0 0 0 0 0 0 0.2 0"/>
<feBlend mode="normal" in2="BackgroundImageFix" result="effect1_dropShadow_7838:60042"/>
<feBlend mode="normal" in="SourceGraphic" in2="effect1_dropShadow_7838:60042" result="shape"/>
</filter>
</defs>
</svg>
