<svg width="66" height="61" viewBox="0 0 66 61" fill="none" xmlns="http://www.w3.org/2000/svg">
<g filter="url(#filter0_d_7838:60021)">
<rect x="2" y="1" width="62" height="30" rx="8" fill="#E7F3F9"/>
<path d="M29.5 13.8125V22.125C29.5 22.3666 29.6959 22.5625 29.9375 22.5625H36.0625C36.3041 22.5625 36.5 22.3666 36.5 22.125V13.8125" stroke="#007DC5" stroke-linecap="round" stroke-linejoin="round"/>
<path d="M36.5 16.4375H38.6875C38.9291 16.4375 39.125 16.2416 39.125 16V12.9375C39.125 11.0045 37.558 9.4375 35.625 9.4375H34.75C34.75 10.404 33.9665 11.1875 33 11.1875C32.0335 11.1875 31.25 10.404 31.25 9.4375H30.375C28.442 9.4375 26.875 11.0045 26.875 12.9375V16C26.875 16.2416 27.0709 16.4375 27.3125 16.4375H29.5" stroke="#007DC5" stroke-linecap="round" stroke-linejoin="round"/>
</g>
<path d="M16.9441 41.124H15.2742V44H14.3318V36.8906H16.6854C17.4861 36.8906 18.1014 37.0729 18.5311 37.4375C18.964 37.8021 19.1805 38.3327 19.1805 39.0293C19.1805 39.472 19.06 39.8577 18.8191 40.1865C18.5815 40.5153 18.2495 40.7611 17.823 40.9238L19.493 43.9414V44H18.4871L16.9441 41.124ZM15.2742 40.3574H16.7146C17.1801 40.3574 17.5496 40.237 17.823 39.9961C18.0997 39.7552 18.2381 39.4329 18.2381 39.0293C18.2381 38.5898 18.1063 38.2529 17.8426 38.0186C17.5822 37.7842 17.2046 37.6654 16.7098 37.6621H15.2742V40.3574ZM19.818 41.3096C19.818 40.792 19.9189 40.3265 20.1207 39.9131C20.3258 39.4997 20.609 39.1807 20.9703 38.9561C21.3349 38.7314 21.7499 38.6191 22.2154 38.6191C22.9348 38.6191 23.5159 38.8682 23.9586 39.3662C24.4046 39.8643 24.6275 40.5267 24.6275 41.3535V41.417C24.6275 41.9313 24.5283 42.3936 24.3297 42.8037C24.1344 43.2106 23.8528 43.528 23.485 43.7559C23.1204 43.9837 22.7005 44.0977 22.2252 44.0977C21.5091 44.0977 20.928 43.8486 20.482 43.3506C20.0393 42.8525 19.818 42.1934 19.818 41.373V41.3096ZM20.7262 41.417C20.7262 42.0029 20.8613 42.4733 21.1314 42.8281C21.4049 43.1829 21.7695 43.3604 22.2252 43.3604C22.6842 43.3604 23.0488 43.1813 23.3189 42.8232C23.5891 42.4619 23.7242 41.9574 23.7242 41.3096C23.7242 40.7301 23.5859 40.2614 23.3092 39.9033C23.0357 39.542 22.6712 39.3613 22.2154 39.3613C21.7695 39.3613 21.4098 39.5387 21.1363 39.8936C20.8629 40.2484 20.7262 40.7562 20.7262 41.417ZM28.7221 43.4775C28.3705 43.891 27.8546 44.0977 27.1742 44.0977C26.6111 44.0977 26.1814 43.9349 25.8852 43.6094C25.5922 43.2806 25.4441 42.7956 25.4408 42.1543V38.7168H26.3441V42.1299C26.3441 42.9307 26.6697 43.3311 27.3207 43.3311C28.0108 43.3311 28.4698 43.0739 28.6977 42.5596V38.7168H29.601V44H28.7416L28.7221 43.4775ZM35.1408 41.417C35.1408 42.221 34.9569 42.8688 34.5891 43.3604C34.2212 43.8519 33.7232 44.0977 33.0949 44.0977C32.4536 44.0977 31.9491 43.8942 31.5813 43.4873V46.0312H30.6779V38.7168H31.5031L31.5471 39.3027C31.9149 38.847 32.426 38.6191 33.0803 38.6191C33.715 38.6191 34.2163 38.8584 34.5842 39.3369C34.9553 39.8154 35.1408 40.4811 35.1408 41.334V41.417ZM34.2375 41.3145C34.2375 40.7188 34.1105 40.2484 33.8566 39.9033C33.6027 39.5583 33.2544 39.3857 32.8117 39.3857C32.2648 39.3857 31.8547 39.6283 31.5813 40.1133V42.6377C31.8514 43.1195 32.2648 43.3604 32.8215 43.3604C33.2544 43.3604 33.5979 43.1895 33.8518 42.8477C34.1089 42.5026 34.2375 41.9915 34.2375 41.3145ZM39.2549 44C39.2028 43.8958 39.1605 43.7103 39.1279 43.4434C38.708 43.8796 38.2067 44.0977 37.624 44.0977C37.1032 44.0977 36.6751 43.9512 36.3398 43.6582C36.0078 43.362 35.8418 42.9876 35.8418 42.5352C35.8418 41.985 36.0501 41.5586 36.4668 41.2559C36.8867 40.9499 37.4759 40.7969 38.2344 40.7969H39.1133V40.3818C39.1133 40.0661 39.0189 39.8154 38.8301 39.6299C38.6413 39.4411 38.363 39.3467 37.9951 39.3467C37.6729 39.3467 37.4027 39.4281 37.1846 39.5908C36.9665 39.7536 36.8574 39.9505 36.8574 40.1816H35.9492C35.9492 39.918 36.042 39.6641 36.2275 39.4199C36.4163 39.1725 36.6702 38.9772 36.9893 38.834C37.3115 38.6908 37.6647 38.6191 38.0488 38.6191C38.6576 38.6191 39.1344 38.7721 39.4795 39.0781C39.8245 39.3809 40.0036 39.7992 40.0166 40.333V42.7646C40.0166 43.2497 40.0785 43.6354 40.2021 43.9219V44H39.2549ZM37.7559 43.3115C38.0391 43.3115 38.3076 43.2383 38.5615 43.0918C38.8154 42.9453 38.9993 42.7549 39.1133 42.5205V41.4365H38.4053C37.2985 41.4365 36.7451 41.7604 36.7451 42.4082C36.7451 42.6914 36.8395 42.9128 37.0283 43.0723C37.2171 43.2318 37.4596 43.3115 37.7559 43.3115ZM44.2088 42.5986C44.2088 42.3545 44.116 42.1657 43.9305 42.0322C43.7482 41.8955 43.4275 41.7783 42.9686 41.6807C42.5128 41.583 42.1499 41.4658 41.8797 41.3291C41.6128 41.1924 41.4142 41.0296 41.284 40.8408C41.157 40.652 41.0936 40.4274 41.0936 40.167C41.0936 39.734 41.2758 39.3678 41.6404 39.0684C42.0083 38.7689 42.477 38.6191 43.0467 38.6191C43.6456 38.6191 44.1307 38.7738 44.5018 39.083C44.8761 39.3923 45.0633 39.7878 45.0633 40.2695H44.1551C44.1551 40.0221 44.0493 39.8089 43.8377 39.6299C43.6294 39.4508 43.3657 39.3613 43.0467 39.3613C42.7179 39.3613 42.4607 39.4329 42.2752 39.5762C42.0896 39.7194 41.9969 39.9066 41.9969 40.1377C41.9969 40.3558 42.0831 40.5202 42.2557 40.6309C42.4282 40.7415 42.7391 40.8473 43.1883 40.9482C43.6408 41.0492 44.007 41.1696 44.2869 41.3096C44.5669 41.4495 44.7736 41.6188 44.907 41.8174C45.0438 42.0127 45.1121 42.252 45.1121 42.5352C45.1121 43.0072 44.9233 43.3864 44.5457 43.6729C44.1681 43.9561 43.6782 44.0977 43.076 44.0977C42.6528 44.0977 42.2785 44.0228 41.9529 43.873C41.6274 43.7233 41.3719 43.515 41.1863 43.248C41.004 42.9779 40.9129 42.6865 40.9129 42.374H41.8162C41.8325 42.6768 41.9529 42.9176 42.1775 43.0967C42.4054 43.2725 42.7049 43.3604 43.076 43.3604C43.4178 43.3604 43.6912 43.292 43.8963 43.1553C44.1046 43.0153 44.2088 42.8298 44.2088 42.5986ZM50.3617 44.0977C49.6456 44.0977 49.0629 43.8633 48.6137 43.3945C48.1645 42.9225 47.9398 42.2926 47.9398 41.5049V41.3389C47.9398 40.8148 48.0391 40.3477 48.2377 39.9375C48.4395 39.5241 48.7195 39.2018 49.0775 38.9707C49.4389 38.7363 49.8295 38.6191 50.2494 38.6191C50.9363 38.6191 51.4701 38.8454 51.851 39.2979C52.2318 39.7503 52.4223 40.3981 52.4223 41.2412V41.6172H48.8432C48.8562 42.138 49.0076 42.5596 49.2973 42.8818C49.5902 43.2008 49.9613 43.3604 50.4105 43.3604C50.7296 43.3604 50.9997 43.2952 51.2211 43.165C51.4425 43.0348 51.6361 42.8623 51.8022 42.6475L52.3539 43.0771C51.9112 43.7575 51.2471 44.0977 50.3617 44.0977ZM50.2494 39.3613C49.8848 39.3613 49.5788 39.4948 49.3314 39.7617C49.0841 40.0254 48.9311 40.3965 48.8725 40.875H51.5189V40.8066C51.4929 40.3477 51.3692 39.9928 51.1479 39.7422C50.9265 39.4883 50.627 39.3613 50.2494 39.3613ZM13.9594 56C13.9073 55.8958 13.865 55.7103 13.8324 55.4434C13.4125 55.8796 12.9112 56.0977 12.3285 56.0977C11.8077 56.0977 11.3796 55.9512 11.0443 55.6582C10.7123 55.362 10.5463 54.9876 10.5463 54.5352C10.5463 53.985 10.7546 53.5586 11.1713 53.2559C11.5912 52.9499 12.1804 52.7969 12.9389 52.7969H13.8178V52.3818C13.8178 52.0661 13.7234 51.8154 13.5346 51.6299C13.3458 51.4411 13.0674 51.3467 12.6996 51.3467C12.3773 51.3467 12.1072 51.4281 11.8891 51.5908C11.671 51.7536 11.5619 51.9505 11.5619 52.1816H10.6537C10.6537 51.918 10.7465 51.6641 10.932 51.4199C11.1208 51.1725 11.3747 50.9772 11.6938 50.834C12.016 50.6908 12.3692 50.6191 12.7533 50.6191C13.362 50.6191 13.8389 50.7721 14.184 51.0781C14.529 51.3809 14.7081 51.7992 14.7211 52.333V54.7646C14.7211 55.2497 14.7829 55.6354 14.9066 55.9219V56H13.9594ZM12.4604 55.3115C12.7436 55.3115 13.0121 55.2383 13.266 55.0918C13.5199 54.9453 13.7038 54.7549 13.8178 54.5205V53.4365H13.1098C12.003 53.4365 11.4496 53.7604 11.4496 54.4082C11.4496 54.6914 11.544 54.9128 11.7328 55.0723C11.9216 55.2318 12.1641 55.3115 12.4604 55.3115ZM17.9562 55.3604C18.2785 55.3604 18.5601 55.2627 18.801 55.0674C19.0419 54.8721 19.1753 54.6279 19.2014 54.335H20.0559C20.0396 54.6377 19.9354 54.9258 19.7434 55.1992C19.5513 55.4727 19.2941 55.6908 18.9719 55.8535C18.6529 56.0163 18.3143 56.0977 17.9562 56.0977C17.2368 56.0977 16.6639 55.8584 16.2375 55.3799C15.8143 54.8981 15.6027 54.2406 15.6027 53.4072V53.2559C15.6027 52.7415 15.6971 52.2842 15.8859 51.8838C16.0747 51.4834 16.3449 51.1725 16.6965 50.9512C17.0513 50.7298 17.4696 50.6191 17.9514 50.6191C18.5438 50.6191 19.0354 50.7965 19.426 51.1514C19.8199 51.5062 20.0298 51.9668 20.0559 52.5332H19.2014C19.1753 52.1914 19.0451 51.9115 18.8107 51.6934C18.5796 51.472 18.2932 51.3613 17.9514 51.3613C17.4924 51.3613 17.1359 51.5273 16.882 51.8594C16.6314 52.1882 16.5061 52.665 16.5061 53.29V53.4609C16.5061 54.0697 16.6314 54.5384 16.882 54.8672C17.1327 55.196 17.4908 55.3604 17.9562 55.3604ZM22.9639 56.0977C22.2477 56.0977 21.665 55.8633 21.2158 55.3945C20.7666 54.9225 20.542 54.2926 20.542 53.5049V53.3389C20.542 52.8148 20.6413 52.3477 20.8398 51.9375C21.0417 51.5241 21.3216 51.2018 21.6797 50.9707C22.041 50.7363 22.4316 50.6191 22.8516 50.6191C23.5384 50.6191 24.0723 50.8454 24.4531 51.2979C24.834 51.7503 25.0244 52.3981 25.0244 53.2412V53.6172H21.4453C21.4583 54.138 21.6097 54.5596 21.8994 54.8818C22.1924 55.2008 22.5635 55.3604 23.0127 55.3604C23.3317 55.3604 23.6019 55.2952 23.8232 55.165C24.0446 55.0348 24.2383 54.8623 24.4043 54.6475L24.9561 55.0771C24.5133 55.7575 23.8493 56.0977 22.9639 56.0977ZM22.8516 51.3613C22.487 51.3613 22.181 51.4948 21.9336 51.7617C21.6862 52.0254 21.5332 52.3965 21.4746 52.875H24.1211V52.8066C24.0951 52.3477 23.9714 51.9928 23.75 51.7422C23.5286 51.4883 23.2292 51.3613 22.8516 51.3613ZM28.8504 54.5986C28.8504 54.3545 28.7576 54.1657 28.5721 54.0322C28.3898 53.8955 28.0691 53.7783 27.6102 53.6807C27.1544 53.583 26.7915 53.4658 26.5213 53.3291C26.2544 53.1924 26.0558 53.0296 25.9256 52.8408C25.7986 52.652 25.7352 52.4274 25.7352 52.167C25.7352 51.734 25.9174 51.3678 26.282 51.0684C26.6499 50.7689 27.1186 50.6191 27.6883 50.6191C28.2872 50.6191 28.7723 50.7738 29.1434 51.083C29.5177 51.3923 29.7049 51.7878 29.7049 52.2695H28.7967C28.7967 52.0221 28.6909 51.8089 28.4793 51.6299C28.271 51.4508 28.0073 51.3613 27.6883 51.3613C27.3595 51.3613 27.1023 51.4329 26.9168 51.5762C26.7313 51.7194 26.6385 51.9066 26.6385 52.1377C26.6385 52.3558 26.7247 52.5202 26.8973 52.6309C27.0698 52.7415 27.3807 52.8473 27.8299 52.9482C28.2824 53.0492 28.6486 53.1696 28.9285 53.3096C29.2085 53.4495 29.4152 53.6188 29.5486 53.8174C29.6854 54.0127 29.7537 54.252 29.7537 54.5352C29.7537 55.0072 29.5649 55.3864 29.1873 55.6729C28.8097 55.9561 28.3198 56.0977 27.7176 56.0977C27.2944 56.0977 26.9201 56.0228 26.5945 55.873C26.269 55.7233 26.0135 55.515 25.8279 55.248C25.6456 54.9779 25.5545 54.6865 25.5545 54.374H26.4578C26.4741 54.6768 26.5945 54.9176 26.8191 55.0967C27.047 55.2725 27.3465 55.3604 27.7176 55.3604C28.0594 55.3604 28.3328 55.292 28.5379 55.1553C28.7462 55.0153 28.8504 54.8298 28.8504 54.5986ZM33.7066 54.5986C33.7066 54.3545 33.6139 54.1657 33.4283 54.0322C33.246 53.8955 32.9254 53.7783 32.4664 53.6807C32.0107 53.583 31.6477 53.4658 31.3775 53.3291C31.1106 53.1924 30.912 53.0296 30.7818 52.8408C30.6549 52.652 30.5914 52.4274 30.5914 52.167C30.5914 51.734 30.7737 51.3678 31.1383 51.0684C31.5061 50.7689 31.9749 50.6191 32.5445 50.6191C33.1435 50.6191 33.6285 50.7738 33.9996 51.083C34.374 51.3923 34.5611 51.7878 34.5611 52.2695H33.6529C33.6529 52.0221 33.5471 51.8089 33.3355 51.6299C33.1272 51.4508 32.8635 51.3613 32.5445 51.3613C32.2158 51.3613 31.9586 51.4329 31.773 51.5762C31.5875 51.7194 31.4947 51.9066 31.4947 52.1377C31.4947 52.3558 31.581 52.5202 31.7535 52.6309C31.926 52.7415 32.2369 52.8473 32.6861 52.9482C33.1386 53.0492 33.5048 53.1696 33.7848 53.3096C34.0647 53.4495 34.2714 53.6188 34.4049 53.8174C34.5416 54.0127 34.61 54.252 34.61 54.5352C34.61 55.0072 34.4212 55.3864 34.0436 55.6729C33.666 55.9561 33.176 56.0977 32.5738 56.0977C32.1507 56.0977 31.7763 56.0228 31.4508 55.873C31.1253 55.7233 30.8697 55.515 30.6842 55.248C30.5019 54.9779 30.4107 54.6865 30.4107 54.374H31.3141C31.3303 54.6768 31.4508 54.9176 31.6754 55.0967C31.9033 55.2725 32.2027 55.3604 32.5738 55.3604C32.9156 55.3604 33.1891 55.292 33.3941 55.1553C33.6025 55.0153 33.7066 54.8298 33.7066 54.5986ZM35.2475 53.3096C35.2475 52.792 35.3484 52.3265 35.5502 51.9131C35.7553 51.4997 36.0385 51.1807 36.3998 50.9561C36.7644 50.7314 37.1794 50.6191 37.6449 50.6191C38.3643 50.6191 38.9454 50.8682 39.3881 51.3662C39.834 51.8643 40.057 52.5267 40.057 53.3535V53.417C40.057 53.9313 39.9577 54.3936 39.7592 54.8037C39.5639 55.2106 39.2823 55.528 38.9145 55.7559C38.5499 55.9837 38.1299 56.0977 37.6547 56.0977C36.9385 56.0977 36.3575 55.8486 35.9115 55.3506C35.4688 54.8525 35.2475 54.1934 35.2475 53.373V53.3096ZM36.1557 53.417C36.1557 54.0029 36.2908 54.4733 36.5609 54.8281C36.8344 55.1829 37.199 55.3604 37.6547 55.3604C38.1137 55.3604 38.4783 55.1813 38.7484 54.8232C39.0186 54.4619 39.1537 53.9574 39.1537 53.3096C39.1537 52.7301 39.0154 52.2614 38.7387 51.9033C38.4652 51.542 38.1006 51.3613 37.6449 51.3613C37.199 51.3613 36.8393 51.5387 36.5658 51.8936C36.2924 52.2484 36.1557 52.7562 36.1557 53.417ZM38.0551 48.5H39.1488L37.8402 49.9355H37.1127L38.0551 48.5ZM43.4436 51.5273C43.3068 51.5046 43.1587 51.4932 42.9992 51.4932C42.4068 51.4932 42.0048 51.7454 41.7932 52.25V56H40.8898V50.7168H41.7688L41.7834 51.3271C42.0796 50.8551 42.4995 50.6191 43.0432 50.6191C43.2189 50.6191 43.3524 50.6419 43.4436 50.6875V51.5273ZM44.96 56H44.0566V50.7168H44.96V56ZM43.9834 49.3154C43.9834 49.1689 44.0273 49.0452 44.1152 48.9443C44.2064 48.8434 44.3398 48.793 44.5156 48.793C44.6914 48.793 44.8249 48.8434 44.916 48.9443C45.0072 49.0452 45.0527 49.1689 45.0527 49.3154C45.0527 49.4619 45.0072 49.584 44.916 49.6816C44.8249 49.7793 44.6914 49.8281 44.5156 49.8281C44.3398 49.8281 44.2064 49.7793 44.1152 49.6816C44.0273 49.584 43.9834 49.4619 43.9834 49.3154ZM45.8709 53.3096C45.8709 52.792 45.9718 52.3265 46.1736 51.9131C46.3787 51.4997 46.6619 51.1807 47.0232 50.9561C47.3878 50.7314 47.8029 50.6191 48.2684 50.6191C48.9878 50.6191 49.5688 50.8682 50.0115 51.3662C50.4575 51.8643 50.6805 52.5267 50.6805 53.3535V53.417C50.6805 53.9313 50.5812 54.3936 50.3826 54.8037C50.1873 55.2106 49.9057 55.528 49.5379 55.7559C49.1733 55.9837 48.7534 56.0977 48.2781 56.0977C47.562 56.0977 46.9809 55.8486 46.535 55.3506C46.0922 54.8525 45.8709 54.1934 45.8709 53.373V53.3096ZM46.7791 53.417C46.7791 54.0029 46.9142 54.4733 47.1844 54.8281C47.4578 55.1829 47.8224 55.3604 48.2781 55.3604C48.7371 55.3604 49.1017 55.1813 49.3719 54.8232C49.6421 54.4619 49.7771 53.9574 49.7771 53.3096C49.7771 52.7301 49.6388 52.2614 49.3621 51.9033C49.0887 51.542 48.7241 51.3613 48.2684 51.3613C47.8224 51.3613 47.4627 51.5387 47.1893 51.8936C46.9158 52.2484 46.7791 52.7562 46.7791 53.417ZM54.5895 54.5986C54.5895 54.3545 54.4967 54.1657 54.3111 54.0322C54.1288 53.8955 53.8082 53.7783 53.3492 53.6807C52.8935 53.583 52.5305 53.4658 52.2604 53.3291C51.9934 53.1924 51.7949 53.0296 51.6646 52.8408C51.5377 52.652 51.4742 52.4274 51.4742 52.167C51.4742 51.734 51.6565 51.3678 52.0211 51.0684C52.3889 50.7689 52.8577 50.6191 53.4273 50.6191C54.0263 50.6191 54.5113 50.7738 54.8824 51.083C55.2568 51.3923 55.4439 51.7878 55.4439 52.2695H54.5357C54.5357 52.0221 54.4299 51.8089 54.2184 51.6299C54.01 51.4508 53.7464 51.3613 53.4273 51.3613C53.0986 51.3613 52.8414 51.4329 52.6559 51.5762C52.4703 51.7194 52.3775 51.9066 52.3775 52.1377C52.3775 52.3558 52.4638 52.5202 52.6363 52.6309C52.8089 52.7415 53.1197 52.8473 53.5689 52.9482C54.0214 53.0492 54.3876 53.1696 54.6676 53.3096C54.9475 53.4495 55.1542 53.6188 55.2877 53.8174C55.4244 54.0127 55.4928 54.252 55.4928 54.5352C55.4928 55.0072 55.304 55.3864 54.9264 55.6729C54.5488 55.9561 54.0589 56.0977 53.4566 56.0977C53.0335 56.0977 52.6591 56.0228 52.3336 55.873C52.0081 55.7233 51.7525 55.515 51.567 55.248C51.3847 54.9779 51.2936 54.6865 51.2936 54.374H52.1969C52.2132 54.6768 52.3336 54.9176 52.5582 55.0967C52.7861 55.2725 53.0855 55.3604 53.4566 55.3604C53.7984 55.3604 54.0719 55.292 54.277 55.1553C54.4853 55.0153 54.5895 54.8298 54.5895 54.5986Z" fill="#666666"/>
<defs>
<filter id="filter0_d_7838:60021" x="0" y="0" width="66" height="34" filterUnits="userSpaceOnUse" color-interpolation-filters="sRGB">
<feFlood flood-opacity="0" result="BackgroundImageFix"/>
<feColorMatrix in="SourceAlpha" type="matrix" values="0 0 0 0 0 0 0 0 0 0 0 0 0 0 0 0 0 0 127 0" result="hardAlpha"/>
<feOffset dy="1"/>
<feGaussianBlur stdDeviation="1"/>
<feColorMatrix type="matrix" values="0 0 0 0 0 0 0 0 0 0 0 0 0 0 0 0 0 0 0.2 0"/>
<feBlend mode="normal" in2="BackgroundImageFix" result="effect1_dropShadow_7838:60021"/>
<feBlend mode="normal" in="SourceGraphic" in2="effect1_dropShadow_7838:60021" result="shape"/>
</filter>
</defs>
</svg>
