<svg width="66" height="61" viewBox="0 0 66 61" fill="none" xmlns="http://www.w3.org/2000/svg">
<g filter="url(#filter0_d_7838:60062)">
<rect x="2" y="1" width="62" height="30" rx="8" fill="#E7F3F9"/>
<path fill-rule="evenodd" clip-rule="evenodd" d="M37.375 13.8125H38.6875C39.1707 13.8125 39.5625 13.4207 39.5625 12.9375V11.3567C39.5625 10.9916 39.3358 10.6649 38.9937 10.5371C38.0021 10.1667 36.0625 9.4445 36.0619 9.4375H35.1869C35.1869 10.6456 34.2075 11.625 32.9994 11.625C31.7913 11.625 30.8119 10.6456 30.8119 9.4375H29.9369C29.9375 9.4445 27.9979 10.1667 27.0062 10.5371C26.6642 10.6649 26.4375 10.9916 26.4375 11.3567V12.9375C26.4375 13.4207 26.8293 13.8125 27.3125 13.8125H28.625V21.0312C28.625 21.8769 29.3106 22.5625 30.1562 22.5625C31.0019 22.5625 31.6875 21.8769 31.6875 21.0312V19.0625C31.6875 18.3376 32.2751 17.75 33 17.75C33.7249 17.75 34.3125 18.3376 34.3125 19.0625V21.0312C34.3125 21.8769 34.9981 22.5625 35.8437 22.5625C36.6894 22.5625 37.375 21.8769 37.375 21.0312V13.8125Z" stroke="#007DC5" stroke-linecap="round" stroke-linejoin="round"/>
<path d="M33 15.5625C33.1208 15.5625 33.2188 15.6604 33.2188 15.7813" stroke="#007DC5" stroke-linecap="round" stroke-linejoin="round"/>
<path d="M32.7812 15.7813C32.7812 15.6604 32.8792 15.5625 33 15.5625" stroke="#007DC5" stroke-linecap="round" stroke-linejoin="round"/>
<path d="M33 16C32.8792 16 32.7812 15.9021 32.7812 15.7812" stroke="#007DC5" stroke-linecap="round" stroke-linejoin="round"/>
<path d="M33.2188 15.7812C33.2188 15.9021 33.1208 16 33 16" stroke="#007DC5" stroke-linecap="round" stroke-linejoin="round"/>
<path d="M33 13.375C33.1208 13.375 33.2188 13.4729 33.2188 13.5937" stroke="#007DC5" stroke-linecap="round" stroke-linejoin="round"/>
<path d="M32.7812 13.5937C32.7812 13.4729 32.8792 13.375 33 13.375" stroke="#007DC5" stroke-linecap="round" stroke-linejoin="round"/>
<path d="M33 13.8125C32.8792 13.8125 32.7812 13.7146 32.7812 13.5938" stroke="#007DC5" stroke-linecap="round" stroke-linejoin="round"/>
<path d="M33.2188 13.5938C33.2188 13.7146 33.1208 13.8125 33 13.8125" stroke="#007DC5" stroke-linecap="round" stroke-linejoin="round"/>
</g>
<path d="M20.3857 41.124H18.7158V44H17.7734V36.8906H20.127C20.9277 36.8906 21.543 37.0729 21.9727 37.4375C22.4056 37.8021 22.6221 38.3327 22.6221 39.0293C22.6221 39.472 22.5016 39.8577 22.2607 40.1865C22.0231 40.5153 21.6911 40.7611 21.2646 40.9238L22.9346 43.9414V44H21.9287L20.3857 41.124ZM18.7158 40.3574H20.1562C20.6217 40.3574 20.9912 40.237 21.2646 39.9961C21.5413 39.7552 21.6797 39.4329 21.6797 39.0293C21.6797 38.5898 21.5479 38.2529 21.2842 38.0186C21.0238 37.7842 20.6462 37.6654 20.1514 37.6621H18.7158V40.3574ZM23.2596 41.3096C23.2596 40.792 23.3605 40.3265 23.5623 39.9131C23.7674 39.4997 24.0506 39.1807 24.4119 38.9561C24.7765 38.7314 25.1915 38.6191 25.657 38.6191C26.3764 38.6191 26.9575 38.8682 27.4002 39.3662C27.8462 39.8643 28.0691 40.5267 28.0691 41.3535V41.417C28.0691 41.9313 27.9699 42.3936 27.7713 42.8037C27.576 43.2106 27.2944 43.528 26.9266 43.7559C26.562 43.9837 26.1421 44.0977 25.6668 44.0977C24.9507 44.0977 24.3696 43.8486 23.9236 43.3506C23.4809 42.8525 23.2596 42.1934 23.2596 41.373V41.3096ZM24.1678 41.417C24.1678 42.0029 24.3029 42.4733 24.573 42.8281C24.8465 43.1829 25.2111 43.3604 25.6668 43.3604C26.1258 43.3604 26.4904 43.1813 26.7605 42.8232C27.0307 42.4619 27.1658 41.9574 27.1658 41.3096C27.1658 40.7301 27.0275 40.2614 26.7508 39.9033C26.4773 39.542 26.1128 39.3613 25.657 39.3613C25.2111 39.3613 24.8514 39.5387 24.5779 39.8936C24.3045 40.2484 24.1678 40.7562 24.1678 41.417ZM32.1637 43.4775C31.8121 43.891 31.2962 44.0977 30.6158 44.0977C30.0527 44.0977 29.623 43.9349 29.3268 43.6094C29.0338 43.2806 28.8857 42.7956 28.8824 42.1543V38.7168H29.7857V42.1299C29.7857 42.9307 30.1113 43.3311 30.7623 43.3311C31.4524 43.3311 31.9114 43.0739 32.1393 42.5596V38.7168H33.0426V44H32.1832L32.1637 43.4775ZM38.5824 41.417C38.5824 42.221 38.3985 42.8688 38.0307 43.3604C37.6628 43.8519 37.1648 44.0977 36.5365 44.0977C35.8952 44.0977 35.3907 43.8942 35.0229 43.4873V46.0312H34.1195V38.7168H34.9447L34.9887 39.3027C35.3565 38.847 35.8676 38.6191 36.5219 38.6191C37.1566 38.6191 37.6579 38.8584 38.0258 39.3369C38.3969 39.8154 38.5824 40.4811 38.5824 41.334V41.417ZM37.6791 41.3145C37.6791 40.7188 37.5521 40.2484 37.2982 39.9033C37.0443 39.5583 36.696 39.3857 36.2533 39.3857C35.7064 39.3857 35.2963 39.6283 35.0229 40.1133V42.6377C35.293 43.1195 35.7064 43.3604 36.2631 43.3604C36.696 43.3604 37.0395 43.1895 37.2934 42.8477C37.5505 42.5026 37.6791 41.9915 37.6791 41.3145ZM42.6965 44C42.6444 43.8958 42.6021 43.7103 42.5695 43.4434C42.1496 43.8796 41.6483 44.0977 41.0656 44.0977C40.5448 44.0977 40.1167 43.9512 39.7814 43.6582C39.4494 43.362 39.2834 42.9876 39.2834 42.5352C39.2834 41.985 39.4917 41.5586 39.9084 41.2559C40.3283 40.9499 40.9175 40.7969 41.676 40.7969H42.5549V40.3818C42.5549 40.0661 42.4605 39.8154 42.2717 39.6299C42.0829 39.4411 41.8046 39.3467 41.4367 39.3467C41.1145 39.3467 40.8443 39.4281 40.6262 39.5908C40.4081 39.7536 40.299 39.9505 40.299 40.1816H39.3908C39.3908 39.918 39.4836 39.6641 39.6691 39.4199C39.8579 39.1725 40.1118 38.9772 40.4309 38.834C40.7531 38.6908 41.1063 38.6191 41.4904 38.6191C42.0992 38.6191 42.576 38.7721 42.9211 39.0781C43.2661 39.3809 43.4452 39.7992 43.4582 40.333V42.7646C43.4582 43.2497 43.5201 43.6354 43.6437 43.9219V44H42.6965ZM41.1975 43.3115C41.4807 43.3115 41.7492 43.2383 42.0031 43.0918C42.257 42.9453 42.4409 42.7549 42.5549 42.5205V41.4365H41.8469C40.7401 41.4365 40.1867 41.7604 40.1867 42.4082C40.1867 42.6914 40.2811 42.9128 40.4699 43.0723C40.6587 43.2318 40.9012 43.3115 41.1975 43.3115ZM47.6504 42.5986C47.6504 42.3545 47.5576 42.1657 47.3721 42.0322C47.1898 41.8955 46.8691 41.7783 46.4102 41.6807C45.9544 41.583 45.5915 41.4658 45.3213 41.3291C45.0544 41.1924 44.8558 41.0296 44.7256 40.8408C44.5986 40.652 44.5352 40.4274 44.5352 40.167C44.5352 39.734 44.7174 39.3678 45.082 39.0684C45.4499 38.7689 45.9186 38.6191 46.4883 38.6191C47.0872 38.6191 47.5723 38.7738 47.9434 39.083C48.3177 39.3923 48.5049 39.7878 48.5049 40.2695H47.5967C47.5967 40.0221 47.4909 39.8089 47.2793 39.6299C47.071 39.4508 46.8073 39.3613 46.4883 39.3613C46.1595 39.3613 45.9023 39.4329 45.7168 39.5762C45.5312 39.7194 45.4385 39.9066 45.4385 40.1377C45.4385 40.3558 45.5247 40.5202 45.6973 40.6309C45.8698 40.7415 46.1807 40.8473 46.6299 40.9482C47.0824 41.0492 47.4486 41.1696 47.7285 41.3096C48.0085 41.4495 48.2152 41.6188 48.3486 41.8174C48.4854 42.0127 48.5537 42.252 48.5537 42.5352C48.5537 43.0072 48.3649 43.3864 47.9873 43.6729C47.6097 43.9561 47.1198 44.0977 46.5176 44.0977C46.0944 44.0977 45.7201 44.0228 45.3945 43.873C45.069 43.7233 44.8135 43.515 44.6279 43.248C44.4456 42.9779 44.3545 42.6865 44.3545 42.374H45.2578C45.2741 42.6768 45.3945 42.9176 45.6191 43.0967C45.847 43.2725 46.1465 43.3604 46.5176 43.3604C46.8594 43.3604 47.1328 43.292 47.3379 43.1553C47.5462 43.0153 47.6504 42.8298 47.6504 42.5986Z" fill="#666666"/>
<defs>
<filter id="filter0_d_7838:60062" x="0" y="0" width="66" height="34" filterUnits="userSpaceOnUse" color-interpolation-filters="sRGB">
<feFlood flood-opacity="0" result="BackgroundImageFix"/>
<feColorMatrix in="SourceAlpha" type="matrix" values="0 0 0 0 0 0 0 0 0 0 0 0 0 0 0 0 0 0 127 0" result="hardAlpha"/>
<feOffset dy="1"/>
<feGaussianBlur stdDeviation="1"/>
<feColorMatrix type="matrix" values="0 0 0 0 0 0 0 0 0 0 0 0 0 0 0 0 0 0 0.2 0"/>
<feBlend mode="normal" in2="BackgroundImageFix" result="effect1_dropShadow_7838:60062"/>
<feBlend mode="normal" in="SourceGraphic" in2="effect1_dropShadow_7838:60062" result="shape"/>
</filter>
</defs>
</svg>
