<svg width="70" height="65" viewBox="0 0 70 65" fill="none" xmlns="http://www.w3.org/2000/svg">
<g filter="url(#filter0_d_7838:60012)">
<rect x="2" y="1" width="66" height="34" rx="8" fill="#E7F3F9"/>
<rect x="27.6875" y="12.9375" width="14.625" height="13.5" rx="3" stroke="#007DC5" stroke-linecap="round" stroke-linejoin="round"/>
<path fill-rule="evenodd" clip-rule="evenodd" d="M31.8125 9.5625H38.1875C38.6017 9.5625 38.9375 9.89829 38.9375 10.3125V12.9375H31.0625V10.3125C31.0625 9.89829 31.3983 9.5625 31.8125 9.5625Z" stroke="#007DC5" stroke-linecap="round" stroke-linejoin="round"/>
<rect x="27.6875" y="16.3125" width="14.625" height="6.75" stroke="#007DC5" stroke-linecap="round" stroke-linejoin="round"/>
<path d="M33.3125 12.9375V9.5625" stroke="#007DC5" stroke-linecap="round" stroke-linejoin="round"/>
<path d="M36.6875 12.9375V9.5625" stroke="#007DC5" stroke-linecap="round" stroke-linejoin="round"/>
<path d="M31.625 19.6875H38.375" stroke="#007DC5" stroke-linecap="round" stroke-linejoin="round"/>
<path d="M32.75 18.5625V20.8125" stroke="#007DC5" stroke-linecap="round" stroke-linejoin="round"/>
<path d="M37.25 18.5625V20.8125" stroke="#007DC5" stroke-linecap="round" stroke-linejoin="round"/>
</g>
<path d="M10.2061 44.8311C9.40202 44.5999 8.81608 44.3167 8.44824 43.9814C8.08366 43.6429 7.90137 43.2262 7.90137 42.7314C7.90137 42.1715 8.12435 41.7093 8.57031 41.3447C9.01953 40.9769 9.60221 40.793 10.3184 40.793C10.8066 40.793 11.2412 40.8874 11.6221 41.0762C12.0062 41.265 12.3024 41.5254 12.5107 41.8574C12.7223 42.1895 12.8281 42.5524 12.8281 42.9463H11.8857C11.8857 42.5166 11.749 42.1797 11.4756 41.9355C11.2021 41.6882 10.8164 41.5645 10.3184 41.5645C9.85612 41.5645 9.49479 41.667 9.23438 41.8721C8.97721 42.0739 8.84863 42.3555 8.84863 42.7168C8.84863 43.0065 8.9707 43.2523 9.21484 43.4541C9.46224 43.6527 9.88053 43.835 10.4697 44.001C11.0622 44.167 11.5244 44.3509 11.8564 44.5527C12.1917 44.7513 12.4391 44.984 12.5986 45.251C12.7614 45.5179 12.8428 45.832 12.8428 46.1934C12.8428 46.7695 12.6182 47.2318 12.1689 47.5801C11.7197 47.9251 11.1191 48.0977 10.3672 48.0977C9.87891 48.0977 9.42318 48.0049 9 47.8193C8.57682 47.6305 8.24967 47.3734 8.01855 47.0479C7.79069 46.7223 7.67676 46.3529 7.67676 45.9395H8.61914C8.61914 46.3691 8.77702 46.7093 9.09277 46.96C9.41178 47.2074 9.83659 47.3311 10.3672 47.3311C10.862 47.3311 11.2412 47.2301 11.5049 47.0283C11.7686 46.8265 11.9004 46.5514 11.9004 46.2031C11.9004 45.8548 11.7783 45.5863 11.5342 45.3975C11.29 45.2054 10.8473 45.0166 10.2061 44.8311ZM16.8689 47.4775C16.5174 47.891 16.0014 48.0977 15.3211 48.0977C14.7579 48.0977 14.3283 47.9349 14.032 47.6094C13.7391 47.2806 13.591 46.7956 13.5877 46.1543V42.7168H14.491V46.1299C14.491 46.9307 14.8165 47.3311 15.4676 47.3311C16.1577 47.3311 16.6167 47.0739 16.8445 46.5596V42.7168H17.7479V48H16.8885L16.8689 47.4775ZM23.2877 45.417C23.2877 46.221 23.1038 46.8688 22.7359 47.3604C22.3681 47.8519 21.8701 48.0977 21.2418 48.0977C20.6005 48.0977 20.096 47.8942 19.7281 47.4873V50.0312H18.8248V42.7168H19.65L19.6939 43.3027C20.0618 42.847 20.5729 42.6191 21.2271 42.6191C21.8619 42.6191 22.3632 42.8584 22.7311 43.3369C23.1021 43.8154 23.2877 44.4811 23.2877 45.334V45.417ZM22.3844 45.3145C22.3844 44.7188 22.2574 44.2484 22.0035 43.9033C21.7496 43.5583 21.4013 43.3857 20.9586 43.3857C20.4117 43.3857 20.0016 43.6283 19.7281 44.1133V46.6377C19.9983 47.1195 20.4117 47.3604 20.9684 47.3604C21.4013 47.3604 21.7447 47.1895 21.9986 46.8477C22.2558 46.5026 22.3844 45.9915 22.3844 45.3145ZM25.1215 48H24.2182V40.5H25.1215V48ZM28.4641 48.0977C27.7479 48.0977 27.1652 47.8633 26.716 47.3945C26.2668 46.9225 26.0422 46.2926 26.0422 45.5049V45.3389C26.0422 44.8148 26.1415 44.3477 26.34 43.9375C26.5419 43.5241 26.8218 43.2018 27.1799 42.9707C27.5412 42.7363 27.9318 42.6191 28.3518 42.6191C29.0386 42.6191 29.5725 42.8454 29.9533 43.2979C30.3342 43.7503 30.5246 44.3981 30.5246 45.2412V45.6172H26.9455C26.9585 46.138 27.1099 46.5596 27.3996 46.8818C27.6926 47.2008 28.0637 47.3604 28.5129 47.3604C28.8319 47.3604 29.1021 47.2952 29.3234 47.165C29.5448 47.0348 29.7385 46.8623 29.9045 46.6475L30.4562 47.0771C30.0135 47.7575 29.3495 48.0977 28.4641 48.0977ZM28.3518 43.3613C27.9872 43.3613 27.6812 43.4948 27.4338 43.7617C27.1864 44.0254 27.0334 44.3965 26.9748 44.875H29.6213V44.8066C29.5952 44.3477 29.4715 43.9928 29.2502 43.7422C29.0288 43.4883 28.7294 43.3613 28.3518 43.3613ZM32.124 42.7168L32.1484 43.3027C32.5358 42.847 33.0583 42.6191 33.7158 42.6191C34.4548 42.6191 34.9577 42.9023 35.2246 43.4688C35.4004 43.2148 35.6283 43.0098 35.9082 42.8535C36.1914 42.6973 36.5251 42.6191 36.9092 42.6191C38.068 42.6191 38.6572 43.2327 38.6768 44.46V48H37.7734V44.5137C37.7734 44.1361 37.6872 43.8545 37.5146 43.6689C37.3421 43.4801 37.0524 43.3857 36.6455 43.3857C36.3102 43.3857 36.0319 43.4867 35.8105 43.6885C35.5892 43.887 35.4606 44.1556 35.4248 44.4941V48H34.5166V44.5381C34.5166 43.7699 34.1406 43.3857 33.3887 43.3857C32.7962 43.3857 32.391 43.638 32.1729 44.1426V48H31.2695V42.7168H32.124ZM41.9363 48.0977C41.2202 48.0977 40.6375 47.8633 40.1883 47.3945C39.7391 46.9225 39.5145 46.2926 39.5145 45.5049V45.3389C39.5145 44.8148 39.6137 44.3477 39.8123 43.9375C40.0141 43.5241 40.2941 43.2018 40.6521 42.9707C41.0135 42.7363 41.4041 42.6191 41.824 42.6191C42.5109 42.6191 43.0447 42.8454 43.4256 43.2979C43.8064 43.7503 43.9969 44.3981 43.9969 45.2412V45.6172H40.4178C40.4308 46.138 40.5822 46.5596 40.8719 46.8818C41.1648 47.2008 41.5359 47.3604 41.9852 47.3604C42.3042 47.3604 42.5743 47.2952 42.7957 47.165C43.0171 47.0348 43.2107 46.8623 43.3768 46.6475L43.9285 47.0771C43.4858 47.7575 42.8217 48.0977 41.9363 48.0977ZM41.824 43.3613C41.4594 43.3613 41.1535 43.4948 40.9061 43.7617C40.6587 44.0254 40.5057 44.3965 40.4471 44.875H43.0936V44.8066C43.0675 44.3477 42.9438 43.9928 42.7225 43.7422C42.5011 43.4883 42.2016 43.3613 41.824 43.3613ZM45.6012 42.7168L45.6305 43.3809C46.0341 42.873 46.5615 42.6191 47.2125 42.6191C48.329 42.6191 48.8922 43.249 48.902 44.5088V48H47.9986V44.5039C47.9954 44.123 47.9075 43.8415 47.735 43.6592C47.5657 43.4769 47.3004 43.3857 46.9391 43.3857C46.6461 43.3857 46.3889 43.4639 46.1676 43.6201C45.9462 43.7764 45.7737 43.9814 45.65 44.2354V48H44.7467V42.7168H45.6012ZM51.1898 41.4375V42.7168H52.1762V43.415H51.1898V46.6914C51.1898 46.903 51.2338 47.0625 51.3217 47.1699C51.4096 47.2741 51.5593 47.3262 51.7709 47.3262C51.8751 47.3262 52.0183 47.3066 52.2006 47.2676V48C51.963 48.0651 51.7318 48.0977 51.5072 48.0977C51.1036 48.0977 50.7992 47.9756 50.5941 47.7314C50.3891 47.4873 50.2865 47.1406 50.2865 46.6914V43.415H49.3246V42.7168H50.2865V41.4375H51.1898ZM52.5988 45.3096C52.5988 44.792 52.6997 44.3265 52.9016 43.9131C53.1066 43.4997 53.3898 43.1807 53.7512 42.9561C54.1158 42.7314 54.5308 42.6191 54.9963 42.6191C55.7157 42.6191 56.2967 42.8682 56.7395 43.3662C57.1854 43.8643 57.4084 44.5267 57.4084 45.3535V45.417C57.4084 45.9313 57.3091 46.3936 57.1105 46.8037C56.9152 47.2106 56.6337 47.528 56.2658 47.7559C55.9012 47.9837 55.4813 48.0977 55.0061 48.0977C54.2899 48.0977 53.7089 47.8486 53.2629 47.3506C52.8202 46.8525 52.5988 46.1934 52.5988 45.373V45.3096ZM53.507 45.417C53.507 46.0029 53.6421 46.4733 53.9123 46.8281C54.1857 47.1829 54.5503 47.3604 55.0061 47.3604C55.465 47.3604 55.8296 47.1813 56.0998 46.8232C56.37 46.4619 56.5051 45.9574 56.5051 45.3096C56.5051 44.7301 56.3667 44.2614 56.09 43.9033C55.8166 43.542 55.452 43.3613 54.9963 43.3613C54.5503 43.3613 54.1906 43.5387 53.9172 43.8936C53.6437 44.2484 53.507 44.7562 53.507 45.417ZM61.3174 46.5986C61.3174 46.3545 61.2246 46.1657 61.0391 46.0322C60.8568 45.8955 60.5361 45.7783 60.0771 45.6807C59.6214 45.583 59.2585 45.4658 58.9883 45.3291C58.7214 45.1924 58.5228 45.0296 58.3926 44.8408C58.2656 44.652 58.2021 44.4274 58.2021 44.167C58.2021 43.734 58.3844 43.3678 58.749 43.0684C59.1169 42.7689 59.5856 42.6191 60.1553 42.6191C60.7542 42.6191 61.2393 42.7738 61.6104 43.083C61.9847 43.3923 62.1719 43.7878 62.1719 44.2695H61.2637C61.2637 44.0221 61.1579 43.8089 60.9463 43.6299C60.738 43.4508 60.4743 43.3613 60.1553 43.3613C59.8265 43.3613 59.5693 43.4329 59.3838 43.5762C59.1982 43.7194 59.1055 43.9066 59.1055 44.1377C59.1055 44.3558 59.1917 44.5202 59.3643 44.6309C59.5368 44.7415 59.8477 44.8473 60.2969 44.9482C60.7493 45.0492 61.1156 45.1696 61.3955 45.3096C61.6755 45.4495 61.8822 45.6188 62.0156 45.8174C62.1523 46.0127 62.2207 46.252 62.2207 46.5352C62.2207 47.0072 62.0319 47.3864 61.6543 47.6729C61.2767 47.9561 60.7868 48.0977 60.1846 48.0977C59.7614 48.0977 59.387 48.0228 59.0615 47.873C58.736 47.7233 58.4805 47.515 58.2949 47.248C58.1126 46.9779 58.0215 46.6865 58.0215 46.374H58.9248C58.9411 46.6768 59.0615 46.9176 59.2861 47.0967C59.514 47.2725 59.8135 47.3604 60.1846 47.3604C60.5264 47.3604 60.7998 47.292 61.0049 47.1553C61.2132 47.0153 61.3174 46.8298 61.3174 46.5986Z" fill="#666666"/>
<defs>
<filter id="filter0_d_7838:60012" x="0" y="0" width="70" height="38" filterUnits="userSpaceOnUse" color-interpolation-filters="sRGB">
<feFlood flood-opacity="0" result="BackgroundImageFix"/>
<feColorMatrix in="SourceAlpha" type="matrix" values="0 0 0 0 0 0 0 0 0 0 0 0 0 0 0 0 0 0 127 0" result="hardAlpha"/>
<feOffset dy="1"/>
<feGaussianBlur stdDeviation="1"/>
<feColorMatrix type="matrix" values="0 0 0 0 0 0 0 0 0 0 0 0 0 0 0 0 0 0 0.2 0"/>
<feBlend mode="normal" in2="BackgroundImageFix" result="effect1_dropShadow_7838:60012"/>
<feBlend mode="normal" in="SourceGraphic" in2="effect1_dropShadow_7838:60012" result="shape"/>
</filter>
</defs>
</svg>
