<svg width="68" height="61" viewBox="0 0 68 61" fill="none" xmlns="http://www.w3.org/2000/svg">
<g filter="url(#filter0_d_7838:60054)">
<rect x="3" y="1" width="62" height="30" rx="8" fill="#E7F3F9"/>
<path d="M27 20.6283C27 18.9572 27 17.2863 27 15.6152C27.2181 15.0448 27.6383 14.8045 28.2394 14.8408C28.4885 14.8556 28.7391 14.8433 29.0094 14.8433C28.9857 14.7811 28.9695 14.7357 28.9514 14.6909C28.5496 13.6932 28.1451 12.6969 27.7477 11.6973C27.6913 11.5552 27.6427 11.4006 27.6358 11.2499C27.6135 10.7613 27.8319 10.3952 28.2625 10.1673C29.1153 9.71574 30.006 9.67036 30.9154 9.95883C31.4579 10.131 31.9936 10.3262 32.5312 10.5135C33.4728 10.8418 34.4166 10.8594 35.3628 10.5377C35.9235 10.3471 36.4804 10.1442 37.0441 9.96268C37.9178 9.68164 38.7791 9.71106 39.6129 10.117C40.2786 10.4409 40.4972 11.0239 40.2192 11.7125C39.8186 12.7055 39.4184 13.699 39.0183 14.6923C39.0004 14.7371 38.9845 14.7825 38.9619 14.8433C39.2966 14.8433 39.6107 14.8402 39.925 14.8438C40.5418 14.851 40.9961 15.3044 40.9972 15.921C40.9997 17.3589 41.0024 18.7971 40.9964 20.2351C40.9917 21.37 40.0724 22.2953 38.9391 22.2972C35.6386 22.3025 32.3379 22.3019 29.0374 22.297C28.3777 22.2959 27.8401 22.0173 27.421 21.508C27.2084 21.249 27.0946 20.9435 27 20.6283ZM33.9994 15.6652C32.0453 15.6652 30.0912 15.6652 28.1374 15.6652C27.858 15.6652 27.7947 15.7298 27.7947 16.0136C27.7947 17.3878 27.7945 18.7622 27.7947 20.1363C27.795 20.9437 28.3263 21.4775 29.1301 21.4778C32.3671 21.478 35.604 21.478 38.841 21.4778C39.6445 21.4778 40.1766 20.9437 40.1769 20.1369C40.1771 18.7672 40.1769 17.3977 40.1769 16.0279C40.1769 15.7252 40.1183 15.6652 39.8208 15.6652C37.8801 15.6652 35.9398 15.6652 33.9994 15.6652ZM31.5902 14.8433C31.5558 14.7707 31.5357 14.7253 31.5132 14.681C31.2726 14.2102 31.0322 13.7392 30.7902 13.2692C30.7047 13.1034 30.7055 12.9431 30.8221 12.7946C31.0127 12.5517 31.3702 12.6012 31.5206 12.893C31.8363 13.5046 32.1471 14.1187 32.4627 14.7302C32.4853 14.7737 32.5301 14.8367 32.5659 14.8375C32.8975 14.8457 33.2294 14.8424 33.5745 14.8424C33.5745 14.7786 33.5745 14.7294 33.5745 14.6805C33.5745 14.037 33.5737 13.3932 33.5751 12.7497C33.5754 12.5429 33.6867 12.3851 33.8636 12.3309C34.138 12.2468 34.3946 12.445 34.3957 12.7486C34.3979 13.3968 34.3962 14.045 34.3968 14.6931C34.3968 14.741 34.4009 14.7888 34.4031 14.8433C34.7064 14.8433 34.9938 14.8369 35.2806 14.846C35.4055 14.8499 35.4728 14.813 35.5306 14.697C35.8309 14.0931 36.1411 13.4939 36.4496 12.8938C36.5426 12.7129 36.693 12.6249 36.8668 12.6425C37.1646 12.6727 37.326 12.9747 37.1858 13.2552C36.9451 13.7361 36.6971 14.2135 36.4526 14.6926C36.4309 14.7352 36.4114 14.7792 36.3883 14.8279C36.4169 14.8356 36.429 14.8416 36.4414 14.8416C36.9572 14.8424 37.4729 14.8452 37.9887 14.838C38.0319 14.8375 38.0943 14.7767 38.1133 14.73C38.5684 13.6116 39.0191 12.4912 39.4696 11.3709C39.5691 11.1234 39.5177 10.9884 39.2796 10.8691C38.6276 10.5424 37.9541 10.5283 37.2721 10.75C36.7089 10.9331 36.1529 11.138 35.5908 11.3245C34.6404 11.6399 33.6752 11.6998 32.7094 11.4163C32.0673 11.2279 31.4367 10.9997 30.8032 10.7827C30.0766 10.5338 29.3636 10.5242 28.6667 10.8809C28.4597 10.987 28.4038 11.1325 28.4894 11.3448C28.945 12.4778 29.4032 13.6096 29.8575 14.7432C29.8877 14.8185 29.9268 14.846 30.0084 14.8444C30.273 14.8391 30.5378 14.8424 30.8026 14.8424C31.0573 14.8433 31.3113 14.8433 31.5902 14.8433Z" fill="#007DC5"/>
<path d="M33.9851 17.0091C34.6971 17.0091 35.4088 17.0086 36.1207 17.0094C36.4625 17.0097 36.6435 17.1906 36.644 17.533C36.6449 18.2265 36.6449 18.9201 36.644 19.6139C36.6438 19.9441 36.4559 20.1341 36.1284 20.1344C34.7001 20.135 33.2718 20.135 31.8437 20.1344C31.5154 20.1341 31.3278 19.945 31.3276 19.6147C31.3267 18.9165 31.3267 18.2183 31.3276 17.5203C31.3281 17.1956 31.5126 17.0105 31.836 17.0099C32.5521 17.0083 33.2688 17.0091 33.9851 17.0091ZM32.1597 17.8363C32.1597 18.3354 32.1597 18.8208 32.1597 19.3053C33.3832 19.3053 34.5959 19.3053 35.8138 19.3053C35.8138 18.8128 35.8138 18.3274 35.8138 17.8363C34.5928 17.8363 33.3801 17.8363 32.1597 17.8363Z" fill="#007DC5"/>
</g>
<path d="M6.01074 37.6621H3.72559V44H2.79297V37.6621H0.512695V36.8906H6.01074V37.6621ZM8.80645 39.5273C8.66973 39.5046 8.52161 39.4932 8.36211 39.4932C7.76966 39.4932 7.36764 39.7454 7.15605 40.25V44H6.25273V38.7168H7.13164L7.14629 39.3271C7.44251 38.8551 7.86243 38.6191 8.40605 38.6191C8.58184 38.6191 8.7153 38.6419 8.80645 38.6875V39.5273ZM9.00449 41.3096C9.00449 40.792 9.1054 40.3265 9.30723 39.9131C9.5123 39.4997 9.79551 39.1807 10.1568 38.9561C10.5214 38.7314 10.9365 38.6191 11.402 38.6191C12.1214 38.6191 12.7024 38.8682 13.1451 39.3662C13.5911 39.8643 13.8141 40.5267 13.8141 41.3535V41.417C13.8141 41.9313 13.7148 42.3936 13.5162 42.8037C13.3209 43.2106 13.0393 43.528 12.6715 43.7559C12.3069 43.9837 11.887 44.0977 11.4117 44.0977C10.6956 44.0977 10.1145 43.8486 9.66855 43.3506C9.22585 42.8525 9.00449 42.1934 9.00449 41.373V41.3096ZM9.91269 41.417C9.91269 42.0029 10.0478 42.4733 10.318 42.8281C10.5914 43.1829 10.956 43.3604 11.4117 43.3604C11.8707 43.3604 12.2353 43.1813 12.5055 42.8232C12.7757 42.4619 12.9107 41.9574 12.9107 41.3096C12.9107 40.7301 12.7724 40.2614 12.4957 39.9033C12.2223 39.542 11.8577 39.3613 11.402 39.3613C10.956 39.3613 10.5963 39.5387 10.3229 39.8936C10.0494 40.2484 9.91269 40.7562 9.91269 41.417ZM16.766 43.3604C17.0883 43.3604 17.3699 43.2627 17.6107 43.0674C17.8516 42.8721 17.9851 42.6279 18.0111 42.335H18.8656C18.8493 42.6377 18.7452 42.9258 18.5531 43.1992C18.3611 43.4727 18.1039 43.6908 17.7816 43.8535C17.4626 44.0163 17.1241 44.0977 16.766 44.0977C16.0466 44.0977 15.4737 43.8584 15.0473 43.3799C14.6241 42.8981 14.4125 42.2406 14.4125 41.4072V41.2559C14.4125 40.7415 14.5069 40.2842 14.6957 39.8838C14.8845 39.4834 15.1547 39.1725 15.5063 38.9512C15.8611 38.7298 16.2794 38.6191 16.7611 38.6191C17.3536 38.6191 17.8451 38.7965 18.2357 39.1514C18.6296 39.5062 18.8396 39.9668 18.8656 40.5332H18.0111C17.9851 40.1914 17.8549 39.9115 17.6205 39.6934C17.3894 39.472 17.1029 39.3613 16.7611 39.3613C16.3021 39.3613 15.9457 39.5273 15.6918 39.8594C15.4411 40.1882 15.3158 40.665 15.3158 41.29V41.4609C15.3158 42.0697 15.4411 42.5384 15.6918 42.8672C15.9424 43.196 16.3005 43.3604 16.766 43.3604ZM22.843 44C22.7909 43.8958 22.7486 43.7103 22.716 43.4434C22.2961 43.8796 21.7948 44.0977 21.2121 44.0977C20.6913 44.0977 20.2632 43.9512 19.9279 43.6582C19.5959 43.362 19.4299 42.9876 19.4299 42.5352C19.4299 41.985 19.6382 41.5586 20.0549 41.2559C20.4748 40.9499 21.064 40.7969 21.8225 40.7969H22.7014V40.3818C22.7014 40.0661 22.607 39.8154 22.4182 39.6299C22.2294 39.4411 21.951 39.3467 21.5832 39.3467C21.2609 39.3467 20.9908 39.4281 20.7727 39.5908C20.5546 39.7536 20.4455 39.9505 20.4455 40.1816H19.5373C19.5373 39.918 19.6301 39.6641 19.8156 39.4199C20.0044 39.1725 20.2583 38.9772 20.5773 38.834C20.8996 38.6908 21.2528 38.6191 21.6369 38.6191C22.2456 38.6191 22.7225 38.7721 23.0676 39.0781C23.4126 39.3809 23.5917 39.7992 23.6047 40.333V42.7646C23.6047 43.2497 23.6665 43.6354 23.7902 43.9219V44H22.843ZM21.3439 43.3115C21.6271 43.3115 21.8957 43.2383 22.1496 43.0918C22.4035 42.9453 22.5874 42.7549 22.7014 42.5205V41.4365H21.9934C20.8866 41.4365 20.3332 41.7604 20.3332 42.4082C20.3332 42.6914 20.4276 42.9128 20.6164 43.0723C20.8052 43.2318 21.0477 43.3115 21.3439 43.3115ZM26.6814 41.3145C26.6814 40.5039 26.8735 39.8529 27.2576 39.3613C27.6417 38.8665 28.1447 38.6191 28.7664 38.6191C29.3849 38.6191 29.8748 38.8307 30.2361 39.2539V36.5H31.1395V44H30.3094L30.2654 43.4336C29.9041 43.8763 29.4012 44.0977 28.7566 44.0977C28.1447 44.0977 27.645 43.847 27.2576 43.3457C26.8735 42.8444 26.6814 42.1901 26.6814 41.3828V41.3145ZM27.5848 41.417C27.5848 42.016 27.7085 42.4847 27.9559 42.8232C28.2033 43.1618 28.5451 43.3311 28.9813 43.3311C29.5542 43.3311 29.9725 43.0739 30.2361 42.5596V40.1328C29.966 39.6348 29.5509 39.3857 28.991 39.3857C28.5483 39.3857 28.2033 39.5566 27.9559 39.8984C27.7085 40.2402 27.5848 40.7464 27.5848 41.417ZM34.4381 44.0977C33.7219 44.0977 33.1393 43.8633 32.69 43.3945C32.2408 42.9225 32.0162 42.2926 32.0162 41.5049V41.3389C32.0162 40.8148 32.1155 40.3477 32.3141 39.9375C32.5159 39.5241 32.7958 39.2018 33.1539 38.9707C33.5152 38.7363 33.9059 38.6191 34.3258 38.6191C35.0126 38.6191 35.5465 38.8454 35.9273 39.2979C36.3082 39.7503 36.4986 40.3981 36.4986 41.2412V41.6172H32.9195C32.9326 42.138 33.0839 42.5596 33.3736 42.8818C33.6666 43.2008 34.0377 43.3604 34.4869 43.3604C34.8059 43.3604 35.0761 43.2952 35.2975 43.165C35.5188 43.0348 35.7125 42.8623 35.8785 42.6475L36.4303 43.0771C35.9876 43.7575 35.3235 44.0977 34.4381 44.0977ZM34.3258 39.3613C33.9612 39.3613 33.6552 39.4948 33.4078 39.7617C33.1604 40.0254 33.0074 40.3965 32.9488 40.875H35.5953V40.8066C35.5693 40.3477 35.4456 39.9928 35.2242 39.7422C35.0029 39.4883 34.7034 39.3613 34.3258 39.3613ZM39.8732 44V39.415H39.0383V38.7168H39.8732V38.1748C39.8732 37.6084 40.0246 37.1706 40.3273 36.8613C40.6301 36.5521 41.0581 36.3975 41.6115 36.3975C41.8199 36.3975 42.0266 36.4251 42.2316 36.4805L42.1828 37.2129C42.0298 37.1836 41.8671 37.1689 41.6945 37.1689C41.4016 37.1689 41.1753 37.2552 41.0158 37.4277C40.8563 37.597 40.7766 37.8411 40.7766 38.1602V38.7168H41.9045V39.415H40.7766V44H39.8732ZM45.1592 39.5273C45.0225 39.5046 44.8743 39.4932 44.7148 39.4932C44.1224 39.4932 43.7204 39.7454 43.5088 40.25V44H42.6055V38.7168H43.4844L43.499 39.3271C43.7952 38.8551 44.2152 38.6191 44.7588 38.6191C44.9346 38.6191 45.068 38.6419 45.1592 38.6875V39.5273ZM48.7605 44C48.7085 43.8958 48.6661 43.7103 48.6336 43.4434C48.2137 43.8796 47.7124 44.0977 47.1297 44.0977C46.6089 44.0977 46.1808 43.9512 45.8455 43.6582C45.5135 43.362 45.3475 42.9876 45.3475 42.5352C45.3475 41.985 45.5558 41.5586 45.9725 41.2559C46.3924 40.9499 46.9816 40.7969 47.74 40.7969H48.6189V40.3818C48.6189 40.0661 48.5245 39.8154 48.3357 39.6299C48.1469 39.4411 47.8686 39.3467 47.5008 39.3467C47.1785 39.3467 46.9083 39.4281 46.6902 39.5908C46.4721 39.7536 46.3631 39.9505 46.3631 40.1816H45.4549C45.4549 39.918 45.5477 39.6641 45.7332 39.4199C45.922 39.1725 46.1759 38.9772 46.4949 38.834C46.8172 38.6908 47.1704 38.6191 47.5545 38.6191C48.1632 38.6191 48.6401 38.7721 48.9852 39.0781C49.3302 39.3809 49.5092 39.7992 49.5223 40.333V42.7646C49.5223 43.2497 49.5841 43.6354 49.7078 43.9219V44H48.7605ZM47.2615 43.3115C47.5447 43.3115 47.8133 43.2383 48.0672 43.0918C48.3211 42.9453 48.505 42.7549 48.6189 42.5205V41.4365H47.9109C46.8042 41.4365 46.2508 41.7604 46.2508 42.4082C46.2508 42.6914 46.3452 42.9128 46.534 43.0723C46.7228 43.2318 46.9653 43.3115 47.2615 43.3115ZM51.6197 44H50.7164V36.5H51.6197V44ZM52.5502 41.3145C52.5502 40.5039 52.7423 39.8529 53.1264 39.3613C53.5105 38.8665 54.0134 38.6191 54.6352 38.6191C55.2536 38.6191 55.7436 38.8307 56.1049 39.2539V36.5H57.0082V44H56.1781L56.1342 43.4336C55.7729 43.8763 55.2699 44.0977 54.6254 44.0977C54.0134 44.0977 53.5137 43.847 53.1264 43.3457C52.7423 42.8444 52.5502 42.1901 52.5502 41.3828V41.3145ZM53.4535 41.417C53.4535 42.016 53.5772 42.4847 53.8246 42.8232C54.072 43.1618 54.4138 43.3311 54.85 43.3311C55.4229 43.3311 55.8412 43.0739 56.1049 42.5596V40.1328C55.8347 39.6348 55.4197 39.3857 54.8598 39.3857C54.4171 39.3857 54.072 39.5566 53.8246 39.8984C53.5772 40.2402 53.4535 40.7464 53.4535 41.417ZM61.3762 44C61.3241 43.8958 61.2818 43.7103 61.2492 43.4434C60.8293 43.8796 60.328 44.0977 59.7453 44.0977C59.2245 44.0977 58.7964 43.9512 58.4611 43.6582C58.1291 43.362 57.9631 42.9876 57.9631 42.5352C57.9631 41.985 58.1714 41.5586 58.5881 41.2559C59.008 40.9499 59.5972 40.7969 60.3557 40.7969H61.2346V40.3818C61.2346 40.0661 61.1402 39.8154 60.9514 39.6299C60.7626 39.4411 60.4842 39.3467 60.1164 39.3467C59.7941 39.3467 59.524 39.4281 59.3059 39.5908C59.0878 39.7536 58.9787 39.9505 58.9787 40.1816H58.0705C58.0705 39.918 58.1633 39.6641 58.3488 39.4199C58.5376 39.1725 58.7915 38.9772 59.1105 38.834C59.4328 38.6908 59.786 38.6191 60.1701 38.6191C60.7788 38.6191 61.2557 38.7721 61.6008 39.0781C61.9458 39.3809 62.1249 39.7992 62.1379 40.333V42.7646C62.1379 43.2497 62.1997 43.6354 62.3234 43.9219V44H61.3762ZM59.8771 43.3115C60.1604 43.3115 60.4289 43.2383 60.6828 43.0918C60.9367 42.9453 61.1206 42.7549 61.2346 42.5205V41.4365H60.5266C59.4198 41.4365 58.8664 41.7604 58.8664 42.4082C58.8664 42.6914 58.9608 42.9128 59.1496 43.0723C59.3384 43.2318 59.5809 43.3115 59.8771 43.3115ZM66.3301 42.5986C66.3301 42.3545 66.2373 42.1657 66.0518 42.0322C65.8695 41.8955 65.5488 41.7783 65.0898 41.6807C64.6341 41.583 64.2712 41.4658 64.001 41.3291C63.734 41.1924 63.5355 41.0296 63.4053 40.8408C63.2783 40.652 63.2148 40.4274 63.2148 40.167C63.2148 39.734 63.3971 39.3678 63.7617 39.0684C64.1296 38.7689 64.5983 38.6191 65.168 38.6191C65.7669 38.6191 66.252 38.7738 66.623 39.083C66.9974 39.3923 67.1846 39.7878 67.1846 40.2695H66.2764C66.2764 40.0221 66.1706 39.8089 65.959 39.6299C65.7507 39.4508 65.487 39.3613 65.168 39.3613C64.8392 39.3613 64.582 39.4329 64.3965 39.5762C64.2109 39.7194 64.1182 39.9066 64.1182 40.1377C64.1182 40.3558 64.2044 40.5202 64.377 40.6309C64.5495 40.7415 64.8604 40.8473 65.3096 40.9482C65.762 41.0492 66.1283 41.1696 66.4082 41.3096C66.6882 41.4495 66.8949 41.6188 67.0283 41.8174C67.165 42.0127 67.2334 42.252 67.2334 42.5352C67.2334 43.0072 67.0446 43.3864 66.667 43.6729C66.2894 43.9561 65.7995 44.0977 65.1973 44.0977C64.7741 44.0977 64.3997 44.0228 64.0742 43.873C63.7487 43.7233 63.4932 43.515 63.3076 43.248C63.1253 42.9779 63.0342 42.6865 63.0342 42.374H63.9375C63.9538 42.6768 64.0742 42.9176 64.2988 43.0967C64.5267 43.2725 64.8262 43.3604 65.1973 43.3604C65.5391 43.3604 65.8125 43.292 66.0176 43.1553C66.2259 43.0153 66.3301 42.8298 66.3301 42.5986Z" fill="#666666"/>
<defs>
<filter id="filter0_d_7838:60054" x="1" y="0" width="66" height="34" filterUnits="userSpaceOnUse" color-interpolation-filters="sRGB">
<feFlood flood-opacity="0" result="BackgroundImageFix"/>
<feColorMatrix in="SourceAlpha" type="matrix" values="0 0 0 0 0 0 0 0 0 0 0 0 0 0 0 0 0 0 127 0" result="hardAlpha"/>
<feOffset dy="1"/>
<feGaussianBlur stdDeviation="1"/>
<feColorMatrix type="matrix" values="0 0 0 0 0 0 0 0 0 0 0 0 0 0 0 0 0 0 0.2 0"/>
<feBlend mode="normal" in2="BackgroundImageFix" result="effect1_dropShadow_7838:60054"/>
<feBlend mode="normal" in="SourceGraphic" in2="effect1_dropShadow_7838:60054" result="shape"/>
</filter>
</defs>
</svg>
