<svg width="66" height="61" viewBox="0 0 66 61" fill="none" xmlns="http://www.w3.org/2000/svg">
<g filter="url(#filter0_d_7838:60029)">
<rect x="2" y="1" width="62" height="30" rx="8" fill="#E7F3F9"/>
<rect x="29.5" y="11.1875" width="7" height="11.375" rx="1" stroke="#007DC5" stroke-linecap="round" stroke-linejoin="round"/>
<path fill-rule="evenodd" clip-rule="evenodd" d="M31.8333 9.4375H34.1667C34.4888 9.4375 34.75 9.69867 34.75 10.0208V11.1875H31.25V10.0208C31.25 9.69867 31.5112 9.4375 31.8333 9.4375Z" stroke="#007DC5" stroke-linecap="round" stroke-linejoin="round"/>
<path d="M32.125 13.8125H33.875" stroke="#007DC5" stroke-linecap="round" stroke-linejoin="round"/>
<path d="M32.125 19.9375H33.875" stroke="#007DC5" stroke-linecap="round" stroke-linejoin="round"/>
<path d="M33 12.9375V14.6875" stroke="#007DC5" stroke-linecap="round" stroke-linejoin="round"/>
<path d="M29.5 17.3125H36.5" stroke="#007DC5" stroke-linecap="round" stroke-linejoin="round"/>
</g>
<path d="M16.9707 36.8906V41.7246C16.9674 42.3952 16.7559 42.9437 16.3359 43.3701C15.9193 43.7965 15.3529 44.0358 14.6367 44.0879L14.3877 44.0977C13.6097 44.0977 12.9896 43.8877 12.5273 43.4678C12.0651 43.0479 11.8307 42.4701 11.8242 41.7344V36.8906H12.752V41.7051C12.752 42.2194 12.8936 42.6198 13.1768 42.9062C13.46 43.1895 13.8636 43.3311 14.3877 43.3311C14.9183 43.3311 15.3236 43.1895 15.6035 42.9062C15.8867 42.623 16.0283 42.2243 16.0283 41.71V36.8906H16.9707ZM19.2342 37.4375V38.7168H20.2205V39.415H19.2342V42.6914C19.2342 42.903 19.2781 43.0625 19.366 43.1699C19.4539 43.2741 19.6036 43.3262 19.8152 43.3262C19.9194 43.3262 20.0626 43.3066 20.2449 43.2676V44C20.0073 44.0651 19.7762 44.0977 19.5516 44.0977C19.1479 44.0977 18.8436 43.9756 18.6385 43.7314C18.4334 43.4873 18.3309 43.1406 18.3309 42.6914V39.415H17.3689V38.7168H18.3309V37.4375H19.2342ZM21.9615 44H21.0582V38.7168H21.9615V44ZM20.985 37.3154C20.985 37.1689 21.0289 37.0452 21.1168 36.9443C21.2079 36.8434 21.3414 36.793 21.5172 36.793C21.693 36.793 21.8264 36.8434 21.9176 36.9443C22.0087 37.0452 22.0543 37.1689 22.0543 37.3154C22.0543 37.4619 22.0087 37.584 21.9176 37.6816C21.8264 37.7793 21.693 37.8281 21.5172 37.8281C21.3414 37.8281 21.2079 37.7793 21.1168 37.6816C21.0289 37.584 20.985 37.4619 20.985 37.3154ZM24.0932 44H23.1898V36.5H24.0932V44ZM26.2248 44H25.3215V38.7168H26.2248V44ZM25.2482 37.3154C25.2482 37.1689 25.2922 37.0452 25.3801 36.9443C25.4712 36.8434 25.6047 36.793 25.7805 36.793C25.9562 36.793 26.0897 36.8434 26.1809 36.9443C26.272 37.0452 26.3176 37.1689 26.3176 37.3154C26.3176 37.4619 26.272 37.584 26.1809 37.6816C26.0897 37.7793 25.9562 37.8281 25.7805 37.8281C25.6047 37.8281 25.4712 37.7793 25.3801 37.6816C25.2922 37.584 25.2482 37.4619 25.2482 37.3154ZM27.1553 41.3145C27.1553 40.5039 27.3473 39.8529 27.7314 39.3613C28.1156 38.8665 28.6185 38.6191 29.2402 38.6191C29.8587 38.6191 30.3486 38.8307 30.71 39.2539V36.5H31.6133V44H30.7832L30.7393 43.4336C30.3779 43.8763 29.875 44.0977 29.2305 44.0977C28.6185 44.0977 28.1188 43.847 27.7314 43.3457C27.3473 42.8444 27.1553 42.1901 27.1553 41.3828V41.3145ZM28.0586 41.417C28.0586 42.016 28.1823 42.4847 28.4297 42.8232C28.6771 43.1618 29.0189 43.3311 29.4551 43.3311C30.028 43.3311 30.4463 43.0739 30.71 42.5596V40.1328C30.4398 39.6348 30.0247 39.3857 29.4648 39.3857C29.0221 39.3857 28.6771 39.5566 28.4297 39.8984C28.1823 40.2402 28.0586 40.7464 28.0586 41.417ZM35.9813 44C35.9292 43.8958 35.8868 43.7103 35.8543 43.4434C35.4344 43.8796 34.9331 44.0977 34.3504 44.0977C33.8296 44.0977 33.4015 43.9512 33.0662 43.6582C32.7342 43.362 32.5682 42.9876 32.5682 42.5352C32.5682 41.985 32.7765 41.5586 33.1932 41.2559C33.6131 40.9499 34.2023 40.7969 34.9607 40.7969H35.8396V40.3818C35.8396 40.0661 35.7452 39.8154 35.5564 39.6299C35.3676 39.4411 35.0893 39.3467 34.7215 39.3467C34.3992 39.3467 34.129 39.4281 33.9109 39.5908C33.6928 39.7536 33.5838 39.9505 33.5838 40.1816H32.6756C32.6756 39.918 32.7684 39.6641 32.9539 39.4199C33.1427 39.1725 33.3966 38.9772 33.7156 38.834C34.0379 38.6908 34.3911 38.6191 34.7752 38.6191C35.3839 38.6191 35.8608 38.7721 36.2059 39.0781C36.5509 39.3809 36.7299 39.7992 36.743 40.333V42.7646C36.743 43.2497 36.8048 43.6354 36.9285 43.9219V44H35.9813ZM34.4822 43.3115C34.7654 43.3115 35.034 43.2383 35.2879 43.0918C35.5418 42.9453 35.7257 42.7549 35.8396 42.5205V41.4365H35.1316C34.0249 41.4365 33.4715 41.7604 33.4715 42.4082C33.4715 42.6914 33.5659 42.9128 33.7547 43.0723C33.9435 43.2318 34.186 43.3115 34.4822 43.3115ZM37.6393 41.3145C37.6393 40.5039 37.8313 39.8529 38.2154 39.3613C38.5995 38.8665 39.1025 38.6191 39.7242 38.6191C40.3427 38.6191 40.8326 38.8307 41.1939 39.2539V36.5H42.0973V44H41.2672L41.2232 43.4336C40.8619 43.8763 40.359 44.0977 39.7145 44.0977C39.1025 44.0977 38.6028 43.847 38.2154 43.3457C37.8313 42.8444 37.6393 42.1901 37.6393 41.3828V41.3145ZM38.5426 41.417C38.5426 42.016 38.6663 42.4847 38.9137 42.8232C39.1611 43.1618 39.5029 43.3311 39.9391 43.3311C40.512 43.3311 40.9303 43.0739 41.1939 42.5596V40.1328C40.9238 39.6348 40.5087 39.3857 39.9488 39.3857C39.5061 39.3857 39.1611 39.5566 38.9137 39.8984C38.6663 40.2402 38.5426 40.7464 38.5426 41.417ZM45.3959 44.0977C44.6798 44.0977 44.0971 43.8633 43.6479 43.3945C43.1986 42.9225 42.974 42.2926 42.974 41.5049V41.3389C42.974 40.8148 43.0733 40.3477 43.2719 39.9375C43.4737 39.5241 43.7536 39.2018 44.1117 38.9707C44.473 38.7363 44.8637 38.6191 45.2836 38.6191C45.9704 38.6191 46.5043 38.8454 46.8852 39.2979C47.266 39.7503 47.4564 40.3981 47.4564 41.2412V41.6172H43.8773C43.8904 42.138 44.0417 42.5596 44.3314 42.8818C44.6244 43.2008 44.9955 43.3604 45.4447 43.3604C45.7637 43.3604 46.0339 43.2952 46.2553 43.165C46.4766 43.0348 46.6703 42.8623 46.8363 42.6475L47.3881 43.0771C46.9454 43.7575 46.2813 44.0977 45.3959 44.0977ZM45.2836 39.3613C44.919 39.3613 44.613 39.4948 44.3656 39.7617C44.1182 40.0254 43.9652 40.3965 43.9066 40.875H46.5531V40.8066C46.5271 40.3477 46.4034 39.9928 46.182 39.7422C45.9607 39.4883 45.6612 39.3613 45.2836 39.3613ZM51.2824 42.5986C51.2824 42.3545 51.1896 42.1657 51.0041 42.0322C50.8218 41.8955 50.5012 41.7783 50.0422 41.6807C49.5865 41.583 49.2235 41.4658 48.9533 41.3291C48.6864 41.1924 48.4878 41.0296 48.3576 40.8408C48.2307 40.652 48.1672 40.4274 48.1672 40.167C48.1672 39.734 48.3495 39.3678 48.7141 39.0684C49.0819 38.7689 49.5507 38.6191 50.1203 38.6191C50.7193 38.6191 51.2043 38.7738 51.5754 39.083C51.9497 39.3923 52.1369 39.7878 52.1369 40.2695H51.2287C51.2287 40.0221 51.1229 39.8089 50.9113 39.6299C50.703 39.4508 50.4393 39.3613 50.1203 39.3613C49.7915 39.3613 49.5344 39.4329 49.3488 39.5762C49.1633 39.7194 49.0705 39.9066 49.0705 40.1377C49.0705 40.3558 49.1568 40.5202 49.3293 40.6309C49.5018 40.7415 49.8127 40.8473 50.2619 40.9482C50.7144 41.0492 51.0806 41.1696 51.3605 41.3096C51.6405 41.4495 51.8472 41.6188 51.9807 41.8174C52.1174 42.0127 52.1857 42.252 52.1857 42.5352C52.1857 43.0072 51.9969 43.3864 51.6193 43.6729C51.2417 43.9561 50.7518 44.0977 50.1496 44.0977C49.7264 44.0977 49.3521 44.0228 49.0266 43.873C48.701 43.7233 48.4455 43.515 48.26 43.248C48.0777 42.9779 47.9865 42.6865 47.9865 42.374H48.8898C48.9061 42.6768 49.0266 42.9176 49.2512 43.0967C49.479 43.2725 49.7785 43.3604 50.1496 43.3604C50.4914 43.3604 50.7648 43.292 50.9699 43.1553C51.1783 43.0153 51.2824 42.8298 51.2824 42.5986ZM18.7131 56.0977C17.9969 56.0977 17.4143 55.8633 16.965 55.3945C16.5158 54.9225 16.2912 54.2926 16.2912 53.5049V53.3389C16.2912 52.8148 16.3905 52.3477 16.5891 51.9375C16.7909 51.5241 17.0708 51.2018 17.4289 50.9707C17.7902 50.7363 18.1809 50.6191 18.6008 50.6191C19.2876 50.6191 19.8215 50.8454 20.2023 51.2979C20.5832 51.7503 20.7736 52.3981 20.7736 53.2412V53.6172H17.1945C17.2076 54.138 17.3589 54.5596 17.6486 54.8818C17.9416 55.2008 18.3127 55.3604 18.7619 55.3604C19.0809 55.3604 19.3511 55.2952 19.5725 55.165C19.7938 55.0348 19.9875 54.8623 20.1535 54.6475L20.7053 55.0771C20.2626 55.7575 19.5985 56.0977 18.7131 56.0977ZM18.6008 51.3613C18.2362 51.3613 17.9302 51.4948 17.6828 51.7617C17.4354 52.0254 17.2824 52.3965 17.2238 52.875H19.8703V52.8066C19.8443 52.3477 19.7206 51.9928 19.4992 51.7422C19.2779 51.4883 18.9784 51.3613 18.6008 51.3613ZM23.4646 53.3096C23.4646 52.792 23.5656 52.3265 23.7674 51.9131C23.9725 51.4997 24.2557 51.1807 24.617 50.9561C24.9816 50.7314 25.3966 50.6191 25.8621 50.6191C26.5815 50.6191 27.1626 50.8682 27.6053 51.3662C28.0512 51.8643 28.2742 52.5267 28.2742 53.3535V53.417C28.2742 53.9313 28.1749 54.3936 27.9764 54.8037C27.7811 55.2106 27.4995 55.528 27.1316 55.7559C26.7671 55.9837 26.3471 56.0977 25.8719 56.0977C25.1557 56.0977 24.5747 55.8486 24.1287 55.3506C23.686 54.8525 23.4646 54.1934 23.4646 53.373V53.3096ZM24.3729 53.417C24.3729 54.0029 24.5079 54.4733 24.7781 54.8281C25.0516 55.1829 25.4161 55.3604 25.8719 55.3604C26.3309 55.3604 26.6954 55.1813 26.9656 54.8232C27.2358 54.4619 27.3709 53.9574 27.3709 53.3096C27.3709 52.7301 27.2326 52.2614 26.9559 51.9033C26.6824 51.542 26.3178 51.3613 25.8621 51.3613C25.4161 51.3613 25.0564 51.5387 24.783 51.8936C24.5096 52.2484 24.3729 52.7562 24.3729 53.417ZM32.3687 55.4775C32.0172 55.891 31.5012 56.0977 30.8209 56.0977C30.2577 56.0977 29.8281 55.9349 29.5318 55.6094C29.2389 55.2806 29.0908 54.7956 29.0875 54.1543V50.7168H29.9908V54.1299C29.9908 54.9307 30.3163 55.3311 30.9674 55.3311C31.6575 55.3311 32.1165 55.0739 32.3443 54.5596V50.7168H33.2477V56H32.3883L32.3687 55.4775ZM35.5502 49.4375V50.7168H36.5365V51.415H35.5502V54.6914C35.5502 54.903 35.5941 55.0625 35.682 55.1699C35.7699 55.2741 35.9197 55.3262 36.1312 55.3262C36.2354 55.3262 36.3786 55.3066 36.5609 55.2676V56C36.3233 56.0651 36.0922 56.0977 35.8676 56.0977C35.4639 56.0977 35.1596 55.9756 34.9545 55.7314C34.7494 55.4873 34.6469 55.1406 34.6469 54.6914V51.415H33.685V50.7168H34.6469V49.4375H35.5502ZM39.8498 51.5273C39.7131 51.5046 39.565 51.4932 39.4055 51.4932C38.813 51.4932 38.411 51.7454 38.1994 52.25V56H37.2961V50.7168H38.175L38.1896 51.3271C38.4859 50.8551 38.9058 50.6191 39.4494 50.6191C39.6252 50.6191 39.7587 50.6419 39.8498 50.6875V51.5273ZM40.0479 53.3096C40.0479 52.792 40.1488 52.3265 40.3506 51.9131C40.5557 51.4997 40.8389 51.1807 41.2002 50.9561C41.5648 50.7314 41.9798 50.6191 42.4453 50.6191C43.1647 50.6191 43.7458 50.8682 44.1885 51.3662C44.6344 51.8643 44.8574 52.5267 44.8574 53.3535V53.417C44.8574 53.9313 44.7581 54.3936 44.5596 54.8037C44.3643 55.2106 44.0827 55.528 43.7148 55.7559C43.3503 55.9837 42.9303 56.0977 42.4551 56.0977C41.7389 56.0977 41.1579 55.8486 40.7119 55.3506C40.2692 54.8525 40.0479 54.1934 40.0479 53.373V53.3096ZM40.9561 53.417C40.9561 54.0029 41.0911 54.4733 41.3613 54.8281C41.6348 55.1829 41.9993 55.3604 42.4551 55.3604C42.9141 55.3604 43.2786 55.1813 43.5488 54.8232C43.819 54.4619 43.9541 53.9574 43.9541 53.3096C43.9541 52.7301 43.8158 52.2614 43.5391 51.9033C43.2656 51.542 42.901 51.3613 42.4453 51.3613C41.9993 51.3613 41.6396 51.5387 41.3662 51.8936C41.0928 52.2484 40.9561 52.7562 40.9561 53.417ZM48.7664 54.5986C48.7664 54.3545 48.6736 54.1657 48.4881 54.0322C48.3058 53.8955 47.9852 53.7783 47.5262 53.6807C47.0704 53.583 46.7075 53.4658 46.4373 53.3291C46.1704 53.1924 45.9718 53.0296 45.8416 52.8408C45.7146 52.652 45.6512 52.4274 45.6512 52.167C45.6512 51.734 45.8335 51.3678 46.198 51.0684C46.5659 50.7689 47.0346 50.6191 47.6043 50.6191C48.2033 50.6191 48.6883 50.7738 49.0594 51.083C49.4337 51.3923 49.6209 51.7878 49.6209 52.2695H48.7127C48.7127 52.0221 48.6069 51.8089 48.3953 51.6299C48.187 51.4508 47.9233 51.3613 47.6043 51.3613C47.2755 51.3613 47.0184 51.4329 46.8328 51.5762C46.6473 51.7194 46.5545 51.9066 46.5545 52.1377C46.5545 52.3558 46.6408 52.5202 46.8133 52.6309C46.9858 52.7415 47.2967 52.8473 47.7459 52.9482C48.1984 53.0492 48.5646 53.1696 48.8445 53.3096C49.1245 53.4495 49.3312 53.6188 49.4646 53.8174C49.6014 54.0127 49.6697 54.252 49.6697 54.5352C49.6697 55.0072 49.4809 55.3864 49.1033 55.6729C48.7257 55.9561 48.2358 56.0977 47.6336 56.0977C47.2104 56.0977 46.8361 56.0228 46.5105 55.873C46.185 55.7233 45.9295 55.515 45.7439 55.248C45.5617 54.9779 45.4705 54.6865 45.4705 54.374H46.3738C46.3901 54.6768 46.5105 54.9176 46.7352 55.0967C46.963 55.2725 47.2625 55.3604 47.6336 55.3604C47.9754 55.3604 48.2488 55.292 48.4539 55.1553C48.6622 55.0153 48.7664 54.8298 48.7664 54.5986Z" fill="#666666"/>
<defs>
<filter id="filter0_d_7838:60029" x="0" y="0" width="66" height="34" filterUnits="userSpaceOnUse" color-interpolation-filters="sRGB">
<feFlood flood-opacity="0" result="BackgroundImageFix"/>
<feColorMatrix in="SourceAlpha" type="matrix" values="0 0 0 0 0 0 0 0 0 0 0 0 0 0 0 0 0 0 127 0" result="hardAlpha"/>
<feOffset dy="1"/>
<feGaussianBlur stdDeviation="1"/>
<feColorMatrix type="matrix" values="0 0 0 0 0 0 0 0 0 0 0 0 0 0 0 0 0 0 0.2 0"/>
<feBlend mode="normal" in2="BackgroundImageFix" result="effect1_dropShadow_7838:60029"/>
<feBlend mode="normal" in="SourceGraphic" in2="effect1_dropShadow_7838:60029" result="shape"/>
</filter>
</defs>
</svg>
