<svg width="70" height="65" viewBox="0 0 70 65" fill="none" xmlns="http://www.w3.org/2000/svg">
<g filter="url(#filter0_d_7838:60155)">
<rect x="2" y="1" width="66" height="34" rx="8" fill="#E7F3F9"/>
<path fill-rule="evenodd" clip-rule="evenodd" d="M36.6529 10.7779L27.9026 19.5289C26.3988 21.0721 26.4148 23.5374 27.9384 25.0611C29.4621 26.5847 31.9274 26.6007 33.4706 25.0969L42.2216 16.3504C43.2171 15.3556 43.6062 13.9054 43.2424 12.5459C42.8786 11.1865 41.8172 10.1243 40.458 9.75965C39.0988 9.39496 37.6483 9.78311 36.6529 10.7779Z" stroke="#007DC5" stroke-linecap="round" stroke-linejoin="round"/>
<path d="M37.4496 21.1195L31.8809 15.5508" stroke="#007DC5" stroke-linecap="round" stroke-linejoin="round"/>
<path d="M37.8496 12.768C38.166 12.4514 38.5952 12.2734 39.0429 12.2734C39.4905 12.2734 39.9197 12.4514 40.2361 12.768V12.768" stroke="#007DC5" stroke-linecap="round" stroke-linejoin="round"/>
</g>
<path d="M13.375 46.7549L15.4062 40.8906H16.4316L13.7949 48H12.9648L10.333 40.8906H11.3535L13.375 46.7549ZM17.9285 48H17.0252V42.7168H17.9285V48ZM16.952 41.3154C16.952 41.1689 16.9959 41.0452 17.0838 40.9443C17.1749 40.8434 17.3084 40.793 17.4842 40.793C17.66 40.793 17.7934 40.8434 17.8846 40.9443C17.9757 41.0452 18.0213 41.1689 18.0213 41.3154C18.0213 41.4619 17.9757 41.584 17.8846 41.6816C17.7934 41.7793 17.66 41.8281 17.4842 41.8281C17.3084 41.8281 17.1749 41.7793 17.0838 41.6816C16.9959 41.584 16.952 41.4619 16.952 41.3154ZM20.3043 41.4375V42.7168H21.2906V43.415H20.3043V46.6914C20.3043 46.903 20.3482 47.0625 20.4361 47.1699C20.524 47.2741 20.6738 47.3262 20.8854 47.3262C20.9895 47.3262 21.1327 47.3066 21.315 47.2676V48C21.0774 48.0651 20.8463 48.0977 20.6217 48.0977C20.218 48.0977 19.9137 47.9756 19.7086 47.7314C19.5035 47.4873 19.401 47.1406 19.401 46.6914V43.415H18.4391V42.7168H19.401V41.4375H20.3043ZM25.3119 48C25.2598 47.8958 25.2175 47.7103 25.185 47.4434C24.765 47.8796 24.2637 48.0977 23.6811 48.0977C23.1602 48.0977 22.7322 47.9512 22.3969 47.6582C22.0648 47.362 21.8988 46.9876 21.8988 46.5352C21.8988 45.985 22.1072 45.5586 22.5238 45.2559C22.9438 44.9499 23.5329 44.7969 24.2914 44.7969H25.1703V44.3818C25.1703 44.0661 25.0759 43.8154 24.8871 43.6299C24.6983 43.4411 24.42 43.3467 24.0521 43.3467C23.7299 43.3467 23.4597 43.4281 23.2416 43.5908C23.0235 43.7536 22.9145 43.9505 22.9145 44.1816H22.0063C22.0063 43.918 22.099 43.6641 22.2846 43.4199C22.4734 43.1725 22.7273 42.9772 23.0463 42.834C23.3686 42.6908 23.7217 42.6191 24.1059 42.6191C24.7146 42.6191 25.1915 42.7721 25.5365 43.0781C25.8816 43.3809 26.0606 43.7992 26.0736 44.333V46.7646C26.0736 47.2497 26.1355 47.6354 26.2592 47.9219V48H25.3119ZM23.8129 47.3115C24.0961 47.3115 24.3646 47.2383 24.6186 47.0918C24.8725 46.9453 25.0564 46.7549 25.1703 46.5205V45.4365H24.4623C23.3555 45.4365 22.8021 45.7604 22.8021 46.4082C22.8021 46.6914 22.8965 46.9128 23.0854 47.0723C23.2742 47.2318 23.5167 47.3115 23.8129 47.3115ZM28.0393 42.7168L28.0637 43.3027C28.451 42.847 28.9735 42.6191 29.6311 42.6191C30.37 42.6191 30.8729 42.9023 31.1398 43.4688C31.3156 43.2148 31.5435 43.0098 31.8234 42.8535C32.1066 42.6973 32.4403 42.6191 32.8244 42.6191C33.9833 42.6191 34.5725 43.2327 34.592 44.46V48H33.6887V44.5137C33.6887 44.1361 33.6024 43.8545 33.4299 43.6689C33.2574 43.4801 32.9676 43.3857 32.5607 43.3857C32.2255 43.3857 31.9471 43.4867 31.7258 43.6885C31.5044 43.887 31.3758 44.1556 31.34 44.4941V48H30.4318V44.5381C30.4318 43.7699 30.0559 43.3857 29.3039 43.3857C28.7115 43.3857 28.3062 43.638 28.0881 44.1426V48H27.1848V42.7168H28.0393ZM36.6406 48H35.7373V42.7168H36.6406V48ZM35.6641 41.3154C35.6641 41.1689 35.708 41.0452 35.7959 40.9443C35.887 40.8434 36.0205 40.793 36.1963 40.793C36.3721 40.793 36.5055 40.8434 36.5967 40.9443C36.6878 41.0452 36.7334 41.1689 36.7334 41.3154C36.7334 41.4619 36.6878 41.584 36.5967 41.6816C36.5055 41.7793 36.3721 41.8281 36.1963 41.8281C36.0205 41.8281 35.887 41.7793 35.7959 41.6816C35.708 41.584 35.6641 41.4619 35.6641 41.3154ZM38.6453 42.7168L38.6746 43.3809C39.0783 42.873 39.6056 42.6191 40.2566 42.6191C41.3732 42.6191 41.9363 43.249 41.9461 44.5088V48H41.0428V44.5039C41.0395 44.123 40.9516 43.8415 40.7791 43.6592C40.6098 43.4769 40.3445 43.3857 39.9832 43.3857C39.6902 43.3857 39.4331 43.4639 39.2117 43.6201C38.9904 43.7764 38.8178 43.9814 38.6941 44.2354V48H37.7908V42.7168H38.6453ZM46.2701 48C46.218 47.8958 46.1757 47.7103 46.1432 47.4434C45.7232 47.8796 45.2219 48.0977 44.6393 48.0977C44.1184 48.0977 43.6904 47.9512 43.3551 47.6582C43.023 47.362 42.857 46.9876 42.857 46.5352C42.857 45.985 43.0654 45.5586 43.482 45.2559C43.902 44.9499 44.4911 44.7969 45.2496 44.7969H46.1285V44.3818C46.1285 44.0661 46.0341 43.8154 45.8453 43.6299C45.6565 43.4411 45.3782 43.3467 45.0104 43.3467C44.6881 43.3467 44.4179 43.4281 44.1998 43.5908C43.9817 43.7536 43.8727 43.9505 43.8727 44.1816H42.9645C42.9645 43.918 43.0572 43.6641 43.2428 43.4199C43.4316 43.1725 43.6855 42.9772 44.0045 42.834C44.3268 42.6908 44.6799 42.6191 45.0641 42.6191C45.6728 42.6191 46.1497 42.7721 46.4947 43.0781C46.8398 43.3809 47.0188 43.7992 47.0318 44.333V46.7646C47.0318 47.2497 47.0937 47.6354 47.2174 47.9219V48H46.2701ZM44.7711 47.3115C45.0543 47.3115 45.3229 47.2383 45.5768 47.0918C45.8307 46.9453 46.0146 46.7549 46.1285 46.5205V45.4365H45.4205C44.3137 45.4365 43.7604 45.7604 43.7604 46.4082C43.7604 46.6914 43.8548 46.9128 44.0436 47.0723C44.2324 47.2318 44.4749 47.3115 44.7711 47.3115ZM51.224 46.5986C51.224 46.3545 51.1312 46.1657 50.9457 46.0322C50.7634 45.8955 50.4428 45.7783 49.9838 45.6807C49.5281 45.583 49.1651 45.4658 48.8949 45.3291C48.628 45.1924 48.4294 45.0296 48.2992 44.8408C48.1723 44.652 48.1088 44.4274 48.1088 44.167C48.1088 43.734 48.2911 43.3678 48.6557 43.0684C49.0235 42.7689 49.4923 42.6191 50.0619 42.6191C50.6609 42.6191 51.1459 42.7738 51.517 43.083C51.8913 43.3923 52.0785 43.7878 52.0785 44.2695H51.1703C51.1703 44.0221 51.0645 43.8089 50.8529 43.6299C50.6446 43.4508 50.3809 43.3613 50.0619 43.3613C49.7331 43.3613 49.476 43.4329 49.2904 43.5762C49.1049 43.7194 49.0121 43.9066 49.0121 44.1377C49.0121 44.3558 49.0984 44.5202 49.2709 44.6309C49.4434 44.7415 49.7543 44.8473 50.2035 44.9482C50.656 45.0492 51.0222 45.1696 51.3021 45.3096C51.5821 45.4495 51.7888 45.6188 51.9223 45.8174C52.059 46.0127 52.1273 46.252 52.1273 46.5352C52.1273 47.0072 51.9385 47.3864 51.5609 47.6729C51.1833 47.9561 50.6934 48.0977 50.0912 48.0977C49.668 48.0977 49.2937 48.0228 48.9682 47.873C48.6426 47.7233 48.3871 47.515 48.2016 47.248C48.0193 46.9779 47.9281 46.6865 47.9281 46.374H48.8314C48.8477 46.6768 48.9682 46.9176 49.1928 47.0967C49.4206 47.2725 49.7201 47.3604 50.0912 47.3604C50.433 47.3604 50.7064 47.292 50.9115 47.1553C51.1199 47.0153 51.224 46.8298 51.224 46.5986ZM57.377 48.0977C56.6608 48.0977 56.0781 47.8633 55.6289 47.3945C55.1797 46.9225 54.9551 46.2926 54.9551 45.5049V45.3389C54.9551 44.8148 55.0544 44.3477 55.2529 43.9375C55.4548 43.5241 55.7347 43.2018 56.0928 42.9707C56.4541 42.7363 56.8447 42.6191 57.2646 42.6191C57.9515 42.6191 58.4854 42.8454 58.8662 43.2979C59.2471 43.7503 59.4375 44.3981 59.4375 45.2412V45.6172H55.8584C55.8714 46.138 56.0228 46.5596 56.3125 46.8818C56.6055 47.2008 56.9766 47.3604 57.4258 47.3604C57.7448 47.3604 58.015 47.2952 58.2363 47.165C58.4577 47.0348 58.6514 46.8623 58.8174 46.6475L59.3691 47.0771C58.9264 47.7575 58.2624 48.0977 57.377 48.0977ZM57.2646 43.3613C56.9001 43.3613 56.5941 43.4948 56.3467 43.7617C56.0993 44.0254 55.9463 44.3965 55.8877 44.875H58.5342V44.8066C58.5081 44.3477 58.3844 43.9928 58.1631 43.7422C57.9417 43.4883 57.6423 43.3613 57.2646 43.3613ZM18.4621 54.7168L18.4865 55.3027C18.8739 54.847 19.3964 54.6191 20.0539 54.6191C20.7928 54.6191 21.2958 54.9023 21.5627 55.4688C21.7385 55.2148 21.9663 55.0098 22.2463 54.8535C22.5295 54.6973 22.8632 54.6191 23.2473 54.6191C24.4061 54.6191 24.9953 55.2327 25.0148 56.46V60H24.1115V56.5137C24.1115 56.1361 24.0253 55.8545 23.8527 55.6689C23.6802 55.4801 23.3905 55.3857 22.9836 55.3857C22.6483 55.3857 22.37 55.4867 22.1486 55.6885C21.9273 55.887 21.7987 56.1556 21.7629 56.4941V60H20.8547V56.5381C20.8547 55.7699 20.4787 55.3857 19.7268 55.3857C19.1343 55.3857 18.729 55.638 18.5109 56.1426V60H17.6076V54.7168H18.4621ZM27.0635 60H26.1602V54.7168H27.0635V60ZM26.0869 53.3154C26.0869 53.1689 26.1309 53.0452 26.2188 52.9443C26.3099 52.8434 26.4434 52.793 26.6191 52.793C26.7949 52.793 26.9284 52.8434 27.0195 52.9443C27.1107 53.0452 27.1562 53.1689 27.1562 53.3154C27.1562 53.4619 27.1107 53.584 27.0195 53.6816C26.9284 53.7793 26.7949 53.8281 26.6191 53.8281C26.4434 53.8281 26.3099 53.7793 26.2188 53.6816C26.1309 53.584 26.0869 53.4619 26.0869 53.3154ZM29.0682 54.7168L29.0975 55.3809C29.5011 54.873 30.0284 54.6191 30.6795 54.6191C31.796 54.6191 32.3592 55.249 32.3689 56.5088V60H31.4656V56.5039C31.4624 56.123 31.3745 55.8415 31.202 55.6592C31.0327 55.4769 30.7674 55.3857 30.4061 55.3857C30.1131 55.3857 29.8559 55.4639 29.6346 55.6201C29.4132 55.7764 29.2407 55.9814 29.117 56.2354V60H28.2137V54.7168H29.0682ZM35.6236 60.0977C34.9075 60.0977 34.3248 59.8633 33.8756 59.3945C33.4264 58.9225 33.2018 58.2926 33.2018 57.5049V57.3389C33.2018 56.8148 33.301 56.3477 33.4996 55.9375C33.7014 55.5241 33.9814 55.2018 34.3395 54.9707C34.7008 54.7363 35.0914 54.6191 35.5113 54.6191C36.1982 54.6191 36.732 54.8454 37.1129 55.2979C37.4938 55.7503 37.6842 56.3981 37.6842 57.2412V57.6172H34.1051C34.1181 58.138 34.2695 58.5596 34.5592 58.8818C34.8521 59.2008 35.2232 59.3604 35.6725 59.3604C35.9915 59.3604 36.2617 59.2952 36.483 59.165C36.7044 59.0348 36.898 58.8623 37.0641 58.6475L37.6158 59.0771C37.1731 59.7575 36.5091 60.0977 35.6236 60.0977ZM35.5113 55.3613C35.1467 55.3613 34.8408 55.4948 34.5934 55.7617C34.346 56.0254 34.193 56.3965 34.1344 56.875H36.7809V56.8066C36.7548 56.3477 36.6311 55.9928 36.4098 55.7422C36.1884 55.4883 35.8889 55.3613 35.5113 55.3613ZM40.9877 55.5273C40.851 55.5046 40.7029 55.4932 40.5434 55.4932C39.9509 55.4932 39.5489 55.7454 39.3373 56.25V60H38.434V54.7168H39.3129L39.3275 55.3271C39.6238 54.8551 40.0437 54.6191 40.5873 54.6191C40.7631 54.6191 40.8965 54.6419 40.9877 54.6875V55.5273ZM44.5891 60C44.537 59.8958 44.4947 59.7103 44.4621 59.4434C44.0422 59.8796 43.5409 60.0977 42.9582 60.0977C42.4374 60.0977 42.0093 59.9512 41.674 59.6582C41.342 59.362 41.176 58.9876 41.176 58.5352C41.176 57.985 41.3843 57.5586 41.801 57.2559C42.2209 56.9499 42.8101 56.7969 43.5686 56.7969H44.4475V56.3818C44.4475 56.0661 44.3531 55.8154 44.1643 55.6299C43.9755 55.4411 43.6971 55.3467 43.3293 55.3467C43.007 55.3467 42.7368 55.4281 42.5187 55.5908C42.3007 55.7536 42.1916 55.9505 42.1916 56.1816H41.2834C41.2834 55.918 41.3762 55.6641 41.5617 55.4199C41.7505 55.1725 42.0044 54.9772 42.3234 54.834C42.6457 54.6908 42.9989 54.6191 43.383 54.6191C43.9917 54.6191 44.4686 54.7721 44.8137 55.0781C45.1587 55.3809 45.3378 55.7992 45.3508 56.333V58.7646C45.3508 59.2497 45.4126 59.6354 45.5363 59.9219V60H44.5891ZM43.09 59.3115C43.3732 59.3115 43.6418 59.2383 43.8957 59.0918C44.1496 58.9453 44.3335 58.7549 44.4475 58.5205V57.4365H43.7395C42.6327 57.4365 42.0793 57.7604 42.0793 58.4082C42.0793 58.6914 42.1737 58.9128 42.3625 59.0723C42.5513 59.2318 42.7938 59.3115 43.09 59.3115ZM47.4482 60H46.5449V54.7168H47.4482V60ZM46.4717 53.3154C46.4717 53.1689 46.5156 53.0452 46.6035 52.9443C46.6947 52.8434 46.8281 52.793 47.0039 52.793C47.1797 52.793 47.3132 52.8434 47.4043 52.9443C47.4954 53.0452 47.541 53.1689 47.541 53.3154C47.541 53.4619 47.4954 53.584 47.4043 53.6816C47.3132 53.7793 47.1797 53.8281 47.0039 53.8281C46.8281 53.8281 46.6947 53.7793 46.6035 53.6816C46.5156 53.584 46.4717 53.4619 46.4717 53.3154ZM51.6746 58.5986C51.6746 58.3545 51.5818 58.1657 51.3963 58.0322C51.214 57.8955 50.8934 57.7783 50.4344 57.6807C49.9786 57.583 49.6157 57.4658 49.3455 57.3291C49.0786 57.1924 48.88 57.0296 48.7498 56.8408C48.6228 56.652 48.5594 56.4274 48.5594 56.167C48.5594 55.734 48.7417 55.3678 49.1062 55.0684C49.4741 54.7689 49.9428 54.6191 50.5125 54.6191C51.1115 54.6191 51.5965 54.7738 51.9676 55.083C52.3419 55.3923 52.5291 55.7878 52.5291 56.2695H51.6209C51.6209 56.0221 51.5151 55.8089 51.3035 55.6299C51.0952 55.4508 50.8315 55.3613 50.5125 55.3613C50.1837 55.3613 49.9266 55.4329 49.741 55.5762C49.5555 55.7194 49.4627 55.9066 49.4627 56.1377C49.4627 56.3558 49.549 56.5202 49.7215 56.6309C49.894 56.7415 50.2049 56.8473 50.6541 56.9482C51.1066 57.0492 51.4728 57.1696 51.7527 57.3096C52.0327 57.4495 52.2394 57.6188 52.3728 57.8174C52.5096 58.0127 52.5779 58.252 52.5779 58.5352C52.5779 59.0072 52.3891 59.3864 52.0115 59.6729C51.6339 59.9561 51.144 60.0977 50.5418 60.0977C50.1186 60.0977 49.7443 60.0228 49.4187 59.873C49.0932 59.7233 48.8377 59.515 48.6521 59.248C48.4699 58.9779 48.3787 58.6865 48.3787 58.374H49.282C49.2983 58.6768 49.4187 58.9176 49.6434 59.0967C49.8712 59.2725 50.1707 59.3604 50.5418 59.3604C50.8836 59.3604 51.157 59.292 51.3621 59.1553C51.5704 59.0153 51.6746 58.8298 51.6746 58.5986Z" fill="#666666"/>
<defs>
<filter id="filter0_d_7838:60155" x="0" y="0" width="70" height="38" filterUnits="userSpaceOnUse" color-interpolation-filters="sRGB">
<feFlood flood-opacity="0" result="BackgroundImageFix"/>
<feColorMatrix in="SourceAlpha" type="matrix" values="0 0 0 0 0 0 0 0 0 0 0 0 0 0 0 0 0 0 127 0" result="hardAlpha"/>
<feOffset dy="1"/>
<feGaussianBlur stdDeviation="1"/>
<feColorMatrix type="matrix" values="0 0 0 0 0 0 0 0 0 0 0 0 0 0 0 0 0 0 0.2 0"/>
<feBlend mode="normal" in2="BackgroundImageFix" result="effect1_dropShadow_7838:60155"/>
<feBlend mode="normal" in="SourceGraphic" in2="effect1_dropShadow_7838:60155" result="shape"/>
</filter>
</defs>
</svg>
