<svg width="19" height="19" viewBox="0 0 19 19" fill="none" xmlns="http://www.w3.org/2000/svg">
<path d="M3.78906 6.55273C3.94439 6.55273 4.07031 6.67865 4.07031 6.83398C4.07031 6.98931 3.94439 7.11523 3.78906 7.11523C3.63373 7.11523 3.50781 6.98931 3.50781 6.83398C3.50781 6.67865 3.63373 6.55273 3.78906 6.55273" stroke="#666666" stroke-linecap="round" stroke-linejoin="round"/>
<path d="M13.3516 10.4902C13.5069 10.4902 13.6328 10.6162 13.6328 10.7715C13.6328 10.9268 13.5069 11.0527 13.3516 11.0527C13.1962 11.0527 13.0703 10.9268 13.0703 10.7715C13.0703 10.6162 13.1962 10.4902 13.3516 10.4902" stroke="#666666" stroke-linecap="round" stroke-linejoin="round"/>
<rect x="1.25781" y="4.30273" width="14.625" height="9" rx="1.5" stroke="#666666" stroke-linecap="round" stroke-linejoin="round"/>
<circle cx="8.57031" cy="8.80273" r="2.25" stroke="#666666" stroke-linecap="round" stroke-linejoin="round"/>
<path d="M18.1328 7.67773V14.4277C18.1328 15.0491 17.6291 15.5527 17.0078 15.5527H4.63281" stroke="#666666" stroke-linecap="round" stroke-linejoin="round"/>
</svg>
