<svg width="17" height="17" viewBox="0 0 17 17" fill="none" xmlns="http://www.w3.org/2000/svg">
<path d="M14.9297 9.20703V15.207C14.9297 15.7593 14.482 16.207 13.9297 16.207H2.92969C2.3774 16.207 1.92969 15.7593 1.92969 15.207V9.20703" stroke="#00A02A" stroke-linecap="round" stroke-linejoin="round"/>
<path fill-rule="evenodd" clip-rule="evenodd" d="M14.5284 1.20703H2.33102C2.09661 1.20699 1.89354 1.36961 1.84235 1.59836L0.929688 5.70703C0.929688 6.53546 1.60126 7.20703 2.42969 7.20703C3.25811 7.20703 3.92969 6.53546 3.92969 5.70703C3.92969 6.53546 4.60126 7.20703 5.42969 7.20703C6.25811 7.20703 6.92969 6.53546 6.92969 5.70703C6.92969 6.53546 7.60126 7.20703 8.42969 7.20703C9.25811 7.20703 9.92969 6.53546 9.92969 5.70703C9.92969 6.53546 10.6013 7.20703 11.4297 7.20703C12.2581 7.20703 12.9297 6.53546 12.9297 5.70703C12.9297 6.53546 13.6013 7.20703 14.4297 7.20703C15.2581 7.20703 15.9297 6.53546 15.9297 5.70703L15.0164 1.59836C14.9657 1.36957 14.7627 1.2068 14.5284 1.20703Z" stroke="#00A02A" stroke-linecap="round" stroke-linejoin="round"/>
<path d="M1.92969 12.207H10.4297" stroke="#00A02A" stroke-linecap="round" stroke-linejoin="round"/>
<path d="M10.4297 16.207V9.20703" stroke="#00A02A" stroke-linecap="round" stroke-linejoin="round"/>
</svg>
