<svg width="19" height="19" viewBox="0 0 19 19" fill="none" xmlns="http://www.w3.org/2000/svg">
<path d="M17.0078 9.99023V16.7402C17.0078 17.3616 16.5041 17.8652 15.8828 17.8652H3.50781C2.88649 17.8652 2.38281 17.3616 2.38281 16.7402V9.99023" stroke="#666666" stroke-width="1.2" stroke-linecap="round" stroke-linejoin="round"/>
<path fill-rule="evenodd" clip-rule="evenodd" d="M16.5563 0.990235H2.83431C2.5706 0.990191 2.34215 1.17313 2.28456 1.43048L1.25781 6.05273C1.25781 6.98472 2.01333 7.74023 2.94531 7.74023C3.87729 7.74023 4.63281 6.98472 4.63281 6.05273C4.63281 6.98472 5.38833 7.74023 6.32031 7.74023C7.25229 7.74023 8.00781 6.98472 8.00781 6.05273C8.00781 6.98472 8.76333 7.74023 9.69531 7.74023C10.6273 7.74023 11.3828 6.98472 11.3828 6.05273C11.3828 6.98472 12.1383 7.74023 13.0703 7.74023C14.0023 7.74023 14.7578 6.98472 14.7578 6.05273C14.7578 6.98472 15.5133 7.74023 16.4453 7.74023C17.3773 7.74023 18.1328 6.98472 18.1328 6.05273L17.1053 1.43048C17.0483 1.17309 16.8199 0.989978 16.5563 0.990235Z" stroke="#666666" stroke-width="1.2" stroke-linecap="round" stroke-linejoin="round"/>
<path d="M2.38281 13.3652H11.9453" stroke="#666666" stroke-width="1.2" stroke-linecap="round" stroke-linejoin="round"/>
<path d="M11.9453 17.8652V9.99023" stroke="#666666" stroke-width="1.2" stroke-linecap="round" stroke-linejoin="round"/>
</svg>
