<svg width="18" height="18" viewBox="0 0 18 18" fill="none" xmlns="http://www.w3.org/2000/svg">
<path d="M3.09375 5.625C3.24908 5.625 3.375 5.75092 3.375 5.90625C3.375 6.06158 3.24908 6.1875 3.09375 6.1875C2.93842 6.1875 2.8125 6.06158 2.8125 5.90625C2.8125 5.75092 2.93842 5.625 3.09375 5.625" stroke="#007DC5" stroke-linecap="round" stroke-linejoin="round"/>
<path d="M12.6562 9.5625C12.8116 9.5625 12.9375 9.68842 12.9375 9.84375C12.9375 9.99908 12.8116 10.125 12.6562 10.125C12.5009 10.125 12.375 9.99908 12.375 9.84375C12.375 9.68842 12.5009 9.5625 12.6562 9.5625" stroke="#007DC5" stroke-linecap="round" stroke-linejoin="round"/>
<rect x="0.5625" y="3.375" width="14.625" height="9" rx="1.5" stroke="#007DC5" stroke-linecap="round" stroke-linejoin="round"/>
<circle cx="7.875" cy="7.875" r="2.25" stroke="#007DC5" stroke-linecap="round" stroke-linejoin="round"/>
<path d="M17.4375 6.75V13.5C17.4375 14.1213 16.9338 14.625 16.3125 14.625H3.9375" stroke="#007DC5" stroke-linecap="round" stroke-linejoin="round"/>
</svg>
