<svg width="51" height="51" viewBox="0 0 51 51" fill="none" xmlns="http://www.w3.org/2000/svg">
<path d="M50.5 50.2754H0.5V0.275391H50.5V50.2754Z" fill="white"/>
<path d="M50.5 27.357V0.296875H0.5V50.2969H50.5V35.7089C50.3886 35.7089 50.5 27.357 50.5 27.357Z" fill="#006FCF"/>
<path d="M44.3753 24.5747H48.1615V15.7773H44.0412V17.0023L43.2617 15.7773H39.6982V17.3364L39.0301 15.7773H32.4599C32.2372 15.7773 32.0145 15.8887 31.7918 15.8887C31.569 15.8887 31.4577 16.0001 31.235 16.1114C31.0122 16.2228 30.9009 16.2228 30.6782 16.3341V15.7773H11.8586L11.3018 17.225L10.745 15.7773H6.29065V17.3364L5.62249 15.7773H2.05902L0.5 19.5635V24.5747H3.06125L3.50668 23.3497H4.39755L4.84298 24.5747H24.4421V23.4611L25.2216 24.5747H30.6782V23.9065C30.7895 24.0179 31.0122 24.0179 31.1236 24.1292C31.235 24.2406 31.4577 24.2406 31.569 24.352C31.7918 24.4633 32.0145 24.4633 32.2372 24.4633H36.2461L36.6915 23.2384H37.5824L38.0278 24.4633H43.4844V23.3497L44.3753 24.5747ZM50.5 35.7105V27.47H19.8764L19.0969 28.5836L18.3174 27.47H9.40869V36.2673H18.3174L19.0969 35.1537L19.8764 36.2673H25.4443V34.3742H25.2216C26.0011 34.3742 26.6693 34.2629 27.2261 34.0402V36.3787H31.235V35.2651L32.0145 36.3787H48.6069C49.2751 36.156 49.9432 36.0446 50.5 35.7105V35.7105Z" fill="white"/>
<path d="M48.6069 33.5943H45.6002V34.8193H48.4955C49.7205 34.8193 50.5 34.0398 50.5 32.9262C50.5 31.8126 49.8318 31.2558 48.7183 31.2558H47.382C47.0479 31.2558 46.8252 31.0331 46.8252 30.699C46.8252 30.3649 47.0479 30.1422 47.382 30.1422H49.9432L50.5 28.9173H47.4933C46.2684 28.9173 45.4889 29.6968 45.4889 30.699C45.4889 31.8126 46.157 32.3694 47.2706 32.3694H48.6069C48.941 32.3694 49.1637 32.5921 49.1637 32.9262C49.2751 33.3716 49.0523 33.5943 48.6069 33.5943V33.5943ZM43.1503 33.5943H40.1437V34.8193H43.039C44.2639 34.8193 45.0434 34.0398 45.0434 32.9262C45.0434 31.8126 44.3753 31.2558 43.2617 31.2558H41.9254C41.5913 31.2558 41.3686 31.0331 41.3686 30.699C41.3686 30.3649 41.5913 30.1422 41.9254 30.1422H44.4866L45.0434 28.9173H42.0367C40.8118 28.9173 40.0323 29.6968 40.0323 30.699C40.0323 31.8126 40.7004 32.3694 41.814 32.3694H43.1503C43.4844 32.3694 43.7071 32.5921 43.7071 32.9262C43.8185 33.3716 43.4844 33.5943 43.1503 33.5943V33.5943ZM39.2528 30.0308V28.8059H34.5757V34.7079H39.2528V33.483H35.912V32.258H39.1414V31.0331H35.912V29.9195H39.2528V30.0308ZM31.6804 30.0308C32.2372 30.0308 32.4599 30.3649 32.4599 30.699C32.4599 31.0331 32.2372 31.3671 31.6804 31.3671H30.01V29.9195L31.6804 30.0308ZM30.01 32.5921H30.6782L32.4599 34.7079H34.1303L32.1258 32.4807C33.1281 32.258 33.6849 31.5899 33.6849 30.699C33.6849 29.5854 32.9053 28.8059 31.6804 28.8059H28.5624V34.7079H29.8987L30.01 32.5921ZM26.4465 30.8104C26.4465 31.2558 26.2238 31.5899 25.667 31.5899H23.8853V30.0308H25.5557C26.1125 30.0308 26.4465 30.3649 26.4465 30.8104ZM22.549 28.8059V34.7079H23.8853V32.7034H25.667C26.892 32.7034 27.7828 31.9239 27.7828 30.699C27.7828 29.5854 27.0033 28.6945 25.7784 28.6945L22.549 28.8059ZM20.5445 34.7079H22.2149L19.8764 31.7012L22.2149 28.8059H20.5445L19.0969 30.699L17.6492 28.8059H15.9788L18.3174 31.7012L15.9788 34.5965H17.6492L19.0969 32.7034L20.5445 34.7079ZM15.5334 30.0308V28.8059H10.8563V34.7079H15.5334V33.483H12.1927V32.258H15.422V31.0331H12.1926V29.9195H15.5334V30.0308ZM42.5935 19.5631L44.9321 23.1266H46.6024V17.2246H45.2661V21.1222L44.9321 20.5654L42.8163 17.2246H41.0345V23.1266H42.3708V19.1177L42.5935 19.5631ZM36.8029 19.4518L37.2483 18.2268L37.6938 19.4518L38.2506 20.7881H36.2461L36.8029 19.4518ZM39.1414 23.1266H40.5891L38.0278 17.2246H36.2461L33.6849 23.1266H35.1325L35.6893 21.9017H38.5846L39.1414 23.1266ZM32.9053 23.1266L33.4621 21.9017H33.1281C32.1258 21.9017 31.569 21.2335 31.569 20.2313V20.1199C31.569 19.1177 32.1258 18.4496 33.1281 18.4496H34.5757V17.2246H33.0167C31.235 17.2246 30.2327 18.4496 30.2327 20.1199V20.2313C30.2327 22.013 31.235 23.1266 32.9053 23.1266V23.1266ZM27.8942 23.1266H29.2305V17.336H27.8942V23.1266ZM24.9989 18.4496C25.5557 18.4496 25.7784 18.7836 25.7784 19.1177C25.7784 19.4518 25.5557 19.7859 24.9989 19.7859H23.3285V18.3382L24.9989 18.4496ZM23.3285 21.0108H23.9967L25.7784 23.1266H27.4488L25.4443 20.8994C26.4465 20.6767 27.0033 20.0086 27.0033 19.1177C27.0033 18.0041 26.2238 17.2246 24.9989 17.2246H21.8808V23.1266H23.2172L23.3285 21.0108ZM20.8786 18.4496V17.2246H16.2016V23.1266H20.8786V21.9017H17.5379V20.6767H20.7673V19.4518H17.5379V18.3382H20.8786V18.4496ZM10.745 23.1266H11.9699L13.6403 18.3382V23.1266H14.9766V17.2246H12.7494L11.4131 21.2335L10.0768 17.2246H7.84966V23.1266H9.18597V18.3382L10.745 23.1266ZM3.50668 19.4518L3.95212 18.2268L4.39755 19.4518L4.95434 20.7881H2.94989L3.50668 19.4518ZM5.84521 23.1266H7.29287L4.73163 17.2246H3.06125L0.5 23.1266H1.94766L2.50445 21.9017H5.39978L5.84521 23.1266Z" fill="#006FCF"/>
</svg>
