<svg width="19" height="14" viewBox="0 0 19 14" fill="none" xmlns="http://www.w3.org/2000/svg">
<path d="M3.78906 3.70312C3.94439 3.70312 4.07031 3.82904 4.07031 3.98438C4.07031 4.13971 3.94439 4.26562 3.78906 4.26562C3.63373 4.26562 3.50781 4.13971 3.50781 3.98438C3.50781 3.82904 3.63373 3.70312 3.78906 3.70312" stroke="#666666" stroke-linecap="round" stroke-linejoin="round"/>
<path d="M13.3516 7.64062C13.5069 7.64062 13.6328 7.76654 13.6328 7.92188C13.6328 8.07721 13.5069 8.20312 13.3516 8.20312C13.1962 8.20312 13.0703 8.07721 13.0703 7.92188C13.0703 7.76654 13.1962 7.64062 13.3516 7.64062" stroke="#666666" stroke-linecap="round" stroke-linejoin="round"/>
<rect x="1.25781" y="1.45312" width="14.625" height="9" rx="1.5" stroke="#666666" stroke-linecap="round" stroke-linejoin="round"/>
<circle cx="8.57031" cy="5.95312" r="2.25" stroke="#666666" stroke-linecap="round" stroke-linejoin="round"/>
<path d="M18.1328 4.82812V11.5781C18.1328 12.1994 17.6291 12.7031 17.0078 12.7031H4.63281" stroke="#666666" stroke-linecap="round" stroke-linejoin="round"/>
</svg>
