<svg width="98" height="27" viewBox="0 0 98 27" fill="none" xmlns="http://www.w3.org/2000/svg">
<g clip-path="url(#clip0)">
<path d="M1.28516 13.5563C1.28516 6.6224 6.85569 1.00586 13.7269 1.00586C20.598 1.00586 26.1685 6.62658 26.1685 13.5563C26.1685 20.4902 20.598 26.1067 13.7269 26.1067C6.85569 26.1067 1.28516 20.4902 1.28516 13.5563Z" fill="white"/>
<path d="M34.6935 5.9263C34.6935 4.69677 34.0578 4.77623 33.4473 4.76368V4.4082C33.9742 4.4333 34.5179 4.4333 35.0448 4.4333C35.6136 4.4333 36.3873 4.4082 37.391 4.4082C40.8997 4.4082 42.8109 6.77108 42.8109 9.1925C42.8109 10.5475 42.0247 13.9517 37.2279 13.9517C36.5378 13.9517 35.898 13.9266 35.2623 13.9266C34.6517 13.9266 34.0537 13.9392 33.4473 13.9517V13.5962C34.2586 13.5126 34.6517 13.4875 34.6935 12.5591V5.9263V5.9263ZM36.0234 12.3374C36.0234 13.3913 36.772 13.5126 37.4328 13.5126C40.3602 13.5126 41.3221 11.2835 41.3221 9.24687C41.3221 6.69162 39.6953 4.84314 37.0815 4.84314C36.5253 4.84314 36.2702 4.88078 36.0234 4.89751V12.3374Z" fill="white"/>
<path d="M43.2871 13.5964H43.5422C43.9228 13.5964 44.1904 13.5964 44.1904 13.1447V9.43941C44.1904 8.83719 43.9897 8.75355 43.4878 8.48171V8.26425C44.1235 8.07187 44.8847 7.81258 44.939 7.77076C45.0352 7.71639 45.1147 7.70385 45.1816 7.70385C45.2485 7.70385 45.2778 7.78331 45.2778 7.89204V13.1406C45.2778 13.5922 45.5789 13.5922 45.9553 13.5922H46.1853V13.9477C45.7253 13.9477 45.2485 13.9226 44.7634 13.9226C44.2741 13.9226 43.789 13.9352 43.2871 13.9477V13.5964V13.5964ZM44.7383 5.59608C44.3828 5.59608 44.0733 5.26569 44.0733 4.9144C44.0733 4.57147 44.3995 4.25781 44.7383 4.25781C45.0896 4.25781 45.4032 4.54638 45.4032 4.9144C45.4032 5.28242 45.1063 5.59608 44.7383 5.59608Z" fill="white"/>
<path d="M47.4789 9.52428C47.4789 9.01825 47.3284 8.88443 46.6927 8.62514V8.36167C47.274 8.16929 47.8302 7.98946 48.4826 7.70508C48.5245 7.70508 48.5621 7.73017 48.5621 7.83891V8.72969C49.3358 8.16929 50.0007 7.70508 50.9083 7.70508C52.0625 7.70508 52.4682 8.54986 52.4682 9.61629V13.1418C52.4682 13.5935 52.7693 13.5935 53.1457 13.5935H53.3882V13.9489C52.9115 13.9489 52.4389 13.9238 51.9538 13.9238C51.4645 13.9238 50.9794 13.9364 50.49 13.9489V13.5935H50.7326C51.1132 13.5935 51.3808 13.5935 51.3808 13.1418V9.60374C51.3808 8.82169 50.9083 8.44112 50.1346 8.44112C49.6996 8.44112 49.0096 8.7966 48.5621 9.09771V13.1418C48.5621 13.5935 48.8632 13.5935 49.2438 13.5935H49.4863V13.9489C49.0138 13.9489 48.537 13.9238 48.0477 13.9238C47.5626 13.9238 47.0733 13.9364 46.584 13.9489V13.5935H46.8307C47.2113 13.5935 47.4789 13.5935 47.4789 13.1418V9.52428V9.52428Z" fill="white"/>
<path d="M54.421 10.1809C54.3918 10.3022 54.3918 10.5071 54.421 10.9713C54.5005 12.2719 55.3286 13.3383 56.4117 13.3383C57.1561 13.3383 57.7416 12.9285 58.2435 12.4225L58.4317 12.6148C57.8085 13.4513 57.0348 14.158 55.9266 14.158C53.7686 14.158 53.3379 12.0544 53.3379 11.1762C53.3379 8.49549 55.1278 7.70508 56.073 7.70508C57.1729 7.70508 58.3522 8.3993 58.3648 9.85049C58.3648 9.93413 58.3648 10.0136 58.3522 10.0972L58.2267 10.1809H54.421ZM56.8174 9.74175C57.1561 9.74175 57.1938 9.5661 57.1938 9.39882C57.1938 8.70041 56.7756 8.14001 56.0144 8.14001C55.1864 8.14001 54.6176 8.75478 54.4545 9.74175H56.8174Z" fill="white"/>
<path d="M58.6738 13.5976H59.0419C59.4224 13.5976 59.6901 13.5976 59.6901 13.146V9.30682C59.6901 8.88443 59.1882 8.80078 58.9875 8.69205V8.48713C59.9786 8.06056 60.5223 7.70926 60.6436 7.70926C60.7231 7.70926 60.7649 7.7469 60.7649 7.88491V9.11444H60.7941C61.1329 8.58332 61.7017 7.70508 62.5255 7.70508C62.8643 7.70508 63.2992 7.93509 63.2992 8.42858C63.2992 8.7966 63.0441 9.12699 62.6635 9.12699C62.2411 9.12699 62.2411 8.7966 61.7686 8.7966C61.5386 8.7966 60.7816 9.11026 60.7816 9.93413V13.146C60.7816 13.5976 61.0534 13.5976 61.4298 13.5976H62.1868V13.9531C61.4424 13.9406 60.8736 13.928 60.2881 13.928C59.7319 13.928 59.1631 13.9406 58.6738 13.9531V13.5976V13.5976Z" fill="white"/>
<path d="M63.893 12.0542C64.0686 12.9575 64.6123 13.7228 65.6034 13.7228C66.4022 13.7228 66.6991 13.2293 66.6991 12.7526C66.6991 11.1383 63.7466 11.6569 63.7466 9.45709C63.7466 8.69177 64.3572 7.70898 65.8502 7.70898C66.2851 7.70898 66.8664 7.83027 67.3934 8.10628L67.4895 9.49892H67.1759C67.0421 8.63741 66.5653 8.14392 65.6996 8.14392C65.1559 8.14392 64.6415 8.45758 64.6415 9.04725C64.6415 10.649 67.7865 10.1555 67.7865 12.3009C67.7865 13.2042 67.0671 14.1619 65.457 14.1619C64.9134 14.1619 64.2777 13.9696 63.8009 13.6977L63.6504 12.1253L63.893 12.0542Z" fill="white"/>
<path d="M80.0234 6.88579H79.6847C79.4295 5.28824 78.3046 4.6442 76.7865 4.6442C75.2266 4.6442 72.9599 5.69808 72.9599 8.97683C72.9599 11.7412 74.9171 13.7235 76.9998 13.7235C78.3422 13.7235 79.4546 12.7951 79.7265 11.3564L80.0359 11.4359L79.7265 13.4349C79.1577 13.7904 77.6229 14.1584 76.7279 14.1584C73.5579 14.1584 71.5547 12.0925 71.5547 9.01865C71.5547 6.21666 74.0347 4.20508 76.6903 4.20508C77.7902 4.20508 78.8441 4.56055 79.8896 4.92858L80.0234 6.88579Z" fill="white"/>
<path d="M80.5078 13.5972H80.7671C81.1477 13.5972 81.4195 13.5972 81.4195 13.1456V5.53417C81.4195 4.64339 81.2146 4.61829 80.7002 4.46774V4.24609C81.2439 4.07044 81.8126 3.8237 82.097 3.65641C82.2434 3.57695 82.3563 3.50586 82.3939 3.50586C82.4776 3.50586 82.5027 3.5895 82.5027 3.69824V13.1456C82.5027 13.5972 82.7996 13.5972 83.1802 13.5972H83.4102V13.9527C82.9501 13.9527 82.4776 13.9276 81.9841 13.9276C81.499 13.9276 81.0097 13.9402 80.5078 13.9527V13.5972V13.5972Z" fill="white"/>
<path d="M89.2104 13.2005C89.2104 13.4472 89.3568 13.4598 89.591 13.4598C89.7541 13.4598 89.959 13.4472 90.1347 13.4472V13.7358C89.5492 13.7902 88.4409 14.0787 88.1816 14.1582L88.1147 14.1164V13.0081C87.3034 13.6772 86.6761 14.154 85.7142 14.154C84.9823 14.154 84.2254 13.6772 84.2254 12.5272V9.03095C84.2254 8.67548 84.171 8.33255 83.4141 8.26563V8.00634C83.9034 7.98962 84.9823 7.91016 85.1622 7.91016C85.3127 7.91016 85.3127 8.00634 85.3127 8.30745V11.8371C85.3127 12.247 85.3127 13.4221 86.4921 13.4221C86.9521 13.4221 87.5627 13.0667 88.1315 12.5899V8.90967C88.1315 8.63784 87.4832 8.48728 86.9939 8.34927V8.10253C88.2151 8.01889 88.9721 7.91434 89.1059 7.91434C89.2146 7.91434 89.2146 8.01053 89.2146 8.16108V13.2005H89.2104Z" fill="white"/>
<path d="M91.9079 8.68746C92.4516 8.22325 93.1835 7.70467 93.9279 7.70467C95.5004 7.70467 96.4497 9.08476 96.4497 10.5736C96.4497 12.3635 95.1491 14.1576 93.2086 14.1576C92.2049 14.1576 91.6779 13.8314 91.3266 13.6809L90.921 13.9945L90.6366 13.844C90.7579 13.0368 90.8248 12.2422 90.8248 11.41V5.52999C90.8248 4.6392 90.624 4.61411 90.1055 4.46356V4.24609C90.6491 4.07044 91.2179 3.8237 91.5023 3.65641C91.6487 3.57695 91.7574 3.50586 91.7992 3.50586C91.8787 3.50586 91.9079 3.5895 91.9079 3.69824V8.68746ZM91.9079 12.4095C91.9079 12.9281 92.3973 13.8021 93.3048 13.8021C94.7559 13.8021 95.3665 12.3635 95.3665 11.1465C95.3665 9.67025 94.2541 8.44072 93.2002 8.44072C92.6942 8.44072 92.276 8.7711 91.9121 9.08476V12.4095H91.9079Z" fill="white"/>
<path d="M33.4336 21.9019H33.5381C33.8016 21.9019 34.086 21.8643 34.086 21.4795V17.5818C34.086 17.1929 33.8058 17.1594 33.5381 17.1594H33.4336V16.9336C33.7222 16.9336 34.1655 16.9629 34.5251 16.9629C34.8931 16.9629 35.3364 16.9336 35.6836 16.9336V17.1594H35.579C35.3155 17.1594 35.0312 17.1929 35.0312 17.5818V21.4795C35.0312 21.8685 35.3113 21.9019 35.579 21.9019H35.6836V22.1277C35.3281 22.1277 34.8848 22.0985 34.5168 22.0985C34.1529 22.0985 33.7222 22.1277 33.4336 22.1277V21.9019V21.9019Z" fill="white"/>
<path d="M35.6838 22.1573C35.3283 22.1573 34.885 22.128 34.517 22.128C34.1573 22.128 33.7224 22.1573 33.4338 22.1573H33.4004V22.1238V21.9022V21.8687H33.4338H33.5384C33.8061 21.8603 34.0486 21.8394 34.0528 21.4756V17.5779C34.0528 17.214 33.8061 17.189 33.5384 17.1848H33.4046V17.1555V16.9004H33.438C33.7266 16.9004 34.1699 16.9297 34.5296 16.9297C34.8976 16.9297 35.3367 16.9004 35.688 16.9004H35.7214V16.9338V17.189H35.688H35.5834C35.3158 17.1931 35.069 17.2182 35.069 17.5821V21.4798C35.069 21.8436 35.3158 21.8645 35.5834 21.8729H35.7173V21.9063V22.1615H35.6838V22.1573ZM35.6503 22.0945V21.9356H35.5793C35.3158 21.9356 35.0021 21.8896 35.0021 21.4798V17.5821C35.0021 17.1722 35.3158 17.1262 35.5793 17.1262H35.6503V16.9673C35.3116 16.9673 34.8808 16.9966 34.5254 16.9966C34.1741 16.9966 33.7517 16.9673 33.4673 16.9673V17.1262H33.5384C33.8019 17.1262 34.1155 17.1722 34.1155 17.5821V21.4798C34.1155 21.8896 33.8019 21.9356 33.5384 21.9356H33.4673V22.0945C33.7517 22.0904 34.1699 22.0653 34.5212 22.0653C34.8767 22.0653 35.3032 22.0945 35.6503 22.0945Z" fill="white"/>
<path d="M40.7475 20.6598L40.7642 20.6431V17.8537C40.7642 17.2431 40.346 17.1552 40.1202 17.1552H39.9571V16.9336C40.3042 16.9336 40.6429 16.9629 40.99 16.9629C41.2911 16.9629 41.5964 16.9336 41.8975 16.9336V17.1594H41.7888C41.4793 17.1594 41.1322 17.218 41.1322 18.1046V21.4921C41.1322 21.7514 41.1406 22.0106 41.1782 22.2407H40.8938L37.0965 17.9707V21.0362C37.0965 21.6844 37.222 21.9061 37.7907 21.9061H37.9162V22.1319C37.5984 22.1319 37.2805 22.1026 36.9627 22.1026C36.6323 22.1026 36.2936 22.1319 35.959 22.1319V21.9061H36.0635C36.5738 21.9061 36.7285 21.559 36.7285 20.9609V17.8286C36.7285 17.4104 36.3856 17.1594 36.0552 17.1594H35.959V16.9336C36.2392 16.9336 36.5278 16.9629 36.8079 16.9629C37.0296 16.9629 37.2429 16.9336 37.4645 16.9336L40.7475 20.6598Z" fill="white"/>
<path d="M41.1746 22.2702L40.8693 22.2576L37.1263 18.0505V21.0323C37.1347 21.6805 37.235 21.8645 37.7871 21.8729H37.946V21.9022V22.1573H37.9125C37.5947 22.1573 37.2769 22.128 36.959 22.128C36.6286 22.128 36.2899 22.1573 35.9553 22.1573H35.9219V22.1238V21.8687H35.9553H36.0599C36.5492 21.8645 36.6872 21.5509 36.6914 20.957V17.8246C36.6914 17.4273 36.3694 17.189 36.0515 17.189H35.9219V17.1555V16.9004H35.9553C36.2397 16.9004 36.5241 16.9297 36.8043 16.9297C37.0218 16.9297 37.235 16.9004 37.486 16.9129L40.7271 20.5932V17.8581C40.7229 17.2642 40.334 17.1931 40.1165 17.189H39.9199V17.1555V16.9004H39.9534C40.3005 16.9004 40.6393 16.9297 40.9864 16.9297C41.2875 16.9297 41.5886 16.9004 41.8939 16.9004H41.9273V16.9297V17.1848H41.8981H41.7893C41.484 17.1931 41.1746 17.2224 41.162 18.0965V21.484C41.162 21.7432 41.1704 22.0025 41.2038 22.2284L41.2122 22.266H41.1746V22.2702ZM40.8944 22.2033H41.1369C41.1035 21.9816 41.0993 21.7307 41.0993 21.484V18.0965C41.0993 17.2057 41.4673 17.122 41.7893 17.122H41.8688V16.9631C41.5761 16.9631 41.2875 16.9924 40.9947 16.9924C40.656 16.9924 40.3298 16.9631 39.9952 16.9631V17.122H40.1249C40.3507 17.122 40.7982 17.2224 40.7982 17.8539L40.7898 20.6684L40.7731 20.681L40.748 20.7061L37.4692 16.9673C37.2518 16.9673 37.0343 16.9966 36.8127 16.9966C36.5408 16.9966 36.2648 16.9673 35.9972 16.9673V17.1262H36.0641C36.4112 17.1262 36.7667 17.3939 36.7667 17.8288V20.9612C36.7667 21.555 36.6036 21.9356 36.0724 21.9398L36.0013 21.9356V22.0987C36.3192 22.0945 36.6496 22.0694 36.9716 22.0694C37.2811 22.0694 37.5863 22.0945 37.8916 22.0987V21.9398H37.7996C37.2183 21.9356 37.0761 21.6847 37.0761 21.0365V17.8874L40.8944 22.2033ZM40.748 20.6601L40.7731 20.6392L40.748 20.6601ZM40.7313 20.6475L40.7271 20.6392L40.7313 20.6475Z" fill="white"/>
<path d="M43.0013 17.3053C42.445 17.3053 42.4283 17.4392 42.3154 17.9828H42.0938C42.123 17.7737 42.1607 17.5688 42.1816 17.3513C42.2108 17.1422 42.2234 16.9331 42.2234 16.7199H42.399C42.4576 16.9415 42.6416 16.9331 42.8423 16.9331H46.648C46.8488 16.9331 47.0328 16.9248 47.0453 16.7031L47.221 16.7324C47.1959 16.9331 47.1624 17.1339 47.1415 17.3346C47.1248 17.5354 47.1248 17.7361 47.1248 17.9368L46.9031 18.0205C46.8906 17.7445 46.853 17.3053 46.3595 17.3053H45.1509V21.2658C45.1509 21.8387 45.4101 21.9056 45.7614 21.9056H45.8994V22.1315C45.6109 22.1315 45.0965 22.1022 44.6992 22.1022C44.2559 22.1022 43.7415 22.1315 43.4529 22.1315V21.9056H43.5951C44.0008 21.9056 44.2057 21.868 44.2057 21.2825V17.3053H43.0013Z" fill="white"/>
<path d="M45.9125 22.1571C45.6198 22.1571 45.1054 22.1278 44.7081 22.1278C44.2648 22.1278 43.7504 22.1571 43.4618 22.1571H43.4325V22.1236V21.8685H43.4618H43.604C44.0097 21.8602 44.177 21.8518 44.1853 21.2747V17.331H43.006V17.2975V17.2641H44.2481V21.2705C44.2481 21.8643 44.0097 21.9271 43.604 21.9271H43.4953V22.086C43.788 22.0818 44.2815 22.0567 44.7123 22.0567C45.097 22.0567 45.5905 22.0818 45.8791 22.086V21.9271H45.7745C45.419 21.9271 45.1305 21.8392 45.1305 21.2538V17.2641H46.3726C46.866 17.2641 46.933 17.6906 46.9497 17.9666L47.1086 17.9081C47.1086 17.7157 47.1086 17.5192 47.1211 17.3226C47.1421 17.1344 47.1713 16.942 47.1964 16.7538L47.0835 16.7329C47.0459 16.9504 46.8409 16.9629 46.6569 16.9588H42.8512C42.8345 16.9588 42.822 16.9588 42.8136 16.9588C42.6379 16.9588 42.4498 16.9504 42.387 16.7413H42.2657C42.2657 16.9462 42.249 17.147 42.2239 17.3435C42.203 17.5484 42.1696 17.745 42.1403 17.9374H42.2992C42.3954 17.4188 42.4581 17.2515 43.0102 17.2599V17.2933V17.3268C42.4665 17.3393 42.479 17.4313 42.3578 17.9792L42.3536 18.0043H42.3159H42.0566L42.0608 17.9666C42.0901 17.7575 42.1277 17.5526 42.1486 17.3351C42.1779 17.1302 42.1947 16.9211 42.1947 16.7078V16.6827H42.2239H42.4247L42.4288 16.7078C42.479 16.896 42.6129 16.896 42.8052 16.9002C42.8178 16.9002 42.8303 16.9002 42.8429 16.9002H46.6486C46.8535 16.896 47.004 16.8918 47.0166 16.6995L47.0208 16.666L47.0542 16.6744L47.2633 16.7078L47.2592 16.7413C47.2299 16.942 47.2006 17.1428 47.1797 17.3393C47.1672 17.5359 47.1672 17.7366 47.1672 17.9374V17.9583L47.1462 17.9666L46.887 18.0628V18.0168C46.866 17.7366 46.8368 17.331 46.3726 17.331H45.1932V21.2579C45.2016 21.8183 45.4232 21.8602 45.7745 21.8685H45.946V21.8978V22.1529H45.9125V22.1571Z" fill="white"/>
<path d="M47.4654 21.9019H47.5699C47.8334 21.9019 48.1136 21.8643 48.1136 21.4795V17.5818C48.1136 17.1929 47.8334 17.1594 47.5699 17.1594H47.4654V16.9336C47.9129 16.9336 48.6824 16.9629 49.3013 16.9629C49.9203 16.9629 50.6856 16.9336 51.1875 16.9336C51.1749 17.2556 51.1833 17.7449 51.2042 18.0753L50.9825 18.1339C50.9491 17.6487 50.8571 17.264 50.0834 17.264H49.0588V19.2128H49.9328C50.3761 19.2128 50.4723 18.9619 50.5141 18.5604H50.7358C50.7232 18.849 50.7149 19.1375 50.7149 19.4303C50.7149 19.7147 50.7232 19.9949 50.7358 20.2793L50.5141 20.3253C50.4723 19.8778 50.4472 19.5892 49.937 19.5892H49.0546V21.3206C49.0546 21.8057 49.4812 21.8057 49.9537 21.8057C50.8403 21.8057 51.2293 21.7472 51.4509 20.8982L51.6558 20.9484C51.5597 21.3457 51.4718 21.7346 51.4049 22.1319C50.9323 22.1319 50.0834 22.1026 49.4184 22.1026C48.7535 22.1026 47.8794 22.1319 47.457 22.1319V21.9019H47.4654Z" fill="white"/>
<path d="M51.413 22.1573C50.9404 22.1573 50.0914 22.128 49.4265 22.128C48.7615 22.128 47.8875 22.1573 47.4651 22.1573H47.4316V22.1238V21.898V21.8687H47.4651H47.5697C47.8373 21.8645 48.0799 21.8394 48.084 21.4756V17.5779C48.0799 17.214 47.8373 17.1931 47.5697 17.1848H47.4316V17.1555V16.9004H47.4651C47.9126 16.9004 48.6821 16.9297 49.301 16.9297C49.92 16.9297 50.6853 16.9004 51.1871 16.9004H51.2206V16.9338C51.2122 17.0468 51.2122 17.1764 51.2122 17.3186C51.2122 17.5737 51.2206 17.8581 51.2332 18.0672V18.0923L51.2081 18.1006L50.9488 18.1676V18.1299C50.9028 17.649 50.84 17.2977 50.0831 17.2893H49.0877V19.1713H49.9325C50.3591 19.1671 50.4344 18.9496 50.4846 18.5481L50.4887 18.5189H50.518H50.7731V18.5523C50.7564 18.8409 50.748 19.1294 50.748 19.4222C50.748 19.7024 50.7564 19.9868 50.7731 20.2711V20.2962L50.748 20.3004L50.4929 20.3506L50.4887 20.3172C50.4386 19.8655 50.4344 19.6146 49.9451 19.6104H49.0919V21.3125C49.0919 21.7642 49.4809 21.7642 49.9618 21.7642C50.8484 21.76 51.2039 21.714 51.4255 20.8776L51.4339 20.8483L51.4673 20.8525L51.7057 20.9152L51.6974 20.9445C51.6012 21.3376 51.5134 21.7307 51.4464 22.1238L51.4423 22.1489H51.413V22.1573ZM51.3837 22.0945C51.4464 21.7182 51.5301 21.3418 51.6221 20.9696L51.4757 20.9319C51.2541 21.7642 50.8275 21.8394 49.9576 21.8311C49.4934 21.8311 49.0292 21.8311 49.025 21.3125V19.5476H49.9409C50.4553 19.5435 50.5097 19.8571 50.5431 20.2795L50.702 20.2461C50.6895 19.9742 50.6811 19.6982 50.6811 19.4222C50.6811 19.142 50.6895 18.866 50.702 18.5816H50.5431C50.5013 18.9705 50.3842 19.2424 49.9325 19.2382H49.0208V17.2266H50.0789C50.8442 17.2224 50.9739 17.6239 51.0031 18.0881L51.1621 18.0463C51.1495 17.8372 51.1411 17.5695 51.1411 17.3186C51.1411 17.189 51.1453 17.0719 51.1495 16.9631C50.6477 16.9631 49.8991 16.9924 49.2968 16.9924C48.6904 16.9924 47.9419 16.9631 47.4944 16.9631V17.122H47.5655C47.8289 17.122 48.1426 17.168 48.1426 17.5779V21.4756C48.1426 21.8854 47.8289 21.9314 47.5655 21.9314H47.4944V22.0904C47.9209 22.0904 48.7783 22.0611 49.4223 22.0611C50.0789 22.0653 50.907 22.0945 51.3837 22.0945Z" fill="white"/>
<path d="M52.6588 17.7198C52.6588 17.1762 52.3619 17.1552 52.1361 17.1552H52.0022V16.9336C52.2406 16.9336 52.6965 16.9629 53.1481 16.9629C53.5872 16.9629 53.9427 16.9336 54.3358 16.9336C55.2642 16.9336 56.0881 17.1887 56.0881 18.2426C56.0881 18.9117 55.649 19.3216 55.0635 19.5516L56.3265 21.4544C56.5314 21.7681 56.6778 21.8559 57.0416 21.9019V22.1277C56.7991 22.1277 56.5607 22.0985 56.3181 22.0985C56.0881 22.0985 55.8539 22.1277 55.6239 22.1277C55.0551 21.3791 54.57 20.572 54.0891 19.7147H53.604V21.3081C53.604 21.881 53.8674 21.9019 54.2062 21.9019H54.34V22.1277C53.9176 22.1277 53.491 22.0985 53.0687 22.0985C52.7132 22.0985 52.3703 22.1277 51.998 22.1277V21.9019H52.1319C52.4037 21.9019 52.6546 21.7764 52.6546 21.5004V17.7198H52.6588ZM53.604 19.447H53.9636C54.7038 19.447 55.1011 19.1668 55.1011 18.2886C55.1011 17.6278 54.6829 17.2012 54.0222 17.2012C53.8005 17.2012 53.7043 17.2263 53.604 17.2305V19.447Z" fill="white"/>
<path d="M57.0374 22.1578C56.7907 22.1578 56.5565 22.1285 56.3139 22.1285C56.0923 22.1285 55.8539 22.1578 55.5946 22.1453C55.03 21.3967 54.5449 20.5979 54.0682 19.7448H53.6332V21.3047C53.6416 21.8651 53.8632 21.8609 54.2062 21.8693H54.3693V21.8985V22.1536H54.3358C53.9134 22.1536 53.4868 22.1244 53.0686 22.1244C52.7173 22.1244 52.3702 22.1536 51.998 22.1536H51.9688V22.1202V21.8651H51.998H52.1319C52.3953 21.8609 52.6212 21.7438 52.6212 21.4929V17.7123C52.617 17.1853 52.3619 17.1853 52.1319 17.177H51.9688V17.1477V16.8926H51.998C52.2364 16.8926 52.6922 16.9219 53.1439 16.9219C53.583 16.9219 53.9385 16.8926 54.3316 16.8926C55.26 16.8926 56.1174 17.1519 56.1174 18.2308C56.1174 18.9042 55.6783 19.3224 55.1095 19.5566L56.3474 21.426C56.5523 21.7354 56.682 21.8149 57.0416 21.8609L57.0667 21.8651V21.8943V22.1495H57.0374V22.1578ZM53.5998 19.682H54.1016L54.11 19.6988C54.5909 20.5561 55.076 21.359 55.6197 22.0951C55.8455 22.0951 56.0839 22.0658 56.3097 22.0658C56.5439 22.0658 56.774 22.0909 57.004 22.0951V21.932C56.6569 21.8902 56.4979 21.7856 56.293 21.4761L55.0091 19.5398L55.0468 19.5231C55.6239 19.2931 56.0505 18.8958 56.0505 18.2434C56.0505 17.2146 55.2517 16.972 54.3274 16.9679C53.9385 16.9679 53.583 16.9971 53.1397 16.9971C52.7048 16.9971 52.2699 16.9679 52.0273 16.9679V17.1268H52.1277C52.3577 17.1268 52.6797 17.1644 52.6797 17.7248V21.5054C52.6797 21.8065 52.4037 21.9403 52.1277 21.9403H52.0273V22.0993C52.3828 22.0993 52.7173 22.07 53.0645 22.07C53.4785 22.07 53.8925 22.0993 54.3023 22.0993V21.9403H54.202C53.8674 21.9403 53.5663 21.8985 53.5663 21.313V19.6904H53.5998V19.682ZM53.5998 19.4813H53.5663V17.2021L53.5956 17.1979C53.6959 17.1895 53.7963 17.1686 54.018 17.1686C54.6871 17.1686 55.1262 17.6077 55.1262 18.2852C55.1262 19.1718 54.6996 19.4771 53.9594 19.4771H53.5998V19.4813ZM53.9636 19.4144C54.6913 19.406 55.0635 19.1509 55.0677 18.2852C55.0635 17.637 54.662 17.2313 54.0221 17.2271C53.8214 17.2271 53.7294 17.2439 53.6332 17.2564V19.4102H53.9636V19.4144Z" fill="white"/>
<path d="M62.0424 20.6598L62.0549 20.6431V17.8537C62.0549 17.2431 61.6367 17.1552 61.4151 17.1552H61.252V16.9336C61.5991 16.9336 61.9378 16.9629 62.2849 16.9629C62.5861 16.9629 62.8913 16.9336 63.1925 16.9336V17.1594H63.0837C62.7742 17.1594 62.4271 17.218 62.4271 18.1046V21.4921C62.4271 21.7514 62.4313 22.0106 62.469 22.2407H62.1888L58.3914 17.9707V21.0362C58.3914 21.6844 58.5169 21.9061 59.0857 21.9061H59.2111V22.1319C58.8933 22.1319 58.5754 22.1026 58.2576 22.1026C57.9272 22.1026 57.5843 22.1319 57.2539 22.1319V21.9061H57.3543C57.8645 21.9061 58.0192 21.559 58.0192 20.9609V17.8286C58.0192 17.4104 57.6805 17.1594 57.3501 17.1594H57.2539V16.9336C57.5341 16.9336 57.8227 16.9629 58.1029 16.9629C58.3245 16.9629 58.5378 16.9336 58.7595 16.9336L62.0424 20.6598Z" fill="white"/>
<path d="M62.4695 22.2702L62.1684 22.2576L58.4254 18.0505V21.0323C58.4338 21.6805 58.53 21.8645 59.0904 21.8729H59.2451V21.9022V22.1573H59.2117C58.8938 22.1573 58.576 22.128 58.2581 22.128C57.9278 22.128 57.5848 22.1573 57.2544 22.1573H57.221V22.1238V21.8687H57.2544H57.3548C57.8399 21.8645 57.9821 21.5509 57.9863 20.9528V17.8204C57.9863 17.4232 57.6643 17.1848 57.3464 17.1848H57.2168V17.1555V16.9004H57.2503C57.5305 16.9004 57.819 16.9297 58.0992 16.9297C58.3167 16.9297 58.53 16.9004 58.7767 16.9088L62.0178 20.5932V17.8581C62.0178 17.2642 61.6247 17.1931 61.4072 17.189H61.2107V17.1597V16.9046H61.2441C61.5913 16.9046 61.9342 16.9338 62.2771 16.9338C62.5782 16.9338 62.8793 16.9046 63.1846 16.9046H63.2181V16.938V17.1931H63.1846H63.0759C62.7706 17.2015 62.4569 17.2308 62.4486 18.1048V21.4923C62.4486 21.7516 62.4528 22.0067 62.4904 22.2367L62.4946 22.2744H62.4695V22.2702ZM62.1935 22.2033H62.436C62.4068 21.9816 62.3984 21.7307 62.3984 21.484V18.0965C62.3984 17.2057 62.7706 17.122 63.0884 17.122H63.1637V16.9631C62.8752 16.9631 62.5824 16.9924 62.2897 16.9924C61.9509 16.9924 61.6205 16.9631 61.2901 16.9631V17.122H61.4198C61.6456 17.122 62.0931 17.2224 62.0931 17.8539L62.0847 20.6684L62.0722 20.681L62.0471 20.7061L58.7642 16.9631C58.5467 16.9631 58.3292 16.9924 58.1076 16.9924C57.8357 16.9924 57.5597 16.9631 57.2921 16.9631V17.122H57.3548C57.7019 17.122 58.0574 17.3855 58.0574 17.8246V20.957C58.0574 21.555 57.8901 21.9314 57.3632 21.9356H57.2921V22.0945C57.6099 22.0904 57.9403 22.0653 58.2623 22.0653C58.5718 22.0653 58.8771 22.0904 59.1824 22.0945V21.9356H59.0904C58.5091 21.9356 58.3627 21.6805 58.3627 21.0323V17.8832L62.1935 22.2033ZM62.0429 20.6601L62.068 20.6392L62.0429 20.6601ZM62.0262 20.6475L62.022 20.6392L62.0262 20.6475Z" fill="white"/>
<path d="M64.3847 21.0617C64.3094 21.3127 64.2216 21.5092 64.2216 21.643C64.2216 21.8689 64.531 21.9023 64.7778 21.9023H64.8614V22.1282C64.5645 22.1114 64.2634 22.0989 63.9665 22.0989C63.6988 22.0989 63.4353 22.1114 63.1719 22.1282V21.9023H63.2137C63.5023 21.9023 63.7448 21.7309 63.8535 21.4172L65.0371 18.0046C65.1333 17.7286 65.2671 17.3564 65.3089 17.0804C65.5473 17.0009 65.84 16.8504 65.9822 16.7625C66.0031 16.7542 66.0157 16.75 66.0408 16.75C66.0617 16.75 66.0784 16.75 66.091 16.7709C66.1119 16.8295 66.1328 16.8964 66.1579 16.9591L67.5129 20.8484C67.6007 21.1077 67.6885 21.3837 67.7847 21.6096C67.8725 21.8187 68.0273 21.9065 68.274 21.9065H68.3158V22.1323C67.9854 22.1156 67.6509 22.1031 67.2996 22.1031C66.9399 22.1031 66.5677 22.1156 66.1955 22.1323V21.9065H66.275C66.4423 21.9065 66.7308 21.8772 66.7308 21.6932C66.7308 21.597 66.6639 21.3963 66.5803 21.1579L66.2959 20.2964H64.6231L64.3847 21.0617ZM65.4595 17.7662H65.4427L64.7569 19.874H66.137L65.4595 17.7662Z" fill="white"/>
<path d="M68.308 22.158C67.9776 22.1454 67.6472 22.1287 67.2959 22.1287C66.9363 22.1287 66.5683 22.1454 66.1919 22.158L66.1584 22.1621V22.1287V21.8694H66.1919H66.2713C66.4428 21.8694 66.6937 21.8318 66.6937 21.6896C66.6937 21.6059 66.631 21.401 66.5515 21.1668L66.2713 20.3262H64.6445L64.4145 21.0748C64.3392 21.3299 64.2514 21.5265 64.2514 21.6477C64.2556 21.8276 64.5316 21.8736 64.7741 21.8736H64.8871V21.907V22.1621L64.8536 22.158C64.5567 22.1454 64.2556 22.1287 63.9628 22.1287C63.6994 22.1287 63.4317 22.1454 63.1682 22.158L63.1348 22.1621V22.1287V21.8694H63.164H63.2059C63.4819 21.8694 63.7077 21.7105 63.8164 21.4094L65 17.9926C65.0962 17.7166 65.23 17.3444 65.2927 17.0516C65.5227 16.9722 65.8197 16.8216 65.9619 16.7296C65.9828 16.7213 65.9995 16.7129 66.033 16.7129C66.0497 16.7129 66.0915 16.7171 66.1124 16.7589C66.1333 16.8216 66.1584 16.8844 66.1793 16.9471L67.5385 20.8406C67.6263 21.0999 67.7141 21.3759 67.8103 21.5934C67.894 21.7941 68.032 21.8736 68.2662 21.8736H68.3415V21.907V22.1621L68.308 22.158ZM66.2211 22.091C66.585 22.0785 66.9446 22.066 67.2959 22.066C67.6389 22.066 67.9609 22.0827 68.2829 22.091V21.9363H68.2704C68.0194 21.9405 67.8438 21.8359 67.7518 21.6185C67.6556 21.3926 67.5678 21.1166 67.48 20.8573L66.1208 16.968C66.0999 16.9094 66.0748 16.8425 66.058 16.7882C66.0497 16.7798 66.0539 16.7798 66.0455 16.7798C66.0413 16.7798 66.0371 16.7798 66.033 16.7798C66.0162 16.7798 66.0079 16.784 65.9911 16.7882C65.8489 16.8802 65.552 17.0265 65.3345 17.0851C65.2885 17.3695 65.1589 17.7375 65.0627 18.0135L63.8834 21.4303C63.7704 21.7523 63.5112 21.9363 63.21 21.9363H63.1975V22.091C63.4484 22.0785 63.7035 22.066 63.9628 22.066C64.2472 22.066 64.54 22.0827 64.8201 22.091V21.9363H64.7741C64.5316 21.9321 64.197 21.907 64.1887 21.6436C64.1887 21.4972 64.2807 21.3048 64.3518 21.0539L64.3852 21.0623L64.3518 21.0539L64.5943 20.2593H66.3131L66.6101 21.1417C66.6937 21.3801 66.7606 21.5808 66.7606 21.6896C66.7481 21.9196 66.4386 21.9321 66.2713 21.9363H66.2211V22.091V22.091ZM64.7114 19.9038L65.4182 17.7333H65.4433H65.46V17.7668L65.4516 17.771L65.46 17.7668V17.7333H65.4809L66.1793 19.9038H64.7114ZM64.7992 19.8411H66.0915L65.4516 17.8462L64.7992 19.8411ZM65.4266 17.7751L65.4433 17.771L65.4266 17.7751Z" fill="white"/>
<path d="M68.638 17.3053C68.0818 17.3053 68.0609 17.4392 67.9521 17.9828H67.7305C67.7597 17.7737 67.7974 17.5688 67.8183 17.3513C67.8476 17.1422 67.8643 16.9331 67.8643 16.7199H68.0399C68.0985 16.9415 68.2825 16.9331 68.4832 16.9331H72.2889C72.4897 16.9331 72.6695 16.9248 72.6862 16.7031L72.8619 16.7324C72.8326 16.9331 72.8075 17.1339 72.7824 17.3346C72.7657 17.5354 72.7657 17.7361 72.7657 17.9368L72.5482 18.0205C72.5357 17.7445 72.498 17.3053 72.0046 17.3053H70.7959V21.2658C70.7959 21.8387 71.0552 21.9056 71.4065 21.9056H71.5445V22.1315C71.256 22.1315 70.7416 22.1022 70.3443 22.1022C69.901 22.1022 69.3824 22.1315 69.098 22.1315V21.9056H69.2402C69.6459 21.9056 69.855 21.868 69.855 21.2825V17.3053H68.638Z" fill="white"/>
<path d="M71.5409 22.1571C71.2523 22.1571 70.7379 22.1278 70.3406 22.1278C69.9015 22.1278 69.3829 22.1571 69.0944 22.1571H69.0651V22.1236V21.8685H69.0944H69.2365C69.6422 21.8602 69.8053 21.8518 69.8137 21.2747V17.331H68.6385V17.2975V17.2641H69.8764V21.2705C69.8764 21.8643 69.638 21.9229 69.2324 21.9271H69.1236V22.086C69.4164 22.0818 69.9099 22.0567 70.3406 22.0567C70.7254 22.0567 71.2189 22.0818 71.5116 22.086V21.9271H71.4029C71.0474 21.9229 70.763 21.8392 70.7588 21.2538V17.2641H72.0009C72.4986 17.2641 72.5613 17.6906 72.5738 17.9666L72.7328 17.9081C72.7328 17.7157 72.7328 17.5192 72.7495 17.3226C72.7704 17.1302 72.7997 16.942 72.8248 16.7538L72.716 16.7329C72.6826 16.9504 72.4735 16.9629 72.2895 16.9588H68.4838C68.4712 16.9588 68.4587 16.9588 68.4461 16.9588C68.2705 16.9588 68.0865 16.9504 68.0196 16.7413H67.8983C67.8941 16.9504 67.8816 17.147 67.8523 17.3477C67.8314 17.5526 67.7937 17.7492 67.7686 17.9416H67.9276C68.0237 17.423 68.0865 17.2557 68.6385 17.2641V17.2975V17.331C68.0907 17.3393 68.1032 17.4355 67.9819 17.9834L67.9777 18.0085H67.9526H67.6934L67.6975 17.9708C67.7268 17.7617 67.7645 17.5568 67.7854 17.3393C67.8146 17.1302 67.8314 16.9253 67.8314 16.712V16.6827H67.8648H68.0656L68.0739 16.7078C68.1241 16.896 68.2621 16.896 68.4503 16.9002C68.4629 16.9002 68.4754 16.9002 68.488 16.9002H72.2936C72.4986 16.896 72.6491 16.8918 72.6617 16.6995V16.666L72.6951 16.6744L72.9042 16.7078L72.8959 16.7413C72.8624 16.942 72.8373 17.1428 72.8164 17.3393C72.8039 17.5401 72.8039 17.7408 72.8039 17.9416V17.9625L72.783 17.9708L72.5237 18.067V18.021C72.5069 17.7408 72.4735 17.3351 72.0093 17.3351H70.8299V21.2621C70.8383 21.8225 71.0599 21.8643 71.4112 21.8727H71.5827V21.902V22.1571H71.5409Z" fill="white"/>
<path d="M73.1348 21.9019H73.2393C73.507 21.9019 73.7872 21.8643 73.7872 21.4795V17.5818C73.7872 17.1929 73.507 17.1594 73.2393 17.1594H73.1348V16.9336C73.4233 16.9336 73.8625 16.9629 74.2263 16.9629C74.5943 16.9629 75.0376 16.9336 75.3847 16.9336V17.1594H75.2802C75.0125 17.1594 74.7323 17.1929 74.7323 17.5818V21.4795C74.7323 21.8685 75.0125 21.9019 75.2802 21.9019H75.3847V22.1277C75.0293 22.1277 74.586 22.0985 74.2179 22.0985C73.8541 22.0985 73.4191 22.1277 73.1348 22.1277V21.9019V21.9019Z" fill="white"/>
<path d="M75.3847 22.1573C75.0292 22.1573 74.5859 22.128 74.2179 22.128C73.8541 22.128 73.4191 22.1573 73.1347 22.1573H73.1055V22.1238V21.898V21.8687H73.1347H73.2393C73.5069 21.8645 73.7495 21.8394 73.7495 21.4756V17.5779C73.7495 17.214 73.5028 17.189 73.2393 17.1848H73.1055V17.1555V16.9004H73.1347C73.4233 16.9004 73.8666 16.9297 74.2263 16.9297C74.5943 16.9297 75.0376 16.9004 75.3847 16.9004H75.414V16.9297V17.1848H75.3847H75.2801C75.0125 17.189 74.7658 17.214 74.7658 17.5779V21.4756C74.7658 21.8394 75.0125 21.8645 75.2801 21.8687H75.414V21.898V22.1531H75.3847V22.1573ZM75.3512 22.0945V21.9356H75.2801C75.0167 21.9356 74.703 21.8896 74.703 21.4798V17.5821C74.703 17.1722 75.0167 17.1262 75.2801 17.1262H75.3512V16.9673C75.0125 16.9673 74.5859 16.9966 74.2263 16.9966C73.875 16.9966 73.4526 16.9673 73.1682 16.9673V17.1262H73.2393C73.5028 17.1262 73.8164 17.1722 73.8164 17.5821V21.4798C73.8164 21.8896 73.5028 21.9356 73.2393 21.9356H73.1682V22.0945C73.4526 22.0904 73.8708 22.0653 74.2221 22.0653C74.5776 22.0653 75.0041 22.0904 75.3512 22.0945Z" fill="white"/>
<path d="M78.3241 16.8223C79.8966 16.8223 81.147 17.8051 81.147 19.3901C81.147 21.1005 79.93 22.2381 78.3576 22.2381C76.7935 22.2381 75.6016 21.1674 75.6016 19.5657C75.6057 18.0225 76.7935 16.8223 78.3241 16.8223ZM78.437 21.9119C79.8715 21.9119 80.1182 20.6405 80.1182 19.5532C80.1182 18.4658 79.5369 17.1485 78.3116 17.1485C77.0193 17.1485 76.6387 18.3069 76.6387 19.3022C76.6387 20.6405 77.2409 21.9119 78.437 21.9119Z" fill="white"/>
<path d="M75.5723 19.5701C75.5764 18.006 76.7767 16.7932 78.3283 16.7932V16.8267V16.8602C76.8102 16.8602 75.6392 18.0437 75.6392 19.5701C75.6392 21.151 76.8185 22.209 78.3659 22.209C79.9216 22.209 81.1177 21.0882 81.1219 19.3903C81.1219 17.8262 79.884 16.8602 78.3283 16.856V16.8225V16.7891C79.9133 16.7932 81.1804 17.7844 81.1846 19.3861C81.1846 21.1175 79.9509 22.2676 78.3659 22.2718C76.7851 22.2676 75.5764 21.1844 75.5723 19.5701ZM76.6052 19.3067C76.6094 18.3072 76.9984 17.1153 78.3115 17.1153C79.5662 17.1194 80.1475 18.4577 80.1475 19.5534C80.1475 20.6366 79.8924 21.9414 78.4328 21.9414V21.9121V21.8787C79.838 21.8787 80.0805 20.6366 80.0805 19.5534C80.0805 18.4744 79.5034 17.1822 78.3073 17.1822C77.0402 17.1822 76.668 18.3155 76.6638 19.3067C76.6638 20.6324 77.266 21.8787 78.4328 21.8828V21.9163V21.9456C77.2116 21.9414 76.6052 20.6491 76.6052 19.3067Z" fill="white"/>
<path d="M86.1205 20.6618L86.1372 20.6451V17.8556C86.1372 17.245 85.719 17.1572 85.4932 17.1572H85.3343V16.9355C85.6772 16.9355 86.0201 16.9648 86.3631 16.9648C86.6684 16.9648 86.9695 16.9355 87.2706 16.9355V17.1614H87.1577C86.8482 17.1614 86.5011 17.2199 86.5011 18.1065V21.494C86.5011 21.7533 86.5095 22.0126 86.5471 22.2426H86.2669L82.4696 17.9727V21.0382C82.4696 21.6864 82.595 21.908 83.1638 21.908H83.2892V22.1339C82.9714 22.1339 82.6577 22.1046 82.3357 22.1046C82.0053 22.1046 81.6624 22.1339 81.332 22.1339V21.908H81.4366C81.9468 21.908 82.0974 21.5609 82.0974 20.9629V17.8305C82.0974 17.4123 81.7586 17.1614 81.4282 17.1614H81.332V16.9355C81.6122 16.9355 81.9008 16.9648 82.181 16.9648C82.4026 16.9648 82.6159 16.9355 82.8376 16.9355L86.1205 20.6618Z" fill="white"/>
<path d="M86.5512 22.2719L86.246 22.2593L82.503 18.0521V21.034C82.5114 21.6822 82.6117 21.8662 83.1638 21.8704H83.3227V21.9038V22.1589H83.2892C82.9714 22.1589 82.6535 22.1297 82.3357 22.1297C82.0053 22.1297 81.6666 22.1589 81.332 22.1589H81.3027V22.1255V21.8704H81.332H81.4366C81.9217 21.8704 82.0639 21.5525 82.0681 20.9587V17.8263C82.0681 17.429 81.746 17.1906 81.4282 17.1906H81.3027V17.1614V16.9062H81.332C81.6164 16.9062 81.9008 16.9355 82.181 16.9355C82.3984 16.9355 82.6117 16.9062 82.8627 16.9188L86.1038 20.599V17.8639C86.1038 17.2701 85.7107 17.199 85.4932 17.1948H85.3008V17.1655V16.9104H85.3343C85.6814 16.9104 86.0243 16.9397 86.3631 16.9397C86.6683 16.9397 86.9653 16.9104 87.2747 16.9104H87.3082V16.9397V17.1948H87.2747H87.1618C86.8607 17.2032 86.5429 17.2325 86.5387 18.1065V21.494C86.5387 21.7533 86.5471 22.0126 86.5805 22.2384L86.5847 22.276H86.5512V22.2719ZM86.2669 22.2049H86.5094C86.476 21.9833 86.4718 21.7324 86.4718 21.4856V18.0981C86.4718 17.2032 86.844 17.1237 87.1618 17.1237H87.2413V16.9648C86.9486 16.9648 86.6558 16.9941 86.3631 16.9941C86.0285 16.9941 85.6981 16.9648 85.3635 16.9648V17.1237H85.4932C85.7232 17.1237 86.1665 17.2283 86.1665 17.8556L86.1581 20.6701L86.1456 20.6827L86.1205 20.7078L82.8376 16.9648C82.6201 16.9648 82.4068 16.9941 82.181 16.9941C81.9091 16.9941 81.6289 16.9648 81.3655 16.9648V17.1237H81.4282C81.7753 17.1237 82.1308 17.3872 82.1308 17.8263V20.9587C82.1308 21.5525 81.9677 21.9331 81.4366 21.9373H81.3655V22.0962C81.6875 22.092 82.0137 22.0669 82.3357 22.0669C82.6452 22.0669 82.9505 22.092 83.2558 22.0962V21.9373H83.1596C82.5825 21.9373 82.4361 21.6822 82.4361 21.034V17.8849L86.2669 22.2049ZM86.1205 20.6618L86.1456 20.6408L86.1205 20.6618ZM86.1038 20.6492L86.0996 20.6408L86.1038 20.6492Z" fill="white"/>
<path d="M88.4567 21.0637C88.3856 21.3146 88.2978 21.5112 88.2978 21.645C88.2978 21.8708 88.6114 21.9043 88.8498 21.9043H88.9334V22.1301C88.6365 22.1134 88.3354 22.1008 88.0426 22.1008C87.775 22.1008 87.5115 22.1134 87.248 22.1301V21.9043H87.2899C87.5784 21.9043 87.8252 21.7328 87.9339 21.4192L89.1174 18.0066C89.2136 17.7306 89.3433 17.3584 89.3893 17.0823C89.6235 17.0029 89.9204 16.8523 90.0626 16.7645C90.0835 16.7561 90.1002 16.752 90.1211 16.752C90.1421 16.752 90.1546 16.752 90.1713 16.7729C90.1922 16.8314 90.2131 16.8983 90.2382 16.9611L91.5932 20.8504C91.6811 21.1097 91.7689 21.3857 91.8651 21.6115C91.9529 21.8206 92.1076 21.9085 92.3544 21.9085H92.3962V22.1343C92.0658 22.1176 91.7312 22.105 91.3799 22.105C91.0203 22.105 90.6481 22.1176 90.2717 22.1343V21.9085H90.3511C90.5184 21.9085 90.807 21.8792 90.807 21.6952C90.807 21.599 90.7401 21.3982 90.6564 21.1599L90.3679 20.2984H88.695L88.4567 21.0637ZM89.5356 17.7682H89.5189L88.8331 19.876H90.2131L89.5356 17.7682Z" fill="white"/>
<path d="M92.3886 22.1586C92.0582 22.1461 91.7237 22.1294 91.3724 22.1294C91.0127 22.1294 90.6405 22.1461 90.2641 22.1586L90.2307 22.1628V22.1294V21.8743H90.2641H90.3436C90.5151 21.8743 90.7702 21.8324 90.7702 21.6903C90.7702 21.6066 90.7074 21.4017 90.6196 21.1675L90.3394 20.3269H88.7126L88.4867 21.0755C88.4115 21.3306 88.3236 21.5272 88.3278 21.6484C88.3278 21.8324 88.6038 21.8784 88.8464 21.8784H88.9593V21.9077V22.167L88.9259 22.1628C88.6331 22.1503 88.3278 22.1336 88.0351 22.1336C87.7674 22.1336 87.504 22.1503 87.2405 22.1628L87.207 22.167V22.1336V21.8784H87.2405H87.2823C87.5583 21.8743 87.7883 21.7153 87.8971 21.4142L89.0764 17.9975C89.1684 17.7215 89.3023 17.3493 89.3692 17.0565C89.6034 16.9771 89.9003 16.8265 90.0425 16.7345C90.0592 16.7261 90.0843 16.7178 90.1136 16.7178C90.1303 16.7136 90.1721 16.7219 90.193 16.7638C90.2139 16.8223 90.2349 16.8892 90.2599 16.9478L91.6149 20.8413C91.7028 21.1006 91.7906 21.3766 91.8868 21.5982C91.9746 21.7948 92.1042 21.8743 92.3426 21.8784H92.4179V21.9077V22.167L92.3886 22.1586ZM90.2976 22.0959C90.6614 22.0834 91.0211 22.0666 91.3724 22.0666C91.7153 22.0666 92.0373 22.0834 92.3552 22.0917V21.937H92.3426C92.0917 21.937 91.9202 21.8366 91.824 21.6192C91.7279 21.3933 91.64 21.1173 91.5522 20.858L90.1972 16.9687C90.1763 16.9101 90.1512 16.8432 90.1345 16.793C90.1303 16.7847 90.1303 16.7847 90.1219 16.7847C90.1178 16.7847 90.1136 16.7847 90.1094 16.7847C90.0927 16.7847 90.0885 16.7889 90.0676 16.793C89.9254 16.885 89.6326 17.0356 89.411 17.09C89.3692 17.3743 89.2312 17.7424 89.1392 18.0184L87.9598 21.4351C87.8469 21.7572 87.5918 21.9412 87.2865 21.9412H87.2739V22.0959C87.529 22.0834 87.7842 22.0708 88.0393 22.0708C88.3236 22.0708 88.6164 22.0876 88.9008 22.0959V21.9412H88.8506C88.6122 21.937 88.2735 21.9119 88.2651 21.6484C88.2651 21.5021 88.3571 21.3097 88.4324 21.0588L88.4617 21.0671L88.4324 21.0588L88.6749 20.2642H90.3938L90.6865 21.1466C90.7702 21.385 90.8329 21.5857 90.8329 21.6944C90.8203 21.9245 90.5109 21.937 90.3436 21.9412H90.2976V22.0959V22.0959ZM88.7879 19.9045L89.4988 17.7382H89.5197H89.5364V17.7716L89.5281 17.7758L89.5364 17.7716V17.7382H89.5615L90.2599 19.9045H88.7879ZM88.8799 19.8418H90.1721L89.5281 17.8511L88.8799 19.8418ZM89.5072 17.7758L89.5197 17.7716L89.5072 17.7758Z" fill="white"/>
<path d="M94.2502 21.3959C94.2502 21.6928 94.4551 21.7806 94.6893 21.8141C94.9904 21.835 95.325 21.835 95.6637 21.7974C95.9732 21.7639 96.2409 21.5799 96.3705 21.3959C96.4876 21.2328 96.5545 21.0237 96.6005 20.8606H96.8138C96.7343 21.2871 96.6298 21.7012 96.542 22.1277C95.8937 22.1277 95.2413 22.0985 94.5973 22.0985C93.9491 22.0985 93.2967 22.1277 92.6484 22.1277V21.9019H92.7488C93.0165 21.9019 93.305 21.8643 93.305 21.4042V17.5818C93.305 17.1929 93.0165 17.1594 92.7488 17.1594H92.6484V16.9336C93.0374 16.9336 93.4221 16.9629 93.8152 16.9629C94.1916 16.9629 94.5597 16.9336 94.936 16.9336V17.1594H94.752C94.4718 17.1594 94.2544 17.1678 94.2544 17.5609V21.3959H94.2502Z" fill="white"/>
<path d="M96.5419 22.1573C95.8937 22.1573 95.2413 22.128 94.5973 22.128C93.949 22.128 93.2966 22.1573 92.6484 22.1573H92.6191V22.1238V21.8687H92.6484H92.753C93.0206 21.8603 93.2757 21.8436 93.2757 21.4003V17.5779C93.2757 17.2182 93.0206 17.1931 92.753 17.1848H92.6191V17.1555V16.9004H92.6484C93.0415 16.9004 93.4263 16.9297 93.8152 16.9297C94.1916 16.9297 94.5596 16.9004 94.936 16.9004H94.9653V16.9297V17.1848H94.936H94.752C94.4676 17.1931 94.2878 17.1806 94.2794 17.557V21.3961C94.2836 21.6763 94.4634 21.7474 94.6935 21.7809C94.8231 21.7892 94.9611 21.7934 95.1033 21.7934C95.2831 21.7934 95.4713 21.7851 95.6637 21.7642C95.9648 21.7265 96.2199 21.555 96.3496 21.3752C96.4625 21.2163 96.5294 21.0114 96.5712 20.8483L96.5796 20.8232H96.6047H96.8556L96.8472 20.865C96.7636 21.2916 96.6632 21.7056 96.5754 22.1322L96.567 22.1573H96.5419V22.1573ZM96.5168 22.0945C96.6047 21.6931 96.7009 21.2958 96.7761 20.8943H96.6256C96.5796 21.0574 96.5168 21.2581 96.3997 21.417C96.2617 21.6094 95.9899 21.7934 95.6679 21.8311C95.4755 21.852 95.2831 21.8603 95.1033 21.8603C94.9611 21.8603 94.8189 21.8562 94.6893 21.8436C94.4509 21.8143 94.2167 21.714 94.2209 21.3961V17.5612C94.2209 17.1471 94.4802 17.1262 94.752 17.1262H94.9067V16.9673C94.5429 16.9673 94.1832 16.9966 93.8152 16.9966C93.4305 16.9966 93.0583 16.9673 92.6819 16.9673V17.1262H92.753C93.0164 17.1262 93.3385 17.1722 93.3385 17.5821V21.4045C93.3385 21.8854 93.0164 21.9356 92.753 21.9356H92.6819V22.0945C93.3176 22.0945 93.9574 22.0653 94.5973 22.0653C95.2371 22.0653 95.877 22.0945 96.5168 22.0945Z" fill="white"/>
<path d="M96.7251 16.7246C97.1684 16.7246 97.503 17.0675 97.503 17.5108C97.503 17.95 97.1726 18.2929 96.7251 18.2929C96.2818 18.2929 95.9473 17.95 95.9473 17.5108C95.9473 17.0675 96.2818 16.7246 96.7251 16.7246ZM96.7251 18.1423C97.0722 18.1423 97.3399 17.8454 97.3399 17.5067C97.3399 17.1679 97.0764 16.8668 96.7251 16.8668C96.3738 16.8668 96.1104 17.1679 96.1104 17.5067C96.1062 17.8454 96.3738 18.1423 96.7251 18.1423ZM96.3362 17.9207V17.883C96.4324 17.8705 96.4491 17.8747 96.4491 17.8119V17.2306C96.4491 17.147 96.4408 17.1219 96.3404 17.1261V17.0843H96.7377C96.8715 17.0843 97.0012 17.1512 97.0012 17.2934C97.0012 17.4105 96.9259 17.4983 96.8171 17.5318L96.9426 17.7116C97.0012 17.791 97.0681 17.8705 97.1141 17.8956V17.9207H96.9635C96.8924 17.9207 96.8297 17.7659 96.6833 17.561H96.5997V17.8203C96.5997 17.8747 96.6164 17.8705 96.7126 17.883V17.9207H96.3362V17.9207ZM96.5997 17.5067H96.6917C96.792 17.5067 96.838 17.4314 96.838 17.3059C96.838 17.1805 96.7628 17.1386 96.6875 17.1386H96.6039V17.5067H96.5997Z" fill="white"/>
<path d="M13.744 26.332C6.61355 26.3655 0.746094 20.5398 0.746094 13.447C0.746094 5.69346 6.61355 0.332031 13.744 0.332031H17.0855C24.1323 0.332031 30.5602 5.68928 30.5602 13.447C30.5602 20.5398 24.1281 26.3362 17.0855 26.3362H13.744V26.332ZM13.7733 1.40683C7.2576 1.41101 1.97981 6.7348 1.97563 13.309C1.97563 19.8833 7.25341 25.2071 13.7691 25.2071C20.2848 25.2071 25.5667 19.8791 25.5667 13.309C25.5709 6.7348 20.289 1.41101 13.7733 1.40683ZM11.0926 20.3475V6.27059C8.29057 7.35793 6.2999 10.0972 6.29153 13.309C6.30408 16.5209 8.29057 19.2601 11.0926 20.3475ZM21.2508 13.309C21.2467 10.093 19.2518 7.35375 16.4498 6.2664V20.3475C19.256 19.2643 21.2467 16.5251 21.2508 13.309Z" fill="#004A98"/>
</g>
<defs>
<clipPath id="clip0">
<rect width="96.7525" height="26" fill="white" transform="translate(0.746094 0.332031)"/>
</clipPath>
</defs>
</svg>
