<svg width="63" height="25" viewBox="0 0 63 25" fill="none" xmlns="http://www.w3.org/2000/svg">
<path d="M10.1655 5.98483C10.862 5.75604 11.6066 5.6331 12.3819 5.6331C15.7627 5.6331 18.5853 7.99423 19.2318 11.1326L24.0242 10.1714C22.9247 4.83813 18.1308 0.824219 12.3819 0.824219C11.0646 0.824219 9.79913 1.03532 8.61523 1.42426L10.1655 5.98483Z" fill="#FFCB05"/>
<path d="M4.50992 21.2564L7.75074 17.6537C6.30407 16.3935 5.39132 14.5543 5.39132 12.5053C5.39132 10.4577 6.30282 8.61947 7.74857 7.36081L4.50713 3.75781C2.05029 5.89777 0.5 9.02397 0.5 12.5053C0.5 15.9887 2.05092 19.1158 4.50992 21.2564Z" fill="#00A4E0"/>
<path d="M19.2307 13.8848C18.5817 17.0216 15.7619 19.3782 12.382 19.3782C11.6064 19.3782 10.8597 19.2553 10.1635 19.0252L8.61133 23.5876C9.79553 23.9763 11.0635 24.1868 12.3824 24.1868C18.1256 24.1868 22.9186 20.1796 24.0228 14.8509L19.2307 13.8848Z" fill="#EF4123"/>
<path d="M28.2147 17.8065C28.0577 17.5564 27.8445 17.1565 27.7158 16.8621C26.9569 15.1297 26.9206 13.3369 27.5616 11.6157C28.2662 9.72837 29.6123 8.28333 31.3515 7.54754C33.5382 6.62231 35.9565 6.80473 38.0522 8.02739C39.3835 8.77843 40.3272 9.93795 41.0439 11.5776C41.1351 11.7875 41.2155 12.0117 41.2937 12.2021L28.2147 17.8065ZM32.582 10.3287C31.0292 10.9849 30.2288 12.4171 30.3932 14.0965L36.971 11.3128C35.8402 10.0057 34.3681 9.57249 32.582 10.3287ZM37.7916 16.3853C37.7901 16.3865 37.7891 16.3877 37.7879 16.3889L37.6517 16.2986C37.2592 16.9249 36.6468 17.4322 35.874 17.7617C34.4037 18.3904 33.0411 18.2287 32.0626 17.3849L31.9727 17.5195C31.9717 17.5179 31.9714 17.5167 31.9699 17.5167L30.3011 19.9715C30.7152 20.2546 31.1601 20.4944 31.6274 20.6859C33.4708 21.4388 35.3568 21.404 37.2149 20.6094C38.5588 20.0368 39.6134 19.1634 40.3341 18.0567L37.7916 16.3853Z" fill="white"/>
<path d="M45.866 3.93164V17.5792L48.0238 18.4391L46.7977 21.2523L44.4156 20.2771C43.8811 20.0495 43.5172 19.7011 43.2417 19.3079C42.9783 18.9071 42.7812 18.3571 42.7812 17.6164V3.93164H45.866V3.93164Z" fill="white"/>
<path d="M51.4566 14.1017C51.4579 12.9394 51.9797 11.8974 52.8056 11.189L50.5917 8.76172C49.0901 10.0667 48.1444 11.9736 48.1426 14.0983C48.1401 16.2237 49.0845 18.1327 50.5845 19.4411L52.7959 17.0113C51.9744 16.3002 51.4557 15.2612 51.4566 14.1017Z" fill="white"/>
<path d="M55.3904 17.976C54.9545 17.9747 54.5348 17.904 54.1433 17.7758L53.0859 20.867C53.8085 21.1055 54.5826 21.2355 55.387 21.2367C58.8925 21.24 61.8196 18.7944 62.4978 15.5431L59.248 14.8906C58.8782 16.6529 57.2913 17.9775 55.3904 17.976Z" fill="white"/>
<path d="M55.4005 6.97461C54.5969 6.9737 53.8232 7.10213 53.1016 7.33854L54.1496 10.4324C54.5423 10.3049 54.9621 10.2344 55.3974 10.2344C57.3029 10.2363 58.891 11.5684 59.2518 13.3356L62.502 12.6874C61.8331 9.43152 58.9087 6.97705 55.4005 6.97461Z" fill="white"/>
</svg>
