<svg width="60" height="27" viewBox="0 0 60 27" fill="none" xmlns="http://www.w3.org/2000/svg">
<path d="M48.6453 26.6113C51.603 26.6113 54.1856 25.7016 54.7798 22.7765C55.3733 19.8515 59.2384 1.03836 59.2384 1.03836H11.035C8.07491 1.03836 5.4828 2.09225 4.8997 4.87156C4.3158 7.65007 0.453125 26.6073 0.453125 26.6073L48.6453 26.6113Z" fill="#B3131B"/>
<path d="M48.6457 26.8234V26.6115V26.398C51.5779 26.3853 54.0035 25.5202 54.5707 22.7329C55.1243 20.0094 58.513 3.51039 58.9782 1.25125H11.0354C8.11032 1.26002 5.66239 2.27487 5.10797 4.91478C4.81641 6.30324 3.70437 11.7368 2.66482 16.8238C1.76866 21.2162 0.927455 25.3442 0.713172 26.3941L48.6457 26.398V26.6115L48.6449 26.8234L0.191406 26.8186L0.24398 26.5637C0.24398 26.5637 4.10585 7.60725 4.69055 4.82715C5.30393 1.91083 8.04022 0.814723 11.0354 0.824282H59.5L59.4474 1.08078C59.4474 1.09034 58.482 5.78306 57.4408 10.8534C56.3997 15.9221 55.2852 21.3564 54.9897 22.8182C54.3731 25.8635 51.6639 26.8242 48.703 26.8242C48.6847 26.8242 48.6648 26.8242 48.6457 26.8234Z" fill="white"/>
<path d="M5.64738 17.3717L6.04807 15.3277L6.45433 13.1705L6.80244 10.9982L7.12824 8.95656L7.15692 8.82592H8.60034C8.58521 8.89124 8.58521 8.93107 8.57246 8.95656C8.52069 9.2035 8.41713 9.74996 8.27374 10.5936C8.19568 11.0492 8.09053 11.5694 7.97422 12.1557L7.94873 12.3389H8.06583L9.94977 12.3628L11.7843 12.3389H11.9293L11.954 12.1557C12.0321 11.6482 12.1101 11.1145 12.2137 10.5418C12.4232 9.39787 12.4359 9.31901 12.5013 8.82672H13.9686C13.9455 8.91832 13.9455 8.91832 13.9303 8.95736C13.904 9.0872 13.7758 9.76351 13.5535 10.9982L13.1513 13.1705L12.7864 15.3285C12.5793 16.5521 12.4742 17.2284 12.4511 17.3717C12.4511 17.4211 12.4511 17.4211 12.4359 17.5H10.9662L10.9941 17.3717C11.0299 17.2148 11.0961 16.838 11.1988 16.2398C11.2379 16.016 11.3167 15.6416 11.4203 15.068L11.629 13.9233C11.6943 13.5736 11.7333 13.3633 11.7453 13.3115C11.7453 13.2852 11.7588 13.2486 11.7708 13.1825H11.6027C11.3565 13.1705 10.4715 13.1705 9.62635 13.1705C8.78117 13.1705 8.21957 13.1705 7.95989 13.1817H7.7926C7.76631 13.431 7.75357 13.4804 7.6755 13.9233C7.61018 14.2611 7.54725 14.6514 7.48113 15.0672C7.37758 15.6806 7.31066 16.0693 7.28517 16.239C7.18162 16.8635 7.1155 17.2387 7.09001 17.3717C7.09001 17.3948 7.09001 17.4482 7.07806 17.4992H5.62109L5.64738 17.3717Z" fill="white"/>
<path d="M13.7472 17.3754L14.0205 15.9821L14.3192 14.4168L14.5677 12.9001C14.6928 12.1282 14.7669 11.6447 14.7908 11.4455C14.7908 11.4201 14.7908 11.3826 14.8035 11.3213H16.082C16.0717 11.3826 16.0581 11.4201 16.0478 11.4455C15.9976 11.6447 15.9108 12.1282 15.7594 12.9001L15.4742 14.4168L15.2153 15.9821C15.1006 16.715 15.0257 17.1874 15.0003 17.3754C15.0003 17.3993 15.0003 17.4495 14.9907 17.498H13.709L13.7472 17.3754ZM15.0536 9.71615C15.0536 9.08365 15.3635 8.70926 15.9108 8.70926C16.2836 8.70926 16.47 8.88451 16.47 9.24457C16.47 9.8667 16.1458 10.2515 15.6112 10.2515C15.3006 10.2515 15.1142 10.1256 15.0632 9.8914C15.0536 9.82767 15.0536 9.77828 15.0536 9.71615Z" fill="white"/>
<path d="M15.6769 20.12C15.7374 19.8476 15.8872 19.0773 16.1238 17.7852L16.5332 15.5587L16.8941 13.4215C17.0686 12.3771 17.1689 11.7184 17.2064 11.4451C17.2064 11.3949 17.2064 11.3949 17.2175 11.3201H18.3256L18.2985 11.4451L18.2387 11.7908L18.2141 11.9287C18.8107 11.4069 19.4193 11.1846 20.239 11.1846C21.6306 11.1846 22.377 11.9414 22.377 13.3593C22.377 14.1424 22.1659 15.025 21.8043 15.8089C21.218 17.0388 20.2509 17.6609 18.9461 17.6609C18.124 17.6609 17.7512 17.4363 17.4541 16.791L17.4294 16.9384L17.1434 18.7785C17.0439 19.4007 16.9666 19.8476 16.9435 20.1088C16.9435 20.12 16.9435 20.1702 16.9331 20.2578H15.6387C15.6626 20.1702 15.6626 20.1702 15.6769 20.12ZM18.1607 12.8352L17.7512 15.1485C17.7257 15.3102 17.7026 15.4584 17.7026 15.6224C17.7026 16.4294 18.1137 16.8293 18.9198 16.8293C19.4551 16.8293 19.8901 16.6397 20.2135 16.2796C20.7233 15.6965 21.0714 14.5534 21.0714 13.5091C21.0714 12.5014 20.6245 12.0027 19.6543 12.0027C19.0696 12.0027 18.5845 12.2282 18.1981 12.6496L18.1607 12.8352Z" fill="white"/>
<path d="M25.2079 17.6367C23.5327 17.6367 22.709 16.9182 22.709 15.4246C22.709 14.6033 22.9217 13.684 23.2825 12.9145C23.829 11.7579 24.8502 11.1867 26.3526 11.1867C27.7817 11.1867 28.493 11.7316 28.493 12.8142C28.493 13.124 28.4166 13.6107 28.2931 14.1684L28.1561 14.1556C27.933 14.1445 27.2352 14.1445 26.0666 14.1445C25.0725 14.1445 24.4647 14.1445 24.2289 14.1556L24.1014 14.1684C23.9907 14.7276 23.9803 14.8662 23.9803 15.2637C23.9803 16.2594 24.5499 16.7931 25.6197 16.7931C26.3175 16.7931 26.9867 16.6569 27.7347 16.3327L27.5467 17.3268C26.8258 17.526 25.979 17.6367 25.2079 17.6367ZM24.4009 13.4474C24.538 13.461 24.9984 13.461 25.7695 13.461H25.9678C26.527 13.461 26.9126 13.461 27.1356 13.4474H27.2488L27.2727 13.2857C27.2973 13.1376 27.3109 12.9998 27.3109 12.8771C27.3109 12.2669 26.8991 11.9698 26.1041 11.9698C25.0964 11.9698 24.5244 12.4159 24.2639 13.4474H24.4009Z" fill="white"/>
<path d="M28.6762 17.3754L28.9511 15.9821L29.249 14.4168L29.4975 12.9001C29.6218 12.1282 29.6959 11.6447 29.7214 11.4455C29.7214 11.4201 29.7341 11.3826 29.7341 11.3213H30.8517L30.8278 11.4455L30.6813 12.2286L30.6414 12.4015C30.8517 12.0677 30.9274 11.9785 31.0875 11.7913C31.4388 11.3954 31.8977 11.1835 32.382 11.1835C32.6321 11.1835 32.8432 11.2337 33.0774 11.3452L32.9173 12.2405C32.6433 12.1537 32.4194 12.1179 32.1836 12.1179C31.4388 12.1179 30.7784 12.7886 30.5164 13.8186C30.4192 14.2049 30.3292 14.6526 30.2455 15.1752C29.9962 16.7285 29.9691 16.852 29.9205 17.498H28.6523L28.6762 17.3754Z" fill="white"/>
<path d="M37.549 12.2916C37.0264 12.106 36.4672 12.0048 35.9558 12.0048C35.348 12.0048 34.8852 12.1554 34.5769 12.4533C34.0671 12.9384 33.6696 14.1445 33.6696 15.2254C33.6696 16.2833 34.1308 16.7931 35.0756 16.7931C35.6348 16.7931 36.3557 16.6187 36.8512 16.3701L36.6767 17.3133C36.0434 17.526 35.3735 17.6367 34.69 17.6367C33.7182 17.6367 33.1845 17.4121 32.7734 16.8545C32.5002 16.457 32.3887 16.0467 32.3887 15.3879C32.3887 14.53 32.5998 13.6354 32.9981 12.8508C33.1733 12.4899 33.4203 12.1673 33.7317 11.8933C34.279 11.397 34.9752 11.1851 36.1064 11.1851C36.5039 11.1851 36.9253 11.2106 37.5976 11.272L37.7218 11.2839L37.549 12.2916Z" fill="white"/>
<path d="M39.4138 17.6367C38.1576 17.6367 37.5625 17.1142 37.5625 16.022C37.5625 14.4049 38.7048 13.4745 40.682 13.4745C40.9918 13.4745 41.602 13.4976 42.0107 13.5231L42.0377 13.3869C42.1238 12.9384 42.1238 12.9018 42.1238 12.752C42.1238 12.2549 41.7135 12.0048 40.8676 12.0048C40.2231 12.0048 39.6018 12.106 38.7916 12.3306L39.0418 11.3094C39.0904 11.3221 39.1278 11.3221 39.1525 11.3221C39.3501 11.3221 39.6631 11.2974 40.0973 11.2473C40.4701 11.2106 40.8429 11.1867 41.1902 11.1867C42.6694 11.1867 43.3298 11.5723 43.3298 12.4294C43.3298 12.6517 43.2932 12.9018 43.1928 13.4474L42.9937 14.5794C42.7722 15.7862 42.6471 16.7437 42.6471 17.3022C42.6471 17.3515 42.6471 17.4256 42.6575 17.4997H41.5391V17.4017C41.5391 17.2257 41.5901 16.8409 41.6387 16.4801C41.0794 17.3022 40.4215 17.6367 39.4138 17.6367ZM41.751 14.2321C41.3766 14.1954 41.1902 14.1954 40.9305 14.1954C40.1713 14.1954 39.7244 14.2926 39.3771 14.5675C39.0051 14.8534 38.7797 15.3242 38.7797 15.8468C38.7797 16.4705 39.1525 16.8035 39.8344 16.8035C40.5202 16.8035 41.1288 16.4315 41.4292 15.8237C41.6148 15.4246 41.751 14.9395 41.8744 14.2432L41.751 14.2321Z" fill="white"/>
<path d="M43.7286 17.3754L43.9995 15.9821L44.3014 14.4168L44.5499 12.9001C44.6726 12.1282 44.7475 11.6447 44.7706 11.4455C44.7706 11.4201 44.7841 11.3826 44.7841 11.3213H45.9041L45.8762 11.4455L45.7281 12.2286L45.6914 12.4015C45.9041 12.0677 45.9774 11.9785 46.1391 11.7913C46.4888 11.3954 46.9468 11.1835 47.4328 11.1835C47.6805 11.1835 47.8916 11.2337 48.1282 11.3452L47.9665 12.2405C47.6925 12.1537 47.4702 12.1179 47.2312 12.1179C46.4888 12.1179 45.8292 12.7886 45.5687 13.8186C45.4692 14.2049 45.3815 14.6526 45.2947 15.1752C45.0462 16.7285 45.0207 16.852 44.9697 17.498H43.7031L43.7286 17.3754Z" fill="white"/>
<path d="M49.5795 17.6367C48.1249 17.6367 47.4414 16.966 47.4414 15.513C47.4414 14.667 47.6525 13.7709 48.05 12.9998C48.6466 11.8081 49.6798 11.1867 51.0452 11.1867C51.4323 11.1867 51.8171 11.2226 52.127 11.2974C52.2281 11.3341 52.2911 11.3468 52.4767 11.409L52.5006 11.2592C52.5507 11.0107 52.6129 10.6148 52.6989 10.0667C52.7977 9.47007 52.8614 9.03513 52.8981 8.75951L52.9116 8.66073H54.179L54.1551 8.74836C54.0539 9.24702 53.9073 9.99263 53.7201 11.0107C53.3824 12.8277 53.2597 13.5112 53.0725 14.6407C52.8479 16.022 52.7491 16.8664 52.7491 17.4121V17.4997H51.5932C51.6044 17.3022 51.6044 17.2392 51.6434 16.9787C51.6809 16.778 51.6944 16.7063 51.7183 16.4936C51.2228 17.3396 50.6501 17.6367 49.5795 17.6367ZM51.1081 11.9945C50.5617 11.9945 50.1164 12.1426 49.7906 12.4294C49.17 12.9759 48.747 14.1556 48.747 15.3752C48.747 16.3574 49.1453 16.8035 50.0136 16.8035C50.6612 16.8035 51.2706 16.4315 51.5423 15.8579C51.6689 15.5871 51.7669 15.2501 51.8545 14.8662C52.0043 14.107 52.2034 13.0253 52.315 12.3657L52.3277 12.2303C51.8808 12.0693 51.5295 11.9945 51.1081 11.9945Z" fill="white"/>
</svg>
