<svg width="48" height="37" viewBox="0 0 48 37" fill="none" xmlns="http://www.w3.org/2000/svg">
<g clip-path="url(#clip0)">
<path d="M47.5014 28.9535C47.5014 32.9366 44.2587 36.18 40.2763 36.18H0.964844V7.55853C0.964844 3.57542 4.20761 0.332031 8.18996 0.332031H47.5014V28.9535Z" fill="white"/>
<path d="M34.7012 21.6141H37.6879C37.7733 21.6141 37.9724 21.5856 38.0577 21.5856C38.6266 21.4718 39.1102 20.9597 39.1102 20.2484C39.1102 19.5656 38.6266 19.0535 38.0577 18.9113C37.9724 18.8828 37.8017 18.8828 37.6879 18.8828H34.7012V21.6141Z" fill="url(#paint0_linear)"/>
<path d="M37.3461 2.75C34.5016 2.75 32.1691 5.05451 32.1691 7.92804V13.3052H39.4795C39.6502 13.3052 39.8493 13.3052 39.9915 13.3337C41.6414 13.419 42.8645 14.2726 42.8645 15.752C42.8645 16.9185 42.0396 17.9143 40.5036 18.1134V18.1703C42.1818 18.2841 43.4619 19.223 43.4619 20.674C43.4619 22.2388 42.0396 23.263 40.1622 23.263H32.1406V33.7898H39.7355C42.5801 33.7898 44.9126 31.4853 44.9126 28.6117V2.75H37.3461Z" fill="url(#paint1_linear)"/>
<path d="M38.7404 16.0936C38.7404 15.4108 38.2568 14.9556 37.6879 14.8702C37.631 14.8702 37.4888 14.8418 37.4035 14.8418H34.7012V17.3455H37.4035C37.4888 17.3455 37.6595 17.3455 37.6879 17.317C38.2568 17.2317 38.7404 16.7764 38.7404 16.0936Z" fill="url(#paint2_linear)"/>
<path d="M8.73089 2.75C5.88635 2.75 3.55384 5.05451 3.55384 7.92804V20.7024C5.00455 21.4137 6.51215 21.8689 8.01976 21.8689C9.81181 21.8689 10.779 20.7878 10.779 19.3083V13.2768H15.2164V19.2799C15.2164 21.6129 13.7657 23.5191 8.84467 23.5191C5.85791 23.5191 3.52539 22.8647 3.52539 22.8647V33.7613H11.1203C13.9648 33.7613 16.2974 31.4568 16.2974 28.5833V2.75H8.73089Z" fill="url(#paint3_linear)"/>
<path d="M23.0384 2.75C20.1938 2.75 17.8613 5.05451 17.8613 7.92804V14.6993C19.1698 13.5897 21.4454 12.8785 25.1149 13.0492C27.0776 13.1345 29.1826 13.6751 29.1826 13.6751V15.8658C28.1301 15.3252 26.8785 14.8416 25.2571 14.7278C22.4695 14.5286 20.7912 15.8943 20.7912 18.2841C20.7912 20.7024 22.4695 22.0681 25.2571 21.8405C26.8785 21.7267 28.1301 21.2145 29.1826 20.7024V22.8931C29.1826 22.8931 27.1061 23.4337 25.1149 23.5191C21.4454 23.6898 19.1698 22.9785 17.8613 21.8689V33.8182H25.4562C28.3008 33.8182 30.6333 31.5137 30.6333 28.6402V2.75H23.0384Z" fill="url(#paint4_linear)"/>
</g>
<defs>
<linearGradient id="paint0_linear" x1="32.1648" y1="20.2518" x2="44.9474" y2="20.2518" gradientUnits="userSpaceOnUse">
<stop stop-color="#007940"/>
<stop offset="0.2285" stop-color="#00873F"/>
<stop offset="0.7433" stop-color="#40A737"/>
<stop offset="1" stop-color="#5CB531"/>
</linearGradient>
<linearGradient id="paint1_linear" x1="32.1639" y1="18.2575" x2="44.9475" y2="18.2575" gradientUnits="userSpaceOnUse">
<stop stop-color="#007940"/>
<stop offset="0.2285" stop-color="#00873F"/>
<stop offset="0.7433" stop-color="#40A737"/>
<stop offset="1" stop-color="#5CB531"/>
</linearGradient>
<linearGradient id="paint2_linear" x1="32.1645" y1="16.0901" x2="44.9476" y2="16.0901" gradientUnits="userSpaceOnUse">
<stop stop-color="#007940"/>
<stop offset="0.2285" stop-color="#00873F"/>
<stop offset="0.7433" stop-color="#40A737"/>
<stop offset="1" stop-color="#5CB531"/>
</linearGradient>
<linearGradient id="paint3_linear" x1="3.54781" y1="18.2575" x2="16.5283" y2="18.2575" gradientUnits="userSpaceOnUse">
<stop stop-color="#1F286F"/>
<stop offset="0.4751" stop-color="#004E94"/>
<stop offset="0.8261" stop-color="#0066B1"/>
<stop offset="1" stop-color="#006FBC"/>
</linearGradient>
<linearGradient id="paint4_linear" x1="17.7878" y1="18.2575" x2="30.3948" y2="18.2575" gradientUnits="userSpaceOnUse">
<stop stop-color="#6C2C2F"/>
<stop offset="0.1735" stop-color="#882730"/>
<stop offset="0.5731" stop-color="#BE1833"/>
<stop offset="0.8585" stop-color="#DC0436"/>
<stop offset="1" stop-color="#E60039"/>
</linearGradient>
<clipPath id="clip0">
<rect width="46.5366" height="36" fill="white" transform="translate(0.964844 0.332031)"/>
</clipPath>
</defs>
</svg>
