<svg width="46" height="37" viewBox="0 0 46 37" fill="none" xmlns="http://www.w3.org/2000/svg">
<path d="M17.0566 3.57227H29.2239V25.4348H17.0566V3.57227Z" fill="#FF5F00"/>
<path d="M8.82988 36.4376V34.1201C8.82988 33.2315 8.28899 32.6523 7.36189 32.6523C6.89843 32.6523 6.39625 32.8068 6.04857 33.3089C5.7783 32.884 5.39208 32.6523 4.81266 32.6523C4.42627 32.6523 4.04022 32.7681 3.73107 33.193V32.7295H2.91992V36.4376H3.73107V34.3904C3.73107 33.7339 4.07876 33.4247 4.61964 33.4247C5.16017 33.4247 5.43079 33.7724 5.43079 34.3904V36.4376H6.24194V34.3904C6.24194 33.7339 6.62799 33.4247 7.13016 33.4247C7.67104 33.4247 7.94131 33.7724 7.94131 34.3904V36.4376H8.82988V36.4376ZM20.8425 32.7295H19.5293V31.6094H18.7182V32.7295H17.9843V33.4633H18.718V35.163C18.718 36.0128 19.0657 36.5148 19.9928 36.5148C20.3405 36.5148 20.7265 36.3991 20.9971 36.2446L20.7652 35.5492C20.5335 35.7037 20.2632 35.7424 20.07 35.7424C19.6838 35.7424 19.5293 35.5107 19.5293 35.1243V33.4633H20.8425V32.7295V32.7295ZM27.7181 32.6521C27.2546 32.6521 26.9456 32.884 26.7524 33.193V32.7295H25.9413V36.4376H26.7524V34.3518C26.7524 33.7339 27.0227 33.3862 27.5249 33.3862C27.6793 33.3862 27.8725 33.4249 28.027 33.4634L28.2588 32.691C28.1043 32.6523 27.8725 32.6523 27.7181 32.6523V32.6521ZM17.3276 33.0385C16.9412 32.7681 16.4005 32.6523 15.8211 32.6523C14.8941 32.6523 14.2762 33.1157 14.2762 33.8497C14.2762 34.4678 14.7397 34.8153 15.5508 34.9312L15.937 34.97C16.362 35.047 16.5937 35.163 16.5937 35.3562C16.5937 35.6264 16.2847 35.8196 15.7438 35.8196C15.2031 35.8196 14.7782 35.6264 14.5078 35.4334L14.1215 36.0514C14.5465 36.3603 15.1259 36.5148 15.7051 36.5148C16.7867 36.5148 17.4048 36.0128 17.4048 35.3175C17.4048 34.6608 16.9027 34.3131 16.1301 34.1973L15.7438 34.1586C15.3961 34.1199 15.1259 34.0429 15.1259 33.8111C15.1259 33.5407 15.3961 33.3862 15.8211 33.3862C16.2847 33.3862 16.7482 33.5792 16.9799 33.6952L17.3276 33.0385V33.0385ZM38.8811 32.6523C38.4175 32.6523 38.1085 32.884 37.9153 33.193V32.7295H37.1042V36.4376H37.9153V34.3518C37.9153 33.7339 38.1858 33.3862 38.6878 33.3862C38.8424 33.3862 39.0356 33.4249 39.1901 33.4634L39.4218 32.691C39.2674 32.6523 39.0356 32.6523 38.8811 32.6523V32.6523ZM28.5292 34.5836C28.5292 35.7037 29.3016 36.5148 30.4992 36.5148C31.0399 36.5148 31.4261 36.3991 31.8123 36.0901L31.4261 35.4334C31.1171 35.6652 30.8082 35.7809 30.4605 35.7809C29.8038 35.7809 29.3404 35.3175 29.3404 34.5836C29.3404 33.8884 29.8038 33.4247 30.4605 33.3862C30.8082 33.3862 31.1171 33.502 31.4261 33.7339L31.8123 33.0772C31.4261 32.7681 31.0399 32.6523 30.4992 32.6523C29.3016 32.6523 28.5292 33.4634 28.5292 34.5836ZM36.0228 34.5836V32.7295H35.2116V33.193C34.9412 32.8455 34.5549 32.6523 34.0528 32.6523C33.0099 32.6523 32.1987 33.4634 32.1987 34.5836C32.1987 35.7037 33.0099 36.5148 34.0528 36.5148C34.5935 36.5148 34.9799 36.3218 35.2116 35.9741V36.4376H36.0228V34.5836V34.5836ZM33.0484 34.5836C33.0484 33.9269 33.4734 33.3862 34.1685 33.3862C34.8252 33.3862 35.2888 33.8884 35.2888 34.5836C35.2888 35.2402 34.8252 35.7809 34.1685 35.7809C33.4734 35.7422 33.0484 35.2402 33.0484 34.5836V34.5836ZM23.3533 32.6523C22.2717 32.6523 21.4991 33.4247 21.4991 34.5836C21.4991 35.7424 22.2716 36.5148 23.3919 36.5148C23.9326 36.5148 24.4735 36.3603 24.8984 36.0128L24.512 35.4334C24.203 35.6652 23.8168 35.8196 23.4306 35.8196C22.9284 35.8196 22.4262 35.5879 22.3103 34.9311H25.0529V34.6223C25.0916 33.4247 24.3962 32.6523 23.3532 32.6523H23.3533ZM23.3533 33.3475C23.8553 33.3475 24.2032 33.6566 24.2803 34.2361H22.349C22.4262 33.7339 22.7739 33.3475 23.3533 33.3475ZM43.4776 34.5836V31.2617H42.6664V33.193C42.396 32.8455 42.0098 32.6523 41.5076 32.6523C40.4647 32.6523 39.6536 33.4634 39.6536 34.5836C39.6536 35.7037 40.4647 36.5148 41.5076 36.5148C42.0485 36.5148 42.4347 36.3218 42.6664 35.9741V36.4376H43.4776V34.5836V34.5836ZM40.5034 34.5836C40.5034 33.9269 40.9282 33.3862 41.6236 33.3862C42.2802 33.3862 42.7437 33.8884 42.7437 34.5836C42.7437 35.2402 42.2802 35.7809 41.6236 35.7809C40.9282 35.7422 40.5034 35.2402 40.5034 34.5836V34.5836ZM13.3876 34.5836V32.7295H12.5765V33.193C12.306 32.8455 11.9198 32.6523 11.4176 32.6523C10.3748 32.6523 9.56361 33.4634 9.56361 34.5836C9.56361 35.7037 10.3748 36.5148 11.4176 36.5148C11.9585 36.5148 12.3447 36.3218 12.5765 35.9741V36.4376H13.3876V34.5836V34.5836ZM10.3748 34.5836C10.3748 33.9269 10.7997 33.3862 11.4949 33.3862C12.1515 33.3862 12.6152 33.8884 12.6152 34.5836C12.6152 35.2402 12.1515 35.7809 11.4949 35.7809C10.7997 35.7422 10.3748 35.2402 10.3748 34.5836V34.5836Z" fill="white"/>
<path d="M17.8294 14.5032C17.8294 10.0612 19.9152 6.12122 23.1211 3.57181C20.7651 1.71778 17.7909 0.597656 14.5463 0.597656C6.85938 0.597656 0.640625 6.81641 0.640625 14.5032C0.640625 22.1897 6.85938 28.4087 14.5461 28.4087C17.7907 28.4087 20.7649 27.2885 23.1211 25.4343C19.9152 22.9236 17.8294 18.9451 17.8294 14.5032V14.5032Z" fill="#EB001B"/>
<path d="M45.6406 14.5032C45.6406 22.1897 39.4219 28.4087 31.7351 28.4087C28.4905 28.4087 25.5164 27.2885 23.1602 25.4343C26.4048 22.8851 28.452 18.9451 28.452 14.5032C28.452 10.0612 26.366 6.12122 23.1602 3.57181C25.5162 1.71778 28.4905 0.597656 31.7351 0.597656C39.4219 0.597656 45.6408 6.85512 45.6408 14.5032H45.6406Z" fill="#F79E1B"/>
</svg>
