<svg width="54" height="18" viewBox="0 0 54 18" fill="none" xmlns="http://www.w3.org/2000/svg">
<path fill-rule="evenodd" clip-rule="evenodd" d="M13.9295 5.89463C12.8072 8.9316 11.8023 11.2493 11.6966 11.0448C11.5906 10.8406 11.132 8.72529 10.6776 6.34427C10.2229 3.96324 9.66309 1.71269 9.4338 1.34337C9.03343 0.69818 8.85429 0.672205 4.91866 0.687133L0.820312 0.702658L2.61168 1.39144C3.59693 1.77031 4.62577 2.17606 4.89806 2.29309C5.18766 2.41729 5.59729 3.27237 5.88421 4.35048C6.15411 5.36499 7.02113 8.61333 7.81112 11.5691L9.2475 16.9432L11.4598 17.0292L13.6719 17.1152L16.8632 9.26658C18.6184 4.94999 20.1411 1.18304 20.2471 0.895529C20.4199 0.427385 20.208 0.373047 18.2052 0.373047H15.9702L13.9295 5.89463ZM22.0241 1.34337C21.9307 1.8772 21.3888 5.20227 20.8203 8.73276C20.2519 12.2632 19.7118 15.5883 19.6201 16.1221L19.4532 17.0925H21.5512C23.4817 17.0925 23.6611 17.039 23.8035 16.4207C24 15.5671 26.3473 1.00988 26.3473 0.645036C26.3473 0.495457 25.4128 0.373047 24.2708 0.373047H22.1946L22.0241 1.34337ZM31.908 0.811633C29.4678 1.68134 27.8371 4.19493 28.2578 6.43772C28.4907 7.67913 30.105 9.25315 32.2704 10.3507C34.3481 11.4034 34.7237 12.5797 33.2291 13.3527C32.0414 13.9668 30.2471 13.9265 28.4536 13.2449L26.971 12.6815L26.7832 14.066C26.6802 14.8273 26.536 15.6686 26.4631 15.9352C26.2831 16.5951 28.3249 17.0925 31.212 17.0925C34.841 17.0925 36.9922 15.9869 38.0601 13.5727C39.2672 10.8439 38.2733 8.94205 34.5577 6.87183C32.4845 5.71669 32.125 4.88908 33.3488 4.08715C34.114 3.58586 36.2529 3.59512 37.8879 4.10745C38.5829 4.3254 38.6737 4.16417 39.0239 2.08768C39.195 1.07377 39.1382 0.937327 38.4336 0.669518C37.3069 0.241083 33.2611 0.329457 31.908 0.811633ZM46.158 0.573381C45.8057 0.645633 45.3146 0.93255 45.0665 1.21081C44.733 1.58461 40.0468 12.4406 38.3718 16.7193C38.2629 16.9978 38.7961 17.0925 40.4722 17.0925H42.7183L43.1407 15.8236L43.5629 14.5547L46.2921 14.469L49.0209 14.3833L49.2066 15.2154C49.6422 17.1698 49.544 17.0925 51.5882 17.0925H53.5014L53.3079 16.1221C53.2017 15.5883 52.4326 11.8602 51.5987 7.83707L50.0829 0.522327L48.4408 0.482022C47.5377 0.459928 46.5103 0.500831 46.158 0.573381ZM47.801 8.35955L48.3635 11.1212H46.579C44.9981 11.1212 44.8181 11.0615 45.0044 10.5988C45.1196 10.3115 45.6304 8.94533 46.1392 7.56329C46.6479 6.18125 47.1032 5.17361 47.1513 5.32408C47.1991 5.47456 47.4914 6.84077 47.801 8.35955Z" fill="#1B2685"/>
</svg>
