<svg width="139" height="47" viewBox="0 0 139 47" fill="none" xmlns="http://www.w3.org/2000/svg">
<rect x="0.5" y="0.589844" width="138" height="45" rx="3.5" fill="white" stroke="#D9D9D9"/>
<path d="M70.583 25.8838H66.7275L65.9209 28.2012H64.123L67.8828 18.248H69.4346L73.2012 28.2012H71.3965L70.583 25.8838ZM67.2129 24.4893H70.0977L68.6553 20.3604L67.2129 24.4893ZM80.3242 24.5781C80.3242 25.722 80.0645 26.6357 79.5449 27.3193C79.0254 27.9984 78.3281 28.3379 77.4531 28.3379C76.6419 28.3379 75.9925 28.0713 75.5049 27.5381V31.0449H73.8438V20.8047H75.375L75.4434 21.5566C75.931 20.9642 76.5941 20.668 77.4326 20.668C78.335 20.668 79.0413 21.0052 79.5518 21.6797C80.0667 22.3496 80.3242 23.2816 80.3242 24.4756V24.5781ZM78.6699 24.4346C78.6699 23.6963 78.5218 23.1107 78.2256 22.6777C77.9339 22.2448 77.5146 22.0283 76.9678 22.0283C76.2887 22.0283 75.8011 22.3086 75.5049 22.8691V26.1504C75.8057 26.7246 76.2979 27.0117 76.9814 27.0117C77.5101 27.0117 77.9225 26.7998 78.2188 26.376C78.5195 25.9476 78.6699 25.3005 78.6699 24.4346ZM88.2129 24.5781C88.2129 25.722 87.9531 26.6357 87.4336 27.3193C86.9141 27.9984 86.2168 28.3379 85.3418 28.3379C84.5306 28.3379 83.8812 28.0713 83.3936 27.5381V31.0449H81.7324V20.8047H83.2637L83.332 21.5566C83.8197 20.9642 84.4827 20.668 85.3213 20.668C86.2236 20.668 86.93 21.0052 87.4404 21.6797C87.9554 22.3496 88.2129 23.2816 88.2129 24.4756V24.5781ZM86.5586 24.4346C86.5586 23.6963 86.4105 23.1107 86.1143 22.6777C85.8226 22.2448 85.4033 22.0283 84.8564 22.0283C84.1774 22.0283 83.6898 22.3086 83.3936 22.8691V26.1504C83.6943 26.7246 84.1865 27.0117 84.8701 27.0117C85.3988 27.0117 85.8112 26.7998 86.1074 26.376C86.4082 25.9476 86.5586 25.3005 86.5586 24.4346ZM91.3916 28.2012H89.7305V17.7012H91.3916V28.2012ZM96.4639 28.3379C95.4111 28.3379 94.5566 28.0075 93.9004 27.3467C93.2487 26.6813 92.9229 25.7972 92.9229 24.6943V24.4893C92.9229 23.751 93.0641 23.0924 93.3467 22.5137C93.6338 21.9303 94.0348 21.4769 94.5498 21.1533C95.0648 20.8298 95.639 20.668 96.2725 20.668C97.2796 20.668 98.0566 20.9893 98.6035 21.6318C99.1549 22.2744 99.4307 23.1836 99.4307 24.3594V25.0293H94.5977C94.6478 25.64 94.8506 26.123 95.2061 26.4785C95.5661 26.834 96.0173 27.0117 96.5596 27.0117C97.3206 27.0117 97.9404 26.7041 98.4189 26.0889L99.3145 26.9434C99.0182 27.3854 98.6217 27.7295 98.125 27.9756C97.6328 28.2171 97.0791 28.3379 96.4639 28.3379ZM96.2656 22.001C95.8099 22.001 95.4408 22.1605 95.1582 22.4795C94.8802 22.7985 94.7025 23.2428 94.625 23.8125H97.79V23.6895C97.7536 23.1335 97.6055 22.7142 97.3457 22.4316C97.0859 22.1445 96.7259 22.001 96.2656 22.001Z" fill="#666666"/>
<g clip-path="url(#clip0)">
<path d="M54.4361 22.9273C54.4701 26.5524 57.6448 27.7587 57.68 27.7741C57.6532 27.8592 57.1727 29.4932 56.0074 31.1811C55 32.6403 53.9545 34.0942 52.3075 34.1243C50.6891 34.1539 50.1688 33.1732 48.3185 33.1732C46.4688 33.1732 45.8907 34.0942 44.3587 34.1539C42.7689 34.2135 41.5583 32.5759 40.5426 31.122C38.467 28.148 36.8809 22.7182 39.0107 19.053C40.0687 17.2329 41.9595 16.0803 44.0118 16.0507C45.5729 16.0212 47.0465 17.0916 48.0008 17.0916C48.9545 17.0916 50.7452 15.8043 52.6276 15.9934C53.4156 16.0259 55.6277 16.3089 57.0481 18.3695C56.9337 18.4398 54.4087 19.8967 54.4361 22.9273V22.9273ZM51.3946 14.0258C52.2387 13.0133 52.8067 11.6037 52.6518 10.2012C51.4352 10.2496 49.964 11.0047 49.0914 12.0167C48.3093 12.9128 47.6244 14.3472 47.8092 15.722C49.1653 15.826 50.5506 15.039 51.3946 14.0258" fill="#8C8C8C"/>
</g>
<defs>
<clipPath id="clip0">
<rect width="19.68" height="24" fill="white" transform="translate(38 10.2012)"/>
</clipPath>
</defs>
</svg>
