<svg width="139" height="47" viewBox="0 0 139 47" fill="none" xmlns="http://www.w3.org/2000/svg">
<rect x="0.5" y="0.589844" width="138" height="45" rx="3.5" fill="white" stroke="#D9D9D9"/>
<path d="M69.6406 26.6865C69.2806 27.1559 68.7816 27.5114 68.1436 27.7529C67.5055 27.9945 66.7809 28.1152 65.9697 28.1152C65.1357 28.1152 64.3975 27.9261 63.7549 27.5479C63.1123 27.1696 62.6156 26.6296 62.2646 25.9277C61.9183 25.2214 61.7383 24.3988 61.7246 23.46V22.6807C61.7246 21.1768 62.0846 20.0033 62.8047 19.1602C63.5247 18.3125 64.5296 17.8887 65.8193 17.8887C66.9268 17.8887 67.8063 18.1621 68.458 18.709C69.1097 19.2559 69.5016 20.0443 69.6338 21.0742H67.9385C67.7471 19.8757 67.0521 19.2764 65.8535 19.2764C65.0788 19.2764 64.4886 19.5566 64.083 20.1172C63.682 20.6732 63.4746 21.4912 63.4609 22.5713V23.3369C63.4609 24.4124 63.6865 25.2487 64.1377 25.8457C64.5934 26.4382 65.2246 26.7344 66.0312 26.7344C66.9154 26.7344 67.5443 26.5339 67.918 26.1328V24.1846H65.8672V22.8721H69.6406V26.6865ZM71.0693 24.2119C71.0693 23.4873 71.2129 22.8356 71.5 22.2568C71.7871 21.6735 72.1904 21.2269 72.71 20.917C73.2295 20.6025 73.8265 20.4453 74.501 20.4453C75.499 20.4453 76.3079 20.7666 76.9277 21.4092C77.5521 22.0518 77.8893 22.904 77.9395 23.9658L77.9463 24.3555C77.9463 25.0846 77.805 25.7363 77.5225 26.3105C77.2445 26.8848 76.8434 27.3291 76.3193 27.6436C75.7998 27.958 75.1982 28.1152 74.5146 28.1152C73.471 28.1152 72.6348 27.7689 72.0059 27.0762C71.3815 26.3789 71.0693 25.4515 71.0693 24.2939V24.2119ZM72.7305 24.3555C72.7305 25.1165 72.8877 25.7135 73.2021 26.1465C73.5166 26.5749 73.9541 26.7891 74.5146 26.7891C75.0752 26.7891 75.5104 26.5703 75.8203 26.1328C76.1348 25.6953 76.292 25.055 76.292 24.2119C76.292 23.4645 76.1302 22.8721 75.8066 22.4346C75.4876 21.9971 75.0524 21.7783 74.501 21.7783C73.9587 21.7783 73.528 21.9948 73.209 22.4277C72.89 22.8561 72.7305 23.4987 72.7305 24.3555ZM79.04 24.2119C79.04 23.4873 79.1836 22.8356 79.4707 22.2568C79.7578 21.6735 80.1611 21.2269 80.6807 20.917C81.2002 20.6025 81.7972 20.4453 82.4717 20.4453C83.4697 20.4453 84.2786 20.7666 84.8984 21.4092C85.5228 22.0518 85.86 22.904 85.9102 23.9658L85.917 24.3555C85.917 25.0846 85.7757 25.7363 85.4932 26.3105C85.2152 26.8848 84.8141 27.3291 84.29 27.6436C83.7705 27.958 83.1689 28.1152 82.4854 28.1152C81.4417 28.1152 80.6055 27.7689 79.9766 27.0762C79.3522 26.3789 79.04 25.4515 79.04 24.2939V24.2119ZM80.7012 24.3555C80.7012 25.1165 80.8584 25.7135 81.1729 26.1465C81.4873 26.5749 81.9248 26.7891 82.4854 26.7891C83.0459 26.7891 83.4811 26.5703 83.791 26.1328C84.1055 25.6953 84.2627 25.055 84.2627 24.2119C84.2627 23.4645 84.1009 22.8721 83.7773 22.4346C83.4583 21.9971 83.0231 21.7783 82.4717 21.7783C81.9294 21.7783 81.4987 21.9948 81.1797 22.4277C80.8607 22.8561 80.7012 23.4987 80.7012 24.3555ZM87.0312 24.2256C87.0312 23.0771 87.3001 22.1611 87.8379 21.4775C88.3802 20.7894 89.098 20.4453 89.9912 20.4453C90.8343 20.4453 91.4974 20.7393 91.9805 21.3271L92.0557 20.582H93.5527V27.7529C93.5527 28.7236 93.2497 29.4893 92.6436 30.0498C92.042 30.6104 91.2285 30.8906 90.2031 30.8906C89.6608 30.8906 89.1299 30.7767 88.6104 30.5488C88.0954 30.3255 87.7035 30.0316 87.4346 29.667L88.2207 28.6689C88.7311 29.2751 89.36 29.5781 90.1074 29.5781C90.6589 29.5781 91.0941 29.4277 91.4131 29.127C91.7321 28.8307 91.8916 28.3932 91.8916 27.8145V27.3154C91.4131 27.8486 90.7751 28.1152 89.9775 28.1152C89.1117 28.1152 88.403 27.7712 87.8516 27.083C87.3047 26.3949 87.0312 25.4424 87.0312 24.2256ZM88.6855 24.3691C88.6855 25.112 88.8359 25.6976 89.1367 26.126C89.4421 26.5498 89.8636 26.7617 90.4014 26.7617C91.0713 26.7617 91.568 26.4746 91.8916 25.9004V22.6465C91.5771 22.0859 91.085 21.8057 90.415 21.8057C89.8682 21.8057 89.4421 22.0221 89.1367 22.4551C88.8359 22.888 88.6855 23.526 88.6855 24.3691ZM97.0322 27.9785H95.3711V17.4785H97.0322V27.9785ZM102.104 28.1152C101.052 28.1152 100.197 27.7848 99.541 27.124C98.8893 26.4587 98.5635 25.5745 98.5635 24.4717V24.2666C98.5635 23.5283 98.7048 22.8698 98.9873 22.291C99.2744 21.7077 99.6755 21.2542 100.19 20.9307C100.705 20.6071 101.28 20.4453 101.913 20.4453C102.92 20.4453 103.697 20.7666 104.244 21.4092C104.796 22.0518 105.071 22.9609 105.071 24.1367V24.8066H100.238C100.288 25.4173 100.491 25.9004 100.847 26.2559C101.207 26.6113 101.658 26.7891 102.2 26.7891C102.961 26.7891 103.581 26.4814 104.06 25.8662L104.955 26.7207C104.659 27.1628 104.262 27.5068 103.766 27.7529C103.273 27.9945 102.72 28.1152 102.104 28.1152ZM101.906 21.7783C101.451 21.7783 101.081 21.9378 100.799 22.2568C100.521 22.5758 100.343 23.0202 100.266 23.5898H103.431V23.4668C103.394 22.9108 103.246 22.4915 102.986 22.209C102.727 21.9219 102.367 21.7783 101.906 21.7783Z" fill="#666666"/>
<path d="M38.3194 25.2512L37.4839 28.2965L34.4302 28.3596C33.5176 26.7069 33 24.816 33 22.8067C33 20.8637 33.484 19.0314 34.3419 17.418H34.3425L37.0612 17.9046L38.2521 20.543C38.0029 21.2525 37.867 22.0142 37.867 22.8067C37.8671 23.6668 38.0267 24.4909 38.3194 25.2512Z" fill="#FBBB00"/>
<path d="M56.7894 20.6172C56.9272 21.326 56.9991 22.058 56.9991 22.8061C56.9991 23.645 56.9087 24.4633 56.7366 25.2527C56.1524 27.9386 54.6259 30.284 52.5112 31.9438L52.5105 31.9432L49.0863 31.7726L48.6016 28.8187C50.0048 28.0153 51.1014 26.7579 51.6791 25.2527H45.2617V20.6172H51.7727H56.7894Z" fill="#518EF8"/>
<path d="M52.5054 31.9444L52.5061 31.945C50.4494 33.559 47.8368 34.5248 44.9928 34.5248C40.4225 34.5248 36.4489 32.0307 34.4219 28.3603L38.3111 25.252C39.3245 27.8929 41.9338 29.7728 44.9928 29.7728C46.3076 29.7728 47.5394 29.4258 48.5964 28.8199L52.5054 31.9444Z" fill="#28B446"/>
<path d="M52.6595 13.7874L48.7716 16.8951C47.6777 16.2275 46.3845 15.8418 44.9991 15.8418C41.8709 15.8418 39.2128 17.808 38.2501 20.5436L34.3405 17.4185H34.3398C36.3372 13.6587 40.3609 11.0898 44.9991 11.0898C47.9111 11.0898 50.581 12.1026 52.6595 13.7874Z" fill="#F14336"/>
</svg>
