<svg width="135" height="46" viewBox="0 0 135 46" fill="none" xmlns="http://www.w3.org/2000/svg">
<rect x="1.4375" y="0.5" width="133" height="45" rx="3.5" fill="white" stroke="#D9D9D9"/>
<path d="M63.5439 16.7598C63.4437 17.8216 63.0518 18.651 62.3682 19.248C61.6846 19.8405 60.7754 20.1367 59.6406 20.1367C58.8477 20.1367 58.1481 19.9499 57.542 19.5762C56.9404 19.1979 56.4756 18.6624 56.1475 17.9697C55.8193 17.277 55.6484 16.4727 55.6348 15.5566V14.627C55.6348 13.6882 55.8011 12.861 56.1338 12.1455C56.4665 11.43 56.9427 10.8786 57.5625 10.4912C58.1868 10.1038 58.9069 9.91016 59.7227 9.91016C60.821 9.91016 61.7051 10.2087 62.375 10.8057C63.0449 11.4027 63.4346 12.2458 63.5439 13.335H61.8213C61.7393 12.6195 61.5296 12.1045 61.1924 11.79C60.8597 11.471 60.3698 11.3115 59.7227 11.3115C58.9707 11.3115 58.3919 11.5872 57.9863 12.1387C57.5853 12.6855 57.3802 13.4899 57.3711 14.5518V15.4336C57.3711 16.5091 57.5625 17.3294 57.9453 17.8945C58.3327 18.4596 58.8978 18.7422 59.6406 18.7422C60.3197 18.7422 60.8301 18.5895 61.1719 18.2842C61.5137 17.9788 61.7301 17.4707 61.8213 16.7598H63.5439ZM64.624 16.2334C64.624 15.5088 64.7676 14.8571 65.0547 14.2783C65.3418 13.695 65.7451 13.2484 66.2646 12.9385C66.7842 12.624 67.3812 12.4668 68.0557 12.4668C69.0537 12.4668 69.8626 12.7881 70.4824 13.4307C71.1068 14.0732 71.444 14.9255 71.4941 15.9873L71.501 16.377C71.501 17.1061 71.3597 17.7578 71.0771 18.332C70.7992 18.9062 70.3981 19.3506 69.874 19.665C69.3545 19.9795 68.7529 20.1367 68.0693 20.1367C67.0257 20.1367 66.1895 19.7904 65.5605 19.0977C64.9362 18.4004 64.624 17.473 64.624 16.3154V16.2334ZM66.2852 16.377C66.2852 17.138 66.4424 17.735 66.7568 18.168C67.0713 18.5964 67.5088 18.8105 68.0693 18.8105C68.6299 18.8105 69.0651 18.5918 69.375 18.1543C69.6895 17.7168 69.8467 17.0765 69.8467 16.2334C69.8467 15.486 69.6849 14.8936 69.3613 14.4561C69.0423 14.0186 68.6071 13.7998 68.0557 13.7998C67.5133 13.7998 67.0827 14.0163 66.7637 14.4492C66.4447 14.8776 66.2852 15.5202 66.2852 16.377ZM68.5137 9.5H70.4072L68.5137 11.5713H67.1807L68.5137 9.5ZM72.5947 16.2471C72.5947 15.1077 72.859 14.194 73.3877 13.5059C73.9163 12.8132 74.625 12.4668 75.5137 12.4668C76.2975 12.4668 76.931 12.7402 77.4141 13.2871V9.5H79.0752V20H77.5713L77.4893 19.2344C76.9925 19.8359 76.3294 20.1367 75.5 20.1367C74.6341 20.1367 73.9323 19.7881 73.3945 19.0908C72.8613 18.3936 72.5947 17.4456 72.5947 16.2471ZM74.2559 16.3906C74.2559 17.1426 74.3994 17.7305 74.6865 18.1543C74.9782 18.5736 75.3906 18.7832 75.9238 18.7832C76.6029 18.7832 77.0996 18.4801 77.4141 17.874V14.7158C77.1087 14.1234 76.6165 13.8271 75.9375 13.8271C75.3997 13.8271 74.985 14.0413 74.6934 14.4697C74.4017 14.8936 74.2559 15.5339 74.2559 16.3906ZM82.5752 20H80.9141V12.6035H82.5752V20ZM80.8115 10.6826C80.8115 10.4274 80.8913 10.2155 81.0508 10.0469C81.2148 9.87826 81.4473 9.79395 81.748 9.79395C82.0488 9.79395 82.2812 9.87826 82.4453 10.0469C82.6094 10.2155 82.6914 10.4274 82.6914 10.6826C82.6914 10.9333 82.6094 11.1429 82.4453 11.3115C82.2812 11.4756 82.0488 11.5576 81.748 11.5576C81.4473 11.5576 81.2148 11.4756 81.0508 11.3115C80.8913 11.1429 80.8115 10.9333 80.8115 10.6826ZM84.0996 16.2471C84.0996 15.0986 84.3685 14.1826 84.9062 13.499C85.4486 12.8109 86.1663 12.4668 87.0596 12.4668C87.9027 12.4668 88.5658 12.7607 89.0488 13.3486L89.124 12.6035H90.6211V19.7744C90.6211 20.7451 90.318 21.5107 89.7119 22.0713C89.1104 22.6318 88.2969 22.9121 87.2715 22.9121C86.7292 22.9121 86.1982 22.7982 85.6787 22.5703C85.1637 22.347 84.7718 22.0531 84.5029 21.6885L85.2891 20.6904C85.7995 21.2965 86.4284 21.5996 87.1758 21.5996C87.7272 21.5996 88.1624 21.4492 88.4814 21.1484C88.8005 20.8522 88.96 20.4147 88.96 19.8359V19.3369C88.4814 19.8701 87.8434 20.1367 87.0459 20.1367C86.18 20.1367 85.4714 19.7926 84.9199 19.1045C84.373 18.4163 84.0996 17.4639 84.0996 16.2471ZM85.7539 16.3906C85.7539 17.1335 85.9043 17.7191 86.2051 18.1475C86.5104 18.5713 86.932 18.7832 87.4697 18.7832C88.1396 18.7832 88.6364 18.4961 88.96 17.9219V14.668C88.6455 14.1074 88.1533 13.8271 87.4834 13.8271C86.9365 13.8271 86.5104 14.0436 86.2051 14.4766C85.9043 14.9095 85.7539 15.5475 85.7539 16.3906ZM92.0225 16.2334C92.0225 15.5088 92.166 14.8571 92.4531 14.2783C92.7402 13.695 93.1436 13.2484 93.6631 12.9385C94.1826 12.624 94.7796 12.4668 95.4541 12.4668C96.4521 12.4668 97.2611 12.7881 97.8809 13.4307C98.5052 14.0732 98.8424 14.9255 98.8926 15.9873L98.8994 16.377C98.8994 17.1061 98.7581 17.7578 98.4756 18.332C98.1976 18.9062 97.7965 19.3506 97.2725 19.665C96.7529 19.9795 96.1514 20.1367 95.4678 20.1367C94.4242 20.1367 93.5879 19.7904 92.959 19.0977C92.3346 18.4004 92.0225 17.473 92.0225 16.3154V16.2334ZM93.6836 16.377C93.6836 17.138 93.8408 17.735 94.1553 18.168C94.4697 18.5964 94.9072 18.8105 95.4678 18.8105C96.0283 18.8105 96.4635 18.5918 96.7734 18.1543C97.0879 17.7168 97.2451 17.0765 97.2451 16.2334C97.2451 15.486 97.0833 14.8936 96.7598 14.4561C96.4408 14.0186 96.0055 13.7998 95.4541 13.7998C94.9118 13.7998 94.4811 14.0163 94.1621 14.4492C93.8431 14.8776 93.6836 15.5202 93.6836 16.377ZM58.3965 32.8945L59.9619 27.6035H61.6777L59.1143 35H57.6719L55.0879 27.6035H56.8105L58.3965 32.8945ZM64.4873 35H62.8262V27.6035H64.4873V35ZM62.7236 25.6826C62.7236 25.4274 62.8034 25.2155 62.9629 25.0469C63.127 24.8783 63.3594 24.7939 63.6602 24.7939C63.9609 24.7939 64.1934 24.8783 64.3574 25.0469C64.5215 25.2155 64.6035 25.4274 64.6035 25.6826C64.6035 25.9333 64.5215 26.1429 64.3574 26.3115C64.1934 26.4756 63.9609 26.5576 63.6602 26.5576C63.3594 26.5576 63.127 26.4756 62.9629 26.3115C62.8034 26.1429 62.7236 25.9333 62.7236 25.6826ZM70.7217 35C70.6488 34.8587 70.585 34.6286 70.5303 34.3096C70.0016 34.861 69.3545 35.1367 68.5889 35.1367C67.846 35.1367 67.2399 34.9248 66.7705 34.501C66.3011 34.0771 66.0664 33.5531 66.0664 32.9287C66.0664 32.1403 66.3581 31.5365 66.9414 31.1172C67.5293 30.6934 68.3678 30.4814 69.457 30.4814H70.4756V29.9961C70.4756 29.6133 70.3685 29.3079 70.1543 29.0801C69.9401 28.8477 69.6143 28.7314 69.1768 28.7314C68.7985 28.7314 68.4886 28.8271 68.2471 29.0186C68.0055 29.2054 67.8848 29.4447 67.8848 29.7363H66.2236C66.2236 29.3307 66.3581 28.9525 66.627 28.6016C66.8958 28.2461 67.2604 27.9681 67.7207 27.7676C68.1855 27.5671 68.7028 27.4668 69.2725 27.4668C70.1383 27.4668 70.8288 27.6855 71.3438 28.123C71.8587 28.556 72.123 29.1667 72.1367 29.9551V33.291C72.1367 33.9564 72.2301 34.4873 72.417 34.8838V35H70.7217ZM68.8965 33.8037C69.2246 33.8037 69.5322 33.724 69.8193 33.5645C70.111 33.4049 70.3298 33.1908 70.4756 32.9219V31.5273H69.5801C68.9648 31.5273 68.5023 31.6344 68.1924 31.8486C67.8825 32.0628 67.7275 32.3659 67.7275 32.7578C67.7275 33.0768 67.8324 33.332 68.042 33.5234C68.2562 33.7103 68.541 33.8037 68.8965 33.8037ZM80.6201 35.1367C79.5674 35.1367 78.7129 34.8063 78.0566 34.1455C77.4049 33.4801 77.0791 32.596 77.0791 31.4932V31.2881C77.0791 30.5498 77.2204 29.8913 77.5029 29.3125C77.79 28.7292 78.1911 28.2757 78.7061 27.9521C79.221 27.6286 79.7952 27.4668 80.4287 27.4668C81.4359 27.4668 82.2129 27.7881 82.7598 28.4307C83.3112 29.0732 83.5869 29.9824 83.5869 31.1582V31.8281H78.7539C78.804 32.4388 79.0068 32.9219 79.3623 33.2773C79.7223 33.6328 80.1735 33.8105 80.7158 33.8105C81.4769 33.8105 82.0967 33.5029 82.5752 32.8877L83.4707 33.7422C83.1745 34.1842 82.778 34.5283 82.2812 34.7744C81.7891 35.016 81.2354 35.1367 80.6201 35.1367ZM80.4219 28.7998C79.9661 28.7998 79.597 28.9593 79.3145 29.2783C79.0365 29.5973 78.8587 30.0417 78.7812 30.6113H81.9463V30.4883C81.9098 29.9323 81.7617 29.513 81.502 29.2305C81.2422 28.9434 80.8822 28.7998 80.4219 28.7998ZM88.1055 31.4385H84.5166V30.0986H88.1055V31.4385ZM91.0381 27.6035L91.0859 28.376C91.6055 27.7699 92.3164 27.4668 93.2188 27.4668C94.2077 27.4668 94.8844 27.8451 95.249 28.6016C95.7868 27.8451 96.5433 27.4668 97.5186 27.4668C98.3343 27.4668 98.9404 27.6924 99.3369 28.1436C99.738 28.5947 99.943 29.2601 99.9521 30.1396V35H98.291V30.1875C98.291 29.7181 98.1885 29.374 97.9834 29.1553C97.7783 28.9365 97.4388 28.8271 96.9648 28.8271C96.5866 28.8271 96.2767 28.9297 96.0352 29.1348C95.7982 29.3353 95.6318 29.5996 95.5361 29.9277L95.543 35H93.8818V30.1328C93.859 29.2624 93.4147 28.8271 92.5488 28.8271C91.8835 28.8271 91.4118 29.0983 91.1338 29.6406V35H89.4727V27.6035H91.0381ZM106.077 35C106.004 34.8587 105.94 34.6286 105.886 34.3096C105.357 34.861 104.71 35.1367 103.944 35.1367C103.201 35.1367 102.595 34.9248 102.126 34.501C101.657 34.0771 101.422 33.5531 101.422 32.9287C101.422 32.1403 101.714 31.5365 102.297 31.1172C102.885 30.6934 103.723 30.4814 104.812 30.4814H105.831V29.9961C105.831 29.6133 105.724 29.3079 105.51 29.0801C105.296 28.8477 104.97 28.7314 104.532 28.7314C104.154 28.7314 103.844 28.8271 103.603 29.0186C103.361 29.2054 103.24 29.4447 103.24 29.7363H101.579C101.579 29.3307 101.714 28.9525 101.982 28.6016C102.251 28.2461 102.616 27.9681 103.076 27.7676C103.541 27.5671 104.058 27.4668 104.628 27.4668C105.494 27.4668 106.184 27.6855 106.699 28.123C107.214 28.556 107.479 29.1667 107.492 29.9551V33.291C107.492 33.9564 107.586 34.4873 107.772 34.8838V35H106.077ZM104.252 33.8037C104.58 33.8037 104.888 33.724 105.175 33.5645C105.466 33.4049 105.685 33.1908 105.831 32.9219V31.5273H104.936C104.32 31.5273 103.858 31.6344 103.548 31.8486C103.238 32.0628 103.083 32.3659 103.083 32.7578C103.083 33.0768 103.188 33.332 103.397 33.5234C103.612 33.7103 103.896 33.8037 104.252 33.8037ZM110.999 35H109.338V27.6035H110.999V35ZM109.235 25.6826C109.235 25.4274 109.315 25.2155 109.475 25.0469C109.639 24.8783 109.871 24.7939 110.172 24.7939C110.473 24.7939 110.705 24.8783 110.869 25.0469C111.033 25.2155 111.115 25.4274 111.115 25.6826C111.115 25.9333 111.033 26.1429 110.869 26.3115C110.705 26.4756 110.473 26.5576 110.172 26.5576C109.871 26.5576 109.639 26.4756 109.475 26.3115C109.315 26.1429 109.235 25.9333 109.235 25.6826ZM114.581 35H112.92V24.5H114.581V35Z" fill="#666666"/>
<path d="M31.625 26.1875H22C21.2406 26.1875 20.625 25.5719 20.625 24.8125V16.5625C20.625 15.8031 21.2406 15.1875 22 15.1875H38.5C39.2594 15.1875 39.875 15.8031 39.875 16.5625V22.0625" stroke="#007DC5" stroke-width="1.4" stroke-linecap="round" stroke-linejoin="round"/>
<path d="M24.75 20.3438C24.9398 20.3438 25.0938 20.4977 25.0938 20.6875C25.0938 20.8773 24.9398 21.0313 24.75 21.0313C24.5602 21.0313 24.4063 20.8773 24.4063 20.6875C24.406 20.5963 24.4421 20.5087 24.5067 20.4442C24.5712 20.3796 24.6588 20.3435 24.75 20.3438" stroke="#007DC5" stroke-width="1.4" stroke-linecap="round" stroke-linejoin="round"/>
<path d="M30.25 20.3438C30.4398 20.3438 30.5938 20.4977 30.5938 20.6875C30.5938 20.8773 30.4398 21.0313 30.25 21.0313C30.0602 21.0313 29.9063 20.8773 29.9063 20.6875C29.906 20.5963 29.9421 20.5087 30.0067 20.4442C30.0712 20.3796 30.1588 20.3435 30.25 20.3438" stroke="#007DC5" stroke-width="1.4" stroke-linecap="round" stroke-linejoin="round"/>
<path d="M35.75 20.3438C35.9398 20.3438 36.0938 20.4977 36.0938 20.6875C36.0938 20.8773 35.9398 21.0313 35.75 21.0313C35.5602 21.0313 35.4063 20.8773 35.4063 20.6875C35.406 20.5963 35.4421 20.5087 35.5067 20.4442C35.5712 20.3796 35.6588 20.3435 35.75 20.3438" stroke="#007DC5" stroke-width="1.4" stroke-linecap="round" stroke-linejoin="round"/>
<path fill-rule="evenodd" clip-rule="evenodd" d="M33 30.4375C33 29.6091 33.6716 28.9375 34.5 28.9375H39.75C40.5784 28.9375 41.25 29.6091 41.25 30.4375V34.3125C41.25 35.1409 40.5784 35.8125 39.75 35.8125H34.5C33.6716 35.8125 33 35.1409 33 34.3125V30.4375Z" stroke="#007DC5" stroke-width="1.4" stroke-linecap="round" stroke-linejoin="round"/>
<path fill-rule="evenodd" clip-rule="evenodd" d="M37.125 24.8125V24.8125C35.6062 24.8125 34.375 26.0437 34.375 27.5625V28.9375H39.875V27.5625C39.875 26.0437 38.6438 24.8125 37.125 24.8125Z" stroke="#007DC5" stroke-width="1.4" stroke-linecap="round" stroke-linejoin="round"/>
<path d="M37.125 32.0586C37.3148 32.0586 37.4688 32.2125 37.4688 32.4023C37.4688 32.5922 37.3148 32.7461 37.125 32.7461C36.9352 32.7461 36.7812 32.5922 36.7812 32.4023C36.7812 32.2125 36.9352 32.0586 37.125 32.0586" stroke="#007DC5" stroke-width="1.4" stroke-linecap="round" stroke-linejoin="round"/>
</svg>
