<svg width="286" height="47" viewBox="0 0 286 47" fill="none" xmlns="http://www.w3.org/2000/svg">
<rect x="0.5" y="0.589844" width="285" height="45" rx="3.5" fill="white" stroke="#D9D9D9"/>
<path d="M120.606 24.8496C120.506 25.9115 120.114 26.7409 119.431 27.3379C118.747 27.9303 117.838 28.2266 116.703 28.2266C115.91 28.2266 115.211 28.0397 114.604 27.666C114.003 27.2878 113.538 26.7523 113.21 26.0596C112.882 25.3669 112.711 24.5625 112.697 23.6465V22.7168C112.697 21.778 112.864 20.9508 113.196 20.2354C113.529 19.5199 114.005 18.9684 114.625 18.5811C115.249 18.1937 115.969 18 116.785 18C117.883 18 118.768 18.2985 119.438 18.8955C120.107 19.4925 120.497 20.3356 120.606 21.4248H118.884C118.802 20.7093 118.592 20.1943 118.255 19.8799C117.922 19.5609 117.432 19.4014 116.785 19.4014C116.033 19.4014 115.454 19.6771 115.049 20.2285C114.648 20.7754 114.443 21.5798 114.434 22.6416V23.5234C114.434 24.599 114.625 25.4193 115.008 25.9844C115.395 26.5495 115.96 26.832 116.703 26.832C117.382 26.832 117.893 26.6794 118.234 26.374C118.576 26.0687 118.793 25.5605 118.884 24.8496H120.606ZM121.687 24.3232C121.687 23.5986 121.83 22.9469 122.117 22.3682C122.404 21.7848 122.808 21.3382 123.327 21.0283C123.847 20.7139 124.444 20.5566 125.118 20.5566C126.116 20.5566 126.925 20.8779 127.545 21.5205C128.169 22.1631 128.507 23.0153 128.557 24.0771L128.563 24.4668C128.563 25.196 128.422 25.8477 128.14 26.4219C127.862 26.9961 127.461 27.4404 126.937 27.7549C126.417 28.0693 125.815 28.2266 125.132 28.2266C124.088 28.2266 123.252 27.8802 122.623 27.1875C121.999 26.4902 121.687 25.5628 121.687 24.4053V24.3232ZM123.348 24.4668C123.348 25.2279 123.505 25.8249 123.819 26.2578C124.134 26.6862 124.571 26.9004 125.132 26.9004C125.692 26.9004 126.128 26.6816 126.438 26.2441C126.752 25.8066 126.909 25.1663 126.909 24.3232C126.909 23.5758 126.747 22.9834 126.424 22.5459C126.105 22.1084 125.67 21.8896 125.118 21.8896C124.576 21.8896 124.145 22.1061 123.826 22.5391C123.507 22.9674 123.348 23.61 123.348 24.4668ZM125.576 17.5898H127.47L125.576 19.6611H124.243L125.576 17.5898ZM129.657 24.3369C129.657 23.1976 129.922 22.2839 130.45 21.5957C130.979 20.903 131.688 20.5566 132.576 20.5566C133.36 20.5566 133.993 20.8301 134.477 21.377V17.5898H136.138V28.0898H134.634L134.552 27.3242C134.055 27.9258 133.392 28.2266 132.562 28.2266C131.697 28.2266 130.995 27.8779 130.457 27.1807C129.924 26.4834 129.657 25.5355 129.657 24.3369ZM131.318 24.4805C131.318 25.2324 131.462 25.8203 131.749 26.2441C132.041 26.6634 132.453 26.873 132.986 26.873C133.665 26.873 134.162 26.57 134.477 25.9639V22.8057C134.171 22.2132 133.679 21.917 133 21.917C132.462 21.917 132.048 22.1312 131.756 22.5596C131.464 22.9834 131.318 23.6237 131.318 24.4805ZM139.638 28.0898H137.977V20.6934H139.638V28.0898ZM137.874 18.7725C137.874 18.5173 137.954 18.3053 138.113 18.1367C138.277 17.9681 138.51 17.8838 138.811 17.8838C139.111 17.8838 139.344 17.9681 139.508 18.1367C139.672 18.3053 139.754 18.5173 139.754 18.7725C139.754 19.0231 139.672 19.2327 139.508 19.4014C139.344 19.5654 139.111 19.6475 138.811 19.6475C138.51 19.6475 138.277 19.5654 138.113 19.4014C137.954 19.2327 137.874 19.0231 137.874 18.7725ZM141.162 24.3369C141.162 23.1885 141.431 22.2725 141.969 21.5889C142.511 20.9007 143.229 20.5566 144.122 20.5566C144.965 20.5566 145.628 20.8506 146.111 21.4385L146.187 20.6934H147.684V27.8643C147.684 28.835 147.381 29.6006 146.774 30.1611C146.173 30.7217 145.359 31.002 144.334 31.002C143.792 31.002 143.261 30.888 142.741 30.6602C142.226 30.4368 141.834 30.1429 141.565 29.7783L142.352 28.7803C142.862 29.3864 143.491 29.6895 144.238 29.6895C144.79 29.6895 145.225 29.5391 145.544 29.2383C145.863 28.9421 146.022 28.5046 146.022 27.9258V27.4268C145.544 27.96 144.906 28.2266 144.108 28.2266C143.243 28.2266 142.534 27.8825 141.982 27.1943C141.436 26.5062 141.162 25.5537 141.162 24.3369ZM142.816 24.4805C142.816 25.2233 142.967 25.8089 143.268 26.2373C143.573 26.6611 143.994 26.873 144.532 26.873C145.202 26.873 145.699 26.5859 146.022 26.0117V22.7578C145.708 22.1973 145.216 21.917 144.546 21.917C143.999 21.917 143.573 22.1335 143.268 22.5664C142.967 22.9993 142.816 23.6374 142.816 24.4805ZM149.085 24.3232C149.085 23.5986 149.229 22.9469 149.516 22.3682C149.803 21.7848 150.206 21.3382 150.726 21.0283C151.245 20.7139 151.842 20.5566 152.517 20.5566C153.515 20.5566 154.324 20.8779 154.943 21.5205C155.568 22.1631 155.905 23.0153 155.955 24.0771L155.962 24.4668C155.962 25.196 155.821 25.8477 155.538 26.4219C155.26 26.9961 154.859 27.4404 154.335 27.7549C153.815 28.0693 153.214 28.2266 152.53 28.2266C151.487 28.2266 150.65 27.8802 150.021 27.1875C149.397 26.4902 149.085 25.5628 149.085 24.4053V24.3232ZM150.746 24.4668C150.746 25.2279 150.903 25.8249 151.218 26.2578C151.532 26.6862 151.97 26.9004 152.53 26.9004C153.091 26.9004 153.526 26.6816 153.836 26.2441C154.15 25.8066 154.308 25.1663 154.308 24.3232C154.308 23.5758 154.146 22.9834 153.822 22.5459C153.503 22.1084 153.068 21.8896 152.517 21.8896C151.974 21.8896 151.544 22.1061 151.225 22.5391C150.906 22.9674 150.746 23.61 150.746 24.4668ZM164.11 28.2266C163.058 28.2266 162.203 27.8962 161.547 27.2354C160.895 26.57 160.569 25.6859 160.569 24.583V24.3779C160.569 23.6396 160.711 22.9811 160.993 22.4023C161.28 21.819 161.681 21.3656 162.196 21.042C162.711 20.7184 163.285 20.5566 163.919 20.5566C164.926 20.5566 165.703 20.8779 166.25 21.5205C166.801 22.1631 167.077 23.0723 167.077 24.248V24.918H162.244C162.294 25.5286 162.497 26.0117 162.853 26.3672C163.213 26.7227 163.664 26.9004 164.206 26.9004C164.967 26.9004 165.587 26.5928 166.065 25.9775L166.961 26.832C166.665 27.2741 166.268 27.6182 165.771 27.8643C165.279 28.1058 164.726 28.2266 164.11 28.2266ZM163.912 21.8896C163.456 21.8896 163.087 22.0492 162.805 22.3682C162.527 22.6872 162.349 23.1315 162.271 23.7012H165.437V23.5781C165.4 23.0221 165.252 22.6029 164.992 22.3203C164.732 22.0332 164.372 21.8896 163.912 21.8896ZM171.596 24.5283H168.007V23.1885H171.596V24.5283ZM174.528 20.6934L174.576 21.4658C175.096 20.8597 175.807 20.5566 176.709 20.5566C177.698 20.5566 178.375 20.9349 178.739 21.6914C179.277 20.9349 180.034 20.5566 181.009 20.5566C181.825 20.5566 182.431 20.7822 182.827 21.2334C183.228 21.6846 183.433 22.3499 183.442 23.2295V28.0898H181.781V23.2773C181.781 22.8079 181.679 22.4639 181.474 22.2451C181.269 22.0264 180.929 21.917 180.455 21.917C180.077 21.917 179.767 22.0195 179.525 22.2246C179.288 22.4251 179.122 22.6895 179.026 23.0176L179.033 28.0898H177.372V23.2227C177.349 22.3522 176.905 21.917 176.039 21.917C175.374 21.917 174.902 22.1882 174.624 22.7305V28.0898H172.963V20.6934H174.528ZM189.567 28.0898C189.494 27.9486 189.431 27.7184 189.376 27.3994C188.847 27.9508 188.2 28.2266 187.435 28.2266C186.692 28.2266 186.086 28.0146 185.616 27.5908C185.147 27.167 184.912 26.6429 184.912 26.0186C184.912 25.2301 185.204 24.6263 185.787 24.207C186.375 23.7832 187.214 23.5713 188.303 23.5713H189.321V23.0859C189.321 22.7031 189.214 22.3978 189 22.1699C188.786 21.9375 188.46 21.8213 188.022 21.8213C187.644 21.8213 187.334 21.917 187.093 22.1084C186.851 22.2952 186.73 22.5345 186.73 22.8262H185.069C185.069 22.4206 185.204 22.0423 185.473 21.6914C185.742 21.3359 186.106 21.0579 186.566 20.8574C187.031 20.6569 187.549 20.5566 188.118 20.5566C188.984 20.5566 189.674 20.7754 190.189 21.2129C190.704 21.6458 190.969 22.2565 190.982 23.0449V26.3809C190.982 27.0462 191.076 27.5771 191.263 27.9736V28.0898H189.567ZM187.742 26.8936C188.07 26.8936 188.378 26.8138 188.665 26.6543C188.957 26.4948 189.175 26.2806 189.321 26.0117V24.6172H188.426C187.811 24.6172 187.348 24.7243 187.038 24.9385C186.728 25.1527 186.573 25.4557 186.573 25.8477C186.573 26.1667 186.678 26.4219 186.888 26.6133C187.102 26.8001 187.387 26.8936 187.742 26.8936ZM194.489 28.0898H192.828V20.6934H194.489V28.0898ZM192.726 18.7725C192.726 18.5173 192.805 18.3053 192.965 18.1367C193.129 17.9681 193.361 17.8838 193.662 17.8838C193.963 17.8838 194.195 17.9681 194.359 18.1367C194.523 18.3053 194.605 18.5173 194.605 18.7725C194.605 19.0231 194.523 19.2327 194.359 19.4014C194.195 19.5654 193.963 19.6475 193.662 19.6475C193.361 19.6475 193.129 19.5654 192.965 19.4014C192.805 19.2327 192.726 19.0231 192.726 18.7725ZM198.071 28.0898H196.41V17.5898H198.071V28.0898Z" fill="#666666"/>
<path d="M94.6875 23.7773H85.0625C84.3031 23.7773 83.6875 23.1617 83.6875 22.4023V14.1523C83.6875 13.393 84.3031 12.7773 85.0625 12.7773H101.563C102.322 12.7773 102.938 13.393 102.938 14.1523V19.6523" stroke="#007DC5" stroke-width="1.4" stroke-linecap="round" stroke-linejoin="round"/>
<path d="M87.8125 17.9336C88.0023 17.9336 88.1563 18.0875 88.1563 18.2773C88.1563 18.4672 88.0023 18.6211 87.8125 18.6211C87.6227 18.6211 87.4688 18.4672 87.4688 18.2773C87.4685 18.1861 87.5046 18.0985 87.5692 18.034C87.6337 17.9695 87.7213 17.9334 87.8125 17.9336" stroke="#007DC5" stroke-width="1.4" stroke-linecap="round" stroke-linejoin="round"/>
<path d="M93.3125 17.9336C93.5023 17.9336 93.6563 18.0875 93.6563 18.2773C93.6563 18.4672 93.5023 18.6211 93.3125 18.6211C93.1227 18.6211 92.9688 18.4672 92.9688 18.2773C92.9685 18.1861 93.0046 18.0985 93.0692 18.034C93.1337 17.9695 93.2213 17.9334 93.3125 17.9336" stroke="#007DC5" stroke-width="1.4" stroke-linecap="round" stroke-linejoin="round"/>
<path d="M98.8125 17.9336C99.0023 17.9336 99.1563 18.0875 99.1563 18.2773C99.1563 18.4672 99.0023 18.6211 98.8125 18.6211C98.6227 18.6211 98.4688 18.4672 98.4688 18.2773C98.4685 18.1861 98.5046 18.0985 98.5692 18.034C98.6337 17.9695 98.7213 17.9334 98.8125 17.9336" stroke="#007DC5" stroke-width="1.4" stroke-linecap="round" stroke-linejoin="round"/>
<path fill-rule="evenodd" clip-rule="evenodd" d="M96.0625 28.0273C96.0625 27.1989 96.7341 26.5273 97.5625 26.5273H102.813C103.641 26.5273 104.313 27.1989 104.313 28.0273V31.9023C104.313 32.7308 103.641 33.4023 102.813 33.4023H97.5625C96.7341 33.4023 96.0625 32.7308 96.0625 31.9023V28.0273Z" stroke="#007DC5" stroke-width="1.4" stroke-linecap="round" stroke-linejoin="round"/>
<path fill-rule="evenodd" clip-rule="evenodd" d="M100.188 22.4023V22.4023C98.6687 22.4023 97.4375 23.6336 97.4375 25.1523V26.5273H102.938V25.1523C102.938 23.6336 101.706 22.4023 100.188 22.4023Z" stroke="#007DC5" stroke-width="1.4" stroke-linecap="round" stroke-linejoin="round"/>
<path d="M100.188 29.6484C100.377 29.6484 100.531 29.8023 100.531 29.9922C100.531 30.182 100.377 30.3359 100.188 30.3359C99.9977 30.3359 99.8438 30.182 99.8438 29.9922C99.8438 29.8023 99.9977 29.6484 100.188 29.6484" stroke="#007DC5" stroke-width="1.4" stroke-linecap="round" stroke-linejoin="round"/>
</svg>
