<svg width="229" height="27" viewBox="0 0 229 27" fill="none" xmlns="http://www.w3.org/2000/svg">
<g clip-path="url(#clip0)">
<path d="M0.939453 0.951172H25.0443V24.662H0.939453V0.951172Z" fill="#ED1C24"/>
<path d="M21.6057 9.18965H16.648V4.36035H9.31946V9.18965H4.35938V16.3461H9.31782V21.1722H16.6464V16.3461H21.604" fill="white"/>
<path d="M46.01 15.5298H41.2582L39.8216 21.2028H33.6934L38.1307 4.23633H48.8856C52.4791 4.23633 55.1366 6.24449 55.1366 8.81542C55.1366 13.3678 50.8228 15.5298 46.01 15.5298ZM45.4461 7.36436H43.3517L42.0387 12.401H43.6646C46.3533 12.401 48.9169 11.9183 48.9169 9.32394C48.9169 7.92308 47.0095 7.36436 45.4461 7.36436ZM70.8895 17.4375C70.3898 19.2943 70.2968 20.4133 70.2342 21.2028H64.2953C64.3891 20.5656 64.6707 19.4724 64.8896 18.4805C63.5757 20.2101 61.8889 21.4822 59.0758 21.4822C55.5746 21.4822 53.9495 19.7526 53.9495 17.3363C53.9495 11.077 61.0788 8.07693 67.0227 8.07693C69.1467 8.07693 72.0281 8.3814 73.1806 8.76359L70.8912 17.4375H70.8895ZM66.0134 11.0025C63.1682 11.0025 60.0736 13.4196 60.0736 16.7517C60.0736 17.6926 60.4811 18.4554 61.7942 18.4554C63.7322 18.4554 65.326 16.1922 66.1706 13.3686L66.858 11.1046C66.5781 11.0236 66.2653 10.9993 66.0183 10.9993L66.0134 11.0025ZM89.8103 18.9833C88.279 24.7001 85.6529 26.9431 77.9637 26.9431C75.5269 26.9431 73.2135 26.5868 71.8716 26.2305L72.9089 23.0968C74.5966 23.7851 76.1937 23.9875 77.6262 23.9875C81.6025 23.9875 82.9773 22.4571 83.6606 20.2708L84.0969 18.8943C82.5896 20.4822 80.9924 21.1947 78.4321 21.1947C74.9308 21.1947 73.272 19.5672 73.272 17.3282C73.272 11.0446 80.6516 8.09556 86.6235 8.09556C88.624 8.09556 91.3432 8.40002 92.5303 8.75631L89.8119 18.9752L89.8103 18.9833ZM85.4059 11.0155C82.5657 11.0155 79.4044 13.4285 79.4044 16.8618C79.4044 17.8254 79.7502 18.538 81.0344 18.538C83.3807 18.538 84.8543 15.7687 85.5047 13.4771L86.1962 11.1127C85.9163 11.0317 85.6693 11.0074 85.4141 11.0074L85.4059 11.0155ZM108.613 18.4084C108.399 19.2991 108.144 20.2644 108.054 21.1802H102.612L103.048 18.9169C101.739 20.3178 100.019 21.4628 97.3595 21.4628C94.7992 21.4628 92.9551 20.5964 92.9551 18.41C92.9551 17.9525 92.988 17.495 93.1115 17.0359L95.3656 8.315H101.151L99.1501 16.048C99.0554 16.4286 98.9607 16.8351 98.9607 17.2173C98.9607 18.0084 99.43 18.4886 100.556 18.4886C102.367 18.4886 103.182 17.091 103.495 15.8448L105.435 8.31581H111.216L108.623 18.4133L108.613 18.4084ZM117.463 16.044C117.34 16.2707 117.34 16.5784 117.34 16.8051C117.34 18.4084 119.159 18.9186 120.839 18.9186C122.625 18.9186 124.535 18.3841 126 17.593L125.58 20.385C123.548 21.1753 121.453 21.4782 118.921 21.4782C115.292 21.4782 111.446 20.4376 111.446 17.0003C111.446 11.737 116.229 8.09961 122.292 8.09961C125.106 8.09961 128.607 8.78789 128.607 11.46C128.607 15.4035 121.231 16.0626 117.448 16.0626L117.463 16.044ZM121.951 10.6211C119.889 10.6211 118.513 12.3273 117.856 13.7516C120.266 13.7516 123.514 13.2415 123.514 11.7175C123.514 10.9305 122.831 10.6244 121.95 10.6244L121.951 10.6211ZM154.625 21.2207H149.06L152.682 7.22832L143.84 21.219H138.687L137.147 7.20241L133.525 21.219H128.215L132.66 4.24928H141.715L142.777 15.8472L149.937 4.24362H159.065L154.625 21.2207ZM164.605 16.0739C164.479 16.3007 164.479 16.6084 164.479 16.8351C164.479 18.4384 166.29 18.9437 167.978 18.9437C169.764 18.9437 171.666 18.4092 173.14 17.6214L172.736 20.3972C170.703 21.1867 168.612 21.4903 166.076 21.4903C162.454 21.4903 158.609 20.4482 158.609 17.0149C158.609 11.7515 163.393 8.11175 169.46 8.11175C172.273 8.11175 175.774 8.79517 175.774 11.4673C175.774 15.4108 168.396 16.0691 164.614 16.0691L164.605 16.0739ZM169.117 10.6244C167.051 10.6244 165.676 12.3248 165.021 13.75C167.431 13.75 170.681 13.2398 170.681 11.7175C170.681 10.9272 169.996 10.6244 169.117 10.6244H169.117ZM193.444 12.5572L191.194 21.2053H185.414L187.415 13.5249C187.511 13.1176 187.637 12.737 187.637 12.3548C187.637 11.5936 187.201 11.0835 186.075 11.0835C184.26 11.0835 183.385 12.4844 183.073 13.7314L181.134 21.2085H175.352L177.978 11.1353C178.229 10.2203 178.447 9.30288 178.542 8.36115H184.012L183.512 10.6284C185.043 8.87939 186.574 8.11013 189.231 8.11013C191.734 8.11013 193.639 8.97656 193.639 11.1629C193.636 11.6244 193.573 12.0779 193.449 12.5637L193.444 12.5572ZM201.954 21.4952C198.298 21.4952 194.639 20.1996 194.639 16.7906C194.639 11.5272 199.048 8.11823 205.455 8.11823C209.114 8.11823 212.771 9.36523 212.771 12.7985C212.771 18.0376 208.332 21.5 201.956 21.5L201.954 21.4952ZM204.61 11.0948C201.951 11.0948 200.704 14.7549 200.704 16.512C200.704 17.6295 201.201 18.5202 202.733 18.5202C205.392 18.5202 206.704 14.8601 206.704 13.103C206.704 11.9613 206.14 11.0948 204.609 11.0948H204.61ZM227.059 11.4511C225.714 10.992 224.276 10.6875 222.806 10.6875C221.81 10.6875 219.9 10.8414 219.9 11.9103C219.9 13.5897 226.963 13.4123 226.963 16.7962C226.963 20.6344 221.999 21.5008 218.212 21.5008C216.277 21.5008 214.372 21.2984 212.523 20.8393L213.585 17.8594C214.96 18.4667 216.467 18.8505 218.056 18.8505C219.15 18.8505 221.34 18.6481 221.34 17.4788C221.34 15.827 214.433 16.0828 214.433 12.5718C214.433 8.98465 219.591 8.09394 223.094 8.09394C224.782 8.09394 226.561 8.35063 228.19 8.7061L227.062 11.456L227.059 11.4511Z" fill="#0054A6"/>
</g>
<defs>
<clipPath id="clip0">
<rect width="227.217" height="26" fill="white" transform="translate(0.939453 0.951172)"/>
</clipPath>
</defs>
</svg>
