<svg width="33" height="39" viewBox="0 0 33 39" fill="none" xmlns="http://www.w3.org/2000/svg">
<path d="M7.95898 31.4624C7.85352 32.3647 7.51953 33.062 6.95703 33.5542C6.39844 34.0425 5.6543 34.2866 4.72461 34.2866C3.7168 34.2866 2.9082 33.9253 2.29883 33.2026C1.69336 32.48 1.39062 31.5132 1.39062 30.3022V29.4819C1.39062 28.689 1.53125 27.9917 1.8125 27.3901C2.09766 26.7886 2.5 26.3276 3.01953 26.0073C3.53906 25.6831 4.14062 25.521 4.82422 25.521C5.73047 25.521 6.45703 25.7749 7.00391 26.2827C7.55078 26.7866 7.86914 27.4858 7.95898 28.3804H6.82812C6.73047 27.7007 6.51758 27.2085 6.18945 26.9038C5.86523 26.5991 5.41016 26.4468 4.82422 26.4468C4.10547 26.4468 3.54102 26.7124 3.13086 27.2437C2.72461 27.7749 2.52148 28.5308 2.52148 29.5112V30.3374C2.52148 31.2632 2.71484 31.9995 3.10156 32.5464C3.48828 33.0933 4.0293 33.3667 4.72461 33.3667C5.34961 33.3667 5.82812 33.2261 6.16016 32.9448C6.49609 32.6597 6.71875 32.1655 6.82812 31.4624H7.95898ZM9.04297 30.9409C9.04297 30.3198 9.16406 29.7612 9.40625 29.2651C9.65234 28.769 9.99219 28.3862 10.4258 28.1167C10.8633 27.8472 11.3613 27.7124 11.9199 27.7124C12.7832 27.7124 13.4805 28.0112 14.0117 28.6089C14.5469 29.2065 14.8145 30.0015 14.8145 30.9937V31.0698C14.8145 31.687 14.6953 32.2417 14.457 32.7339C14.2227 33.2222 13.8848 33.603 13.4434 33.8765C13.0059 34.1499 12.502 34.2866 11.9316 34.2866C11.0723 34.2866 10.375 33.9878 9.83984 33.3901C9.30859 32.7925 9.04297 32.0015 9.04297 31.0171V30.9409ZM10.1328 31.0698C10.1328 31.7729 10.2949 32.3374 10.6191 32.7632C10.9473 33.189 11.3848 33.4019 11.9316 33.4019C12.4824 33.4019 12.9199 33.187 13.2441 32.7573C13.5684 32.3237 13.7305 31.7183 13.7305 30.9409C13.7305 30.2456 13.5645 29.6831 13.2324 29.2534C12.9043 28.8198 12.4668 28.603 11.9199 28.603C11.3848 28.603 10.9531 28.8159 10.625 29.2417C10.2969 29.6675 10.1328 30.2769 10.1328 31.0698ZM17.1992 27.8296L17.2344 28.6265C17.7188 28.0171 18.3516 27.7124 19.1328 27.7124C20.4727 27.7124 21.1484 28.4683 21.1602 29.98V34.1694H20.0762V29.9741C20.0723 29.5171 19.9668 29.1792 19.7598 28.9604C19.5566 28.7417 19.2383 28.6323 18.8047 28.6323C18.4531 28.6323 18.1445 28.7261 17.8789 28.9136C17.6133 29.1011 17.4062 29.3472 17.2578 29.6519V34.1694H16.1738V27.8296H17.1992ZM24.2656 26.2944V27.8296H25.4492V28.6675H24.2656V32.5991C24.2656 32.853 24.3184 33.0444 24.4238 33.1733C24.5293 33.2983 24.709 33.3608 24.9629 33.3608C25.0879 33.3608 25.2598 33.3374 25.4785 33.2905V34.1694C25.1934 34.2476 24.916 34.2866 24.6465 34.2866C24.1621 34.2866 23.7969 34.1401 23.5508 33.8472C23.3047 33.5542 23.1816 33.1382 23.1816 32.5991V28.6675H22.0273V27.8296H23.1816V26.2944H24.2656ZM30.6348 34.1694C30.5723 34.0444 30.5215 33.8218 30.4824 33.5015C29.9785 34.0249 29.377 34.2866 28.6777 34.2866C28.0527 34.2866 27.5391 34.1108 27.1367 33.7593C26.7383 33.4038 26.5391 32.9546 26.5391 32.4116C26.5391 31.7515 26.7891 31.2397 27.2891 30.8765C27.793 30.5093 28.5 30.3257 29.4102 30.3257H30.4648V29.8276C30.4648 29.4487 30.3516 29.1479 30.125 28.9253C29.8984 28.6987 29.5645 28.5854 29.123 28.5854C28.7363 28.5854 28.4121 28.6831 28.1504 28.8784C27.8887 29.0737 27.7578 29.3101 27.7578 29.5874H26.668C26.668 29.271 26.7793 28.9663 27.002 28.6733C27.2285 28.3765 27.5332 28.1421 27.916 27.9702C28.3027 27.7983 28.7266 27.7124 29.1875 27.7124C29.918 27.7124 30.4902 27.896 30.9043 28.2632C31.3184 28.6265 31.5332 29.1284 31.5488 29.769V32.687C31.5488 33.269 31.623 33.7319 31.7715 34.0757V34.1694H30.6348ZM28.8359 33.3433C29.1758 33.3433 29.498 33.2554 29.8027 33.0796C30.1074 32.9038 30.3281 32.6753 30.4648 32.394V31.0933H29.6152C28.2871 31.0933 27.623 31.4819 27.623 32.2593C27.623 32.5991 27.7363 32.8647 27.9629 33.0562C28.1895 33.2476 28.4805 33.3433 28.8359 33.3433Z" fill="#007DC5"/>
<path fill-rule="evenodd" clip-rule="evenodd" d="M16.5605 9.4375C18.7352 9.4375 20.498 7.67462 20.498 5.5C20.498 3.32538 18.7352 1.5625 16.5605 1.5625C14.3859 1.5625 12.623 3.32538 12.623 5.5C12.623 7.67462 14.3859 9.4375 16.5605 9.4375Z" stroke="#007DC5" stroke-width="1.5" stroke-linecap="round" stroke-linejoin="round"/>
<path d="M9.24805 18.4375C9.24805 14.3989 12.522 11.125 16.5605 11.125C20.5991 11.125 23.873 14.3989 23.873 18.4375" stroke="#007DC5" stroke-width="1.5" stroke-linecap="round" stroke-linejoin="round"/>
</svg>

