<svg width="60" height="38" viewBox="0 0 60 38" fill="none" xmlns="http://www.w3.org/2000/svg">
<path fill-rule="evenodd" clip-rule="evenodd" d="M28.4356 10.3944C28.4364 10.7992 28.1091 11.1282 27.7043 11.1294H21.8543C21.6598 11.129 21.4735 11.0513 21.3363 10.9135C21.1992 10.7756 21.1225 10.5889 21.1231 10.3944V2.30189C21.1227 2.10736 21.1995 1.92063 21.3368 1.78279C21.4741 1.64495 21.6605 1.56729 21.8551 1.56689L27.7051 1.57664C28.1096 1.5783 28.4364 1.90713 28.4356 2.31164V10.3944Z" stroke="#8C8C8C" stroke-width="1.5" stroke-linecap="round" stroke-linejoin="round"/>
<path fill-rule="evenodd" clip-rule="evenodd" d="M37.9941 5.90791C37.9913 6.309 37.664 6.63191 37.2629 6.62941H31.4129C31.2202 6.63081 31.0349 6.55556 30.8977 6.42023C30.7606 6.2849 30.6828 6.10059 30.6816 5.90791V2.29816C30.6841 1.8975 31.0107 1.57459 31.4114 1.57666L37.2614 1.56691C37.6629 1.564 37.9908 1.88692 37.9941 2.28841V5.90791Z" stroke="#8C8C8C" stroke-width="1.5" stroke-linecap="round" stroke-linejoin="round"/>
<path fill-rule="evenodd" clip-rule="evenodd" d="M28.4355 17.7182C28.4344 17.9113 28.3565 18.0961 28.2191 18.2318C28.0817 18.3675 27.8959 18.4431 27.7028 18.4419L21.8528 18.4322C21.4517 18.4338 21.1251 18.1102 21.123 17.7092V14.1024C21.124 13.9095 21.2017 13.725 21.3388 13.5893C21.476 13.4537 21.6614 13.3782 21.8543 13.3794H27.7043C28.1058 13.3773 28.4331 13.7009 28.4355 14.1024V17.7182Z" stroke="#8C8C8C" stroke-width="1.5" stroke-linecap="round" stroke-linejoin="round"/>
<path fill-rule="evenodd" clip-rule="evenodd" d="M31.4136 18.4419C31.219 18.4415 31.0325 18.3637 30.8952 18.2257C30.7579 18.0877 30.681 17.9008 30.6816 17.7061V9.61514C30.681 9.42061 30.7578 9.2338 30.8949 9.09582C31.032 8.95784 31.2184 8.87999 31.4129 8.87939H37.2629C37.4574 8.87999 37.6438 8.95784 37.7809 9.09582C37.918 9.2338 37.9947 9.42061 37.9941 9.61514V17.6964C37.995 18.101 37.6683 18.4301 37.2636 18.4321L31.4136 18.4419Z" stroke="#8C8C8C" stroke-width="1.5" stroke-linecap="round" stroke-linejoin="round"/>
<path d="M8.24023 31.2227C8.1543 32.1328 7.81836 32.8438 7.23242 33.3555C6.64648 33.8633 5.86719 34.1172 4.89453 34.1172C4.21484 34.1172 3.61523 33.957 3.0957 33.6367C2.58008 33.3125 2.18164 32.8535 1.90039 32.2598C1.61914 31.666 1.47266 30.9766 1.46094 30.1914V29.3945C1.46094 28.5898 1.60352 27.8809 1.88867 27.2676C2.17383 26.6543 2.58203 26.1816 3.11328 25.8496C3.64844 25.5176 4.26562 25.3516 4.96484 25.3516C5.90625 25.3516 6.66406 25.6074 7.23828 26.1191C7.8125 26.6309 8.14648 27.3535 8.24023 28.2871H6.76367C6.69336 27.6738 6.51367 27.2324 6.22461 26.9629C5.93945 26.6895 5.51953 26.5527 4.96484 26.5527C4.32031 26.5527 3.82422 26.7891 3.47656 27.2617C3.13281 27.7305 2.95703 28.4199 2.94922 29.3301V30.0859C2.94922 31.0078 3.11328 31.7109 3.44141 32.1953C3.77344 32.6797 4.25781 32.9219 4.89453 32.9219C5.47656 32.9219 5.91406 32.791 6.20703 32.5293C6.5 32.2676 6.68555 31.832 6.76367 31.2227H8.24023ZM13.2207 34C13.1582 33.8789 13.1035 33.6816 13.0566 33.4082C12.6035 33.8809 12.0488 34.1172 11.3926 34.1172C10.7559 34.1172 10.2363 33.9355 9.83398 33.5723C9.43164 33.209 9.23047 32.7598 9.23047 32.2246C9.23047 31.5488 9.48047 31.0312 9.98047 30.6719C10.4844 30.3086 11.2031 30.127 12.1367 30.127H13.0098V29.7109C13.0098 29.3828 12.918 29.1211 12.7344 28.9258C12.5508 28.7266 12.2715 28.627 11.8965 28.627C11.5723 28.627 11.3066 28.709 11.0996 28.873C10.8926 29.0332 10.7891 29.2383 10.7891 29.4883H9.36523C9.36523 29.1406 9.48047 28.8164 9.71094 28.5156C9.94141 28.2109 10.2539 27.9727 10.6484 27.8008C11.0469 27.6289 11.4902 27.543 11.9785 27.543C12.7207 27.543 13.3125 27.7305 13.7539 28.1055C14.1953 28.4766 14.4219 29 14.4336 29.6758V32.5352C14.4336 33.1055 14.5137 33.5605 14.6738 33.9004V34H13.2207ZM11.6562 32.9746C11.9375 32.9746 12.2012 32.9062 12.4473 32.7695C12.6973 32.6328 12.8848 32.4492 13.0098 32.2188V31.0234H12.2422C11.7148 31.0234 11.3184 31.1152 11.0527 31.2988C10.7871 31.4824 10.6543 31.7422 10.6543 32.0781C10.6543 32.3516 10.7441 32.5703 10.9238 32.7344C11.1074 32.8945 11.3516 32.9746 11.6562 32.9746ZM17.709 26.1191V27.6602H18.8281V28.7148H17.709V32.2539C17.709 32.4961 17.7559 32.6719 17.8496 32.7812C17.9473 32.8867 18.1191 32.9395 18.3652 32.9395C18.5293 32.9395 18.6953 32.9199 18.8633 32.8809V33.9824C18.5391 34.0723 18.2266 34.1172 17.9258 34.1172C16.832 34.1172 16.2852 33.5137 16.2852 32.3066V28.7148H15.2422V27.6602H16.2852V26.1191H17.709ZM22.7129 34.1172C21.8105 34.1172 21.0781 33.834 20.5156 33.2676C19.957 32.6973 19.6777 31.9395 19.6777 30.9941V30.8184C19.6777 30.1855 19.7988 29.6211 20.041 29.125C20.2871 28.625 20.6309 28.2363 21.0723 27.959C21.5137 27.6816 22.0059 27.543 22.5488 27.543C23.4121 27.543 24.0781 27.8184 24.5469 28.3691C25.0195 28.9199 25.2559 29.6992 25.2559 30.707V31.2812H21.1133C21.1562 31.8047 21.3301 32.2188 21.6348 32.5234C21.9434 32.8281 22.3301 32.9805 22.7949 32.9805C23.4473 32.9805 23.9785 32.7168 24.3887 32.1895L25.1562 32.9219C24.9023 33.3008 24.5625 33.5957 24.1367 33.8066C23.7148 34.0137 23.2402 34.1172 22.7129 34.1172ZM22.543 28.6855C22.1523 28.6855 21.8359 28.8223 21.5938 29.0957C21.3555 29.3691 21.2031 29.75 21.1367 30.2383H23.8496V30.1328C23.8184 29.6562 23.6914 29.2969 23.4688 29.0547C23.2461 28.8086 22.9375 28.6855 22.543 28.6855ZM26.1172 30.7832C26.1172 29.7988 26.3477 29.0137 26.8086 28.4277C27.2734 27.8379 27.8887 27.543 28.6543 27.543C29.377 27.543 29.9453 27.7949 30.3594 28.2988L30.4238 27.6602H31.707V33.8066C31.707 34.6387 31.4473 35.2949 30.9277 35.7754C30.4121 36.2559 29.7148 36.4961 28.8359 36.4961C28.3711 36.4961 27.916 36.3984 27.4707 36.2031C27.0293 36.0117 26.6934 35.7598 26.4629 35.4473L27.1367 34.5918C27.5742 35.1113 28.1133 35.3711 28.7539 35.3711C29.2266 35.3711 29.5996 35.2422 29.873 34.9844C30.1465 34.7305 30.2832 34.3555 30.2832 33.8594V33.4316C29.873 33.8887 29.3262 34.1172 28.6426 34.1172C27.9004 34.1172 27.293 33.8223 26.8203 33.2324C26.3516 32.6426 26.1172 31.8262 26.1172 30.7832ZM27.5352 30.9062C27.5352 31.543 27.6641 32.0449 27.9219 32.4121C28.1836 32.7754 28.5449 32.957 29.0059 32.957C29.5801 32.957 30.0059 32.7109 30.2832 32.2188V29.4297C30.0137 28.9492 29.5918 28.709 29.0176 28.709C28.5488 28.709 28.1836 28.8945 27.9219 29.2656C27.6641 29.6367 27.5352 30.1836 27.5352 30.9062ZM32.9082 30.7715C32.9082 30.1504 33.0312 29.5918 33.2773 29.0957C33.5234 28.5957 33.8691 28.2129 34.3145 27.9473C34.7598 27.6777 35.2715 27.543 35.8496 27.543C36.7051 27.543 37.3984 27.8184 37.9297 28.3691C38.4648 28.9199 38.7539 29.6504 38.7969 30.5605L38.8027 30.8945C38.8027 31.5195 38.6816 32.0781 38.4395 32.5703C38.2012 33.0625 37.8574 33.4434 37.4082 33.7129C36.9629 33.9824 36.4473 34.1172 35.8613 34.1172C34.9668 34.1172 34.25 33.8203 33.7109 33.2266C33.1758 32.6289 32.9082 31.834 32.9082 30.8418V30.7715ZM34.332 30.8945C34.332 31.5469 34.4668 32.0586 34.7363 32.4297C35.0059 32.7969 35.3809 32.9805 35.8613 32.9805C36.3418 32.9805 36.7148 32.793 36.9805 32.418C37.25 32.043 37.3848 31.4941 37.3848 30.7715C37.3848 30.1309 37.2461 29.623 36.9688 29.248C36.6953 28.873 36.3223 28.6855 35.8496 28.6855C35.3848 28.6855 35.0156 28.8711 34.7422 29.2422C34.4688 29.6094 34.332 30.1602 34.332 30.8945ZM43.3262 28.9609C43.1387 28.9297 42.9453 28.9141 42.7461 28.9141C42.0938 28.9141 41.6543 29.1641 41.4277 29.6641V34H40.0039V27.6602H41.3633L41.3984 28.3691C41.7422 27.8184 42.2188 27.543 42.8281 27.543C43.0312 27.543 43.1992 27.5703 43.332 27.625L43.3262 28.9609ZM45.7402 34H44.3164V27.6602H45.7402V34ZM44.2285 26.0137C44.2285 25.7949 44.2969 25.6133 44.4336 25.4688C44.5742 25.3242 44.7734 25.252 45.0312 25.252C45.2891 25.252 45.4883 25.3242 45.6289 25.4688C45.7695 25.6133 45.8398 25.7949 45.8398 26.0137C45.8398 26.2285 45.7695 26.4082 45.6289 26.5527C45.4883 26.6934 45.2891 26.7637 45.0312 26.7637C44.7734 26.7637 44.5742 26.6934 44.4336 26.5527C44.2969 26.4082 44.2285 26.2285 44.2285 26.0137ZM51.084 34C51.0215 33.8789 50.9668 33.6816 50.9199 33.4082C50.4668 33.8809 49.9121 34.1172 49.2559 34.1172C48.6191 34.1172 48.0996 33.9355 47.6973 33.5723C47.2949 33.209 47.0938 32.7598 47.0938 32.2246C47.0938 31.5488 47.3438 31.0312 47.8438 30.6719C48.3477 30.3086 49.0664 30.127 50 30.127H50.873V29.7109C50.873 29.3828 50.7812 29.1211 50.5977 28.9258C50.4141 28.7266 50.1348 28.627 49.7598 28.627C49.4355 28.627 49.1699 28.709 48.9629 28.873C48.7559 29.0332 48.6523 29.2383 48.6523 29.4883H47.2285C47.2285 29.1406 47.3438 28.8164 47.5742 28.5156C47.8047 28.2109 48.1172 27.9727 48.5117 27.8008C48.9102 27.6289 49.3535 27.543 49.8418 27.543C50.584 27.543 51.1758 27.7305 51.6172 28.1055C52.0586 28.4766 52.2852 29 52.2969 29.6758V32.5352C52.2969 33.1055 52.377 33.5605 52.5371 33.9004V34H51.084ZM49.5195 32.9746C49.8008 32.9746 50.0645 32.9062 50.3105 32.7695C50.5605 32.6328 50.748 32.4492 50.873 32.2188V31.0234H50.1055C49.5781 31.0234 49.1816 31.1152 48.916 31.2988C48.6504 31.4824 48.5176 31.7422 48.5176 32.0781C48.5176 32.3516 48.6074 32.5703 48.7871 32.7344C48.9707 32.8945 49.2148 32.9746 49.5195 32.9746ZM57.3418 32.2773C57.3418 32.0234 57.2363 31.8301 57.0254 31.6973C56.8184 31.5645 56.4727 31.4473 55.9883 31.3457C55.5039 31.2441 55.0996 31.1152 54.7754 30.959C54.0645 30.6152 53.709 30.1172 53.709 29.4648C53.709 28.918 53.9395 28.4609 54.4004 28.0938C54.8613 27.7266 55.4473 27.543 56.1582 27.543C56.916 27.543 57.5273 27.7305 57.9922 28.1055C58.4609 28.4805 58.6953 28.9668 58.6953 29.5645H57.2715C57.2715 29.291 57.1699 29.0645 56.9668 28.8848C56.7637 28.7012 56.4941 28.6094 56.1582 28.6094C55.8457 28.6094 55.5898 28.6816 55.3906 28.8262C55.1953 28.9707 55.0977 29.1641 55.0977 29.4062C55.0977 29.625 55.1895 29.7949 55.373 29.916C55.5566 30.0371 55.9277 30.1602 56.4863 30.2852C57.0449 30.4062 57.4824 30.5527 57.7988 30.7246C58.1191 30.8926 58.3555 31.0957 58.5078 31.334C58.6641 31.5723 58.7422 31.8613 58.7422 32.2012C58.7422 32.7715 58.5059 33.2344 58.0332 33.5898C57.5605 33.9414 56.9414 34.1172 56.1758 34.1172C55.6562 34.1172 55.1934 34.0234 54.7871 33.8359C54.3809 33.6484 54.0645 33.3906 53.8379 33.0625C53.6113 32.7344 53.498 32.3809 53.498 32.002H54.8809C54.9004 32.3379 55.0273 32.5977 55.2617 32.7812C55.4961 32.9609 55.8066 33.0508 56.1934 33.0508C56.5684 33.0508 56.8535 32.9805 57.0488 32.8398C57.2441 32.6953 57.3418 32.5078 57.3418 32.2773Z" fill="#8C8C8C"/>
</svg>
