<svg width="50" height="37" viewBox="0 0 50 37" fill="none" xmlns="http://www.w3.org/2000/svg">
<path d="M6.06836 29.2324H2.48828V33H1.36328V24.4688H6.64844V25.3945H2.48828V28.3125H6.06836V29.2324ZM11.541 33C11.4785 32.875 11.4277 32.6523 11.3887 32.332C10.8848 32.8555 10.2832 33.1172 9.58398 33.1172C8.95898 33.1172 8.44531 32.9414 8.04297 32.5898C7.64453 32.2344 7.44531 31.7852 7.44531 31.2422C7.44531 30.582 7.69531 30.0703 8.19531 29.707C8.69922 29.3398 9.40625 29.1562 10.3164 29.1562H11.3711V28.6582C11.3711 28.2793 11.2578 27.9785 11.0312 27.7559C10.8047 27.5293 10.4707 27.416 10.0293 27.416C9.64258 27.416 9.31836 27.5137 9.05664 27.709C8.79492 27.9043 8.66406 28.1406 8.66406 28.418H7.57422C7.57422 28.1016 7.68555 27.7969 7.9082 27.5039C8.13477 27.207 8.43945 26.9727 8.82227 26.8008C9.20898 26.6289 9.63281 26.543 10.0938 26.543C10.8242 26.543 11.3965 26.7266 11.8105 27.0938C12.2246 27.457 12.4395 27.959 12.4551 28.5996V31.5176C12.4551 32.0996 12.5293 32.5625 12.6777 32.9062V33H11.541ZM9.74219 32.1738C10.082 32.1738 10.4043 32.0859 10.709 31.9102C11.0137 31.7344 11.2344 31.5059 11.3711 31.2246V29.9238H10.5215C9.19336 29.9238 8.5293 30.3125 8.5293 31.0898C8.5293 31.4297 8.64258 31.6953 8.86914 31.8867C9.0957 32.0781 9.38672 32.1738 9.74219 32.1738ZM16.1523 31.5293L17.7227 26.6602H18.8301L16.5566 33H15.7305L13.4336 26.6602H14.541L16.1523 31.5293ZM19.4922 29.7715C19.4922 29.1504 19.6133 28.5918 19.8555 28.0957C20.1016 27.5996 20.4414 27.2168 20.875 26.9473C21.3125 26.6777 21.8105 26.543 22.3691 26.543C23.2324 26.543 23.9297 26.8418 24.4609 27.4395C24.9961 28.0371 25.2637 28.832 25.2637 29.8242V29.9004C25.2637 30.5176 25.1445 31.0723 24.9062 31.5645C24.6719 32.0527 24.334 32.4336 23.8926 32.707C23.4551 32.9805 22.9512 33.1172 22.3809 33.1172C21.5215 33.1172 20.8242 32.8184 20.2891 32.2207C19.7578 31.623 19.4922 30.832 19.4922 29.8477V29.7715ZM20.582 29.9004C20.582 30.6035 20.7441 31.168 21.0684 31.5938C21.3965 32.0195 21.834 32.2324 22.3809 32.2324C22.9316 32.2324 23.3691 32.0176 23.6934 31.5879C24.0176 31.1543 24.1797 30.5488 24.1797 29.7715C24.1797 29.0762 24.0137 28.5137 23.6816 28.084C23.3535 27.6504 22.916 27.4336 22.3691 27.4336C21.834 27.4336 21.4023 27.6465 21.0742 28.0723C20.7461 28.498 20.582 29.1074 20.582 29.9004ZM29.6875 27.6328C29.5234 27.6055 29.3457 27.5918 29.1543 27.5918C28.4434 27.5918 27.9609 27.8945 27.707 28.5V33H26.623V26.6602H27.6777L27.6953 27.3926C28.0508 26.8262 28.5547 26.543 29.207 26.543C29.418 26.543 29.5781 26.5703 29.6875 26.625V27.6328ZM31.8672 33H30.7832V26.6602H31.8672V33ZM30.6953 24.9785C30.6953 24.8027 30.748 24.6543 30.8535 24.5332C30.9629 24.4121 31.123 24.3516 31.334 24.3516C31.5449 24.3516 31.7051 24.4121 31.8145 24.5332C31.9238 24.6543 31.9785 24.8027 31.9785 24.9785C31.9785 25.1543 31.9238 25.3008 31.8145 25.418C31.7051 25.5352 31.5449 25.5938 31.334 25.5938C31.123 25.5938 30.9629 25.5352 30.8535 25.418C30.748 25.3008 30.6953 25.1543 30.6953 24.9785ZM35.0781 25.125V26.6602H36.2617V27.498H35.0781V31.4297C35.0781 31.6836 35.1309 31.875 35.2363 32.0039C35.3418 32.1289 35.5215 32.1914 35.7754 32.1914C35.9004 32.1914 36.0723 32.168 36.291 32.1211V33C36.0059 33.0781 35.7285 33.1172 35.459 33.1172C34.9746 33.1172 34.6094 32.9707 34.3633 32.6777C34.1172 32.3848 33.9941 31.9688 33.9941 31.4297V27.498H32.8398V26.6602H33.9941V25.125H35.0781ZM37.1289 29.7715C37.1289 29.1504 37.25 28.5918 37.4922 28.0957C37.7383 27.5996 38.0781 27.2168 38.5117 26.9473C38.9492 26.6777 39.4473 26.543 40.0059 26.543C40.8691 26.543 41.5664 26.8418 42.0977 27.4395C42.6328 28.0371 42.9004 28.832 42.9004 29.8242V29.9004C42.9004 30.5176 42.7812 31.0723 42.543 31.5645C42.3086 32.0527 41.9707 32.4336 41.5293 32.707C41.0918 32.9805 40.5879 33.1172 40.0176 33.1172C39.1582 33.1172 38.4609 32.8184 37.9258 32.2207C37.3945 31.623 37.1289 30.832 37.1289 29.8477V29.7715ZM38.2188 29.9004C38.2188 30.6035 38.3809 31.168 38.7051 31.5938C39.0332 32.0195 39.4707 32.2324 40.0176 32.2324C40.5684 32.2324 41.0059 32.0176 41.3301 31.5879C41.6543 31.1543 41.8164 30.5488 41.8164 29.7715C41.8164 29.0762 41.6504 28.5137 41.3184 28.084C40.9902 27.6504 40.5527 27.4336 40.0059 27.4336C39.4707 27.4336 39.0391 27.6465 38.7109 28.0723C38.3828 28.498 38.2188 29.1074 38.2188 29.9004ZM47.9512 31.3184C47.9512 31.0254 47.8398 30.7988 47.6172 30.6387C47.3984 30.4746 47.0137 30.334 46.4629 30.2168C45.916 30.0996 45.4805 29.959 45.1562 29.7949C44.8359 29.6309 44.5977 29.4355 44.4414 29.209C44.2891 28.9824 44.2129 28.7129 44.2129 28.4004C44.2129 27.8809 44.4316 27.4414 44.8691 27.082C45.3105 26.7227 45.873 26.543 46.5566 26.543C47.2754 26.543 47.8574 26.7285 48.3027 27.0996C48.752 27.4707 48.9766 27.9453 48.9766 28.5234H47.8867C47.8867 28.2266 47.7598 27.9707 47.5059 27.7559C47.2559 27.541 46.9395 27.4336 46.5566 27.4336C46.1621 27.4336 45.8535 27.5195 45.6309 27.6914C45.4082 27.8633 45.2969 28.0879 45.2969 28.3652C45.2969 28.627 45.4004 28.8242 45.6074 28.957C45.8145 29.0898 46.1875 29.2168 46.7266 29.3379C47.2695 29.459 47.709 29.6035 48.0449 29.7715C48.3809 29.9395 48.6289 30.1426 48.7891 30.3809C48.9531 30.6152 49.0352 30.9023 49.0352 31.2422C49.0352 31.8086 48.8086 32.2637 48.3555 32.6074C47.9023 32.9473 47.3145 33.1172 46.5918 33.1172C46.084 33.1172 45.6348 33.0273 45.2441 32.8477C44.8535 32.668 44.5469 32.418 44.3242 32.0977C44.1055 31.7734 43.9961 31.4238 43.9961 31.0488H45.0801C45.0996 31.4121 45.2441 31.7012 45.5137 31.916C45.7871 32.127 46.1465 32.2324 46.5918 32.2324C47.002 32.2324 47.3301 32.1504 47.5762 31.9863C47.8262 31.8184 47.9512 31.5957 47.9512 31.3184Z" fill="#8C8C8C"/>
<path fill-rule="evenodd" clip-rule="evenodd" d="M25 17.0693L17.33 8.90473C15.9465 7.481 15.6062 5.34179 16.4797 3.5591V3.5591C17.1124 2.23446 18.3525 1.30262 19.8008 1.0635C21.2492 0.824386 22.723 1.30819 23.7478 2.35918L25 3.57024L26.2531 2.35575C27.2777 1.30474 28.7514 0.82092 30.1997 1.06004C31.6479 1.29917 32.8878 2.23105 33.5203 3.55567V3.55567C34.3938 5.33836 34.0535 7.47758 32.67 8.9013L25 17.0693Z" stroke="#8C8C8C" stroke-width="1.4" stroke-linecap="round" stroke-linejoin="round"/>
</svg>
