<svg width="34" height="39" viewBox="0 0 34 39" fill="none" xmlns="http://www.w3.org/2000/svg">
<path d="M8.46484 34.1694H7.33398V30.2261H3.0332V34.1694H1.9082V25.6382H3.0332V29.3062H7.33398V25.6382H8.46484V34.1694ZM10.0059 30.9409C10.0059 30.3198 10.127 29.7612 10.3691 29.2651C10.6152 28.769 10.9551 28.3862 11.3887 28.1167C11.8262 27.8472 12.3242 27.7124 12.8828 27.7124C13.7461 27.7124 14.4434 28.0112 14.9746 28.6089C15.5098 29.2065 15.7773 30.0015 15.7773 30.9937V31.0698C15.7773 31.687 15.6582 32.2417 15.4199 32.7339C15.1855 33.2222 14.8477 33.603 14.4062 33.8765C13.9688 34.1499 13.4648 34.2866 12.8945 34.2866C12.0352 34.2866 11.3379 33.9878 10.8027 33.3901C10.2715 32.7925 10.0059 32.0015 10.0059 31.0171V30.9409ZM11.0957 31.0698C11.0957 31.7729 11.2578 32.3374 11.582 32.7632C11.9102 33.189 12.3477 33.4019 12.8945 33.4019C13.4453 33.4019 13.8828 33.187 14.207 32.7573C14.5312 32.3237 14.6934 31.7183 14.6934 30.9409C14.6934 30.2456 14.5273 29.6831 14.1953 29.2534C13.8672 28.8198 13.4297 28.603 12.8828 28.603C12.3477 28.603 11.916 28.8159 11.5879 29.2417C11.2598 29.6675 11.0957 30.2769 11.0957 31.0698ZM18.1562 27.8296L18.1855 28.5327C18.6504 27.9858 19.2773 27.7124 20.0664 27.7124C20.9531 27.7124 21.5566 28.0522 21.877 28.7319C22.0879 28.4272 22.3613 28.1812 22.6973 27.9937C23.0371 27.8062 23.4375 27.7124 23.8984 27.7124C25.2891 27.7124 25.9961 28.4487 26.0195 29.9214V34.1694H24.9355V29.9858C24.9355 29.5327 24.832 29.1948 24.625 28.9722C24.418 28.7456 24.0703 28.6323 23.582 28.6323C23.1797 28.6323 22.8457 28.7534 22.5801 28.9956C22.3145 29.2339 22.1602 29.5562 22.1172 29.9624V34.1694H21.0273V30.0151C21.0273 29.0933 20.5762 28.6323 19.6738 28.6323C18.9629 28.6323 18.4766 28.9351 18.2148 29.5405V34.1694H17.1309V27.8296H18.1562ZM30.291 34.2866C29.4316 34.2866 28.7324 34.0054 28.1934 33.4429C27.6543 32.8765 27.3848 32.1206 27.3848 31.1753V30.9761C27.3848 30.3472 27.5039 29.7866 27.7422 29.2944C27.9844 28.7983 28.3203 28.4116 28.75 28.1343C29.1836 27.853 29.6523 27.7124 30.1562 27.7124C30.9805 27.7124 31.6211 27.9839 32.0781 28.5269C32.5352 29.0698 32.7637 29.8472 32.7637 30.8589V31.3101H28.4688C28.4844 31.9351 28.666 32.4409 29.0137 32.8276C29.3652 33.2104 29.8105 33.4019 30.3496 33.4019C30.7324 33.4019 31.0566 33.3237 31.3223 33.1675C31.5879 33.0112 31.8203 32.8042 32.0195 32.5464L32.6816 33.062C32.1504 33.8784 31.3535 34.2866 30.291 34.2866ZM30.1562 28.603C29.7188 28.603 29.3516 28.7632 29.0547 29.0835C28.7578 29.3999 28.5742 29.8452 28.5039 30.4194H31.6797V30.3374C31.6484 29.7866 31.5 29.3608 31.2344 29.0601C30.9688 28.7554 30.6094 28.603 30.1562 28.603Z" fill="#8C8C8C"/>
<path d="M10.6875 11.6201V18.4951H15.6875V13.4951C15.6875 12.8048 16.2471 12.2451 16.9375 12.2451H18.1875C18.8779 12.2451 19.4375 12.8048 19.4375 13.4951V18.4951H24.4375V11.6201" stroke="#8C8C8C" stroke-width="1.5" stroke-linecap="round" stroke-linejoin="round"/>
<path d="M8.1875 10.3699L16.6783 1.8791C16.9128 1.6445 17.2308 1.5127 17.5625 1.5127C17.8942 1.5127 18.2122 1.6445 18.4467 1.8791L26.9375 10.3699" stroke="#8C8C8C" stroke-width="1.5" stroke-linecap="round" stroke-linejoin="round"/>
</svg>
