<svg width="28" height="38" viewBox="0 0 28 38" fill="none" xmlns="http://www.w3.org/2000/svg">
<path d="M3.44922 24.6382L6.23828 31.5991L9.02734 24.6382H10.4863V33.1694H9.36133V29.8472L9.4668 26.2612L6.66602 33.1694H5.80469L3.00977 26.2788L3.12109 29.8472V33.1694H1.99609V24.6382H3.44922ZM16.2168 33.1694C16.1543 33.0444 16.1035 32.8218 16.0645 32.5015C15.5605 33.0249 14.959 33.2866 14.2598 33.2866C13.6348 33.2866 13.1211 33.1108 12.7188 32.7593C12.3203 32.4038 12.1211 31.9546 12.1211 31.4116C12.1211 30.7515 12.3711 30.2397 12.8711 29.8765C13.375 29.5093 14.082 29.3257 14.9922 29.3257H16.0469V28.8276C16.0469 28.4487 15.9336 28.1479 15.707 27.9253C15.4805 27.6987 15.1465 27.5854 14.7051 27.5854C14.3184 27.5854 13.9941 27.6831 13.7324 27.8784C13.4707 28.0737 13.3398 28.3101 13.3398 28.5874H12.25C12.25 28.271 12.3613 27.9663 12.584 27.6733C12.8105 27.3765 13.1152 27.1421 13.498 26.9702C13.8848 26.7983 14.3086 26.7124 14.7695 26.7124C15.5 26.7124 16.0723 26.896 16.4863 27.2632C16.9004 27.6265 17.1152 28.1284 17.1309 28.769V31.687C17.1309 32.269 17.2051 32.7319 17.3535 33.0757V33.1694H16.2168ZM14.418 32.3433C14.7578 32.3433 15.0801 32.2554 15.3848 32.0796C15.6895 31.9038 15.9102 31.6753 16.0469 31.394V30.0933H15.1973C13.8691 30.0933 13.2051 30.4819 13.2051 31.2593C13.2051 31.5991 13.3184 31.8647 13.5449 32.0562C13.7715 32.2476 14.0625 32.3433 14.418 32.3433ZM20.0078 33.1694H18.9238V26.8296H20.0078V33.1694ZM18.8359 25.1479C18.8359 24.9722 18.8887 24.8237 18.9941 24.7026C19.1035 24.5815 19.2637 24.521 19.4746 24.521C19.6855 24.521 19.8457 24.5815 19.9551 24.7026C20.0645 24.8237 20.1191 24.9722 20.1191 25.1479C20.1191 25.3237 20.0645 25.4702 19.9551 25.5874C19.8457 25.7046 19.6855 25.7632 19.4746 25.7632C19.2637 25.7632 19.1035 25.7046 18.9941 25.5874C18.8887 25.4702 18.8359 25.3237 18.8359 25.1479ZM25.4395 31.4878C25.4395 31.1948 25.3281 30.9683 25.1055 30.8081C24.8867 30.644 24.502 30.5034 23.9512 30.3862C23.4043 30.269 22.9688 30.1284 22.6445 29.9644C22.3242 29.8003 22.0859 29.605 21.9297 29.3784C21.7773 29.1519 21.7012 28.8823 21.7012 28.5698C21.7012 28.0503 21.9199 27.6108 22.3574 27.2515C22.7988 26.8921 23.3613 26.7124 24.0449 26.7124C24.7637 26.7124 25.3457 26.8979 25.791 27.269C26.2402 27.6401 26.4648 28.1147 26.4648 28.6929H25.375C25.375 28.396 25.248 28.1401 24.9941 27.9253C24.7441 27.7104 24.4277 27.603 24.0449 27.603C23.6504 27.603 23.3418 27.689 23.1191 27.8608C22.8965 28.0327 22.7852 28.2573 22.7852 28.5347C22.7852 28.7964 22.8887 28.9937 23.0957 29.1265C23.3027 29.2593 23.6758 29.3862 24.2148 29.5073C24.7578 29.6284 25.1973 29.7729 25.5332 29.9409C25.8691 30.1089 26.1172 30.312 26.2773 30.5503C26.4414 30.7847 26.5234 31.0718 26.5234 31.4116C26.5234 31.978 26.2969 32.4331 25.8438 32.7769C25.3906 33.1167 24.8027 33.2866 24.0801 33.2866C23.5723 33.2866 23.123 33.1968 22.7324 33.0171C22.3418 32.8374 22.0352 32.5874 21.8125 32.2671C21.5938 31.9429 21.4844 31.5933 21.4844 31.2183H22.5684C22.5879 31.5815 22.7324 31.8706 23.002 32.0854C23.2754 32.2964 23.6348 32.4019 24.0801 32.4019C24.4902 32.4019 24.8184 32.3198 25.0645 32.1558C25.3145 31.9878 25.4395 31.7651 25.4395 31.4878Z" fill="#8C8C8C"/>
<path fill-rule="evenodd" clip-rule="evenodd" d="M8.0918 10.9858C9.17911 10.9858 10.0605 10.1044 10.0605 9.01709C10.0605 7.92978 9.17911 7.04834 8.0918 7.04834C7.00449 7.04834 6.12305 7.92978 6.12305 9.01709C6.12305 10.1044 7.00449 10.9858 8.0918 10.9858Z" stroke="#8C8C8C" stroke-width="1.5" stroke-linecap="round" stroke-linejoin="round"/>
<path fill-rule="evenodd" clip-rule="evenodd" d="M21.0293 10.9858C22.1166 10.9858 22.998 10.1044 22.998 9.01709C22.998 7.92978 22.1166 7.04834 21.0293 7.04834C19.942 7.04834 19.0605 7.92978 19.0605 9.01709C19.0605 10.1044 19.942 10.9858 21.0293 10.9858Z" stroke="#8C8C8C" stroke-width="1.5" stroke-linecap="round" stroke-linejoin="round"/>
<path fill-rule="evenodd" clip-rule="evenodd" d="M14.5605 10.9858C15.6479 10.9858 16.5293 10.1044 16.5293 9.01709C16.5293 7.92978 15.6479 7.04834 14.5605 7.04834C13.4732 7.04834 12.5918 7.92978 12.5918 9.01709C12.5918 10.1044 13.4732 10.9858 14.5605 10.9858Z" stroke="#8C8C8C" stroke-width="1.5" stroke-linecap="round" stroke-linejoin="round"/>
</svg>
