<svg width="30" height="38" viewBox="0 0 30 38" fill="none" xmlns="http://www.w3.org/2000/svg">
<path d="M2.73828 32.2495H6.78125V33.1694H1.60742V24.6382H2.73828V32.2495ZM7.60742 29.9409C7.60742 29.3198 7.72852 28.7612 7.9707 28.2651C8.2168 27.769 8.55664 27.3862 8.99023 27.1167C9.42773 26.8472 9.92578 26.7124 10.4844 26.7124C11.3477 26.7124 12.0449 27.0112 12.5762 27.6089C13.1113 28.2065 13.3789 29.0015 13.3789 29.9937V30.0698C13.3789 30.687 13.2598 31.2417 13.0215 31.7339C12.7871 32.2222 12.4492 32.603 12.0078 32.8765C11.5703 33.1499 11.0664 33.2866 10.4961 33.2866C9.63672 33.2866 8.93945 32.9878 8.4043 32.3901C7.87305 31.7925 7.60742 31.0015 7.60742 30.0171V29.9409ZM8.69727 30.0698C8.69727 30.7729 8.85938 31.3374 9.18359 31.7632C9.51172 32.189 9.94922 32.4019 10.4961 32.4019C11.0469 32.4019 11.4844 32.187 11.8086 31.7573C12.1328 31.3237 12.2949 30.7183 12.2949 29.9409C12.2949 29.2456 12.1289 28.6831 11.7969 28.2534C11.4688 27.8198 11.0312 27.603 10.4844 27.603C9.94922 27.603 9.51758 27.8159 9.18945 28.2417C8.86133 28.6675 8.69727 29.2769 8.69727 30.0698ZM15.8574 26.8296V33.9019C15.8574 35.1206 15.3047 35.73 14.1992 35.73C13.9609 35.73 13.7402 35.6948 13.5371 35.6245V34.7573C13.6621 34.7886 13.8262 34.8042 14.0293 34.8042C14.2715 34.8042 14.4551 34.7378 14.5801 34.605C14.709 34.4761 14.7734 34.2495 14.7734 33.9253V26.8296H15.8574ZM14.6621 25.1479C14.6621 24.9761 14.7148 24.8296 14.8203 24.7085C14.9297 24.5835 15.0879 24.521 15.2949 24.521C15.5059 24.521 15.666 24.5815 15.7754 24.7026C15.8848 24.8237 15.9395 24.9722 15.9395 25.1479C15.9395 25.3237 15.8848 25.4702 15.7754 25.5874C15.666 25.7046 15.5059 25.7632 15.2949 25.7632C15.084 25.7632 14.9258 25.7046 14.8203 25.5874C14.7148 25.4702 14.6621 25.3237 14.6621 25.1479ZM21.5234 33.1694C21.4609 33.0444 21.4102 32.8218 21.3711 32.5015C20.8672 33.0249 20.2656 33.2866 19.5664 33.2866C18.9414 33.2866 18.4277 33.1108 18.0254 32.7593C17.627 32.4038 17.4277 31.9546 17.4277 31.4116C17.4277 30.7515 17.6777 30.2397 18.1777 29.8765C18.6816 29.5093 19.3887 29.3257 20.2988 29.3257H21.3535V28.8276C21.3535 28.4487 21.2402 28.1479 21.0137 27.9253C20.7871 27.6987 20.4531 27.5854 20.0117 27.5854C19.625 27.5854 19.3008 27.6831 19.0391 27.8784C18.7773 28.0737 18.6465 28.3101 18.6465 28.5874H17.5566C17.5566 28.271 17.668 27.9663 17.8906 27.6733C18.1172 27.3765 18.4219 27.1421 18.8047 26.9702C19.1914 26.7983 19.6152 26.7124 20.0762 26.7124C20.8066 26.7124 21.3789 26.896 21.793 27.2632C22.207 27.6265 22.4219 28.1284 22.4375 28.769V31.687C22.4375 32.269 22.5117 32.7319 22.6602 33.0757V33.1694H21.5234ZM19.7246 32.3433C20.0645 32.3433 20.3867 32.2554 20.6914 32.0796C20.9961 31.9038 21.2168 31.6753 21.3535 31.394V30.0933H20.5039C19.1758 30.0933 18.5117 30.4819 18.5117 31.2593C18.5117 31.5991 18.625 31.8647 18.8516 32.0562C19.0781 32.2476 19.3691 32.3433 19.7246 32.3433ZM27.8281 31.4878C27.8281 31.1948 27.7168 30.9683 27.4941 30.8081C27.2754 30.644 26.8906 30.5034 26.3398 30.3862C25.793 30.269 25.3574 30.1284 25.0332 29.9644C24.7129 29.8003 24.4746 29.605 24.3184 29.3784C24.166 29.1519 24.0898 28.8823 24.0898 28.5698C24.0898 28.0503 24.3086 27.6108 24.7461 27.2515C25.1875 26.8921 25.75 26.7124 26.4336 26.7124C27.1523 26.7124 27.7344 26.8979 28.1797 27.269C28.6289 27.6401 28.8535 28.1147 28.8535 28.6929H27.7637C27.7637 28.396 27.6367 28.1401 27.3828 27.9253C27.1328 27.7104 26.8164 27.603 26.4336 27.603C26.0391 27.603 25.7305 27.689 25.5078 27.8608C25.2852 28.0327 25.1738 28.2573 25.1738 28.5347C25.1738 28.7964 25.2773 28.9937 25.4844 29.1265C25.6914 29.2593 26.0645 29.3862 26.6035 29.5073C27.1465 29.6284 27.5859 29.7729 27.9219 29.9409C28.2578 30.1089 28.5059 30.312 28.666 30.5503C28.8301 30.7847 28.9121 31.0718 28.9121 31.4116C28.9121 31.978 28.6855 32.4331 28.2324 32.7769C27.7793 33.1167 27.1914 33.2866 26.4688 33.2866C25.9609 33.2866 25.5117 33.1968 25.1211 33.0171C24.7305 32.8374 24.4238 32.5874 24.2012 32.2671C23.9824 31.9429 23.873 31.5933 23.873 31.2183H24.957C24.9766 31.5815 25.1211 31.8706 25.3906 32.0854C25.6641 32.2964 26.0234 32.4019 26.4688 32.4019C26.8789 32.4019 27.207 32.3198 27.4531 32.1558C27.7031 31.9878 27.8281 31.7651 27.8281 31.4878Z" fill="#8C8C8C"/>
<path d="M23.0605 9.75V16.5C23.0605 17.1213 22.5569 17.625 21.9355 17.625H9.56055C8.93923 17.625 8.43555 17.1213 8.43555 16.5V9.75M8.43555 13.125H17.998M17.998 17.625V9.75M22.609 0.75H8.88705C8.62333 0.749956 8.39489 0.932898 8.3373 1.19025L7.31055 5.8125C7.31055 6.74448 8.06607 7.5 8.99805 7.5C9.93003 7.5 10.6855 6.74448 10.6855 5.8125C10.6855 6.74448 11.4411 7.5 12.373 7.5C13.305 7.5 14.0605 6.74448 14.0605 5.8125C14.0605 6.74448 14.8161 7.5 15.748 7.5C16.68 7.5 17.4355 6.74448 17.4355 5.8125C17.4355 6.74448 18.1911 7.5 19.123 7.5C20.055 7.5 20.8105 6.74448 20.8105 5.8125C20.8105 6.74448 21.5661 7.5 22.498 7.5C23.43 7.5 24.1855 6.74448 24.1855 5.8125L23.158 1.19025C23.101 0.932856 22.8727 0.749744 22.609 0.75Z" stroke="#8C8C8C" stroke-width="1.5" stroke-linecap="round" stroke-linejoin="round"/>
</svg>
