<svg width="23" height="24" viewBox="0 0 23 24" fill="none" xmlns="http://www.w3.org/2000/svg">
<circle cx="11.3047" cy="7.875" r="2.75" stroke="#3376B8" stroke-width="1.4" stroke-linecap="round" stroke-linejoin="round"/>
<path fill-rule="evenodd" clip-rule="evenodd" d="M11.3047 1.6875C14.7219 1.6875 17.4922 4.45774 17.4922 7.875C17.4922 10.8551 12.7879 17.5248 11.5834 19.1839C11.5183 19.2727 11.4148 19.3251 11.3047 19.3251C11.1946 19.3251 11.0911 19.2727 11.026 19.1839C9.82152 17.5248 5.11719 10.8551 5.11719 7.875C5.11719 4.45774 7.88743 1.6875 11.3047 1.6875Z" stroke="#3376B8" stroke-width="1.4" stroke-linecap="round" stroke-linejoin="round"/>
<path d="M16.7854 17.3027C19.2898 17.7987 20.9297 18.6264 20.9297 19.5632C20.9297 21.0822 16.6214 22.3132 11.3047 22.3132C5.98802 22.3132 1.67969 21.0822 1.67969 19.5632C1.67969 18.6282 3.31227 17.8023 5.80469 17.3055" stroke="#3376B8" stroke-width="1.4" stroke-linecap="round" stroke-linejoin="round"/>
</svg>
