<svg width="8" height="12" viewBox="0 0 8 12" fill="none" xmlns="http://www.w3.org/2000/svg">
<path fill-rule="evenodd" clip-rule="evenodd" d="M8 3.75C8 1.67893 6.32107 0 4.25 0C2.17893 0 0.5 1.67893 0.5 3.75C0.5 5.4535 3.037 9.725 3.9375 11.0825C4.00698 11.1872 4.12431 11.2502 4.25 11.2502C4.37569 11.2502 4.49302 11.1872 4.5625 11.0825C5.463 9.725 8 5.4535 8 3.75ZM4.25 5.625C5.28553 5.625 6.125 4.78553 6.125 3.75C6.125 2.71447 5.28553 1.875 4.25 1.875C3.21447 1.875 2.375 2.71447 2.375 3.75C2.375 4.78553 3.21447 5.625 4.25 5.625Z" fill="#666666"/>
</svg>
