<svg width="23" height="22" viewBox="0 0 23 22" fill="none" xmlns="http://www.w3.org/2000/svg">
<path d="M0.992188 10.084H21.6172" stroke="#3376B8" stroke-width="1.4" stroke-linecap="round" stroke-linejoin="round"/>
<path fill-rule="evenodd" clip-rule="evenodd" d="M20.2422 10.084H2.36719C2.36675 13.4223 4.22846 16.482 7.19344 18.0159C7.36399 18.1047 7.48968 18.2608 7.54016 18.4463C7.59064 18.6319 7.56131 18.8301 7.45927 18.9931C7.23629 19.353 7.03784 19.7275 6.86527 20.1141C6.76944 20.3269 6.78808 20.5738 6.91477 20.7697C7.04147 20.9657 7.25892 21.084 7.49227 21.084H15.1171C15.3503 21.0836 15.5674 20.9651 15.694 20.7693C15.8205 20.5735 15.8394 20.3269 15.7441 20.1141C15.5715 19.7275 15.3731 19.353 15.1501 18.9931C15.0483 18.83 15.0192 18.6319 15.0696 18.4464C15.1201 18.261 15.2456 18.1049 15.4159 18.0159C18.3809 16.482 20.2426 13.4223 20.2422 10.084Z" stroke="#3376B8" stroke-width="1.4" stroke-linecap="round" stroke-linejoin="round"/>
<path d="M13.3672 7.33415L16.9944 1.28874C17.2855 0.803875 17.8743 0.586269 18.4107 0.765319V0.765319C18.7145 0.866538 18.9655 1.08437 19.1086 1.37082C19.2516 1.65727 19.2749 1.98884 19.1734 2.29249L17.4922 7.33415" stroke="#3376B8" stroke-width="1.4" stroke-linecap="round" stroke-linejoin="round"/>
</svg>
